%FSLAX45Y45*%
G04 Gerber Fmt 4.5, Leading zero omitted, Abs format (unit mm)*
G04 Created by KiCad (PCBNEW (5.1.10)-1) date 2023-12-13 16:59:55*
%MOMM*%
%LPD*%
G01*
G04 APERTURE LIST*
%TA.AperFunction,Profile*%
%ADD10C,0.050000*%
%TD*%
%ADD11C,0.200000*%
%ADD12C,0.300000*%
G04 APERTURE END LIST*
D10*
X25146000Y-1244600D02*
X1206500Y-1244600D01*
X25146000Y-8001000D02*
X25146000Y-1244600D01*
X1206500Y-8001000D02*
X25146000Y-8001000D01*
X1206500Y-1244600D02*
X1206500Y-8001000D01*
D11*
X4996500Y-2202500D02*
X5036500Y-2242500D01*
X5036500Y-2202500D02*
X4996500Y-2242500D01*
X6393500Y-2202500D02*
X6433500Y-2242500D01*
X6433500Y-2202500D02*
X6393500Y-2242500D01*
X7790500Y-2202500D02*
X7830500Y-2242500D01*
X7830500Y-2202500D02*
X7790500Y-2242500D01*
X9187500Y-2202500D02*
X9227500Y-2242500D01*
X9227500Y-2202500D02*
X9187500Y-2242500D01*
X10584500Y-2202500D02*
X10624500Y-2242500D01*
X10624500Y-2202500D02*
X10584500Y-2242500D01*
X11981500Y-2202500D02*
X12021500Y-2242500D01*
X12021500Y-2202500D02*
X11981500Y-2242500D01*
X13378500Y-2202500D02*
X13418500Y-2242500D01*
X13418500Y-2202500D02*
X13378500Y-2242500D01*
X14775500Y-2202500D02*
X14815500Y-2242500D01*
X14815500Y-2202500D02*
X14775500Y-2242500D01*
X16172500Y-2202500D02*
X16212500Y-2242500D01*
X16212500Y-2202500D02*
X16172500Y-2242500D01*
X17569500Y-2202500D02*
X17609500Y-2242500D01*
X17609500Y-2202500D02*
X17569500Y-2242500D01*
X18966500Y-2202500D02*
X19006500Y-2242500D01*
X19006500Y-2202500D02*
X18966500Y-2242500D01*
X20363500Y-2202500D02*
X20403500Y-2242500D01*
X20403500Y-2202500D02*
X20363500Y-2242500D01*
X21760500Y-2202500D02*
X21800500Y-2242500D01*
X21800500Y-2202500D02*
X21760500Y-2242500D01*
X23157500Y-2202500D02*
X23197500Y-2242500D01*
X23197500Y-2202500D02*
X23157500Y-2242500D01*
X2458000Y-2349500D02*
G75*
G03*
X2458000Y-2349500I-45000J0D01*
G01*
X2458000Y-2603500D02*
G75*
G03*
X2458000Y-2603500I-45000J0D01*
G01*
X2458000Y-3048000D02*
G75*
G03*
X2458000Y-3048000I-45000J0D01*
G01*
X2458000Y-3302000D02*
G75*
G03*
X2458000Y-3302000I-45000J0D01*
G01*
X2458000Y-3746500D02*
G75*
G03*
X2458000Y-3746500I-45000J0D01*
G01*
X2458000Y-4000500D02*
G75*
G03*
X2458000Y-4000500I-45000J0D01*
G01*
X2458000Y-4445000D02*
G75*
G03*
X2458000Y-4445000I-45000J0D01*
G01*
X2458000Y-4699000D02*
G75*
G03*
X2458000Y-4699000I-45000J0D01*
G01*
X2458000Y-5143500D02*
G75*
G03*
X2458000Y-5143500I-45000J0D01*
G01*
X2458000Y-5397500D02*
G75*
G03*
X2458000Y-5397500I-45000J0D01*
G01*
X2458000Y-5842000D02*
G75*
G03*
X2458000Y-5842000I-45000J0D01*
G01*
X2458000Y-6096000D02*
G75*
G03*
X2458000Y-6096000I-45000J0D01*
G01*
X2458000Y-6540500D02*
G75*
G03*
X2458000Y-6540500I-45000J0D01*
G01*
X2458000Y-6794500D02*
G75*
G03*
X2458000Y-6794500I-45000J0D01*
G01*
X2458000Y-7239000D02*
G75*
G03*
X2458000Y-7239000I-45000J0D01*
G01*
X2458000Y-7493000D02*
G75*
G03*
X2458000Y-7493000I-45000J0D01*
G01*
X3156500Y-2349500D02*
G75*
G03*
X3156500Y-2349500I-45000J0D01*
G01*
X3156500Y-2603500D02*
G75*
G03*
X3156500Y-2603500I-45000J0D01*
G01*
X3156500Y-3048000D02*
G75*
G03*
X3156500Y-3048000I-45000J0D01*
G01*
X3156500Y-3302000D02*
G75*
G03*
X3156500Y-3302000I-45000J0D01*
G01*
X3156500Y-3746500D02*
G75*
G03*
X3156500Y-3746500I-45000J0D01*
G01*
X3156500Y-4000500D02*
G75*
G03*
X3156500Y-4000500I-45000J0D01*
G01*
X3156500Y-4445000D02*
G75*
G03*
X3156500Y-4445000I-45000J0D01*
G01*
X3156500Y-4699000D02*
G75*
G03*
X3156500Y-4699000I-45000J0D01*
G01*
X3156500Y-5143500D02*
G75*
G03*
X3156500Y-5143500I-45000J0D01*
G01*
X3156500Y-5397500D02*
G75*
G03*
X3156500Y-5397500I-45000J0D01*
G01*
X3156500Y-5842000D02*
G75*
G03*
X3156500Y-5842000I-45000J0D01*
G01*
X3156500Y-6096000D02*
G75*
G03*
X3156500Y-6096000I-45000J0D01*
G01*
X3156500Y-6540500D02*
G75*
G03*
X3156500Y-6540500I-45000J0D01*
G01*
X3156500Y-6794500D02*
G75*
G03*
X3156500Y-6794500I-45000J0D01*
G01*
X3156500Y-7239000D02*
G75*
G03*
X3156500Y-7239000I-45000J0D01*
G01*
X3156500Y-7493000D02*
G75*
G03*
X3156500Y-7493000I-45000J0D01*
G01*
X3855000Y-2349500D02*
G75*
G03*
X3855000Y-2349500I-45000J0D01*
G01*
X3855000Y-2603500D02*
G75*
G03*
X3855000Y-2603500I-45000J0D01*
G01*
X3855000Y-3048000D02*
G75*
G03*
X3855000Y-3048000I-45000J0D01*
G01*
X3855000Y-3302000D02*
G75*
G03*
X3855000Y-3302000I-45000J0D01*
G01*
X3855000Y-3746500D02*
G75*
G03*
X3855000Y-3746500I-45000J0D01*
G01*
X3855000Y-4000500D02*
G75*
G03*
X3855000Y-4000500I-45000J0D01*
G01*
X3855000Y-4445000D02*
G75*
G03*
X3855000Y-4445000I-45000J0D01*
G01*
X3855000Y-4699000D02*
G75*
G03*
X3855000Y-4699000I-45000J0D01*
G01*
X3855000Y-5143500D02*
G75*
G03*
X3855000Y-5143500I-45000J0D01*
G01*
X3855000Y-5397500D02*
G75*
G03*
X3855000Y-5397500I-45000J0D01*
G01*
X3855000Y-5842000D02*
G75*
G03*
X3855000Y-5842000I-45000J0D01*
G01*
X3855000Y-6096000D02*
G75*
G03*
X3855000Y-6096000I-45000J0D01*
G01*
X3855000Y-6540500D02*
G75*
G03*
X3855000Y-6540500I-45000J0D01*
G01*
X3855000Y-6794500D02*
G75*
G03*
X3855000Y-6794500I-45000J0D01*
G01*
X3855000Y-7239000D02*
G75*
G03*
X3855000Y-7239000I-45000J0D01*
G01*
X3855000Y-7493000D02*
G75*
G03*
X3855000Y-7493000I-45000J0D01*
G01*
X4553500Y-2349500D02*
G75*
G03*
X4553500Y-2349500I-45000J0D01*
G01*
X4553500Y-2603500D02*
G75*
G03*
X4553500Y-2603500I-45000J0D01*
G01*
X4553500Y-3048000D02*
G75*
G03*
X4553500Y-3048000I-45000J0D01*
G01*
X4553500Y-3302000D02*
G75*
G03*
X4553500Y-3302000I-45000J0D01*
G01*
X4553500Y-3746500D02*
G75*
G03*
X4553500Y-3746500I-45000J0D01*
G01*
X4553500Y-4000500D02*
G75*
G03*
X4553500Y-4000500I-45000J0D01*
G01*
X4553500Y-4445000D02*
G75*
G03*
X4553500Y-4445000I-45000J0D01*
G01*
X4553500Y-4699000D02*
G75*
G03*
X4553500Y-4699000I-45000J0D01*
G01*
X4553500Y-5143500D02*
G75*
G03*
X4553500Y-5143500I-45000J0D01*
G01*
X4553500Y-5397500D02*
G75*
G03*
X4553500Y-5397500I-45000J0D01*
G01*
X4553500Y-5842000D02*
G75*
G03*
X4553500Y-5842000I-45000J0D01*
G01*
X4553500Y-6096000D02*
G75*
G03*
X4553500Y-6096000I-45000J0D01*
G01*
X4553500Y-6540500D02*
G75*
G03*
X4553500Y-6540500I-45000J0D01*
G01*
X4553500Y-6794500D02*
G75*
G03*
X4553500Y-6794500I-45000J0D01*
G01*
X4553500Y-7239000D02*
G75*
G03*
X4553500Y-7239000I-45000J0D01*
G01*
X4553500Y-7493000D02*
G75*
G03*
X4553500Y-7493000I-45000J0D01*
G01*
X5252000Y-2349500D02*
G75*
G03*
X5252000Y-2349500I-45000J0D01*
G01*
X5252000Y-2603500D02*
G75*
G03*
X5252000Y-2603500I-45000J0D01*
G01*
X5252000Y-3048000D02*
G75*
G03*
X5252000Y-3048000I-45000J0D01*
G01*
X5252000Y-3302000D02*
G75*
G03*
X5252000Y-3302000I-45000J0D01*
G01*
X5252000Y-3746500D02*
G75*
G03*
X5252000Y-3746500I-45000J0D01*
G01*
X5252000Y-4000500D02*
G75*
G03*
X5252000Y-4000500I-45000J0D01*
G01*
X5252000Y-4445000D02*
G75*
G03*
X5252000Y-4445000I-45000J0D01*
G01*
X5252000Y-4699000D02*
G75*
G03*
X5252000Y-4699000I-45000J0D01*
G01*
X5252000Y-5143500D02*
G75*
G03*
X5252000Y-5143500I-45000J0D01*
G01*
X5252000Y-5397500D02*
G75*
G03*
X5252000Y-5397500I-45000J0D01*
G01*
X5252000Y-5842000D02*
G75*
G03*
X5252000Y-5842000I-45000J0D01*
G01*
X5252000Y-6096000D02*
G75*
G03*
X5252000Y-6096000I-45000J0D01*
G01*
X5252000Y-6540500D02*
G75*
G03*
X5252000Y-6540500I-45000J0D01*
G01*
X5252000Y-6794500D02*
G75*
G03*
X5252000Y-6794500I-45000J0D01*
G01*
X5252000Y-7239000D02*
G75*
G03*
X5252000Y-7239000I-45000J0D01*
G01*
X5252000Y-7493000D02*
G75*
G03*
X5252000Y-7493000I-45000J0D01*
G01*
X5950500Y-2349500D02*
G75*
G03*
X5950500Y-2349500I-45000J0D01*
G01*
X5950500Y-2603500D02*
G75*
G03*
X5950500Y-2603500I-45000J0D01*
G01*
X5950500Y-3048000D02*
G75*
G03*
X5950500Y-3048000I-45000J0D01*
G01*
X5950500Y-3302000D02*
G75*
G03*
X5950500Y-3302000I-45000J0D01*
G01*
X5950500Y-3746500D02*
G75*
G03*
X5950500Y-3746500I-45000J0D01*
G01*
X5950500Y-4000500D02*
G75*
G03*
X5950500Y-4000500I-45000J0D01*
G01*
X5950500Y-4445000D02*
G75*
G03*
X5950500Y-4445000I-45000J0D01*
G01*
X5950500Y-4699000D02*
G75*
G03*
X5950500Y-4699000I-45000J0D01*
G01*
X5950500Y-5143500D02*
G75*
G03*
X5950500Y-5143500I-45000J0D01*
G01*
X5950500Y-5397500D02*
G75*
G03*
X5950500Y-5397500I-45000J0D01*
G01*
X5950500Y-5842000D02*
G75*
G03*
X5950500Y-5842000I-45000J0D01*
G01*
X5950500Y-6096000D02*
G75*
G03*
X5950500Y-6096000I-45000J0D01*
G01*
X5950500Y-6540500D02*
G75*
G03*
X5950500Y-6540500I-45000J0D01*
G01*
X5950500Y-6794500D02*
G75*
G03*
X5950500Y-6794500I-45000J0D01*
G01*
X5950500Y-7239000D02*
G75*
G03*
X5950500Y-7239000I-45000J0D01*
G01*
X5950500Y-7493000D02*
G75*
G03*
X5950500Y-7493000I-45000J0D01*
G01*
X6649000Y-2349500D02*
G75*
G03*
X6649000Y-2349500I-45000J0D01*
G01*
X6649000Y-2603500D02*
G75*
G03*
X6649000Y-2603500I-45000J0D01*
G01*
X6649000Y-3048000D02*
G75*
G03*
X6649000Y-3048000I-45000J0D01*
G01*
X6649000Y-3302000D02*
G75*
G03*
X6649000Y-3302000I-45000J0D01*
G01*
X6649000Y-3746500D02*
G75*
G03*
X6649000Y-3746500I-45000J0D01*
G01*
X6649000Y-4000500D02*
G75*
G03*
X6649000Y-4000500I-45000J0D01*
G01*
X6649000Y-4445000D02*
G75*
G03*
X6649000Y-4445000I-45000J0D01*
G01*
X6649000Y-4699000D02*
G75*
G03*
X6649000Y-4699000I-45000J0D01*
G01*
X6649000Y-5143500D02*
G75*
G03*
X6649000Y-5143500I-45000J0D01*
G01*
X6649000Y-5397500D02*
G75*
G03*
X6649000Y-5397500I-45000J0D01*
G01*
X6649000Y-5842000D02*
G75*
G03*
X6649000Y-5842000I-45000J0D01*
G01*
X6649000Y-6096000D02*
G75*
G03*
X6649000Y-6096000I-45000J0D01*
G01*
X6649000Y-6540500D02*
G75*
G03*
X6649000Y-6540500I-45000J0D01*
G01*
X6649000Y-6794500D02*
G75*
G03*
X6649000Y-6794500I-45000J0D01*
G01*
X6649000Y-7239000D02*
G75*
G03*
X6649000Y-7239000I-45000J0D01*
G01*
X6649000Y-7493000D02*
G75*
G03*
X6649000Y-7493000I-45000J0D01*
G01*
X7347500Y-2349500D02*
G75*
G03*
X7347500Y-2349500I-45000J0D01*
G01*
X7347500Y-2603500D02*
G75*
G03*
X7347500Y-2603500I-45000J0D01*
G01*
X7347500Y-3048000D02*
G75*
G03*
X7347500Y-3048000I-45000J0D01*
G01*
X7347500Y-3302000D02*
G75*
G03*
X7347500Y-3302000I-45000J0D01*
G01*
X7347500Y-3746500D02*
G75*
G03*
X7347500Y-3746500I-45000J0D01*
G01*
X7347500Y-4000500D02*
G75*
G03*
X7347500Y-4000500I-45000J0D01*
G01*
X7347500Y-4445000D02*
G75*
G03*
X7347500Y-4445000I-45000J0D01*
G01*
X7347500Y-4699000D02*
G75*
G03*
X7347500Y-4699000I-45000J0D01*
G01*
X7347500Y-5143500D02*
G75*
G03*
X7347500Y-5143500I-45000J0D01*
G01*
X7347500Y-5397500D02*
G75*
G03*
X7347500Y-5397500I-45000J0D01*
G01*
X7347500Y-5842000D02*
G75*
G03*
X7347500Y-5842000I-45000J0D01*
G01*
X7347500Y-6096000D02*
G75*
G03*
X7347500Y-6096000I-45000J0D01*
G01*
X7347500Y-6540500D02*
G75*
G03*
X7347500Y-6540500I-45000J0D01*
G01*
X7347500Y-6794500D02*
G75*
G03*
X7347500Y-6794500I-45000J0D01*
G01*
X7347500Y-7239000D02*
G75*
G03*
X7347500Y-7239000I-45000J0D01*
G01*
X7347500Y-7493000D02*
G75*
G03*
X7347500Y-7493000I-45000J0D01*
G01*
X8046000Y-2349500D02*
G75*
G03*
X8046000Y-2349500I-45000J0D01*
G01*
X8046000Y-2603500D02*
G75*
G03*
X8046000Y-2603500I-45000J0D01*
G01*
X8046000Y-3048000D02*
G75*
G03*
X8046000Y-3048000I-45000J0D01*
G01*
X8046000Y-3302000D02*
G75*
G03*
X8046000Y-3302000I-45000J0D01*
G01*
X8046000Y-3746500D02*
G75*
G03*
X8046000Y-3746500I-45000J0D01*
G01*
X8046000Y-4000500D02*
G75*
G03*
X8046000Y-4000500I-45000J0D01*
G01*
X8046000Y-4445000D02*
G75*
G03*
X8046000Y-4445000I-45000J0D01*
G01*
X8046000Y-4699000D02*
G75*
G03*
X8046000Y-4699000I-45000J0D01*
G01*
X8046000Y-5143500D02*
G75*
G03*
X8046000Y-5143500I-45000J0D01*
G01*
X8046000Y-5397500D02*
G75*
G03*
X8046000Y-5397500I-45000J0D01*
G01*
X8046000Y-5842000D02*
G75*
G03*
X8046000Y-5842000I-45000J0D01*
G01*
X8046000Y-6096000D02*
G75*
G03*
X8046000Y-6096000I-45000J0D01*
G01*
X8046000Y-6540500D02*
G75*
G03*
X8046000Y-6540500I-45000J0D01*
G01*
X8046000Y-6794500D02*
G75*
G03*
X8046000Y-6794500I-45000J0D01*
G01*
X8046000Y-7239000D02*
G75*
G03*
X8046000Y-7239000I-45000J0D01*
G01*
X8046000Y-7493000D02*
G75*
G03*
X8046000Y-7493000I-45000J0D01*
G01*
X8744500Y-2349500D02*
G75*
G03*
X8744500Y-2349500I-45000J0D01*
G01*
X8744500Y-2603500D02*
G75*
G03*
X8744500Y-2603500I-45000J0D01*
G01*
X8744500Y-3048000D02*
G75*
G03*
X8744500Y-3048000I-45000J0D01*
G01*
X8744500Y-3302000D02*
G75*
G03*
X8744500Y-3302000I-45000J0D01*
G01*
X8744500Y-3746500D02*
G75*
G03*
X8744500Y-3746500I-45000J0D01*
G01*
X8744500Y-4000500D02*
G75*
G03*
X8744500Y-4000500I-45000J0D01*
G01*
X8744500Y-4445000D02*
G75*
G03*
X8744500Y-4445000I-45000J0D01*
G01*
X8744500Y-4699000D02*
G75*
G03*
X8744500Y-4699000I-45000J0D01*
G01*
X8744500Y-5143500D02*
G75*
G03*
X8744500Y-5143500I-45000J0D01*
G01*
X8744500Y-5397500D02*
G75*
G03*
X8744500Y-5397500I-45000J0D01*
G01*
X8744500Y-5842000D02*
G75*
G03*
X8744500Y-5842000I-45000J0D01*
G01*
X8744500Y-6096000D02*
G75*
G03*
X8744500Y-6096000I-45000J0D01*
G01*
X8744500Y-6540500D02*
G75*
G03*
X8744500Y-6540500I-45000J0D01*
G01*
X8744500Y-6794500D02*
G75*
G03*
X8744500Y-6794500I-45000J0D01*
G01*
X8744500Y-7239000D02*
G75*
G03*
X8744500Y-7239000I-45000J0D01*
G01*
X8744500Y-7493000D02*
G75*
G03*
X8744500Y-7493000I-45000J0D01*
G01*
X9443000Y-2349500D02*
G75*
G03*
X9443000Y-2349500I-45000J0D01*
G01*
X9443000Y-2603500D02*
G75*
G03*
X9443000Y-2603500I-45000J0D01*
G01*
X9443000Y-3048000D02*
G75*
G03*
X9443000Y-3048000I-45000J0D01*
G01*
X9443000Y-3302000D02*
G75*
G03*
X9443000Y-3302000I-45000J0D01*
G01*
X9443000Y-3746500D02*
G75*
G03*
X9443000Y-3746500I-45000J0D01*
G01*
X9443000Y-4000500D02*
G75*
G03*
X9443000Y-4000500I-45000J0D01*
G01*
X9443000Y-4445000D02*
G75*
G03*
X9443000Y-4445000I-45000J0D01*
G01*
X9443000Y-4699000D02*
G75*
G03*
X9443000Y-4699000I-45000J0D01*
G01*
X9443000Y-5143500D02*
G75*
G03*
X9443000Y-5143500I-45000J0D01*
G01*
X9443000Y-5397500D02*
G75*
G03*
X9443000Y-5397500I-45000J0D01*
G01*
X9443000Y-5842000D02*
G75*
G03*
X9443000Y-5842000I-45000J0D01*
G01*
X9443000Y-6096000D02*
G75*
G03*
X9443000Y-6096000I-45000J0D01*
G01*
X9443000Y-6540500D02*
G75*
G03*
X9443000Y-6540500I-45000J0D01*
G01*
X9443000Y-6794500D02*
G75*
G03*
X9443000Y-6794500I-45000J0D01*
G01*
X9443000Y-7239000D02*
G75*
G03*
X9443000Y-7239000I-45000J0D01*
G01*
X9443000Y-7493000D02*
G75*
G03*
X9443000Y-7493000I-45000J0D01*
G01*
X10141500Y-2349500D02*
G75*
G03*
X10141500Y-2349500I-45000J0D01*
G01*
X10141500Y-2603500D02*
G75*
G03*
X10141500Y-2603500I-45000J0D01*
G01*
X10141500Y-3048000D02*
G75*
G03*
X10141500Y-3048000I-45000J0D01*
G01*
X10141500Y-3302000D02*
G75*
G03*
X10141500Y-3302000I-45000J0D01*
G01*
X10141500Y-3746500D02*
G75*
G03*
X10141500Y-3746500I-45000J0D01*
G01*
X10141500Y-4000500D02*
G75*
G03*
X10141500Y-4000500I-45000J0D01*
G01*
X10141500Y-4445000D02*
G75*
G03*
X10141500Y-4445000I-45000J0D01*
G01*
X10141500Y-4699000D02*
G75*
G03*
X10141500Y-4699000I-45000J0D01*
G01*
X10141500Y-5143500D02*
G75*
G03*
X10141500Y-5143500I-45000J0D01*
G01*
X10141500Y-5397500D02*
G75*
G03*
X10141500Y-5397500I-45000J0D01*
G01*
X10141500Y-5842000D02*
G75*
G03*
X10141500Y-5842000I-45000J0D01*
G01*
X10141500Y-6096000D02*
G75*
G03*
X10141500Y-6096000I-45000J0D01*
G01*
X10141500Y-6540500D02*
G75*
G03*
X10141500Y-6540500I-45000J0D01*
G01*
X10141500Y-6794500D02*
G75*
G03*
X10141500Y-6794500I-45000J0D01*
G01*
X10141500Y-7239000D02*
G75*
G03*
X10141500Y-7239000I-45000J0D01*
G01*
X10141500Y-7493000D02*
G75*
G03*
X10141500Y-7493000I-45000J0D01*
G01*
X10840000Y-2349500D02*
G75*
G03*
X10840000Y-2349500I-45000J0D01*
G01*
X10840000Y-2603500D02*
G75*
G03*
X10840000Y-2603500I-45000J0D01*
G01*
X10840000Y-3048000D02*
G75*
G03*
X10840000Y-3048000I-45000J0D01*
G01*
X10840000Y-3302000D02*
G75*
G03*
X10840000Y-3302000I-45000J0D01*
G01*
X10840000Y-3746500D02*
G75*
G03*
X10840000Y-3746500I-45000J0D01*
G01*
X10840000Y-4000500D02*
G75*
G03*
X10840000Y-4000500I-45000J0D01*
G01*
X10840000Y-4445000D02*
G75*
G03*
X10840000Y-4445000I-45000J0D01*
G01*
X10840000Y-4699000D02*
G75*
G03*
X10840000Y-4699000I-45000J0D01*
G01*
X10840000Y-5143500D02*
G75*
G03*
X10840000Y-5143500I-45000J0D01*
G01*
X10840000Y-5397500D02*
G75*
G03*
X10840000Y-5397500I-45000J0D01*
G01*
X10840000Y-5842000D02*
G75*
G03*
X10840000Y-5842000I-45000J0D01*
G01*
X10840000Y-6096000D02*
G75*
G03*
X10840000Y-6096000I-45000J0D01*
G01*
X10840000Y-6540500D02*
G75*
G03*
X10840000Y-6540500I-45000J0D01*
G01*
X10840000Y-6794500D02*
G75*
G03*
X10840000Y-6794500I-45000J0D01*
G01*
X10840000Y-7239000D02*
G75*
G03*
X10840000Y-7239000I-45000J0D01*
G01*
X10840000Y-7493000D02*
G75*
G03*
X10840000Y-7493000I-45000J0D01*
G01*
X11538500Y-2349500D02*
G75*
G03*
X11538500Y-2349500I-45000J0D01*
G01*
X11538500Y-2603500D02*
G75*
G03*
X11538500Y-2603500I-45000J0D01*
G01*
X11538500Y-3048000D02*
G75*
G03*
X11538500Y-3048000I-45000J0D01*
G01*
X11538500Y-3302000D02*
G75*
G03*
X11538500Y-3302000I-45000J0D01*
G01*
X11538500Y-3746500D02*
G75*
G03*
X11538500Y-3746500I-45000J0D01*
G01*
X11538500Y-4000500D02*
G75*
G03*
X11538500Y-4000500I-45000J0D01*
G01*
X11538500Y-4445000D02*
G75*
G03*
X11538500Y-4445000I-45000J0D01*
G01*
X11538500Y-4699000D02*
G75*
G03*
X11538500Y-4699000I-45000J0D01*
G01*
X11538500Y-5143500D02*
G75*
G03*
X11538500Y-5143500I-45000J0D01*
G01*
X11538500Y-5397500D02*
G75*
G03*
X11538500Y-5397500I-45000J0D01*
G01*
X11538500Y-5842000D02*
G75*
G03*
X11538500Y-5842000I-45000J0D01*
G01*
X11538500Y-6096000D02*
G75*
G03*
X11538500Y-6096000I-45000J0D01*
G01*
X11538500Y-6540500D02*
G75*
G03*
X11538500Y-6540500I-45000J0D01*
G01*
X11538500Y-6794500D02*
G75*
G03*
X11538500Y-6794500I-45000J0D01*
G01*
X11538500Y-7239000D02*
G75*
G03*
X11538500Y-7239000I-45000J0D01*
G01*
X11538500Y-7493000D02*
G75*
G03*
X11538500Y-7493000I-45000J0D01*
G01*
X12237000Y-2349500D02*
G75*
G03*
X12237000Y-2349500I-45000J0D01*
G01*
X12237000Y-2603500D02*
G75*
G03*
X12237000Y-2603500I-45000J0D01*
G01*
X12237000Y-3048000D02*
G75*
G03*
X12237000Y-3048000I-45000J0D01*
G01*
X12237000Y-3302000D02*
G75*
G03*
X12237000Y-3302000I-45000J0D01*
G01*
X12237000Y-3746500D02*
G75*
G03*
X12237000Y-3746500I-45000J0D01*
G01*
X12237000Y-4000500D02*
G75*
G03*
X12237000Y-4000500I-45000J0D01*
G01*
X12237000Y-4445000D02*
G75*
G03*
X12237000Y-4445000I-45000J0D01*
G01*
X12237000Y-4699000D02*
G75*
G03*
X12237000Y-4699000I-45000J0D01*
G01*
X12237000Y-5143500D02*
G75*
G03*
X12237000Y-5143500I-45000J0D01*
G01*
X12237000Y-5397500D02*
G75*
G03*
X12237000Y-5397500I-45000J0D01*
G01*
X12237000Y-5842000D02*
G75*
G03*
X12237000Y-5842000I-45000J0D01*
G01*
X12237000Y-6096000D02*
G75*
G03*
X12237000Y-6096000I-45000J0D01*
G01*
X12237000Y-6540500D02*
G75*
G03*
X12237000Y-6540500I-45000J0D01*
G01*
X12237000Y-6794500D02*
G75*
G03*
X12237000Y-6794500I-45000J0D01*
G01*
X12237000Y-7239000D02*
G75*
G03*
X12237000Y-7239000I-45000J0D01*
G01*
X12237000Y-7493000D02*
G75*
G03*
X12237000Y-7493000I-45000J0D01*
G01*
X12935500Y-2349500D02*
G75*
G03*
X12935500Y-2349500I-45000J0D01*
G01*
X12935500Y-2603500D02*
G75*
G03*
X12935500Y-2603500I-45000J0D01*
G01*
X12935500Y-3048000D02*
G75*
G03*
X12935500Y-3048000I-45000J0D01*
G01*
X12935500Y-3302000D02*
G75*
G03*
X12935500Y-3302000I-45000J0D01*
G01*
X12935500Y-3746500D02*
G75*
G03*
X12935500Y-3746500I-45000J0D01*
G01*
X12935500Y-4000500D02*
G75*
G03*
X12935500Y-4000500I-45000J0D01*
G01*
X12935500Y-4445000D02*
G75*
G03*
X12935500Y-4445000I-45000J0D01*
G01*
X12935500Y-4699000D02*
G75*
G03*
X12935500Y-4699000I-45000J0D01*
G01*
X12935500Y-5143500D02*
G75*
G03*
X12935500Y-5143500I-45000J0D01*
G01*
X12935500Y-5397500D02*
G75*
G03*
X12935500Y-5397500I-45000J0D01*
G01*
X12935500Y-5842000D02*
G75*
G03*
X12935500Y-5842000I-45000J0D01*
G01*
X12935500Y-6096000D02*
G75*
G03*
X12935500Y-6096000I-45000J0D01*
G01*
X12935500Y-6540500D02*
G75*
G03*
X12935500Y-6540500I-45000J0D01*
G01*
X12935500Y-6794500D02*
G75*
G03*
X12935500Y-6794500I-45000J0D01*
G01*
X12935500Y-7239000D02*
G75*
G03*
X12935500Y-7239000I-45000J0D01*
G01*
X12935500Y-7493000D02*
G75*
G03*
X12935500Y-7493000I-45000J0D01*
G01*
X13634000Y-2349500D02*
G75*
G03*
X13634000Y-2349500I-45000J0D01*
G01*
X13634000Y-2603500D02*
G75*
G03*
X13634000Y-2603500I-45000J0D01*
G01*
X13634000Y-3048000D02*
G75*
G03*
X13634000Y-3048000I-45000J0D01*
G01*
X13634000Y-3302000D02*
G75*
G03*
X13634000Y-3302000I-45000J0D01*
G01*
X13634000Y-3746500D02*
G75*
G03*
X13634000Y-3746500I-45000J0D01*
G01*
X13634000Y-4000500D02*
G75*
G03*
X13634000Y-4000500I-45000J0D01*
G01*
X13634000Y-4445000D02*
G75*
G03*
X13634000Y-4445000I-45000J0D01*
G01*
X13634000Y-4699000D02*
G75*
G03*
X13634000Y-4699000I-45000J0D01*
G01*
X13634000Y-5143500D02*
G75*
G03*
X13634000Y-5143500I-45000J0D01*
G01*
X13634000Y-5397500D02*
G75*
G03*
X13634000Y-5397500I-45000J0D01*
G01*
X13634000Y-5842000D02*
G75*
G03*
X13634000Y-5842000I-45000J0D01*
G01*
X13634000Y-6096000D02*
G75*
G03*
X13634000Y-6096000I-45000J0D01*
G01*
X13634000Y-6540500D02*
G75*
G03*
X13634000Y-6540500I-45000J0D01*
G01*
X13634000Y-6794500D02*
G75*
G03*
X13634000Y-6794500I-45000J0D01*
G01*
X13634000Y-7239000D02*
G75*
G03*
X13634000Y-7239000I-45000J0D01*
G01*
X13634000Y-7493000D02*
G75*
G03*
X13634000Y-7493000I-45000J0D01*
G01*
X14321900Y-6540500D02*
G75*
G03*
X14321900Y-6540500I-45000J0D01*
G01*
X14321900Y-6794500D02*
G75*
G03*
X14321900Y-6794500I-45000J0D01*
G01*
X14332500Y-2349500D02*
G75*
G03*
X14332500Y-2349500I-45000J0D01*
G01*
X14332500Y-2603500D02*
G75*
G03*
X14332500Y-2603500I-45000J0D01*
G01*
X14332500Y-3048000D02*
G75*
G03*
X14332500Y-3048000I-45000J0D01*
G01*
X14332500Y-3302000D02*
G75*
G03*
X14332500Y-3302000I-45000J0D01*
G01*
X14332500Y-3746500D02*
G75*
G03*
X14332500Y-3746500I-45000J0D01*
G01*
X14332500Y-4000500D02*
G75*
G03*
X14332500Y-4000500I-45000J0D01*
G01*
X14332500Y-4445000D02*
G75*
G03*
X14332500Y-4445000I-45000J0D01*
G01*
X14332500Y-4699000D02*
G75*
G03*
X14332500Y-4699000I-45000J0D01*
G01*
X14332500Y-5143500D02*
G75*
G03*
X14332500Y-5143500I-45000J0D01*
G01*
X14332500Y-5397500D02*
G75*
G03*
X14332500Y-5397500I-45000J0D01*
G01*
X14332500Y-5842000D02*
G75*
G03*
X14332500Y-5842000I-45000J0D01*
G01*
X14332500Y-6096000D02*
G75*
G03*
X14332500Y-6096000I-45000J0D01*
G01*
X14332500Y-7239000D02*
G75*
G03*
X14332500Y-7239000I-45000J0D01*
G01*
X14332500Y-7493000D02*
G75*
G03*
X14332500Y-7493000I-45000J0D01*
G01*
X15031000Y-2349500D02*
G75*
G03*
X15031000Y-2349500I-45000J0D01*
G01*
X15031000Y-2603500D02*
G75*
G03*
X15031000Y-2603500I-45000J0D01*
G01*
X15031000Y-3048000D02*
G75*
G03*
X15031000Y-3048000I-45000J0D01*
G01*
X15031000Y-3302000D02*
G75*
G03*
X15031000Y-3302000I-45000J0D01*
G01*
X15031000Y-3746500D02*
G75*
G03*
X15031000Y-3746500I-45000J0D01*
G01*
X15031000Y-4000500D02*
G75*
G03*
X15031000Y-4000500I-45000J0D01*
G01*
X15031000Y-4445000D02*
G75*
G03*
X15031000Y-4445000I-45000J0D01*
G01*
X15031000Y-4699000D02*
G75*
G03*
X15031000Y-4699000I-45000J0D01*
G01*
X15031000Y-5143500D02*
G75*
G03*
X15031000Y-5143500I-45000J0D01*
G01*
X15031000Y-5397500D02*
G75*
G03*
X15031000Y-5397500I-45000J0D01*
G01*
X15031000Y-5842000D02*
G75*
G03*
X15031000Y-5842000I-45000J0D01*
G01*
X15031000Y-6096000D02*
G75*
G03*
X15031000Y-6096000I-45000J0D01*
G01*
X15031000Y-6540500D02*
G75*
G03*
X15031000Y-6540500I-45000J0D01*
G01*
X15031000Y-6794500D02*
G75*
G03*
X15031000Y-6794500I-45000J0D01*
G01*
X15031000Y-7239000D02*
G75*
G03*
X15031000Y-7239000I-45000J0D01*
G01*
X15031000Y-7493000D02*
G75*
G03*
X15031000Y-7493000I-45000J0D01*
G01*
X15729500Y-2349500D02*
G75*
G03*
X15729500Y-2349500I-45000J0D01*
G01*
X15729500Y-2603500D02*
G75*
G03*
X15729500Y-2603500I-45000J0D01*
G01*
X15729500Y-3048000D02*
G75*
G03*
X15729500Y-3048000I-45000J0D01*
G01*
X15729500Y-3302000D02*
G75*
G03*
X15729500Y-3302000I-45000J0D01*
G01*
X15729500Y-3746500D02*
G75*
G03*
X15729500Y-3746500I-45000J0D01*
G01*
X15729500Y-4000500D02*
G75*
G03*
X15729500Y-4000500I-45000J0D01*
G01*
X15729500Y-4445000D02*
G75*
G03*
X15729500Y-4445000I-45000J0D01*
G01*
X15729500Y-4699000D02*
G75*
G03*
X15729500Y-4699000I-45000J0D01*
G01*
X15729500Y-5143500D02*
G75*
G03*
X15729500Y-5143500I-45000J0D01*
G01*
X15729500Y-5397500D02*
G75*
G03*
X15729500Y-5397500I-45000J0D01*
G01*
X15729500Y-5842000D02*
G75*
G03*
X15729500Y-5842000I-45000J0D01*
G01*
X15729500Y-6096000D02*
G75*
G03*
X15729500Y-6096000I-45000J0D01*
G01*
X15729500Y-6540500D02*
G75*
G03*
X15729500Y-6540500I-45000J0D01*
G01*
X15729500Y-6794500D02*
G75*
G03*
X15729500Y-6794500I-45000J0D01*
G01*
X15729500Y-7239000D02*
G75*
G03*
X15729500Y-7239000I-45000J0D01*
G01*
X15729500Y-7493000D02*
G75*
G03*
X15729500Y-7493000I-45000J0D01*
G01*
X16428000Y-2349500D02*
G75*
G03*
X16428000Y-2349500I-45000J0D01*
G01*
X16428000Y-2603500D02*
G75*
G03*
X16428000Y-2603500I-45000J0D01*
G01*
X16428000Y-3048000D02*
G75*
G03*
X16428000Y-3048000I-45000J0D01*
G01*
X16428000Y-3302000D02*
G75*
G03*
X16428000Y-3302000I-45000J0D01*
G01*
X16428000Y-3746500D02*
G75*
G03*
X16428000Y-3746500I-45000J0D01*
G01*
X16428000Y-4000500D02*
G75*
G03*
X16428000Y-4000500I-45000J0D01*
G01*
X16428000Y-4445000D02*
G75*
G03*
X16428000Y-4445000I-45000J0D01*
G01*
X16428000Y-4699000D02*
G75*
G03*
X16428000Y-4699000I-45000J0D01*
G01*
X16428000Y-5143500D02*
G75*
G03*
X16428000Y-5143500I-45000J0D01*
G01*
X16428000Y-5397500D02*
G75*
G03*
X16428000Y-5397500I-45000J0D01*
G01*
X16428000Y-5842000D02*
G75*
G03*
X16428000Y-5842000I-45000J0D01*
G01*
X16428000Y-6096000D02*
G75*
G03*
X16428000Y-6096000I-45000J0D01*
G01*
X16428000Y-6540500D02*
G75*
G03*
X16428000Y-6540500I-45000J0D01*
G01*
X16428000Y-6794500D02*
G75*
G03*
X16428000Y-6794500I-45000J0D01*
G01*
X16428000Y-7239000D02*
G75*
G03*
X16428000Y-7239000I-45000J0D01*
G01*
X16428000Y-7493000D02*
G75*
G03*
X16428000Y-7493000I-45000J0D01*
G01*
X17126500Y-2349500D02*
G75*
G03*
X17126500Y-2349500I-45000J0D01*
G01*
X17126500Y-2603500D02*
G75*
G03*
X17126500Y-2603500I-45000J0D01*
G01*
X17126500Y-3048000D02*
G75*
G03*
X17126500Y-3048000I-45000J0D01*
G01*
X17126500Y-3302000D02*
G75*
G03*
X17126500Y-3302000I-45000J0D01*
G01*
X17126500Y-3746500D02*
G75*
G03*
X17126500Y-3746500I-45000J0D01*
G01*
X17126500Y-4000500D02*
G75*
G03*
X17126500Y-4000500I-45000J0D01*
G01*
X17126500Y-4445000D02*
G75*
G03*
X17126500Y-4445000I-45000J0D01*
G01*
X17126500Y-4699000D02*
G75*
G03*
X17126500Y-4699000I-45000J0D01*
G01*
X17126500Y-5143500D02*
G75*
G03*
X17126500Y-5143500I-45000J0D01*
G01*
X17126500Y-5397500D02*
G75*
G03*
X17126500Y-5397500I-45000J0D01*
G01*
X17126500Y-5842000D02*
G75*
G03*
X17126500Y-5842000I-45000J0D01*
G01*
X17126500Y-6096000D02*
G75*
G03*
X17126500Y-6096000I-45000J0D01*
G01*
X17126500Y-6540500D02*
G75*
G03*
X17126500Y-6540500I-45000J0D01*
G01*
X17126500Y-6794500D02*
G75*
G03*
X17126500Y-6794500I-45000J0D01*
G01*
X17126500Y-7239000D02*
G75*
G03*
X17126500Y-7239000I-45000J0D01*
G01*
X17126500Y-7493000D02*
G75*
G03*
X17126500Y-7493000I-45000J0D01*
G01*
X17825000Y-2349500D02*
G75*
G03*
X17825000Y-2349500I-45000J0D01*
G01*
X17825000Y-2603500D02*
G75*
G03*
X17825000Y-2603500I-45000J0D01*
G01*
X17825000Y-3048000D02*
G75*
G03*
X17825000Y-3048000I-45000J0D01*
G01*
X17825000Y-3302000D02*
G75*
G03*
X17825000Y-3302000I-45000J0D01*
G01*
X17825000Y-3746500D02*
G75*
G03*
X17825000Y-3746500I-45000J0D01*
G01*
X17825000Y-4000500D02*
G75*
G03*
X17825000Y-4000500I-45000J0D01*
G01*
X17825000Y-4445000D02*
G75*
G03*
X17825000Y-4445000I-45000J0D01*
G01*
X17825000Y-4699000D02*
G75*
G03*
X17825000Y-4699000I-45000J0D01*
G01*
X17825000Y-5143500D02*
G75*
G03*
X17825000Y-5143500I-45000J0D01*
G01*
X17825000Y-5397500D02*
G75*
G03*
X17825000Y-5397500I-45000J0D01*
G01*
X17825000Y-5842000D02*
G75*
G03*
X17825000Y-5842000I-45000J0D01*
G01*
X17825000Y-6096000D02*
G75*
G03*
X17825000Y-6096000I-45000J0D01*
G01*
X17825000Y-6540500D02*
G75*
G03*
X17825000Y-6540500I-45000J0D01*
G01*
X17825000Y-6794500D02*
G75*
G03*
X17825000Y-6794500I-45000J0D01*
G01*
X17825000Y-7239000D02*
G75*
G03*
X17825000Y-7239000I-45000J0D01*
G01*
X17825000Y-7493000D02*
G75*
G03*
X17825000Y-7493000I-45000J0D01*
G01*
X18523500Y-2349500D02*
G75*
G03*
X18523500Y-2349500I-45000J0D01*
G01*
X18523500Y-2603500D02*
G75*
G03*
X18523500Y-2603500I-45000J0D01*
G01*
X18523500Y-3048000D02*
G75*
G03*
X18523500Y-3048000I-45000J0D01*
G01*
X18523500Y-3302000D02*
G75*
G03*
X18523500Y-3302000I-45000J0D01*
G01*
X18523500Y-3746500D02*
G75*
G03*
X18523500Y-3746500I-45000J0D01*
G01*
X18523500Y-4000500D02*
G75*
G03*
X18523500Y-4000500I-45000J0D01*
G01*
X18523500Y-4445000D02*
G75*
G03*
X18523500Y-4445000I-45000J0D01*
G01*
X18523500Y-4699000D02*
G75*
G03*
X18523500Y-4699000I-45000J0D01*
G01*
X18523500Y-5143500D02*
G75*
G03*
X18523500Y-5143500I-45000J0D01*
G01*
X18523500Y-5397500D02*
G75*
G03*
X18523500Y-5397500I-45000J0D01*
G01*
X18523500Y-5842000D02*
G75*
G03*
X18523500Y-5842000I-45000J0D01*
G01*
X18523500Y-6096000D02*
G75*
G03*
X18523500Y-6096000I-45000J0D01*
G01*
X18523500Y-6540500D02*
G75*
G03*
X18523500Y-6540500I-45000J0D01*
G01*
X18523500Y-6794500D02*
G75*
G03*
X18523500Y-6794500I-45000J0D01*
G01*
X18523500Y-7239000D02*
G75*
G03*
X18523500Y-7239000I-45000J0D01*
G01*
X18523500Y-7493000D02*
G75*
G03*
X18523500Y-7493000I-45000J0D01*
G01*
X19222000Y-2349500D02*
G75*
G03*
X19222000Y-2349500I-45000J0D01*
G01*
X19222000Y-2603500D02*
G75*
G03*
X19222000Y-2603500I-45000J0D01*
G01*
X19222000Y-3048000D02*
G75*
G03*
X19222000Y-3048000I-45000J0D01*
G01*
X19222000Y-3302000D02*
G75*
G03*
X19222000Y-3302000I-45000J0D01*
G01*
X19222000Y-3746500D02*
G75*
G03*
X19222000Y-3746500I-45000J0D01*
G01*
X19222000Y-4000500D02*
G75*
G03*
X19222000Y-4000500I-45000J0D01*
G01*
X19222000Y-4445000D02*
G75*
G03*
X19222000Y-4445000I-45000J0D01*
G01*
X19222000Y-4699000D02*
G75*
G03*
X19222000Y-4699000I-45000J0D01*
G01*
X19222000Y-5143500D02*
G75*
G03*
X19222000Y-5143500I-45000J0D01*
G01*
X19222000Y-5397500D02*
G75*
G03*
X19222000Y-5397500I-45000J0D01*
G01*
X19222000Y-5842000D02*
G75*
G03*
X19222000Y-5842000I-45000J0D01*
G01*
X19222000Y-6096000D02*
G75*
G03*
X19222000Y-6096000I-45000J0D01*
G01*
X19222000Y-6540500D02*
G75*
G03*
X19222000Y-6540500I-45000J0D01*
G01*
X19222000Y-6794500D02*
G75*
G03*
X19222000Y-6794500I-45000J0D01*
G01*
X19222000Y-7239000D02*
G75*
G03*
X19222000Y-7239000I-45000J0D01*
G01*
X19222000Y-7493000D02*
G75*
G03*
X19222000Y-7493000I-45000J0D01*
G01*
X19920500Y-2349500D02*
G75*
G03*
X19920500Y-2349500I-45000J0D01*
G01*
X19920500Y-2603500D02*
G75*
G03*
X19920500Y-2603500I-45000J0D01*
G01*
X19920500Y-3048000D02*
G75*
G03*
X19920500Y-3048000I-45000J0D01*
G01*
X19920500Y-3302000D02*
G75*
G03*
X19920500Y-3302000I-45000J0D01*
G01*
X19920500Y-3746500D02*
G75*
G03*
X19920500Y-3746500I-45000J0D01*
G01*
X19920500Y-4000500D02*
G75*
G03*
X19920500Y-4000500I-45000J0D01*
G01*
X19920500Y-4445000D02*
G75*
G03*
X19920500Y-4445000I-45000J0D01*
G01*
X19920500Y-4699000D02*
G75*
G03*
X19920500Y-4699000I-45000J0D01*
G01*
X19920500Y-5143500D02*
G75*
G03*
X19920500Y-5143500I-45000J0D01*
G01*
X19920500Y-5397500D02*
G75*
G03*
X19920500Y-5397500I-45000J0D01*
G01*
X19920500Y-5842000D02*
G75*
G03*
X19920500Y-5842000I-45000J0D01*
G01*
X19920500Y-6096000D02*
G75*
G03*
X19920500Y-6096000I-45000J0D01*
G01*
X19920500Y-6540500D02*
G75*
G03*
X19920500Y-6540500I-45000J0D01*
G01*
X19920500Y-6794500D02*
G75*
G03*
X19920500Y-6794500I-45000J0D01*
G01*
X19920500Y-7239000D02*
G75*
G03*
X19920500Y-7239000I-45000J0D01*
G01*
X19920500Y-7493000D02*
G75*
G03*
X19920500Y-7493000I-45000J0D01*
G01*
X20619000Y-2349500D02*
G75*
G03*
X20619000Y-2349500I-45000J0D01*
G01*
X20619000Y-2603500D02*
G75*
G03*
X20619000Y-2603500I-45000J0D01*
G01*
X20619000Y-3048000D02*
G75*
G03*
X20619000Y-3048000I-45000J0D01*
G01*
X20619000Y-3302000D02*
G75*
G03*
X20619000Y-3302000I-45000J0D01*
G01*
X20619000Y-3746500D02*
G75*
G03*
X20619000Y-3746500I-45000J0D01*
G01*
X20619000Y-4000500D02*
G75*
G03*
X20619000Y-4000500I-45000J0D01*
G01*
X20619000Y-4445000D02*
G75*
G03*
X20619000Y-4445000I-45000J0D01*
G01*
X20619000Y-4699000D02*
G75*
G03*
X20619000Y-4699000I-45000J0D01*
G01*
X20619000Y-5143500D02*
G75*
G03*
X20619000Y-5143500I-45000J0D01*
G01*
X20619000Y-5397500D02*
G75*
G03*
X20619000Y-5397500I-45000J0D01*
G01*
X20619000Y-5842000D02*
G75*
G03*
X20619000Y-5842000I-45000J0D01*
G01*
X20619000Y-6096000D02*
G75*
G03*
X20619000Y-6096000I-45000J0D01*
G01*
X20619000Y-6540500D02*
G75*
G03*
X20619000Y-6540500I-45000J0D01*
G01*
X20619000Y-6794500D02*
G75*
G03*
X20619000Y-6794500I-45000J0D01*
G01*
X20619000Y-7239000D02*
G75*
G03*
X20619000Y-7239000I-45000J0D01*
G01*
X20619000Y-7493000D02*
G75*
G03*
X20619000Y-7493000I-45000J0D01*
G01*
X21317500Y-2349500D02*
G75*
G03*
X21317500Y-2349500I-45000J0D01*
G01*
X21317500Y-2603500D02*
G75*
G03*
X21317500Y-2603500I-45000J0D01*
G01*
X21317500Y-3048000D02*
G75*
G03*
X21317500Y-3048000I-45000J0D01*
G01*
X21317500Y-3302000D02*
G75*
G03*
X21317500Y-3302000I-45000J0D01*
G01*
X21317500Y-3746500D02*
G75*
G03*
X21317500Y-3746500I-45000J0D01*
G01*
X21317500Y-4000500D02*
G75*
G03*
X21317500Y-4000500I-45000J0D01*
G01*
X21317500Y-4445000D02*
G75*
G03*
X21317500Y-4445000I-45000J0D01*
G01*
X21317500Y-4699000D02*
G75*
G03*
X21317500Y-4699000I-45000J0D01*
G01*
X21317500Y-5143500D02*
G75*
G03*
X21317500Y-5143500I-45000J0D01*
G01*
X21317500Y-5397500D02*
G75*
G03*
X21317500Y-5397500I-45000J0D01*
G01*
X21317500Y-5842000D02*
G75*
G03*
X21317500Y-5842000I-45000J0D01*
G01*
X21317500Y-6096000D02*
G75*
G03*
X21317500Y-6096000I-45000J0D01*
G01*
X21317500Y-6540500D02*
G75*
G03*
X21317500Y-6540500I-45000J0D01*
G01*
X21317500Y-6794500D02*
G75*
G03*
X21317500Y-6794500I-45000J0D01*
G01*
X21317500Y-7239000D02*
G75*
G03*
X21317500Y-7239000I-45000J0D01*
G01*
X21317500Y-7493000D02*
G75*
G03*
X21317500Y-7493000I-45000J0D01*
G01*
X22016000Y-2349500D02*
G75*
G03*
X22016000Y-2349500I-45000J0D01*
G01*
X22016000Y-2603500D02*
G75*
G03*
X22016000Y-2603500I-45000J0D01*
G01*
X22016000Y-3048000D02*
G75*
G03*
X22016000Y-3048000I-45000J0D01*
G01*
X22016000Y-3302000D02*
G75*
G03*
X22016000Y-3302000I-45000J0D01*
G01*
X22016000Y-3746500D02*
G75*
G03*
X22016000Y-3746500I-45000J0D01*
G01*
X22016000Y-4000500D02*
G75*
G03*
X22016000Y-4000500I-45000J0D01*
G01*
X22016000Y-4445000D02*
G75*
G03*
X22016000Y-4445000I-45000J0D01*
G01*
X22016000Y-4699000D02*
G75*
G03*
X22016000Y-4699000I-45000J0D01*
G01*
X22016000Y-5143500D02*
G75*
G03*
X22016000Y-5143500I-45000J0D01*
G01*
X22016000Y-5397500D02*
G75*
G03*
X22016000Y-5397500I-45000J0D01*
G01*
X22016000Y-5842000D02*
G75*
G03*
X22016000Y-5842000I-45000J0D01*
G01*
X22016000Y-6096000D02*
G75*
G03*
X22016000Y-6096000I-45000J0D01*
G01*
X22016000Y-6540500D02*
G75*
G03*
X22016000Y-6540500I-45000J0D01*
G01*
X22016000Y-6794500D02*
G75*
G03*
X22016000Y-6794500I-45000J0D01*
G01*
X22016000Y-7239000D02*
G75*
G03*
X22016000Y-7239000I-45000J0D01*
G01*
X22016000Y-7493000D02*
G75*
G03*
X22016000Y-7493000I-45000J0D01*
G01*
X22714500Y-2349500D02*
G75*
G03*
X22714500Y-2349500I-45000J0D01*
G01*
X22714500Y-2603500D02*
G75*
G03*
X22714500Y-2603500I-45000J0D01*
G01*
X22714500Y-3048000D02*
G75*
G03*
X22714500Y-3048000I-45000J0D01*
G01*
X22714500Y-3302000D02*
G75*
G03*
X22714500Y-3302000I-45000J0D01*
G01*
X22714500Y-3746500D02*
G75*
G03*
X22714500Y-3746500I-45000J0D01*
G01*
X22714500Y-4000500D02*
G75*
G03*
X22714500Y-4000500I-45000J0D01*
G01*
X22714500Y-4445000D02*
G75*
G03*
X22714500Y-4445000I-45000J0D01*
G01*
X22714500Y-4699000D02*
G75*
G03*
X22714500Y-4699000I-45000J0D01*
G01*
X22714500Y-5143500D02*
G75*
G03*
X22714500Y-5143500I-45000J0D01*
G01*
X22714500Y-5397500D02*
G75*
G03*
X22714500Y-5397500I-45000J0D01*
G01*
X22714500Y-5842000D02*
G75*
G03*
X22714500Y-5842000I-45000J0D01*
G01*
X22714500Y-6096000D02*
G75*
G03*
X22714500Y-6096000I-45000J0D01*
G01*
X22714500Y-6540500D02*
G75*
G03*
X22714500Y-6540500I-45000J0D01*
G01*
X22714500Y-6794500D02*
G75*
G03*
X22714500Y-6794500I-45000J0D01*
G01*
X22714500Y-7239000D02*
G75*
G03*
X22714500Y-7239000I-45000J0D01*
G01*
X22714500Y-7493000D02*
G75*
G03*
X22714500Y-7493000I-45000J0D01*
G01*
X23413000Y-2349500D02*
G75*
G03*
X23413000Y-2349500I-45000J0D01*
G01*
X23413000Y-2603500D02*
G75*
G03*
X23413000Y-2603500I-45000J0D01*
G01*
X23413000Y-3048000D02*
G75*
G03*
X23413000Y-3048000I-45000J0D01*
G01*
X23413000Y-3302000D02*
G75*
G03*
X23413000Y-3302000I-45000J0D01*
G01*
X23413000Y-3746500D02*
G75*
G03*
X23413000Y-3746500I-45000J0D01*
G01*
X23413000Y-4000500D02*
G75*
G03*
X23413000Y-4000500I-45000J0D01*
G01*
X23413000Y-4445000D02*
G75*
G03*
X23413000Y-4445000I-45000J0D01*
G01*
X23413000Y-4699000D02*
G75*
G03*
X23413000Y-4699000I-45000J0D01*
G01*
X23413000Y-5143500D02*
G75*
G03*
X23413000Y-5143500I-45000J0D01*
G01*
X23413000Y-5397500D02*
G75*
G03*
X23413000Y-5397500I-45000J0D01*
G01*
X23413000Y-5842000D02*
G75*
G03*
X23413000Y-5842000I-45000J0D01*
G01*
X23413000Y-6096000D02*
G75*
G03*
X23413000Y-6096000I-45000J0D01*
G01*
X23413000Y-6540500D02*
G75*
G03*
X23413000Y-6540500I-45000J0D01*
G01*
X23413000Y-6794500D02*
G75*
G03*
X23413000Y-6794500I-45000J0D01*
G01*
X23413000Y-7239000D02*
G75*
G03*
X23413000Y-7239000I-45000J0D01*
G01*
X23413000Y-7493000D02*
G75*
G03*
X23413000Y-7493000I-45000J0D01*
G01*
X24111500Y-2349500D02*
G75*
G03*
X24111500Y-2349500I-45000J0D01*
G01*
X24111500Y-2603500D02*
G75*
G03*
X24111500Y-2603500I-45000J0D01*
G01*
X24111500Y-3048000D02*
G75*
G03*
X24111500Y-3048000I-45000J0D01*
G01*
X24111500Y-3302000D02*
G75*
G03*
X24111500Y-3302000I-45000J0D01*
G01*
X24111500Y-3746500D02*
G75*
G03*
X24111500Y-3746500I-45000J0D01*
G01*
X24111500Y-4000500D02*
G75*
G03*
X24111500Y-4000500I-45000J0D01*
G01*
X24111500Y-4445000D02*
G75*
G03*
X24111500Y-4445000I-45000J0D01*
G01*
X24111500Y-4699000D02*
G75*
G03*
X24111500Y-4699000I-45000J0D01*
G01*
X24111500Y-5143500D02*
G75*
G03*
X24111500Y-5143500I-45000J0D01*
G01*
X24111500Y-5397500D02*
G75*
G03*
X24111500Y-5397500I-45000J0D01*
G01*
X24111500Y-5842000D02*
G75*
G03*
X24111500Y-5842000I-45000J0D01*
G01*
X24111500Y-6096000D02*
G75*
G03*
X24111500Y-6096000I-45000J0D01*
G01*
X24111500Y-6540500D02*
G75*
G03*
X24111500Y-6540500I-45000J0D01*
G01*
X24111500Y-6794500D02*
G75*
G03*
X24111500Y-6794500I-45000J0D01*
G01*
X24111500Y-7239000D02*
G75*
G03*
X24111500Y-7239000I-45000J0D01*
G01*
X24111500Y-7493000D02*
G75*
G03*
X24111500Y-7493000I-45000J0D01*
G01*
X1651000Y-2289500D02*
X1651000Y-2409500D01*
X1591000Y-2349500D02*
X1711000Y-2349500D01*
X1651000Y-2639500D02*
X1651000Y-2759500D01*
X1591000Y-2699500D02*
X1711000Y-2699500D01*
X1651000Y-2989500D02*
X1651000Y-3109500D01*
X1591000Y-3049500D02*
X1711000Y-3049500D01*
X1651000Y-3339500D02*
X1651000Y-3459500D01*
X1591000Y-3399500D02*
X1711000Y-3399500D01*
X1651000Y-3689500D02*
X1651000Y-3809500D01*
X1591000Y-3749500D02*
X1711000Y-3749500D01*
X1651000Y-4039500D02*
X1651000Y-4159500D01*
X1591000Y-4099500D02*
X1711000Y-4099500D01*
X1651000Y-4389500D02*
X1651000Y-4509500D01*
X1591000Y-4449500D02*
X1711000Y-4449500D01*
X1651000Y-4739500D02*
X1651000Y-4859500D01*
X1591000Y-4799500D02*
X1711000Y-4799500D01*
X2222500Y-1591000D02*
X2222500Y-1711000D01*
X2162500Y-1651000D02*
X2282500Y-1651000D01*
X2572500Y-1591000D02*
X2572500Y-1711000D01*
X2512500Y-1651000D02*
X2632500Y-1651000D01*
X2922500Y-1591000D02*
X2922500Y-1711000D01*
X2862500Y-1651000D02*
X2982500Y-1651000D01*
X3272500Y-1591000D02*
X3272500Y-1711000D01*
X3212500Y-1651000D02*
X3332500Y-1651000D01*
X3622500Y-1591000D02*
X3622500Y-1711000D01*
X3562500Y-1651000D02*
X3682500Y-1651000D01*
X3972500Y-1591000D02*
X3972500Y-1711000D01*
X3912500Y-1651000D02*
X4032500Y-1651000D01*
X4322500Y-1591000D02*
X4322500Y-1711000D01*
X4262500Y-1651000D02*
X4382500Y-1651000D01*
X4672500Y-1591000D02*
X4672500Y-1711000D01*
X4612500Y-1651000D02*
X4732500Y-1651000D01*
X5207000Y-1591000D02*
X5207000Y-1711000D01*
X5147000Y-1651000D02*
X5267000Y-1651000D01*
X5557000Y-1591000D02*
X5557000Y-1711000D01*
X5497000Y-1651000D02*
X5617000Y-1651000D01*
X5907000Y-1591000D02*
X5907000Y-1711000D01*
X5847000Y-1651000D02*
X5967000Y-1651000D01*
X6257000Y-1591000D02*
X6257000Y-1711000D01*
X6197000Y-1651000D02*
X6317000Y-1651000D01*
X6607000Y-1591000D02*
X6607000Y-1711000D01*
X6547000Y-1651000D02*
X6667000Y-1651000D01*
X6957000Y-1591000D02*
X6957000Y-1711000D01*
X6897000Y-1651000D02*
X7017000Y-1651000D01*
X7307000Y-1591000D02*
X7307000Y-1711000D01*
X7247000Y-1651000D02*
X7367000Y-1651000D01*
X7657000Y-1591000D02*
X7657000Y-1711000D01*
X7597000Y-1651000D02*
X7717000Y-1651000D01*
X8191500Y-1591000D02*
X8191500Y-1711000D01*
X8131500Y-1651000D02*
X8251500Y-1651000D01*
X8541500Y-1591000D02*
X8541500Y-1711000D01*
X8481500Y-1651000D02*
X8601500Y-1651000D01*
X8891500Y-1591000D02*
X8891500Y-1711000D01*
X8831500Y-1651000D02*
X8951500Y-1651000D01*
X9241500Y-1591000D02*
X9241500Y-1711000D01*
X9181500Y-1651000D02*
X9301500Y-1651000D01*
X9591500Y-1591000D02*
X9591500Y-1711000D01*
X9531500Y-1651000D02*
X9651500Y-1651000D01*
X9941500Y-1591000D02*
X9941500Y-1711000D01*
X9881500Y-1651000D02*
X10001500Y-1651000D01*
X10291500Y-1591000D02*
X10291500Y-1711000D01*
X10231500Y-1651000D02*
X10351500Y-1651000D01*
X10641500Y-1591000D02*
X10641500Y-1711000D01*
X10581500Y-1651000D02*
X10701500Y-1651000D01*
X11176000Y-1591000D02*
X11176000Y-1711000D01*
X11116000Y-1651000D02*
X11236000Y-1651000D01*
X11526000Y-1591000D02*
X11526000Y-1711000D01*
X11466000Y-1651000D02*
X11586000Y-1651000D01*
X11876000Y-1591000D02*
X11876000Y-1711000D01*
X11816000Y-1651000D02*
X11936000Y-1651000D01*
X12226000Y-1591000D02*
X12226000Y-1711000D01*
X12166000Y-1651000D02*
X12286000Y-1651000D01*
X12576000Y-1591000D02*
X12576000Y-1711000D01*
X12516000Y-1651000D02*
X12636000Y-1651000D01*
X12926000Y-1591000D02*
X12926000Y-1711000D01*
X12866000Y-1651000D02*
X12986000Y-1651000D01*
X13276000Y-1591000D02*
X13276000Y-1711000D01*
X13216000Y-1651000D02*
X13336000Y-1651000D01*
X13626000Y-1591000D02*
X13626000Y-1711000D01*
X13566000Y-1651000D02*
X13686000Y-1651000D01*
D12*
X1490428Y-8469214D02*
X1490428Y-8169214D01*
X1561857Y-8169214D01*
X1604714Y-8183500D01*
X1633286Y-8212071D01*
X1647571Y-8240643D01*
X1661857Y-8297786D01*
X1661857Y-8340643D01*
X1647571Y-8397786D01*
X1633286Y-8426357D01*
X1604714Y-8454929D01*
X1561857Y-8469214D01*
X1490428Y-8469214D01*
X1790428Y-8469214D02*
X1790428Y-8269214D01*
X1790428Y-8326357D02*
X1804714Y-8297786D01*
X1819000Y-8283500D01*
X1847571Y-8269214D01*
X1876143Y-8269214D01*
X1976143Y-8469214D02*
X1976143Y-8269214D01*
X1976143Y-8169214D02*
X1961857Y-8183500D01*
X1976143Y-8197786D01*
X1990428Y-8183500D01*
X1976143Y-8169214D01*
X1976143Y-8197786D01*
X2161857Y-8469214D02*
X2133286Y-8454929D01*
X2119000Y-8426357D01*
X2119000Y-8169214D01*
X2319000Y-8469214D02*
X2290428Y-8454929D01*
X2276143Y-8426357D01*
X2276143Y-8169214D01*
X2661857Y-8469214D02*
X2661857Y-8169214D01*
X2761857Y-8383500D01*
X2861857Y-8169214D01*
X2861857Y-8469214D01*
X3133286Y-8469214D02*
X3133286Y-8312071D01*
X3119000Y-8283500D01*
X3090428Y-8269214D01*
X3033286Y-8269214D01*
X3004714Y-8283500D01*
X3133286Y-8454929D02*
X3104714Y-8469214D01*
X3033286Y-8469214D01*
X3004714Y-8454929D01*
X2990428Y-8426357D01*
X2990428Y-8397786D01*
X3004714Y-8369214D01*
X3033286Y-8354929D01*
X3104714Y-8354929D01*
X3133286Y-8340643D01*
X3276143Y-8269214D02*
X3276143Y-8569214D01*
X3276143Y-8283500D02*
X3304714Y-8269214D01*
X3361857Y-8269214D01*
X3390428Y-8283500D01*
X3404714Y-8297786D01*
X3419000Y-8326357D01*
X3419000Y-8412072D01*
X3404714Y-8440643D01*
X3390428Y-8454929D01*
X3361857Y-8469214D01*
X3304714Y-8469214D01*
X3276143Y-8454929D01*
X3547571Y-8440643D02*
X3561857Y-8454929D01*
X3547571Y-8469214D01*
X3533286Y-8454929D01*
X3547571Y-8440643D01*
X3547571Y-8469214D01*
X3547571Y-8283500D02*
X3561857Y-8297786D01*
X3547571Y-8312071D01*
X3533286Y-8297786D01*
X3547571Y-8283500D01*
X3547571Y-8312071D01*
X1164000Y-8943500D02*
X1204000Y-8983500D01*
X1204000Y-8943500D02*
X1164000Y-8983500D01*
X1547571Y-8799214D02*
X1576143Y-8799214D01*
X1604714Y-8813500D01*
X1619000Y-8827786D01*
X1633286Y-8856357D01*
X1647571Y-8913500D01*
X1647571Y-8984929D01*
X1633286Y-9042072D01*
X1619000Y-9070643D01*
X1604714Y-9084929D01*
X1576143Y-9099214D01*
X1547571Y-9099214D01*
X1519000Y-9084929D01*
X1504714Y-9070643D01*
X1490428Y-9042072D01*
X1476143Y-8984929D01*
X1476143Y-8913500D01*
X1490428Y-8856357D01*
X1504714Y-8827786D01*
X1519000Y-8813500D01*
X1547571Y-8799214D01*
X1776143Y-9070643D02*
X1790428Y-9084929D01*
X1776143Y-9099214D01*
X1761857Y-9084929D01*
X1776143Y-9070643D01*
X1776143Y-9099214D01*
X2047571Y-8899214D02*
X2047571Y-9099214D01*
X1976143Y-8784929D02*
X1904714Y-8999214D01*
X2090428Y-8999214D01*
X2261857Y-8799214D02*
X2290428Y-8799214D01*
X2319000Y-8813500D01*
X2333286Y-8827786D01*
X2347571Y-8856357D01*
X2361857Y-8913500D01*
X2361857Y-8984929D01*
X2347571Y-9042072D01*
X2333286Y-9070643D01*
X2319000Y-9084929D01*
X2290428Y-9099214D01*
X2261857Y-9099214D01*
X2233286Y-9084929D01*
X2219000Y-9070643D01*
X2204714Y-9042072D01*
X2190428Y-8984929D01*
X2190428Y-8913500D01*
X2204714Y-8856357D01*
X2219000Y-8827786D01*
X2233286Y-8813500D01*
X2261857Y-8799214D01*
X2547571Y-8799214D02*
X2576143Y-8799214D01*
X2604714Y-8813500D01*
X2619000Y-8827786D01*
X2633286Y-8856357D01*
X2647571Y-8913500D01*
X2647571Y-8984929D01*
X2633286Y-9042072D01*
X2619000Y-9070643D01*
X2604714Y-9084929D01*
X2576143Y-9099214D01*
X2547571Y-9099214D01*
X2519000Y-9084929D01*
X2504714Y-9070643D01*
X2490428Y-9042072D01*
X2476143Y-8984929D01*
X2476143Y-8913500D01*
X2490428Y-8856357D01*
X2504714Y-8827786D01*
X2519000Y-8813500D01*
X2547571Y-8799214D01*
X2776143Y-9099214D02*
X2776143Y-8899214D01*
X2776143Y-8927786D02*
X2790428Y-8913500D01*
X2819000Y-8899214D01*
X2861857Y-8899214D01*
X2890428Y-8913500D01*
X2904714Y-8942072D01*
X2904714Y-9099214D01*
X2904714Y-8942072D02*
X2919000Y-8913500D01*
X2947571Y-8899214D01*
X2990428Y-8899214D01*
X3019000Y-8913500D01*
X3033286Y-8942072D01*
X3033286Y-9099214D01*
X3176143Y-9099214D02*
X3176143Y-8899214D01*
X3176143Y-8927786D02*
X3190428Y-8913500D01*
X3219000Y-8899214D01*
X3261857Y-8899214D01*
X3290428Y-8913500D01*
X3304714Y-8942072D01*
X3304714Y-9099214D01*
X3304714Y-8942072D02*
X3319000Y-8913500D01*
X3347571Y-8899214D01*
X3390428Y-8899214D01*
X3419000Y-8913500D01*
X3433286Y-8942072D01*
X3433286Y-9099214D01*
X4019000Y-8784929D02*
X3761857Y-9170643D01*
X4404714Y-8799214D02*
X4433286Y-8799214D01*
X4461857Y-8813500D01*
X4476143Y-8827786D01*
X4490428Y-8856357D01*
X4504714Y-8913500D01*
X4504714Y-8984929D01*
X4490428Y-9042072D01*
X4476143Y-9070643D01*
X4461857Y-9084929D01*
X4433286Y-9099214D01*
X4404714Y-9099214D01*
X4376143Y-9084929D01*
X4361857Y-9070643D01*
X4347571Y-9042072D01*
X4333286Y-8984929D01*
X4333286Y-8913500D01*
X4347571Y-8856357D01*
X4361857Y-8827786D01*
X4376143Y-8813500D01*
X4404714Y-8799214D01*
X4633286Y-9070643D02*
X4647571Y-9084929D01*
X4633286Y-9099214D01*
X4619000Y-9084929D01*
X4633286Y-9070643D01*
X4633286Y-9099214D01*
X4833286Y-8799214D02*
X4861857Y-8799214D01*
X4890428Y-8813500D01*
X4904714Y-8827786D01*
X4919000Y-8856357D01*
X4933286Y-8913500D01*
X4933286Y-8984929D01*
X4919000Y-9042072D01*
X4904714Y-9070643D01*
X4890428Y-9084929D01*
X4861857Y-9099214D01*
X4833286Y-9099214D01*
X4804714Y-9084929D01*
X4790428Y-9070643D01*
X4776143Y-9042072D01*
X4761857Y-8984929D01*
X4761857Y-8913500D01*
X4776143Y-8856357D01*
X4790428Y-8827786D01*
X4804714Y-8813500D01*
X4833286Y-8799214D01*
X5219000Y-9099214D02*
X5047571Y-9099214D01*
X5133286Y-9099214D02*
X5133286Y-8799214D01*
X5104714Y-8842072D01*
X5076143Y-8870643D01*
X5047571Y-8884929D01*
X5490428Y-8799214D02*
X5347571Y-8799214D01*
X5333286Y-8942072D01*
X5347571Y-8927786D01*
X5376143Y-8913500D01*
X5447571Y-8913500D01*
X5476143Y-8927786D01*
X5490428Y-8942072D01*
X5504714Y-8970643D01*
X5504714Y-9042072D01*
X5490428Y-9070643D01*
X5476143Y-9084929D01*
X5447571Y-9099214D01*
X5376143Y-9099214D01*
X5347571Y-9084929D01*
X5333286Y-9070643D01*
X5604714Y-8799214D02*
X5804714Y-8799214D01*
X5676143Y-9099214D01*
X5904714Y-8799214D02*
X5904714Y-8856357D01*
X6019000Y-8799214D02*
X6019000Y-8856357D01*
X6461857Y-9213500D02*
X6447571Y-9199214D01*
X6419000Y-9156357D01*
X6404714Y-9127786D01*
X6390428Y-9084929D01*
X6376143Y-9013500D01*
X6376143Y-8956357D01*
X6390428Y-8884929D01*
X6404714Y-8842072D01*
X6419000Y-8813500D01*
X6447571Y-8770643D01*
X6461857Y-8756357D01*
X6733286Y-9099214D02*
X6561857Y-9099214D01*
X6647571Y-9099214D02*
X6647571Y-8799214D01*
X6619000Y-8842072D01*
X6590428Y-8870643D01*
X6561857Y-8884929D01*
X6990428Y-8899214D02*
X6990428Y-9099214D01*
X6919000Y-8784929D02*
X6847571Y-8999214D01*
X7033286Y-8999214D01*
X7376143Y-9099214D02*
X7376143Y-8799214D01*
X7504714Y-9099214D02*
X7504714Y-8942072D01*
X7490428Y-8913500D01*
X7461857Y-8899214D01*
X7419000Y-8899214D01*
X7390428Y-8913500D01*
X7376143Y-8927786D01*
X7690428Y-9099214D02*
X7661857Y-9084929D01*
X7647571Y-9070643D01*
X7633286Y-9042072D01*
X7633286Y-8956357D01*
X7647571Y-8927786D01*
X7661857Y-8913500D01*
X7690428Y-8899214D01*
X7733286Y-8899214D01*
X7761857Y-8913500D01*
X7776143Y-8927786D01*
X7790428Y-8956357D01*
X7790428Y-9042072D01*
X7776143Y-9070643D01*
X7761857Y-9084929D01*
X7733286Y-9099214D01*
X7690428Y-9099214D01*
X7961857Y-9099214D02*
X7933286Y-9084929D01*
X7919000Y-9056357D01*
X7919000Y-8799214D01*
X8190428Y-9084929D02*
X8161857Y-9099214D01*
X8104714Y-9099214D01*
X8076143Y-9084929D01*
X8061857Y-9056357D01*
X8061857Y-8942072D01*
X8076143Y-8913500D01*
X8104714Y-8899214D01*
X8161857Y-8899214D01*
X8190428Y-8913500D01*
X8204714Y-8942072D01*
X8204714Y-8970643D01*
X8061857Y-8999214D01*
X8319000Y-9084929D02*
X8347571Y-9099214D01*
X8404714Y-9099214D01*
X8433286Y-9084929D01*
X8447571Y-9056357D01*
X8447571Y-9042072D01*
X8433286Y-9013500D01*
X8404714Y-8999214D01*
X8361857Y-8999214D01*
X8333286Y-8984929D01*
X8319000Y-8956357D01*
X8319000Y-8942072D01*
X8333286Y-8913500D01*
X8361857Y-8899214D01*
X8404714Y-8899214D01*
X8433286Y-8913500D01*
X8547571Y-9213500D02*
X8561857Y-9199214D01*
X8590428Y-9156357D01*
X8604714Y-9127786D01*
X8619000Y-9084929D01*
X8633286Y-9013500D01*
X8633286Y-8956357D01*
X8619000Y-8884929D01*
X8604714Y-8842072D01*
X8590428Y-8813500D01*
X8561857Y-8770643D01*
X8547571Y-8756357D01*
X1204000Y-9359500D02*
G75*
G03*
X1204000Y-9359500I-45000J0D01*
G01*
X1547571Y-9195214D02*
X1576143Y-9195214D01*
X1604714Y-9209500D01*
X1619000Y-9223786D01*
X1633286Y-9252357D01*
X1647571Y-9309500D01*
X1647571Y-9380929D01*
X1633286Y-9438072D01*
X1619000Y-9466643D01*
X1604714Y-9480929D01*
X1576143Y-9495214D01*
X1547571Y-9495214D01*
X1519000Y-9480929D01*
X1504714Y-9466643D01*
X1490428Y-9438072D01*
X1476143Y-9380929D01*
X1476143Y-9309500D01*
X1490428Y-9252357D01*
X1504714Y-9223786D01*
X1519000Y-9209500D01*
X1547571Y-9195214D01*
X1776143Y-9466643D02*
X1790428Y-9480929D01*
X1776143Y-9495214D01*
X1761857Y-9480929D01*
X1776143Y-9466643D01*
X1776143Y-9495214D01*
X1933286Y-9495214D02*
X1990428Y-9495214D01*
X2019000Y-9480929D01*
X2033286Y-9466643D01*
X2061857Y-9423786D01*
X2076143Y-9366643D01*
X2076143Y-9252357D01*
X2061857Y-9223786D01*
X2047571Y-9209500D01*
X2019000Y-9195214D01*
X1961857Y-9195214D01*
X1933286Y-9209500D01*
X1919000Y-9223786D01*
X1904714Y-9252357D01*
X1904714Y-9323786D01*
X1919000Y-9352357D01*
X1933286Y-9366643D01*
X1961857Y-9380929D01*
X2019000Y-9380929D01*
X2047571Y-9366643D01*
X2061857Y-9352357D01*
X2076143Y-9323786D01*
X2261857Y-9195214D02*
X2290428Y-9195214D01*
X2319000Y-9209500D01*
X2333286Y-9223786D01*
X2347571Y-9252357D01*
X2361857Y-9309500D01*
X2361857Y-9380929D01*
X2347571Y-9438072D01*
X2333286Y-9466643D01*
X2319000Y-9480929D01*
X2290428Y-9495214D01*
X2261857Y-9495214D01*
X2233286Y-9480929D01*
X2219000Y-9466643D01*
X2204714Y-9438072D01*
X2190428Y-9380929D01*
X2190428Y-9309500D01*
X2204714Y-9252357D01*
X2219000Y-9223786D01*
X2233286Y-9209500D01*
X2261857Y-9195214D01*
X2547571Y-9195214D02*
X2576143Y-9195214D01*
X2604714Y-9209500D01*
X2619000Y-9223786D01*
X2633286Y-9252357D01*
X2647571Y-9309500D01*
X2647571Y-9380929D01*
X2633286Y-9438072D01*
X2619000Y-9466643D01*
X2604714Y-9480929D01*
X2576143Y-9495214D01*
X2547571Y-9495214D01*
X2519000Y-9480929D01*
X2504714Y-9466643D01*
X2490428Y-9438072D01*
X2476143Y-9380929D01*
X2476143Y-9309500D01*
X2490428Y-9252357D01*
X2504714Y-9223786D01*
X2519000Y-9209500D01*
X2547571Y-9195214D01*
X2776143Y-9495214D02*
X2776143Y-9295214D01*
X2776143Y-9323786D02*
X2790428Y-9309500D01*
X2819000Y-9295214D01*
X2861857Y-9295214D01*
X2890428Y-9309500D01*
X2904714Y-9338072D01*
X2904714Y-9495214D01*
X2904714Y-9338072D02*
X2919000Y-9309500D01*
X2947571Y-9295214D01*
X2990428Y-9295214D01*
X3019000Y-9309500D01*
X3033286Y-9338072D01*
X3033286Y-9495214D01*
X3176143Y-9495214D02*
X3176143Y-9295214D01*
X3176143Y-9323786D02*
X3190428Y-9309500D01*
X3219000Y-9295214D01*
X3261857Y-9295214D01*
X3290428Y-9309500D01*
X3304714Y-9338072D01*
X3304714Y-9495214D01*
X3304714Y-9338072D02*
X3319000Y-9309500D01*
X3347571Y-9295214D01*
X3390428Y-9295214D01*
X3419000Y-9309500D01*
X3433286Y-9338072D01*
X3433286Y-9495214D01*
X4019000Y-9180929D02*
X3761857Y-9566643D01*
X4404714Y-9195214D02*
X4433286Y-9195214D01*
X4461857Y-9209500D01*
X4476143Y-9223786D01*
X4490428Y-9252357D01*
X4504714Y-9309500D01*
X4504714Y-9380929D01*
X4490428Y-9438072D01*
X4476143Y-9466643D01*
X4461857Y-9480929D01*
X4433286Y-9495214D01*
X4404714Y-9495214D01*
X4376143Y-9480929D01*
X4361857Y-9466643D01*
X4347571Y-9438072D01*
X4333286Y-9380929D01*
X4333286Y-9309500D01*
X4347571Y-9252357D01*
X4361857Y-9223786D01*
X4376143Y-9209500D01*
X4404714Y-9195214D01*
X4633286Y-9466643D02*
X4647571Y-9480929D01*
X4633286Y-9495214D01*
X4619000Y-9480929D01*
X4633286Y-9466643D01*
X4633286Y-9495214D01*
X4833286Y-9195214D02*
X4861857Y-9195214D01*
X4890428Y-9209500D01*
X4904714Y-9223786D01*
X4919000Y-9252357D01*
X4933286Y-9309500D01*
X4933286Y-9380929D01*
X4919000Y-9438072D01*
X4904714Y-9466643D01*
X4890428Y-9480929D01*
X4861857Y-9495214D01*
X4833286Y-9495214D01*
X4804714Y-9480929D01*
X4790428Y-9466643D01*
X4776143Y-9438072D01*
X4761857Y-9380929D01*
X4761857Y-9309500D01*
X4776143Y-9252357D01*
X4790428Y-9223786D01*
X4804714Y-9209500D01*
X4833286Y-9195214D01*
X5033286Y-9195214D02*
X5219000Y-9195214D01*
X5119000Y-9309500D01*
X5161857Y-9309500D01*
X5190428Y-9323786D01*
X5204714Y-9338072D01*
X5219000Y-9366643D01*
X5219000Y-9438072D01*
X5204714Y-9466643D01*
X5190428Y-9480929D01*
X5161857Y-9495214D01*
X5076143Y-9495214D01*
X5047571Y-9480929D01*
X5033286Y-9466643D01*
X5490428Y-9195214D02*
X5347571Y-9195214D01*
X5333286Y-9338072D01*
X5347571Y-9323786D01*
X5376143Y-9309500D01*
X5447571Y-9309500D01*
X5476143Y-9323786D01*
X5490428Y-9338072D01*
X5504714Y-9366643D01*
X5504714Y-9438072D01*
X5490428Y-9466643D01*
X5476143Y-9480929D01*
X5447571Y-9495214D01*
X5376143Y-9495214D01*
X5347571Y-9480929D01*
X5333286Y-9466643D01*
X5761857Y-9295214D02*
X5761857Y-9495214D01*
X5690428Y-9180929D02*
X5619000Y-9395214D01*
X5804714Y-9395214D01*
X5904714Y-9195214D02*
X5904714Y-9252357D01*
X6019000Y-9195214D02*
X6019000Y-9252357D01*
X6461857Y-9609500D02*
X6447571Y-9595214D01*
X6419000Y-9552357D01*
X6404714Y-9523786D01*
X6390428Y-9480929D01*
X6376143Y-9409500D01*
X6376143Y-9352357D01*
X6390428Y-9280929D01*
X6404714Y-9238072D01*
X6419000Y-9209500D01*
X6447571Y-9166643D01*
X6461857Y-9152357D01*
X6719000Y-9195214D02*
X6576143Y-9195214D01*
X6561857Y-9338072D01*
X6576143Y-9323786D01*
X6604714Y-9309500D01*
X6676143Y-9309500D01*
X6704714Y-9323786D01*
X6719000Y-9338072D01*
X6733286Y-9366643D01*
X6733286Y-9438072D01*
X6719000Y-9466643D01*
X6704714Y-9480929D01*
X6676143Y-9495214D01*
X6604714Y-9495214D01*
X6576143Y-9480929D01*
X6561857Y-9466643D01*
X7019000Y-9495214D02*
X6847571Y-9495214D01*
X6933286Y-9495214D02*
X6933286Y-9195214D01*
X6904714Y-9238072D01*
X6876143Y-9266643D01*
X6847571Y-9280929D01*
X7133286Y-9223786D02*
X7147571Y-9209500D01*
X7176143Y-9195214D01*
X7247571Y-9195214D01*
X7276143Y-9209500D01*
X7290428Y-9223786D01*
X7304714Y-9252357D01*
X7304714Y-9280929D01*
X7290428Y-9323786D01*
X7119000Y-9495214D01*
X7304714Y-9495214D01*
X7661857Y-9495214D02*
X7661857Y-9195214D01*
X7790428Y-9495214D02*
X7790428Y-9338072D01*
X7776143Y-9309500D01*
X7747571Y-9295214D01*
X7704714Y-9295214D01*
X7676143Y-9309500D01*
X7661857Y-9323786D01*
X7976143Y-9495214D02*
X7947571Y-9480929D01*
X7933286Y-9466643D01*
X7919000Y-9438072D01*
X7919000Y-9352357D01*
X7933286Y-9323786D01*
X7947571Y-9309500D01*
X7976143Y-9295214D01*
X8019000Y-9295214D01*
X8047571Y-9309500D01*
X8061857Y-9323786D01*
X8076143Y-9352357D01*
X8076143Y-9438072D01*
X8061857Y-9466643D01*
X8047571Y-9480929D01*
X8019000Y-9495214D01*
X7976143Y-9495214D01*
X8247571Y-9495214D02*
X8219000Y-9480929D01*
X8204714Y-9452357D01*
X8204714Y-9195214D01*
X8476143Y-9480929D02*
X8447571Y-9495214D01*
X8390428Y-9495214D01*
X8361857Y-9480929D01*
X8347571Y-9452357D01*
X8347571Y-9338072D01*
X8361857Y-9309500D01*
X8390428Y-9295214D01*
X8447571Y-9295214D01*
X8476143Y-9309500D01*
X8490428Y-9338072D01*
X8490428Y-9366643D01*
X8347571Y-9395214D01*
X8604714Y-9480929D02*
X8633286Y-9495214D01*
X8690428Y-9495214D01*
X8719000Y-9480929D01*
X8733286Y-9452357D01*
X8733286Y-9438072D01*
X8719000Y-9409500D01*
X8690428Y-9395214D01*
X8647571Y-9395214D01*
X8619000Y-9380929D01*
X8604714Y-9352357D01*
X8604714Y-9338072D01*
X8619000Y-9309500D01*
X8647571Y-9295214D01*
X8690428Y-9295214D01*
X8719000Y-9309500D01*
X8833286Y-9609500D02*
X8847571Y-9595214D01*
X8876143Y-9552357D01*
X8890428Y-9523786D01*
X8904714Y-9480929D01*
X8919000Y-9409500D01*
X8919000Y-9352357D01*
X8904714Y-9280929D01*
X8890428Y-9238072D01*
X8876143Y-9209500D01*
X8847571Y-9166643D01*
X8833286Y-9152357D01*
X1144000Y-9695500D02*
X1144000Y-9815500D01*
X1084000Y-9755500D02*
X1204000Y-9755500D01*
X1647571Y-9891214D02*
X1476143Y-9891214D01*
X1561857Y-9891214D02*
X1561857Y-9591214D01*
X1533286Y-9634072D01*
X1504714Y-9662643D01*
X1476143Y-9676929D01*
X1776143Y-9862643D02*
X1790428Y-9876929D01*
X1776143Y-9891214D01*
X1761857Y-9876929D01*
X1776143Y-9862643D01*
X1776143Y-9891214D01*
X1904714Y-9619786D02*
X1919000Y-9605500D01*
X1947571Y-9591214D01*
X2019000Y-9591214D01*
X2047571Y-9605500D01*
X2061857Y-9619786D01*
X2076143Y-9648357D01*
X2076143Y-9676929D01*
X2061857Y-9719786D01*
X1890428Y-9891214D01*
X2076143Y-9891214D01*
X2261857Y-9591214D02*
X2290428Y-9591214D01*
X2319000Y-9605500D01*
X2333286Y-9619786D01*
X2347571Y-9648357D01*
X2361857Y-9705500D01*
X2361857Y-9776929D01*
X2347571Y-9834072D01*
X2333286Y-9862643D01*
X2319000Y-9876929D01*
X2290428Y-9891214D01*
X2261857Y-9891214D01*
X2233286Y-9876929D01*
X2219000Y-9862643D01*
X2204714Y-9834072D01*
X2190428Y-9776929D01*
X2190428Y-9705500D01*
X2204714Y-9648357D01*
X2219000Y-9619786D01*
X2233286Y-9605500D01*
X2261857Y-9591214D01*
X2547571Y-9591214D02*
X2576143Y-9591214D01*
X2604714Y-9605500D01*
X2619000Y-9619786D01*
X2633286Y-9648357D01*
X2647571Y-9705500D01*
X2647571Y-9776929D01*
X2633286Y-9834072D01*
X2619000Y-9862643D01*
X2604714Y-9876929D01*
X2576143Y-9891214D01*
X2547571Y-9891214D01*
X2519000Y-9876929D01*
X2504714Y-9862643D01*
X2490428Y-9834072D01*
X2476143Y-9776929D01*
X2476143Y-9705500D01*
X2490428Y-9648357D01*
X2504714Y-9619786D01*
X2519000Y-9605500D01*
X2547571Y-9591214D01*
X2776143Y-9891214D02*
X2776143Y-9691214D01*
X2776143Y-9719786D02*
X2790428Y-9705500D01*
X2819000Y-9691214D01*
X2861857Y-9691214D01*
X2890428Y-9705500D01*
X2904714Y-9734072D01*
X2904714Y-9891214D01*
X2904714Y-9734072D02*
X2919000Y-9705500D01*
X2947571Y-9691214D01*
X2990428Y-9691214D01*
X3019000Y-9705500D01*
X3033286Y-9734072D01*
X3033286Y-9891214D01*
X3176143Y-9891214D02*
X3176143Y-9691214D01*
X3176143Y-9719786D02*
X3190428Y-9705500D01*
X3219000Y-9691214D01*
X3261857Y-9691214D01*
X3290428Y-9705500D01*
X3304714Y-9734072D01*
X3304714Y-9891214D01*
X3304714Y-9734072D02*
X3319000Y-9705500D01*
X3347571Y-9691214D01*
X3390428Y-9691214D01*
X3419000Y-9705500D01*
X3433286Y-9734072D01*
X3433286Y-9891214D01*
X4019000Y-9576929D02*
X3761857Y-9962643D01*
X4404714Y-9591214D02*
X4433286Y-9591214D01*
X4461857Y-9605500D01*
X4476143Y-9619786D01*
X4490428Y-9648357D01*
X4504714Y-9705500D01*
X4504714Y-9776929D01*
X4490428Y-9834072D01*
X4476143Y-9862643D01*
X4461857Y-9876929D01*
X4433286Y-9891214D01*
X4404714Y-9891214D01*
X4376143Y-9876929D01*
X4361857Y-9862643D01*
X4347571Y-9834072D01*
X4333286Y-9776929D01*
X4333286Y-9705500D01*
X4347571Y-9648357D01*
X4361857Y-9619786D01*
X4376143Y-9605500D01*
X4404714Y-9591214D01*
X4633286Y-9862643D02*
X4647571Y-9876929D01*
X4633286Y-9891214D01*
X4619000Y-9876929D01*
X4633286Y-9862643D01*
X4633286Y-9891214D01*
X4833286Y-9591214D02*
X4861857Y-9591214D01*
X4890428Y-9605500D01*
X4904714Y-9619786D01*
X4919000Y-9648357D01*
X4933286Y-9705500D01*
X4933286Y-9776929D01*
X4919000Y-9834072D01*
X4904714Y-9862643D01*
X4890428Y-9876929D01*
X4861857Y-9891214D01*
X4833286Y-9891214D01*
X4804714Y-9876929D01*
X4790428Y-9862643D01*
X4776143Y-9834072D01*
X4761857Y-9776929D01*
X4761857Y-9705500D01*
X4776143Y-9648357D01*
X4790428Y-9619786D01*
X4804714Y-9605500D01*
X4833286Y-9591214D01*
X5190428Y-9691214D02*
X5190428Y-9891214D01*
X5119000Y-9576929D02*
X5047571Y-9791214D01*
X5233286Y-9791214D01*
X5319000Y-9591214D02*
X5519000Y-9591214D01*
X5390428Y-9891214D01*
X5619000Y-9619786D02*
X5633286Y-9605500D01*
X5661857Y-9591214D01*
X5733286Y-9591214D01*
X5761857Y-9605500D01*
X5776143Y-9619786D01*
X5790428Y-9648357D01*
X5790428Y-9676929D01*
X5776143Y-9719786D01*
X5604714Y-9891214D01*
X5790428Y-9891214D01*
X5904714Y-9591214D02*
X5904714Y-9648357D01*
X6019000Y-9591214D02*
X6019000Y-9648357D01*
X6461857Y-10005500D02*
X6447571Y-9991214D01*
X6419000Y-9948357D01*
X6404714Y-9919786D01*
X6390428Y-9876929D01*
X6376143Y-9805500D01*
X6376143Y-9748357D01*
X6390428Y-9676929D01*
X6404714Y-9634072D01*
X6419000Y-9605500D01*
X6447571Y-9562643D01*
X6461857Y-9548357D01*
X6704714Y-9691214D02*
X6704714Y-9891214D01*
X6633286Y-9576929D02*
X6561857Y-9791214D01*
X6747571Y-9791214D01*
X6919000Y-9591214D02*
X6947571Y-9591214D01*
X6976143Y-9605500D01*
X6990428Y-9619786D01*
X7004714Y-9648357D01*
X7019000Y-9705500D01*
X7019000Y-9776929D01*
X7004714Y-9834072D01*
X6990428Y-9862643D01*
X6976143Y-9876929D01*
X6947571Y-9891214D01*
X6919000Y-9891214D01*
X6890428Y-9876929D01*
X6876143Y-9862643D01*
X6861857Y-9834072D01*
X6847571Y-9776929D01*
X6847571Y-9705500D01*
X6861857Y-9648357D01*
X6876143Y-9619786D01*
X6890428Y-9605500D01*
X6919000Y-9591214D01*
X7376143Y-9891214D02*
X7376143Y-9591214D01*
X7504714Y-9891214D02*
X7504714Y-9734072D01*
X7490428Y-9705500D01*
X7461857Y-9691214D01*
X7419000Y-9691214D01*
X7390428Y-9705500D01*
X7376143Y-9719786D01*
X7690428Y-9891214D02*
X7661857Y-9876929D01*
X7647571Y-9862643D01*
X7633286Y-9834072D01*
X7633286Y-9748357D01*
X7647571Y-9719786D01*
X7661857Y-9705500D01*
X7690428Y-9691214D01*
X7733286Y-9691214D01*
X7761857Y-9705500D01*
X7776143Y-9719786D01*
X7790428Y-9748357D01*
X7790428Y-9834072D01*
X7776143Y-9862643D01*
X7761857Y-9876929D01*
X7733286Y-9891214D01*
X7690428Y-9891214D01*
X7961857Y-9891214D02*
X7933286Y-9876929D01*
X7919000Y-9848357D01*
X7919000Y-9591214D01*
X8190428Y-9876929D02*
X8161857Y-9891214D01*
X8104714Y-9891214D01*
X8076143Y-9876929D01*
X8061857Y-9848357D01*
X8061857Y-9734072D01*
X8076143Y-9705500D01*
X8104714Y-9691214D01*
X8161857Y-9691214D01*
X8190428Y-9705500D01*
X8204714Y-9734072D01*
X8204714Y-9762643D01*
X8061857Y-9791214D01*
X8319000Y-9876929D02*
X8347571Y-9891214D01*
X8404714Y-9891214D01*
X8433286Y-9876929D01*
X8447571Y-9848357D01*
X8447571Y-9834072D01*
X8433286Y-9805500D01*
X8404714Y-9791214D01*
X8361857Y-9791214D01*
X8333286Y-9776929D01*
X8319000Y-9748357D01*
X8319000Y-9734072D01*
X8333286Y-9705500D01*
X8361857Y-9691214D01*
X8404714Y-9691214D01*
X8433286Y-9705500D01*
X8547571Y-10005500D02*
X8561857Y-9991214D01*
X8590428Y-9948357D01*
X8604714Y-9919786D01*
X8619000Y-9876929D01*
X8633286Y-9805500D01*
X8633286Y-9748357D01*
X8619000Y-9676929D01*
X8604714Y-9634072D01*
X8590428Y-9605500D01*
X8561857Y-9562643D01*
X8547571Y-9548357D01*
M02*
