%FSLAX45Y45*%
G04 Gerber Fmt 4.5, Leading zero omitted, Abs format (unit mm)*
G04 Created by KiCad (PCBNEW (5.1.10)-1) date 2023-12-13 16:59:55*
%MOMM*%
%LPD*%
G01*
G04 APERTURE LIST*
%TA.AperFunction,Profile*%
%ADD10C,0.050000*%
%TD*%
%ADD11C,0.200000*%
%ADD12C,0.300000*%
G04 APERTURE END LIST*
D10*
X25146000Y-1244600D02*
X1206500Y-1244600D01*
X25146000Y-8001000D02*
X25146000Y-1244600D01*
X1206500Y-8001000D02*
X25146000Y-8001000D01*
X1206500Y-1244600D02*
X1206500Y-8001000D01*
D11*
X1477500Y-1541000D02*
X1697500Y-1761000D01*
X1697500Y-1541000D02*
X1477500Y-1761000D01*
X1477500Y-7510000D02*
X1697500Y-7730000D01*
X1697500Y-7510000D02*
X1477500Y-7730000D01*
X24655000Y-1541000D02*
X24875000Y-1761000D01*
X24875000Y-1541000D02*
X24655000Y-1761000D01*
X24655000Y-7510000D02*
X24875000Y-7730000D01*
X24875000Y-7510000D02*
X24655000Y-7730000D01*
D12*
X1490428Y-8469214D02*
X1490428Y-8169214D01*
X1561857Y-8169214D01*
X1604714Y-8183500D01*
X1633286Y-8212071D01*
X1647571Y-8240643D01*
X1661857Y-8297786D01*
X1661857Y-8340643D01*
X1647571Y-8397786D01*
X1633286Y-8426357D01*
X1604714Y-8454929D01*
X1561857Y-8469214D01*
X1490428Y-8469214D01*
X1790428Y-8469214D02*
X1790428Y-8269214D01*
X1790428Y-8326357D02*
X1804714Y-8297786D01*
X1819000Y-8283500D01*
X1847571Y-8269214D01*
X1876143Y-8269214D01*
X1976143Y-8469214D02*
X1976143Y-8269214D01*
X1976143Y-8169214D02*
X1961857Y-8183500D01*
X1976143Y-8197786D01*
X1990428Y-8183500D01*
X1976143Y-8169214D01*
X1976143Y-8197786D01*
X2161857Y-8469214D02*
X2133286Y-8454929D01*
X2119000Y-8426357D01*
X2119000Y-8169214D01*
X2319000Y-8469214D02*
X2290428Y-8454929D01*
X2276143Y-8426357D01*
X2276143Y-8169214D01*
X2661857Y-8469214D02*
X2661857Y-8169214D01*
X2761857Y-8383500D01*
X2861857Y-8169214D01*
X2861857Y-8469214D01*
X3133286Y-8469214D02*
X3133286Y-8312071D01*
X3119000Y-8283500D01*
X3090428Y-8269214D01*
X3033286Y-8269214D01*
X3004714Y-8283500D01*
X3133286Y-8454929D02*
X3104714Y-8469214D01*
X3033286Y-8469214D01*
X3004714Y-8454929D01*
X2990428Y-8426357D01*
X2990428Y-8397786D01*
X3004714Y-8369214D01*
X3033286Y-8354929D01*
X3104714Y-8354929D01*
X3133286Y-8340643D01*
X3276143Y-8269214D02*
X3276143Y-8569214D01*
X3276143Y-8283500D02*
X3304714Y-8269214D01*
X3361857Y-8269214D01*
X3390428Y-8283500D01*
X3404714Y-8297786D01*
X3419000Y-8326357D01*
X3419000Y-8412072D01*
X3404714Y-8440643D01*
X3390428Y-8454929D01*
X3361857Y-8469214D01*
X3304714Y-8469214D01*
X3276143Y-8454929D01*
X3547571Y-8440643D02*
X3561857Y-8454929D01*
X3547571Y-8469214D01*
X3533286Y-8454929D01*
X3547571Y-8440643D01*
X3547571Y-8469214D01*
X3547571Y-8283500D02*
X3561857Y-8297786D01*
X3547571Y-8312071D01*
X3533286Y-8297786D01*
X3547571Y-8283500D01*
X3547571Y-8312071D01*
X984000Y-8853500D02*
X1204000Y-9073500D01*
X1204000Y-8853500D02*
X984000Y-9073500D01*
X1476143Y-8827786D02*
X1490428Y-8813500D01*
X1519000Y-8799214D01*
X1590428Y-8799214D01*
X1619000Y-8813500D01*
X1633286Y-8827786D01*
X1647571Y-8856357D01*
X1647571Y-8884929D01*
X1633286Y-8927786D01*
X1461857Y-9099214D01*
X1647571Y-9099214D01*
X1776143Y-9070643D02*
X1790428Y-9084929D01*
X1776143Y-9099214D01*
X1761857Y-9084929D01*
X1776143Y-9070643D01*
X1776143Y-9099214D01*
X1904714Y-8827786D02*
X1919000Y-8813500D01*
X1947571Y-8799214D01*
X2019000Y-8799214D01*
X2047571Y-8813500D01*
X2061857Y-8827786D01*
X2076143Y-8856357D01*
X2076143Y-8884929D01*
X2061857Y-8927786D01*
X1890428Y-9099214D01*
X2076143Y-9099214D01*
X2261857Y-8799214D02*
X2290428Y-8799214D01*
X2319000Y-8813500D01*
X2333286Y-8827786D01*
X2347571Y-8856357D01*
X2361857Y-8913500D01*
X2361857Y-8984929D01*
X2347571Y-9042072D01*
X2333286Y-9070643D01*
X2319000Y-9084929D01*
X2290428Y-9099214D01*
X2261857Y-9099214D01*
X2233286Y-9084929D01*
X2219000Y-9070643D01*
X2204714Y-9042072D01*
X2190428Y-8984929D01*
X2190428Y-8913500D01*
X2204714Y-8856357D01*
X2219000Y-8827786D01*
X2233286Y-8813500D01*
X2261857Y-8799214D01*
X2547571Y-8799214D02*
X2576143Y-8799214D01*
X2604714Y-8813500D01*
X2619000Y-8827786D01*
X2633286Y-8856357D01*
X2647571Y-8913500D01*
X2647571Y-8984929D01*
X2633286Y-9042072D01*
X2619000Y-9070643D01*
X2604714Y-9084929D01*
X2576143Y-9099214D01*
X2547571Y-9099214D01*
X2519000Y-9084929D01*
X2504714Y-9070643D01*
X2490428Y-9042072D01*
X2476143Y-8984929D01*
X2476143Y-8913500D01*
X2490428Y-8856357D01*
X2504714Y-8827786D01*
X2519000Y-8813500D01*
X2547571Y-8799214D01*
X2776143Y-9099214D02*
X2776143Y-8899214D01*
X2776143Y-8927786D02*
X2790428Y-8913500D01*
X2819000Y-8899214D01*
X2861857Y-8899214D01*
X2890428Y-8913500D01*
X2904714Y-8942072D01*
X2904714Y-9099214D01*
X2904714Y-8942072D02*
X2919000Y-8913500D01*
X2947571Y-8899214D01*
X2990428Y-8899214D01*
X3019000Y-8913500D01*
X3033286Y-8942072D01*
X3033286Y-9099214D01*
X3176143Y-9099214D02*
X3176143Y-8899214D01*
X3176143Y-8927786D02*
X3190428Y-8913500D01*
X3219000Y-8899214D01*
X3261857Y-8899214D01*
X3290428Y-8913500D01*
X3304714Y-8942072D01*
X3304714Y-9099214D01*
X3304714Y-8942072D02*
X3319000Y-8913500D01*
X3347571Y-8899214D01*
X3390428Y-8899214D01*
X3419000Y-8913500D01*
X3433286Y-8942072D01*
X3433286Y-9099214D01*
X4019000Y-8784929D02*
X3761857Y-9170643D01*
X4404714Y-8799214D02*
X4433286Y-8799214D01*
X4461857Y-8813500D01*
X4476143Y-8827786D01*
X4490428Y-8856357D01*
X4504714Y-8913500D01*
X4504714Y-8984929D01*
X4490428Y-9042072D01*
X4476143Y-9070643D01*
X4461857Y-9084929D01*
X4433286Y-9099214D01*
X4404714Y-9099214D01*
X4376143Y-9084929D01*
X4361857Y-9070643D01*
X4347571Y-9042072D01*
X4333286Y-8984929D01*
X4333286Y-8913500D01*
X4347571Y-8856357D01*
X4361857Y-8827786D01*
X4376143Y-8813500D01*
X4404714Y-8799214D01*
X4633286Y-9070643D02*
X4647571Y-9084929D01*
X4633286Y-9099214D01*
X4619000Y-9084929D01*
X4633286Y-9070643D01*
X4633286Y-9099214D01*
X4833286Y-8799214D02*
X4861857Y-8799214D01*
X4890428Y-8813500D01*
X4904714Y-8827786D01*
X4919000Y-8856357D01*
X4933286Y-8913500D01*
X4933286Y-8984929D01*
X4919000Y-9042072D01*
X4904714Y-9070643D01*
X4890428Y-9084929D01*
X4861857Y-9099214D01*
X4833286Y-9099214D01*
X4804714Y-9084929D01*
X4790428Y-9070643D01*
X4776143Y-9042072D01*
X4761857Y-8984929D01*
X4761857Y-8913500D01*
X4776143Y-8856357D01*
X4790428Y-8827786D01*
X4804714Y-8813500D01*
X4833286Y-8799214D01*
X5104714Y-8927786D02*
X5076143Y-8913500D01*
X5061857Y-8899214D01*
X5047571Y-8870643D01*
X5047571Y-8856357D01*
X5061857Y-8827786D01*
X5076143Y-8813500D01*
X5104714Y-8799214D01*
X5161857Y-8799214D01*
X5190428Y-8813500D01*
X5204714Y-8827786D01*
X5219000Y-8856357D01*
X5219000Y-8870643D01*
X5204714Y-8899214D01*
X5190428Y-8913500D01*
X5161857Y-8927786D01*
X5104714Y-8927786D01*
X5076143Y-8942072D01*
X5061857Y-8956357D01*
X5047571Y-8984929D01*
X5047571Y-9042072D01*
X5061857Y-9070643D01*
X5076143Y-9084929D01*
X5104714Y-9099214D01*
X5161857Y-9099214D01*
X5190428Y-9084929D01*
X5204714Y-9070643D01*
X5219000Y-9042072D01*
X5219000Y-8984929D01*
X5204714Y-8956357D01*
X5190428Y-8942072D01*
X5161857Y-8927786D01*
X5476143Y-8799214D02*
X5419000Y-8799214D01*
X5390428Y-8813500D01*
X5376143Y-8827786D01*
X5347571Y-8870643D01*
X5333286Y-8927786D01*
X5333286Y-9042072D01*
X5347571Y-9070643D01*
X5361857Y-9084929D01*
X5390428Y-9099214D01*
X5447571Y-9099214D01*
X5476143Y-9084929D01*
X5490428Y-9070643D01*
X5504714Y-9042072D01*
X5504714Y-8970643D01*
X5490428Y-8942072D01*
X5476143Y-8927786D01*
X5447571Y-8913500D01*
X5390428Y-8913500D01*
X5361857Y-8927786D01*
X5347571Y-8942072D01*
X5333286Y-8970643D01*
X5761857Y-8799214D02*
X5704714Y-8799214D01*
X5676143Y-8813500D01*
X5661857Y-8827786D01*
X5633286Y-8870643D01*
X5619000Y-8927786D01*
X5619000Y-9042072D01*
X5633286Y-9070643D01*
X5647571Y-9084929D01*
X5676143Y-9099214D01*
X5733286Y-9099214D01*
X5761857Y-9084929D01*
X5776143Y-9070643D01*
X5790428Y-9042072D01*
X5790428Y-8970643D01*
X5776143Y-8942072D01*
X5761857Y-8927786D01*
X5733286Y-8913500D01*
X5676143Y-8913500D01*
X5647571Y-8927786D01*
X5633286Y-8942072D01*
X5619000Y-8970643D01*
X5904714Y-8799214D02*
X5904714Y-8856357D01*
X6019000Y-8799214D02*
X6019000Y-8856357D01*
X6461857Y-9213500D02*
X6447571Y-9199214D01*
X6419000Y-9156357D01*
X6404714Y-9127786D01*
X6390428Y-9084929D01*
X6376143Y-9013500D01*
X6376143Y-8956357D01*
X6390428Y-8884929D01*
X6404714Y-8842072D01*
X6419000Y-8813500D01*
X6447571Y-8770643D01*
X6461857Y-8756357D01*
X6704714Y-8899214D02*
X6704714Y-9099214D01*
X6633286Y-8784929D02*
X6561857Y-8999214D01*
X6747571Y-8999214D01*
X7090428Y-9099214D02*
X7090428Y-8799214D01*
X7219000Y-9099214D02*
X7219000Y-8942072D01*
X7204714Y-8913500D01*
X7176143Y-8899214D01*
X7133286Y-8899214D01*
X7104714Y-8913500D01*
X7090428Y-8927786D01*
X7404714Y-9099214D02*
X7376143Y-9084929D01*
X7361857Y-9070643D01*
X7347571Y-9042072D01*
X7347571Y-8956357D01*
X7361857Y-8927786D01*
X7376143Y-8913500D01*
X7404714Y-8899214D01*
X7447571Y-8899214D01*
X7476143Y-8913500D01*
X7490428Y-8927786D01*
X7504714Y-8956357D01*
X7504714Y-9042072D01*
X7490428Y-9070643D01*
X7476143Y-9084929D01*
X7447571Y-9099214D01*
X7404714Y-9099214D01*
X7676143Y-9099214D02*
X7647571Y-9084929D01*
X7633286Y-9056357D01*
X7633286Y-8799214D01*
X7904714Y-9084929D02*
X7876143Y-9099214D01*
X7819000Y-9099214D01*
X7790428Y-9084929D01*
X7776143Y-9056357D01*
X7776143Y-8942072D01*
X7790428Y-8913500D01*
X7819000Y-8899214D01*
X7876143Y-8899214D01*
X7904714Y-8913500D01*
X7919000Y-8942072D01*
X7919000Y-8970643D01*
X7776143Y-8999214D01*
X8033286Y-9084929D02*
X8061857Y-9099214D01*
X8119000Y-9099214D01*
X8147571Y-9084929D01*
X8161857Y-9056357D01*
X8161857Y-9042072D01*
X8147571Y-9013500D01*
X8119000Y-8999214D01*
X8076143Y-8999214D01*
X8047571Y-8984929D01*
X8033286Y-8956357D01*
X8033286Y-8942072D01*
X8047571Y-8913500D01*
X8076143Y-8899214D01*
X8119000Y-8899214D01*
X8147571Y-8913500D01*
X8261857Y-9213500D02*
X8276143Y-9199214D01*
X8304714Y-9156357D01*
X8319000Y-9127786D01*
X8333286Y-9084929D01*
X8347571Y-9013500D01*
X8347571Y-8956357D01*
X8333286Y-8884929D01*
X8319000Y-8842072D01*
X8304714Y-8813500D01*
X8276143Y-8770643D01*
X8261857Y-8756357D01*
X8804714Y-9213500D02*
X8790428Y-9199214D01*
X8761857Y-9156357D01*
X8747571Y-9127786D01*
X8733286Y-9084929D01*
X8719000Y-9013500D01*
X8719000Y-8956357D01*
X8733286Y-8884929D01*
X8747571Y-8842072D01*
X8761857Y-8813500D01*
X8790428Y-8770643D01*
X8804714Y-8756357D01*
X8919000Y-8899214D02*
X8919000Y-9099214D01*
X8919000Y-8927786D02*
X8933286Y-8913500D01*
X8961857Y-8899214D01*
X9004714Y-8899214D01*
X9033286Y-8913500D01*
X9047571Y-8942072D01*
X9047571Y-9099214D01*
X9233286Y-9099214D02*
X9204714Y-9084929D01*
X9190428Y-9070643D01*
X9176143Y-9042072D01*
X9176143Y-8956357D01*
X9190428Y-8927786D01*
X9204714Y-8913500D01*
X9233286Y-8899214D01*
X9276143Y-8899214D01*
X9304714Y-8913500D01*
X9319000Y-8927786D01*
X9333286Y-8956357D01*
X9333286Y-9042072D01*
X9319000Y-9070643D01*
X9304714Y-9084929D01*
X9276143Y-9099214D01*
X9233286Y-9099214D01*
X9419000Y-8899214D02*
X9533286Y-8899214D01*
X9461857Y-8799214D02*
X9461857Y-9056357D01*
X9476143Y-9084929D01*
X9504714Y-9099214D01*
X9533286Y-9099214D01*
X9861857Y-8899214D02*
X9861857Y-9199214D01*
X9861857Y-8913500D02*
X9890428Y-8899214D01*
X9947571Y-8899214D01*
X9976143Y-8913500D01*
X9990428Y-8927786D01*
X10004714Y-8956357D01*
X10004714Y-9042072D01*
X9990428Y-9070643D01*
X9976143Y-9084929D01*
X9947571Y-9099214D01*
X9890428Y-9099214D01*
X9861857Y-9084929D01*
X10176143Y-9099214D02*
X10147571Y-9084929D01*
X10133286Y-9056357D01*
X10133286Y-8799214D01*
X10419000Y-9099214D02*
X10419000Y-8942072D01*
X10404714Y-8913500D01*
X10376143Y-8899214D01*
X10319000Y-8899214D01*
X10290428Y-8913500D01*
X10419000Y-9084929D02*
X10390428Y-9099214D01*
X10319000Y-9099214D01*
X10290428Y-9084929D01*
X10276143Y-9056357D01*
X10276143Y-9027786D01*
X10290428Y-8999214D01*
X10319000Y-8984929D01*
X10390428Y-8984929D01*
X10419000Y-8970643D01*
X10519000Y-8899214D02*
X10633286Y-8899214D01*
X10561857Y-8799214D02*
X10561857Y-9056357D01*
X10576143Y-9084929D01*
X10604714Y-9099214D01*
X10633286Y-9099214D01*
X10847571Y-9084929D02*
X10819000Y-9099214D01*
X10761857Y-9099214D01*
X10733286Y-9084929D01*
X10719000Y-9056357D01*
X10719000Y-8942072D01*
X10733286Y-8913500D01*
X10761857Y-8899214D01*
X10819000Y-8899214D01*
X10847571Y-8913500D01*
X10861857Y-8942072D01*
X10861857Y-8970643D01*
X10719000Y-8999214D01*
X11119000Y-9099214D02*
X11119000Y-8799214D01*
X11119000Y-9084929D02*
X11090428Y-9099214D01*
X11033286Y-9099214D01*
X11004714Y-9084929D01*
X10990428Y-9070643D01*
X10976143Y-9042072D01*
X10976143Y-8956357D01*
X10990428Y-8927786D01*
X11004714Y-8913500D01*
X11033286Y-8899214D01*
X11090428Y-8899214D01*
X11119000Y-8913500D01*
X11233286Y-9213500D02*
X11247571Y-9199214D01*
X11276143Y-9156357D01*
X11290428Y-9127786D01*
X11304714Y-9084929D01*
X11319000Y-9013500D01*
X11319000Y-8956357D01*
X11304714Y-8884929D01*
X11290428Y-8842072D01*
X11276143Y-8813500D01*
X11247571Y-8770643D01*
X11233286Y-8756357D01*
M02*
