G04 #@! TF.GenerationSoftware,KiCad,Pcbnew,(5.1.10)-1*
G04 #@! TF.CreationDate,2023-12-13T16:58:41-05:00*
G04 #@! TF.ProjectId,LED_Matrix_8x32_v2,4c45445f-4d61-4747-9269-785f38783332,rev?*
G04 #@! TF.SameCoordinates,Original*
G04 #@! TF.FileFunction,Copper,L2,Bot*
G04 #@! TF.FilePolarity,Positive*
%FSLAX46Y46*%
G04 Gerber Fmt 4.6, Leading zero omitted, Abs format (unit mm)*
G04 Created by KiCad (PCBNEW (5.1.10)-1) date 2023-12-13 16:58:41*
%MOMM*%
%LPD*%
G01*
G04 APERTURE LIST*
G04 #@! TA.AperFunction,ComponentPad*
%ADD10R,1.800000X1.800000*%
G04 #@! TD*
G04 #@! TA.AperFunction,ComponentPad*
%ADD11C,1.800000*%
G04 #@! TD*
G04 #@! TA.AperFunction,ComponentPad*
%ADD12C,2.400000*%
G04 #@! TD*
G04 #@! TA.AperFunction,ComponentPad*
%ADD13R,2.400000X2.400000*%
G04 #@! TD*
G04 #@! TA.AperFunction,ViaPad*
%ADD14C,0.600000*%
G04 #@! TD*
G04 #@! TA.AperFunction,Conductor*
%ADD15C,0.250000*%
G04 #@! TD*
G04 APERTURE END LIST*
D10*
G04 #@! TO.P,D256,1*
G04 #@! TO.N,Net-(D249-Pad1)*
X240665000Y-74930000D03*
D11*
G04 #@! TO.P,D256,2*
G04 #@! TO.N,Net-(D104-Pad2)*
X240665000Y-72390000D03*
G04 #@! TD*
D10*
G04 #@! TO.P,D245,1*
G04 #@! TO.N,Net-(D241-Pad1)*
X233680000Y-53975000D03*
D11*
G04 #@! TO.P,D245,2*
G04 #@! TO.N,Net-(D101-Pad2)*
X233680000Y-51435000D03*
G04 #@! TD*
D10*
G04 #@! TO.P,D244,1*
G04 #@! TO.N,Net-(D241-Pad1)*
X233680000Y-46990000D03*
D11*
G04 #@! TO.P,D244,2*
G04 #@! TO.N,Net-(D100-Pad2)*
X233680000Y-44450000D03*
G04 #@! TD*
D10*
G04 #@! TO.P,D253,1*
G04 #@! TO.N,Net-(D249-Pad1)*
X240665000Y-53975000D03*
D11*
G04 #@! TO.P,D253,2*
G04 #@! TO.N,Net-(D101-Pad2)*
X240665000Y-51435000D03*
G04 #@! TD*
D10*
G04 #@! TO.P,D255,1*
G04 #@! TO.N,Net-(D249-Pad1)*
X240665000Y-67945000D03*
D11*
G04 #@! TO.P,D255,2*
G04 #@! TO.N,Net-(D103-Pad2)*
X240665000Y-65405000D03*
G04 #@! TD*
D10*
G04 #@! TO.P,D252,1*
G04 #@! TO.N,Net-(D249-Pad1)*
X240665000Y-46990000D03*
D11*
G04 #@! TO.P,D252,2*
G04 #@! TO.N,Net-(D100-Pad2)*
X240665000Y-44450000D03*
G04 #@! TD*
D10*
G04 #@! TO.P,D246,1*
G04 #@! TO.N,Net-(D241-Pad1)*
X233680000Y-60960000D03*
D11*
G04 #@! TO.P,D246,2*
G04 #@! TO.N,Net-(D102-Pad2)*
X233680000Y-58420000D03*
G04 #@! TD*
D10*
G04 #@! TO.P,D254,1*
G04 #@! TO.N,Net-(D249-Pad1)*
X240665000Y-60960000D03*
D11*
G04 #@! TO.P,D254,2*
G04 #@! TO.N,Net-(D102-Pad2)*
X240665000Y-58420000D03*
G04 #@! TD*
D10*
G04 #@! TO.P,D248,1*
G04 #@! TO.N,Net-(D241-Pad1)*
X233680000Y-74930000D03*
D11*
G04 #@! TO.P,D248,2*
G04 #@! TO.N,Net-(D104-Pad2)*
X233680000Y-72390000D03*
G04 #@! TD*
D10*
G04 #@! TO.P,D247,1*
G04 #@! TO.N,Net-(D241-Pad1)*
X233680000Y-67945000D03*
D11*
G04 #@! TO.P,D247,2*
G04 #@! TO.N,Net-(D103-Pad2)*
X233680000Y-65405000D03*
G04 #@! TD*
D10*
G04 #@! TO.P,D250,1*
G04 #@! TO.N,Net-(D249-Pad1)*
X240665000Y-33020000D03*
D11*
G04 #@! TO.P,D250,2*
G04 #@! TO.N,Net-(D10-Pad2)*
X240665000Y-30480000D03*
G04 #@! TD*
D10*
G04 #@! TO.P,D251,1*
G04 #@! TO.N,Net-(D249-Pad1)*
X240665000Y-40005000D03*
D11*
G04 #@! TO.P,D251,2*
G04 #@! TO.N,Net-(D107-Pad2)*
X240665000Y-37465000D03*
G04 #@! TD*
D10*
G04 #@! TO.P,D134,1*
G04 #@! TO.N,Net-(D129-Pad1)*
X135890000Y-60960000D03*
D11*
G04 #@! TO.P,D134,2*
G04 #@! TO.N,Net-(D102-Pad2)*
X135890000Y-58420000D03*
G04 #@! TD*
D10*
G04 #@! TO.P,D133,1*
G04 #@! TO.N,Net-(D129-Pad1)*
X135890000Y-53975000D03*
D11*
G04 #@! TO.P,D133,2*
G04 #@! TO.N,Net-(D101-Pad2)*
X135890000Y-51435000D03*
G04 #@! TD*
D10*
G04 #@! TO.P,D132,1*
G04 #@! TO.N,Net-(D129-Pad1)*
X135890000Y-46990000D03*
D11*
G04 #@! TO.P,D132,2*
G04 #@! TO.N,Net-(D100-Pad2)*
X135890000Y-44450000D03*
G04 #@! TD*
D10*
G04 #@! TO.P,D131,1*
G04 #@! TO.N,Net-(D129-Pad1)*
X135890000Y-40005000D03*
D11*
G04 #@! TO.P,D131,2*
G04 #@! TO.N,Net-(D107-Pad2)*
X135890000Y-37465000D03*
G04 #@! TD*
D10*
G04 #@! TO.P,D127,1*
G04 #@! TO.N,Net-(D121-Pad1)*
X128905000Y-67945000D03*
D11*
G04 #@! TO.P,D127,2*
G04 #@! TO.N,Net-(D103-Pad2)*
X128905000Y-65405000D03*
G04 #@! TD*
D10*
G04 #@! TO.P,D126,1*
G04 #@! TO.N,Net-(D121-Pad1)*
X128905000Y-60960000D03*
D11*
G04 #@! TO.P,D126,2*
G04 #@! TO.N,Net-(D102-Pad2)*
X128905000Y-58420000D03*
G04 #@! TD*
D10*
G04 #@! TO.P,D135,1*
G04 #@! TO.N,Net-(D129-Pad1)*
X135890000Y-67945000D03*
D11*
G04 #@! TO.P,D135,2*
G04 #@! TO.N,Net-(D103-Pad2)*
X135890000Y-65405000D03*
G04 #@! TD*
D10*
G04 #@! TO.P,D124,1*
G04 #@! TO.N,Net-(D121-Pad1)*
X128905000Y-46990000D03*
D11*
G04 #@! TO.P,D124,2*
G04 #@! TO.N,Net-(D100-Pad2)*
X128905000Y-44450000D03*
G04 #@! TD*
D10*
G04 #@! TO.P,D119,1*
G04 #@! TO.N,Net-(D113-Pad1)*
X121920000Y-67945000D03*
D11*
G04 #@! TO.P,D119,2*
G04 #@! TO.N,Net-(D103-Pad2)*
X121920000Y-65405000D03*
G04 #@! TD*
D10*
G04 #@! TO.P,D122,1*
G04 #@! TO.N,Net-(D121-Pad1)*
X128905000Y-33020000D03*
D11*
G04 #@! TO.P,D122,2*
G04 #@! TO.N,Net-(D10-Pad2)*
X128905000Y-30480000D03*
G04 #@! TD*
D10*
G04 #@! TO.P,D118,1*
G04 #@! TO.N,Net-(D113-Pad1)*
X121920000Y-60960000D03*
D11*
G04 #@! TO.P,D118,2*
G04 #@! TO.N,Net-(D102-Pad2)*
X121920000Y-58420000D03*
G04 #@! TD*
D10*
G04 #@! TO.P,D130,1*
G04 #@! TO.N,Net-(D129-Pad1)*
X135890000Y-33020000D03*
D11*
G04 #@! TO.P,D130,2*
G04 #@! TO.N,Net-(D10-Pad2)*
X135890000Y-30480000D03*
G04 #@! TD*
D10*
G04 #@! TO.P,D120,1*
G04 #@! TO.N,Net-(D113-Pad1)*
X121920000Y-74930000D03*
D11*
G04 #@! TO.P,D120,2*
G04 #@! TO.N,Net-(D104-Pad2)*
X121920000Y-72390000D03*
G04 #@! TD*
D10*
G04 #@! TO.P,D125,1*
G04 #@! TO.N,Net-(D121-Pad1)*
X128905000Y-53975000D03*
D11*
G04 #@! TO.P,D125,2*
G04 #@! TO.N,Net-(D101-Pad2)*
X128905000Y-51435000D03*
G04 #@! TD*
D10*
G04 #@! TO.P,D128,1*
G04 #@! TO.N,Net-(D121-Pad1)*
X128905000Y-74930000D03*
D11*
G04 #@! TO.P,D128,2*
G04 #@! TO.N,Net-(D104-Pad2)*
X128905000Y-72390000D03*
G04 #@! TD*
D10*
G04 #@! TO.P,D123,1*
G04 #@! TO.N,Net-(D121-Pad1)*
X128905000Y-40005000D03*
D11*
G04 #@! TO.P,D123,2*
G04 #@! TO.N,Net-(D107-Pad2)*
X128905000Y-37465000D03*
G04 #@! TD*
D10*
G04 #@! TO.P,D158,1*
G04 #@! TO.N,Net-(D153-Pad1)*
X156845000Y-60960000D03*
D11*
G04 #@! TO.P,D158,2*
G04 #@! TO.N,Net-(D102-Pad2)*
X156845000Y-58420000D03*
G04 #@! TD*
D10*
G04 #@! TO.P,D157,1*
G04 #@! TO.N,Net-(D153-Pad1)*
X156845000Y-53975000D03*
D11*
G04 #@! TO.P,D157,2*
G04 #@! TO.N,Net-(D101-Pad2)*
X156845000Y-51435000D03*
G04 #@! TD*
D10*
G04 #@! TO.P,D163,1*
G04 #@! TO.N,Net-(D161-Pad1)*
X163830000Y-40005000D03*
D11*
G04 #@! TO.P,D163,2*
G04 #@! TO.N,Net-(D107-Pad2)*
X163830000Y-37465000D03*
G04 #@! TD*
D10*
G04 #@! TO.P,D168,1*
G04 #@! TO.N,Net-(D161-Pad1)*
X163830000Y-74930000D03*
D11*
G04 #@! TO.P,D168,2*
G04 #@! TO.N,Net-(D104-Pad2)*
X163830000Y-72390000D03*
G04 #@! TD*
D10*
G04 #@! TO.P,D156,1*
G04 #@! TO.N,Net-(D153-Pad1)*
X156845000Y-46990000D03*
D11*
G04 #@! TO.P,D156,2*
G04 #@! TO.N,Net-(D100-Pad2)*
X156845000Y-44450000D03*
G04 #@! TD*
D10*
G04 #@! TO.P,D171,1*
G04 #@! TO.N,Net-(D169-Pad1)*
X170815000Y-40005000D03*
D11*
G04 #@! TO.P,D171,2*
G04 #@! TO.N,Net-(D107-Pad2)*
X170815000Y-37465000D03*
G04 #@! TD*
D10*
G04 #@! TO.P,D167,1*
G04 #@! TO.N,Net-(D161-Pad1)*
X163830000Y-67945000D03*
D11*
G04 #@! TO.P,D167,2*
G04 #@! TO.N,Net-(D103-Pad2)*
X163830000Y-65405000D03*
G04 #@! TD*
D10*
G04 #@! TO.P,D160,1*
G04 #@! TO.N,Net-(D153-Pad1)*
X156845000Y-74930000D03*
D11*
G04 #@! TO.P,D160,2*
G04 #@! TO.N,Net-(D104-Pad2)*
X156845000Y-72390000D03*
G04 #@! TD*
D10*
G04 #@! TO.P,D166,1*
G04 #@! TO.N,Net-(D161-Pad1)*
X163830000Y-60960000D03*
D11*
G04 #@! TO.P,D166,2*
G04 #@! TO.N,Net-(D102-Pad2)*
X163830000Y-58420000D03*
G04 #@! TD*
D10*
G04 #@! TO.P,D162,1*
G04 #@! TO.N,Net-(D161-Pad1)*
X163830000Y-33020000D03*
D11*
G04 #@! TO.P,D162,2*
G04 #@! TO.N,Net-(D10-Pad2)*
X163830000Y-30480000D03*
G04 #@! TD*
D10*
G04 #@! TO.P,D159,1*
G04 #@! TO.N,Net-(D153-Pad1)*
X156845000Y-67945000D03*
D11*
G04 #@! TO.P,D159,2*
G04 #@! TO.N,Net-(D103-Pad2)*
X156845000Y-65405000D03*
G04 #@! TD*
D10*
G04 #@! TO.P,D155,1*
G04 #@! TO.N,Net-(D153-Pad1)*
X156845000Y-40005000D03*
D11*
G04 #@! TO.P,D155,2*
G04 #@! TO.N,Net-(D107-Pad2)*
X156845000Y-37465000D03*
G04 #@! TD*
D10*
G04 #@! TO.P,D154,1*
G04 #@! TO.N,Net-(D153-Pad1)*
X156845000Y-33020000D03*
D11*
G04 #@! TO.P,D154,2*
G04 #@! TO.N,Net-(D10-Pad2)*
X156845000Y-30480000D03*
G04 #@! TD*
D10*
G04 #@! TO.P,D164,1*
G04 #@! TO.N,Net-(D161-Pad1)*
X163830000Y-46990000D03*
D11*
G04 #@! TO.P,D164,2*
G04 #@! TO.N,Net-(D100-Pad2)*
X163830000Y-44450000D03*
G04 #@! TD*
D10*
G04 #@! TO.P,D165,1*
G04 #@! TO.N,Net-(D161-Pad1)*
X163830000Y-53975000D03*
D11*
G04 #@! TO.P,D165,2*
G04 #@! TO.N,Net-(D101-Pad2)*
X163830000Y-51435000D03*
G04 #@! TD*
D10*
G04 #@! TO.P,D170,1*
G04 #@! TO.N,Net-(D169-Pad1)*
X170815000Y-33020000D03*
D11*
G04 #@! TO.P,D170,2*
G04 #@! TO.N,Net-(D10-Pad2)*
X170815000Y-30480000D03*
G04 #@! TD*
D10*
G04 #@! TO.P,D141,1*
G04 #@! TO.N,Net-(D137-Pad1)*
X142875000Y-53975000D03*
D11*
G04 #@! TO.P,D141,2*
G04 #@! TO.N,Net-(D101-Pad2)*
X142875000Y-51435000D03*
G04 #@! TD*
D10*
G04 #@! TO.P,D152,1*
G04 #@! TO.N,Net-(D145-Pad1)*
X149860000Y-74930000D03*
D11*
G04 #@! TO.P,D152,2*
G04 #@! TO.N,Net-(D104-Pad2)*
X149860000Y-72390000D03*
G04 #@! TD*
D10*
G04 #@! TO.P,D140,1*
G04 #@! TO.N,Net-(D137-Pad1)*
X142875000Y-46990000D03*
D11*
G04 #@! TO.P,D140,2*
G04 #@! TO.N,Net-(D100-Pad2)*
X142875000Y-44450000D03*
G04 #@! TD*
D10*
G04 #@! TO.P,D139,1*
G04 #@! TO.N,Net-(D137-Pad1)*
X142875000Y-40005000D03*
D11*
G04 #@! TO.P,D139,2*
G04 #@! TO.N,Net-(D107-Pad2)*
X142875000Y-37465000D03*
G04 #@! TD*
D10*
G04 #@! TO.P,D147,1*
G04 #@! TO.N,Net-(D145-Pad1)*
X149860000Y-40005000D03*
D11*
G04 #@! TO.P,D147,2*
G04 #@! TO.N,Net-(D107-Pad2)*
X149860000Y-37465000D03*
G04 #@! TD*
D10*
G04 #@! TO.P,D149,1*
G04 #@! TO.N,Net-(D145-Pad1)*
X149860000Y-53975000D03*
D11*
G04 #@! TO.P,D149,2*
G04 #@! TO.N,Net-(D101-Pad2)*
X149860000Y-51435000D03*
G04 #@! TD*
D10*
G04 #@! TO.P,D138,1*
G04 #@! TO.N,Net-(D137-Pad1)*
X142875000Y-33020000D03*
D11*
G04 #@! TO.P,D138,2*
G04 #@! TO.N,Net-(D10-Pad2)*
X142875000Y-30480000D03*
G04 #@! TD*
D10*
G04 #@! TO.P,D136,1*
G04 #@! TO.N,Net-(D129-Pad1)*
X135890000Y-74930000D03*
D11*
G04 #@! TO.P,D136,2*
G04 #@! TO.N,Net-(D104-Pad2)*
X135890000Y-72390000D03*
G04 #@! TD*
D10*
G04 #@! TO.P,D150,1*
G04 #@! TO.N,Net-(D145-Pad1)*
X149860000Y-60960000D03*
D11*
G04 #@! TO.P,D150,2*
G04 #@! TO.N,Net-(D102-Pad2)*
X149860000Y-58420000D03*
G04 #@! TD*
D10*
G04 #@! TO.P,D148,1*
G04 #@! TO.N,Net-(D145-Pad1)*
X149860000Y-46990000D03*
D11*
G04 #@! TO.P,D148,2*
G04 #@! TO.N,Net-(D100-Pad2)*
X149860000Y-44450000D03*
G04 #@! TD*
D10*
G04 #@! TO.P,D146,1*
G04 #@! TO.N,Net-(D145-Pad1)*
X149860000Y-33020000D03*
D11*
G04 #@! TO.P,D146,2*
G04 #@! TO.N,Net-(D10-Pad2)*
X149860000Y-30480000D03*
G04 #@! TD*
D10*
G04 #@! TO.P,D144,1*
G04 #@! TO.N,Net-(D137-Pad1)*
X142875000Y-74930000D03*
D11*
G04 #@! TO.P,D144,2*
G04 #@! TO.N,Net-(D104-Pad2)*
X142875000Y-72390000D03*
G04 #@! TD*
D10*
G04 #@! TO.P,D143,1*
G04 #@! TO.N,Net-(D137-Pad1)*
X142769000Y-67945000D03*
D11*
G04 #@! TO.P,D143,2*
G04 #@! TO.N,Net-(D103-Pad2)*
X142769000Y-65405000D03*
G04 #@! TD*
D10*
G04 #@! TO.P,D142,1*
G04 #@! TO.N,Net-(D137-Pad1)*
X142875000Y-60960000D03*
D11*
G04 #@! TO.P,D142,2*
G04 #@! TO.N,Net-(D102-Pad2)*
X142875000Y-58420000D03*
G04 #@! TD*
D10*
G04 #@! TO.P,D151,1*
G04 #@! TO.N,Net-(D145-Pad1)*
X149860000Y-67945000D03*
D11*
G04 #@! TO.P,D151,2*
G04 #@! TO.N,Net-(D103-Pad2)*
X149860000Y-65405000D03*
G04 #@! TD*
D10*
G04 #@! TO.P,D183,1*
G04 #@! TO.N,Net-(D177-Pad1)*
X177800000Y-67945000D03*
D11*
G04 #@! TO.P,D183,2*
G04 #@! TO.N,Net-(D103-Pad2)*
X177800000Y-65405000D03*
G04 #@! TD*
D10*
G04 #@! TO.P,D189,1*
G04 #@! TO.N,Net-(D185-Pad1)*
X184785000Y-53975000D03*
D11*
G04 #@! TO.P,D189,2*
G04 #@! TO.N,Net-(D101-Pad2)*
X184785000Y-51435000D03*
G04 #@! TD*
D10*
G04 #@! TO.P,D188,1*
G04 #@! TO.N,Net-(D185-Pad1)*
X184785000Y-46990000D03*
D11*
G04 #@! TO.P,D188,2*
G04 #@! TO.N,Net-(D100-Pad2)*
X184785000Y-44450000D03*
G04 #@! TD*
D10*
G04 #@! TO.P,D182,1*
G04 #@! TO.N,Net-(D177-Pad1)*
X177800000Y-60960000D03*
D11*
G04 #@! TO.P,D182,2*
G04 #@! TO.N,Net-(D102-Pad2)*
X177800000Y-58420000D03*
G04 #@! TD*
D10*
G04 #@! TO.P,D181,1*
G04 #@! TO.N,Net-(D177-Pad1)*
X177800000Y-53975000D03*
D11*
G04 #@! TO.P,D181,2*
G04 #@! TO.N,Net-(D101-Pad2)*
X177800000Y-51435000D03*
G04 #@! TD*
D10*
G04 #@! TO.P,D187,1*
G04 #@! TO.N,Net-(D185-Pad1)*
X184785000Y-40005000D03*
D11*
G04 #@! TO.P,D187,2*
G04 #@! TO.N,Net-(D107-Pad2)*
X184785000Y-37465000D03*
G04 #@! TD*
D10*
G04 #@! TO.P,D180,1*
G04 #@! TO.N,Net-(D177-Pad1)*
X177800000Y-46990000D03*
D11*
G04 #@! TO.P,D180,2*
G04 #@! TO.N,Net-(D100-Pad2)*
X177800000Y-44450000D03*
G04 #@! TD*
D10*
G04 #@! TO.P,D179,1*
G04 #@! TO.N,Net-(D177-Pad1)*
X177800000Y-40005000D03*
D11*
G04 #@! TO.P,D179,2*
G04 #@! TO.N,Net-(D107-Pad2)*
X177800000Y-37465000D03*
G04 #@! TD*
D10*
G04 #@! TO.P,D178,1*
G04 #@! TO.N,Net-(D177-Pad1)*
X177800000Y-33020000D03*
D11*
G04 #@! TO.P,D178,2*
G04 #@! TO.N,Net-(D10-Pad2)*
X177800000Y-30480000D03*
G04 #@! TD*
D10*
G04 #@! TO.P,D176,1*
G04 #@! TO.N,Net-(D169-Pad1)*
X170815000Y-74930000D03*
D11*
G04 #@! TO.P,D176,2*
G04 #@! TO.N,Net-(D104-Pad2)*
X170815000Y-72390000D03*
G04 #@! TD*
D10*
G04 #@! TO.P,D175,1*
G04 #@! TO.N,Net-(D169-Pad1)*
X170815000Y-67945000D03*
D11*
G04 #@! TO.P,D175,2*
G04 #@! TO.N,Net-(D103-Pad2)*
X170815000Y-65405000D03*
G04 #@! TD*
D10*
G04 #@! TO.P,D174,1*
G04 #@! TO.N,Net-(D169-Pad1)*
X170815000Y-60960000D03*
D11*
G04 #@! TO.P,D174,2*
G04 #@! TO.N,Net-(D102-Pad2)*
X170815000Y-58420000D03*
G04 #@! TD*
D10*
G04 #@! TO.P,D173,1*
G04 #@! TO.N,Net-(D169-Pad1)*
X170815000Y-53975000D03*
D11*
G04 #@! TO.P,D173,2*
G04 #@! TO.N,Net-(D101-Pad2)*
X170815000Y-51435000D03*
G04 #@! TD*
D10*
G04 #@! TO.P,D172,1*
G04 #@! TO.N,Net-(D169-Pad1)*
X170815000Y-46990000D03*
D11*
G04 #@! TO.P,D172,2*
G04 #@! TO.N,Net-(D100-Pad2)*
X170815000Y-44450000D03*
G04 #@! TD*
D10*
G04 #@! TO.P,D186,1*
G04 #@! TO.N,Net-(D185-Pad1)*
X184785000Y-33020000D03*
D11*
G04 #@! TO.P,D186,2*
G04 #@! TO.N,Net-(D10-Pad2)*
X184785000Y-30480000D03*
G04 #@! TD*
D10*
G04 #@! TO.P,D184,1*
G04 #@! TO.N,Net-(D177-Pad1)*
X177800000Y-74930000D03*
D11*
G04 #@! TO.P,D184,2*
G04 #@! TO.N,Net-(D104-Pad2)*
X177800000Y-72390000D03*
G04 #@! TD*
D10*
G04 #@! TO.P,D92,1*
G04 #@! TO.N,Net-(D89-Pad1)*
X100965000Y-46990000D03*
D11*
G04 #@! TO.P,D92,2*
G04 #@! TO.N,Net-(D100-Pad2)*
X100965000Y-44450000D03*
G04 #@! TD*
D10*
G04 #@! TO.P,D115,1*
G04 #@! TO.N,Net-(D113-Pad1)*
X121920000Y-40005000D03*
D11*
G04 #@! TO.P,D115,2*
G04 #@! TO.N,Net-(D107-Pad2)*
X121920000Y-37465000D03*
G04 #@! TD*
D10*
G04 #@! TO.P,D87,1*
G04 #@! TO.N,Net-(D81-Pad1)*
X93980000Y-67945000D03*
D11*
G04 #@! TO.P,D87,2*
G04 #@! TO.N,Net-(D103-Pad2)*
X93980000Y-65405000D03*
G04 #@! TD*
D10*
G04 #@! TO.P,D86,1*
G04 #@! TO.N,Net-(D81-Pad1)*
X93980000Y-60960000D03*
D11*
G04 #@! TO.P,D86,2*
G04 #@! TO.N,Net-(D102-Pad2)*
X93980000Y-58420000D03*
G04 #@! TD*
D10*
G04 #@! TO.P,D108,1*
G04 #@! TO.N,Net-(D105-Pad1)*
X114935000Y-46990000D03*
D11*
G04 #@! TO.P,D108,2*
G04 #@! TO.N,Net-(D100-Pad2)*
X114935000Y-44450000D03*
G04 #@! TD*
D10*
G04 #@! TO.P,D84,1*
G04 #@! TO.N,Net-(D81-Pad1)*
X93980000Y-46990000D03*
D11*
G04 #@! TO.P,D84,2*
G04 #@! TO.N,Net-(D100-Pad2)*
X93980000Y-44450000D03*
G04 #@! TD*
D10*
G04 #@! TO.P,D111,1*
G04 #@! TO.N,Net-(D105-Pad1)*
X114935000Y-67945000D03*
D11*
G04 #@! TO.P,D111,2*
G04 #@! TO.N,Net-(D103-Pad2)*
X114935000Y-65405000D03*
G04 #@! TD*
D10*
G04 #@! TO.P,D106,1*
G04 #@! TO.N,Net-(D105-Pad1)*
X114935000Y-33020000D03*
D11*
G04 #@! TO.P,D106,2*
G04 #@! TO.N,Net-(D10-Pad2)*
X114935000Y-30480000D03*
G04 #@! TD*
D10*
G04 #@! TO.P,D98,1*
G04 #@! TO.N,Net-(D100-Pad1)*
X107950000Y-33020000D03*
D11*
G04 #@! TO.P,D98,2*
G04 #@! TO.N,Net-(D10-Pad2)*
X107950000Y-30480000D03*
G04 #@! TD*
D10*
G04 #@! TO.P,D90,1*
G04 #@! TO.N,Net-(D89-Pad1)*
X100965000Y-33020000D03*
D11*
G04 #@! TO.P,D90,2*
G04 #@! TO.N,Net-(D10-Pad2)*
X100965000Y-30480000D03*
G04 #@! TD*
D10*
G04 #@! TO.P,D93,1*
G04 #@! TO.N,Net-(D89-Pad1)*
X100965000Y-53975000D03*
D11*
G04 #@! TO.P,D93,2*
G04 #@! TO.N,Net-(D101-Pad2)*
X100965000Y-51435000D03*
G04 #@! TD*
D10*
G04 #@! TO.P,D104,1*
G04 #@! TO.N,Net-(D100-Pad1)*
X107950000Y-74930000D03*
D11*
G04 #@! TO.P,D104,2*
G04 #@! TO.N,Net-(D104-Pad2)*
X107950000Y-72390000D03*
G04 #@! TD*
D10*
G04 #@! TO.P,D110,1*
G04 #@! TO.N,Net-(D105-Pad1)*
X114935000Y-60960000D03*
D11*
G04 #@! TO.P,D110,2*
G04 #@! TO.N,Net-(D102-Pad2)*
X114935000Y-58420000D03*
G04 #@! TD*
D10*
G04 #@! TO.P,D102,1*
G04 #@! TO.N,Net-(D100-Pad1)*
X107950000Y-60960000D03*
D11*
G04 #@! TO.P,D102,2*
G04 #@! TO.N,Net-(D102-Pad2)*
X107950000Y-58420000D03*
G04 #@! TD*
D10*
G04 #@! TO.P,D101,1*
G04 #@! TO.N,Net-(D100-Pad1)*
X107950000Y-53975000D03*
D11*
G04 #@! TO.P,D101,2*
G04 #@! TO.N,Net-(D101-Pad2)*
X107950000Y-51435000D03*
G04 #@! TD*
D10*
G04 #@! TO.P,D117,1*
G04 #@! TO.N,Net-(D113-Pad1)*
X121920000Y-53975000D03*
D11*
G04 #@! TO.P,D117,2*
G04 #@! TO.N,Net-(D101-Pad2)*
X121920000Y-51435000D03*
G04 #@! TD*
D10*
G04 #@! TO.P,D107,1*
G04 #@! TO.N,Net-(D105-Pad1)*
X114935000Y-40005000D03*
D11*
G04 #@! TO.P,D107,2*
G04 #@! TO.N,Net-(D107-Pad2)*
X114935000Y-37465000D03*
G04 #@! TD*
D10*
G04 #@! TO.P,D85,1*
G04 #@! TO.N,Net-(D81-Pad1)*
X93980000Y-53975000D03*
D11*
G04 #@! TO.P,D85,2*
G04 #@! TO.N,Net-(D101-Pad2)*
X93980000Y-51435000D03*
G04 #@! TD*
D10*
G04 #@! TO.P,D83,1*
G04 #@! TO.N,Net-(D81-Pad1)*
X93980000Y-40005000D03*
D11*
G04 #@! TO.P,D83,2*
G04 #@! TO.N,Net-(D107-Pad2)*
X93980000Y-37465000D03*
G04 #@! TD*
D10*
G04 #@! TO.P,D82,1*
G04 #@! TO.N,Net-(D81-Pad1)*
X93980000Y-33020000D03*
D11*
G04 #@! TO.P,D82,2*
G04 #@! TO.N,Net-(D10-Pad2)*
X93980000Y-30480000D03*
G04 #@! TD*
D10*
G04 #@! TO.P,D116,1*
G04 #@! TO.N,Net-(D113-Pad1)*
X121920000Y-46990000D03*
D11*
G04 #@! TO.P,D116,2*
G04 #@! TO.N,Net-(D100-Pad2)*
X121920000Y-44450000D03*
G04 #@! TD*
D10*
G04 #@! TO.P,D100,1*
G04 #@! TO.N,Net-(D100-Pad1)*
X107950000Y-46990000D03*
D11*
G04 #@! TO.P,D100,2*
G04 #@! TO.N,Net-(D100-Pad2)*
X107950000Y-44450000D03*
G04 #@! TD*
D10*
G04 #@! TO.P,D96,1*
G04 #@! TO.N,Net-(D89-Pad1)*
X100965000Y-74930000D03*
D11*
G04 #@! TO.P,D96,2*
G04 #@! TO.N,Net-(D104-Pad2)*
X100965000Y-72390000D03*
G04 #@! TD*
D10*
G04 #@! TO.P,D94,1*
G04 #@! TO.N,Net-(D89-Pad1)*
X100965000Y-60960000D03*
D11*
G04 #@! TO.P,D94,2*
G04 #@! TO.N,Net-(D102-Pad2)*
X100965000Y-58420000D03*
G04 #@! TD*
D10*
G04 #@! TO.P,D95,1*
G04 #@! TO.N,Net-(D89-Pad1)*
X100965000Y-67945000D03*
D11*
G04 #@! TO.P,D95,2*
G04 #@! TO.N,Net-(D103-Pad2)*
X100965000Y-65405000D03*
G04 #@! TD*
D10*
G04 #@! TO.P,D114,1*
G04 #@! TO.N,Net-(D113-Pad1)*
X121920000Y-33020000D03*
D11*
G04 #@! TO.P,D114,2*
G04 #@! TO.N,Net-(D10-Pad2)*
X121920000Y-30480000D03*
G04 #@! TD*
D10*
G04 #@! TO.P,D91,1*
G04 #@! TO.N,Net-(D89-Pad1)*
X100965000Y-40005000D03*
D11*
G04 #@! TO.P,D91,2*
G04 #@! TO.N,Net-(D107-Pad2)*
X100965000Y-37465000D03*
G04 #@! TD*
D10*
G04 #@! TO.P,D112,1*
G04 #@! TO.N,Net-(D105-Pad1)*
X114935000Y-74930000D03*
D11*
G04 #@! TO.P,D112,2*
G04 #@! TO.N,Net-(D104-Pad2)*
X114935000Y-72390000D03*
G04 #@! TD*
D10*
G04 #@! TO.P,D109,1*
G04 #@! TO.N,Net-(D105-Pad1)*
X114935000Y-53975000D03*
D11*
G04 #@! TO.P,D109,2*
G04 #@! TO.N,Net-(D101-Pad2)*
X114935000Y-51435000D03*
G04 #@! TD*
D10*
G04 #@! TO.P,D103,1*
G04 #@! TO.N,Net-(D100-Pad1)*
X107950000Y-67945000D03*
D11*
G04 #@! TO.P,D103,2*
G04 #@! TO.N,Net-(D103-Pad2)*
X107950000Y-65405000D03*
G04 #@! TD*
D10*
G04 #@! TO.P,D99,1*
G04 #@! TO.N,Net-(D100-Pad1)*
X107950000Y-40005000D03*
D11*
G04 #@! TO.P,D99,2*
G04 #@! TO.N,Net-(D107-Pad2)*
X107950000Y-37465000D03*
G04 #@! TD*
D10*
G04 #@! TO.P,D88,1*
G04 #@! TO.N,Net-(D81-Pad1)*
X93980000Y-74930000D03*
D11*
G04 #@! TO.P,D88,2*
G04 #@! TO.N,Net-(D104-Pad2)*
X93980000Y-72390000D03*
G04 #@! TD*
D10*
G04 #@! TO.P,D203,1*
G04 #@! TO.N,Net-(D201-Pad1)*
X198755000Y-40005000D03*
D11*
G04 #@! TO.P,D203,2*
G04 #@! TO.N,Net-(D107-Pad2)*
X198755000Y-37465000D03*
G04 #@! TD*
D10*
G04 #@! TO.P,D204,1*
G04 #@! TO.N,Net-(D201-Pad1)*
X198755000Y-46990000D03*
D11*
G04 #@! TO.P,D204,2*
G04 #@! TO.N,Net-(D100-Pad2)*
X198755000Y-44450000D03*
G04 #@! TD*
D10*
G04 #@! TO.P,D200,1*
G04 #@! TO.N,Net-(D193-Pad1)*
X191770000Y-74930000D03*
D11*
G04 #@! TO.P,D200,2*
G04 #@! TO.N,Net-(D104-Pad2)*
X191770000Y-72390000D03*
G04 #@! TD*
D10*
G04 #@! TO.P,D206,1*
G04 #@! TO.N,Net-(D201-Pad1)*
X198755000Y-60960000D03*
D11*
G04 #@! TO.P,D206,2*
G04 #@! TO.N,Net-(D102-Pad2)*
X198755000Y-58420000D03*
G04 #@! TD*
D10*
G04 #@! TO.P,D205,1*
G04 #@! TO.N,Net-(D201-Pad1)*
X198755000Y-53975000D03*
D11*
G04 #@! TO.P,D205,2*
G04 #@! TO.N,Net-(D101-Pad2)*
X198755000Y-51435000D03*
G04 #@! TD*
D10*
G04 #@! TO.P,D198,1*
G04 #@! TO.N,Net-(D193-Pad1)*
X191770000Y-60960000D03*
D11*
G04 #@! TO.P,D198,2*
G04 #@! TO.N,Net-(D102-Pad2)*
X191770000Y-58420000D03*
G04 #@! TD*
D10*
G04 #@! TO.P,D192,1*
G04 #@! TO.N,Net-(D185-Pad1)*
X184785000Y-74930000D03*
D11*
G04 #@! TO.P,D192,2*
G04 #@! TO.N,Net-(D104-Pad2)*
X184785000Y-72390000D03*
G04 #@! TD*
D10*
G04 #@! TO.P,D191,1*
G04 #@! TO.N,Net-(D185-Pad1)*
X184785000Y-67945000D03*
D11*
G04 #@! TO.P,D191,2*
G04 #@! TO.N,Net-(D103-Pad2)*
X184785000Y-65405000D03*
G04 #@! TD*
D10*
G04 #@! TO.P,D202,1*
G04 #@! TO.N,Net-(D201-Pad1)*
X198755000Y-33020000D03*
D11*
G04 #@! TO.P,D202,2*
G04 #@! TO.N,Net-(D10-Pad2)*
X198755000Y-30480000D03*
G04 #@! TD*
D10*
G04 #@! TO.P,D190,1*
G04 #@! TO.N,Net-(D185-Pad1)*
X184785000Y-60960000D03*
D11*
G04 #@! TO.P,D190,2*
G04 #@! TO.N,Net-(D102-Pad2)*
X184785000Y-58420000D03*
G04 #@! TD*
D10*
G04 #@! TO.P,D199,1*
G04 #@! TO.N,Net-(D193-Pad1)*
X191770000Y-67945000D03*
D11*
G04 #@! TO.P,D199,2*
G04 #@! TO.N,Net-(D103-Pad2)*
X191770000Y-65405000D03*
G04 #@! TD*
D10*
G04 #@! TO.P,D197,1*
G04 #@! TO.N,Net-(D193-Pad1)*
X191770000Y-53975000D03*
D11*
G04 #@! TO.P,D197,2*
G04 #@! TO.N,Net-(D101-Pad2)*
X191770000Y-51435000D03*
G04 #@! TD*
D10*
G04 #@! TO.P,D196,1*
G04 #@! TO.N,Net-(D193-Pad1)*
X191770000Y-46990000D03*
D11*
G04 #@! TO.P,D196,2*
G04 #@! TO.N,Net-(D100-Pad2)*
X191770000Y-44450000D03*
G04 #@! TD*
D10*
G04 #@! TO.P,D195,1*
G04 #@! TO.N,Net-(D193-Pad1)*
X191770000Y-40005000D03*
D11*
G04 #@! TO.P,D195,2*
G04 #@! TO.N,Net-(D107-Pad2)*
X191770000Y-37465000D03*
G04 #@! TD*
D10*
G04 #@! TO.P,D194,1*
G04 #@! TO.N,Net-(D193-Pad1)*
X191770000Y-33020000D03*
D11*
G04 #@! TO.P,D194,2*
G04 #@! TO.N,Net-(D10-Pad2)*
X191770000Y-30480000D03*
G04 #@! TD*
D10*
G04 #@! TO.P,D207,1*
G04 #@! TO.N,Net-(D201-Pad1)*
X198755000Y-67945000D03*
D11*
G04 #@! TO.P,D207,2*
G04 #@! TO.N,Net-(D103-Pad2)*
X198755000Y-65405000D03*
G04 #@! TD*
D10*
G04 #@! TO.P,D61,1*
G04 #@! TO.N,Net-(D57-Pad1)*
X73025000Y-53975000D03*
D11*
G04 #@! TO.P,D61,2*
G04 #@! TO.N,Net-(D101-Pad2)*
X73025000Y-51435000D03*
G04 #@! TD*
D10*
G04 #@! TO.P,D66,1*
G04 #@! TO.N,Net-(D65-Pad1)*
X80010000Y-33020000D03*
D11*
G04 #@! TO.P,D66,2*
G04 #@! TO.N,Net-(D10-Pad2)*
X80010000Y-30480000D03*
G04 #@! TD*
D10*
G04 #@! TO.P,D54,1*
G04 #@! TO.N,Net-(D49-Pad1)*
X66040000Y-60960000D03*
D11*
G04 #@! TO.P,D54,2*
G04 #@! TO.N,Net-(D102-Pad2)*
X66040000Y-58420000D03*
G04 #@! TD*
D10*
G04 #@! TO.P,D53,1*
G04 #@! TO.N,Net-(D49-Pad1)*
X66040000Y-53975000D03*
D11*
G04 #@! TO.P,D53,2*
G04 #@! TO.N,Net-(D101-Pad2)*
X66040000Y-51435000D03*
G04 #@! TD*
D10*
G04 #@! TO.P,D58,1*
G04 #@! TO.N,Net-(D57-Pad1)*
X73025000Y-33020000D03*
D11*
G04 #@! TO.P,D58,2*
G04 #@! TO.N,Net-(D10-Pad2)*
X73025000Y-30480000D03*
G04 #@! TD*
D10*
G04 #@! TO.P,D51,1*
G04 #@! TO.N,Net-(D49-Pad1)*
X66040000Y-40005000D03*
D11*
G04 #@! TO.P,D51,2*
G04 #@! TO.N,Net-(D107-Pad2)*
X66040000Y-37465000D03*
G04 #@! TD*
D10*
G04 #@! TO.P,D64,1*
G04 #@! TO.N,Net-(D57-Pad1)*
X73025000Y-74930000D03*
D11*
G04 #@! TO.P,D64,2*
G04 #@! TO.N,Net-(D104-Pad2)*
X73025000Y-72390000D03*
G04 #@! TD*
D10*
G04 #@! TO.P,D74,1*
G04 #@! TO.N,Net-(D73-Pad1)*
X86995000Y-33020000D03*
D11*
G04 #@! TO.P,D74,2*
G04 #@! TO.N,Net-(D10-Pad2)*
X86995000Y-30480000D03*
G04 #@! TD*
D10*
G04 #@! TO.P,D67,1*
G04 #@! TO.N,Net-(D65-Pad1)*
X80010000Y-40005000D03*
D11*
G04 #@! TO.P,D67,2*
G04 #@! TO.N,Net-(D107-Pad2)*
X80010000Y-37465000D03*
G04 #@! TD*
D10*
G04 #@! TO.P,D80,1*
G04 #@! TO.N,Net-(D73-Pad1)*
X86995000Y-74930000D03*
D11*
G04 #@! TO.P,D80,2*
G04 #@! TO.N,Net-(D104-Pad2)*
X86995000Y-72390000D03*
G04 #@! TD*
D10*
G04 #@! TO.P,D77,1*
G04 #@! TO.N,Net-(D73-Pad1)*
X86995000Y-53975000D03*
D11*
G04 #@! TO.P,D77,2*
G04 #@! TO.N,Net-(D101-Pad2)*
X86995000Y-51435000D03*
G04 #@! TD*
D10*
G04 #@! TO.P,D72,1*
G04 #@! TO.N,Net-(D65-Pad1)*
X80010000Y-74930000D03*
D11*
G04 #@! TO.P,D72,2*
G04 #@! TO.N,Net-(D104-Pad2)*
X80010000Y-72390000D03*
G04 #@! TD*
D10*
G04 #@! TO.P,D55,1*
G04 #@! TO.N,Net-(D49-Pad1)*
X66040000Y-67945000D03*
D11*
G04 #@! TO.P,D55,2*
G04 #@! TO.N,Net-(D103-Pad2)*
X66040000Y-65405000D03*
G04 #@! TD*
D10*
G04 #@! TO.P,D70,1*
G04 #@! TO.N,Net-(D65-Pad1)*
X80010000Y-60960000D03*
D11*
G04 #@! TO.P,D70,2*
G04 #@! TO.N,Net-(D102-Pad2)*
X80010000Y-58420000D03*
G04 #@! TD*
D10*
G04 #@! TO.P,D56,1*
G04 #@! TO.N,Net-(D49-Pad1)*
X66040000Y-74930000D03*
D11*
G04 #@! TO.P,D56,2*
G04 #@! TO.N,Net-(D104-Pad2)*
X66040000Y-72390000D03*
G04 #@! TD*
D10*
G04 #@! TO.P,D52,1*
G04 #@! TO.N,Net-(D49-Pad1)*
X66040000Y-46990000D03*
D11*
G04 #@! TO.P,D52,2*
G04 #@! TO.N,Net-(D100-Pad2)*
X66040000Y-44450000D03*
G04 #@! TD*
D10*
G04 #@! TO.P,D50,1*
G04 #@! TO.N,Net-(D49-Pad1)*
X66040000Y-33020000D03*
D11*
G04 #@! TO.P,D50,2*
G04 #@! TO.N,Net-(D10-Pad2)*
X66040000Y-30480000D03*
G04 #@! TD*
D10*
G04 #@! TO.P,D75,1*
G04 #@! TO.N,Net-(D73-Pad1)*
X86995000Y-40005000D03*
D11*
G04 #@! TO.P,D75,2*
G04 #@! TO.N,Net-(D107-Pad2)*
X86995000Y-37465000D03*
G04 #@! TD*
D10*
G04 #@! TO.P,D62,1*
G04 #@! TO.N,Net-(D57-Pad1)*
X73025000Y-60960000D03*
D11*
G04 #@! TO.P,D62,2*
G04 #@! TO.N,Net-(D102-Pad2)*
X73025000Y-58420000D03*
G04 #@! TD*
D10*
G04 #@! TO.P,D78,1*
G04 #@! TO.N,Net-(D73-Pad1)*
X86995000Y-60960000D03*
D11*
G04 #@! TO.P,D78,2*
G04 #@! TO.N,Net-(D102-Pad2)*
X86995000Y-58420000D03*
G04 #@! TD*
D10*
G04 #@! TO.P,D60,1*
G04 #@! TO.N,Net-(D57-Pad1)*
X73025000Y-46990000D03*
D11*
G04 #@! TO.P,D60,2*
G04 #@! TO.N,Net-(D100-Pad2)*
X73025000Y-44450000D03*
G04 #@! TD*
D10*
G04 #@! TO.P,D76,1*
G04 #@! TO.N,Net-(D73-Pad1)*
X86995000Y-46990000D03*
D11*
G04 #@! TO.P,D76,2*
G04 #@! TO.N,Net-(D100-Pad2)*
X86995000Y-44450000D03*
G04 #@! TD*
D10*
G04 #@! TO.P,D69,1*
G04 #@! TO.N,Net-(D65-Pad1)*
X80010000Y-53975000D03*
D11*
G04 #@! TO.P,D69,2*
G04 #@! TO.N,Net-(D101-Pad2)*
X80010000Y-51435000D03*
G04 #@! TD*
D10*
G04 #@! TO.P,D63,1*
G04 #@! TO.N,Net-(D57-Pad1)*
X73025000Y-67945000D03*
D11*
G04 #@! TO.P,D63,2*
G04 #@! TO.N,Net-(D103-Pad2)*
X73025000Y-65405000D03*
G04 #@! TD*
D10*
G04 #@! TO.P,D59,1*
G04 #@! TO.N,Net-(D57-Pad1)*
X73025000Y-40005000D03*
D11*
G04 #@! TO.P,D59,2*
G04 #@! TO.N,Net-(D107-Pad2)*
X73025000Y-37465000D03*
G04 #@! TD*
D10*
G04 #@! TO.P,D71,1*
G04 #@! TO.N,Net-(D65-Pad1)*
X80010000Y-67945000D03*
D11*
G04 #@! TO.P,D71,2*
G04 #@! TO.N,Net-(D103-Pad2)*
X80010000Y-65405000D03*
G04 #@! TD*
D10*
G04 #@! TO.P,D79,1*
G04 #@! TO.N,Net-(D73-Pad1)*
X86995000Y-67945000D03*
D11*
G04 #@! TO.P,D79,2*
G04 #@! TO.N,Net-(D103-Pad2)*
X86995000Y-65405000D03*
G04 #@! TD*
D10*
G04 #@! TO.P,D68,1*
G04 #@! TO.N,Net-(D65-Pad1)*
X80010000Y-46990000D03*
D11*
G04 #@! TO.P,D68,2*
G04 #@! TO.N,Net-(D100-Pad2)*
X80010000Y-44450000D03*
G04 #@! TD*
D10*
G04 #@! TO.P,D239,1*
G04 #@! TO.N,Net-(D233-Pad1)*
X226695000Y-67945000D03*
D11*
G04 #@! TO.P,D239,2*
G04 #@! TO.N,Net-(D103-Pad2)*
X226695000Y-65405000D03*
G04 #@! TD*
D10*
G04 #@! TO.P,D238,1*
G04 #@! TO.N,Net-(D233-Pad1)*
X226695000Y-60960000D03*
D11*
G04 #@! TO.P,D238,2*
G04 #@! TO.N,Net-(D102-Pad2)*
X226695000Y-58420000D03*
G04 #@! TD*
D10*
G04 #@! TO.P,D237,1*
G04 #@! TO.N,Net-(D233-Pad1)*
X226695000Y-53975000D03*
D11*
G04 #@! TO.P,D237,2*
G04 #@! TO.N,Net-(D101-Pad2)*
X226695000Y-51435000D03*
G04 #@! TD*
D10*
G04 #@! TO.P,D236,1*
G04 #@! TO.N,Net-(D233-Pad1)*
X226695000Y-46990000D03*
D11*
G04 #@! TO.P,D236,2*
G04 #@! TO.N,Net-(D100-Pad2)*
X226695000Y-44450000D03*
G04 #@! TD*
D10*
G04 #@! TO.P,D232,1*
G04 #@! TO.N,Net-(D225-Pad1)*
X219710000Y-74930000D03*
D11*
G04 #@! TO.P,D232,2*
G04 #@! TO.N,Net-(D104-Pad2)*
X219710000Y-72390000D03*
G04 #@! TD*
D10*
G04 #@! TO.P,D235,1*
G04 #@! TO.N,Net-(D233-Pad1)*
X226695000Y-40005000D03*
D11*
G04 #@! TO.P,D235,2*
G04 #@! TO.N,Net-(D107-Pad2)*
X226695000Y-37465000D03*
G04 #@! TD*
D10*
G04 #@! TO.P,D234,1*
G04 #@! TO.N,Net-(D233-Pad1)*
X226695000Y-33020000D03*
D11*
G04 #@! TO.P,D234,2*
G04 #@! TO.N,Net-(D10-Pad2)*
X226695000Y-30480000D03*
G04 #@! TD*
D10*
G04 #@! TO.P,D231,1*
G04 #@! TO.N,Net-(D225-Pad1)*
X219710000Y-67945000D03*
D11*
G04 #@! TO.P,D231,2*
G04 #@! TO.N,Net-(D103-Pad2)*
X219710000Y-65405000D03*
G04 #@! TD*
D10*
G04 #@! TO.P,D230,1*
G04 #@! TO.N,Net-(D225-Pad1)*
X219710000Y-60960000D03*
D11*
G04 #@! TO.P,D230,2*
G04 #@! TO.N,Net-(D102-Pad2)*
X219710000Y-58420000D03*
G04 #@! TD*
D10*
G04 #@! TO.P,D229,1*
G04 #@! TO.N,Net-(D225-Pad1)*
X219710000Y-53975000D03*
D11*
G04 #@! TO.P,D229,2*
G04 #@! TO.N,Net-(D101-Pad2)*
X219710000Y-51435000D03*
G04 #@! TD*
D10*
G04 #@! TO.P,D228,1*
G04 #@! TO.N,Net-(D225-Pad1)*
X219710000Y-46990000D03*
D11*
G04 #@! TO.P,D228,2*
G04 #@! TO.N,Net-(D100-Pad2)*
X219710000Y-44450000D03*
G04 #@! TD*
D10*
G04 #@! TO.P,D227,1*
G04 #@! TO.N,Net-(D225-Pad1)*
X219710000Y-40005000D03*
D11*
G04 #@! TO.P,D227,2*
G04 #@! TO.N,Net-(D107-Pad2)*
X219710000Y-37465000D03*
G04 #@! TD*
D10*
G04 #@! TO.P,D226,1*
G04 #@! TO.N,Net-(D225-Pad1)*
X219710000Y-33020000D03*
D11*
G04 #@! TO.P,D226,2*
G04 #@! TO.N,Net-(D10-Pad2)*
X219710000Y-30480000D03*
G04 #@! TD*
D10*
G04 #@! TO.P,D243,1*
G04 #@! TO.N,Net-(D241-Pad1)*
X233680000Y-40005000D03*
D11*
G04 #@! TO.P,D243,2*
G04 #@! TO.N,Net-(D107-Pad2)*
X233680000Y-37465000D03*
G04 #@! TD*
D10*
G04 #@! TO.P,D242,1*
G04 #@! TO.N,Net-(D241-Pad1)*
X233680000Y-33020000D03*
D11*
G04 #@! TO.P,D242,2*
G04 #@! TO.N,Net-(D10-Pad2)*
X233680000Y-30480000D03*
G04 #@! TD*
D10*
G04 #@! TO.P,D240,1*
G04 #@! TO.N,Net-(D233-Pad1)*
X226695000Y-74930000D03*
D11*
G04 #@! TO.P,D240,2*
G04 #@! TO.N,Net-(D104-Pad2)*
X226695000Y-72390000D03*
G04 #@! TD*
D10*
G04 #@! TO.P,D210,1*
G04 #@! TO.N,Net-(D209-Pad1)*
X205740000Y-33020000D03*
D11*
G04 #@! TO.P,D210,2*
G04 #@! TO.N,Net-(D10-Pad2)*
X205740000Y-30480000D03*
G04 #@! TD*
D10*
G04 #@! TO.P,D215,1*
G04 #@! TO.N,Net-(D209-Pad1)*
X205740000Y-67945000D03*
D11*
G04 #@! TO.P,D215,2*
G04 #@! TO.N,Net-(D103-Pad2)*
X205740000Y-65405000D03*
G04 #@! TD*
D10*
G04 #@! TO.P,D218,1*
G04 #@! TO.N,Net-(D217-Pad1)*
X212725000Y-33020000D03*
D11*
G04 #@! TO.P,D218,2*
G04 #@! TO.N,Net-(D10-Pad2)*
X212725000Y-30480000D03*
G04 #@! TD*
D10*
G04 #@! TO.P,D220,1*
G04 #@! TO.N,Net-(D217-Pad1)*
X212725000Y-46990000D03*
D11*
G04 #@! TO.P,D220,2*
G04 #@! TO.N,Net-(D100-Pad2)*
X212725000Y-44450000D03*
G04 #@! TD*
D10*
G04 #@! TO.P,D212,1*
G04 #@! TO.N,Net-(D209-Pad1)*
X205740000Y-46990000D03*
D11*
G04 #@! TO.P,D212,2*
G04 #@! TO.N,Net-(D100-Pad2)*
X205740000Y-44450000D03*
G04 #@! TD*
D10*
G04 #@! TO.P,D222,1*
G04 #@! TO.N,Net-(D217-Pad1)*
X212725000Y-60960000D03*
D11*
G04 #@! TO.P,D222,2*
G04 #@! TO.N,Net-(D102-Pad2)*
X212725000Y-58420000D03*
G04 #@! TD*
D10*
G04 #@! TO.P,D211,1*
G04 #@! TO.N,Net-(D209-Pad1)*
X205740000Y-40005000D03*
D11*
G04 #@! TO.P,D211,2*
G04 #@! TO.N,Net-(D107-Pad2)*
X205740000Y-37465000D03*
G04 #@! TD*
D10*
G04 #@! TO.P,D208,1*
G04 #@! TO.N,Net-(D201-Pad1)*
X198755000Y-74930000D03*
D11*
G04 #@! TO.P,D208,2*
G04 #@! TO.N,Net-(D104-Pad2)*
X198755000Y-72390000D03*
G04 #@! TD*
D10*
G04 #@! TO.P,D219,1*
G04 #@! TO.N,Net-(D217-Pad1)*
X212725000Y-40005000D03*
D11*
G04 #@! TO.P,D219,2*
G04 #@! TO.N,Net-(D107-Pad2)*
X212725000Y-37465000D03*
G04 #@! TD*
D10*
G04 #@! TO.P,D221,1*
G04 #@! TO.N,Net-(D217-Pad1)*
X212725000Y-53975000D03*
D11*
G04 #@! TO.P,D221,2*
G04 #@! TO.N,Net-(D101-Pad2)*
X212725000Y-51435000D03*
G04 #@! TD*
D10*
G04 #@! TO.P,D216,1*
G04 #@! TO.N,Net-(D209-Pad1)*
X205740000Y-74930000D03*
D11*
G04 #@! TO.P,D216,2*
G04 #@! TO.N,Net-(D104-Pad2)*
X205740000Y-72390000D03*
G04 #@! TD*
D10*
G04 #@! TO.P,D213,1*
G04 #@! TO.N,Net-(D209-Pad1)*
X205740000Y-53975000D03*
D11*
G04 #@! TO.P,D213,2*
G04 #@! TO.N,Net-(D101-Pad2)*
X205740000Y-51435000D03*
G04 #@! TD*
D10*
G04 #@! TO.P,D224,1*
G04 #@! TO.N,Net-(D217-Pad1)*
X212725000Y-74930000D03*
D11*
G04 #@! TO.P,D224,2*
G04 #@! TO.N,Net-(D104-Pad2)*
X212725000Y-72390000D03*
G04 #@! TD*
D10*
G04 #@! TO.P,D223,1*
G04 #@! TO.N,Net-(D217-Pad1)*
X212725000Y-67945000D03*
D11*
G04 #@! TO.P,D223,2*
G04 #@! TO.N,Net-(D103-Pad2)*
X212725000Y-65405000D03*
G04 #@! TD*
D10*
G04 #@! TO.P,D214,1*
G04 #@! TO.N,Net-(D209-Pad1)*
X205740000Y-60960000D03*
D11*
G04 #@! TO.P,D214,2*
G04 #@! TO.N,Net-(D102-Pad2)*
X205740000Y-58420000D03*
G04 #@! TD*
D12*
G04 #@! TO.P,J8,8*
G04 #@! TO.N,Net-(D57-Pad1)*
X46725000Y-16510000D03*
G04 #@! TO.P,J8,7*
G04 #@! TO.N,Net-(D49-Pad1)*
X43225000Y-16510000D03*
G04 #@! TO.P,J8,6*
G04 #@! TO.N,Net-(D41-Pad1)*
X39725000Y-16510000D03*
G04 #@! TO.P,J8,5*
G04 #@! TO.N,Net-(D33-Pad1)*
X36225000Y-16510000D03*
G04 #@! TO.P,J8,4*
G04 #@! TO.N,Net-(D25-Pad1)*
X32725000Y-16510000D03*
G04 #@! TO.P,J8,3*
G04 #@! TO.N,Net-(D17-Pad1)*
X29225000Y-16510000D03*
G04 #@! TO.P,J8,2*
G04 #@! TO.N,Net-(D10-Pad1)*
X25725000Y-16510000D03*
D13*
G04 #@! TO.P,J8,1*
G04 #@! TO.N,Net-(D1-Pad1)*
X22225000Y-16510000D03*
G04 #@! TD*
D12*
G04 #@! TO.P,J11,8*
G04 #@! TO.N,Net-(D249-Pad1)*
X136260000Y-16510000D03*
G04 #@! TO.P,J11,7*
G04 #@! TO.N,Net-(D241-Pad1)*
X132760000Y-16510000D03*
G04 #@! TO.P,J11,6*
G04 #@! TO.N,Net-(D233-Pad1)*
X129260000Y-16510000D03*
G04 #@! TO.P,J11,5*
G04 #@! TO.N,Net-(D225-Pad1)*
X125760000Y-16510000D03*
G04 #@! TO.P,J11,4*
G04 #@! TO.N,Net-(D217-Pad1)*
X122260000Y-16510000D03*
G04 #@! TO.P,J11,3*
G04 #@! TO.N,Net-(D209-Pad1)*
X118760000Y-16510000D03*
G04 #@! TO.P,J11,2*
G04 #@! TO.N,Net-(D201-Pad1)*
X115260000Y-16510000D03*
D13*
G04 #@! TO.P,J11,1*
G04 #@! TO.N,Net-(D193-Pad1)*
X111760000Y-16510000D03*
G04 #@! TD*
D12*
G04 #@! TO.P,J10,8*
G04 #@! TO.N,Net-(D185-Pad1)*
X106415000Y-16510000D03*
G04 #@! TO.P,J10,7*
G04 #@! TO.N,Net-(D177-Pad1)*
X102915000Y-16510000D03*
G04 #@! TO.P,J10,6*
G04 #@! TO.N,Net-(D169-Pad1)*
X99415000Y-16510000D03*
G04 #@! TO.P,J10,5*
G04 #@! TO.N,Net-(D161-Pad1)*
X95915000Y-16510000D03*
G04 #@! TO.P,J10,4*
G04 #@! TO.N,Net-(D153-Pad1)*
X92415000Y-16510000D03*
G04 #@! TO.P,J10,3*
G04 #@! TO.N,Net-(D145-Pad1)*
X88915000Y-16510000D03*
G04 #@! TO.P,J10,2*
G04 #@! TO.N,Net-(D137-Pad1)*
X85415000Y-16510000D03*
D13*
G04 #@! TO.P,J10,1*
G04 #@! TO.N,Net-(D129-Pad1)*
X81915000Y-16510000D03*
G04 #@! TD*
D12*
G04 #@! TO.P,J9,8*
G04 #@! TO.N,Net-(D121-Pad1)*
X76570000Y-16510000D03*
G04 #@! TO.P,J9,7*
G04 #@! TO.N,Net-(D113-Pad1)*
X73070000Y-16510000D03*
G04 #@! TO.P,J9,6*
G04 #@! TO.N,Net-(D105-Pad1)*
X69570000Y-16510000D03*
G04 #@! TO.P,J9,5*
G04 #@! TO.N,Net-(D100-Pad1)*
X66070000Y-16510000D03*
G04 #@! TO.P,J9,4*
G04 #@! TO.N,Net-(D89-Pad1)*
X62570000Y-16510000D03*
G04 #@! TO.P,J9,3*
G04 #@! TO.N,Net-(D81-Pad1)*
X59070000Y-16510000D03*
G04 #@! TO.P,J9,2*
G04 #@! TO.N,Net-(D73-Pad1)*
X55570000Y-16510000D03*
D13*
G04 #@! TO.P,J9,1*
G04 #@! TO.N,Net-(D65-Pad1)*
X52070000Y-16510000D03*
G04 #@! TD*
D12*
G04 #@! TO.P,J7,8*
G04 #@! TO.N,Net-(D104-Pad2)*
X16510000Y-47995000D03*
G04 #@! TO.P,J7,7*
G04 #@! TO.N,Net-(D103-Pad2)*
X16510000Y-44495000D03*
G04 #@! TO.P,J7,6*
G04 #@! TO.N,Net-(D102-Pad2)*
X16510000Y-40995000D03*
G04 #@! TO.P,J7,5*
G04 #@! TO.N,Net-(D101-Pad2)*
X16510000Y-37495000D03*
G04 #@! TO.P,J7,4*
G04 #@! TO.N,Net-(D100-Pad2)*
X16510000Y-33995000D03*
G04 #@! TO.P,J7,3*
G04 #@! TO.N,Net-(D107-Pad2)*
X16510000Y-30495000D03*
G04 #@! TO.P,J7,2*
G04 #@! TO.N,Net-(D10-Pad2)*
X16510000Y-26995000D03*
D13*
G04 #@! TO.P,J7,1*
G04 #@! TO.N,Net-(D1-Pad2)*
X16510000Y-23495000D03*
G04 #@! TD*
D10*
G04 #@! TO.P,D249,1*
G04 #@! TO.N,Net-(D249-Pad1)*
X240665000Y-26035000D03*
D11*
G04 #@! TO.P,D249,2*
G04 #@! TO.N,Net-(D1-Pad2)*
X240665000Y-23495000D03*
G04 #@! TD*
D10*
G04 #@! TO.P,D241,1*
G04 #@! TO.N,Net-(D241-Pad1)*
X233680000Y-26035000D03*
D11*
G04 #@! TO.P,D241,2*
G04 #@! TO.N,Net-(D1-Pad2)*
X233680000Y-23495000D03*
G04 #@! TD*
D10*
G04 #@! TO.P,D233,1*
G04 #@! TO.N,Net-(D233-Pad1)*
X226695000Y-26035000D03*
D11*
G04 #@! TO.P,D233,2*
G04 #@! TO.N,Net-(D1-Pad2)*
X226695000Y-23495000D03*
G04 #@! TD*
D10*
G04 #@! TO.P,D225,1*
G04 #@! TO.N,Net-(D225-Pad1)*
X219710000Y-26035000D03*
D11*
G04 #@! TO.P,D225,2*
G04 #@! TO.N,Net-(D1-Pad2)*
X219710000Y-23495000D03*
G04 #@! TD*
D10*
G04 #@! TO.P,D217,1*
G04 #@! TO.N,Net-(D217-Pad1)*
X212725000Y-26035000D03*
D11*
G04 #@! TO.P,D217,2*
G04 #@! TO.N,Net-(D1-Pad2)*
X212725000Y-23495000D03*
G04 #@! TD*
D10*
G04 #@! TO.P,D209,1*
G04 #@! TO.N,Net-(D209-Pad1)*
X205740000Y-26035000D03*
D11*
G04 #@! TO.P,D209,2*
G04 #@! TO.N,Net-(D1-Pad2)*
X205740000Y-23495000D03*
G04 #@! TD*
D10*
G04 #@! TO.P,D201,1*
G04 #@! TO.N,Net-(D201-Pad1)*
X198755000Y-26035000D03*
D11*
G04 #@! TO.P,D201,2*
G04 #@! TO.N,Net-(D1-Pad2)*
X198755000Y-23495000D03*
G04 #@! TD*
D10*
G04 #@! TO.P,D193,1*
G04 #@! TO.N,Net-(D193-Pad1)*
X191770000Y-26035000D03*
D11*
G04 #@! TO.P,D193,2*
G04 #@! TO.N,Net-(D1-Pad2)*
X191770000Y-23495000D03*
G04 #@! TD*
D10*
G04 #@! TO.P,D185,1*
G04 #@! TO.N,Net-(D185-Pad1)*
X184785000Y-26035000D03*
D11*
G04 #@! TO.P,D185,2*
G04 #@! TO.N,Net-(D1-Pad2)*
X184785000Y-23495000D03*
G04 #@! TD*
D10*
G04 #@! TO.P,D177,1*
G04 #@! TO.N,Net-(D177-Pad1)*
X177800000Y-26035000D03*
D11*
G04 #@! TO.P,D177,2*
G04 #@! TO.N,Net-(D1-Pad2)*
X177800000Y-23495000D03*
G04 #@! TD*
D10*
G04 #@! TO.P,D169,1*
G04 #@! TO.N,Net-(D169-Pad1)*
X170815000Y-26035000D03*
D11*
G04 #@! TO.P,D169,2*
G04 #@! TO.N,Net-(D1-Pad2)*
X170815000Y-23495000D03*
G04 #@! TD*
D10*
G04 #@! TO.P,D161,1*
G04 #@! TO.N,Net-(D161-Pad1)*
X163830000Y-26035000D03*
D11*
G04 #@! TO.P,D161,2*
G04 #@! TO.N,Net-(D1-Pad2)*
X163830000Y-23495000D03*
G04 #@! TD*
D10*
G04 #@! TO.P,D153,1*
G04 #@! TO.N,Net-(D153-Pad1)*
X156845000Y-26035000D03*
D11*
G04 #@! TO.P,D153,2*
G04 #@! TO.N,Net-(D1-Pad2)*
X156845000Y-23495000D03*
G04 #@! TD*
D10*
G04 #@! TO.P,D145,1*
G04 #@! TO.N,Net-(D145-Pad1)*
X149860000Y-26035000D03*
D11*
G04 #@! TO.P,D145,2*
G04 #@! TO.N,Net-(D1-Pad2)*
X149860000Y-23495000D03*
G04 #@! TD*
D10*
G04 #@! TO.P,D137,1*
G04 #@! TO.N,Net-(D137-Pad1)*
X142875000Y-26035000D03*
D11*
G04 #@! TO.P,D137,2*
G04 #@! TO.N,Net-(D1-Pad2)*
X142875000Y-23495000D03*
G04 #@! TD*
D10*
G04 #@! TO.P,D129,1*
G04 #@! TO.N,Net-(D129-Pad1)*
X135890000Y-26035000D03*
D11*
G04 #@! TO.P,D129,2*
G04 #@! TO.N,Net-(D1-Pad2)*
X135890000Y-23495000D03*
G04 #@! TD*
D10*
G04 #@! TO.P,D121,1*
G04 #@! TO.N,Net-(D121-Pad1)*
X128905000Y-26035000D03*
D11*
G04 #@! TO.P,D121,2*
G04 #@! TO.N,Net-(D1-Pad2)*
X128905000Y-23495000D03*
G04 #@! TD*
D10*
G04 #@! TO.P,D113,1*
G04 #@! TO.N,Net-(D113-Pad1)*
X121920000Y-26035000D03*
D11*
G04 #@! TO.P,D113,2*
G04 #@! TO.N,Net-(D1-Pad2)*
X121920000Y-23495000D03*
G04 #@! TD*
D10*
G04 #@! TO.P,D105,1*
G04 #@! TO.N,Net-(D105-Pad1)*
X114935000Y-26035000D03*
D11*
G04 #@! TO.P,D105,2*
G04 #@! TO.N,Net-(D1-Pad2)*
X114935000Y-23495000D03*
G04 #@! TD*
D10*
G04 #@! TO.P,D97,1*
G04 #@! TO.N,Net-(D100-Pad1)*
X107950000Y-26035000D03*
D11*
G04 #@! TO.P,D97,2*
G04 #@! TO.N,Net-(D1-Pad2)*
X107950000Y-23495000D03*
G04 #@! TD*
D10*
G04 #@! TO.P,D89,1*
G04 #@! TO.N,Net-(D89-Pad1)*
X100965000Y-26035000D03*
D11*
G04 #@! TO.P,D89,2*
G04 #@! TO.N,Net-(D1-Pad2)*
X100965000Y-23495000D03*
G04 #@! TD*
D10*
G04 #@! TO.P,D81,1*
G04 #@! TO.N,Net-(D81-Pad1)*
X93980000Y-26035000D03*
D11*
G04 #@! TO.P,D81,2*
G04 #@! TO.N,Net-(D1-Pad2)*
X93980000Y-23495000D03*
G04 #@! TD*
D10*
G04 #@! TO.P,D73,1*
G04 #@! TO.N,Net-(D73-Pad1)*
X86995000Y-26035000D03*
D11*
G04 #@! TO.P,D73,2*
G04 #@! TO.N,Net-(D1-Pad2)*
X86995000Y-23495000D03*
G04 #@! TD*
D10*
G04 #@! TO.P,D65,1*
G04 #@! TO.N,Net-(D65-Pad1)*
X80010000Y-26035000D03*
D11*
G04 #@! TO.P,D65,2*
G04 #@! TO.N,Net-(D1-Pad2)*
X80010000Y-23495000D03*
G04 #@! TD*
D10*
G04 #@! TO.P,D57,1*
G04 #@! TO.N,Net-(D57-Pad1)*
X73025000Y-26035000D03*
D11*
G04 #@! TO.P,D57,2*
G04 #@! TO.N,Net-(D1-Pad2)*
X73025000Y-23495000D03*
G04 #@! TD*
D10*
G04 #@! TO.P,D49,1*
G04 #@! TO.N,Net-(D49-Pad1)*
X66040000Y-26035000D03*
D11*
G04 #@! TO.P,D49,2*
G04 #@! TO.N,Net-(D1-Pad2)*
X66040000Y-23495000D03*
G04 #@! TD*
D10*
G04 #@! TO.P,D48,1*
G04 #@! TO.N,Net-(D41-Pad1)*
X59055000Y-74930000D03*
D11*
G04 #@! TO.P,D48,2*
G04 #@! TO.N,Net-(D104-Pad2)*
X59055000Y-72390000D03*
G04 #@! TD*
G04 #@! TO.P,D47,2*
G04 #@! TO.N,Net-(D103-Pad2)*
X59055000Y-65405000D03*
D10*
G04 #@! TO.P,D47,1*
G04 #@! TO.N,Net-(D41-Pad1)*
X59055000Y-67945000D03*
G04 #@! TD*
G04 #@! TO.P,D46,1*
G04 #@! TO.N,Net-(D41-Pad1)*
X59055000Y-60960000D03*
D11*
G04 #@! TO.P,D46,2*
G04 #@! TO.N,Net-(D102-Pad2)*
X59055000Y-58420000D03*
G04 #@! TD*
D10*
G04 #@! TO.P,D45,1*
G04 #@! TO.N,Net-(D41-Pad1)*
X59055000Y-53975000D03*
D11*
G04 #@! TO.P,D45,2*
G04 #@! TO.N,Net-(D101-Pad2)*
X59055000Y-51435000D03*
G04 #@! TD*
D10*
G04 #@! TO.P,D44,1*
G04 #@! TO.N,Net-(D41-Pad1)*
X59055000Y-46990000D03*
D11*
G04 #@! TO.P,D44,2*
G04 #@! TO.N,Net-(D100-Pad2)*
X59055000Y-44450000D03*
G04 #@! TD*
D10*
G04 #@! TO.P,D43,1*
G04 #@! TO.N,Net-(D41-Pad1)*
X59055000Y-40005000D03*
D11*
G04 #@! TO.P,D43,2*
G04 #@! TO.N,Net-(D107-Pad2)*
X59055000Y-37465000D03*
G04 #@! TD*
D10*
G04 #@! TO.P,D42,1*
G04 #@! TO.N,Net-(D41-Pad1)*
X59055000Y-33020000D03*
D11*
G04 #@! TO.P,D42,2*
G04 #@! TO.N,Net-(D10-Pad2)*
X59055000Y-30480000D03*
G04 #@! TD*
D10*
G04 #@! TO.P,D41,1*
G04 #@! TO.N,Net-(D41-Pad1)*
X59055000Y-26035000D03*
D11*
G04 #@! TO.P,D41,2*
G04 #@! TO.N,Net-(D1-Pad2)*
X59055000Y-23495000D03*
G04 #@! TD*
D10*
G04 #@! TO.P,D40,1*
G04 #@! TO.N,Net-(D33-Pad1)*
X52070000Y-74930000D03*
D11*
G04 #@! TO.P,D40,2*
G04 #@! TO.N,Net-(D104-Pad2)*
X52070000Y-72390000D03*
G04 #@! TD*
D10*
G04 #@! TO.P,D39,1*
G04 #@! TO.N,Net-(D33-Pad1)*
X52070000Y-67945000D03*
D11*
G04 #@! TO.P,D39,2*
G04 #@! TO.N,Net-(D103-Pad2)*
X52070000Y-65405000D03*
G04 #@! TD*
D10*
G04 #@! TO.P,D38,1*
G04 #@! TO.N,Net-(D33-Pad1)*
X52070000Y-60960000D03*
D11*
G04 #@! TO.P,D38,2*
G04 #@! TO.N,Net-(D102-Pad2)*
X52070000Y-58420000D03*
G04 #@! TD*
D10*
G04 #@! TO.P,D37,1*
G04 #@! TO.N,Net-(D33-Pad1)*
X52070000Y-53975000D03*
D11*
G04 #@! TO.P,D37,2*
G04 #@! TO.N,Net-(D101-Pad2)*
X52070000Y-51435000D03*
G04 #@! TD*
D10*
G04 #@! TO.P,D36,1*
G04 #@! TO.N,Net-(D33-Pad1)*
X52070000Y-46990000D03*
D11*
G04 #@! TO.P,D36,2*
G04 #@! TO.N,Net-(D100-Pad2)*
X52070000Y-44450000D03*
G04 #@! TD*
D10*
G04 #@! TO.P,D35,1*
G04 #@! TO.N,Net-(D33-Pad1)*
X52070000Y-40005000D03*
D11*
G04 #@! TO.P,D35,2*
G04 #@! TO.N,Net-(D107-Pad2)*
X52070000Y-37465000D03*
G04 #@! TD*
D10*
G04 #@! TO.P,D34,1*
G04 #@! TO.N,Net-(D33-Pad1)*
X52070000Y-33020000D03*
D11*
G04 #@! TO.P,D34,2*
G04 #@! TO.N,Net-(D10-Pad2)*
X52070000Y-30480000D03*
G04 #@! TD*
D10*
G04 #@! TO.P,D33,1*
G04 #@! TO.N,Net-(D33-Pad1)*
X52070000Y-26035000D03*
D11*
G04 #@! TO.P,D33,2*
G04 #@! TO.N,Net-(D1-Pad2)*
X52070000Y-23495000D03*
G04 #@! TD*
D10*
G04 #@! TO.P,D32,1*
G04 #@! TO.N,Net-(D25-Pad1)*
X45085000Y-74930000D03*
D11*
G04 #@! TO.P,D32,2*
G04 #@! TO.N,Net-(D104-Pad2)*
X45085000Y-72390000D03*
G04 #@! TD*
D10*
G04 #@! TO.P,D31,1*
G04 #@! TO.N,Net-(D25-Pad1)*
X45085000Y-67945000D03*
D11*
G04 #@! TO.P,D31,2*
G04 #@! TO.N,Net-(D103-Pad2)*
X45085000Y-65405000D03*
G04 #@! TD*
D10*
G04 #@! TO.P,D30,1*
G04 #@! TO.N,Net-(D25-Pad1)*
X45085000Y-60960000D03*
D11*
G04 #@! TO.P,D30,2*
G04 #@! TO.N,Net-(D102-Pad2)*
X45085000Y-58420000D03*
G04 #@! TD*
D10*
G04 #@! TO.P,D29,1*
G04 #@! TO.N,Net-(D25-Pad1)*
X45085000Y-53975000D03*
D11*
G04 #@! TO.P,D29,2*
G04 #@! TO.N,Net-(D101-Pad2)*
X45085000Y-51435000D03*
G04 #@! TD*
D10*
G04 #@! TO.P,D28,1*
G04 #@! TO.N,Net-(D25-Pad1)*
X45085000Y-46990000D03*
D11*
G04 #@! TO.P,D28,2*
G04 #@! TO.N,Net-(D100-Pad2)*
X45085000Y-44450000D03*
G04 #@! TD*
D10*
G04 #@! TO.P,D27,1*
G04 #@! TO.N,Net-(D25-Pad1)*
X45085000Y-40005000D03*
D11*
G04 #@! TO.P,D27,2*
G04 #@! TO.N,Net-(D107-Pad2)*
X45085000Y-37465000D03*
G04 #@! TD*
D10*
G04 #@! TO.P,D26,1*
G04 #@! TO.N,Net-(D25-Pad1)*
X45085000Y-33020000D03*
D11*
G04 #@! TO.P,D26,2*
G04 #@! TO.N,Net-(D10-Pad2)*
X45085000Y-30480000D03*
G04 #@! TD*
D10*
G04 #@! TO.P,D25,1*
G04 #@! TO.N,Net-(D25-Pad1)*
X45085000Y-26035000D03*
D11*
G04 #@! TO.P,D25,2*
G04 #@! TO.N,Net-(D1-Pad2)*
X45085000Y-23495000D03*
G04 #@! TD*
D10*
G04 #@! TO.P,D24,1*
G04 #@! TO.N,Net-(D17-Pad1)*
X38100000Y-74930000D03*
D11*
G04 #@! TO.P,D24,2*
G04 #@! TO.N,Net-(D104-Pad2)*
X38100000Y-72390000D03*
G04 #@! TD*
D10*
G04 #@! TO.P,D23,1*
G04 #@! TO.N,Net-(D17-Pad1)*
X38100000Y-67945000D03*
D11*
G04 #@! TO.P,D23,2*
G04 #@! TO.N,Net-(D103-Pad2)*
X38100000Y-65405000D03*
G04 #@! TD*
D10*
G04 #@! TO.P,D22,1*
G04 #@! TO.N,Net-(D17-Pad1)*
X38100000Y-60960000D03*
D11*
G04 #@! TO.P,D22,2*
G04 #@! TO.N,Net-(D102-Pad2)*
X38100000Y-58420000D03*
G04 #@! TD*
D10*
G04 #@! TO.P,D21,1*
G04 #@! TO.N,Net-(D17-Pad1)*
X38100000Y-53975000D03*
D11*
G04 #@! TO.P,D21,2*
G04 #@! TO.N,Net-(D101-Pad2)*
X38100000Y-51435000D03*
G04 #@! TD*
D10*
G04 #@! TO.P,D20,1*
G04 #@! TO.N,Net-(D17-Pad1)*
X38100000Y-46990000D03*
D11*
G04 #@! TO.P,D20,2*
G04 #@! TO.N,Net-(D100-Pad2)*
X38100000Y-44450000D03*
G04 #@! TD*
D10*
G04 #@! TO.P,D19,1*
G04 #@! TO.N,Net-(D17-Pad1)*
X38100000Y-40005000D03*
D11*
G04 #@! TO.P,D19,2*
G04 #@! TO.N,Net-(D107-Pad2)*
X38100000Y-37465000D03*
G04 #@! TD*
D10*
G04 #@! TO.P,D18,1*
G04 #@! TO.N,Net-(D17-Pad1)*
X38100000Y-33020000D03*
D11*
G04 #@! TO.P,D18,2*
G04 #@! TO.N,Net-(D10-Pad2)*
X38100000Y-30480000D03*
G04 #@! TD*
D10*
G04 #@! TO.P,D17,1*
G04 #@! TO.N,Net-(D17-Pad1)*
X38100000Y-26035000D03*
D11*
G04 #@! TO.P,D17,2*
G04 #@! TO.N,Net-(D1-Pad2)*
X38100000Y-23495000D03*
G04 #@! TD*
D10*
G04 #@! TO.P,D16,1*
G04 #@! TO.N,Net-(D10-Pad1)*
X31115000Y-74930000D03*
D11*
G04 #@! TO.P,D16,2*
G04 #@! TO.N,Net-(D104-Pad2)*
X31115000Y-72390000D03*
G04 #@! TD*
D10*
G04 #@! TO.P,D15,1*
G04 #@! TO.N,Net-(D10-Pad1)*
X31115000Y-67945000D03*
D11*
G04 #@! TO.P,D15,2*
G04 #@! TO.N,Net-(D103-Pad2)*
X31115000Y-65405000D03*
G04 #@! TD*
D10*
G04 #@! TO.P,D14,1*
G04 #@! TO.N,Net-(D10-Pad1)*
X31115000Y-60960000D03*
D11*
G04 #@! TO.P,D14,2*
G04 #@! TO.N,Net-(D102-Pad2)*
X31115000Y-58420000D03*
G04 #@! TD*
D10*
G04 #@! TO.P,D13,1*
G04 #@! TO.N,Net-(D10-Pad1)*
X31115000Y-53975000D03*
D11*
G04 #@! TO.P,D13,2*
G04 #@! TO.N,Net-(D101-Pad2)*
X31115000Y-51435000D03*
G04 #@! TD*
D10*
G04 #@! TO.P,D12,1*
G04 #@! TO.N,Net-(D10-Pad1)*
X31115000Y-46990000D03*
D11*
G04 #@! TO.P,D12,2*
G04 #@! TO.N,Net-(D100-Pad2)*
X31115000Y-44450000D03*
G04 #@! TD*
D10*
G04 #@! TO.P,D11,1*
G04 #@! TO.N,Net-(D10-Pad1)*
X31115000Y-40005000D03*
D11*
G04 #@! TO.P,D11,2*
G04 #@! TO.N,Net-(D107-Pad2)*
X31115000Y-37465000D03*
G04 #@! TD*
D10*
G04 #@! TO.P,D10,1*
G04 #@! TO.N,Net-(D10-Pad1)*
X31115000Y-33020000D03*
D11*
G04 #@! TO.P,D10,2*
G04 #@! TO.N,Net-(D10-Pad2)*
X31115000Y-30480000D03*
G04 #@! TD*
D10*
G04 #@! TO.P,D9,1*
G04 #@! TO.N,Net-(D10-Pad1)*
X31115000Y-26035000D03*
D11*
G04 #@! TO.P,D9,2*
G04 #@! TO.N,Net-(D1-Pad2)*
X31115000Y-23495000D03*
G04 #@! TD*
D10*
G04 #@! TO.P,D8,1*
G04 #@! TO.N,Net-(D1-Pad1)*
X24130000Y-74930000D03*
D11*
G04 #@! TO.P,D8,2*
G04 #@! TO.N,Net-(D104-Pad2)*
X24130000Y-72390000D03*
G04 #@! TD*
D10*
G04 #@! TO.P,D7,1*
G04 #@! TO.N,Net-(D1-Pad1)*
X24130000Y-67945000D03*
D11*
G04 #@! TO.P,D7,2*
G04 #@! TO.N,Net-(D103-Pad2)*
X24130000Y-65405000D03*
G04 #@! TD*
D10*
G04 #@! TO.P,D6,1*
G04 #@! TO.N,Net-(D1-Pad1)*
X24130000Y-60960000D03*
D11*
G04 #@! TO.P,D6,2*
G04 #@! TO.N,Net-(D102-Pad2)*
X24130000Y-58420000D03*
G04 #@! TD*
D10*
G04 #@! TO.P,D5,1*
G04 #@! TO.N,Net-(D1-Pad1)*
X24130000Y-53975000D03*
D11*
G04 #@! TO.P,D5,2*
G04 #@! TO.N,Net-(D101-Pad2)*
X24130000Y-51435000D03*
G04 #@! TD*
D10*
G04 #@! TO.P,D4,1*
G04 #@! TO.N,Net-(D1-Pad1)*
X24130000Y-46990000D03*
D11*
G04 #@! TO.P,D4,2*
G04 #@! TO.N,Net-(D100-Pad2)*
X24130000Y-44450000D03*
G04 #@! TD*
D10*
G04 #@! TO.P,D3,1*
G04 #@! TO.N,Net-(D1-Pad1)*
X24130000Y-40005000D03*
D11*
G04 #@! TO.P,D3,2*
G04 #@! TO.N,Net-(D107-Pad2)*
X24130000Y-37465000D03*
G04 #@! TD*
D10*
G04 #@! TO.P,D2,1*
G04 #@! TO.N,Net-(D1-Pad1)*
X24130000Y-33020000D03*
D11*
G04 #@! TO.P,D2,2*
G04 #@! TO.N,Net-(D10-Pad2)*
X24130000Y-30480000D03*
G04 #@! TD*
D10*
G04 #@! TO.P,D1,1*
G04 #@! TO.N,Net-(D1-Pad1)*
X24130000Y-26035000D03*
D11*
G04 #@! TO.P,D1,2*
G04 #@! TO.N,Net-(D1-Pad2)*
X24130000Y-23495000D03*
G04 #@! TD*
D14*
G04 #@! TO.N,Net-(D33-Pad1)*
X50165000Y-22225000D03*
G04 #@! TO.N,Net-(D49-Pad1)*
X64135000Y-22225000D03*
G04 #@! TO.N,Net-(D65-Pad1)*
X78105000Y-22225000D03*
G04 #@! TO.N,Net-(D81-Pad1)*
X92075000Y-22225000D03*
G04 #@! TO.N,Net-(D100-Pad1)*
X106045000Y-22225000D03*
G04 #@! TO.N,Net-(D113-Pad1)*
X120015000Y-22225000D03*
G04 #@! TO.N,Net-(D129-Pad1)*
X133985000Y-22225000D03*
G04 #@! TO.N,Net-(D145-Pad1)*
X147955000Y-22225000D03*
G04 #@! TO.N,Net-(D161-Pad1)*
X161925000Y-22225000D03*
G04 #@! TO.N,Net-(D177-Pad1)*
X175895000Y-22225000D03*
G04 #@! TO.N,Net-(D193-Pad1)*
X189865000Y-22225000D03*
G04 #@! TO.N,Net-(D209-Pad1)*
X203835000Y-22225000D03*
G04 #@! TO.N,Net-(D225-Pad1)*
X217805000Y-22225000D03*
G04 #@! TO.N,Net-(D241-Pad1)*
X231775000Y-22225000D03*
G04 #@! TD*
D15*
G04 #@! TO.N,Net-(D25-Pad1)*
X39370000Y-21590000D02*
X43180000Y-25400000D01*
G04 #@! TO.N,Net-(D1-Pad1)*
X22225000Y-26035000D02*
X24130000Y-26035000D01*
X22225000Y-26035000D02*
X22225000Y-33020000D01*
X22225000Y-33020000D02*
X24130000Y-33020000D01*
X22225000Y-33020000D02*
X22225000Y-40005000D01*
X22225000Y-40005000D02*
X24130000Y-40005000D01*
X22225000Y-40005000D02*
X22225000Y-46990000D01*
X22225000Y-46990000D02*
X24130000Y-46990000D01*
X22225000Y-46990000D02*
X22225000Y-53975000D01*
X22225000Y-53975000D02*
X24130000Y-53975000D01*
X22225000Y-53975000D02*
X22225000Y-60960000D01*
X22225000Y-60960000D02*
X24130000Y-60960000D01*
X22225000Y-67945000D02*
X24130000Y-67945000D01*
X22225000Y-60960000D02*
X22225000Y-67945000D01*
X22225000Y-73025000D02*
X24130000Y-74930000D01*
X22225000Y-67945000D02*
X22225000Y-73025000D01*
X22225000Y-26035000D02*
X22225000Y-16510000D01*
G04 #@! TO.N,Net-(D10-Pad1)*
X29210000Y-60960000D02*
X29210000Y-67945000D01*
X29210000Y-67945000D02*
X31115000Y-67945000D01*
X29210000Y-33020000D02*
X31115000Y-33020000D01*
X29210000Y-26035000D02*
X29210000Y-33020000D01*
X29210000Y-67945000D02*
X29210000Y-73025000D01*
X29210000Y-73025000D02*
X31115000Y-74930000D01*
X29210000Y-33020000D02*
X29210000Y-40005000D01*
X29210000Y-40005000D02*
X31115000Y-40005000D01*
X29210000Y-40005000D02*
X29210000Y-46990000D01*
X29210000Y-46990000D02*
X31115000Y-46990000D01*
X29210000Y-53975000D02*
X31115000Y-53975000D01*
X29210000Y-46990000D02*
X29210000Y-53975000D01*
X29210000Y-60960000D02*
X31115000Y-60960000D01*
X29210000Y-53975000D02*
X29210000Y-60960000D01*
X29210000Y-25400000D02*
X25725000Y-21915000D01*
X29210000Y-26035000D02*
X29210000Y-25400000D01*
X31115000Y-26035000D02*
X29210000Y-26035000D01*
X25725000Y-16510000D02*
X25725000Y-21915000D01*
G04 #@! TO.N,Net-(D17-Pad1)*
X36195000Y-60960000D02*
X36195000Y-67945000D01*
X36195000Y-67945000D02*
X38100000Y-67945000D01*
X36195000Y-33020000D02*
X38100000Y-33020000D01*
X36195000Y-26035000D02*
X36195000Y-33020000D01*
X36195000Y-67945000D02*
X36195000Y-73025000D01*
X36195000Y-73025000D02*
X38100000Y-74930000D01*
X36195000Y-33020000D02*
X36195000Y-40005000D01*
X36195000Y-40005000D02*
X38100000Y-40005000D01*
X36195000Y-40005000D02*
X36195000Y-46990000D01*
X36195000Y-46990000D02*
X38100000Y-46990000D01*
X36195000Y-53975000D02*
X38100000Y-53975000D01*
X36195000Y-46990000D02*
X36195000Y-53975000D01*
X36195000Y-60960000D02*
X38100000Y-60960000D01*
X36195000Y-53975000D02*
X36195000Y-60960000D01*
X36195000Y-26035000D02*
X38100000Y-26035000D01*
X29225000Y-16510000D02*
X34940000Y-22225000D01*
X34940000Y-22240000D02*
X36195000Y-23495000D01*
X34940000Y-22225000D02*
X34940000Y-22240000D01*
X36195000Y-26035000D02*
X36195000Y-23495000D01*
G04 #@! TO.N,Net-(D25-Pad1)*
X43180000Y-60960000D02*
X43180000Y-67945000D01*
X43180000Y-67945000D02*
X45085000Y-67945000D01*
X43180000Y-33020000D02*
X45085000Y-33020000D01*
X43180000Y-26035000D02*
X43180000Y-33020000D01*
X43180000Y-67945000D02*
X43180000Y-73025000D01*
X43180000Y-73025000D02*
X45085000Y-74930000D01*
X43180000Y-33020000D02*
X43180000Y-40005000D01*
X43180000Y-40005000D02*
X45085000Y-40005000D01*
X43180000Y-40005000D02*
X43180000Y-46990000D01*
X43180000Y-46990000D02*
X45085000Y-46990000D01*
X43180000Y-53975000D02*
X45085000Y-53975000D01*
X43180000Y-46990000D02*
X43180000Y-53975000D01*
X43180000Y-60960000D02*
X45085000Y-60960000D01*
X43180000Y-53975000D02*
X43180000Y-60960000D01*
X43180000Y-26035000D02*
X45085000Y-26035000D01*
X43180000Y-25400000D02*
X43180000Y-26035000D01*
X37805000Y-21590000D02*
X39370000Y-21590000D01*
X32725000Y-16510000D02*
X37805000Y-21590000D01*
G04 #@! TO.N,Net-(D33-Pad1)*
X50165000Y-60960000D02*
X50165000Y-67945000D01*
X50165000Y-67945000D02*
X52070000Y-67945000D01*
X50165000Y-33020000D02*
X52070000Y-33020000D01*
X50165000Y-26035000D02*
X50165000Y-33020000D01*
X50165000Y-67945000D02*
X50165000Y-73025000D01*
X50165000Y-73025000D02*
X52070000Y-74930000D01*
X50165000Y-33020000D02*
X50165000Y-40005000D01*
X50165000Y-40005000D02*
X52070000Y-40005000D01*
X50165000Y-40005000D02*
X50165000Y-46990000D01*
X50165000Y-46990000D02*
X52070000Y-46990000D01*
X50165000Y-53975000D02*
X52070000Y-53975000D01*
X50165000Y-46990000D02*
X50165000Y-53975000D01*
X50165000Y-60960000D02*
X52070000Y-60960000D01*
X50165000Y-53975000D02*
X50165000Y-60960000D01*
X50165000Y-26035000D02*
X52070000Y-26035000D01*
X50165000Y-26035000D02*
X50165000Y-22225000D01*
G04 #@! TO.N,Net-(D41-Pad1)*
X57150000Y-60960000D02*
X57150000Y-67945000D01*
X57150000Y-67945000D02*
X59055000Y-67945000D01*
X57150000Y-33020000D02*
X59055000Y-33020000D01*
X57150000Y-26035000D02*
X57150000Y-33020000D01*
X57150000Y-67945000D02*
X57150000Y-73025000D01*
X57150000Y-73025000D02*
X59055000Y-74930000D01*
X57150000Y-33020000D02*
X57150000Y-40005000D01*
X57150000Y-40005000D02*
X59055000Y-40005000D01*
X57150000Y-40005000D02*
X57150000Y-46990000D01*
X57150000Y-46990000D02*
X59055000Y-46990000D01*
X57150000Y-53975000D02*
X59055000Y-53975000D01*
X57150000Y-46990000D02*
X57150000Y-53975000D01*
X57150000Y-60960000D02*
X59055000Y-60960000D01*
X57150000Y-53975000D02*
X57150000Y-60960000D01*
X57150000Y-26035000D02*
X59055000Y-26035000D01*
X53340000Y-21590000D02*
X57150000Y-25400000D01*
X57150000Y-25400000D02*
X57150000Y-26035000D01*
X44805000Y-21590000D02*
X39725000Y-16510000D01*
X53340000Y-21590000D02*
X44805000Y-21590000D01*
G04 #@! TO.N,Net-(D49-Pad1)*
X64135000Y-60960000D02*
X64135000Y-67945000D01*
X64135000Y-67945000D02*
X66040000Y-67945000D01*
X64135000Y-33020000D02*
X66040000Y-33020000D01*
X64135000Y-26035000D02*
X64135000Y-33020000D01*
X64135000Y-67945000D02*
X64135000Y-73025000D01*
X64135000Y-73025000D02*
X66040000Y-74930000D01*
X64135000Y-33020000D02*
X64135000Y-40005000D01*
X64135000Y-40005000D02*
X66040000Y-40005000D01*
X64135000Y-40005000D02*
X64135000Y-46990000D01*
X64135000Y-46990000D02*
X66040000Y-46990000D01*
X64135000Y-53975000D02*
X66040000Y-53975000D01*
X64135000Y-46990000D02*
X64135000Y-53975000D01*
X64135000Y-60960000D02*
X66040000Y-60960000D01*
X64135000Y-53975000D02*
X64135000Y-60960000D01*
X64135000Y-26035000D02*
X66040000Y-26035000D01*
X64135000Y-26035000D02*
X64135000Y-22225000D01*
G04 #@! TO.N,Net-(D57-Pad1)*
X71120000Y-60960000D02*
X71120000Y-67945000D01*
X71120000Y-67945000D02*
X73025000Y-67945000D01*
X71120000Y-33020000D02*
X73025000Y-33020000D01*
X71120000Y-26035000D02*
X71120000Y-33020000D01*
X71120000Y-67945000D02*
X71120000Y-73025000D01*
X71120000Y-73025000D02*
X73025000Y-74930000D01*
X71120000Y-33020000D02*
X71120000Y-40005000D01*
X71120000Y-40005000D02*
X73025000Y-40005000D01*
X71120000Y-40005000D02*
X71120000Y-46990000D01*
X71120000Y-46990000D02*
X73025000Y-46990000D01*
X71120000Y-53975000D02*
X73025000Y-53975000D01*
X71120000Y-46990000D02*
X71120000Y-53975000D01*
X71120000Y-60960000D02*
X73025000Y-60960000D01*
X71120000Y-53975000D02*
X71120000Y-60960000D01*
X73025000Y-26035000D02*
X71120000Y-26035000D01*
X71120000Y-25400000D02*
X67310000Y-21590000D01*
X71120000Y-26035000D02*
X71120000Y-25400000D01*
X46725000Y-16510000D02*
X51354990Y-21139990D01*
X51354990Y-21139990D02*
X53526401Y-21139991D01*
X53976410Y-21590000D02*
X67310000Y-21590000D01*
X53526401Y-21139991D02*
X53976410Y-21590000D01*
G04 #@! TO.N,Net-(D65-Pad1)*
X78105000Y-60960000D02*
X78105000Y-67945000D01*
X78105000Y-67945000D02*
X80010000Y-67945000D01*
X78105000Y-33020000D02*
X80010000Y-33020000D01*
X78105000Y-26035000D02*
X78105000Y-33020000D01*
X78105000Y-67945000D02*
X78105000Y-73025000D01*
X78105000Y-73025000D02*
X80010000Y-74930000D01*
X78105000Y-33020000D02*
X78105000Y-40005000D01*
X78105000Y-40005000D02*
X80010000Y-40005000D01*
X78105000Y-40005000D02*
X78105000Y-46990000D01*
X78105000Y-46990000D02*
X80010000Y-46990000D01*
X78105000Y-53975000D02*
X80010000Y-53975000D01*
X78105000Y-46990000D02*
X78105000Y-53975000D01*
X78105000Y-60960000D02*
X80010000Y-60960000D01*
X78105000Y-53975000D02*
X78105000Y-60960000D01*
X80010000Y-26035000D02*
X78105000Y-26035000D01*
X78105000Y-26035000D02*
X78105000Y-22225000D01*
G04 #@! TO.N,Net-(D73-Pad1)*
X85090000Y-60960000D02*
X85090000Y-67945000D01*
X85090000Y-67945000D02*
X86995000Y-67945000D01*
X85090000Y-33020000D02*
X86995000Y-33020000D01*
X85090000Y-26035000D02*
X85090000Y-33020000D01*
X85090000Y-67945000D02*
X85090000Y-73025000D01*
X85090000Y-73025000D02*
X86995000Y-74930000D01*
X85090000Y-33020000D02*
X85090000Y-40005000D01*
X85090000Y-40005000D02*
X86995000Y-40005000D01*
X85090000Y-40005000D02*
X85090000Y-46990000D01*
X85090000Y-46990000D02*
X86995000Y-46990000D01*
X85090000Y-53975000D02*
X86995000Y-53975000D01*
X85090000Y-46990000D02*
X85090000Y-53975000D01*
X85090000Y-60960000D02*
X86995000Y-60960000D01*
X85090000Y-53975000D02*
X85090000Y-60960000D01*
X85090000Y-26035000D02*
X86995000Y-26035000D01*
X85090000Y-25400000D02*
X85090000Y-26035000D01*
X81280000Y-21590000D02*
X85090000Y-25400000D01*
X55570000Y-16510000D02*
X60199990Y-21139990D01*
X60199990Y-21139990D02*
X67496401Y-21139991D01*
X67946410Y-21590000D02*
X81280000Y-21590000D01*
X67496401Y-21139991D02*
X67946410Y-21590000D01*
G04 #@! TO.N,Net-(D81-Pad1)*
X92075000Y-60960000D02*
X92075000Y-67945000D01*
X92075000Y-67945000D02*
X93980000Y-67945000D01*
X92075000Y-33020000D02*
X93980000Y-33020000D01*
X92075000Y-26035000D02*
X92075000Y-33020000D01*
X92075000Y-67945000D02*
X92075000Y-73025000D01*
X92075000Y-73025000D02*
X93980000Y-74930000D01*
X92075000Y-33020000D02*
X92075000Y-40005000D01*
X92075000Y-40005000D02*
X93980000Y-40005000D01*
X92075000Y-40005000D02*
X92075000Y-46990000D01*
X92075000Y-46990000D02*
X93980000Y-46990000D01*
X92075000Y-53975000D02*
X93980000Y-53975000D01*
X92075000Y-46990000D02*
X92075000Y-53975000D01*
X92075000Y-60960000D02*
X93980000Y-60960000D01*
X92075000Y-53975000D02*
X92075000Y-60960000D01*
X92075000Y-26035000D02*
X93980000Y-26035000D01*
X92075000Y-26035000D02*
X92075000Y-22225000D01*
G04 #@! TO.N,Net-(D89-Pad1)*
X99060000Y-60960000D02*
X99060000Y-67945000D01*
X99060000Y-67945000D02*
X100965000Y-67945000D01*
X99060000Y-33020000D02*
X100965000Y-33020000D01*
X99060000Y-26035000D02*
X99060000Y-33020000D01*
X99060000Y-67945000D02*
X99060000Y-73025000D01*
X99060000Y-73025000D02*
X100965000Y-74930000D01*
X99060000Y-33020000D02*
X99060000Y-40005000D01*
X99060000Y-40005000D02*
X100965000Y-40005000D01*
X99060000Y-40005000D02*
X99060000Y-46990000D01*
X99060000Y-46990000D02*
X100965000Y-46990000D01*
X99060000Y-53975000D02*
X100965000Y-53975000D01*
X99060000Y-46990000D02*
X99060000Y-53975000D01*
X99060000Y-60960000D02*
X100965000Y-60960000D01*
X99060000Y-53975000D02*
X99060000Y-60960000D01*
X99060000Y-26035000D02*
X100965000Y-26035000D01*
X99060000Y-25400000D02*
X99060000Y-26035000D01*
X95250000Y-21590000D02*
X99060000Y-25400000D01*
X81916410Y-21590000D02*
X81466400Y-21139990D01*
X95250000Y-21590000D02*
X81916410Y-21590000D01*
X68132810Y-21139990D02*
X67682800Y-20689982D01*
X81466400Y-21139990D02*
X68132810Y-21139990D01*
X66749982Y-20689982D02*
X62570000Y-16510000D01*
X67682800Y-20689982D02*
X66749982Y-20689982D01*
G04 #@! TO.N,Net-(D100-Pad1)*
X106045000Y-60960000D02*
X106045000Y-67945000D01*
X106045000Y-67945000D02*
X107950000Y-67945000D01*
X106045000Y-33020000D02*
X107950000Y-33020000D01*
X106045000Y-26035000D02*
X106045000Y-33020000D01*
X106045000Y-67945000D02*
X106045000Y-73025000D01*
X106045000Y-73025000D02*
X107950000Y-74930000D01*
X106045000Y-33020000D02*
X106045000Y-40005000D01*
X106045000Y-40005000D02*
X107950000Y-40005000D01*
X106045000Y-40005000D02*
X106045000Y-46990000D01*
X106045000Y-46990000D02*
X107950000Y-46990000D01*
X106045000Y-53975000D02*
X107950000Y-53975000D01*
X106045000Y-46990000D02*
X106045000Y-53975000D01*
X106045000Y-60960000D02*
X107950000Y-60960000D01*
X106045000Y-53975000D02*
X106045000Y-60960000D01*
X106045000Y-26035000D02*
X107950000Y-26035000D01*
X106045000Y-26035000D02*
X106045000Y-22225000D01*
G04 #@! TO.N,Net-(D105-Pad1)*
X113030000Y-60960000D02*
X113030000Y-67945000D01*
X113030000Y-67945000D02*
X114935000Y-67945000D01*
X113030000Y-33020000D02*
X114935000Y-33020000D01*
X113030000Y-26035000D02*
X113030000Y-33020000D01*
X113030000Y-67945000D02*
X113030000Y-73025000D01*
X113030000Y-73025000D02*
X114935000Y-74930000D01*
X113030000Y-33020000D02*
X113030000Y-40005000D01*
X113030000Y-40005000D02*
X114935000Y-40005000D01*
X113030000Y-40005000D02*
X113030000Y-46990000D01*
X113030000Y-46990000D02*
X114935000Y-46990000D01*
X113030000Y-53975000D02*
X114935000Y-53975000D01*
X113030000Y-46990000D02*
X113030000Y-53975000D01*
X113030000Y-60960000D02*
X114935000Y-60960000D01*
X113030000Y-53975000D02*
X113030000Y-60960000D01*
X114935000Y-26035000D02*
X113030000Y-26035000D01*
X113030000Y-25400000D02*
X113030000Y-26035000D01*
X95436401Y-21139991D02*
X95886410Y-21590000D01*
X82102810Y-21139990D02*
X95436401Y-21139991D01*
X81652801Y-20689981D02*
X82102810Y-21139990D01*
X95886410Y-21590000D02*
X109220000Y-21590000D01*
X73749980Y-20689980D02*
X81652801Y-20689981D01*
X109220000Y-21590000D02*
X113030000Y-25400000D01*
X69570000Y-16510000D02*
X73749980Y-20689980D01*
G04 #@! TO.N,Net-(D113-Pad1)*
X120015000Y-60960000D02*
X120015000Y-67945000D01*
X120015000Y-67945000D02*
X121920000Y-67945000D01*
X120015000Y-33020000D02*
X121920000Y-33020000D01*
X120015000Y-26035000D02*
X120015000Y-33020000D01*
X120015000Y-67945000D02*
X120015000Y-73025000D01*
X120015000Y-73025000D02*
X121920000Y-74930000D01*
X120015000Y-33020000D02*
X120015000Y-40005000D01*
X120015000Y-40005000D02*
X121920000Y-40005000D01*
X120015000Y-40005000D02*
X120015000Y-46990000D01*
X120015000Y-46990000D02*
X121920000Y-46990000D01*
X120015000Y-53975000D02*
X121920000Y-53975000D01*
X120015000Y-46990000D02*
X120015000Y-53975000D01*
X120015000Y-60960000D02*
X121920000Y-60960000D01*
X120015000Y-53975000D02*
X120015000Y-60960000D01*
X121920000Y-26035000D02*
X120015000Y-26035000D01*
X120015000Y-26035000D02*
X120015000Y-22225000D01*
G04 #@! TO.N,Net-(D121-Pad1)*
X127000000Y-60960000D02*
X127000000Y-67945000D01*
X127000000Y-67945000D02*
X128905000Y-67945000D01*
X127000000Y-33020000D02*
X128905000Y-33020000D01*
X127000000Y-26035000D02*
X127000000Y-33020000D01*
X127000000Y-67945000D02*
X127000000Y-73025000D01*
X127000000Y-73025000D02*
X128905000Y-74930000D01*
X127000000Y-33020000D02*
X127000000Y-40005000D01*
X127000000Y-40005000D02*
X128905000Y-40005000D01*
X127000000Y-40005000D02*
X127000000Y-46990000D01*
X127000000Y-46990000D02*
X128905000Y-46990000D01*
X127000000Y-53975000D02*
X128905000Y-53975000D01*
X127000000Y-46990000D02*
X127000000Y-53975000D01*
X127000000Y-60960000D02*
X128905000Y-60960000D01*
X127000000Y-53975000D02*
X127000000Y-60960000D01*
X128905000Y-26035000D02*
X127000000Y-26035000D01*
X127000000Y-25400000D02*
X127000000Y-26035000D01*
X123190000Y-21590000D02*
X127000000Y-25400000D01*
X109406401Y-21139991D02*
X109856410Y-21590000D01*
X96072810Y-21139990D02*
X109406401Y-21139991D01*
X109856410Y-21590000D02*
X123190000Y-21590000D01*
X95622802Y-20689982D02*
X96072810Y-21139990D01*
X82289211Y-20689981D02*
X95622802Y-20689982D01*
X81839202Y-20239972D02*
X82289211Y-20689981D01*
X80299971Y-20239971D02*
X81839202Y-20239972D01*
X76570000Y-16510000D02*
X80299971Y-20239971D01*
G04 #@! TO.N,Net-(D129-Pad1)*
X133985000Y-60960000D02*
X133985000Y-67945000D01*
X133985000Y-67945000D02*
X135890000Y-67945000D01*
X133985000Y-33020000D02*
X135890000Y-33020000D01*
X133985000Y-26035000D02*
X133985000Y-33020000D01*
X133985000Y-67945000D02*
X133985000Y-73025000D01*
X133985000Y-73025000D02*
X135890000Y-74930000D01*
X133985000Y-33020000D02*
X133985000Y-40005000D01*
X133985000Y-40005000D02*
X135890000Y-40005000D01*
X133985000Y-40005000D02*
X133985000Y-46990000D01*
X133985000Y-46990000D02*
X135890000Y-46990000D01*
X133985000Y-53975000D02*
X135890000Y-53975000D01*
X133985000Y-46990000D02*
X133985000Y-53975000D01*
X133985000Y-60960000D02*
X135890000Y-60960000D01*
X133985000Y-53975000D02*
X133985000Y-60960000D01*
X133985000Y-26035000D02*
X135890000Y-26035000D01*
X133985000Y-26035000D02*
X133985000Y-22225000D01*
G04 #@! TO.N,Net-(D137-Pad1)*
X140970000Y-60960000D02*
X140970000Y-67945000D01*
X140970000Y-67945000D02*
X142875000Y-67945000D01*
X140970000Y-33020000D02*
X142875000Y-33020000D01*
X140970000Y-26035000D02*
X140970000Y-33020000D01*
X140970000Y-67945000D02*
X140970000Y-73025000D01*
X140970000Y-73025000D02*
X142875000Y-74930000D01*
X140970000Y-33020000D02*
X140970000Y-40005000D01*
X140970000Y-40005000D02*
X142875000Y-40005000D01*
X140970000Y-40005000D02*
X140970000Y-46990000D01*
X140970000Y-46990000D02*
X142875000Y-46990000D01*
X140970000Y-53975000D02*
X142875000Y-53975000D01*
X140970000Y-46990000D02*
X140970000Y-53975000D01*
X140970000Y-60960000D02*
X142875000Y-60960000D01*
X140970000Y-53975000D02*
X140970000Y-60960000D01*
X142875000Y-26035000D02*
X140970000Y-26035000D01*
X140970000Y-25400000D02*
X140970000Y-26035000D01*
X137160000Y-21590000D02*
X140970000Y-25400000D01*
X123376401Y-21139991D02*
X123826410Y-21590000D01*
X110042810Y-21139990D02*
X123376401Y-21139991D01*
X109592802Y-20689982D02*
X110042810Y-21139990D01*
X95809203Y-20239973D02*
X96259211Y-20689981D01*
X96259211Y-20689981D02*
X109592802Y-20689982D01*
X89144972Y-20239972D02*
X95809203Y-20239973D01*
X123826410Y-21590000D02*
X137160000Y-21590000D01*
X85415000Y-16510000D02*
X89144972Y-20239972D01*
G04 #@! TO.N,Net-(D145-Pad1)*
X147955000Y-60960000D02*
X147955000Y-67945000D01*
X147955000Y-67945000D02*
X149860000Y-67945000D01*
X147955000Y-33020000D02*
X149860000Y-33020000D01*
X147955000Y-26035000D02*
X147955000Y-33020000D01*
X147955000Y-67945000D02*
X147955000Y-73025000D01*
X147955000Y-73025000D02*
X149860000Y-74930000D01*
X147955000Y-33020000D02*
X147955000Y-40005000D01*
X147955000Y-40005000D02*
X149860000Y-40005000D01*
X147955000Y-40005000D02*
X147955000Y-46990000D01*
X147955000Y-46990000D02*
X149860000Y-46990000D01*
X147955000Y-53975000D02*
X149860000Y-53975000D01*
X147955000Y-46990000D02*
X147955000Y-53975000D01*
X147955000Y-60960000D02*
X149860000Y-60960000D01*
X147955000Y-53975000D02*
X147955000Y-60960000D01*
X147955000Y-26035000D02*
X149860000Y-26035000D01*
X147955000Y-26035000D02*
X147955000Y-22225000D01*
G04 #@! TO.N,Net-(D153-Pad1)*
X154940000Y-60960000D02*
X154940000Y-67945000D01*
X154940000Y-67945000D02*
X156845000Y-67945000D01*
X154940000Y-33020000D02*
X156845000Y-33020000D01*
X154940000Y-26035000D02*
X154940000Y-33020000D01*
X154940000Y-67945000D02*
X154940000Y-73025000D01*
X154940000Y-73025000D02*
X156845000Y-74930000D01*
X154940000Y-33020000D02*
X154940000Y-40005000D01*
X154940000Y-40005000D02*
X156845000Y-40005000D01*
X154940000Y-40005000D02*
X154940000Y-46990000D01*
X154940000Y-46990000D02*
X156845000Y-46990000D01*
X154940000Y-53975000D02*
X156845000Y-53975000D01*
X154940000Y-46990000D02*
X154940000Y-53975000D01*
X154940000Y-60960000D02*
X156845000Y-60960000D01*
X154940000Y-53975000D02*
X154940000Y-60960000D01*
X154940000Y-26035000D02*
X156845000Y-26035000D01*
X154940000Y-25400000D02*
X154940000Y-26035000D01*
X151130000Y-21590000D02*
X154940000Y-25400000D01*
X151130000Y-21590000D02*
X137796410Y-21590000D01*
X137796410Y-21590000D02*
X137346400Y-21139990D01*
X137346400Y-21139990D02*
X136525000Y-21139990D01*
X136525000Y-21139990D02*
X124012810Y-21139990D01*
X124012810Y-21139990D02*
X123562802Y-20689982D01*
X123562802Y-20689982D02*
X123562800Y-20689982D01*
X123562800Y-20689982D02*
X110229212Y-20689982D01*
X110229212Y-20689982D02*
X109779201Y-20239973D01*
X109779201Y-20239973D02*
X109220000Y-20239972D01*
X109779200Y-20239972D02*
X109779201Y-20239973D01*
X96445612Y-20239972D02*
X109779200Y-20239972D01*
X95995604Y-19789964D02*
X96445612Y-20239972D01*
X95694964Y-19789964D02*
X95995604Y-19789964D01*
X92415000Y-16510000D02*
X95694964Y-19789964D01*
G04 #@! TO.N,Net-(D161-Pad1)*
X161925000Y-60960000D02*
X161925000Y-67945000D01*
X161925000Y-67945000D02*
X163830000Y-67945000D01*
X161925000Y-33020000D02*
X163830000Y-33020000D01*
X161925000Y-26035000D02*
X161925000Y-33020000D01*
X161925000Y-67945000D02*
X161925000Y-73025000D01*
X161925000Y-73025000D02*
X163830000Y-74930000D01*
X161925000Y-33020000D02*
X161925000Y-40005000D01*
X161925000Y-40005000D02*
X163830000Y-40005000D01*
X161925000Y-40005000D02*
X161925000Y-46990000D01*
X161925000Y-46990000D02*
X163830000Y-46990000D01*
X161925000Y-53975000D02*
X163830000Y-53975000D01*
X161925000Y-46990000D02*
X161925000Y-53975000D01*
X161925000Y-60960000D02*
X163830000Y-60960000D01*
X161925000Y-53975000D02*
X161925000Y-60960000D01*
X161925000Y-26035000D02*
X163830000Y-26035000D01*
X161925000Y-26035000D02*
X161925000Y-22225000D01*
G04 #@! TO.N,Net-(D169-Pad1)*
X168910000Y-60960000D02*
X168910000Y-67945000D01*
X168910000Y-67945000D02*
X170815000Y-67945000D01*
X168910000Y-33020000D02*
X170815000Y-33020000D01*
X168910000Y-26035000D02*
X168910000Y-33020000D01*
X168910000Y-67945000D02*
X168910000Y-73025000D01*
X168910000Y-73025000D02*
X170815000Y-74930000D01*
X168910000Y-33020000D02*
X168910000Y-40005000D01*
X168910000Y-40005000D02*
X170815000Y-40005000D01*
X168910000Y-40005000D02*
X168910000Y-46990000D01*
X168910000Y-46990000D02*
X170815000Y-46990000D01*
X168910000Y-53975000D02*
X170815000Y-53975000D01*
X168910000Y-46990000D02*
X168910000Y-53975000D01*
X168910000Y-60960000D02*
X170815000Y-60960000D01*
X168910000Y-53975000D02*
X168910000Y-60960000D01*
X168910000Y-26035000D02*
X170815000Y-26035000D01*
X165100000Y-21590000D02*
X168910000Y-25400000D01*
X151766410Y-21590000D02*
X165100000Y-21590000D01*
X137982810Y-21139990D02*
X151316401Y-21139991D01*
X137532801Y-20689981D02*
X137982810Y-21139990D01*
X124199210Y-20689980D02*
X137532801Y-20689981D01*
X123749203Y-20239973D02*
X124199210Y-20689980D01*
X110415610Y-20239972D02*
X123749203Y-20239973D01*
X168910000Y-25400000D02*
X168910000Y-26035000D01*
X151316401Y-21139991D02*
X151766410Y-21590000D01*
X109965600Y-19789962D02*
X110415610Y-20239972D01*
X102694962Y-19789962D02*
X109965600Y-19789962D01*
X99415000Y-16510000D02*
X102694962Y-19789962D01*
G04 #@! TO.N,Net-(D177-Pad1)*
X175895000Y-60960000D02*
X175895000Y-67945000D01*
X175895000Y-67945000D02*
X177800000Y-67945000D01*
X175895000Y-33020000D02*
X177800000Y-33020000D01*
X175895000Y-26035000D02*
X175895000Y-33020000D01*
X175895000Y-67945000D02*
X175895000Y-73025000D01*
X175895000Y-73025000D02*
X177800000Y-74930000D01*
X175895000Y-33020000D02*
X175895000Y-40005000D01*
X175895000Y-40005000D02*
X177800000Y-40005000D01*
X175895000Y-40005000D02*
X175895000Y-46990000D01*
X175895000Y-46990000D02*
X177800000Y-46990000D01*
X175895000Y-53975000D02*
X177800000Y-53975000D01*
X175895000Y-46990000D02*
X175895000Y-53975000D01*
X175895000Y-60960000D02*
X177800000Y-60960000D01*
X175895000Y-53975000D02*
X175895000Y-60960000D01*
X175895000Y-26035000D02*
X177800000Y-26035000D01*
X175895000Y-26035000D02*
X175895000Y-22225000D01*
G04 #@! TO.N,Net-(D185-Pad1)*
X182880000Y-60960000D02*
X182880000Y-67945000D01*
X182880000Y-67945000D02*
X184785000Y-67945000D01*
X182880000Y-33020000D02*
X184785000Y-33020000D01*
X182880000Y-26035000D02*
X182880000Y-33020000D01*
X182880000Y-67945000D02*
X182880000Y-73025000D01*
X182880000Y-73025000D02*
X184785000Y-74930000D01*
X182880000Y-33020000D02*
X182880000Y-40005000D01*
X182880000Y-40005000D02*
X184785000Y-40005000D01*
X182880000Y-40005000D02*
X182880000Y-46990000D01*
X182880000Y-46990000D02*
X184785000Y-46990000D01*
X182880000Y-53975000D02*
X184785000Y-53975000D01*
X182880000Y-46990000D02*
X182880000Y-53975000D01*
X182880000Y-60960000D02*
X184785000Y-60960000D01*
X182880000Y-53975000D02*
X182880000Y-60960000D01*
X182880000Y-25400000D02*
X182880000Y-26035000D01*
X179070000Y-21590000D02*
X182880000Y-25400000D01*
X182880000Y-26035000D02*
X184785000Y-26035000D01*
X179070000Y-21590000D02*
X165736410Y-21590000D01*
X165736410Y-21590000D02*
X165286400Y-21139990D01*
X165286400Y-21139990D02*
X162560000Y-21139990D01*
X151952810Y-21139990D02*
X151502802Y-20689982D01*
X162560000Y-21139990D02*
X151952810Y-21139990D01*
X151502802Y-20689982D02*
X151502800Y-20689982D01*
X151502800Y-20689982D02*
X138169212Y-20689982D01*
X138169212Y-20689982D02*
X137719200Y-20239972D01*
X137719200Y-20239972D02*
X124385612Y-20239972D01*
X123935604Y-19789964D02*
X123929964Y-19789964D01*
X124385612Y-20239972D02*
X123935604Y-19789964D01*
X110602012Y-19789964D02*
X110152000Y-19339952D01*
X123935604Y-19789964D02*
X110602012Y-19789964D01*
X109244952Y-19339952D02*
X106415000Y-16510000D01*
X110152000Y-19339952D02*
X109244952Y-19339952D01*
G04 #@! TO.N,Net-(D193-Pad1)*
X189865000Y-60960000D02*
X189865000Y-67945000D01*
X189865000Y-67945000D02*
X191770000Y-67945000D01*
X189865000Y-33020000D02*
X191770000Y-33020000D01*
X189865000Y-26035000D02*
X189865000Y-33020000D01*
X189865000Y-67945000D02*
X189865000Y-73025000D01*
X189865000Y-73025000D02*
X191770000Y-74930000D01*
X189865000Y-33020000D02*
X189865000Y-40005000D01*
X189865000Y-40005000D02*
X191770000Y-40005000D01*
X189865000Y-40005000D02*
X189865000Y-46990000D01*
X189865000Y-46990000D02*
X191770000Y-46990000D01*
X189865000Y-53975000D02*
X191770000Y-53975000D01*
X189865000Y-46990000D02*
X189865000Y-53975000D01*
X189865000Y-60960000D02*
X191770000Y-60960000D01*
X189865000Y-53975000D02*
X189865000Y-60960000D01*
X189865000Y-26035000D02*
X191770000Y-26035000D01*
X189865000Y-26035000D02*
X189865000Y-22225000D01*
G04 #@! TO.N,Net-(D201-Pad1)*
X196850000Y-60960000D02*
X196850000Y-67945000D01*
X196850000Y-67945000D02*
X198755000Y-67945000D01*
X196850000Y-33020000D02*
X198755000Y-33020000D01*
X196850000Y-26035000D02*
X196850000Y-33020000D01*
X196850000Y-67945000D02*
X196850000Y-73025000D01*
X196850000Y-73025000D02*
X198755000Y-74930000D01*
X196850000Y-33020000D02*
X196850000Y-40005000D01*
X196850000Y-40005000D02*
X198755000Y-40005000D01*
X196850000Y-40005000D02*
X196850000Y-46990000D01*
X196850000Y-46990000D02*
X198755000Y-46990000D01*
X196850000Y-53975000D02*
X198755000Y-53975000D01*
X196850000Y-46990000D02*
X196850000Y-53975000D01*
X196850000Y-60960000D02*
X198755000Y-60960000D01*
X196850000Y-53975000D02*
X196850000Y-60960000D01*
X196850000Y-26035000D02*
X198755000Y-26035000D01*
X196850000Y-25400000D02*
X196850000Y-26035000D01*
X115260000Y-16510000D02*
X118089954Y-19339954D01*
X165922810Y-21139990D02*
X179256401Y-21139991D01*
X124122005Y-19339955D02*
X124572012Y-19789962D01*
X124572012Y-19789962D02*
X137905600Y-19789963D01*
X118089954Y-19339954D02*
X124122005Y-19339955D01*
X138355609Y-20239972D02*
X151689203Y-20239973D01*
X137905600Y-19789963D02*
X138355609Y-20239972D01*
X179706410Y-21590000D02*
X193040000Y-21590000D01*
X151689203Y-20239973D02*
X152139210Y-20689980D01*
X193040000Y-21590000D02*
X196850000Y-25400000D01*
X152139210Y-20689980D02*
X165472801Y-20689981D01*
X165472801Y-20689981D02*
X165922810Y-21139990D01*
X179256401Y-21139991D02*
X179706410Y-21590000D01*
G04 #@! TO.N,Net-(D209-Pad1)*
X203835000Y-60960000D02*
X203835000Y-67945000D01*
X203835000Y-67945000D02*
X205740000Y-67945000D01*
X203835000Y-33020000D02*
X205740000Y-33020000D01*
X203835000Y-26035000D02*
X203835000Y-33020000D01*
X203835000Y-67945000D02*
X203835000Y-73025000D01*
X203835000Y-73025000D02*
X205740000Y-74930000D01*
X203835000Y-33020000D02*
X203835000Y-40005000D01*
X203835000Y-40005000D02*
X205740000Y-40005000D01*
X203835000Y-40005000D02*
X203835000Y-46990000D01*
X203835000Y-46990000D02*
X205740000Y-46990000D01*
X203835000Y-53975000D02*
X205740000Y-53975000D01*
X203835000Y-46990000D02*
X203835000Y-53975000D01*
X203835000Y-60960000D02*
X205740000Y-60960000D01*
X203835000Y-53975000D02*
X203835000Y-60960000D01*
X205740000Y-26035000D02*
X203835000Y-26035000D01*
X203835000Y-26035000D02*
X203835000Y-22225000D01*
G04 #@! TO.N,Net-(D217-Pad1)*
X210820000Y-60960000D02*
X210820000Y-67945000D01*
X210820000Y-67945000D02*
X212725000Y-67945000D01*
X210820000Y-33020000D02*
X212725000Y-33020000D01*
X210820000Y-26035000D02*
X210820000Y-33020000D01*
X210820000Y-67945000D02*
X210820000Y-73025000D01*
X210820000Y-73025000D02*
X212725000Y-74930000D01*
X210820000Y-33020000D02*
X210820000Y-40005000D01*
X210820000Y-40005000D02*
X212725000Y-40005000D01*
X210820000Y-40005000D02*
X210820000Y-46990000D01*
X210820000Y-46990000D02*
X212725000Y-46990000D01*
X210820000Y-53975000D02*
X212725000Y-53975000D01*
X210820000Y-46990000D02*
X210820000Y-53975000D01*
X210820000Y-60960000D02*
X212725000Y-60960000D01*
X210820000Y-53975000D02*
X210820000Y-60960000D01*
X210820000Y-26035000D02*
X212725000Y-26035000D01*
X210820000Y-25400000D02*
X210820000Y-26035000D01*
X179892810Y-21139990D02*
X193226401Y-21139991D01*
X125089953Y-19339953D02*
X138092001Y-19339954D01*
X138092001Y-19339954D02*
X138542010Y-19789963D01*
X138542010Y-19789963D02*
X151875604Y-19789964D01*
X152325611Y-20239971D02*
X165659202Y-20239972D01*
X207010000Y-21590000D02*
X210820000Y-25400000D01*
X122260000Y-16510000D02*
X125089953Y-19339953D01*
X151875604Y-19789964D02*
X152325611Y-20239971D01*
X165659202Y-20239972D02*
X166109211Y-20689981D01*
X166109211Y-20689981D02*
X179442802Y-20689982D01*
X179442802Y-20689982D02*
X179892810Y-21139990D01*
X193676410Y-21590000D02*
X207010000Y-21590000D01*
X193226401Y-21139991D02*
X193676410Y-21590000D01*
G04 #@! TO.N,Net-(D225-Pad1)*
X217805000Y-60960000D02*
X217805000Y-67945000D01*
X217805000Y-67945000D02*
X219710000Y-67945000D01*
X217805000Y-33020000D02*
X219710000Y-33020000D01*
X217805000Y-26035000D02*
X217805000Y-33020000D01*
X217805000Y-67945000D02*
X217805000Y-73025000D01*
X217805000Y-73025000D02*
X219710000Y-74930000D01*
X217805000Y-33020000D02*
X217805000Y-40005000D01*
X217805000Y-40005000D02*
X219710000Y-40005000D01*
X217805000Y-40005000D02*
X217805000Y-46990000D01*
X217805000Y-46990000D02*
X219710000Y-46990000D01*
X217805000Y-53975000D02*
X219710000Y-53975000D01*
X217805000Y-46990000D02*
X217805000Y-53975000D01*
X217805000Y-60960000D02*
X219710000Y-60960000D01*
X217805000Y-53975000D02*
X217805000Y-60960000D01*
X217805000Y-26035000D02*
X219710000Y-26035000D01*
X217805000Y-26035000D02*
X217805000Y-22225000D01*
G04 #@! TO.N,Net-(D233-Pad1)*
X224790000Y-60960000D02*
X224790000Y-67945000D01*
X224790000Y-67945000D02*
X226695000Y-67945000D01*
X224790000Y-33020000D02*
X226695000Y-33020000D01*
X224790000Y-26035000D02*
X224790000Y-33020000D01*
X224790000Y-67945000D02*
X224790000Y-73025000D01*
X224790000Y-73025000D02*
X226695000Y-74930000D01*
X224790000Y-33020000D02*
X224790000Y-40005000D01*
X224790000Y-40005000D02*
X226695000Y-40005000D01*
X224790000Y-40005000D02*
X224790000Y-46990000D01*
X224790000Y-46990000D02*
X226695000Y-46990000D01*
X224790000Y-53975000D02*
X226695000Y-53975000D01*
X224790000Y-46990000D02*
X224790000Y-53975000D01*
X224790000Y-60960000D02*
X226695000Y-60960000D01*
X224790000Y-53975000D02*
X224790000Y-60960000D01*
X224790000Y-26035000D02*
X226695000Y-26035000D01*
X220980000Y-21590000D02*
X224790000Y-25400000D01*
X224790000Y-25400000D02*
X224790000Y-26035000D01*
X220980000Y-21590000D02*
X207646410Y-21590000D01*
X207646410Y-21590000D02*
X207196400Y-21139990D01*
X207196400Y-21139990D02*
X193862810Y-21139990D01*
X193862810Y-21139990D02*
X193412800Y-20689982D01*
X180079212Y-20689982D02*
X179629201Y-20239973D01*
X193412800Y-20689982D02*
X180079212Y-20689982D01*
X166295613Y-20239973D02*
X165845603Y-19789963D01*
X179629201Y-20239973D02*
X166295613Y-20239973D01*
X152512013Y-19789963D02*
X152062003Y-19339955D01*
X165845603Y-19789963D02*
X152512013Y-19789963D01*
X138728412Y-19339955D02*
X138278400Y-18889945D01*
X152062003Y-19339955D02*
X138728412Y-19339955D01*
X131639945Y-18889945D02*
X129260000Y-16510000D01*
X138278400Y-18889945D02*
X131639945Y-18889945D01*
G04 #@! TO.N,Net-(D241-Pad1)*
X231775000Y-60960000D02*
X231775000Y-67945000D01*
X231775000Y-67945000D02*
X233680000Y-67945000D01*
X231775000Y-33020000D02*
X233680000Y-33020000D01*
X231775000Y-26035000D02*
X231775000Y-33020000D01*
X231775000Y-67945000D02*
X231775000Y-73025000D01*
X231775000Y-73025000D02*
X233680000Y-74930000D01*
X231775000Y-33020000D02*
X231775000Y-40005000D01*
X231775000Y-40005000D02*
X233680000Y-40005000D01*
X231775000Y-40005000D02*
X231775000Y-46990000D01*
X231775000Y-46990000D02*
X233680000Y-46990000D01*
X231775000Y-53975000D02*
X233680000Y-53975000D01*
X231775000Y-46990000D02*
X231775000Y-53975000D01*
X231775000Y-60960000D02*
X233680000Y-60960000D01*
X231775000Y-53975000D02*
X231775000Y-60960000D01*
X231775000Y-26035000D02*
X233680000Y-26035000D01*
X231775000Y-26035000D02*
X231775000Y-22225000D01*
G04 #@! TO.N,Net-(D249-Pad1)*
X238760000Y-60960000D02*
X238760000Y-67945000D01*
X238760000Y-67945000D02*
X240665000Y-67945000D01*
X238760000Y-33020000D02*
X240665000Y-33020000D01*
X238760000Y-26035000D02*
X238760000Y-33020000D01*
X238760000Y-67945000D02*
X238760000Y-73025000D01*
X238760000Y-73025000D02*
X240665000Y-74930000D01*
X238760000Y-33020000D02*
X238760000Y-40005000D01*
X238760000Y-40005000D02*
X240665000Y-40005000D01*
X238760000Y-40005000D02*
X238760000Y-46990000D01*
X238760000Y-46990000D02*
X240665000Y-46990000D01*
X238760000Y-53975000D02*
X240665000Y-53975000D01*
X238760000Y-46990000D02*
X238760000Y-53975000D01*
X238760000Y-60960000D02*
X240665000Y-60960000D01*
X238760000Y-53975000D02*
X238760000Y-60960000D01*
X238760000Y-26035000D02*
X240665000Y-26035000D01*
X138189935Y-18439935D02*
X136260000Y-16510000D01*
X138464800Y-18439935D02*
X138189935Y-18439935D01*
X138914809Y-18889945D02*
X138464800Y-18439935D01*
X152248403Y-18889945D02*
X138914809Y-18889945D01*
X152698411Y-19339953D02*
X152248403Y-18889945D01*
X238760000Y-26035000D02*
X238760000Y-25400000D01*
X238760000Y-25400000D02*
X234950000Y-21590000D01*
X234950000Y-21590000D02*
X221616410Y-21590000D01*
X221616410Y-21590000D02*
X221166400Y-21139990D01*
X221166400Y-21139990D02*
X207832810Y-21139990D01*
X207832810Y-21139990D02*
X207382800Y-20689980D01*
X194049208Y-20689980D02*
X193599200Y-20239972D01*
X166032003Y-19339953D02*
X152698411Y-19339953D01*
X207382800Y-20689980D02*
X194049208Y-20689980D01*
X193599200Y-20239972D02*
X180265610Y-20239972D01*
X180265610Y-20239972D02*
X179815601Y-19789963D01*
X179815601Y-19789963D02*
X166482013Y-19789963D01*
X166482013Y-19789963D02*
X166032003Y-19339953D01*
G04 #@! TD*
M02*
