G04 #@! TF.GenerationSoftware,KiCad,Pcbnew,(5.1.10)-1*
G04 #@! TF.CreationDate,2023-12-13T16:58:41-05:00*
G04 #@! TF.ProjectId,LED_Matrix_8x32_v2,4c45445f-4d61-4747-9269-785f38783332,rev?*
G04 #@! TF.SameCoordinates,Original*
G04 #@! TF.FileFunction,Soldermask,Top*
G04 #@! TF.FilePolarity,Negative*
%FSLAX46Y46*%
G04 Gerber Fmt 4.6, Leading zero omitted, Abs format (unit mm)*
G04 Created by KiCad (PCBNEW (5.1.10)-1) date 2023-12-13 16:58:41*
%MOMM*%
%LPD*%
G01*
G04 APERTURE LIST*
%ADD10C,2.200000*%
%ADD11R,1.800000X1.800000*%
%ADD12C,1.800000*%
%ADD13C,2.400000*%
%ADD14R,2.400000X2.400000*%
G04 APERTURE END LIST*
D10*
G04 #@! TO.C,REF\u002A\u002A*
X247650000Y-16510000D03*
G04 #@! TD*
G04 #@! TO.C,REF\u002A\u002A*
X247650000Y-76200000D03*
G04 #@! TD*
G04 #@! TO.C,REF\u002A\u002A*
X15875000Y-76200000D03*
G04 #@! TD*
G04 #@! TO.C,REF\u002A\u002A*
X15875000Y-16510000D03*
G04 #@! TD*
D11*
G04 #@! TO.C,D256*
X240665000Y-74930000D03*
D12*
X240665000Y-72390000D03*
G04 #@! TD*
D11*
G04 #@! TO.C,D245*
X233680000Y-53975000D03*
D12*
X233680000Y-51435000D03*
G04 #@! TD*
D11*
G04 #@! TO.C,D244*
X233680000Y-46990000D03*
D12*
X233680000Y-44450000D03*
G04 #@! TD*
D11*
G04 #@! TO.C,D253*
X240665000Y-53975000D03*
D12*
X240665000Y-51435000D03*
G04 #@! TD*
D11*
G04 #@! TO.C,D255*
X240665000Y-67945000D03*
D12*
X240665000Y-65405000D03*
G04 #@! TD*
D11*
G04 #@! TO.C,D252*
X240665000Y-46990000D03*
D12*
X240665000Y-44450000D03*
G04 #@! TD*
D11*
G04 #@! TO.C,D246*
X233680000Y-60960000D03*
D12*
X233680000Y-58420000D03*
G04 #@! TD*
D11*
G04 #@! TO.C,D254*
X240665000Y-60960000D03*
D12*
X240665000Y-58420000D03*
G04 #@! TD*
D11*
G04 #@! TO.C,D248*
X233680000Y-74930000D03*
D12*
X233680000Y-72390000D03*
G04 #@! TD*
D11*
G04 #@! TO.C,D247*
X233680000Y-67945000D03*
D12*
X233680000Y-65405000D03*
G04 #@! TD*
D11*
G04 #@! TO.C,D250*
X240665000Y-33020000D03*
D12*
X240665000Y-30480000D03*
G04 #@! TD*
D11*
G04 #@! TO.C,D251*
X240665000Y-40005000D03*
D12*
X240665000Y-37465000D03*
G04 #@! TD*
D11*
G04 #@! TO.C,D134*
X135890000Y-60960000D03*
D12*
X135890000Y-58420000D03*
G04 #@! TD*
D11*
G04 #@! TO.C,D133*
X135890000Y-53975000D03*
D12*
X135890000Y-51435000D03*
G04 #@! TD*
D11*
G04 #@! TO.C,D132*
X135890000Y-46990000D03*
D12*
X135890000Y-44450000D03*
G04 #@! TD*
D11*
G04 #@! TO.C,D131*
X135890000Y-40005000D03*
D12*
X135890000Y-37465000D03*
G04 #@! TD*
D11*
G04 #@! TO.C,D127*
X128905000Y-67945000D03*
D12*
X128905000Y-65405000D03*
G04 #@! TD*
D11*
G04 #@! TO.C,D126*
X128905000Y-60960000D03*
D12*
X128905000Y-58420000D03*
G04 #@! TD*
D11*
G04 #@! TO.C,D135*
X135890000Y-67945000D03*
D12*
X135890000Y-65405000D03*
G04 #@! TD*
D11*
G04 #@! TO.C,D124*
X128905000Y-46990000D03*
D12*
X128905000Y-44450000D03*
G04 #@! TD*
D11*
G04 #@! TO.C,D119*
X121920000Y-67945000D03*
D12*
X121920000Y-65405000D03*
G04 #@! TD*
D11*
G04 #@! TO.C,D122*
X128905000Y-33020000D03*
D12*
X128905000Y-30480000D03*
G04 #@! TD*
D11*
G04 #@! TO.C,D118*
X121920000Y-60960000D03*
D12*
X121920000Y-58420000D03*
G04 #@! TD*
D11*
G04 #@! TO.C,D130*
X135890000Y-33020000D03*
D12*
X135890000Y-30480000D03*
G04 #@! TD*
D11*
G04 #@! TO.C,D120*
X121920000Y-74930000D03*
D12*
X121920000Y-72390000D03*
G04 #@! TD*
D11*
G04 #@! TO.C,D125*
X128905000Y-53975000D03*
D12*
X128905000Y-51435000D03*
G04 #@! TD*
D11*
G04 #@! TO.C,D128*
X128905000Y-74930000D03*
D12*
X128905000Y-72390000D03*
G04 #@! TD*
D11*
G04 #@! TO.C,D123*
X128905000Y-40005000D03*
D12*
X128905000Y-37465000D03*
G04 #@! TD*
D11*
G04 #@! TO.C,D158*
X156845000Y-60960000D03*
D12*
X156845000Y-58420000D03*
G04 #@! TD*
D11*
G04 #@! TO.C,D157*
X156845000Y-53975000D03*
D12*
X156845000Y-51435000D03*
G04 #@! TD*
D11*
G04 #@! TO.C,D163*
X163830000Y-40005000D03*
D12*
X163830000Y-37465000D03*
G04 #@! TD*
D11*
G04 #@! TO.C,D168*
X163830000Y-74930000D03*
D12*
X163830000Y-72390000D03*
G04 #@! TD*
D11*
G04 #@! TO.C,D156*
X156845000Y-46990000D03*
D12*
X156845000Y-44450000D03*
G04 #@! TD*
D11*
G04 #@! TO.C,D171*
X170815000Y-40005000D03*
D12*
X170815000Y-37465000D03*
G04 #@! TD*
D11*
G04 #@! TO.C,D167*
X163830000Y-67945000D03*
D12*
X163830000Y-65405000D03*
G04 #@! TD*
D11*
G04 #@! TO.C,D160*
X156845000Y-74930000D03*
D12*
X156845000Y-72390000D03*
G04 #@! TD*
D11*
G04 #@! TO.C,D166*
X163830000Y-60960000D03*
D12*
X163830000Y-58420000D03*
G04 #@! TD*
D11*
G04 #@! TO.C,D162*
X163830000Y-33020000D03*
D12*
X163830000Y-30480000D03*
G04 #@! TD*
D11*
G04 #@! TO.C,D159*
X156845000Y-67945000D03*
D12*
X156845000Y-65405000D03*
G04 #@! TD*
D11*
G04 #@! TO.C,D155*
X156845000Y-40005000D03*
D12*
X156845000Y-37465000D03*
G04 #@! TD*
D11*
G04 #@! TO.C,D154*
X156845000Y-33020000D03*
D12*
X156845000Y-30480000D03*
G04 #@! TD*
D11*
G04 #@! TO.C,D164*
X163830000Y-46990000D03*
D12*
X163830000Y-44450000D03*
G04 #@! TD*
D11*
G04 #@! TO.C,D165*
X163830000Y-53975000D03*
D12*
X163830000Y-51435000D03*
G04 #@! TD*
D11*
G04 #@! TO.C,D170*
X170815000Y-33020000D03*
D12*
X170815000Y-30480000D03*
G04 #@! TD*
D11*
G04 #@! TO.C,D141*
X142875000Y-53975000D03*
D12*
X142875000Y-51435000D03*
G04 #@! TD*
D11*
G04 #@! TO.C,D152*
X149860000Y-74930000D03*
D12*
X149860000Y-72390000D03*
G04 #@! TD*
D11*
G04 #@! TO.C,D140*
X142875000Y-46990000D03*
D12*
X142875000Y-44450000D03*
G04 #@! TD*
D11*
G04 #@! TO.C,D139*
X142875000Y-40005000D03*
D12*
X142875000Y-37465000D03*
G04 #@! TD*
D11*
G04 #@! TO.C,D147*
X149860000Y-40005000D03*
D12*
X149860000Y-37465000D03*
G04 #@! TD*
D11*
G04 #@! TO.C,D149*
X149860000Y-53975000D03*
D12*
X149860000Y-51435000D03*
G04 #@! TD*
D11*
G04 #@! TO.C,D138*
X142875000Y-33020000D03*
D12*
X142875000Y-30480000D03*
G04 #@! TD*
D11*
G04 #@! TO.C,D136*
X135890000Y-74930000D03*
D12*
X135890000Y-72390000D03*
G04 #@! TD*
D11*
G04 #@! TO.C,D150*
X149860000Y-60960000D03*
D12*
X149860000Y-58420000D03*
G04 #@! TD*
D11*
G04 #@! TO.C,D148*
X149860000Y-46990000D03*
D12*
X149860000Y-44450000D03*
G04 #@! TD*
D11*
G04 #@! TO.C,D146*
X149860000Y-33020000D03*
D12*
X149860000Y-30480000D03*
G04 #@! TD*
D11*
G04 #@! TO.C,D144*
X142875000Y-74930000D03*
D12*
X142875000Y-72390000D03*
G04 #@! TD*
D11*
G04 #@! TO.C,D143*
X142769000Y-67945000D03*
D12*
X142769000Y-65405000D03*
G04 #@! TD*
D11*
G04 #@! TO.C,D142*
X142875000Y-60960000D03*
D12*
X142875000Y-58420000D03*
G04 #@! TD*
D11*
G04 #@! TO.C,D151*
X149860000Y-67945000D03*
D12*
X149860000Y-65405000D03*
G04 #@! TD*
D11*
G04 #@! TO.C,D183*
X177800000Y-67945000D03*
D12*
X177800000Y-65405000D03*
G04 #@! TD*
D11*
G04 #@! TO.C,D189*
X184785000Y-53975000D03*
D12*
X184785000Y-51435000D03*
G04 #@! TD*
D11*
G04 #@! TO.C,D188*
X184785000Y-46990000D03*
D12*
X184785000Y-44450000D03*
G04 #@! TD*
D11*
G04 #@! TO.C,D182*
X177800000Y-60960000D03*
D12*
X177800000Y-58420000D03*
G04 #@! TD*
D11*
G04 #@! TO.C,D181*
X177800000Y-53975000D03*
D12*
X177800000Y-51435000D03*
G04 #@! TD*
D11*
G04 #@! TO.C,D187*
X184785000Y-40005000D03*
D12*
X184785000Y-37465000D03*
G04 #@! TD*
D11*
G04 #@! TO.C,D180*
X177800000Y-46990000D03*
D12*
X177800000Y-44450000D03*
G04 #@! TD*
D11*
G04 #@! TO.C,D179*
X177800000Y-40005000D03*
D12*
X177800000Y-37465000D03*
G04 #@! TD*
D11*
G04 #@! TO.C,D178*
X177800000Y-33020000D03*
D12*
X177800000Y-30480000D03*
G04 #@! TD*
D11*
G04 #@! TO.C,D176*
X170815000Y-74930000D03*
D12*
X170815000Y-72390000D03*
G04 #@! TD*
D11*
G04 #@! TO.C,D175*
X170815000Y-67945000D03*
D12*
X170815000Y-65405000D03*
G04 #@! TD*
D11*
G04 #@! TO.C,D174*
X170815000Y-60960000D03*
D12*
X170815000Y-58420000D03*
G04 #@! TD*
D11*
G04 #@! TO.C,D173*
X170815000Y-53975000D03*
D12*
X170815000Y-51435000D03*
G04 #@! TD*
D11*
G04 #@! TO.C,D172*
X170815000Y-46990000D03*
D12*
X170815000Y-44450000D03*
G04 #@! TD*
D11*
G04 #@! TO.C,D186*
X184785000Y-33020000D03*
D12*
X184785000Y-30480000D03*
G04 #@! TD*
D11*
G04 #@! TO.C,D184*
X177800000Y-74930000D03*
D12*
X177800000Y-72390000D03*
G04 #@! TD*
D11*
G04 #@! TO.C,D92*
X100965000Y-46990000D03*
D12*
X100965000Y-44450000D03*
G04 #@! TD*
D11*
G04 #@! TO.C,D115*
X121920000Y-40005000D03*
D12*
X121920000Y-37465000D03*
G04 #@! TD*
D11*
G04 #@! TO.C,D87*
X93980000Y-67945000D03*
D12*
X93980000Y-65405000D03*
G04 #@! TD*
D11*
G04 #@! TO.C,D86*
X93980000Y-60960000D03*
D12*
X93980000Y-58420000D03*
G04 #@! TD*
D11*
G04 #@! TO.C,D108*
X114935000Y-46990000D03*
D12*
X114935000Y-44450000D03*
G04 #@! TD*
D11*
G04 #@! TO.C,D84*
X93980000Y-46990000D03*
D12*
X93980000Y-44450000D03*
G04 #@! TD*
D11*
G04 #@! TO.C,D111*
X114935000Y-67945000D03*
D12*
X114935000Y-65405000D03*
G04 #@! TD*
D11*
G04 #@! TO.C,D106*
X114935000Y-33020000D03*
D12*
X114935000Y-30480000D03*
G04 #@! TD*
D11*
G04 #@! TO.C,D98*
X107950000Y-33020000D03*
D12*
X107950000Y-30480000D03*
G04 #@! TD*
D11*
G04 #@! TO.C,D90*
X100965000Y-33020000D03*
D12*
X100965000Y-30480000D03*
G04 #@! TD*
D11*
G04 #@! TO.C,D93*
X100965000Y-53975000D03*
D12*
X100965000Y-51435000D03*
G04 #@! TD*
D11*
G04 #@! TO.C,D104*
X107950000Y-74930000D03*
D12*
X107950000Y-72390000D03*
G04 #@! TD*
D11*
G04 #@! TO.C,D110*
X114935000Y-60960000D03*
D12*
X114935000Y-58420000D03*
G04 #@! TD*
D11*
G04 #@! TO.C,D102*
X107950000Y-60960000D03*
D12*
X107950000Y-58420000D03*
G04 #@! TD*
D11*
G04 #@! TO.C,D101*
X107950000Y-53975000D03*
D12*
X107950000Y-51435000D03*
G04 #@! TD*
D11*
G04 #@! TO.C,D117*
X121920000Y-53975000D03*
D12*
X121920000Y-51435000D03*
G04 #@! TD*
D11*
G04 #@! TO.C,D107*
X114935000Y-40005000D03*
D12*
X114935000Y-37465000D03*
G04 #@! TD*
D11*
G04 #@! TO.C,D85*
X93980000Y-53975000D03*
D12*
X93980000Y-51435000D03*
G04 #@! TD*
D11*
G04 #@! TO.C,D83*
X93980000Y-40005000D03*
D12*
X93980000Y-37465000D03*
G04 #@! TD*
D11*
G04 #@! TO.C,D82*
X93980000Y-33020000D03*
D12*
X93980000Y-30480000D03*
G04 #@! TD*
D11*
G04 #@! TO.C,D116*
X121920000Y-46990000D03*
D12*
X121920000Y-44450000D03*
G04 #@! TD*
D11*
G04 #@! TO.C,D100*
X107950000Y-46990000D03*
D12*
X107950000Y-44450000D03*
G04 #@! TD*
D11*
G04 #@! TO.C,D96*
X100965000Y-74930000D03*
D12*
X100965000Y-72390000D03*
G04 #@! TD*
D11*
G04 #@! TO.C,D94*
X100965000Y-60960000D03*
D12*
X100965000Y-58420000D03*
G04 #@! TD*
D11*
G04 #@! TO.C,D95*
X100965000Y-67945000D03*
D12*
X100965000Y-65405000D03*
G04 #@! TD*
D11*
G04 #@! TO.C,D114*
X121920000Y-33020000D03*
D12*
X121920000Y-30480000D03*
G04 #@! TD*
D11*
G04 #@! TO.C,D91*
X100965000Y-40005000D03*
D12*
X100965000Y-37465000D03*
G04 #@! TD*
D11*
G04 #@! TO.C,D112*
X114935000Y-74930000D03*
D12*
X114935000Y-72390000D03*
G04 #@! TD*
D11*
G04 #@! TO.C,D109*
X114935000Y-53975000D03*
D12*
X114935000Y-51435000D03*
G04 #@! TD*
D11*
G04 #@! TO.C,D103*
X107950000Y-67945000D03*
D12*
X107950000Y-65405000D03*
G04 #@! TD*
D11*
G04 #@! TO.C,D99*
X107950000Y-40005000D03*
D12*
X107950000Y-37465000D03*
G04 #@! TD*
D11*
G04 #@! TO.C,D88*
X93980000Y-74930000D03*
D12*
X93980000Y-72390000D03*
G04 #@! TD*
D11*
G04 #@! TO.C,D203*
X198755000Y-40005000D03*
D12*
X198755000Y-37465000D03*
G04 #@! TD*
D11*
G04 #@! TO.C,D204*
X198755000Y-46990000D03*
D12*
X198755000Y-44450000D03*
G04 #@! TD*
D11*
G04 #@! TO.C,D200*
X191770000Y-74930000D03*
D12*
X191770000Y-72390000D03*
G04 #@! TD*
D11*
G04 #@! TO.C,D206*
X198755000Y-60960000D03*
D12*
X198755000Y-58420000D03*
G04 #@! TD*
D11*
G04 #@! TO.C,D205*
X198755000Y-53975000D03*
D12*
X198755000Y-51435000D03*
G04 #@! TD*
D11*
G04 #@! TO.C,D198*
X191770000Y-60960000D03*
D12*
X191770000Y-58420000D03*
G04 #@! TD*
D11*
G04 #@! TO.C,D192*
X184785000Y-74930000D03*
D12*
X184785000Y-72390000D03*
G04 #@! TD*
D11*
G04 #@! TO.C,D191*
X184785000Y-67945000D03*
D12*
X184785000Y-65405000D03*
G04 #@! TD*
D11*
G04 #@! TO.C,D202*
X198755000Y-33020000D03*
D12*
X198755000Y-30480000D03*
G04 #@! TD*
D11*
G04 #@! TO.C,D190*
X184785000Y-60960000D03*
D12*
X184785000Y-58420000D03*
G04 #@! TD*
D11*
G04 #@! TO.C,D199*
X191770000Y-67945000D03*
D12*
X191770000Y-65405000D03*
G04 #@! TD*
D11*
G04 #@! TO.C,D197*
X191770000Y-53975000D03*
D12*
X191770000Y-51435000D03*
G04 #@! TD*
D11*
G04 #@! TO.C,D196*
X191770000Y-46990000D03*
D12*
X191770000Y-44450000D03*
G04 #@! TD*
D11*
G04 #@! TO.C,D195*
X191770000Y-40005000D03*
D12*
X191770000Y-37465000D03*
G04 #@! TD*
D11*
G04 #@! TO.C,D194*
X191770000Y-33020000D03*
D12*
X191770000Y-30480000D03*
G04 #@! TD*
D11*
G04 #@! TO.C,D207*
X198755000Y-67945000D03*
D12*
X198755000Y-65405000D03*
G04 #@! TD*
D11*
G04 #@! TO.C,D61*
X73025000Y-53975000D03*
D12*
X73025000Y-51435000D03*
G04 #@! TD*
D11*
G04 #@! TO.C,D66*
X80010000Y-33020000D03*
D12*
X80010000Y-30480000D03*
G04 #@! TD*
D11*
G04 #@! TO.C,D54*
X66040000Y-60960000D03*
D12*
X66040000Y-58420000D03*
G04 #@! TD*
D11*
G04 #@! TO.C,D53*
X66040000Y-53975000D03*
D12*
X66040000Y-51435000D03*
G04 #@! TD*
D11*
G04 #@! TO.C,D58*
X73025000Y-33020000D03*
D12*
X73025000Y-30480000D03*
G04 #@! TD*
D11*
G04 #@! TO.C,D51*
X66040000Y-40005000D03*
D12*
X66040000Y-37465000D03*
G04 #@! TD*
D11*
G04 #@! TO.C,D64*
X73025000Y-74930000D03*
D12*
X73025000Y-72390000D03*
G04 #@! TD*
D11*
G04 #@! TO.C,D74*
X86995000Y-33020000D03*
D12*
X86995000Y-30480000D03*
G04 #@! TD*
D11*
G04 #@! TO.C,D67*
X80010000Y-40005000D03*
D12*
X80010000Y-37465000D03*
G04 #@! TD*
D11*
G04 #@! TO.C,D80*
X86995000Y-74930000D03*
D12*
X86995000Y-72390000D03*
G04 #@! TD*
D11*
G04 #@! TO.C,D77*
X86995000Y-53975000D03*
D12*
X86995000Y-51435000D03*
G04 #@! TD*
D11*
G04 #@! TO.C,D72*
X80010000Y-74930000D03*
D12*
X80010000Y-72390000D03*
G04 #@! TD*
D11*
G04 #@! TO.C,D55*
X66040000Y-67945000D03*
D12*
X66040000Y-65405000D03*
G04 #@! TD*
D11*
G04 #@! TO.C,D70*
X80010000Y-60960000D03*
D12*
X80010000Y-58420000D03*
G04 #@! TD*
D11*
G04 #@! TO.C,D56*
X66040000Y-74930000D03*
D12*
X66040000Y-72390000D03*
G04 #@! TD*
D11*
G04 #@! TO.C,D52*
X66040000Y-46990000D03*
D12*
X66040000Y-44450000D03*
G04 #@! TD*
D11*
G04 #@! TO.C,D50*
X66040000Y-33020000D03*
D12*
X66040000Y-30480000D03*
G04 #@! TD*
D11*
G04 #@! TO.C,D75*
X86995000Y-40005000D03*
D12*
X86995000Y-37465000D03*
G04 #@! TD*
D11*
G04 #@! TO.C,D62*
X73025000Y-60960000D03*
D12*
X73025000Y-58420000D03*
G04 #@! TD*
D11*
G04 #@! TO.C,D78*
X86995000Y-60960000D03*
D12*
X86995000Y-58420000D03*
G04 #@! TD*
D11*
G04 #@! TO.C,D60*
X73025000Y-46990000D03*
D12*
X73025000Y-44450000D03*
G04 #@! TD*
D11*
G04 #@! TO.C,D76*
X86995000Y-46990000D03*
D12*
X86995000Y-44450000D03*
G04 #@! TD*
D11*
G04 #@! TO.C,D69*
X80010000Y-53975000D03*
D12*
X80010000Y-51435000D03*
G04 #@! TD*
D11*
G04 #@! TO.C,D63*
X73025000Y-67945000D03*
D12*
X73025000Y-65405000D03*
G04 #@! TD*
D11*
G04 #@! TO.C,D59*
X73025000Y-40005000D03*
D12*
X73025000Y-37465000D03*
G04 #@! TD*
D11*
G04 #@! TO.C,D71*
X80010000Y-67945000D03*
D12*
X80010000Y-65405000D03*
G04 #@! TD*
D11*
G04 #@! TO.C,D79*
X86995000Y-67945000D03*
D12*
X86995000Y-65405000D03*
G04 #@! TD*
D11*
G04 #@! TO.C,D68*
X80010000Y-46990000D03*
D12*
X80010000Y-44450000D03*
G04 #@! TD*
D11*
G04 #@! TO.C,D239*
X226695000Y-67945000D03*
D12*
X226695000Y-65405000D03*
G04 #@! TD*
D11*
G04 #@! TO.C,D238*
X226695000Y-60960000D03*
D12*
X226695000Y-58420000D03*
G04 #@! TD*
D11*
G04 #@! TO.C,D237*
X226695000Y-53975000D03*
D12*
X226695000Y-51435000D03*
G04 #@! TD*
D11*
G04 #@! TO.C,D236*
X226695000Y-46990000D03*
D12*
X226695000Y-44450000D03*
G04 #@! TD*
D11*
G04 #@! TO.C,D232*
X219710000Y-74930000D03*
D12*
X219710000Y-72390000D03*
G04 #@! TD*
D11*
G04 #@! TO.C,D235*
X226695000Y-40005000D03*
D12*
X226695000Y-37465000D03*
G04 #@! TD*
D11*
G04 #@! TO.C,D234*
X226695000Y-33020000D03*
D12*
X226695000Y-30480000D03*
G04 #@! TD*
D11*
G04 #@! TO.C,D231*
X219710000Y-67945000D03*
D12*
X219710000Y-65405000D03*
G04 #@! TD*
D11*
G04 #@! TO.C,D230*
X219710000Y-60960000D03*
D12*
X219710000Y-58420000D03*
G04 #@! TD*
D11*
G04 #@! TO.C,D229*
X219710000Y-53975000D03*
D12*
X219710000Y-51435000D03*
G04 #@! TD*
D11*
G04 #@! TO.C,D228*
X219710000Y-46990000D03*
D12*
X219710000Y-44450000D03*
G04 #@! TD*
D11*
G04 #@! TO.C,D227*
X219710000Y-40005000D03*
D12*
X219710000Y-37465000D03*
G04 #@! TD*
D11*
G04 #@! TO.C,D226*
X219710000Y-33020000D03*
D12*
X219710000Y-30480000D03*
G04 #@! TD*
D11*
G04 #@! TO.C,D243*
X233680000Y-40005000D03*
D12*
X233680000Y-37465000D03*
G04 #@! TD*
D11*
G04 #@! TO.C,D242*
X233680000Y-33020000D03*
D12*
X233680000Y-30480000D03*
G04 #@! TD*
D11*
G04 #@! TO.C,D240*
X226695000Y-74930000D03*
D12*
X226695000Y-72390000D03*
G04 #@! TD*
D11*
G04 #@! TO.C,D210*
X205740000Y-33020000D03*
D12*
X205740000Y-30480000D03*
G04 #@! TD*
D11*
G04 #@! TO.C,D215*
X205740000Y-67945000D03*
D12*
X205740000Y-65405000D03*
G04 #@! TD*
D11*
G04 #@! TO.C,D218*
X212725000Y-33020000D03*
D12*
X212725000Y-30480000D03*
G04 #@! TD*
D11*
G04 #@! TO.C,D220*
X212725000Y-46990000D03*
D12*
X212725000Y-44450000D03*
G04 #@! TD*
D11*
G04 #@! TO.C,D212*
X205740000Y-46990000D03*
D12*
X205740000Y-44450000D03*
G04 #@! TD*
D11*
G04 #@! TO.C,D222*
X212725000Y-60960000D03*
D12*
X212725000Y-58420000D03*
G04 #@! TD*
D11*
G04 #@! TO.C,D211*
X205740000Y-40005000D03*
D12*
X205740000Y-37465000D03*
G04 #@! TD*
D11*
G04 #@! TO.C,D208*
X198755000Y-74930000D03*
D12*
X198755000Y-72390000D03*
G04 #@! TD*
D11*
G04 #@! TO.C,D219*
X212725000Y-40005000D03*
D12*
X212725000Y-37465000D03*
G04 #@! TD*
D11*
G04 #@! TO.C,D221*
X212725000Y-53975000D03*
D12*
X212725000Y-51435000D03*
G04 #@! TD*
D11*
G04 #@! TO.C,D216*
X205740000Y-74930000D03*
D12*
X205740000Y-72390000D03*
G04 #@! TD*
D11*
G04 #@! TO.C,D213*
X205740000Y-53975000D03*
D12*
X205740000Y-51435000D03*
G04 #@! TD*
D11*
G04 #@! TO.C,D224*
X212725000Y-74930000D03*
D12*
X212725000Y-72390000D03*
G04 #@! TD*
D11*
G04 #@! TO.C,D223*
X212725000Y-67945000D03*
D12*
X212725000Y-65405000D03*
G04 #@! TD*
D11*
G04 #@! TO.C,D214*
X205740000Y-60960000D03*
D12*
X205740000Y-58420000D03*
G04 #@! TD*
D13*
G04 #@! TO.C,J8*
X46725000Y-16510000D03*
X43225000Y-16510000D03*
X39725000Y-16510000D03*
X36225000Y-16510000D03*
X32725000Y-16510000D03*
X29225000Y-16510000D03*
X25725000Y-16510000D03*
D14*
X22225000Y-16510000D03*
G04 #@! TD*
D13*
G04 #@! TO.C,J11*
X136260000Y-16510000D03*
X132760000Y-16510000D03*
X129260000Y-16510000D03*
X125760000Y-16510000D03*
X122260000Y-16510000D03*
X118760000Y-16510000D03*
X115260000Y-16510000D03*
D14*
X111760000Y-16510000D03*
G04 #@! TD*
D13*
G04 #@! TO.C,J10*
X106415000Y-16510000D03*
X102915000Y-16510000D03*
X99415000Y-16510000D03*
X95915000Y-16510000D03*
X92415000Y-16510000D03*
X88915000Y-16510000D03*
X85415000Y-16510000D03*
D14*
X81915000Y-16510000D03*
G04 #@! TD*
D13*
G04 #@! TO.C,J9*
X76570000Y-16510000D03*
X73070000Y-16510000D03*
X69570000Y-16510000D03*
X66070000Y-16510000D03*
X62570000Y-16510000D03*
X59070000Y-16510000D03*
X55570000Y-16510000D03*
D14*
X52070000Y-16510000D03*
G04 #@! TD*
D13*
G04 #@! TO.C,J7*
X16510000Y-47995000D03*
X16510000Y-44495000D03*
X16510000Y-40995000D03*
X16510000Y-37495000D03*
X16510000Y-33995000D03*
X16510000Y-30495000D03*
X16510000Y-26995000D03*
D14*
X16510000Y-23495000D03*
G04 #@! TD*
D11*
G04 #@! TO.C,D249*
X240665000Y-26035000D03*
D12*
X240665000Y-23495000D03*
G04 #@! TD*
D11*
G04 #@! TO.C,D241*
X233680000Y-26035000D03*
D12*
X233680000Y-23495000D03*
G04 #@! TD*
D11*
G04 #@! TO.C,D233*
X226695000Y-26035000D03*
D12*
X226695000Y-23495000D03*
G04 #@! TD*
D11*
G04 #@! TO.C,D225*
X219710000Y-26035000D03*
D12*
X219710000Y-23495000D03*
G04 #@! TD*
D11*
G04 #@! TO.C,D217*
X212725000Y-26035000D03*
D12*
X212725000Y-23495000D03*
G04 #@! TD*
D11*
G04 #@! TO.C,D209*
X205740000Y-26035000D03*
D12*
X205740000Y-23495000D03*
G04 #@! TD*
D11*
G04 #@! TO.C,D201*
X198755000Y-26035000D03*
D12*
X198755000Y-23495000D03*
G04 #@! TD*
D11*
G04 #@! TO.C,D193*
X191770000Y-26035000D03*
D12*
X191770000Y-23495000D03*
G04 #@! TD*
D11*
G04 #@! TO.C,D185*
X184785000Y-26035000D03*
D12*
X184785000Y-23495000D03*
G04 #@! TD*
D11*
G04 #@! TO.C,D177*
X177800000Y-26035000D03*
D12*
X177800000Y-23495000D03*
G04 #@! TD*
D11*
G04 #@! TO.C,D169*
X170815000Y-26035000D03*
D12*
X170815000Y-23495000D03*
G04 #@! TD*
D11*
G04 #@! TO.C,D161*
X163830000Y-26035000D03*
D12*
X163830000Y-23495000D03*
G04 #@! TD*
D11*
G04 #@! TO.C,D153*
X156845000Y-26035000D03*
D12*
X156845000Y-23495000D03*
G04 #@! TD*
D11*
G04 #@! TO.C,D145*
X149860000Y-26035000D03*
D12*
X149860000Y-23495000D03*
G04 #@! TD*
D11*
G04 #@! TO.C,D137*
X142875000Y-26035000D03*
D12*
X142875000Y-23495000D03*
G04 #@! TD*
D11*
G04 #@! TO.C,D129*
X135890000Y-26035000D03*
D12*
X135890000Y-23495000D03*
G04 #@! TD*
D11*
G04 #@! TO.C,D121*
X128905000Y-26035000D03*
D12*
X128905000Y-23495000D03*
G04 #@! TD*
D11*
G04 #@! TO.C,D113*
X121920000Y-26035000D03*
D12*
X121920000Y-23495000D03*
G04 #@! TD*
D11*
G04 #@! TO.C,D105*
X114935000Y-26035000D03*
D12*
X114935000Y-23495000D03*
G04 #@! TD*
D11*
G04 #@! TO.C,D97*
X107950000Y-26035000D03*
D12*
X107950000Y-23495000D03*
G04 #@! TD*
D11*
G04 #@! TO.C,D89*
X100965000Y-26035000D03*
D12*
X100965000Y-23495000D03*
G04 #@! TD*
D11*
G04 #@! TO.C,D81*
X93980000Y-26035000D03*
D12*
X93980000Y-23495000D03*
G04 #@! TD*
D11*
G04 #@! TO.C,D73*
X86995000Y-26035000D03*
D12*
X86995000Y-23495000D03*
G04 #@! TD*
D11*
G04 #@! TO.C,D65*
X80010000Y-26035000D03*
D12*
X80010000Y-23495000D03*
G04 #@! TD*
D11*
G04 #@! TO.C,D57*
X73025000Y-26035000D03*
D12*
X73025000Y-23495000D03*
G04 #@! TD*
D11*
G04 #@! TO.C,D49*
X66040000Y-26035000D03*
D12*
X66040000Y-23495000D03*
G04 #@! TD*
D11*
G04 #@! TO.C,D48*
X59055000Y-74930000D03*
D12*
X59055000Y-72390000D03*
G04 #@! TD*
G04 #@! TO.C,D47*
X59055000Y-65405000D03*
D11*
X59055000Y-67945000D03*
G04 #@! TD*
G04 #@! TO.C,D46*
X59055000Y-60960000D03*
D12*
X59055000Y-58420000D03*
G04 #@! TD*
D11*
G04 #@! TO.C,D45*
X59055000Y-53975000D03*
D12*
X59055000Y-51435000D03*
G04 #@! TD*
D11*
G04 #@! TO.C,D44*
X59055000Y-46990000D03*
D12*
X59055000Y-44450000D03*
G04 #@! TD*
D11*
G04 #@! TO.C,D43*
X59055000Y-40005000D03*
D12*
X59055000Y-37465000D03*
G04 #@! TD*
D11*
G04 #@! TO.C,D42*
X59055000Y-33020000D03*
D12*
X59055000Y-30480000D03*
G04 #@! TD*
D11*
G04 #@! TO.C,D41*
X59055000Y-26035000D03*
D12*
X59055000Y-23495000D03*
G04 #@! TD*
D11*
G04 #@! TO.C,D40*
X52070000Y-74930000D03*
D12*
X52070000Y-72390000D03*
G04 #@! TD*
D11*
G04 #@! TO.C,D39*
X52070000Y-67945000D03*
D12*
X52070000Y-65405000D03*
G04 #@! TD*
D11*
G04 #@! TO.C,D38*
X52070000Y-60960000D03*
D12*
X52070000Y-58420000D03*
G04 #@! TD*
D11*
G04 #@! TO.C,D37*
X52070000Y-53975000D03*
D12*
X52070000Y-51435000D03*
G04 #@! TD*
D11*
G04 #@! TO.C,D36*
X52070000Y-46990000D03*
D12*
X52070000Y-44450000D03*
G04 #@! TD*
D11*
G04 #@! TO.C,D35*
X52070000Y-40005000D03*
D12*
X52070000Y-37465000D03*
G04 #@! TD*
D11*
G04 #@! TO.C,D34*
X52070000Y-33020000D03*
D12*
X52070000Y-30480000D03*
G04 #@! TD*
D11*
G04 #@! TO.C,D33*
X52070000Y-26035000D03*
D12*
X52070000Y-23495000D03*
G04 #@! TD*
D11*
G04 #@! TO.C,D32*
X45085000Y-74930000D03*
D12*
X45085000Y-72390000D03*
G04 #@! TD*
D11*
G04 #@! TO.C,D31*
X45085000Y-67945000D03*
D12*
X45085000Y-65405000D03*
G04 #@! TD*
D11*
G04 #@! TO.C,D30*
X45085000Y-60960000D03*
D12*
X45085000Y-58420000D03*
G04 #@! TD*
D11*
G04 #@! TO.C,D29*
X45085000Y-53975000D03*
D12*
X45085000Y-51435000D03*
G04 #@! TD*
D11*
G04 #@! TO.C,D28*
X45085000Y-46990000D03*
D12*
X45085000Y-44450000D03*
G04 #@! TD*
D11*
G04 #@! TO.C,D27*
X45085000Y-40005000D03*
D12*
X45085000Y-37465000D03*
G04 #@! TD*
D11*
G04 #@! TO.C,D26*
X45085000Y-33020000D03*
D12*
X45085000Y-30480000D03*
G04 #@! TD*
D11*
G04 #@! TO.C,D25*
X45085000Y-26035000D03*
D12*
X45085000Y-23495000D03*
G04 #@! TD*
D11*
G04 #@! TO.C,D24*
X38100000Y-74930000D03*
D12*
X38100000Y-72390000D03*
G04 #@! TD*
D11*
G04 #@! TO.C,D23*
X38100000Y-67945000D03*
D12*
X38100000Y-65405000D03*
G04 #@! TD*
D11*
G04 #@! TO.C,D22*
X38100000Y-60960000D03*
D12*
X38100000Y-58420000D03*
G04 #@! TD*
D11*
G04 #@! TO.C,D21*
X38100000Y-53975000D03*
D12*
X38100000Y-51435000D03*
G04 #@! TD*
D11*
G04 #@! TO.C,D20*
X38100000Y-46990000D03*
D12*
X38100000Y-44450000D03*
G04 #@! TD*
D11*
G04 #@! TO.C,D19*
X38100000Y-40005000D03*
D12*
X38100000Y-37465000D03*
G04 #@! TD*
D11*
G04 #@! TO.C,D18*
X38100000Y-33020000D03*
D12*
X38100000Y-30480000D03*
G04 #@! TD*
D11*
G04 #@! TO.C,D17*
X38100000Y-26035000D03*
D12*
X38100000Y-23495000D03*
G04 #@! TD*
D11*
G04 #@! TO.C,D16*
X31115000Y-74930000D03*
D12*
X31115000Y-72390000D03*
G04 #@! TD*
D11*
G04 #@! TO.C,D15*
X31115000Y-67945000D03*
D12*
X31115000Y-65405000D03*
G04 #@! TD*
D11*
G04 #@! TO.C,D14*
X31115000Y-60960000D03*
D12*
X31115000Y-58420000D03*
G04 #@! TD*
D11*
G04 #@! TO.C,D13*
X31115000Y-53975000D03*
D12*
X31115000Y-51435000D03*
G04 #@! TD*
D11*
G04 #@! TO.C,D12*
X31115000Y-46990000D03*
D12*
X31115000Y-44450000D03*
G04 #@! TD*
D11*
G04 #@! TO.C,D11*
X31115000Y-40005000D03*
D12*
X31115000Y-37465000D03*
G04 #@! TD*
D11*
G04 #@! TO.C,D10*
X31115000Y-33020000D03*
D12*
X31115000Y-30480000D03*
G04 #@! TD*
D11*
G04 #@! TO.C,D9*
X31115000Y-26035000D03*
D12*
X31115000Y-23495000D03*
G04 #@! TD*
D11*
G04 #@! TO.C,D8*
X24130000Y-74930000D03*
D12*
X24130000Y-72390000D03*
G04 #@! TD*
D11*
G04 #@! TO.C,D7*
X24130000Y-67945000D03*
D12*
X24130000Y-65405000D03*
G04 #@! TD*
D11*
G04 #@! TO.C,D6*
X24130000Y-60960000D03*
D12*
X24130000Y-58420000D03*
G04 #@! TD*
D11*
G04 #@! TO.C,D5*
X24130000Y-53975000D03*
D12*
X24130000Y-51435000D03*
G04 #@! TD*
D11*
G04 #@! TO.C,D4*
X24130000Y-46990000D03*
D12*
X24130000Y-44450000D03*
G04 #@! TD*
D11*
G04 #@! TO.C,D3*
X24130000Y-40005000D03*
D12*
X24130000Y-37465000D03*
G04 #@! TD*
D11*
G04 #@! TO.C,D2*
X24130000Y-33020000D03*
D12*
X24130000Y-30480000D03*
G04 #@! TD*
D11*
G04 #@! TO.C,D1*
X24130000Y-26035000D03*
D12*
X24130000Y-23495000D03*
G04 #@! TD*
M02*
