M48
; DRILL file {KiCad (5.1.10)-1} date 12/13/23 16:59:53
; FORMAT={-:-/ absolute / metric / decimal}
; #@! TF.CreationDate,2023-12-13T16:59:53-05:00
; #@! TF.GenerationSoftware,Kicad,Pcbnew,(5.1.10)-1
; #@! TF.FileFunction,Plated,1,2,PTH
FMAT,2
METRIC
T1C0.400
T2C0.900
T3C1.200
%
G90
G05
T1
X50.165Y-22.225
X64.135Y-22.225
X78.105Y-22.225
X92.075Y-22.225
X106.045Y-22.225
X120.015Y-22.225
X133.985Y-22.225
X147.955Y-22.225
X161.925Y-22.225
X175.895Y-22.225
X189.865Y-22.225
X203.835Y-22.225
X217.805Y-22.225
X231.775Y-22.225
T2
X24.13Y-23.495
X24.13Y-26.035
X24.13Y-30.48
X24.13Y-33.02
X24.13Y-37.465
X24.13Y-40.005
X24.13Y-44.45
X24.13Y-46.99
X24.13Y-51.435
X24.13Y-53.975
X24.13Y-58.42
X24.13Y-60.96
X24.13Y-65.405
X24.13Y-67.945
X24.13Y-72.39
X24.13Y-74.93
X31.115Y-23.495
X31.115Y-26.035
X31.115Y-30.48
X31.115Y-33.02
X31.115Y-37.465
X31.115Y-40.005
X31.115Y-44.45
X31.115Y-46.99
X31.115Y-51.435
X31.115Y-53.975
X31.115Y-58.42
X31.115Y-60.96
X31.115Y-65.405
X31.115Y-67.945
X31.115Y-72.39
X31.115Y-74.93
X38.1Y-23.495
X38.1Y-26.035
X38.1Y-30.48
X38.1Y-33.02
X38.1Y-37.465
X38.1Y-40.005
X38.1Y-44.45
X38.1Y-46.99
X38.1Y-51.435
X38.1Y-53.975
X38.1Y-58.42
X38.1Y-60.96
X38.1Y-65.405
X38.1Y-67.945
X38.1Y-72.39
X38.1Y-74.93
X45.085Y-23.495
X45.085Y-26.035
X45.085Y-30.48
X45.085Y-33.02
X45.085Y-37.465
X45.085Y-40.005
X45.085Y-44.45
X45.085Y-46.99
X45.085Y-51.435
X45.085Y-53.975
X45.085Y-58.42
X45.085Y-60.96
X45.085Y-65.405
X45.085Y-67.945
X45.085Y-72.39
X45.085Y-74.93
X52.07Y-23.495
X52.07Y-26.035
X52.07Y-30.48
X52.07Y-33.02
X52.07Y-37.465
X52.07Y-40.005
X52.07Y-44.45
X52.07Y-46.99
X52.07Y-51.435
X52.07Y-53.975
X52.07Y-58.42
X52.07Y-60.96
X52.07Y-65.405
X52.07Y-67.945
X52.07Y-72.39
X52.07Y-74.93
X59.055Y-23.495
X59.055Y-26.035
X59.055Y-30.48
X59.055Y-33.02
X59.055Y-37.465
X59.055Y-40.005
X59.055Y-44.45
X59.055Y-46.99
X59.055Y-51.435
X59.055Y-53.975
X59.055Y-58.42
X59.055Y-60.96
X59.055Y-65.405
X59.055Y-67.945
X59.055Y-72.39
X59.055Y-74.93
X66.04Y-23.495
X66.04Y-26.035
X66.04Y-30.48
X66.04Y-33.02
X66.04Y-37.465
X66.04Y-40.005
X66.04Y-44.45
X66.04Y-46.99
X66.04Y-51.435
X66.04Y-53.975
X66.04Y-58.42
X66.04Y-60.96
X66.04Y-65.405
X66.04Y-67.945
X66.04Y-72.39
X66.04Y-74.93
X73.025Y-23.495
X73.025Y-26.035
X73.025Y-30.48
X73.025Y-33.02
X73.025Y-37.465
X73.025Y-40.005
X73.025Y-44.45
X73.025Y-46.99
X73.025Y-51.435
X73.025Y-53.975
X73.025Y-58.42
X73.025Y-60.96
X73.025Y-65.405
X73.025Y-67.945
X73.025Y-72.39
X73.025Y-74.93
X80.01Y-23.495
X80.01Y-26.035
X80.01Y-30.48
X80.01Y-33.02
X80.01Y-37.465
X80.01Y-40.005
X80.01Y-44.45
X80.01Y-46.99
X80.01Y-51.435
X80.01Y-53.975
X80.01Y-58.42
X80.01Y-60.96
X80.01Y-65.405
X80.01Y-67.945
X80.01Y-72.39
X80.01Y-74.93
X86.995Y-23.495
X86.995Y-26.035
X86.995Y-30.48
X86.995Y-33.02
X86.995Y-37.465
X86.995Y-40.005
X86.995Y-44.45
X86.995Y-46.99
X86.995Y-51.435
X86.995Y-53.975
X86.995Y-58.42
X86.995Y-60.96
X86.995Y-65.405
X86.995Y-67.945
X86.995Y-72.39
X86.995Y-74.93
X93.98Y-23.495
X93.98Y-26.035
X93.98Y-30.48
X93.98Y-33.02
X93.98Y-37.465
X93.98Y-40.005
X93.98Y-44.45
X93.98Y-46.99
X93.98Y-51.435
X93.98Y-53.975
X93.98Y-58.42
X93.98Y-60.96
X93.98Y-65.405
X93.98Y-67.945
X93.98Y-72.39
X93.98Y-74.93
X100.965Y-23.495
X100.965Y-26.035
X100.965Y-30.48
X100.965Y-33.02
X100.965Y-37.465
X100.965Y-40.005
X100.965Y-44.45
X100.965Y-46.99
X100.965Y-51.435
X100.965Y-53.975
X100.965Y-58.42
X100.965Y-60.96
X100.965Y-65.405
X100.965Y-67.945
X100.965Y-72.39
X100.965Y-74.93
X107.95Y-23.495
X107.95Y-26.035
X107.95Y-30.48
X107.95Y-33.02
X107.95Y-37.465
X107.95Y-40.005
X107.95Y-44.45
X107.95Y-46.99
X107.95Y-51.435
X107.95Y-53.975
X107.95Y-58.42
X107.95Y-60.96
X107.95Y-65.405
X107.95Y-67.945
X107.95Y-72.39
X107.95Y-74.93
X114.935Y-23.495
X114.935Y-26.035
X114.935Y-30.48
X114.935Y-33.02
X114.935Y-37.465
X114.935Y-40.005
X114.935Y-44.45
X114.935Y-46.99
X114.935Y-51.435
X114.935Y-53.975
X114.935Y-58.42
X114.935Y-60.96
X114.935Y-65.405
X114.935Y-67.945
X114.935Y-72.39
X114.935Y-74.93
X121.92Y-23.495
X121.92Y-26.035
X121.92Y-30.48
X121.92Y-33.02
X121.92Y-37.465
X121.92Y-40.005
X121.92Y-44.45
X121.92Y-46.99
X121.92Y-51.435
X121.92Y-53.975
X121.92Y-58.42
X121.92Y-60.96
X121.92Y-65.405
X121.92Y-67.945
X121.92Y-72.39
X121.92Y-74.93
X128.905Y-23.495
X128.905Y-26.035
X128.905Y-30.48
X128.905Y-33.02
X128.905Y-37.465
X128.905Y-40.005
X128.905Y-44.45
X128.905Y-46.99
X128.905Y-51.435
X128.905Y-53.975
X128.905Y-58.42
X128.905Y-60.96
X128.905Y-65.405
X128.905Y-67.945
X128.905Y-72.39
X128.905Y-74.93
X135.89Y-23.495
X135.89Y-26.035
X135.89Y-30.48
X135.89Y-33.02
X135.89Y-37.465
X135.89Y-40.005
X135.89Y-44.45
X135.89Y-46.99
X135.89Y-51.435
X135.89Y-53.975
X135.89Y-58.42
X135.89Y-60.96
X135.89Y-65.405
X135.89Y-67.945
X135.89Y-72.39
X135.89Y-74.93
X142.769Y-65.405
X142.769Y-67.945
X142.875Y-23.495
X142.875Y-26.035
X142.875Y-30.48
X142.875Y-33.02
X142.875Y-37.465
X142.875Y-40.005
X142.875Y-44.45
X142.875Y-46.99
X142.875Y-51.435
X142.875Y-53.975
X142.875Y-58.42
X142.875Y-60.96
X142.875Y-72.39
X142.875Y-74.93
X149.86Y-23.495
X149.86Y-26.035
X149.86Y-30.48
X149.86Y-33.02
X149.86Y-37.465
X149.86Y-40.005
X149.86Y-44.45
X149.86Y-46.99
X149.86Y-51.435
X149.86Y-53.975
X149.86Y-58.42
X149.86Y-60.96
X149.86Y-65.405
X149.86Y-67.945
X149.86Y-72.39
X149.86Y-74.93
X156.845Y-23.495
X156.845Y-26.035
X156.845Y-30.48
X156.845Y-33.02
X156.845Y-37.465
X156.845Y-40.005
X156.845Y-44.45
X156.845Y-46.99
X156.845Y-51.435
X156.845Y-53.975
X156.845Y-58.42
X156.845Y-60.96
X156.845Y-65.405
X156.845Y-67.945
X156.845Y-72.39
X156.845Y-74.93
X163.83Y-23.495
X163.83Y-26.035
X163.83Y-30.48
X163.83Y-33.02
X163.83Y-37.465
X163.83Y-40.005
X163.83Y-44.45
X163.83Y-46.99
X163.83Y-51.435
X163.83Y-53.975
X163.83Y-58.42
X163.83Y-60.96
X163.83Y-65.405
X163.83Y-67.945
X163.83Y-72.39
X163.83Y-74.93
X170.815Y-23.495
X170.815Y-26.035
X170.815Y-30.48
X170.815Y-33.02
X170.815Y-37.465
X170.815Y-40.005
X170.815Y-44.45
X170.815Y-46.99
X170.815Y-51.435
X170.815Y-53.975
X170.815Y-58.42
X170.815Y-60.96
X170.815Y-65.405
X170.815Y-67.945
X170.815Y-72.39
X170.815Y-74.93
X177.8Y-23.495
X177.8Y-26.035
X177.8Y-30.48
X177.8Y-33.02
X177.8Y-37.465
X177.8Y-40.005
X177.8Y-44.45
X177.8Y-46.99
X177.8Y-51.435
X177.8Y-53.975
X177.8Y-58.42
X177.8Y-60.96
X177.8Y-65.405
X177.8Y-67.945
X177.8Y-72.39
X177.8Y-74.93
X184.785Y-23.495
X184.785Y-26.035
X184.785Y-30.48
X184.785Y-33.02
X184.785Y-37.465
X184.785Y-40.005
X184.785Y-44.45
X184.785Y-46.99
X184.785Y-51.435
X184.785Y-53.975
X184.785Y-58.42
X184.785Y-60.96
X184.785Y-65.405
X184.785Y-67.945
X184.785Y-72.39
X184.785Y-74.93
X191.77Y-23.495
X191.77Y-26.035
X191.77Y-30.48
X191.77Y-33.02
X191.77Y-37.465
X191.77Y-40.005
X191.77Y-44.45
X191.77Y-46.99
X191.77Y-51.435
X191.77Y-53.975
X191.77Y-58.42
X191.77Y-60.96
X191.77Y-65.405
X191.77Y-67.945
X191.77Y-72.39
X191.77Y-74.93
X198.755Y-23.495
X198.755Y-26.035
X198.755Y-30.48
X198.755Y-33.02
X198.755Y-37.465
X198.755Y-40.005
X198.755Y-44.45
X198.755Y-46.99
X198.755Y-51.435
X198.755Y-53.975
X198.755Y-58.42
X198.755Y-60.96
X198.755Y-65.405
X198.755Y-67.945
X198.755Y-72.39
X198.755Y-74.93
X205.74Y-23.495
X205.74Y-26.035
X205.74Y-30.48
X205.74Y-33.02
X205.74Y-37.465
X205.74Y-40.005
X205.74Y-44.45
X205.74Y-46.99
X205.74Y-51.435
X205.74Y-53.975
X205.74Y-58.42
X205.74Y-60.96
X205.74Y-65.405
X205.74Y-67.945
X205.74Y-72.39
X205.74Y-74.93
X212.725Y-23.495
X212.725Y-26.035
X212.725Y-30.48
X212.725Y-33.02
X212.725Y-37.465
X212.725Y-40.005
X212.725Y-44.45
X212.725Y-46.99
X212.725Y-51.435
X212.725Y-53.975
X212.725Y-58.42
X212.725Y-60.96
X212.725Y-65.405
X212.725Y-67.945
X212.725Y-72.39
X212.725Y-74.93
X219.71Y-23.495
X219.71Y-26.035
X219.71Y-30.48
X219.71Y-33.02
X219.71Y-37.465
X219.71Y-40.005
X219.71Y-44.45
X219.71Y-46.99
X219.71Y-51.435
X219.71Y-53.975
X219.71Y-58.42
X219.71Y-60.96
X219.71Y-65.405
X219.71Y-67.945
X219.71Y-72.39
X219.71Y-74.93
X226.695Y-23.495
X226.695Y-26.035
X226.695Y-30.48
X226.695Y-33.02
X226.695Y-37.465
X226.695Y-40.005
X226.695Y-44.45
X226.695Y-46.99
X226.695Y-51.435
X226.695Y-53.975
X226.695Y-58.42
X226.695Y-60.96
X226.695Y-65.405
X226.695Y-67.945
X226.695Y-72.39
X226.695Y-74.93
X233.68Y-23.495
X233.68Y-26.035
X233.68Y-30.48
X233.68Y-33.02
X233.68Y-37.465
X233.68Y-40.005
X233.68Y-44.45
X233.68Y-46.99
X233.68Y-51.435
X233.68Y-53.975
X233.68Y-58.42
X233.68Y-60.96
X233.68Y-65.405
X233.68Y-67.945
X233.68Y-72.39
X233.68Y-74.93
X240.665Y-23.495
X240.665Y-26.035
X240.665Y-30.48
X240.665Y-33.02
X240.665Y-37.465
X240.665Y-40.005
X240.665Y-44.45
X240.665Y-46.99
X240.665Y-51.435
X240.665Y-53.975
X240.665Y-58.42
X240.665Y-60.96
X240.665Y-65.405
X240.665Y-67.945
X240.665Y-72.39
X240.665Y-74.93
T3
X16.51Y-23.495
X16.51Y-26.995
X16.51Y-30.495
X16.51Y-33.995
X16.51Y-37.495
X16.51Y-40.995
X16.51Y-44.495
X16.51Y-47.995
X22.225Y-16.51
X25.725Y-16.51
X29.225Y-16.51
X32.725Y-16.51
X36.225Y-16.51
X39.725Y-16.51
X43.225Y-16.51
X46.725Y-16.51
X52.07Y-16.51
X55.57Y-16.51
X59.07Y-16.51
X62.57Y-16.51
X66.07Y-16.51
X69.57Y-16.51
X73.07Y-16.51
X76.57Y-16.51
X81.915Y-16.51
X85.415Y-16.51
X88.915Y-16.51
X92.415Y-16.51
X95.915Y-16.51
X99.415Y-16.51
X102.915Y-16.51
X106.415Y-16.51
X111.76Y-16.51
X115.26Y-16.51
X118.76Y-16.51
X122.26Y-16.51
X125.76Y-16.51
X129.26Y-16.51
X132.76Y-16.51
X136.26Y-16.51
T0
M30
