G04 #@! TF.GenerationSoftware,KiCad,Pcbnew,(5.1.10)-1*
G04 #@! TF.CreationDate,2023-10-25T11:46:50-04:00*
G04 #@! TF.ProjectId,LED_Matrix_Driver,4c45445f-4d61-4747-9269-785f44726976,rev?*
G04 #@! TF.SameCoordinates,Original*
G04 #@! TF.FileFunction,Soldermask,Bot*
G04 #@! TF.FilePolarity,Negative*
%FSLAX46Y46*%
G04 Gerber Fmt 4.6, Leading zero omitted, Abs format (unit mm)*
G04 Created by KiCad (PCBNEW (5.1.10)-1) date 2023-10-25 11:46:50*
%MOMM*%
%LPD*%
G01*
G04 APERTURE LIST*
%ADD10C,2.400000*%
%ADD11R,2.400000X2.400000*%
%ADD12O,1.400000X1.400000*%
%ADD13C,1.400000*%
%ADD14O,1.600000X1.600000*%
%ADD15R,1.600000X1.600000*%
%ADD16C,1.524000*%
%ADD17C,2.600000*%
%ADD18R,2.600000X2.600000*%
%ADD19C,1.600000*%
G04 APERTURE END LIST*
D10*
X121920000Y-87305000D03*
D11*
X121920000Y-90805000D03*
D12*
X281940000Y-33020000D03*
D13*
X281940000Y-25400000D03*
D12*
X276860000Y-33020000D03*
D13*
X276860000Y-25400000D03*
D12*
X271780000Y-33020000D03*
D13*
X271780000Y-25400000D03*
D12*
X266700000Y-33020000D03*
D13*
X266700000Y-25400000D03*
D12*
X262030000Y-33020000D03*
D13*
X262030000Y-25400000D03*
D12*
X256540000Y-33020000D03*
D13*
X256540000Y-25400000D03*
D12*
X251460000Y-33020000D03*
D13*
X251460000Y-25400000D03*
D14*
X262890000Y-39370000D03*
X280670000Y-46990000D03*
X265430000Y-39370000D03*
X278130000Y-46990000D03*
X267970000Y-39370000D03*
X275590000Y-46990000D03*
X270510000Y-39370000D03*
X273050000Y-46990000D03*
X273050000Y-39370000D03*
X270510000Y-46990000D03*
X275590000Y-39370000D03*
X267970000Y-46990000D03*
X278130000Y-39370000D03*
X265430000Y-46990000D03*
X280670000Y-39370000D03*
D15*
X262890000Y-46990000D03*
D14*
X220980000Y-39370000D03*
X238760000Y-46990000D03*
X223520000Y-39370000D03*
X236220000Y-46990000D03*
X226060000Y-39370000D03*
X233680000Y-46990000D03*
X228600000Y-39370000D03*
X231140000Y-46990000D03*
X231140000Y-39370000D03*
X228600000Y-46990000D03*
X233680000Y-39370000D03*
X226060000Y-46990000D03*
X236220000Y-39370000D03*
X223520000Y-46990000D03*
X238760000Y-39370000D03*
D15*
X220980000Y-46990000D03*
D14*
X179070000Y-39370000D03*
X196850000Y-46990000D03*
X181610000Y-39370000D03*
X194310000Y-46990000D03*
X184150000Y-39370000D03*
X191770000Y-46990000D03*
X186690000Y-39370000D03*
X189230000Y-46990000D03*
X189230000Y-39370000D03*
X186690000Y-46990000D03*
X191770000Y-39370000D03*
X184150000Y-46990000D03*
X194310000Y-39370000D03*
X181610000Y-46990000D03*
X196850000Y-39370000D03*
D15*
X179070000Y-46990000D03*
D14*
X137160000Y-39370000D03*
X154940000Y-46990000D03*
X139700000Y-39370000D03*
X152400000Y-46990000D03*
X142240000Y-39370000D03*
X149860000Y-46990000D03*
X144780000Y-39370000D03*
X147320000Y-46990000D03*
X147320000Y-39370000D03*
X144780000Y-46990000D03*
X149860000Y-39370000D03*
X142240000Y-46990000D03*
X152400000Y-39370000D03*
X139700000Y-46990000D03*
X154940000Y-39370000D03*
D15*
X137160000Y-46990000D03*
D14*
X239395000Y-53340000D03*
X231775000Y-71120000D03*
X239395000Y-55880000D03*
X231775000Y-68580000D03*
X239395000Y-58420000D03*
X231775000Y-66040000D03*
X239395000Y-60960000D03*
X231775000Y-63500000D03*
X239395000Y-63500000D03*
X231775000Y-60960000D03*
X239395000Y-66040000D03*
X231775000Y-58420000D03*
X239395000Y-68580000D03*
X231775000Y-55880000D03*
X239395000Y-71120000D03*
D15*
X231775000Y-53340000D03*
D14*
X269240000Y-55880000D03*
X261620000Y-76200000D03*
X269240000Y-58420000D03*
X261620000Y-73660000D03*
X269240000Y-60960000D03*
X261620000Y-71120000D03*
X269240000Y-63500000D03*
X261620000Y-68580000D03*
X269240000Y-66040000D03*
X261620000Y-66040000D03*
X269240000Y-68580000D03*
X261620000Y-63500000D03*
X269240000Y-71120000D03*
X261620000Y-60960000D03*
X269240000Y-73660000D03*
X261620000Y-58420000D03*
X269240000Y-76200000D03*
D15*
X261620000Y-55880000D03*
D14*
X196850000Y-64770000D03*
X219710000Y-72390000D03*
X199390000Y-64770000D03*
X217170000Y-72390000D03*
X201930000Y-64770000D03*
X214630000Y-72390000D03*
X204470000Y-64770000D03*
X212090000Y-72390000D03*
X207010000Y-64770000D03*
X209550000Y-72390000D03*
X209550000Y-64770000D03*
X207010000Y-72390000D03*
X212090000Y-64770000D03*
X204470000Y-72390000D03*
X214630000Y-64770000D03*
X201930000Y-72390000D03*
X217170000Y-64770000D03*
X199390000Y-72390000D03*
X219710000Y-64770000D03*
D15*
X196850000Y-72390000D03*
D16*
X122555000Y-53340000D03*
X125095000Y-53340000D03*
X127635000Y-53340000D03*
X130175000Y-53340000D03*
X132715000Y-53340000D03*
X135255000Y-53340000D03*
X137795000Y-53340000D03*
X140335000Y-53340000D03*
X142875000Y-53340000D03*
X145415000Y-53340000D03*
X147955000Y-53340000D03*
X150495000Y-53340000D03*
X153035000Y-53340000D03*
X155575000Y-53340000D03*
X158115000Y-53340000D03*
X160655000Y-53340000D03*
X163195000Y-53340000D03*
X165735000Y-53340000D03*
X168275000Y-53340000D03*
X168275000Y-81280000D03*
X165735000Y-81280000D03*
X163195000Y-81280000D03*
X160655000Y-81280000D03*
X158115000Y-81280000D03*
X155575000Y-81280000D03*
X153035000Y-81280000D03*
X150495000Y-81280000D03*
X147955000Y-81280000D03*
X145415000Y-81280000D03*
X142875000Y-81280000D03*
X140335000Y-81280000D03*
X137795000Y-81280000D03*
X135255000Y-81280000D03*
X132715000Y-81280000D03*
X130175000Y-81280000D03*
X127635000Y-81280000D03*
X125095000Y-81280000D03*
X122555000Y-81280000D03*
D12*
X246380000Y-33020000D03*
D13*
X246380000Y-25400000D03*
D12*
X240030000Y-33020000D03*
D13*
X240030000Y-25400000D03*
D12*
X234950000Y-33020000D03*
D13*
X234950000Y-25400000D03*
D12*
X229870000Y-33020000D03*
D13*
X229870000Y-25400000D03*
D12*
X224790000Y-33020000D03*
D13*
X224790000Y-25400000D03*
D12*
X219710000Y-33020000D03*
D13*
X219710000Y-25400000D03*
D12*
X214630000Y-33020000D03*
D13*
X214630000Y-25400000D03*
D12*
X209550000Y-33020000D03*
D13*
X209550000Y-25400000D03*
D12*
X204470000Y-33020000D03*
D13*
X204470000Y-25400000D03*
D12*
X198120000Y-33020000D03*
D13*
X198120000Y-25400000D03*
D12*
X193040000Y-33020000D03*
D13*
X193040000Y-25400000D03*
D12*
X187960000Y-33020000D03*
D13*
X187960000Y-25400000D03*
D12*
X182880000Y-33020000D03*
D13*
X182880000Y-25400000D03*
D12*
X177800000Y-33020000D03*
D13*
X177800000Y-25400000D03*
D12*
X172720000Y-33020000D03*
D13*
X172720000Y-25400000D03*
D12*
X167640000Y-33020000D03*
D13*
X167640000Y-25400000D03*
D12*
X162560000Y-33020000D03*
D13*
X162560000Y-25400000D03*
D12*
X156210000Y-33020000D03*
D13*
X156210000Y-25400000D03*
D12*
X151130000Y-33020000D03*
D13*
X151130000Y-25400000D03*
D12*
X146050000Y-33020000D03*
D13*
X146050000Y-25400000D03*
D12*
X140970000Y-33020000D03*
D13*
X140970000Y-25400000D03*
D12*
X135890000Y-33020000D03*
D13*
X135890000Y-25400000D03*
D12*
X130810000Y-33020000D03*
D13*
X130810000Y-25400000D03*
D12*
X125730000Y-33020000D03*
D13*
X125730000Y-25400000D03*
D12*
X120650000Y-33020000D03*
D13*
X120650000Y-25400000D03*
D12*
X247650000Y-55880000D03*
D13*
X255270000Y-55880000D03*
D12*
X247650000Y-58420000D03*
D13*
X255270000Y-58420000D03*
D12*
X247650000Y-60960000D03*
D13*
X255270000Y-60960000D03*
D12*
X247650000Y-63500000D03*
D13*
X255270000Y-63500000D03*
D12*
X247650000Y-66040000D03*
D13*
X255270000Y-66040000D03*
D12*
X247650000Y-68580000D03*
D13*
X255270000Y-68580000D03*
D12*
X247650000Y-71120000D03*
D13*
X255270000Y-71120000D03*
D12*
X247650000Y-73660000D03*
D13*
X255270000Y-73660000D03*
D12*
X199390000Y-82550000D03*
D13*
X199390000Y-74930000D03*
D12*
X204470000Y-82550000D03*
D13*
X204470000Y-74930000D03*
D12*
X209550000Y-82550000D03*
D13*
X209550000Y-74930000D03*
D12*
X214630000Y-82550000D03*
D13*
X214630000Y-74930000D03*
D12*
X204470000Y-54610000D03*
D13*
X204470000Y-62230000D03*
D12*
X209550000Y-54610000D03*
D13*
X209550000Y-62230000D03*
D12*
X214630000Y-54610000D03*
D13*
X214630000Y-62230000D03*
D17*
X281940000Y-17780000D03*
X276860000Y-17780000D03*
X271780000Y-17780000D03*
X266700000Y-17780000D03*
X261620000Y-17780000D03*
X256540000Y-17780000D03*
X251460000Y-17780000D03*
D18*
X246380000Y-17780000D03*
D17*
X240030000Y-17780000D03*
X234950000Y-17780000D03*
X229870000Y-17780000D03*
X224790000Y-17780000D03*
X219710000Y-17780000D03*
X214630000Y-17780000D03*
X209550000Y-17780000D03*
D18*
X204470000Y-17780000D03*
D17*
X198120000Y-17780000D03*
X193040000Y-17780000D03*
X187960000Y-17780000D03*
X182880000Y-17780000D03*
X177800000Y-17780000D03*
X172720000Y-17780000D03*
X167640000Y-17780000D03*
D18*
X162560000Y-17780000D03*
D17*
X156210000Y-17780000D03*
X151130000Y-17780000D03*
X146050000Y-17780000D03*
X140970000Y-17780000D03*
X135890000Y-17780000D03*
X130810000Y-17780000D03*
X125730000Y-17780000D03*
D18*
X120650000Y-17780000D03*
D17*
X278130000Y-90170000D03*
X278130000Y-85090000D03*
X278130000Y-80010000D03*
X278130000Y-74930000D03*
X278130000Y-69850000D03*
X278130000Y-64770000D03*
X278130000Y-59690000D03*
D18*
X278130000Y-54610000D03*
D14*
X255270000Y-46990000D03*
D19*
X255270000Y-39490000D03*
D14*
X213360000Y-46870000D03*
D19*
X213360000Y-39370000D03*
D14*
X171450000Y-46990000D03*
D19*
X171450000Y-39490000D03*
D14*
X129540000Y-46990000D03*
D19*
X129540000Y-39490000D03*
M02*
