G04 #@! TF.GenerationSoftware,KiCad,Pcbnew,(5.1.10)-1*
G04 #@! TF.CreationDate,2023-10-25T11:46:50-04:00*
G04 #@! TF.ProjectId,LED_Matrix_Driver,4c45445f-4d61-4747-9269-785f44726976,rev?*
G04 #@! TF.SameCoordinates,Original*
G04 #@! TF.FileFunction,Legend,Bot*
G04 #@! TF.FilePolarity,Positive*
%FSLAX46Y46*%
G04 Gerber Fmt 4.6, Leading zero omitted, Abs format (unit mm)*
G04 Created by KiCad (PCBNEW (5.1.10)-1) date 2023-10-25 11:46:50*
%MOMM*%
%LPD*%
G01*
G04 APERTURE LIST*
%ADD10C,0.150000*%
%ADD11C,2.400000*%
%ADD12R,2.400000X2.400000*%
%ADD13O,1.400000X1.400000*%
%ADD14C,1.400000*%
%ADD15O,1.600000X1.600000*%
%ADD16R,1.600000X1.600000*%
%ADD17C,1.524000*%
%ADD18C,2.600000*%
%ADD19R,2.600000X2.600000*%
%ADD20C,1.600000*%
G04 APERTURE END LIST*
D10*
X257427619Y-83677142D02*
X257141904Y-83772380D01*
X257046666Y-83867619D01*
X256951428Y-84058095D01*
X256951428Y-84343809D01*
X257046666Y-84534285D01*
X257141904Y-84629523D01*
X257332380Y-84724761D01*
X258094285Y-84724761D01*
X258094285Y-82724761D01*
X257427619Y-82724761D01*
X257237142Y-82820000D01*
X257141904Y-82915238D01*
X257046666Y-83105714D01*
X257046666Y-83296190D01*
X257141904Y-83486666D01*
X257237142Y-83581904D01*
X257427619Y-83677142D01*
X258094285Y-83677142D01*
X256189523Y-84153333D02*
X255237142Y-84153333D01*
X256380000Y-84724761D02*
X255713333Y-82724761D01*
X255046666Y-84724761D01*
X253237142Y-84534285D02*
X253332380Y-84629523D01*
X253618095Y-84724761D01*
X253808571Y-84724761D01*
X254094285Y-84629523D01*
X254284761Y-84439047D01*
X254380000Y-84248571D01*
X254475238Y-83867619D01*
X254475238Y-83581904D01*
X254380000Y-83200952D01*
X254284761Y-83010476D01*
X254094285Y-82820000D01*
X253808571Y-82724761D01*
X253618095Y-82724761D01*
X253332380Y-82820000D01*
X253237142Y-82915238D01*
X252380000Y-84724761D02*
X252380000Y-82724761D01*
X251237142Y-84724761D02*
X252094285Y-83581904D01*
X251237142Y-82724761D02*
X252380000Y-83867619D01*
X248475238Y-82724761D02*
X248094285Y-82724761D01*
X247903809Y-82820000D01*
X247713333Y-83010476D01*
X247618095Y-83391428D01*
X247618095Y-84058095D01*
X247713333Y-84439047D01*
X247903809Y-84629523D01*
X248094285Y-84724761D01*
X248475238Y-84724761D01*
X248665714Y-84629523D01*
X248856190Y-84439047D01*
X248951428Y-84058095D01*
X248951428Y-83391428D01*
X248856190Y-83010476D01*
X248665714Y-82820000D01*
X248475238Y-82724761D01*
X246094285Y-83677142D02*
X246760952Y-83677142D01*
X246760952Y-84724761D02*
X246760952Y-82724761D01*
X245808571Y-82724761D01*
X242856190Y-83677142D02*
X242570476Y-83772380D01*
X242475238Y-83867619D01*
X242380000Y-84058095D01*
X242380000Y-84343809D01*
X242475238Y-84534285D01*
X242570476Y-84629523D01*
X242760952Y-84724761D01*
X243522857Y-84724761D01*
X243522857Y-82724761D01*
X242856190Y-82724761D01*
X242665714Y-82820000D01*
X242570476Y-82915238D01*
X242475238Y-83105714D01*
X242475238Y-83296190D01*
X242570476Y-83486666D01*
X242665714Y-83581904D01*
X242856190Y-83677142D01*
X243522857Y-83677142D01*
X241141904Y-82724761D02*
X240760952Y-82724761D01*
X240570476Y-82820000D01*
X240380000Y-83010476D01*
X240284761Y-83391428D01*
X240284761Y-84058095D01*
X240380000Y-84439047D01*
X240570476Y-84629523D01*
X240760952Y-84724761D01*
X241141904Y-84724761D01*
X241332380Y-84629523D01*
X241522857Y-84439047D01*
X241618095Y-84058095D01*
X241618095Y-83391428D01*
X241522857Y-83010476D01*
X241332380Y-82820000D01*
X241141904Y-82724761D01*
X239522857Y-84153333D02*
X238570476Y-84153333D01*
X239713333Y-84724761D02*
X239046666Y-82724761D01*
X238380000Y-84724761D01*
X236570476Y-84724761D02*
X237237142Y-83772380D01*
X237713333Y-84724761D02*
X237713333Y-82724761D01*
X236951428Y-82724761D01*
X236760952Y-82820000D01*
X236665714Y-82915238D01*
X236570476Y-83105714D01*
X236570476Y-83391428D01*
X236665714Y-83581904D01*
X236760952Y-83677142D01*
X236951428Y-83772380D01*
X237713333Y-83772380D01*
X235713333Y-84724761D02*
X235713333Y-82724761D01*
X235237142Y-82724761D01*
X234951428Y-82820000D01*
X234760952Y-83010476D01*
X234665714Y-83200952D01*
X234570476Y-83581904D01*
X234570476Y-83867619D01*
X234665714Y-84248571D01*
X234760952Y-84439047D01*
X234951428Y-84629523D01*
X235237142Y-84724761D01*
X235713333Y-84724761D01*
%LPC*%
D11*
X121920000Y-87305000D03*
D12*
X121920000Y-90805000D03*
D13*
X281940000Y-33020000D03*
D14*
X281940000Y-25400000D03*
D13*
X276860000Y-33020000D03*
D14*
X276860000Y-25400000D03*
D13*
X271780000Y-33020000D03*
D14*
X271780000Y-25400000D03*
D13*
X266700000Y-33020000D03*
D14*
X266700000Y-25400000D03*
D13*
X262030000Y-33020000D03*
D14*
X262030000Y-25400000D03*
D13*
X256540000Y-33020000D03*
D14*
X256540000Y-25400000D03*
D13*
X251460000Y-33020000D03*
D14*
X251460000Y-25400000D03*
D15*
X262890000Y-39370000D03*
X280670000Y-46990000D03*
X265430000Y-39370000D03*
X278130000Y-46990000D03*
X267970000Y-39370000D03*
X275590000Y-46990000D03*
X270510000Y-39370000D03*
X273050000Y-46990000D03*
X273050000Y-39370000D03*
X270510000Y-46990000D03*
X275590000Y-39370000D03*
X267970000Y-46990000D03*
X278130000Y-39370000D03*
X265430000Y-46990000D03*
X280670000Y-39370000D03*
D16*
X262890000Y-46990000D03*
D15*
X220980000Y-39370000D03*
X238760000Y-46990000D03*
X223520000Y-39370000D03*
X236220000Y-46990000D03*
X226060000Y-39370000D03*
X233680000Y-46990000D03*
X228600000Y-39370000D03*
X231140000Y-46990000D03*
X231140000Y-39370000D03*
X228600000Y-46990000D03*
X233680000Y-39370000D03*
X226060000Y-46990000D03*
X236220000Y-39370000D03*
X223520000Y-46990000D03*
X238760000Y-39370000D03*
D16*
X220980000Y-46990000D03*
D15*
X179070000Y-39370000D03*
X196850000Y-46990000D03*
X181610000Y-39370000D03*
X194310000Y-46990000D03*
X184150000Y-39370000D03*
X191770000Y-46990000D03*
X186690000Y-39370000D03*
X189230000Y-46990000D03*
X189230000Y-39370000D03*
X186690000Y-46990000D03*
X191770000Y-39370000D03*
X184150000Y-46990000D03*
X194310000Y-39370000D03*
X181610000Y-46990000D03*
X196850000Y-39370000D03*
D16*
X179070000Y-46990000D03*
D15*
X137160000Y-39370000D03*
X154940000Y-46990000D03*
X139700000Y-39370000D03*
X152400000Y-46990000D03*
X142240000Y-39370000D03*
X149860000Y-46990000D03*
X144780000Y-39370000D03*
X147320000Y-46990000D03*
X147320000Y-39370000D03*
X144780000Y-46990000D03*
X149860000Y-39370000D03*
X142240000Y-46990000D03*
X152400000Y-39370000D03*
X139700000Y-46990000D03*
X154940000Y-39370000D03*
D16*
X137160000Y-46990000D03*
D15*
X239395000Y-53340000D03*
X231775000Y-71120000D03*
X239395000Y-55880000D03*
X231775000Y-68580000D03*
X239395000Y-58420000D03*
X231775000Y-66040000D03*
X239395000Y-60960000D03*
X231775000Y-63500000D03*
X239395000Y-63500000D03*
X231775000Y-60960000D03*
X239395000Y-66040000D03*
X231775000Y-58420000D03*
X239395000Y-68580000D03*
X231775000Y-55880000D03*
X239395000Y-71120000D03*
D16*
X231775000Y-53340000D03*
D15*
X269240000Y-55880000D03*
X261620000Y-76200000D03*
X269240000Y-58420000D03*
X261620000Y-73660000D03*
X269240000Y-60960000D03*
X261620000Y-71120000D03*
X269240000Y-63500000D03*
X261620000Y-68580000D03*
X269240000Y-66040000D03*
X261620000Y-66040000D03*
X269240000Y-68580000D03*
X261620000Y-63500000D03*
X269240000Y-71120000D03*
X261620000Y-60960000D03*
X269240000Y-73660000D03*
X261620000Y-58420000D03*
X269240000Y-76200000D03*
D16*
X261620000Y-55880000D03*
D15*
X196850000Y-64770000D03*
X219710000Y-72390000D03*
X199390000Y-64770000D03*
X217170000Y-72390000D03*
X201930000Y-64770000D03*
X214630000Y-72390000D03*
X204470000Y-64770000D03*
X212090000Y-72390000D03*
X207010000Y-64770000D03*
X209550000Y-72390000D03*
X209550000Y-64770000D03*
X207010000Y-72390000D03*
X212090000Y-64770000D03*
X204470000Y-72390000D03*
X214630000Y-64770000D03*
X201930000Y-72390000D03*
X217170000Y-64770000D03*
X199390000Y-72390000D03*
X219710000Y-64770000D03*
D16*
X196850000Y-72390000D03*
D17*
X122555000Y-53340000D03*
X125095000Y-53340000D03*
X127635000Y-53340000D03*
X130175000Y-53340000D03*
X132715000Y-53340000D03*
X135255000Y-53340000D03*
X137795000Y-53340000D03*
X140335000Y-53340000D03*
X142875000Y-53340000D03*
X145415000Y-53340000D03*
X147955000Y-53340000D03*
X150495000Y-53340000D03*
X153035000Y-53340000D03*
X155575000Y-53340000D03*
X158115000Y-53340000D03*
X160655000Y-53340000D03*
X163195000Y-53340000D03*
X165735000Y-53340000D03*
X168275000Y-53340000D03*
X168275000Y-81280000D03*
X165735000Y-81280000D03*
X163195000Y-81280000D03*
X160655000Y-81280000D03*
X158115000Y-81280000D03*
X155575000Y-81280000D03*
X153035000Y-81280000D03*
X150495000Y-81280000D03*
X147955000Y-81280000D03*
X145415000Y-81280000D03*
X142875000Y-81280000D03*
X140335000Y-81280000D03*
X137795000Y-81280000D03*
X135255000Y-81280000D03*
X132715000Y-81280000D03*
X130175000Y-81280000D03*
X127635000Y-81280000D03*
X125095000Y-81280000D03*
X122555000Y-81280000D03*
D13*
X246380000Y-33020000D03*
D14*
X246380000Y-25400000D03*
D13*
X240030000Y-33020000D03*
D14*
X240030000Y-25400000D03*
D13*
X234950000Y-33020000D03*
D14*
X234950000Y-25400000D03*
D13*
X229870000Y-33020000D03*
D14*
X229870000Y-25400000D03*
D13*
X224790000Y-33020000D03*
D14*
X224790000Y-25400000D03*
D13*
X219710000Y-33020000D03*
D14*
X219710000Y-25400000D03*
D13*
X214630000Y-33020000D03*
D14*
X214630000Y-25400000D03*
D13*
X209550000Y-33020000D03*
D14*
X209550000Y-25400000D03*
D13*
X204470000Y-33020000D03*
D14*
X204470000Y-25400000D03*
D13*
X198120000Y-33020000D03*
D14*
X198120000Y-25400000D03*
D13*
X193040000Y-33020000D03*
D14*
X193040000Y-25400000D03*
D13*
X187960000Y-33020000D03*
D14*
X187960000Y-25400000D03*
D13*
X182880000Y-33020000D03*
D14*
X182880000Y-25400000D03*
D13*
X177800000Y-33020000D03*
D14*
X177800000Y-25400000D03*
D13*
X172720000Y-33020000D03*
D14*
X172720000Y-25400000D03*
D13*
X167640000Y-33020000D03*
D14*
X167640000Y-25400000D03*
D13*
X162560000Y-33020000D03*
D14*
X162560000Y-25400000D03*
D13*
X156210000Y-33020000D03*
D14*
X156210000Y-25400000D03*
D13*
X151130000Y-33020000D03*
D14*
X151130000Y-25400000D03*
D13*
X146050000Y-33020000D03*
D14*
X146050000Y-25400000D03*
D13*
X140970000Y-33020000D03*
D14*
X140970000Y-25400000D03*
D13*
X135890000Y-33020000D03*
D14*
X135890000Y-25400000D03*
D13*
X130810000Y-33020000D03*
D14*
X130810000Y-25400000D03*
D13*
X125730000Y-33020000D03*
D14*
X125730000Y-25400000D03*
D13*
X120650000Y-33020000D03*
D14*
X120650000Y-25400000D03*
D13*
X247650000Y-55880000D03*
D14*
X255270000Y-55880000D03*
D13*
X247650000Y-58420000D03*
D14*
X255270000Y-58420000D03*
D13*
X247650000Y-60960000D03*
D14*
X255270000Y-60960000D03*
D13*
X247650000Y-63500000D03*
D14*
X255270000Y-63500000D03*
D13*
X247650000Y-66040000D03*
D14*
X255270000Y-66040000D03*
D13*
X247650000Y-68580000D03*
D14*
X255270000Y-68580000D03*
D13*
X247650000Y-71120000D03*
D14*
X255270000Y-71120000D03*
D13*
X247650000Y-73660000D03*
D14*
X255270000Y-73660000D03*
D13*
X199390000Y-82550000D03*
D14*
X199390000Y-74930000D03*
D13*
X204470000Y-82550000D03*
D14*
X204470000Y-74930000D03*
D13*
X209550000Y-82550000D03*
D14*
X209550000Y-74930000D03*
D13*
X214630000Y-82550000D03*
D14*
X214630000Y-74930000D03*
D13*
X204470000Y-54610000D03*
D14*
X204470000Y-62230000D03*
D13*
X209550000Y-54610000D03*
D14*
X209550000Y-62230000D03*
D13*
X214630000Y-54610000D03*
D14*
X214630000Y-62230000D03*
D18*
X281940000Y-17780000D03*
X276860000Y-17780000D03*
X271780000Y-17780000D03*
X266700000Y-17780000D03*
X261620000Y-17780000D03*
X256540000Y-17780000D03*
X251460000Y-17780000D03*
D19*
X246380000Y-17780000D03*
D18*
X240030000Y-17780000D03*
X234950000Y-17780000D03*
X229870000Y-17780000D03*
X224790000Y-17780000D03*
X219710000Y-17780000D03*
X214630000Y-17780000D03*
X209550000Y-17780000D03*
D19*
X204470000Y-17780000D03*
D18*
X198120000Y-17780000D03*
X193040000Y-17780000D03*
X187960000Y-17780000D03*
X182880000Y-17780000D03*
X177800000Y-17780000D03*
X172720000Y-17780000D03*
X167640000Y-17780000D03*
D19*
X162560000Y-17780000D03*
D18*
X156210000Y-17780000D03*
X151130000Y-17780000D03*
X146050000Y-17780000D03*
X140970000Y-17780000D03*
X135890000Y-17780000D03*
X130810000Y-17780000D03*
X125730000Y-17780000D03*
D19*
X120650000Y-17780000D03*
D18*
X278130000Y-90170000D03*
X278130000Y-85090000D03*
X278130000Y-80010000D03*
X278130000Y-74930000D03*
X278130000Y-69850000D03*
X278130000Y-64770000D03*
X278130000Y-59690000D03*
D19*
X278130000Y-54610000D03*
D15*
X255270000Y-46990000D03*
D20*
X255270000Y-39490000D03*
D15*
X213360000Y-46870000D03*
D20*
X213360000Y-39370000D03*
D15*
X171450000Y-46990000D03*
D20*
X171450000Y-39490000D03*
D15*
X129540000Y-46990000D03*
D20*
X129540000Y-39490000D03*
M02*
