G04 #@! TF.GenerationSoftware,KiCad,Pcbnew,(5.1.10)-1*
G04 #@! TF.CreationDate,2023-10-25T11:46:50-04:00*
G04 #@! TF.ProjectId,LED_Matrix_Driver,4c45445f-4d61-4747-9269-785f44726976,rev?*
G04 #@! TF.SameCoordinates,Original*
G04 #@! TF.FileFunction,Legend,Top*
G04 #@! TF.FilePolarity,Positive*
%FSLAX46Y46*%
G04 Gerber Fmt 4.6, Leading zero omitted, Abs format (unit mm)*
G04 Created by KiCad (PCBNEW (5.1.10)-1) date 2023-10-25 11:46:50*
%MOMM*%
%LPD*%
G01*
G04 APERTURE LIST*
%ADD10C,0.250000*%
%ADD11C,0.150000*%
%ADD12C,0.120000*%
%ADD13C,2.400000*%
%ADD14R,2.400000X2.400000*%
%ADD15O,1.400000X1.400000*%
%ADD16C,1.400000*%
%ADD17O,1.600000X1.600000*%
%ADD18R,1.600000X1.600000*%
%ADD19C,1.524000*%
%ADD20C,2.600000*%
%ADD21R,2.600000X2.600000*%
%ADD22C,1.600000*%
G04 APERTURE END LIST*
D10*
X172468095Y-88026904D02*
X172277619Y-87931666D01*
X172182380Y-87836428D01*
X172087142Y-87645952D01*
X172087142Y-87550714D01*
X172182380Y-87360238D01*
X172277619Y-87265000D01*
X172468095Y-87169761D01*
X172849047Y-87169761D01*
X173039523Y-87265000D01*
X173134761Y-87360238D01*
X173230000Y-87550714D01*
X173230000Y-87645952D01*
X173134761Y-87836428D01*
X173039523Y-87931666D01*
X172849047Y-88026904D01*
X172468095Y-88026904D01*
X172277619Y-88122142D01*
X172182380Y-88217380D01*
X172087142Y-88407857D01*
X172087142Y-88788809D01*
X172182380Y-88979285D01*
X172277619Y-89074523D01*
X172468095Y-89169761D01*
X172849047Y-89169761D01*
X173039523Y-89074523D01*
X173134761Y-88979285D01*
X173230000Y-88788809D01*
X173230000Y-88407857D01*
X173134761Y-88217380D01*
X173039523Y-88122142D01*
X172849047Y-88026904D01*
X173896666Y-89169761D02*
X174944285Y-87836428D01*
X173896666Y-87836428D02*
X174944285Y-89169761D01*
X175515714Y-87169761D02*
X176753809Y-87169761D01*
X176087142Y-87931666D01*
X176372857Y-87931666D01*
X176563333Y-88026904D01*
X176658571Y-88122142D01*
X176753809Y-88312619D01*
X176753809Y-88788809D01*
X176658571Y-88979285D01*
X176563333Y-89074523D01*
X176372857Y-89169761D01*
X175801428Y-89169761D01*
X175610952Y-89074523D01*
X175515714Y-88979285D01*
X177515714Y-87360238D02*
X177610952Y-87265000D01*
X177801428Y-87169761D01*
X178277619Y-87169761D01*
X178468095Y-87265000D01*
X178563333Y-87360238D01*
X178658571Y-87550714D01*
X178658571Y-87741190D01*
X178563333Y-88026904D01*
X177420476Y-89169761D01*
X178658571Y-89169761D01*
X181991904Y-89169761D02*
X181039523Y-89169761D01*
X181039523Y-87169761D01*
X182658571Y-88122142D02*
X183325238Y-88122142D01*
X183610952Y-89169761D02*
X182658571Y-89169761D01*
X182658571Y-87169761D01*
X183610952Y-87169761D01*
X184468095Y-89169761D02*
X184468095Y-87169761D01*
X184944285Y-87169761D01*
X185230000Y-87265000D01*
X185420476Y-87455476D01*
X185515714Y-87645952D01*
X185610952Y-88026904D01*
X185610952Y-88312619D01*
X185515714Y-88693571D01*
X185420476Y-88884047D01*
X185230000Y-89074523D01*
X184944285Y-89169761D01*
X184468095Y-89169761D01*
X187991904Y-89169761D02*
X187991904Y-87169761D01*
X188658571Y-88598333D01*
X189325238Y-87169761D01*
X189325238Y-89169761D01*
X191134761Y-89169761D02*
X191134761Y-88122142D01*
X191039523Y-87931666D01*
X190849047Y-87836428D01*
X190468095Y-87836428D01*
X190277619Y-87931666D01*
X191134761Y-89074523D02*
X190944285Y-89169761D01*
X190468095Y-89169761D01*
X190277619Y-89074523D01*
X190182380Y-88884047D01*
X190182380Y-88693571D01*
X190277619Y-88503095D01*
X190468095Y-88407857D01*
X190944285Y-88407857D01*
X191134761Y-88312619D01*
X191801428Y-87836428D02*
X192563333Y-87836428D01*
X192087142Y-87169761D02*
X192087142Y-88884047D01*
X192182380Y-89074523D01*
X192372857Y-89169761D01*
X192563333Y-89169761D01*
X193230000Y-89169761D02*
X193230000Y-87836428D01*
X193230000Y-88217380D02*
X193325238Y-88026904D01*
X193420476Y-87931666D01*
X193610952Y-87836428D01*
X193801428Y-87836428D01*
X194468095Y-89169761D02*
X194468095Y-87836428D01*
X194468095Y-87169761D02*
X194372857Y-87265000D01*
X194468095Y-87360238D01*
X194563333Y-87265000D01*
X194468095Y-87169761D01*
X194468095Y-87360238D01*
X195230000Y-89169761D02*
X196277619Y-87836428D01*
X195230000Y-87836428D02*
X196277619Y-89169761D01*
X198563333Y-89169761D02*
X198563333Y-87169761D01*
X199039523Y-87169761D01*
X199325238Y-87265000D01*
X199515714Y-87455476D01*
X199610952Y-87645952D01*
X199706190Y-88026904D01*
X199706190Y-88312619D01*
X199610952Y-88693571D01*
X199515714Y-88884047D01*
X199325238Y-89074523D01*
X199039523Y-89169761D01*
X198563333Y-89169761D01*
X200563333Y-89169761D02*
X200563333Y-87836428D01*
X200563333Y-88217380D02*
X200658571Y-88026904D01*
X200753809Y-87931666D01*
X200944285Y-87836428D01*
X201134761Y-87836428D01*
X201801428Y-89169761D02*
X201801428Y-87836428D01*
X201801428Y-87169761D02*
X201706190Y-87265000D01*
X201801428Y-87360238D01*
X201896666Y-87265000D01*
X201801428Y-87169761D01*
X201801428Y-87360238D01*
X202563333Y-87836428D02*
X203039523Y-89169761D01*
X203515714Y-87836428D01*
X205039523Y-89074523D02*
X204849047Y-89169761D01*
X204468095Y-89169761D01*
X204277619Y-89074523D01*
X204182380Y-88884047D01*
X204182380Y-88122142D01*
X204277619Y-87931666D01*
X204468095Y-87836428D01*
X204849047Y-87836428D01*
X205039523Y-87931666D01*
X205134761Y-88122142D01*
X205134761Y-88312619D01*
X204182380Y-88503095D01*
X205991904Y-89169761D02*
X205991904Y-87836428D01*
X205991904Y-88217380D02*
X206087142Y-88026904D01*
X206182380Y-87931666D01*
X206372857Y-87836428D01*
X206563333Y-87836428D01*
D11*
X245913095Y-91162142D02*
X245865476Y-91209761D01*
X245722619Y-91257380D01*
X245627380Y-91257380D01*
X245484523Y-91209761D01*
X245389285Y-91114523D01*
X245341666Y-91019285D01*
X245294047Y-90828809D01*
X245294047Y-90685952D01*
X245341666Y-90495476D01*
X245389285Y-90400238D01*
X245484523Y-90305000D01*
X245627380Y-90257380D01*
X245722619Y-90257380D01*
X245865476Y-90305000D01*
X245913095Y-90352619D01*
X246484523Y-91257380D02*
X246389285Y-91209761D01*
X246341666Y-91162142D01*
X246294047Y-91066904D01*
X246294047Y-90781190D01*
X246341666Y-90685952D01*
X246389285Y-90638333D01*
X246484523Y-90590714D01*
X246627380Y-90590714D01*
X246722619Y-90638333D01*
X246770238Y-90685952D01*
X246817857Y-90781190D01*
X246817857Y-91066904D01*
X246770238Y-91162142D01*
X246722619Y-91209761D01*
X246627380Y-91257380D01*
X246484523Y-91257380D01*
X247246428Y-90590714D02*
X247246428Y-91590714D01*
X247246428Y-90638333D02*
X247341666Y-90590714D01*
X247532142Y-90590714D01*
X247627380Y-90638333D01*
X247675000Y-90685952D01*
X247722619Y-90781190D01*
X247722619Y-91066904D01*
X247675000Y-91162142D01*
X247627380Y-91209761D01*
X247532142Y-91257380D01*
X247341666Y-91257380D01*
X247246428Y-91209761D01*
X248055952Y-90590714D02*
X248294047Y-91257380D01*
X248532142Y-90590714D02*
X248294047Y-91257380D01*
X248198809Y-91495476D01*
X248151190Y-91543095D01*
X248055952Y-91590714D01*
X248913095Y-91257380D02*
X248913095Y-90590714D01*
X248913095Y-90781190D02*
X248960714Y-90685952D01*
X249008333Y-90638333D01*
X249103571Y-90590714D01*
X249198809Y-90590714D01*
X249532142Y-91257380D02*
X249532142Y-90590714D01*
X249532142Y-90257380D02*
X249484523Y-90305000D01*
X249532142Y-90352619D01*
X249579761Y-90305000D01*
X249532142Y-90257380D01*
X249532142Y-90352619D01*
X250436904Y-90590714D02*
X250436904Y-91400238D01*
X250389285Y-91495476D01*
X250341666Y-91543095D01*
X250246428Y-91590714D01*
X250103571Y-91590714D01*
X250008333Y-91543095D01*
X250436904Y-91209761D02*
X250341666Y-91257380D01*
X250151190Y-91257380D01*
X250055952Y-91209761D01*
X250008333Y-91162142D01*
X249960714Y-91066904D01*
X249960714Y-90781190D01*
X250008333Y-90685952D01*
X250055952Y-90638333D01*
X250151190Y-90590714D01*
X250341666Y-90590714D01*
X250436904Y-90638333D01*
X250913095Y-91257380D02*
X250913095Y-90257380D01*
X251341666Y-91257380D02*
X251341666Y-90733571D01*
X251294047Y-90638333D01*
X251198809Y-90590714D01*
X251055952Y-90590714D01*
X250960714Y-90638333D01*
X250913095Y-90685952D01*
X251675000Y-90590714D02*
X252055952Y-90590714D01*
X251817857Y-90257380D02*
X251817857Y-91114523D01*
X251865476Y-91209761D01*
X251960714Y-91257380D01*
X252055952Y-91257380D01*
X253436904Y-91638333D02*
X253389285Y-91590714D01*
X253294047Y-91447857D01*
X253246428Y-91352619D01*
X253198809Y-91209761D01*
X253151190Y-90971666D01*
X253151190Y-90781190D01*
X253198809Y-90543095D01*
X253246428Y-90400238D01*
X253294047Y-90305000D01*
X253389285Y-90162142D01*
X253436904Y-90114523D01*
X254389285Y-91162142D02*
X254341666Y-91209761D01*
X254198809Y-91257380D01*
X254103571Y-91257380D01*
X253960714Y-91209761D01*
X253865476Y-91114523D01*
X253817857Y-91019285D01*
X253770238Y-90828809D01*
X253770238Y-90685952D01*
X253817857Y-90495476D01*
X253865476Y-90400238D01*
X253960714Y-90305000D01*
X254103571Y-90257380D01*
X254198809Y-90257380D01*
X254341666Y-90305000D01*
X254389285Y-90352619D01*
X254722619Y-91638333D02*
X254770238Y-91590714D01*
X254865476Y-91447857D01*
X254913095Y-91352619D01*
X254960714Y-91209761D01*
X255008333Y-90971666D01*
X255008333Y-90781190D01*
X254960714Y-90543095D01*
X254913095Y-90400238D01*
X254865476Y-90305000D01*
X254770238Y-90162142D01*
X254722619Y-90114523D01*
X256246428Y-91257380D02*
X256246428Y-90257380D01*
X256579761Y-90971666D01*
X256913095Y-90257380D01*
X256913095Y-91257380D01*
X257817857Y-91257380D02*
X257817857Y-90733571D01*
X257770238Y-90638333D01*
X257675000Y-90590714D01*
X257484523Y-90590714D01*
X257389285Y-90638333D01*
X257817857Y-91209761D02*
X257722619Y-91257380D01*
X257484523Y-91257380D01*
X257389285Y-91209761D01*
X257341666Y-91114523D01*
X257341666Y-91019285D01*
X257389285Y-90924047D01*
X257484523Y-90876428D01*
X257722619Y-90876428D01*
X257817857Y-90828809D01*
X258151190Y-90590714D02*
X258532142Y-90590714D01*
X258294047Y-90257380D02*
X258294047Y-91114523D01*
X258341666Y-91209761D01*
X258436904Y-91257380D01*
X258532142Y-91257380D01*
X258722619Y-90590714D02*
X259103571Y-90590714D01*
X258865476Y-90257380D02*
X258865476Y-91114523D01*
X258913095Y-91209761D01*
X259008333Y-91257380D01*
X259103571Y-91257380D01*
X260532142Y-90733571D02*
X260675000Y-90781190D01*
X260722619Y-90828809D01*
X260770238Y-90924047D01*
X260770238Y-91066904D01*
X260722619Y-91162142D01*
X260675000Y-91209761D01*
X260579761Y-91257380D01*
X260198809Y-91257380D01*
X260198809Y-90257380D01*
X260532142Y-90257380D01*
X260627380Y-90305000D01*
X260675000Y-90352619D01*
X260722619Y-90447857D01*
X260722619Y-90543095D01*
X260675000Y-90638333D01*
X260627380Y-90685952D01*
X260532142Y-90733571D01*
X260198809Y-90733571D01*
X261341666Y-91257380D02*
X261246428Y-91209761D01*
X261198809Y-91162142D01*
X261151190Y-91066904D01*
X261151190Y-90781190D01*
X261198809Y-90685952D01*
X261246428Y-90638333D01*
X261341666Y-90590714D01*
X261484523Y-90590714D01*
X261579761Y-90638333D01*
X261627380Y-90685952D01*
X261675000Y-90781190D01*
X261675000Y-91066904D01*
X261627380Y-91162142D01*
X261579761Y-91209761D01*
X261484523Y-91257380D01*
X261341666Y-91257380D01*
X262008333Y-90590714D02*
X262198809Y-91257380D01*
X262389285Y-90781190D01*
X262579761Y-91257380D01*
X262770238Y-90590714D01*
X263532142Y-91209761D02*
X263436904Y-91257380D01*
X263246428Y-91257380D01*
X263151190Y-91209761D01*
X263103571Y-91114523D01*
X263103571Y-90733571D01*
X263151190Y-90638333D01*
X263246428Y-90590714D01*
X263436904Y-90590714D01*
X263532142Y-90638333D01*
X263579761Y-90733571D01*
X263579761Y-90828809D01*
X263103571Y-90924047D01*
X264008333Y-90590714D02*
X264008333Y-91257380D01*
X264008333Y-90685952D02*
X264055952Y-90638333D01*
X264151190Y-90590714D01*
X264294047Y-90590714D01*
X264389285Y-90638333D01*
X264436904Y-90733571D01*
X264436904Y-91257380D01*
X265627380Y-90352619D02*
X265675000Y-90305000D01*
X265770238Y-90257380D01*
X266008333Y-90257380D01*
X266103571Y-90305000D01*
X266151190Y-90352619D01*
X266198809Y-90447857D01*
X266198809Y-90543095D01*
X266151190Y-90685952D01*
X265579761Y-91257380D01*
X266198809Y-91257380D01*
X266817857Y-90257380D02*
X266913095Y-90257380D01*
X267008333Y-90305000D01*
X267055952Y-90352619D01*
X267103571Y-90447857D01*
X267151190Y-90638333D01*
X267151190Y-90876428D01*
X267103571Y-91066904D01*
X267055952Y-91162142D01*
X267008333Y-91209761D01*
X266913095Y-91257380D01*
X266817857Y-91257380D01*
X266722619Y-91209761D01*
X266675000Y-91162142D01*
X266627380Y-91066904D01*
X266579761Y-90876428D01*
X266579761Y-90638333D01*
X266627380Y-90447857D01*
X266675000Y-90352619D01*
X266722619Y-90305000D01*
X266817857Y-90257380D01*
X267532142Y-90352619D02*
X267579761Y-90305000D01*
X267675000Y-90257380D01*
X267913095Y-90257380D01*
X268008333Y-90305000D01*
X268055952Y-90352619D01*
X268103571Y-90447857D01*
X268103571Y-90543095D01*
X268055952Y-90685952D01*
X267484523Y-91257380D01*
X268103571Y-91257380D01*
X268436904Y-90257380D02*
X269055952Y-90257380D01*
X268722619Y-90638333D01*
X268865476Y-90638333D01*
X268960714Y-90685952D01*
X269008333Y-90733571D01*
X269055952Y-90828809D01*
X269055952Y-91066904D01*
X269008333Y-91162142D01*
X268960714Y-91209761D01*
X268865476Y-91257380D01*
X268579761Y-91257380D01*
X268484523Y-91209761D01*
X268436904Y-91162142D01*
X118832380Y-90995476D02*
X118832380Y-91471666D01*
X119308571Y-91519285D01*
X119260952Y-91471666D01*
X119213333Y-91376428D01*
X119213333Y-91138333D01*
X119260952Y-91043095D01*
X119308571Y-90995476D01*
X119403809Y-90947857D01*
X119641904Y-90947857D01*
X119737142Y-90995476D01*
X119784761Y-91043095D01*
X119832380Y-91138333D01*
X119832380Y-91376428D01*
X119784761Y-91471666D01*
X119737142Y-91519285D01*
X118832380Y-90662142D02*
X119832380Y-90328809D01*
X118832380Y-89995476D01*
X247492380Y-88717380D02*
X247492380Y-87717380D01*
X247730476Y-87717380D01*
X247873333Y-87765000D01*
X247968571Y-87860238D01*
X248016190Y-87955476D01*
X248063809Y-88145952D01*
X248063809Y-88288809D01*
X248016190Y-88479285D01*
X247968571Y-88574523D01*
X247873333Y-88669761D01*
X247730476Y-88717380D01*
X247492380Y-88717380D01*
X248873333Y-88669761D02*
X248778095Y-88717380D01*
X248587619Y-88717380D01*
X248492380Y-88669761D01*
X248444761Y-88574523D01*
X248444761Y-88193571D01*
X248492380Y-88098333D01*
X248587619Y-88050714D01*
X248778095Y-88050714D01*
X248873333Y-88098333D01*
X248920952Y-88193571D01*
X248920952Y-88288809D01*
X248444761Y-88384047D01*
X249301904Y-88669761D02*
X249397142Y-88717380D01*
X249587619Y-88717380D01*
X249682857Y-88669761D01*
X249730476Y-88574523D01*
X249730476Y-88526904D01*
X249682857Y-88431666D01*
X249587619Y-88384047D01*
X249444761Y-88384047D01*
X249349523Y-88336428D01*
X249301904Y-88241190D01*
X249301904Y-88193571D01*
X249349523Y-88098333D01*
X249444761Y-88050714D01*
X249587619Y-88050714D01*
X249682857Y-88098333D01*
X250159047Y-88717380D02*
X250159047Y-88050714D01*
X250159047Y-87717380D02*
X250111428Y-87765000D01*
X250159047Y-87812619D01*
X250206666Y-87765000D01*
X250159047Y-87717380D01*
X250159047Y-87812619D01*
X251063809Y-88050714D02*
X251063809Y-88860238D01*
X251016190Y-88955476D01*
X250968571Y-89003095D01*
X250873333Y-89050714D01*
X250730476Y-89050714D01*
X250635238Y-89003095D01*
X251063809Y-88669761D02*
X250968571Y-88717380D01*
X250778095Y-88717380D01*
X250682857Y-88669761D01*
X250635238Y-88622142D01*
X250587619Y-88526904D01*
X250587619Y-88241190D01*
X250635238Y-88145952D01*
X250682857Y-88098333D01*
X250778095Y-88050714D01*
X250968571Y-88050714D01*
X251063809Y-88098333D01*
X251540000Y-88050714D02*
X251540000Y-88717380D01*
X251540000Y-88145952D02*
X251587619Y-88098333D01*
X251682857Y-88050714D01*
X251825714Y-88050714D01*
X251920952Y-88098333D01*
X251968571Y-88193571D01*
X251968571Y-88717380D01*
X252825714Y-88669761D02*
X252730476Y-88717380D01*
X252540000Y-88717380D01*
X252444761Y-88669761D01*
X252397142Y-88574523D01*
X252397142Y-88193571D01*
X252444761Y-88098333D01*
X252540000Y-88050714D01*
X252730476Y-88050714D01*
X252825714Y-88098333D01*
X252873333Y-88193571D01*
X252873333Y-88288809D01*
X252397142Y-88384047D01*
X253730476Y-88717380D02*
X253730476Y-87717380D01*
X253730476Y-88669761D02*
X253635238Y-88717380D01*
X253444761Y-88717380D01*
X253349523Y-88669761D01*
X253301904Y-88622142D01*
X253254285Y-88526904D01*
X253254285Y-88241190D01*
X253301904Y-88145952D01*
X253349523Y-88098333D01*
X253444761Y-88050714D01*
X253635238Y-88050714D01*
X253730476Y-88098333D01*
X254968571Y-88717380D02*
X254968571Y-87717380D01*
X254968571Y-88098333D02*
X255063809Y-88050714D01*
X255254285Y-88050714D01*
X255349523Y-88098333D01*
X255397142Y-88145952D01*
X255444761Y-88241190D01*
X255444761Y-88526904D01*
X255397142Y-88622142D01*
X255349523Y-88669761D01*
X255254285Y-88717380D01*
X255063809Y-88717380D01*
X254968571Y-88669761D01*
X255778095Y-88050714D02*
X256016190Y-88717380D01*
X256254285Y-88050714D02*
X256016190Y-88717380D01*
X255920952Y-88955476D01*
X255873333Y-89003095D01*
X255778095Y-89050714D01*
X257397142Y-88717380D02*
X257397142Y-87717380D01*
X257730476Y-88431666D01*
X258063809Y-87717380D01*
X258063809Y-88717380D01*
X258968571Y-88717380D02*
X258968571Y-88193571D01*
X258920952Y-88098333D01*
X258825714Y-88050714D01*
X258635238Y-88050714D01*
X258540000Y-88098333D01*
X258968571Y-88669761D02*
X258873333Y-88717380D01*
X258635238Y-88717380D01*
X258540000Y-88669761D01*
X258492380Y-88574523D01*
X258492380Y-88479285D01*
X258540000Y-88384047D01*
X258635238Y-88336428D01*
X258873333Y-88336428D01*
X258968571Y-88288809D01*
X259301904Y-88050714D02*
X259682857Y-88050714D01*
X259444761Y-87717380D02*
X259444761Y-88574523D01*
X259492380Y-88669761D01*
X259587619Y-88717380D01*
X259682857Y-88717380D01*
X259873333Y-88050714D02*
X260254285Y-88050714D01*
X260016190Y-87717380D02*
X260016190Y-88574523D01*
X260063809Y-88669761D01*
X260159047Y-88717380D01*
X260254285Y-88717380D01*
X261682857Y-88193571D02*
X261825714Y-88241190D01*
X261873333Y-88288809D01*
X261920952Y-88384047D01*
X261920952Y-88526904D01*
X261873333Y-88622142D01*
X261825714Y-88669761D01*
X261730476Y-88717380D01*
X261349523Y-88717380D01*
X261349523Y-87717380D01*
X261682857Y-87717380D01*
X261778095Y-87765000D01*
X261825714Y-87812619D01*
X261873333Y-87907857D01*
X261873333Y-88003095D01*
X261825714Y-88098333D01*
X261778095Y-88145952D01*
X261682857Y-88193571D01*
X261349523Y-88193571D01*
X262492380Y-88717380D02*
X262397142Y-88669761D01*
X262349523Y-88622142D01*
X262301904Y-88526904D01*
X262301904Y-88241190D01*
X262349523Y-88145952D01*
X262397142Y-88098333D01*
X262492380Y-88050714D01*
X262635238Y-88050714D01*
X262730476Y-88098333D01*
X262778095Y-88145952D01*
X262825714Y-88241190D01*
X262825714Y-88526904D01*
X262778095Y-88622142D01*
X262730476Y-88669761D01*
X262635238Y-88717380D01*
X262492380Y-88717380D01*
X263159047Y-88050714D02*
X263349523Y-88717380D01*
X263540000Y-88241190D01*
X263730476Y-88717380D01*
X263920952Y-88050714D01*
X264682857Y-88669761D02*
X264587619Y-88717380D01*
X264397142Y-88717380D01*
X264301904Y-88669761D01*
X264254285Y-88574523D01*
X264254285Y-88193571D01*
X264301904Y-88098333D01*
X264397142Y-88050714D01*
X264587619Y-88050714D01*
X264682857Y-88098333D01*
X264730476Y-88193571D01*
X264730476Y-88288809D01*
X264254285Y-88384047D01*
X265159047Y-88050714D02*
X265159047Y-88717380D01*
X265159047Y-88145952D02*
X265206666Y-88098333D01*
X265301904Y-88050714D01*
X265444761Y-88050714D01*
X265540000Y-88098333D01*
X265587619Y-88193571D01*
X265587619Y-88717380D01*
D12*
X125820000Y-93205000D02*
X125820000Y-91705000D01*
X124080000Y-93205000D02*
X125820000Y-93205000D01*
X118460000Y-85145000D02*
X125580000Y-85145000D01*
X118460000Y-92965000D02*
X125580000Y-92965000D01*
X125580000Y-92965000D02*
X125580000Y-85145000D01*
X118460000Y-92965000D02*
X118460000Y-85145000D01*
X124020000Y-92965000D02*
X124020000Y-85145000D01*
X123475000Y-87305000D02*
G75*
G03*
X123475000Y-87305000I-1555000J0D01*
G01*
X123475492Y-90777989D02*
G75*
G02*
X123352000Y-91413000I-1555492J-27011D01*
G01*
X122527742Y-92237109D02*
G75*
G02*
X121312000Y-92237000I-607742J1432109D01*
G01*
X120487891Y-91412742D02*
G75*
G02*
X120488000Y-90197000I1432109J607742D01*
G01*
X121312258Y-89372891D02*
G75*
G02*
X122528000Y-89373000I607742J-1432109D01*
G01*
X123351385Y-90197413D02*
G75*
G02*
X123475000Y-90805000I-1431385J-607587D01*
G01*
X281940000Y-32080000D02*
X281940000Y-31130000D01*
X281940000Y-26340000D02*
X281940000Y-27290000D01*
X282860000Y-31130000D02*
X282860000Y-27290000D01*
X281020000Y-31130000D02*
X282860000Y-31130000D01*
X281020000Y-27290000D02*
X281020000Y-31130000D01*
X282860000Y-27290000D02*
X281020000Y-27290000D01*
X276860000Y-32080000D02*
X276860000Y-31130000D01*
X276860000Y-26340000D02*
X276860000Y-27290000D01*
X277780000Y-31130000D02*
X277780000Y-27290000D01*
X275940000Y-31130000D02*
X277780000Y-31130000D01*
X275940000Y-27290000D02*
X275940000Y-31130000D01*
X277780000Y-27290000D02*
X275940000Y-27290000D01*
X271780000Y-32080000D02*
X271780000Y-31130000D01*
X271780000Y-26340000D02*
X271780000Y-27290000D01*
X272700000Y-31130000D02*
X272700000Y-27290000D01*
X270860000Y-31130000D02*
X272700000Y-31130000D01*
X270860000Y-27290000D02*
X270860000Y-31130000D01*
X272700000Y-27290000D02*
X270860000Y-27290000D01*
X266700000Y-32080000D02*
X266700000Y-31130000D01*
X266700000Y-26340000D02*
X266700000Y-27290000D01*
X267620000Y-31130000D02*
X267620000Y-27290000D01*
X265780000Y-31130000D02*
X267620000Y-31130000D01*
X265780000Y-27290000D02*
X265780000Y-31130000D01*
X267620000Y-27290000D02*
X265780000Y-27290000D01*
X262030000Y-32080000D02*
X262030000Y-31130000D01*
X262030000Y-26340000D02*
X262030000Y-27290000D01*
X262950000Y-31130000D02*
X262950000Y-27290000D01*
X261110000Y-31130000D02*
X262950000Y-31130000D01*
X261110000Y-27290000D02*
X261110000Y-31130000D01*
X262950000Y-27290000D02*
X261110000Y-27290000D01*
X256540000Y-32080000D02*
X256540000Y-31130000D01*
X256540000Y-26340000D02*
X256540000Y-27290000D01*
X257460000Y-31130000D02*
X257460000Y-27290000D01*
X255620000Y-31130000D02*
X257460000Y-31130000D01*
X255620000Y-27290000D02*
X255620000Y-31130000D01*
X257460000Y-27290000D02*
X255620000Y-27290000D01*
X251460000Y-32080000D02*
X251460000Y-31130000D01*
X251460000Y-26340000D02*
X251460000Y-27290000D01*
X252380000Y-31130000D02*
X252380000Y-27290000D01*
X250540000Y-31130000D02*
X252380000Y-31130000D01*
X250540000Y-27290000D02*
X250540000Y-31130000D01*
X252380000Y-27290000D02*
X250540000Y-27290000D01*
X261560000Y-44180000D02*
X261560000Y-45830000D01*
X261560000Y-45830000D02*
X282000000Y-45830000D01*
X282000000Y-45830000D02*
X282000000Y-40530000D01*
X282000000Y-40530000D02*
X261560000Y-40530000D01*
X261560000Y-40530000D02*
X261560000Y-42180000D01*
X261500000Y-48320000D02*
X282060000Y-48320000D01*
X282060000Y-48320000D02*
X282060000Y-38040000D01*
X282060000Y-38040000D02*
X261500000Y-38040000D01*
X261500000Y-38040000D02*
X261500000Y-48320000D01*
X261560000Y-42180000D02*
G75*
G02*
X261560000Y-44180000I0J-1000000D01*
G01*
X219650000Y-44180000D02*
X219650000Y-45830000D01*
X219650000Y-45830000D02*
X240090000Y-45830000D01*
X240090000Y-45830000D02*
X240090000Y-40530000D01*
X240090000Y-40530000D02*
X219650000Y-40530000D01*
X219650000Y-40530000D02*
X219650000Y-42180000D01*
X219590000Y-48320000D02*
X240150000Y-48320000D01*
X240150000Y-48320000D02*
X240150000Y-38040000D01*
X240150000Y-38040000D02*
X219590000Y-38040000D01*
X219590000Y-38040000D02*
X219590000Y-48320000D01*
X219650000Y-42180000D02*
G75*
G02*
X219650000Y-44180000I0J-1000000D01*
G01*
X177740000Y-44180000D02*
X177740000Y-45830000D01*
X177740000Y-45830000D02*
X198180000Y-45830000D01*
X198180000Y-45830000D02*
X198180000Y-40530000D01*
X198180000Y-40530000D02*
X177740000Y-40530000D01*
X177740000Y-40530000D02*
X177740000Y-42180000D01*
X177680000Y-48320000D02*
X198240000Y-48320000D01*
X198240000Y-48320000D02*
X198240000Y-38040000D01*
X198240000Y-38040000D02*
X177680000Y-38040000D01*
X177680000Y-38040000D02*
X177680000Y-48320000D01*
X177740000Y-42180000D02*
G75*
G02*
X177740000Y-44180000I0J-1000000D01*
G01*
X135830000Y-44180000D02*
X135830000Y-45830000D01*
X135830000Y-45830000D02*
X156270000Y-45830000D01*
X156270000Y-45830000D02*
X156270000Y-40530000D01*
X156270000Y-40530000D02*
X135830000Y-40530000D01*
X135830000Y-40530000D02*
X135830000Y-42180000D01*
X135770000Y-48320000D02*
X156330000Y-48320000D01*
X156330000Y-48320000D02*
X156330000Y-38040000D01*
X156330000Y-38040000D02*
X135770000Y-38040000D01*
X135770000Y-38040000D02*
X135770000Y-48320000D01*
X135830000Y-42180000D02*
G75*
G02*
X135830000Y-44180000I0J-1000000D01*
G01*
X234585000Y-52010000D02*
X232935000Y-52010000D01*
X232935000Y-52010000D02*
X232935000Y-72450000D01*
X232935000Y-72450000D02*
X238235000Y-72450000D01*
X238235000Y-72450000D02*
X238235000Y-52010000D01*
X238235000Y-52010000D02*
X236585000Y-52010000D01*
X230445000Y-51950000D02*
X230445000Y-72510000D01*
X230445000Y-72510000D02*
X240725000Y-72510000D01*
X240725000Y-72510000D02*
X240725000Y-51950000D01*
X240725000Y-51950000D02*
X230445000Y-51950000D01*
X236585000Y-52010000D02*
G75*
G02*
X234585000Y-52010000I-1000000J0D01*
G01*
X264430000Y-54550000D02*
X262780000Y-54550000D01*
X262780000Y-54550000D02*
X262780000Y-77530000D01*
X262780000Y-77530000D02*
X268080000Y-77530000D01*
X268080000Y-77530000D02*
X268080000Y-54550000D01*
X268080000Y-54550000D02*
X266430000Y-54550000D01*
X260290000Y-54490000D02*
X260290000Y-77590000D01*
X260290000Y-77590000D02*
X270570000Y-77590000D01*
X270570000Y-77590000D02*
X270570000Y-54490000D01*
X270570000Y-54490000D02*
X260290000Y-54490000D01*
X266430000Y-54550000D02*
G75*
G02*
X264430000Y-54550000I-1000000J0D01*
G01*
X195520000Y-69580000D02*
X195520000Y-71230000D01*
X195520000Y-71230000D02*
X221040000Y-71230000D01*
X221040000Y-71230000D02*
X221040000Y-65930000D01*
X221040000Y-65930000D02*
X195520000Y-65930000D01*
X195520000Y-65930000D02*
X195520000Y-67580000D01*
X195460000Y-73720000D02*
X221100000Y-73720000D01*
X221100000Y-73720000D02*
X221100000Y-63440000D01*
X221100000Y-63440000D02*
X195460000Y-63440000D01*
X195460000Y-63440000D02*
X195460000Y-73720000D01*
X195520000Y-67580000D02*
G75*
G02*
X195520000Y-69580000I0J-1000000D01*
G01*
X121285000Y-82550000D02*
X121285000Y-52070000D01*
X121285000Y-52070000D02*
X169545000Y-52070000D01*
X169545000Y-52070000D02*
X169545000Y-82550000D01*
X169545000Y-82550000D02*
X121285000Y-82550000D01*
X121285000Y-76200000D02*
X117475000Y-76200000D01*
X117475000Y-76200000D02*
X117475000Y-59690000D01*
X117475000Y-58420000D02*
X121285000Y-58420000D01*
X117475000Y-59690000D02*
X117475000Y-58420000D01*
X247300000Y-27290000D02*
X245460000Y-27290000D01*
X245460000Y-27290000D02*
X245460000Y-31130000D01*
X245460000Y-31130000D02*
X247300000Y-31130000D01*
X247300000Y-31130000D02*
X247300000Y-27290000D01*
X246380000Y-26340000D02*
X246380000Y-27290000D01*
X246380000Y-32080000D02*
X246380000Y-31130000D01*
X240950000Y-27290000D02*
X239110000Y-27290000D01*
X239110000Y-27290000D02*
X239110000Y-31130000D01*
X239110000Y-31130000D02*
X240950000Y-31130000D01*
X240950000Y-31130000D02*
X240950000Y-27290000D01*
X240030000Y-26340000D02*
X240030000Y-27290000D01*
X240030000Y-32080000D02*
X240030000Y-31130000D01*
X235870000Y-27290000D02*
X234030000Y-27290000D01*
X234030000Y-27290000D02*
X234030000Y-31130000D01*
X234030000Y-31130000D02*
X235870000Y-31130000D01*
X235870000Y-31130000D02*
X235870000Y-27290000D01*
X234950000Y-26340000D02*
X234950000Y-27290000D01*
X234950000Y-32080000D02*
X234950000Y-31130000D01*
X230790000Y-27290000D02*
X228950000Y-27290000D01*
X228950000Y-27290000D02*
X228950000Y-31130000D01*
X228950000Y-31130000D02*
X230790000Y-31130000D01*
X230790000Y-31130000D02*
X230790000Y-27290000D01*
X229870000Y-26340000D02*
X229870000Y-27290000D01*
X229870000Y-32080000D02*
X229870000Y-31130000D01*
X225710000Y-27290000D02*
X223870000Y-27290000D01*
X223870000Y-27290000D02*
X223870000Y-31130000D01*
X223870000Y-31130000D02*
X225710000Y-31130000D01*
X225710000Y-31130000D02*
X225710000Y-27290000D01*
X224790000Y-26340000D02*
X224790000Y-27290000D01*
X224790000Y-32080000D02*
X224790000Y-31130000D01*
X220630000Y-27290000D02*
X218790000Y-27290000D01*
X218790000Y-27290000D02*
X218790000Y-31130000D01*
X218790000Y-31130000D02*
X220630000Y-31130000D01*
X220630000Y-31130000D02*
X220630000Y-27290000D01*
X219710000Y-26340000D02*
X219710000Y-27290000D01*
X219710000Y-32080000D02*
X219710000Y-31130000D01*
X215550000Y-27290000D02*
X213710000Y-27290000D01*
X213710000Y-27290000D02*
X213710000Y-31130000D01*
X213710000Y-31130000D02*
X215550000Y-31130000D01*
X215550000Y-31130000D02*
X215550000Y-27290000D01*
X214630000Y-26340000D02*
X214630000Y-27290000D01*
X214630000Y-32080000D02*
X214630000Y-31130000D01*
X210470000Y-27290000D02*
X208630000Y-27290000D01*
X208630000Y-27290000D02*
X208630000Y-31130000D01*
X208630000Y-31130000D02*
X210470000Y-31130000D01*
X210470000Y-31130000D02*
X210470000Y-27290000D01*
X209550000Y-26340000D02*
X209550000Y-27290000D01*
X209550000Y-32080000D02*
X209550000Y-31130000D01*
X205390000Y-27290000D02*
X203550000Y-27290000D01*
X203550000Y-27290000D02*
X203550000Y-31130000D01*
X203550000Y-31130000D02*
X205390000Y-31130000D01*
X205390000Y-31130000D02*
X205390000Y-27290000D01*
X204470000Y-26340000D02*
X204470000Y-27290000D01*
X204470000Y-32080000D02*
X204470000Y-31130000D01*
X199040000Y-27290000D02*
X197200000Y-27290000D01*
X197200000Y-27290000D02*
X197200000Y-31130000D01*
X197200000Y-31130000D02*
X199040000Y-31130000D01*
X199040000Y-31130000D02*
X199040000Y-27290000D01*
X198120000Y-26340000D02*
X198120000Y-27290000D01*
X198120000Y-32080000D02*
X198120000Y-31130000D01*
X193960000Y-27290000D02*
X192120000Y-27290000D01*
X192120000Y-27290000D02*
X192120000Y-31130000D01*
X192120000Y-31130000D02*
X193960000Y-31130000D01*
X193960000Y-31130000D02*
X193960000Y-27290000D01*
X193040000Y-26340000D02*
X193040000Y-27290000D01*
X193040000Y-32080000D02*
X193040000Y-31130000D01*
X188880000Y-27290000D02*
X187040000Y-27290000D01*
X187040000Y-27290000D02*
X187040000Y-31130000D01*
X187040000Y-31130000D02*
X188880000Y-31130000D01*
X188880000Y-31130000D02*
X188880000Y-27290000D01*
X187960000Y-26340000D02*
X187960000Y-27290000D01*
X187960000Y-32080000D02*
X187960000Y-31130000D01*
X183800000Y-27290000D02*
X181960000Y-27290000D01*
X181960000Y-27290000D02*
X181960000Y-31130000D01*
X181960000Y-31130000D02*
X183800000Y-31130000D01*
X183800000Y-31130000D02*
X183800000Y-27290000D01*
X182880000Y-26340000D02*
X182880000Y-27290000D01*
X182880000Y-32080000D02*
X182880000Y-31130000D01*
X178720000Y-27290000D02*
X176880000Y-27290000D01*
X176880000Y-27290000D02*
X176880000Y-31130000D01*
X176880000Y-31130000D02*
X178720000Y-31130000D01*
X178720000Y-31130000D02*
X178720000Y-27290000D01*
X177800000Y-26340000D02*
X177800000Y-27290000D01*
X177800000Y-32080000D02*
X177800000Y-31130000D01*
X173640000Y-27290000D02*
X171800000Y-27290000D01*
X171800000Y-27290000D02*
X171800000Y-31130000D01*
X171800000Y-31130000D02*
X173640000Y-31130000D01*
X173640000Y-31130000D02*
X173640000Y-27290000D01*
X172720000Y-26340000D02*
X172720000Y-27290000D01*
X172720000Y-32080000D02*
X172720000Y-31130000D01*
X168560000Y-27290000D02*
X166720000Y-27290000D01*
X166720000Y-27290000D02*
X166720000Y-31130000D01*
X166720000Y-31130000D02*
X168560000Y-31130000D01*
X168560000Y-31130000D02*
X168560000Y-27290000D01*
X167640000Y-26340000D02*
X167640000Y-27290000D01*
X167640000Y-32080000D02*
X167640000Y-31130000D01*
X163480000Y-27290000D02*
X161640000Y-27290000D01*
X161640000Y-27290000D02*
X161640000Y-31130000D01*
X161640000Y-31130000D02*
X163480000Y-31130000D01*
X163480000Y-31130000D02*
X163480000Y-27290000D01*
X162560000Y-26340000D02*
X162560000Y-27290000D01*
X162560000Y-32080000D02*
X162560000Y-31130000D01*
X157130000Y-27290000D02*
X155290000Y-27290000D01*
X155290000Y-27290000D02*
X155290000Y-31130000D01*
X155290000Y-31130000D02*
X157130000Y-31130000D01*
X157130000Y-31130000D02*
X157130000Y-27290000D01*
X156210000Y-26340000D02*
X156210000Y-27290000D01*
X156210000Y-32080000D02*
X156210000Y-31130000D01*
X152050000Y-27290000D02*
X150210000Y-27290000D01*
X150210000Y-27290000D02*
X150210000Y-31130000D01*
X150210000Y-31130000D02*
X152050000Y-31130000D01*
X152050000Y-31130000D02*
X152050000Y-27290000D01*
X151130000Y-26340000D02*
X151130000Y-27290000D01*
X151130000Y-32080000D02*
X151130000Y-31130000D01*
X146970000Y-27290000D02*
X145130000Y-27290000D01*
X145130000Y-27290000D02*
X145130000Y-31130000D01*
X145130000Y-31130000D02*
X146970000Y-31130000D01*
X146970000Y-31130000D02*
X146970000Y-27290000D01*
X146050000Y-26340000D02*
X146050000Y-27290000D01*
X146050000Y-32080000D02*
X146050000Y-31130000D01*
X141890000Y-27290000D02*
X140050000Y-27290000D01*
X140050000Y-27290000D02*
X140050000Y-31130000D01*
X140050000Y-31130000D02*
X141890000Y-31130000D01*
X141890000Y-31130000D02*
X141890000Y-27290000D01*
X140970000Y-26340000D02*
X140970000Y-27290000D01*
X140970000Y-32080000D02*
X140970000Y-31130000D01*
X136810000Y-27290000D02*
X134970000Y-27290000D01*
X134970000Y-27290000D02*
X134970000Y-31130000D01*
X134970000Y-31130000D02*
X136810000Y-31130000D01*
X136810000Y-31130000D02*
X136810000Y-27290000D01*
X135890000Y-26340000D02*
X135890000Y-27290000D01*
X135890000Y-32080000D02*
X135890000Y-31130000D01*
X131730000Y-27290000D02*
X129890000Y-27290000D01*
X129890000Y-27290000D02*
X129890000Y-31130000D01*
X129890000Y-31130000D02*
X131730000Y-31130000D01*
X131730000Y-31130000D02*
X131730000Y-27290000D01*
X130810000Y-26340000D02*
X130810000Y-27290000D01*
X130810000Y-32080000D02*
X130810000Y-31130000D01*
X126650000Y-27290000D02*
X124810000Y-27290000D01*
X124810000Y-27290000D02*
X124810000Y-31130000D01*
X124810000Y-31130000D02*
X126650000Y-31130000D01*
X126650000Y-31130000D02*
X126650000Y-27290000D01*
X125730000Y-26340000D02*
X125730000Y-27290000D01*
X125730000Y-32080000D02*
X125730000Y-31130000D01*
X121570000Y-27290000D02*
X119730000Y-27290000D01*
X119730000Y-27290000D02*
X119730000Y-31130000D01*
X119730000Y-31130000D02*
X121570000Y-31130000D01*
X121570000Y-31130000D02*
X121570000Y-27290000D01*
X120650000Y-26340000D02*
X120650000Y-27290000D01*
X120650000Y-32080000D02*
X120650000Y-31130000D01*
X253380000Y-56800000D02*
X253380000Y-54960000D01*
X253380000Y-54960000D02*
X249540000Y-54960000D01*
X249540000Y-54960000D02*
X249540000Y-56800000D01*
X249540000Y-56800000D02*
X253380000Y-56800000D01*
X254330000Y-55880000D02*
X253380000Y-55880000D01*
X248590000Y-55880000D02*
X249540000Y-55880000D01*
X253380000Y-59340000D02*
X253380000Y-57500000D01*
X253380000Y-57500000D02*
X249540000Y-57500000D01*
X249540000Y-57500000D02*
X249540000Y-59340000D01*
X249540000Y-59340000D02*
X253380000Y-59340000D01*
X254330000Y-58420000D02*
X253380000Y-58420000D01*
X248590000Y-58420000D02*
X249540000Y-58420000D01*
X253380000Y-61880000D02*
X253380000Y-60040000D01*
X253380000Y-60040000D02*
X249540000Y-60040000D01*
X249540000Y-60040000D02*
X249540000Y-61880000D01*
X249540000Y-61880000D02*
X253380000Y-61880000D01*
X254330000Y-60960000D02*
X253380000Y-60960000D01*
X248590000Y-60960000D02*
X249540000Y-60960000D01*
X253380000Y-64420000D02*
X253380000Y-62580000D01*
X253380000Y-62580000D02*
X249540000Y-62580000D01*
X249540000Y-62580000D02*
X249540000Y-64420000D01*
X249540000Y-64420000D02*
X253380000Y-64420000D01*
X254330000Y-63500000D02*
X253380000Y-63500000D01*
X248590000Y-63500000D02*
X249540000Y-63500000D01*
X253380000Y-66960000D02*
X253380000Y-65120000D01*
X253380000Y-65120000D02*
X249540000Y-65120000D01*
X249540000Y-65120000D02*
X249540000Y-66960000D01*
X249540000Y-66960000D02*
X253380000Y-66960000D01*
X254330000Y-66040000D02*
X253380000Y-66040000D01*
X248590000Y-66040000D02*
X249540000Y-66040000D01*
X253380000Y-69500000D02*
X253380000Y-67660000D01*
X253380000Y-67660000D02*
X249540000Y-67660000D01*
X249540000Y-67660000D02*
X249540000Y-69500000D01*
X249540000Y-69500000D02*
X253380000Y-69500000D01*
X254330000Y-68580000D02*
X253380000Y-68580000D01*
X248590000Y-68580000D02*
X249540000Y-68580000D01*
X253380000Y-72040000D02*
X253380000Y-70200000D01*
X253380000Y-70200000D02*
X249540000Y-70200000D01*
X249540000Y-70200000D02*
X249540000Y-72040000D01*
X249540000Y-72040000D02*
X253380000Y-72040000D01*
X254330000Y-71120000D02*
X253380000Y-71120000D01*
X248590000Y-71120000D02*
X249540000Y-71120000D01*
X253380000Y-74580000D02*
X253380000Y-72740000D01*
X253380000Y-72740000D02*
X249540000Y-72740000D01*
X249540000Y-72740000D02*
X249540000Y-74580000D01*
X249540000Y-74580000D02*
X253380000Y-74580000D01*
X254330000Y-73660000D02*
X253380000Y-73660000D01*
X248590000Y-73660000D02*
X249540000Y-73660000D01*
X200310000Y-76820000D02*
X198470000Y-76820000D01*
X198470000Y-76820000D02*
X198470000Y-80660000D01*
X198470000Y-80660000D02*
X200310000Y-80660000D01*
X200310000Y-80660000D02*
X200310000Y-76820000D01*
X199390000Y-75870000D02*
X199390000Y-76820000D01*
X199390000Y-81610000D02*
X199390000Y-80660000D01*
X205390000Y-76820000D02*
X203550000Y-76820000D01*
X203550000Y-76820000D02*
X203550000Y-80660000D01*
X203550000Y-80660000D02*
X205390000Y-80660000D01*
X205390000Y-80660000D02*
X205390000Y-76820000D01*
X204470000Y-75870000D02*
X204470000Y-76820000D01*
X204470000Y-81610000D02*
X204470000Y-80660000D01*
X210470000Y-76820000D02*
X208630000Y-76820000D01*
X208630000Y-76820000D02*
X208630000Y-80660000D01*
X208630000Y-80660000D02*
X210470000Y-80660000D01*
X210470000Y-80660000D02*
X210470000Y-76820000D01*
X209550000Y-75870000D02*
X209550000Y-76820000D01*
X209550000Y-81610000D02*
X209550000Y-80660000D01*
X215550000Y-76820000D02*
X213710000Y-76820000D01*
X213710000Y-76820000D02*
X213710000Y-80660000D01*
X213710000Y-80660000D02*
X215550000Y-80660000D01*
X215550000Y-80660000D02*
X215550000Y-76820000D01*
X214630000Y-75870000D02*
X214630000Y-76820000D01*
X214630000Y-81610000D02*
X214630000Y-80660000D01*
X203550000Y-60340000D02*
X205390000Y-60340000D01*
X205390000Y-60340000D02*
X205390000Y-56500000D01*
X205390000Y-56500000D02*
X203550000Y-56500000D01*
X203550000Y-56500000D02*
X203550000Y-60340000D01*
X204470000Y-61290000D02*
X204470000Y-60340000D01*
X204470000Y-55550000D02*
X204470000Y-56500000D01*
X208630000Y-60340000D02*
X210470000Y-60340000D01*
X210470000Y-60340000D02*
X210470000Y-56500000D01*
X210470000Y-56500000D02*
X208630000Y-56500000D01*
X208630000Y-56500000D02*
X208630000Y-60340000D01*
X209550000Y-61290000D02*
X209550000Y-60340000D01*
X209550000Y-55550000D02*
X209550000Y-56500000D01*
X213710000Y-60340000D02*
X215550000Y-60340000D01*
X215550000Y-60340000D02*
X215550000Y-56500000D01*
X215550000Y-56500000D02*
X213710000Y-56500000D01*
X213710000Y-56500000D02*
X213710000Y-60340000D01*
X214630000Y-61290000D02*
X214630000Y-60340000D01*
X214630000Y-55550000D02*
X214630000Y-56500000D01*
X253140000Y-17780000D02*
G75*
G03*
X253140000Y-17780000I-1680000J0D01*
G01*
X258220000Y-17780000D02*
G75*
G03*
X258220000Y-17780000I-1680000J0D01*
G01*
X263300000Y-17780000D02*
G75*
G03*
X263300000Y-17780000I-1680000J0D01*
G01*
X268380000Y-17780000D02*
G75*
G03*
X268380000Y-17780000I-1680000J0D01*
G01*
X273460000Y-17780000D02*
G75*
G03*
X273460000Y-17780000I-1680000J0D01*
G01*
X278540000Y-17780000D02*
G75*
G03*
X278540000Y-17780000I-1680000J0D01*
G01*
X283620000Y-17780000D02*
G75*
G03*
X283620000Y-17780000I-1680000J0D01*
G01*
X243780000Y-21880000D02*
X284540000Y-21880000D01*
X243780000Y-20380000D02*
X284540000Y-20380000D01*
X243780000Y-15479000D02*
X284540000Y-15479000D01*
X243780000Y-12519000D02*
X284540000Y-12519000D01*
X243780000Y-22440000D02*
X284540000Y-22440000D01*
X243780000Y-12519000D02*
X243780000Y-22440000D01*
X284540000Y-12519000D02*
X284540000Y-22440000D01*
X252735000Y-16711000D02*
X252688000Y-16757000D01*
X250426000Y-19019000D02*
X250391000Y-19054000D01*
X252530000Y-16505000D02*
X252495000Y-16541000D01*
X250233000Y-18803000D02*
X250186000Y-18849000D01*
X257815000Y-16711000D02*
X257768000Y-16757000D01*
X255506000Y-19019000D02*
X255471000Y-19054000D01*
X257610000Y-16505000D02*
X257575000Y-16541000D01*
X255313000Y-18803000D02*
X255266000Y-18849000D01*
X262895000Y-16711000D02*
X262848000Y-16757000D01*
X260586000Y-19019000D02*
X260551000Y-19054000D01*
X262690000Y-16505000D02*
X262655000Y-16541000D01*
X260393000Y-18803000D02*
X260346000Y-18849000D01*
X267975000Y-16711000D02*
X267928000Y-16757000D01*
X265666000Y-19019000D02*
X265631000Y-19054000D01*
X267770000Y-16505000D02*
X267735000Y-16541000D01*
X265473000Y-18803000D02*
X265426000Y-18849000D01*
X273055000Y-16711000D02*
X273008000Y-16757000D01*
X270746000Y-19019000D02*
X270711000Y-19054000D01*
X272850000Y-16505000D02*
X272815000Y-16541000D01*
X270553000Y-18803000D02*
X270506000Y-18849000D01*
X278135000Y-16711000D02*
X278088000Y-16757000D01*
X275826000Y-19019000D02*
X275791000Y-19054000D01*
X277930000Y-16505000D02*
X277895000Y-16541000D01*
X275633000Y-18803000D02*
X275586000Y-18849000D01*
X283215000Y-16711000D02*
X283168000Y-16757000D01*
X280906000Y-19019000D02*
X280871000Y-19054000D01*
X283010000Y-16505000D02*
X282975000Y-16541000D01*
X280713000Y-18803000D02*
X280666000Y-18849000D01*
X243540000Y-21940000D02*
X243540000Y-22680000D01*
X243540000Y-22680000D02*
X244040000Y-22680000D01*
X246408805Y-19460253D02*
G75*
G02*
X245696000Y-19315000I-28805J1680253D01*
G01*
X244844574Y-18463042D02*
G75*
G02*
X244845000Y-17096000I1535426J683042D01*
G01*
X245696958Y-16244574D02*
G75*
G02*
X247064000Y-16245000I683042J-1535426D01*
G01*
X247915426Y-17096958D02*
G75*
G02*
X247915000Y-18464000I-1535426J-683042D01*
G01*
X247063318Y-19314756D02*
G75*
G02*
X246380000Y-19460000I-683318J1534756D01*
G01*
X211230000Y-17780000D02*
G75*
G03*
X211230000Y-17780000I-1680000J0D01*
G01*
X216310000Y-17780000D02*
G75*
G03*
X216310000Y-17780000I-1680000J0D01*
G01*
X221390000Y-17780000D02*
G75*
G03*
X221390000Y-17780000I-1680000J0D01*
G01*
X226470000Y-17780000D02*
G75*
G03*
X226470000Y-17780000I-1680000J0D01*
G01*
X231550000Y-17780000D02*
G75*
G03*
X231550000Y-17780000I-1680000J0D01*
G01*
X236630000Y-17780000D02*
G75*
G03*
X236630000Y-17780000I-1680000J0D01*
G01*
X241710000Y-17780000D02*
G75*
G03*
X241710000Y-17780000I-1680000J0D01*
G01*
X201870000Y-21880000D02*
X242630000Y-21880000D01*
X201870000Y-20380000D02*
X242630000Y-20380000D01*
X201870000Y-15479000D02*
X242630000Y-15479000D01*
X201870000Y-12519000D02*
X242630000Y-12519000D01*
X201870000Y-22440000D02*
X242630000Y-22440000D01*
X201870000Y-12519000D02*
X201870000Y-22440000D01*
X242630000Y-12519000D02*
X242630000Y-22440000D01*
X210825000Y-16711000D02*
X210778000Y-16757000D01*
X208516000Y-19019000D02*
X208481000Y-19054000D01*
X210620000Y-16505000D02*
X210585000Y-16541000D01*
X208323000Y-18803000D02*
X208276000Y-18849000D01*
X215905000Y-16711000D02*
X215858000Y-16757000D01*
X213596000Y-19019000D02*
X213561000Y-19054000D01*
X215700000Y-16505000D02*
X215665000Y-16541000D01*
X213403000Y-18803000D02*
X213356000Y-18849000D01*
X220985000Y-16711000D02*
X220938000Y-16757000D01*
X218676000Y-19019000D02*
X218641000Y-19054000D01*
X220780000Y-16505000D02*
X220745000Y-16541000D01*
X218483000Y-18803000D02*
X218436000Y-18849000D01*
X226065000Y-16711000D02*
X226018000Y-16757000D01*
X223756000Y-19019000D02*
X223721000Y-19054000D01*
X225860000Y-16505000D02*
X225825000Y-16541000D01*
X223563000Y-18803000D02*
X223516000Y-18849000D01*
X231145000Y-16711000D02*
X231098000Y-16757000D01*
X228836000Y-19019000D02*
X228801000Y-19054000D01*
X230940000Y-16505000D02*
X230905000Y-16541000D01*
X228643000Y-18803000D02*
X228596000Y-18849000D01*
X236225000Y-16711000D02*
X236178000Y-16757000D01*
X233916000Y-19019000D02*
X233881000Y-19054000D01*
X236020000Y-16505000D02*
X235985000Y-16541000D01*
X233723000Y-18803000D02*
X233676000Y-18849000D01*
X241305000Y-16711000D02*
X241258000Y-16757000D01*
X238996000Y-19019000D02*
X238961000Y-19054000D01*
X241100000Y-16505000D02*
X241065000Y-16541000D01*
X238803000Y-18803000D02*
X238756000Y-18849000D01*
X201630000Y-21940000D02*
X201630000Y-22680000D01*
X201630000Y-22680000D02*
X202130000Y-22680000D01*
X204498805Y-19460253D02*
G75*
G02*
X203786000Y-19315000I-28805J1680253D01*
G01*
X202934574Y-18463042D02*
G75*
G02*
X202935000Y-17096000I1535426J683042D01*
G01*
X203786958Y-16244574D02*
G75*
G02*
X205154000Y-16245000I683042J-1535426D01*
G01*
X206005426Y-17096958D02*
G75*
G02*
X206005000Y-18464000I-1535426J-683042D01*
G01*
X205153318Y-19314756D02*
G75*
G02*
X204470000Y-19460000I-683318J1534756D01*
G01*
X169320000Y-17780000D02*
G75*
G03*
X169320000Y-17780000I-1680000J0D01*
G01*
X174400000Y-17780000D02*
G75*
G03*
X174400000Y-17780000I-1680000J0D01*
G01*
X179480000Y-17780000D02*
G75*
G03*
X179480000Y-17780000I-1680000J0D01*
G01*
X184560000Y-17780000D02*
G75*
G03*
X184560000Y-17780000I-1680000J0D01*
G01*
X189640000Y-17780000D02*
G75*
G03*
X189640000Y-17780000I-1680000J0D01*
G01*
X194720000Y-17780000D02*
G75*
G03*
X194720000Y-17780000I-1680000J0D01*
G01*
X199800000Y-17780000D02*
G75*
G03*
X199800000Y-17780000I-1680000J0D01*
G01*
X159960000Y-21880000D02*
X200720000Y-21880000D01*
X159960000Y-20380000D02*
X200720000Y-20380000D01*
X159960000Y-15479000D02*
X200720000Y-15479000D01*
X159960000Y-12519000D02*
X200720000Y-12519000D01*
X159960000Y-22440000D02*
X200720000Y-22440000D01*
X159960000Y-12519000D02*
X159960000Y-22440000D01*
X200720000Y-12519000D02*
X200720000Y-22440000D01*
X168915000Y-16711000D02*
X168868000Y-16757000D01*
X166606000Y-19019000D02*
X166571000Y-19054000D01*
X168710000Y-16505000D02*
X168675000Y-16541000D01*
X166413000Y-18803000D02*
X166366000Y-18849000D01*
X173995000Y-16711000D02*
X173948000Y-16757000D01*
X171686000Y-19019000D02*
X171651000Y-19054000D01*
X173790000Y-16505000D02*
X173755000Y-16541000D01*
X171493000Y-18803000D02*
X171446000Y-18849000D01*
X179075000Y-16711000D02*
X179028000Y-16757000D01*
X176766000Y-19019000D02*
X176731000Y-19054000D01*
X178870000Y-16505000D02*
X178835000Y-16541000D01*
X176573000Y-18803000D02*
X176526000Y-18849000D01*
X184155000Y-16711000D02*
X184108000Y-16757000D01*
X181846000Y-19019000D02*
X181811000Y-19054000D01*
X183950000Y-16505000D02*
X183915000Y-16541000D01*
X181653000Y-18803000D02*
X181606000Y-18849000D01*
X189235000Y-16711000D02*
X189188000Y-16757000D01*
X186926000Y-19019000D02*
X186891000Y-19054000D01*
X189030000Y-16505000D02*
X188995000Y-16541000D01*
X186733000Y-18803000D02*
X186686000Y-18849000D01*
X194315000Y-16711000D02*
X194268000Y-16757000D01*
X192006000Y-19019000D02*
X191971000Y-19054000D01*
X194110000Y-16505000D02*
X194075000Y-16541000D01*
X191813000Y-18803000D02*
X191766000Y-18849000D01*
X199395000Y-16711000D02*
X199348000Y-16757000D01*
X197086000Y-19019000D02*
X197051000Y-19054000D01*
X199190000Y-16505000D02*
X199155000Y-16541000D01*
X196893000Y-18803000D02*
X196846000Y-18849000D01*
X159720000Y-21940000D02*
X159720000Y-22680000D01*
X159720000Y-22680000D02*
X160220000Y-22680000D01*
X162588805Y-19460253D02*
G75*
G02*
X161876000Y-19315000I-28805J1680253D01*
G01*
X161024574Y-18463042D02*
G75*
G02*
X161025000Y-17096000I1535426J683042D01*
G01*
X161876958Y-16244574D02*
G75*
G02*
X163244000Y-16245000I683042J-1535426D01*
G01*
X164095426Y-17096958D02*
G75*
G02*
X164095000Y-18464000I-1535426J-683042D01*
G01*
X163243318Y-19314756D02*
G75*
G02*
X162560000Y-19460000I-683318J1534756D01*
G01*
X127410000Y-17780000D02*
G75*
G03*
X127410000Y-17780000I-1680000J0D01*
G01*
X132490000Y-17780000D02*
G75*
G03*
X132490000Y-17780000I-1680000J0D01*
G01*
X137570000Y-17780000D02*
G75*
G03*
X137570000Y-17780000I-1680000J0D01*
G01*
X142650000Y-17780000D02*
G75*
G03*
X142650000Y-17780000I-1680000J0D01*
G01*
X147730000Y-17780000D02*
G75*
G03*
X147730000Y-17780000I-1680000J0D01*
G01*
X152810000Y-17780000D02*
G75*
G03*
X152810000Y-17780000I-1680000J0D01*
G01*
X157890000Y-17780000D02*
G75*
G03*
X157890000Y-17780000I-1680000J0D01*
G01*
X118050000Y-21880000D02*
X158810000Y-21880000D01*
X118050000Y-20380000D02*
X158810000Y-20380000D01*
X118050000Y-15479000D02*
X158810000Y-15479000D01*
X118050000Y-12519000D02*
X158810000Y-12519000D01*
X118050000Y-22440000D02*
X158810000Y-22440000D01*
X118050000Y-12519000D02*
X118050000Y-22440000D01*
X158810000Y-12519000D02*
X158810000Y-22440000D01*
X127005000Y-16711000D02*
X126958000Y-16757000D01*
X124696000Y-19019000D02*
X124661000Y-19054000D01*
X126800000Y-16505000D02*
X126765000Y-16541000D01*
X124503000Y-18803000D02*
X124456000Y-18849000D01*
X132085000Y-16711000D02*
X132038000Y-16757000D01*
X129776000Y-19019000D02*
X129741000Y-19054000D01*
X131880000Y-16505000D02*
X131845000Y-16541000D01*
X129583000Y-18803000D02*
X129536000Y-18849000D01*
X137165000Y-16711000D02*
X137118000Y-16757000D01*
X134856000Y-19019000D02*
X134821000Y-19054000D01*
X136960000Y-16505000D02*
X136925000Y-16541000D01*
X134663000Y-18803000D02*
X134616000Y-18849000D01*
X142245000Y-16711000D02*
X142198000Y-16757000D01*
X139936000Y-19019000D02*
X139901000Y-19054000D01*
X142040000Y-16505000D02*
X142005000Y-16541000D01*
X139743000Y-18803000D02*
X139696000Y-18849000D01*
X147325000Y-16711000D02*
X147278000Y-16757000D01*
X145016000Y-19019000D02*
X144981000Y-19054000D01*
X147120000Y-16505000D02*
X147085000Y-16541000D01*
X144823000Y-18803000D02*
X144776000Y-18849000D01*
X152405000Y-16711000D02*
X152358000Y-16757000D01*
X150096000Y-19019000D02*
X150061000Y-19054000D01*
X152200000Y-16505000D02*
X152165000Y-16541000D01*
X149903000Y-18803000D02*
X149856000Y-18849000D01*
X157485000Y-16711000D02*
X157438000Y-16757000D01*
X155176000Y-19019000D02*
X155141000Y-19054000D01*
X157280000Y-16505000D02*
X157245000Y-16541000D01*
X154983000Y-18803000D02*
X154936000Y-18849000D01*
X117810000Y-21940000D02*
X117810000Y-22680000D01*
X117810000Y-22680000D02*
X118310000Y-22680000D01*
X120678805Y-19460253D02*
G75*
G02*
X119966000Y-19315000I-28805J1680253D01*
G01*
X119114574Y-18463042D02*
G75*
G02*
X119115000Y-17096000I1535426J683042D01*
G01*
X119966958Y-16244574D02*
G75*
G02*
X121334000Y-16245000I683042J-1535426D01*
G01*
X122185426Y-17096958D02*
G75*
G02*
X122185000Y-18464000I-1535426J-683042D01*
G01*
X121333318Y-19314756D02*
G75*
G02*
X120650000Y-19460000I-683318J1534756D01*
G01*
X279810000Y-59690000D02*
G75*
G03*
X279810000Y-59690000I-1680000J0D01*
G01*
X279810000Y-64770000D02*
G75*
G03*
X279810000Y-64770000I-1680000J0D01*
G01*
X279810000Y-69850000D02*
G75*
G03*
X279810000Y-69850000I-1680000J0D01*
G01*
X279810000Y-74930000D02*
G75*
G03*
X279810000Y-74930000I-1680000J0D01*
G01*
X279810000Y-80010000D02*
G75*
G03*
X279810000Y-80010000I-1680000J0D01*
G01*
X279810000Y-85090000D02*
G75*
G03*
X279810000Y-85090000I-1680000J0D01*
G01*
X279810000Y-90170000D02*
G75*
G03*
X279810000Y-90170000I-1680000J0D01*
G01*
X274030000Y-52010000D02*
X274030000Y-92770000D01*
X275530000Y-52010000D02*
X275530000Y-92770000D01*
X280431000Y-52010000D02*
X280431000Y-92770000D01*
X283391000Y-52010000D02*
X283391000Y-92770000D01*
X273470000Y-52010000D02*
X273470000Y-92770000D01*
X283391000Y-52010000D02*
X273470000Y-52010000D01*
X283391000Y-92770000D02*
X273470000Y-92770000D01*
X279199000Y-60965000D02*
X279153000Y-60918000D01*
X276891000Y-58656000D02*
X276856000Y-58621000D01*
X279405000Y-60760000D02*
X279369000Y-60725000D01*
X277107000Y-58463000D02*
X277061000Y-58416000D01*
X279199000Y-66045000D02*
X279153000Y-65998000D01*
X276891000Y-63736000D02*
X276856000Y-63701000D01*
X279405000Y-65840000D02*
X279369000Y-65805000D01*
X277107000Y-63543000D02*
X277061000Y-63496000D01*
X279199000Y-71125000D02*
X279153000Y-71078000D01*
X276891000Y-68816000D02*
X276856000Y-68781000D01*
X279405000Y-70920000D02*
X279369000Y-70885000D01*
X277107000Y-68623000D02*
X277061000Y-68576000D01*
X279199000Y-76205000D02*
X279153000Y-76158000D01*
X276891000Y-73896000D02*
X276856000Y-73861000D01*
X279405000Y-76000000D02*
X279369000Y-75965000D01*
X277107000Y-73703000D02*
X277061000Y-73656000D01*
X279199000Y-81285000D02*
X279153000Y-81238000D01*
X276891000Y-78976000D02*
X276856000Y-78941000D01*
X279405000Y-81080000D02*
X279369000Y-81045000D01*
X277107000Y-78783000D02*
X277061000Y-78736000D01*
X279199000Y-86365000D02*
X279153000Y-86318000D01*
X276891000Y-84056000D02*
X276856000Y-84021000D01*
X279405000Y-86160000D02*
X279369000Y-86125000D01*
X277107000Y-83863000D02*
X277061000Y-83816000D01*
X279199000Y-91445000D02*
X279153000Y-91398000D01*
X276891000Y-89136000D02*
X276856000Y-89101000D01*
X279405000Y-91240000D02*
X279369000Y-91205000D01*
X277107000Y-88943000D02*
X277061000Y-88896000D01*
X273970000Y-51770000D02*
X273230000Y-51770000D01*
X273230000Y-51770000D02*
X273230000Y-52270000D01*
X276449747Y-54638805D02*
G75*
G02*
X276595000Y-53926000I1680253J28805D01*
G01*
X277446958Y-53074574D02*
G75*
G02*
X278814000Y-53075000I683042J-1535426D01*
G01*
X279665426Y-53926958D02*
G75*
G02*
X279665000Y-55294000I-1535426J-683042D01*
G01*
X278813042Y-56145426D02*
G75*
G02*
X277446000Y-56145000I-683042J1535426D01*
G01*
X276595244Y-55293318D02*
G75*
G02*
X276450000Y-54610000I1534756J683318D01*
G01*
X256690000Y-41220000D02*
X253850000Y-41220000D01*
X253850000Y-41220000D02*
X253850000Y-45260000D01*
X253850000Y-45260000D02*
X256690000Y-45260000D01*
X256690000Y-45260000D02*
X256690000Y-41220000D01*
X255270000Y-40530000D02*
X255270000Y-41220000D01*
X255270000Y-45950000D02*
X255270000Y-45260000D01*
X214780000Y-41100000D02*
X211940000Y-41100000D01*
X211940000Y-41100000D02*
X211940000Y-45140000D01*
X211940000Y-45140000D02*
X214780000Y-45140000D01*
X214780000Y-45140000D02*
X214780000Y-41100000D01*
X213360000Y-40410000D02*
X213360000Y-41100000D01*
X213360000Y-45830000D02*
X213360000Y-45140000D01*
X172870000Y-41220000D02*
X170030000Y-41220000D01*
X170030000Y-41220000D02*
X170030000Y-45260000D01*
X170030000Y-45260000D02*
X172870000Y-45260000D01*
X172870000Y-45260000D02*
X172870000Y-41220000D01*
X171450000Y-40530000D02*
X171450000Y-41220000D01*
X171450000Y-45950000D02*
X171450000Y-45260000D01*
X130960000Y-41220000D02*
X128120000Y-41220000D01*
X128120000Y-41220000D02*
X128120000Y-45260000D01*
X128120000Y-45260000D02*
X130960000Y-45260000D01*
X130960000Y-45260000D02*
X130960000Y-41220000D01*
X129540000Y-40530000D02*
X129540000Y-41220000D01*
X129540000Y-45950000D02*
X129540000Y-45260000D01*
D11*
X118832380Y-87328333D02*
X119546666Y-87328333D01*
X119689523Y-87375952D01*
X119784761Y-87471190D01*
X119832380Y-87614047D01*
X119832380Y-87709285D01*
X119832380Y-86328333D02*
X119832380Y-86899761D01*
X119832380Y-86614047D02*
X118832380Y-86614047D01*
X118975238Y-86709285D01*
X119070476Y-86804523D01*
X119118095Y-86899761D01*
X284312380Y-29852857D02*
X283836190Y-30186190D01*
X284312380Y-30424285D02*
X283312380Y-30424285D01*
X283312380Y-30043333D01*
X283360000Y-29948095D01*
X283407619Y-29900476D01*
X283502857Y-29852857D01*
X283645714Y-29852857D01*
X283740952Y-29900476D01*
X283788571Y-29948095D01*
X283836190Y-30043333D01*
X283836190Y-30424285D01*
X283645714Y-28995714D02*
X284312380Y-28995714D01*
X283264761Y-29233809D02*
X283979047Y-29471904D01*
X283979047Y-28852857D01*
X283312380Y-28567142D02*
X283312380Y-27900476D01*
X284312380Y-28329047D01*
X279232380Y-29852857D02*
X278756190Y-30186190D01*
X279232380Y-30424285D02*
X278232380Y-30424285D01*
X278232380Y-30043333D01*
X278280000Y-29948095D01*
X278327619Y-29900476D01*
X278422857Y-29852857D01*
X278565714Y-29852857D01*
X278660952Y-29900476D01*
X278708571Y-29948095D01*
X278756190Y-30043333D01*
X278756190Y-30424285D01*
X278565714Y-28995714D02*
X279232380Y-28995714D01*
X278184761Y-29233809D02*
X278899047Y-29471904D01*
X278899047Y-28852857D01*
X278232380Y-28043333D02*
X278232380Y-28233809D01*
X278280000Y-28329047D01*
X278327619Y-28376666D01*
X278470476Y-28471904D01*
X278660952Y-28519523D01*
X279041904Y-28519523D01*
X279137142Y-28471904D01*
X279184761Y-28424285D01*
X279232380Y-28329047D01*
X279232380Y-28138571D01*
X279184761Y-28043333D01*
X279137142Y-27995714D01*
X279041904Y-27948095D01*
X278803809Y-27948095D01*
X278708571Y-27995714D01*
X278660952Y-28043333D01*
X278613333Y-28138571D01*
X278613333Y-28329047D01*
X278660952Y-28424285D01*
X278708571Y-28471904D01*
X278803809Y-28519523D01*
X274152380Y-29852857D02*
X273676190Y-30186190D01*
X274152380Y-30424285D02*
X273152380Y-30424285D01*
X273152380Y-30043333D01*
X273200000Y-29948095D01*
X273247619Y-29900476D01*
X273342857Y-29852857D01*
X273485714Y-29852857D01*
X273580952Y-29900476D01*
X273628571Y-29948095D01*
X273676190Y-30043333D01*
X273676190Y-30424285D01*
X273485714Y-28995714D02*
X274152380Y-28995714D01*
X273104761Y-29233809D02*
X273819047Y-29471904D01*
X273819047Y-28852857D01*
X273152380Y-27995714D02*
X273152380Y-28471904D01*
X273628571Y-28519523D01*
X273580952Y-28471904D01*
X273533333Y-28376666D01*
X273533333Y-28138571D01*
X273580952Y-28043333D01*
X273628571Y-27995714D01*
X273723809Y-27948095D01*
X273961904Y-27948095D01*
X274057142Y-27995714D01*
X274104761Y-28043333D01*
X274152380Y-28138571D01*
X274152380Y-28376666D01*
X274104761Y-28471904D01*
X274057142Y-28519523D01*
X269072380Y-29852857D02*
X268596190Y-30186190D01*
X269072380Y-30424285D02*
X268072380Y-30424285D01*
X268072380Y-30043333D01*
X268120000Y-29948095D01*
X268167619Y-29900476D01*
X268262857Y-29852857D01*
X268405714Y-29852857D01*
X268500952Y-29900476D01*
X268548571Y-29948095D01*
X268596190Y-30043333D01*
X268596190Y-30424285D01*
X268405714Y-28995714D02*
X269072380Y-28995714D01*
X268024761Y-29233809D02*
X268739047Y-29471904D01*
X268739047Y-28852857D01*
X268405714Y-28043333D02*
X269072380Y-28043333D01*
X268024761Y-28281428D02*
X268739047Y-28519523D01*
X268739047Y-27900476D01*
X264402380Y-29852857D02*
X263926190Y-30186190D01*
X264402380Y-30424285D02*
X263402380Y-30424285D01*
X263402380Y-30043333D01*
X263450000Y-29948095D01*
X263497619Y-29900476D01*
X263592857Y-29852857D01*
X263735714Y-29852857D01*
X263830952Y-29900476D01*
X263878571Y-29948095D01*
X263926190Y-30043333D01*
X263926190Y-30424285D01*
X263735714Y-28995714D02*
X264402380Y-28995714D01*
X263354761Y-29233809D02*
X264069047Y-29471904D01*
X264069047Y-28852857D01*
X263402380Y-28567142D02*
X263402380Y-27948095D01*
X263783333Y-28281428D01*
X263783333Y-28138571D01*
X263830952Y-28043333D01*
X263878571Y-27995714D01*
X263973809Y-27948095D01*
X264211904Y-27948095D01*
X264307142Y-27995714D01*
X264354761Y-28043333D01*
X264402380Y-28138571D01*
X264402380Y-28424285D01*
X264354761Y-28519523D01*
X264307142Y-28567142D01*
X258912380Y-29852857D02*
X258436190Y-30186190D01*
X258912380Y-30424285D02*
X257912380Y-30424285D01*
X257912380Y-30043333D01*
X257960000Y-29948095D01*
X258007619Y-29900476D01*
X258102857Y-29852857D01*
X258245714Y-29852857D01*
X258340952Y-29900476D01*
X258388571Y-29948095D01*
X258436190Y-30043333D01*
X258436190Y-30424285D01*
X258245714Y-28995714D02*
X258912380Y-28995714D01*
X257864761Y-29233809D02*
X258579047Y-29471904D01*
X258579047Y-28852857D01*
X258007619Y-28519523D02*
X257960000Y-28471904D01*
X257912380Y-28376666D01*
X257912380Y-28138571D01*
X257960000Y-28043333D01*
X258007619Y-27995714D01*
X258102857Y-27948095D01*
X258198095Y-27948095D01*
X258340952Y-27995714D01*
X258912380Y-28567142D01*
X258912380Y-27948095D01*
X253832380Y-29852857D02*
X253356190Y-30186190D01*
X253832380Y-30424285D02*
X252832380Y-30424285D01*
X252832380Y-30043333D01*
X252880000Y-29948095D01*
X252927619Y-29900476D01*
X253022857Y-29852857D01*
X253165714Y-29852857D01*
X253260952Y-29900476D01*
X253308571Y-29948095D01*
X253356190Y-30043333D01*
X253356190Y-30424285D01*
X253165714Y-28995714D02*
X253832380Y-28995714D01*
X252784761Y-29233809D02*
X253499047Y-29471904D01*
X253499047Y-28852857D01*
X253832380Y-27948095D02*
X253832380Y-28519523D01*
X253832380Y-28233809D02*
X252832380Y-28233809D01*
X252975238Y-28329047D01*
X253070476Y-28424285D01*
X253118095Y-28519523D01*
X260012380Y-43941904D02*
X260821904Y-43941904D01*
X260917142Y-43894285D01*
X260964761Y-43846666D01*
X261012380Y-43751428D01*
X261012380Y-43560952D01*
X260964761Y-43465714D01*
X260917142Y-43418095D01*
X260821904Y-43370476D01*
X260012380Y-43370476D01*
X260440952Y-42751428D02*
X260393333Y-42846666D01*
X260345714Y-42894285D01*
X260250476Y-42941904D01*
X260202857Y-42941904D01*
X260107619Y-42894285D01*
X260060000Y-42846666D01*
X260012380Y-42751428D01*
X260012380Y-42560952D01*
X260060000Y-42465714D01*
X260107619Y-42418095D01*
X260202857Y-42370476D01*
X260250476Y-42370476D01*
X260345714Y-42418095D01*
X260393333Y-42465714D01*
X260440952Y-42560952D01*
X260440952Y-42751428D01*
X260488571Y-42846666D01*
X260536190Y-42894285D01*
X260631428Y-42941904D01*
X260821904Y-42941904D01*
X260917142Y-42894285D01*
X260964761Y-42846666D01*
X261012380Y-42751428D01*
X261012380Y-42560952D01*
X260964761Y-42465714D01*
X260917142Y-42418095D01*
X260821904Y-42370476D01*
X260631428Y-42370476D01*
X260536190Y-42418095D01*
X260488571Y-42465714D01*
X260440952Y-42560952D01*
X218102380Y-43941904D02*
X218911904Y-43941904D01*
X219007142Y-43894285D01*
X219054761Y-43846666D01*
X219102380Y-43751428D01*
X219102380Y-43560952D01*
X219054761Y-43465714D01*
X219007142Y-43418095D01*
X218911904Y-43370476D01*
X218102380Y-43370476D01*
X218102380Y-42989523D02*
X218102380Y-42322857D01*
X219102380Y-42751428D01*
X176192380Y-43941904D02*
X177001904Y-43941904D01*
X177097142Y-43894285D01*
X177144761Y-43846666D01*
X177192380Y-43751428D01*
X177192380Y-43560952D01*
X177144761Y-43465714D01*
X177097142Y-43418095D01*
X177001904Y-43370476D01*
X176192380Y-43370476D01*
X176192380Y-42465714D02*
X176192380Y-42656190D01*
X176240000Y-42751428D01*
X176287619Y-42799047D01*
X176430476Y-42894285D01*
X176620952Y-42941904D01*
X177001904Y-42941904D01*
X177097142Y-42894285D01*
X177144761Y-42846666D01*
X177192380Y-42751428D01*
X177192380Y-42560952D01*
X177144761Y-42465714D01*
X177097142Y-42418095D01*
X177001904Y-42370476D01*
X176763809Y-42370476D01*
X176668571Y-42418095D01*
X176620952Y-42465714D01*
X176573333Y-42560952D01*
X176573333Y-42751428D01*
X176620952Y-42846666D01*
X176668571Y-42894285D01*
X176763809Y-42941904D01*
X134282380Y-43941904D02*
X135091904Y-43941904D01*
X135187142Y-43894285D01*
X135234761Y-43846666D01*
X135282380Y-43751428D01*
X135282380Y-43560952D01*
X135234761Y-43465714D01*
X135187142Y-43418095D01*
X135091904Y-43370476D01*
X134282380Y-43370476D01*
X134282380Y-42418095D02*
X134282380Y-42894285D01*
X134758571Y-42941904D01*
X134710952Y-42894285D01*
X134663333Y-42799047D01*
X134663333Y-42560952D01*
X134710952Y-42465714D01*
X134758571Y-42418095D01*
X134853809Y-42370476D01*
X135091904Y-42370476D01*
X135187142Y-42418095D01*
X135234761Y-42465714D01*
X135282380Y-42560952D01*
X135282380Y-42799047D01*
X135234761Y-42894285D01*
X135187142Y-42941904D01*
X234823095Y-50462380D02*
X234823095Y-51271904D01*
X234870714Y-51367142D01*
X234918333Y-51414761D01*
X235013571Y-51462380D01*
X235204047Y-51462380D01*
X235299285Y-51414761D01*
X235346904Y-51367142D01*
X235394523Y-51271904D01*
X235394523Y-50462380D01*
X236299285Y-50795714D02*
X236299285Y-51462380D01*
X236061190Y-50414761D02*
X235823095Y-51129047D01*
X236442142Y-51129047D01*
X264668095Y-53002380D02*
X264668095Y-53811904D01*
X264715714Y-53907142D01*
X264763333Y-53954761D01*
X264858571Y-54002380D01*
X265049047Y-54002380D01*
X265144285Y-53954761D01*
X265191904Y-53907142D01*
X265239523Y-53811904D01*
X265239523Y-53002380D01*
X265620476Y-53002380D02*
X266239523Y-53002380D01*
X265906190Y-53383333D01*
X266049047Y-53383333D01*
X266144285Y-53430952D01*
X266191904Y-53478571D01*
X266239523Y-53573809D01*
X266239523Y-53811904D01*
X266191904Y-53907142D01*
X266144285Y-53954761D01*
X266049047Y-54002380D01*
X265763333Y-54002380D01*
X265668095Y-53954761D01*
X265620476Y-53907142D01*
X193972380Y-69341904D02*
X194781904Y-69341904D01*
X194877142Y-69294285D01*
X194924761Y-69246666D01*
X194972380Y-69151428D01*
X194972380Y-68960952D01*
X194924761Y-68865714D01*
X194877142Y-68818095D01*
X194781904Y-68770476D01*
X193972380Y-68770476D01*
X194067619Y-68341904D02*
X194020000Y-68294285D01*
X193972380Y-68199047D01*
X193972380Y-67960952D01*
X194020000Y-67865714D01*
X194067619Y-67818095D01*
X194162857Y-67770476D01*
X194258095Y-67770476D01*
X194400952Y-67818095D01*
X194972380Y-68389523D01*
X194972380Y-67770476D01*
X122007380Y-69341904D02*
X122816904Y-69341904D01*
X122912142Y-69294285D01*
X122959761Y-69246666D01*
X123007380Y-69151428D01*
X123007380Y-68960952D01*
X122959761Y-68865714D01*
X122912142Y-68818095D01*
X122816904Y-68770476D01*
X122007380Y-68770476D01*
X123007380Y-67770476D02*
X123007380Y-68341904D01*
X123007380Y-68056190D02*
X122007380Y-68056190D01*
X122150238Y-68151428D01*
X122245476Y-68246666D01*
X122293095Y-68341904D01*
X248752380Y-29852857D02*
X248276190Y-30186190D01*
X248752380Y-30424285D02*
X247752380Y-30424285D01*
X247752380Y-30043333D01*
X247800000Y-29948095D01*
X247847619Y-29900476D01*
X247942857Y-29852857D01*
X248085714Y-29852857D01*
X248180952Y-29900476D01*
X248228571Y-29948095D01*
X248276190Y-30043333D01*
X248276190Y-30424285D01*
X248085714Y-28995714D02*
X248752380Y-28995714D01*
X247704761Y-29233809D02*
X248419047Y-29471904D01*
X248419047Y-28852857D01*
X247752380Y-28281428D02*
X247752380Y-28186190D01*
X247800000Y-28090952D01*
X247847619Y-28043333D01*
X247942857Y-27995714D01*
X248133333Y-27948095D01*
X248371428Y-27948095D01*
X248561904Y-27995714D01*
X248657142Y-28043333D01*
X248704761Y-28090952D01*
X248752380Y-28186190D01*
X248752380Y-28281428D01*
X248704761Y-28376666D01*
X248657142Y-28424285D01*
X248561904Y-28471904D01*
X248371428Y-28519523D01*
X248133333Y-28519523D01*
X247942857Y-28471904D01*
X247847619Y-28424285D01*
X247800000Y-28376666D01*
X247752380Y-28281428D01*
X242402380Y-29852857D02*
X241926190Y-30186190D01*
X242402380Y-30424285D02*
X241402380Y-30424285D01*
X241402380Y-30043333D01*
X241450000Y-29948095D01*
X241497619Y-29900476D01*
X241592857Y-29852857D01*
X241735714Y-29852857D01*
X241830952Y-29900476D01*
X241878571Y-29948095D01*
X241926190Y-30043333D01*
X241926190Y-30424285D01*
X241402380Y-29519523D02*
X241402380Y-28900476D01*
X241783333Y-29233809D01*
X241783333Y-29090952D01*
X241830952Y-28995714D01*
X241878571Y-28948095D01*
X241973809Y-28900476D01*
X242211904Y-28900476D01*
X242307142Y-28948095D01*
X242354761Y-28995714D01*
X242402380Y-29090952D01*
X242402380Y-29376666D01*
X242354761Y-29471904D01*
X242307142Y-29519523D01*
X242402380Y-28424285D02*
X242402380Y-28233809D01*
X242354761Y-28138571D01*
X242307142Y-28090952D01*
X242164285Y-27995714D01*
X241973809Y-27948095D01*
X241592857Y-27948095D01*
X241497619Y-27995714D01*
X241450000Y-28043333D01*
X241402380Y-28138571D01*
X241402380Y-28329047D01*
X241450000Y-28424285D01*
X241497619Y-28471904D01*
X241592857Y-28519523D01*
X241830952Y-28519523D01*
X241926190Y-28471904D01*
X241973809Y-28424285D01*
X242021428Y-28329047D01*
X242021428Y-28138571D01*
X241973809Y-28043333D01*
X241926190Y-27995714D01*
X241830952Y-27948095D01*
X237322380Y-29852857D02*
X236846190Y-30186190D01*
X237322380Y-30424285D02*
X236322380Y-30424285D01*
X236322380Y-30043333D01*
X236370000Y-29948095D01*
X236417619Y-29900476D01*
X236512857Y-29852857D01*
X236655714Y-29852857D01*
X236750952Y-29900476D01*
X236798571Y-29948095D01*
X236846190Y-30043333D01*
X236846190Y-30424285D01*
X236322380Y-29519523D02*
X236322380Y-28900476D01*
X236703333Y-29233809D01*
X236703333Y-29090952D01*
X236750952Y-28995714D01*
X236798571Y-28948095D01*
X236893809Y-28900476D01*
X237131904Y-28900476D01*
X237227142Y-28948095D01*
X237274761Y-28995714D01*
X237322380Y-29090952D01*
X237322380Y-29376666D01*
X237274761Y-29471904D01*
X237227142Y-29519523D01*
X236750952Y-28329047D02*
X236703333Y-28424285D01*
X236655714Y-28471904D01*
X236560476Y-28519523D01*
X236512857Y-28519523D01*
X236417619Y-28471904D01*
X236370000Y-28424285D01*
X236322380Y-28329047D01*
X236322380Y-28138571D01*
X236370000Y-28043333D01*
X236417619Y-27995714D01*
X236512857Y-27948095D01*
X236560476Y-27948095D01*
X236655714Y-27995714D01*
X236703333Y-28043333D01*
X236750952Y-28138571D01*
X236750952Y-28329047D01*
X236798571Y-28424285D01*
X236846190Y-28471904D01*
X236941428Y-28519523D01*
X237131904Y-28519523D01*
X237227142Y-28471904D01*
X237274761Y-28424285D01*
X237322380Y-28329047D01*
X237322380Y-28138571D01*
X237274761Y-28043333D01*
X237227142Y-27995714D01*
X237131904Y-27948095D01*
X236941428Y-27948095D01*
X236846190Y-27995714D01*
X236798571Y-28043333D01*
X236750952Y-28138571D01*
X232242380Y-29852857D02*
X231766190Y-30186190D01*
X232242380Y-30424285D02*
X231242380Y-30424285D01*
X231242380Y-30043333D01*
X231290000Y-29948095D01*
X231337619Y-29900476D01*
X231432857Y-29852857D01*
X231575714Y-29852857D01*
X231670952Y-29900476D01*
X231718571Y-29948095D01*
X231766190Y-30043333D01*
X231766190Y-30424285D01*
X231242380Y-29519523D02*
X231242380Y-28900476D01*
X231623333Y-29233809D01*
X231623333Y-29090952D01*
X231670952Y-28995714D01*
X231718571Y-28948095D01*
X231813809Y-28900476D01*
X232051904Y-28900476D01*
X232147142Y-28948095D01*
X232194761Y-28995714D01*
X232242380Y-29090952D01*
X232242380Y-29376666D01*
X232194761Y-29471904D01*
X232147142Y-29519523D01*
X231242380Y-28567142D02*
X231242380Y-27900476D01*
X232242380Y-28329047D01*
X227162380Y-29852857D02*
X226686190Y-30186190D01*
X227162380Y-30424285D02*
X226162380Y-30424285D01*
X226162380Y-30043333D01*
X226210000Y-29948095D01*
X226257619Y-29900476D01*
X226352857Y-29852857D01*
X226495714Y-29852857D01*
X226590952Y-29900476D01*
X226638571Y-29948095D01*
X226686190Y-30043333D01*
X226686190Y-30424285D01*
X226162380Y-29519523D02*
X226162380Y-28900476D01*
X226543333Y-29233809D01*
X226543333Y-29090952D01*
X226590952Y-28995714D01*
X226638571Y-28948095D01*
X226733809Y-28900476D01*
X226971904Y-28900476D01*
X227067142Y-28948095D01*
X227114761Y-28995714D01*
X227162380Y-29090952D01*
X227162380Y-29376666D01*
X227114761Y-29471904D01*
X227067142Y-29519523D01*
X226162380Y-28043333D02*
X226162380Y-28233809D01*
X226210000Y-28329047D01*
X226257619Y-28376666D01*
X226400476Y-28471904D01*
X226590952Y-28519523D01*
X226971904Y-28519523D01*
X227067142Y-28471904D01*
X227114761Y-28424285D01*
X227162380Y-28329047D01*
X227162380Y-28138571D01*
X227114761Y-28043333D01*
X227067142Y-27995714D01*
X226971904Y-27948095D01*
X226733809Y-27948095D01*
X226638571Y-27995714D01*
X226590952Y-28043333D01*
X226543333Y-28138571D01*
X226543333Y-28329047D01*
X226590952Y-28424285D01*
X226638571Y-28471904D01*
X226733809Y-28519523D01*
X222082380Y-29852857D02*
X221606190Y-30186190D01*
X222082380Y-30424285D02*
X221082380Y-30424285D01*
X221082380Y-30043333D01*
X221130000Y-29948095D01*
X221177619Y-29900476D01*
X221272857Y-29852857D01*
X221415714Y-29852857D01*
X221510952Y-29900476D01*
X221558571Y-29948095D01*
X221606190Y-30043333D01*
X221606190Y-30424285D01*
X221082380Y-29519523D02*
X221082380Y-28900476D01*
X221463333Y-29233809D01*
X221463333Y-29090952D01*
X221510952Y-28995714D01*
X221558571Y-28948095D01*
X221653809Y-28900476D01*
X221891904Y-28900476D01*
X221987142Y-28948095D01*
X222034761Y-28995714D01*
X222082380Y-29090952D01*
X222082380Y-29376666D01*
X222034761Y-29471904D01*
X221987142Y-29519523D01*
X221082380Y-27995714D02*
X221082380Y-28471904D01*
X221558571Y-28519523D01*
X221510952Y-28471904D01*
X221463333Y-28376666D01*
X221463333Y-28138571D01*
X221510952Y-28043333D01*
X221558571Y-27995714D01*
X221653809Y-27948095D01*
X221891904Y-27948095D01*
X221987142Y-27995714D01*
X222034761Y-28043333D01*
X222082380Y-28138571D01*
X222082380Y-28376666D01*
X222034761Y-28471904D01*
X221987142Y-28519523D01*
X217002380Y-29852857D02*
X216526190Y-30186190D01*
X217002380Y-30424285D02*
X216002380Y-30424285D01*
X216002380Y-30043333D01*
X216050000Y-29948095D01*
X216097619Y-29900476D01*
X216192857Y-29852857D01*
X216335714Y-29852857D01*
X216430952Y-29900476D01*
X216478571Y-29948095D01*
X216526190Y-30043333D01*
X216526190Y-30424285D01*
X216002380Y-29519523D02*
X216002380Y-28900476D01*
X216383333Y-29233809D01*
X216383333Y-29090952D01*
X216430952Y-28995714D01*
X216478571Y-28948095D01*
X216573809Y-28900476D01*
X216811904Y-28900476D01*
X216907142Y-28948095D01*
X216954761Y-28995714D01*
X217002380Y-29090952D01*
X217002380Y-29376666D01*
X216954761Y-29471904D01*
X216907142Y-29519523D01*
X216335714Y-28043333D02*
X217002380Y-28043333D01*
X215954761Y-28281428D02*
X216669047Y-28519523D01*
X216669047Y-27900476D01*
X211922380Y-29852857D02*
X211446190Y-30186190D01*
X211922380Y-30424285D02*
X210922380Y-30424285D01*
X210922380Y-30043333D01*
X210970000Y-29948095D01*
X211017619Y-29900476D01*
X211112857Y-29852857D01*
X211255714Y-29852857D01*
X211350952Y-29900476D01*
X211398571Y-29948095D01*
X211446190Y-30043333D01*
X211446190Y-30424285D01*
X210922380Y-29519523D02*
X210922380Y-28900476D01*
X211303333Y-29233809D01*
X211303333Y-29090952D01*
X211350952Y-28995714D01*
X211398571Y-28948095D01*
X211493809Y-28900476D01*
X211731904Y-28900476D01*
X211827142Y-28948095D01*
X211874761Y-28995714D01*
X211922380Y-29090952D01*
X211922380Y-29376666D01*
X211874761Y-29471904D01*
X211827142Y-29519523D01*
X210922380Y-28567142D02*
X210922380Y-27948095D01*
X211303333Y-28281428D01*
X211303333Y-28138571D01*
X211350952Y-28043333D01*
X211398571Y-27995714D01*
X211493809Y-27948095D01*
X211731904Y-27948095D01*
X211827142Y-27995714D01*
X211874761Y-28043333D01*
X211922380Y-28138571D01*
X211922380Y-28424285D01*
X211874761Y-28519523D01*
X211827142Y-28567142D01*
X206842380Y-29852857D02*
X206366190Y-30186190D01*
X206842380Y-30424285D02*
X205842380Y-30424285D01*
X205842380Y-30043333D01*
X205890000Y-29948095D01*
X205937619Y-29900476D01*
X206032857Y-29852857D01*
X206175714Y-29852857D01*
X206270952Y-29900476D01*
X206318571Y-29948095D01*
X206366190Y-30043333D01*
X206366190Y-30424285D01*
X205842380Y-29519523D02*
X205842380Y-28900476D01*
X206223333Y-29233809D01*
X206223333Y-29090952D01*
X206270952Y-28995714D01*
X206318571Y-28948095D01*
X206413809Y-28900476D01*
X206651904Y-28900476D01*
X206747142Y-28948095D01*
X206794761Y-28995714D01*
X206842380Y-29090952D01*
X206842380Y-29376666D01*
X206794761Y-29471904D01*
X206747142Y-29519523D01*
X205937619Y-28519523D02*
X205890000Y-28471904D01*
X205842380Y-28376666D01*
X205842380Y-28138571D01*
X205890000Y-28043333D01*
X205937619Y-27995714D01*
X206032857Y-27948095D01*
X206128095Y-27948095D01*
X206270952Y-27995714D01*
X206842380Y-28567142D01*
X206842380Y-27948095D01*
X200492380Y-29852857D02*
X200016190Y-30186190D01*
X200492380Y-30424285D02*
X199492380Y-30424285D01*
X199492380Y-30043333D01*
X199540000Y-29948095D01*
X199587619Y-29900476D01*
X199682857Y-29852857D01*
X199825714Y-29852857D01*
X199920952Y-29900476D01*
X199968571Y-29948095D01*
X200016190Y-30043333D01*
X200016190Y-30424285D01*
X199492380Y-29519523D02*
X199492380Y-28900476D01*
X199873333Y-29233809D01*
X199873333Y-29090952D01*
X199920952Y-28995714D01*
X199968571Y-28948095D01*
X200063809Y-28900476D01*
X200301904Y-28900476D01*
X200397142Y-28948095D01*
X200444761Y-28995714D01*
X200492380Y-29090952D01*
X200492380Y-29376666D01*
X200444761Y-29471904D01*
X200397142Y-29519523D01*
X200492380Y-27948095D02*
X200492380Y-28519523D01*
X200492380Y-28233809D02*
X199492380Y-28233809D01*
X199635238Y-28329047D01*
X199730476Y-28424285D01*
X199778095Y-28519523D01*
X195412380Y-29852857D02*
X194936190Y-30186190D01*
X195412380Y-30424285D02*
X194412380Y-30424285D01*
X194412380Y-30043333D01*
X194460000Y-29948095D01*
X194507619Y-29900476D01*
X194602857Y-29852857D01*
X194745714Y-29852857D01*
X194840952Y-29900476D01*
X194888571Y-29948095D01*
X194936190Y-30043333D01*
X194936190Y-30424285D01*
X194412380Y-29519523D02*
X194412380Y-28900476D01*
X194793333Y-29233809D01*
X194793333Y-29090952D01*
X194840952Y-28995714D01*
X194888571Y-28948095D01*
X194983809Y-28900476D01*
X195221904Y-28900476D01*
X195317142Y-28948095D01*
X195364761Y-28995714D01*
X195412380Y-29090952D01*
X195412380Y-29376666D01*
X195364761Y-29471904D01*
X195317142Y-29519523D01*
X194412380Y-28281428D02*
X194412380Y-28186190D01*
X194460000Y-28090952D01*
X194507619Y-28043333D01*
X194602857Y-27995714D01*
X194793333Y-27948095D01*
X195031428Y-27948095D01*
X195221904Y-27995714D01*
X195317142Y-28043333D01*
X195364761Y-28090952D01*
X195412380Y-28186190D01*
X195412380Y-28281428D01*
X195364761Y-28376666D01*
X195317142Y-28424285D01*
X195221904Y-28471904D01*
X195031428Y-28519523D01*
X194793333Y-28519523D01*
X194602857Y-28471904D01*
X194507619Y-28424285D01*
X194460000Y-28376666D01*
X194412380Y-28281428D01*
X190332380Y-29852857D02*
X189856190Y-30186190D01*
X190332380Y-30424285D02*
X189332380Y-30424285D01*
X189332380Y-30043333D01*
X189380000Y-29948095D01*
X189427619Y-29900476D01*
X189522857Y-29852857D01*
X189665714Y-29852857D01*
X189760952Y-29900476D01*
X189808571Y-29948095D01*
X189856190Y-30043333D01*
X189856190Y-30424285D01*
X189427619Y-29471904D02*
X189380000Y-29424285D01*
X189332380Y-29329047D01*
X189332380Y-29090952D01*
X189380000Y-28995714D01*
X189427619Y-28948095D01*
X189522857Y-28900476D01*
X189618095Y-28900476D01*
X189760952Y-28948095D01*
X190332380Y-29519523D01*
X190332380Y-28900476D01*
X190332380Y-28424285D02*
X190332380Y-28233809D01*
X190284761Y-28138571D01*
X190237142Y-28090952D01*
X190094285Y-27995714D01*
X189903809Y-27948095D01*
X189522857Y-27948095D01*
X189427619Y-27995714D01*
X189380000Y-28043333D01*
X189332380Y-28138571D01*
X189332380Y-28329047D01*
X189380000Y-28424285D01*
X189427619Y-28471904D01*
X189522857Y-28519523D01*
X189760952Y-28519523D01*
X189856190Y-28471904D01*
X189903809Y-28424285D01*
X189951428Y-28329047D01*
X189951428Y-28138571D01*
X189903809Y-28043333D01*
X189856190Y-27995714D01*
X189760952Y-27948095D01*
X185252380Y-29852857D02*
X184776190Y-30186190D01*
X185252380Y-30424285D02*
X184252380Y-30424285D01*
X184252380Y-30043333D01*
X184300000Y-29948095D01*
X184347619Y-29900476D01*
X184442857Y-29852857D01*
X184585714Y-29852857D01*
X184680952Y-29900476D01*
X184728571Y-29948095D01*
X184776190Y-30043333D01*
X184776190Y-30424285D01*
X184347619Y-29471904D02*
X184300000Y-29424285D01*
X184252380Y-29329047D01*
X184252380Y-29090952D01*
X184300000Y-28995714D01*
X184347619Y-28948095D01*
X184442857Y-28900476D01*
X184538095Y-28900476D01*
X184680952Y-28948095D01*
X185252380Y-29519523D01*
X185252380Y-28900476D01*
X184680952Y-28329047D02*
X184633333Y-28424285D01*
X184585714Y-28471904D01*
X184490476Y-28519523D01*
X184442857Y-28519523D01*
X184347619Y-28471904D01*
X184300000Y-28424285D01*
X184252380Y-28329047D01*
X184252380Y-28138571D01*
X184300000Y-28043333D01*
X184347619Y-27995714D01*
X184442857Y-27948095D01*
X184490476Y-27948095D01*
X184585714Y-27995714D01*
X184633333Y-28043333D01*
X184680952Y-28138571D01*
X184680952Y-28329047D01*
X184728571Y-28424285D01*
X184776190Y-28471904D01*
X184871428Y-28519523D01*
X185061904Y-28519523D01*
X185157142Y-28471904D01*
X185204761Y-28424285D01*
X185252380Y-28329047D01*
X185252380Y-28138571D01*
X185204761Y-28043333D01*
X185157142Y-27995714D01*
X185061904Y-27948095D01*
X184871428Y-27948095D01*
X184776190Y-27995714D01*
X184728571Y-28043333D01*
X184680952Y-28138571D01*
X180172380Y-29852857D02*
X179696190Y-30186190D01*
X180172380Y-30424285D02*
X179172380Y-30424285D01*
X179172380Y-30043333D01*
X179220000Y-29948095D01*
X179267619Y-29900476D01*
X179362857Y-29852857D01*
X179505714Y-29852857D01*
X179600952Y-29900476D01*
X179648571Y-29948095D01*
X179696190Y-30043333D01*
X179696190Y-30424285D01*
X179267619Y-29471904D02*
X179220000Y-29424285D01*
X179172380Y-29329047D01*
X179172380Y-29090952D01*
X179220000Y-28995714D01*
X179267619Y-28948095D01*
X179362857Y-28900476D01*
X179458095Y-28900476D01*
X179600952Y-28948095D01*
X180172380Y-29519523D01*
X180172380Y-28900476D01*
X179172380Y-28567142D02*
X179172380Y-27900476D01*
X180172380Y-28329047D01*
X175092380Y-29852857D02*
X174616190Y-30186190D01*
X175092380Y-30424285D02*
X174092380Y-30424285D01*
X174092380Y-30043333D01*
X174140000Y-29948095D01*
X174187619Y-29900476D01*
X174282857Y-29852857D01*
X174425714Y-29852857D01*
X174520952Y-29900476D01*
X174568571Y-29948095D01*
X174616190Y-30043333D01*
X174616190Y-30424285D01*
X174187619Y-29471904D02*
X174140000Y-29424285D01*
X174092380Y-29329047D01*
X174092380Y-29090952D01*
X174140000Y-28995714D01*
X174187619Y-28948095D01*
X174282857Y-28900476D01*
X174378095Y-28900476D01*
X174520952Y-28948095D01*
X175092380Y-29519523D01*
X175092380Y-28900476D01*
X174092380Y-28043333D02*
X174092380Y-28233809D01*
X174140000Y-28329047D01*
X174187619Y-28376666D01*
X174330476Y-28471904D01*
X174520952Y-28519523D01*
X174901904Y-28519523D01*
X174997142Y-28471904D01*
X175044761Y-28424285D01*
X175092380Y-28329047D01*
X175092380Y-28138571D01*
X175044761Y-28043333D01*
X174997142Y-27995714D01*
X174901904Y-27948095D01*
X174663809Y-27948095D01*
X174568571Y-27995714D01*
X174520952Y-28043333D01*
X174473333Y-28138571D01*
X174473333Y-28329047D01*
X174520952Y-28424285D01*
X174568571Y-28471904D01*
X174663809Y-28519523D01*
X170012380Y-29852857D02*
X169536190Y-30186190D01*
X170012380Y-30424285D02*
X169012380Y-30424285D01*
X169012380Y-30043333D01*
X169060000Y-29948095D01*
X169107619Y-29900476D01*
X169202857Y-29852857D01*
X169345714Y-29852857D01*
X169440952Y-29900476D01*
X169488571Y-29948095D01*
X169536190Y-30043333D01*
X169536190Y-30424285D01*
X169107619Y-29471904D02*
X169060000Y-29424285D01*
X169012380Y-29329047D01*
X169012380Y-29090952D01*
X169060000Y-28995714D01*
X169107619Y-28948095D01*
X169202857Y-28900476D01*
X169298095Y-28900476D01*
X169440952Y-28948095D01*
X170012380Y-29519523D01*
X170012380Y-28900476D01*
X169012380Y-27995714D02*
X169012380Y-28471904D01*
X169488571Y-28519523D01*
X169440952Y-28471904D01*
X169393333Y-28376666D01*
X169393333Y-28138571D01*
X169440952Y-28043333D01*
X169488571Y-27995714D01*
X169583809Y-27948095D01*
X169821904Y-27948095D01*
X169917142Y-27995714D01*
X169964761Y-28043333D01*
X170012380Y-28138571D01*
X170012380Y-28376666D01*
X169964761Y-28471904D01*
X169917142Y-28519523D01*
X164932380Y-29852857D02*
X164456190Y-30186190D01*
X164932380Y-30424285D02*
X163932380Y-30424285D01*
X163932380Y-30043333D01*
X163980000Y-29948095D01*
X164027619Y-29900476D01*
X164122857Y-29852857D01*
X164265714Y-29852857D01*
X164360952Y-29900476D01*
X164408571Y-29948095D01*
X164456190Y-30043333D01*
X164456190Y-30424285D01*
X164027619Y-29471904D02*
X163980000Y-29424285D01*
X163932380Y-29329047D01*
X163932380Y-29090952D01*
X163980000Y-28995714D01*
X164027619Y-28948095D01*
X164122857Y-28900476D01*
X164218095Y-28900476D01*
X164360952Y-28948095D01*
X164932380Y-29519523D01*
X164932380Y-28900476D01*
X164265714Y-28043333D02*
X164932380Y-28043333D01*
X163884761Y-28281428D02*
X164599047Y-28519523D01*
X164599047Y-27900476D01*
X158582380Y-29852857D02*
X158106190Y-30186190D01*
X158582380Y-30424285D02*
X157582380Y-30424285D01*
X157582380Y-30043333D01*
X157630000Y-29948095D01*
X157677619Y-29900476D01*
X157772857Y-29852857D01*
X157915714Y-29852857D01*
X158010952Y-29900476D01*
X158058571Y-29948095D01*
X158106190Y-30043333D01*
X158106190Y-30424285D01*
X157677619Y-29471904D02*
X157630000Y-29424285D01*
X157582380Y-29329047D01*
X157582380Y-29090952D01*
X157630000Y-28995714D01*
X157677619Y-28948095D01*
X157772857Y-28900476D01*
X157868095Y-28900476D01*
X158010952Y-28948095D01*
X158582380Y-29519523D01*
X158582380Y-28900476D01*
X157582380Y-28567142D02*
X157582380Y-27948095D01*
X157963333Y-28281428D01*
X157963333Y-28138571D01*
X158010952Y-28043333D01*
X158058571Y-27995714D01*
X158153809Y-27948095D01*
X158391904Y-27948095D01*
X158487142Y-27995714D01*
X158534761Y-28043333D01*
X158582380Y-28138571D01*
X158582380Y-28424285D01*
X158534761Y-28519523D01*
X158487142Y-28567142D01*
X153502380Y-29852857D02*
X153026190Y-30186190D01*
X153502380Y-30424285D02*
X152502380Y-30424285D01*
X152502380Y-30043333D01*
X152550000Y-29948095D01*
X152597619Y-29900476D01*
X152692857Y-29852857D01*
X152835714Y-29852857D01*
X152930952Y-29900476D01*
X152978571Y-29948095D01*
X153026190Y-30043333D01*
X153026190Y-30424285D01*
X152597619Y-29471904D02*
X152550000Y-29424285D01*
X152502380Y-29329047D01*
X152502380Y-29090952D01*
X152550000Y-28995714D01*
X152597619Y-28948095D01*
X152692857Y-28900476D01*
X152788095Y-28900476D01*
X152930952Y-28948095D01*
X153502380Y-29519523D01*
X153502380Y-28900476D01*
X152597619Y-28519523D02*
X152550000Y-28471904D01*
X152502380Y-28376666D01*
X152502380Y-28138571D01*
X152550000Y-28043333D01*
X152597619Y-27995714D01*
X152692857Y-27948095D01*
X152788095Y-27948095D01*
X152930952Y-27995714D01*
X153502380Y-28567142D01*
X153502380Y-27948095D01*
X148422380Y-29852857D02*
X147946190Y-30186190D01*
X148422380Y-30424285D02*
X147422380Y-30424285D01*
X147422380Y-30043333D01*
X147470000Y-29948095D01*
X147517619Y-29900476D01*
X147612857Y-29852857D01*
X147755714Y-29852857D01*
X147850952Y-29900476D01*
X147898571Y-29948095D01*
X147946190Y-30043333D01*
X147946190Y-30424285D01*
X147517619Y-29471904D02*
X147470000Y-29424285D01*
X147422380Y-29329047D01*
X147422380Y-29090952D01*
X147470000Y-28995714D01*
X147517619Y-28948095D01*
X147612857Y-28900476D01*
X147708095Y-28900476D01*
X147850952Y-28948095D01*
X148422380Y-29519523D01*
X148422380Y-28900476D01*
X148422380Y-27948095D02*
X148422380Y-28519523D01*
X148422380Y-28233809D02*
X147422380Y-28233809D01*
X147565238Y-28329047D01*
X147660476Y-28424285D01*
X147708095Y-28519523D01*
X143342380Y-29852857D02*
X142866190Y-30186190D01*
X143342380Y-30424285D02*
X142342380Y-30424285D01*
X142342380Y-30043333D01*
X142390000Y-29948095D01*
X142437619Y-29900476D01*
X142532857Y-29852857D01*
X142675714Y-29852857D01*
X142770952Y-29900476D01*
X142818571Y-29948095D01*
X142866190Y-30043333D01*
X142866190Y-30424285D01*
X142437619Y-29471904D02*
X142390000Y-29424285D01*
X142342380Y-29329047D01*
X142342380Y-29090952D01*
X142390000Y-28995714D01*
X142437619Y-28948095D01*
X142532857Y-28900476D01*
X142628095Y-28900476D01*
X142770952Y-28948095D01*
X143342380Y-29519523D01*
X143342380Y-28900476D01*
X142342380Y-28281428D02*
X142342380Y-28186190D01*
X142390000Y-28090952D01*
X142437619Y-28043333D01*
X142532857Y-27995714D01*
X142723333Y-27948095D01*
X142961428Y-27948095D01*
X143151904Y-27995714D01*
X143247142Y-28043333D01*
X143294761Y-28090952D01*
X143342380Y-28186190D01*
X143342380Y-28281428D01*
X143294761Y-28376666D01*
X143247142Y-28424285D01*
X143151904Y-28471904D01*
X142961428Y-28519523D01*
X142723333Y-28519523D01*
X142532857Y-28471904D01*
X142437619Y-28424285D01*
X142390000Y-28376666D01*
X142342380Y-28281428D01*
X138262380Y-29852857D02*
X137786190Y-30186190D01*
X138262380Y-30424285D02*
X137262380Y-30424285D01*
X137262380Y-30043333D01*
X137310000Y-29948095D01*
X137357619Y-29900476D01*
X137452857Y-29852857D01*
X137595714Y-29852857D01*
X137690952Y-29900476D01*
X137738571Y-29948095D01*
X137786190Y-30043333D01*
X137786190Y-30424285D01*
X138262380Y-28900476D02*
X138262380Y-29471904D01*
X138262380Y-29186190D02*
X137262380Y-29186190D01*
X137405238Y-29281428D01*
X137500476Y-29376666D01*
X137548095Y-29471904D01*
X138262380Y-28424285D02*
X138262380Y-28233809D01*
X138214761Y-28138571D01*
X138167142Y-28090952D01*
X138024285Y-27995714D01*
X137833809Y-27948095D01*
X137452857Y-27948095D01*
X137357619Y-27995714D01*
X137310000Y-28043333D01*
X137262380Y-28138571D01*
X137262380Y-28329047D01*
X137310000Y-28424285D01*
X137357619Y-28471904D01*
X137452857Y-28519523D01*
X137690952Y-28519523D01*
X137786190Y-28471904D01*
X137833809Y-28424285D01*
X137881428Y-28329047D01*
X137881428Y-28138571D01*
X137833809Y-28043333D01*
X137786190Y-27995714D01*
X137690952Y-27948095D01*
X133182380Y-29852857D02*
X132706190Y-30186190D01*
X133182380Y-30424285D02*
X132182380Y-30424285D01*
X132182380Y-30043333D01*
X132230000Y-29948095D01*
X132277619Y-29900476D01*
X132372857Y-29852857D01*
X132515714Y-29852857D01*
X132610952Y-29900476D01*
X132658571Y-29948095D01*
X132706190Y-30043333D01*
X132706190Y-30424285D01*
X133182380Y-28900476D02*
X133182380Y-29471904D01*
X133182380Y-29186190D02*
X132182380Y-29186190D01*
X132325238Y-29281428D01*
X132420476Y-29376666D01*
X132468095Y-29471904D01*
X132610952Y-28329047D02*
X132563333Y-28424285D01*
X132515714Y-28471904D01*
X132420476Y-28519523D01*
X132372857Y-28519523D01*
X132277619Y-28471904D01*
X132230000Y-28424285D01*
X132182380Y-28329047D01*
X132182380Y-28138571D01*
X132230000Y-28043333D01*
X132277619Y-27995714D01*
X132372857Y-27948095D01*
X132420476Y-27948095D01*
X132515714Y-27995714D01*
X132563333Y-28043333D01*
X132610952Y-28138571D01*
X132610952Y-28329047D01*
X132658571Y-28424285D01*
X132706190Y-28471904D01*
X132801428Y-28519523D01*
X132991904Y-28519523D01*
X133087142Y-28471904D01*
X133134761Y-28424285D01*
X133182380Y-28329047D01*
X133182380Y-28138571D01*
X133134761Y-28043333D01*
X133087142Y-27995714D01*
X132991904Y-27948095D01*
X132801428Y-27948095D01*
X132706190Y-27995714D01*
X132658571Y-28043333D01*
X132610952Y-28138571D01*
X128102380Y-29852857D02*
X127626190Y-30186190D01*
X128102380Y-30424285D02*
X127102380Y-30424285D01*
X127102380Y-30043333D01*
X127150000Y-29948095D01*
X127197619Y-29900476D01*
X127292857Y-29852857D01*
X127435714Y-29852857D01*
X127530952Y-29900476D01*
X127578571Y-29948095D01*
X127626190Y-30043333D01*
X127626190Y-30424285D01*
X128102380Y-28900476D02*
X128102380Y-29471904D01*
X128102380Y-29186190D02*
X127102380Y-29186190D01*
X127245238Y-29281428D01*
X127340476Y-29376666D01*
X127388095Y-29471904D01*
X127102380Y-28567142D02*
X127102380Y-27900476D01*
X128102380Y-28329047D01*
X123022380Y-29852857D02*
X122546190Y-30186190D01*
X123022380Y-30424285D02*
X122022380Y-30424285D01*
X122022380Y-30043333D01*
X122070000Y-29948095D01*
X122117619Y-29900476D01*
X122212857Y-29852857D01*
X122355714Y-29852857D01*
X122450952Y-29900476D01*
X122498571Y-29948095D01*
X122546190Y-30043333D01*
X122546190Y-30424285D01*
X123022380Y-28900476D02*
X123022380Y-29471904D01*
X123022380Y-29186190D02*
X122022380Y-29186190D01*
X122165238Y-29281428D01*
X122260476Y-29376666D01*
X122308095Y-29471904D01*
X122022380Y-28043333D02*
X122022380Y-28233809D01*
X122070000Y-28329047D01*
X122117619Y-28376666D01*
X122260476Y-28471904D01*
X122450952Y-28519523D01*
X122831904Y-28519523D01*
X122927142Y-28471904D01*
X122974761Y-28424285D01*
X123022380Y-28329047D01*
X123022380Y-28138571D01*
X122974761Y-28043333D01*
X122927142Y-27995714D01*
X122831904Y-27948095D01*
X122593809Y-27948095D01*
X122498571Y-27995714D01*
X122450952Y-28043333D01*
X122403333Y-28138571D01*
X122403333Y-28329047D01*
X122450952Y-28424285D01*
X122498571Y-28471904D01*
X122593809Y-28519523D01*
X244467142Y-55062380D02*
X244133809Y-54586190D01*
X243895714Y-55062380D02*
X243895714Y-54062380D01*
X244276666Y-54062380D01*
X244371904Y-54110000D01*
X244419523Y-54157619D01*
X244467142Y-54252857D01*
X244467142Y-54395714D01*
X244419523Y-54490952D01*
X244371904Y-54538571D01*
X244276666Y-54586190D01*
X243895714Y-54586190D01*
X245419523Y-55062380D02*
X244848095Y-55062380D01*
X245133809Y-55062380D02*
X245133809Y-54062380D01*
X245038571Y-54205238D01*
X244943333Y-54300476D01*
X244848095Y-54348095D01*
X246324285Y-54062380D02*
X245848095Y-54062380D01*
X245800476Y-54538571D01*
X245848095Y-54490952D01*
X245943333Y-54443333D01*
X246181428Y-54443333D01*
X246276666Y-54490952D01*
X246324285Y-54538571D01*
X246371904Y-54633809D01*
X246371904Y-54871904D01*
X246324285Y-54967142D01*
X246276666Y-55014761D01*
X246181428Y-55062380D01*
X245943333Y-55062380D01*
X245848095Y-55014761D01*
X245800476Y-54967142D01*
X244467142Y-57602380D02*
X244133809Y-57126190D01*
X243895714Y-57602380D02*
X243895714Y-56602380D01*
X244276666Y-56602380D01*
X244371904Y-56650000D01*
X244419523Y-56697619D01*
X244467142Y-56792857D01*
X244467142Y-56935714D01*
X244419523Y-57030952D01*
X244371904Y-57078571D01*
X244276666Y-57126190D01*
X243895714Y-57126190D01*
X245419523Y-57602380D02*
X244848095Y-57602380D01*
X245133809Y-57602380D02*
X245133809Y-56602380D01*
X245038571Y-56745238D01*
X244943333Y-56840476D01*
X244848095Y-56888095D01*
X246276666Y-56935714D02*
X246276666Y-57602380D01*
X246038571Y-56554761D02*
X245800476Y-57269047D01*
X246419523Y-57269047D01*
X244467142Y-60142380D02*
X244133809Y-59666190D01*
X243895714Y-60142380D02*
X243895714Y-59142380D01*
X244276666Y-59142380D01*
X244371904Y-59190000D01*
X244419523Y-59237619D01*
X244467142Y-59332857D01*
X244467142Y-59475714D01*
X244419523Y-59570952D01*
X244371904Y-59618571D01*
X244276666Y-59666190D01*
X243895714Y-59666190D01*
X245419523Y-60142380D02*
X244848095Y-60142380D01*
X245133809Y-60142380D02*
X245133809Y-59142380D01*
X245038571Y-59285238D01*
X244943333Y-59380476D01*
X244848095Y-59428095D01*
X245752857Y-59142380D02*
X246371904Y-59142380D01*
X246038571Y-59523333D01*
X246181428Y-59523333D01*
X246276666Y-59570952D01*
X246324285Y-59618571D01*
X246371904Y-59713809D01*
X246371904Y-59951904D01*
X246324285Y-60047142D01*
X246276666Y-60094761D01*
X246181428Y-60142380D01*
X245895714Y-60142380D01*
X245800476Y-60094761D01*
X245752857Y-60047142D01*
X244467142Y-62682380D02*
X244133809Y-62206190D01*
X243895714Y-62682380D02*
X243895714Y-61682380D01*
X244276666Y-61682380D01*
X244371904Y-61730000D01*
X244419523Y-61777619D01*
X244467142Y-61872857D01*
X244467142Y-62015714D01*
X244419523Y-62110952D01*
X244371904Y-62158571D01*
X244276666Y-62206190D01*
X243895714Y-62206190D01*
X245419523Y-62682380D02*
X244848095Y-62682380D01*
X245133809Y-62682380D02*
X245133809Y-61682380D01*
X245038571Y-61825238D01*
X244943333Y-61920476D01*
X244848095Y-61968095D01*
X245800476Y-61777619D02*
X245848095Y-61730000D01*
X245943333Y-61682380D01*
X246181428Y-61682380D01*
X246276666Y-61730000D01*
X246324285Y-61777619D01*
X246371904Y-61872857D01*
X246371904Y-61968095D01*
X246324285Y-62110952D01*
X245752857Y-62682380D01*
X246371904Y-62682380D01*
X244467142Y-65222380D02*
X244133809Y-64746190D01*
X243895714Y-65222380D02*
X243895714Y-64222380D01*
X244276666Y-64222380D01*
X244371904Y-64270000D01*
X244419523Y-64317619D01*
X244467142Y-64412857D01*
X244467142Y-64555714D01*
X244419523Y-64650952D01*
X244371904Y-64698571D01*
X244276666Y-64746190D01*
X243895714Y-64746190D01*
X245419523Y-65222380D02*
X244848095Y-65222380D01*
X245133809Y-65222380D02*
X245133809Y-64222380D01*
X245038571Y-64365238D01*
X244943333Y-64460476D01*
X244848095Y-64508095D01*
X246371904Y-65222380D02*
X245800476Y-65222380D01*
X246086190Y-65222380D02*
X246086190Y-64222380D01*
X245990952Y-64365238D01*
X245895714Y-64460476D01*
X245800476Y-64508095D01*
X244467142Y-67762380D02*
X244133809Y-67286190D01*
X243895714Y-67762380D02*
X243895714Y-66762380D01*
X244276666Y-66762380D01*
X244371904Y-66810000D01*
X244419523Y-66857619D01*
X244467142Y-66952857D01*
X244467142Y-67095714D01*
X244419523Y-67190952D01*
X244371904Y-67238571D01*
X244276666Y-67286190D01*
X243895714Y-67286190D01*
X245419523Y-67762380D02*
X244848095Y-67762380D01*
X245133809Y-67762380D02*
X245133809Y-66762380D01*
X245038571Y-66905238D01*
X244943333Y-67000476D01*
X244848095Y-67048095D01*
X246038571Y-66762380D02*
X246133809Y-66762380D01*
X246229047Y-66810000D01*
X246276666Y-66857619D01*
X246324285Y-66952857D01*
X246371904Y-67143333D01*
X246371904Y-67381428D01*
X246324285Y-67571904D01*
X246276666Y-67667142D01*
X246229047Y-67714761D01*
X246133809Y-67762380D01*
X246038571Y-67762380D01*
X245943333Y-67714761D01*
X245895714Y-67667142D01*
X245848095Y-67571904D01*
X245800476Y-67381428D01*
X245800476Y-67143333D01*
X245848095Y-66952857D01*
X245895714Y-66857619D01*
X245943333Y-66810000D01*
X246038571Y-66762380D01*
X244943333Y-70302380D02*
X244610000Y-69826190D01*
X244371904Y-70302380D02*
X244371904Y-69302380D01*
X244752857Y-69302380D01*
X244848095Y-69350000D01*
X244895714Y-69397619D01*
X244943333Y-69492857D01*
X244943333Y-69635714D01*
X244895714Y-69730952D01*
X244848095Y-69778571D01*
X244752857Y-69826190D01*
X244371904Y-69826190D01*
X245419523Y-70302380D02*
X245610000Y-70302380D01*
X245705238Y-70254761D01*
X245752857Y-70207142D01*
X245848095Y-70064285D01*
X245895714Y-69873809D01*
X245895714Y-69492857D01*
X245848095Y-69397619D01*
X245800476Y-69350000D01*
X245705238Y-69302380D01*
X245514761Y-69302380D01*
X245419523Y-69350000D01*
X245371904Y-69397619D01*
X245324285Y-69492857D01*
X245324285Y-69730952D01*
X245371904Y-69826190D01*
X245419523Y-69873809D01*
X245514761Y-69921428D01*
X245705238Y-69921428D01*
X245800476Y-69873809D01*
X245848095Y-69826190D01*
X245895714Y-69730952D01*
X244943333Y-72842380D02*
X244610000Y-72366190D01*
X244371904Y-72842380D02*
X244371904Y-71842380D01*
X244752857Y-71842380D01*
X244848095Y-71890000D01*
X244895714Y-71937619D01*
X244943333Y-72032857D01*
X244943333Y-72175714D01*
X244895714Y-72270952D01*
X244848095Y-72318571D01*
X244752857Y-72366190D01*
X244371904Y-72366190D01*
X245514761Y-72270952D02*
X245419523Y-72223333D01*
X245371904Y-72175714D01*
X245324285Y-72080476D01*
X245324285Y-72032857D01*
X245371904Y-71937619D01*
X245419523Y-71890000D01*
X245514761Y-71842380D01*
X245705238Y-71842380D01*
X245800476Y-71890000D01*
X245848095Y-71937619D01*
X245895714Y-72032857D01*
X245895714Y-72080476D01*
X245848095Y-72175714D01*
X245800476Y-72223333D01*
X245705238Y-72270952D01*
X245514761Y-72270952D01*
X245419523Y-72318571D01*
X245371904Y-72366190D01*
X245324285Y-72461428D01*
X245324285Y-72651904D01*
X245371904Y-72747142D01*
X245419523Y-72794761D01*
X245514761Y-72842380D01*
X245705238Y-72842380D01*
X245800476Y-72794761D01*
X245848095Y-72747142D01*
X245895714Y-72651904D01*
X245895714Y-72461428D01*
X245848095Y-72366190D01*
X245800476Y-72318571D01*
X245705238Y-72270952D01*
X197302380Y-80176666D02*
X196826190Y-80510000D01*
X197302380Y-80748095D02*
X196302380Y-80748095D01*
X196302380Y-80367142D01*
X196350000Y-80271904D01*
X196397619Y-80224285D01*
X196492857Y-80176666D01*
X196635714Y-80176666D01*
X196730952Y-80224285D01*
X196778571Y-80271904D01*
X196826190Y-80367142D01*
X196826190Y-80748095D01*
X196302380Y-79843333D02*
X196302380Y-79176666D01*
X197302380Y-79605238D01*
X202382380Y-80176666D02*
X201906190Y-80510000D01*
X202382380Y-80748095D02*
X201382380Y-80748095D01*
X201382380Y-80367142D01*
X201430000Y-80271904D01*
X201477619Y-80224285D01*
X201572857Y-80176666D01*
X201715714Y-80176666D01*
X201810952Y-80224285D01*
X201858571Y-80271904D01*
X201906190Y-80367142D01*
X201906190Y-80748095D01*
X201382380Y-79319523D02*
X201382380Y-79510000D01*
X201430000Y-79605238D01*
X201477619Y-79652857D01*
X201620476Y-79748095D01*
X201810952Y-79795714D01*
X202191904Y-79795714D01*
X202287142Y-79748095D01*
X202334761Y-79700476D01*
X202382380Y-79605238D01*
X202382380Y-79414761D01*
X202334761Y-79319523D01*
X202287142Y-79271904D01*
X202191904Y-79224285D01*
X201953809Y-79224285D01*
X201858571Y-79271904D01*
X201810952Y-79319523D01*
X201763333Y-79414761D01*
X201763333Y-79605238D01*
X201810952Y-79700476D01*
X201858571Y-79748095D01*
X201953809Y-79795714D01*
X207462380Y-80176666D02*
X206986190Y-80510000D01*
X207462380Y-80748095D02*
X206462380Y-80748095D01*
X206462380Y-80367142D01*
X206510000Y-80271904D01*
X206557619Y-80224285D01*
X206652857Y-80176666D01*
X206795714Y-80176666D01*
X206890952Y-80224285D01*
X206938571Y-80271904D01*
X206986190Y-80367142D01*
X206986190Y-80748095D01*
X206462380Y-79271904D02*
X206462380Y-79748095D01*
X206938571Y-79795714D01*
X206890952Y-79748095D01*
X206843333Y-79652857D01*
X206843333Y-79414761D01*
X206890952Y-79319523D01*
X206938571Y-79271904D01*
X207033809Y-79224285D01*
X207271904Y-79224285D01*
X207367142Y-79271904D01*
X207414761Y-79319523D01*
X207462380Y-79414761D01*
X207462380Y-79652857D01*
X207414761Y-79748095D01*
X207367142Y-79795714D01*
X212542380Y-80176666D02*
X212066190Y-80510000D01*
X212542380Y-80748095D02*
X211542380Y-80748095D01*
X211542380Y-80367142D01*
X211590000Y-80271904D01*
X211637619Y-80224285D01*
X211732857Y-80176666D01*
X211875714Y-80176666D01*
X211970952Y-80224285D01*
X212018571Y-80271904D01*
X212066190Y-80367142D01*
X212066190Y-80748095D01*
X211875714Y-79319523D02*
X212542380Y-79319523D01*
X211494761Y-79557619D02*
X212209047Y-79795714D01*
X212209047Y-79176666D01*
X202382380Y-61126666D02*
X201906190Y-61460000D01*
X202382380Y-61698095D02*
X201382380Y-61698095D01*
X201382380Y-61317142D01*
X201430000Y-61221904D01*
X201477619Y-61174285D01*
X201572857Y-61126666D01*
X201715714Y-61126666D01*
X201810952Y-61174285D01*
X201858571Y-61221904D01*
X201906190Y-61317142D01*
X201906190Y-61698095D01*
X201382380Y-60793333D02*
X201382380Y-60174285D01*
X201763333Y-60507619D01*
X201763333Y-60364761D01*
X201810952Y-60269523D01*
X201858571Y-60221904D01*
X201953809Y-60174285D01*
X202191904Y-60174285D01*
X202287142Y-60221904D01*
X202334761Y-60269523D01*
X202382380Y-60364761D01*
X202382380Y-60650476D01*
X202334761Y-60745714D01*
X202287142Y-60793333D01*
X207462380Y-61126666D02*
X206986190Y-61460000D01*
X207462380Y-61698095D02*
X206462380Y-61698095D01*
X206462380Y-61317142D01*
X206510000Y-61221904D01*
X206557619Y-61174285D01*
X206652857Y-61126666D01*
X206795714Y-61126666D01*
X206890952Y-61174285D01*
X206938571Y-61221904D01*
X206986190Y-61317142D01*
X206986190Y-61698095D01*
X206557619Y-60745714D02*
X206510000Y-60698095D01*
X206462380Y-60602857D01*
X206462380Y-60364761D01*
X206510000Y-60269523D01*
X206557619Y-60221904D01*
X206652857Y-60174285D01*
X206748095Y-60174285D01*
X206890952Y-60221904D01*
X207462380Y-60793333D01*
X207462380Y-60174285D01*
X212542380Y-61126666D02*
X212066190Y-61460000D01*
X212542380Y-61698095D02*
X211542380Y-61698095D01*
X211542380Y-61317142D01*
X211590000Y-61221904D01*
X211637619Y-61174285D01*
X211732857Y-61126666D01*
X211875714Y-61126666D01*
X211970952Y-61174285D01*
X212018571Y-61221904D01*
X212066190Y-61317142D01*
X212066190Y-61698095D01*
X212542380Y-60174285D02*
X212542380Y-60745714D01*
X212542380Y-60460000D02*
X211542380Y-60460000D01*
X211685238Y-60555238D01*
X211780476Y-60650476D01*
X211828095Y-60745714D01*
X263826666Y-13422380D02*
X263826666Y-14136666D01*
X263779047Y-14279523D01*
X263683809Y-14374761D01*
X263540952Y-14422380D01*
X263445714Y-14422380D01*
X264731428Y-13422380D02*
X264540952Y-13422380D01*
X264445714Y-13470000D01*
X264398095Y-13517619D01*
X264302857Y-13660476D01*
X264255238Y-13850952D01*
X264255238Y-14231904D01*
X264302857Y-14327142D01*
X264350476Y-14374761D01*
X264445714Y-14422380D01*
X264636190Y-14422380D01*
X264731428Y-14374761D01*
X264779047Y-14327142D01*
X264826666Y-14231904D01*
X264826666Y-13993809D01*
X264779047Y-13898571D01*
X264731428Y-13850952D01*
X264636190Y-13803333D01*
X264445714Y-13803333D01*
X264350476Y-13850952D01*
X264302857Y-13898571D01*
X264255238Y-13993809D01*
X221916666Y-13422380D02*
X221916666Y-14136666D01*
X221869047Y-14279523D01*
X221773809Y-14374761D01*
X221630952Y-14422380D01*
X221535714Y-14422380D01*
X222869047Y-13422380D02*
X222392857Y-13422380D01*
X222345238Y-13898571D01*
X222392857Y-13850952D01*
X222488095Y-13803333D01*
X222726190Y-13803333D01*
X222821428Y-13850952D01*
X222869047Y-13898571D01*
X222916666Y-13993809D01*
X222916666Y-14231904D01*
X222869047Y-14327142D01*
X222821428Y-14374761D01*
X222726190Y-14422380D01*
X222488095Y-14422380D01*
X222392857Y-14374761D01*
X222345238Y-14327142D01*
X180006666Y-13422380D02*
X180006666Y-14136666D01*
X179959047Y-14279523D01*
X179863809Y-14374761D01*
X179720952Y-14422380D01*
X179625714Y-14422380D01*
X180911428Y-13755714D02*
X180911428Y-14422380D01*
X180673333Y-13374761D02*
X180435238Y-14089047D01*
X181054285Y-14089047D01*
X138096666Y-13422380D02*
X138096666Y-14136666D01*
X138049047Y-14279523D01*
X137953809Y-14374761D01*
X137810952Y-14422380D01*
X137715714Y-14422380D01*
X138477619Y-13422380D02*
X139096666Y-13422380D01*
X138763333Y-13803333D01*
X138906190Y-13803333D01*
X139001428Y-13850952D01*
X139049047Y-13898571D01*
X139096666Y-13993809D01*
X139096666Y-14231904D01*
X139049047Y-14327142D01*
X139001428Y-14374761D01*
X138906190Y-14422380D01*
X138620476Y-14422380D01*
X138525238Y-14374761D01*
X138477619Y-14327142D01*
X281392380Y-72723333D02*
X282106666Y-72723333D01*
X282249523Y-72770952D01*
X282344761Y-72866190D01*
X282392380Y-73009047D01*
X282392380Y-73104285D01*
X281487619Y-72294761D02*
X281440000Y-72247142D01*
X281392380Y-72151904D01*
X281392380Y-71913809D01*
X281440000Y-71818571D01*
X281487619Y-71770952D01*
X281582857Y-71723333D01*
X281678095Y-71723333D01*
X281820952Y-71770952D01*
X282392380Y-72342380D01*
X282392380Y-71723333D01*
X258047142Y-43406666D02*
X258094761Y-43454285D01*
X258142380Y-43597142D01*
X258142380Y-43692380D01*
X258094761Y-43835238D01*
X257999523Y-43930476D01*
X257904285Y-43978095D01*
X257713809Y-44025714D01*
X257570952Y-44025714D01*
X257380476Y-43978095D01*
X257285238Y-43930476D01*
X257190000Y-43835238D01*
X257142380Y-43692380D01*
X257142380Y-43597142D01*
X257190000Y-43454285D01*
X257237619Y-43406666D01*
X257475714Y-42549523D02*
X258142380Y-42549523D01*
X257094761Y-42787619D02*
X257809047Y-43025714D01*
X257809047Y-42406666D01*
X216137142Y-43286666D02*
X216184761Y-43334285D01*
X216232380Y-43477142D01*
X216232380Y-43572380D01*
X216184761Y-43715238D01*
X216089523Y-43810476D01*
X215994285Y-43858095D01*
X215803809Y-43905714D01*
X215660952Y-43905714D01*
X215470476Y-43858095D01*
X215375238Y-43810476D01*
X215280000Y-43715238D01*
X215232380Y-43572380D01*
X215232380Y-43477142D01*
X215280000Y-43334285D01*
X215327619Y-43286666D01*
X215232380Y-42953333D02*
X215232380Y-42334285D01*
X215613333Y-42667619D01*
X215613333Y-42524761D01*
X215660952Y-42429523D01*
X215708571Y-42381904D01*
X215803809Y-42334285D01*
X216041904Y-42334285D01*
X216137142Y-42381904D01*
X216184761Y-42429523D01*
X216232380Y-42524761D01*
X216232380Y-42810476D01*
X216184761Y-42905714D01*
X216137142Y-42953333D01*
X174227142Y-43406666D02*
X174274761Y-43454285D01*
X174322380Y-43597142D01*
X174322380Y-43692380D01*
X174274761Y-43835238D01*
X174179523Y-43930476D01*
X174084285Y-43978095D01*
X173893809Y-44025714D01*
X173750952Y-44025714D01*
X173560476Y-43978095D01*
X173465238Y-43930476D01*
X173370000Y-43835238D01*
X173322380Y-43692380D01*
X173322380Y-43597142D01*
X173370000Y-43454285D01*
X173417619Y-43406666D01*
X173417619Y-43025714D02*
X173370000Y-42978095D01*
X173322380Y-42882857D01*
X173322380Y-42644761D01*
X173370000Y-42549523D01*
X173417619Y-42501904D01*
X173512857Y-42454285D01*
X173608095Y-42454285D01*
X173750952Y-42501904D01*
X174322380Y-43073333D01*
X174322380Y-42454285D01*
X132317142Y-43406666D02*
X132364761Y-43454285D01*
X132412380Y-43597142D01*
X132412380Y-43692380D01*
X132364761Y-43835238D01*
X132269523Y-43930476D01*
X132174285Y-43978095D01*
X131983809Y-44025714D01*
X131840952Y-44025714D01*
X131650476Y-43978095D01*
X131555238Y-43930476D01*
X131460000Y-43835238D01*
X131412380Y-43692380D01*
X131412380Y-43597142D01*
X131460000Y-43454285D01*
X131507619Y-43406666D01*
X132412380Y-42454285D02*
X132412380Y-43025714D01*
X132412380Y-42740000D02*
X131412380Y-42740000D01*
X131555238Y-42835238D01*
X131650476Y-42930476D01*
X131698095Y-43025714D01*
%LPC*%
D13*
X121920000Y-87305000D03*
D14*
X121920000Y-90805000D03*
D15*
X281940000Y-33020000D03*
D16*
X281940000Y-25400000D03*
D15*
X276860000Y-33020000D03*
D16*
X276860000Y-25400000D03*
D15*
X271780000Y-33020000D03*
D16*
X271780000Y-25400000D03*
D15*
X266700000Y-33020000D03*
D16*
X266700000Y-25400000D03*
D15*
X262030000Y-33020000D03*
D16*
X262030000Y-25400000D03*
D15*
X256540000Y-33020000D03*
D16*
X256540000Y-25400000D03*
D15*
X251460000Y-33020000D03*
D16*
X251460000Y-25400000D03*
D17*
X262890000Y-39370000D03*
X280670000Y-46990000D03*
X265430000Y-39370000D03*
X278130000Y-46990000D03*
X267970000Y-39370000D03*
X275590000Y-46990000D03*
X270510000Y-39370000D03*
X273050000Y-46990000D03*
X273050000Y-39370000D03*
X270510000Y-46990000D03*
X275590000Y-39370000D03*
X267970000Y-46990000D03*
X278130000Y-39370000D03*
X265430000Y-46990000D03*
X280670000Y-39370000D03*
D18*
X262890000Y-46990000D03*
D17*
X220980000Y-39370000D03*
X238760000Y-46990000D03*
X223520000Y-39370000D03*
X236220000Y-46990000D03*
X226060000Y-39370000D03*
X233680000Y-46990000D03*
X228600000Y-39370000D03*
X231140000Y-46990000D03*
X231140000Y-39370000D03*
X228600000Y-46990000D03*
X233680000Y-39370000D03*
X226060000Y-46990000D03*
X236220000Y-39370000D03*
X223520000Y-46990000D03*
X238760000Y-39370000D03*
D18*
X220980000Y-46990000D03*
D17*
X179070000Y-39370000D03*
X196850000Y-46990000D03*
X181610000Y-39370000D03*
X194310000Y-46990000D03*
X184150000Y-39370000D03*
X191770000Y-46990000D03*
X186690000Y-39370000D03*
X189230000Y-46990000D03*
X189230000Y-39370000D03*
X186690000Y-46990000D03*
X191770000Y-39370000D03*
X184150000Y-46990000D03*
X194310000Y-39370000D03*
X181610000Y-46990000D03*
X196850000Y-39370000D03*
D18*
X179070000Y-46990000D03*
D17*
X137160000Y-39370000D03*
X154940000Y-46990000D03*
X139700000Y-39370000D03*
X152400000Y-46990000D03*
X142240000Y-39370000D03*
X149860000Y-46990000D03*
X144780000Y-39370000D03*
X147320000Y-46990000D03*
X147320000Y-39370000D03*
X144780000Y-46990000D03*
X149860000Y-39370000D03*
X142240000Y-46990000D03*
X152400000Y-39370000D03*
X139700000Y-46990000D03*
X154940000Y-39370000D03*
D18*
X137160000Y-46990000D03*
D17*
X239395000Y-53340000D03*
X231775000Y-71120000D03*
X239395000Y-55880000D03*
X231775000Y-68580000D03*
X239395000Y-58420000D03*
X231775000Y-66040000D03*
X239395000Y-60960000D03*
X231775000Y-63500000D03*
X239395000Y-63500000D03*
X231775000Y-60960000D03*
X239395000Y-66040000D03*
X231775000Y-58420000D03*
X239395000Y-68580000D03*
X231775000Y-55880000D03*
X239395000Y-71120000D03*
D18*
X231775000Y-53340000D03*
D17*
X269240000Y-55880000D03*
X261620000Y-76200000D03*
X269240000Y-58420000D03*
X261620000Y-73660000D03*
X269240000Y-60960000D03*
X261620000Y-71120000D03*
X269240000Y-63500000D03*
X261620000Y-68580000D03*
X269240000Y-66040000D03*
X261620000Y-66040000D03*
X269240000Y-68580000D03*
X261620000Y-63500000D03*
X269240000Y-71120000D03*
X261620000Y-60960000D03*
X269240000Y-73660000D03*
X261620000Y-58420000D03*
X269240000Y-76200000D03*
D18*
X261620000Y-55880000D03*
D17*
X196850000Y-64770000D03*
X219710000Y-72390000D03*
X199390000Y-64770000D03*
X217170000Y-72390000D03*
X201930000Y-64770000D03*
X214630000Y-72390000D03*
X204470000Y-64770000D03*
X212090000Y-72390000D03*
X207010000Y-64770000D03*
X209550000Y-72390000D03*
X209550000Y-64770000D03*
X207010000Y-72390000D03*
X212090000Y-64770000D03*
X204470000Y-72390000D03*
X214630000Y-64770000D03*
X201930000Y-72390000D03*
X217170000Y-64770000D03*
X199390000Y-72390000D03*
X219710000Y-64770000D03*
D18*
X196850000Y-72390000D03*
D19*
X122555000Y-53340000D03*
X125095000Y-53340000D03*
X127635000Y-53340000D03*
X130175000Y-53340000D03*
X132715000Y-53340000D03*
X135255000Y-53340000D03*
X137795000Y-53340000D03*
X140335000Y-53340000D03*
X142875000Y-53340000D03*
X145415000Y-53340000D03*
X147955000Y-53340000D03*
X150495000Y-53340000D03*
X153035000Y-53340000D03*
X155575000Y-53340000D03*
X158115000Y-53340000D03*
X160655000Y-53340000D03*
X163195000Y-53340000D03*
X165735000Y-53340000D03*
X168275000Y-53340000D03*
X168275000Y-81280000D03*
X165735000Y-81280000D03*
X163195000Y-81280000D03*
X160655000Y-81280000D03*
X158115000Y-81280000D03*
X155575000Y-81280000D03*
X153035000Y-81280000D03*
X150495000Y-81280000D03*
X147955000Y-81280000D03*
X145415000Y-81280000D03*
X142875000Y-81280000D03*
X140335000Y-81280000D03*
X137795000Y-81280000D03*
X135255000Y-81280000D03*
X132715000Y-81280000D03*
X130175000Y-81280000D03*
X127635000Y-81280000D03*
X125095000Y-81280000D03*
X122555000Y-81280000D03*
D15*
X246380000Y-33020000D03*
D16*
X246380000Y-25400000D03*
D15*
X240030000Y-33020000D03*
D16*
X240030000Y-25400000D03*
D15*
X234950000Y-33020000D03*
D16*
X234950000Y-25400000D03*
D15*
X229870000Y-33020000D03*
D16*
X229870000Y-25400000D03*
D15*
X224790000Y-33020000D03*
D16*
X224790000Y-25400000D03*
D15*
X219710000Y-33020000D03*
D16*
X219710000Y-25400000D03*
D15*
X214630000Y-33020000D03*
D16*
X214630000Y-25400000D03*
D15*
X209550000Y-33020000D03*
D16*
X209550000Y-25400000D03*
D15*
X204470000Y-33020000D03*
D16*
X204470000Y-25400000D03*
D15*
X198120000Y-33020000D03*
D16*
X198120000Y-25400000D03*
D15*
X193040000Y-33020000D03*
D16*
X193040000Y-25400000D03*
D15*
X187960000Y-33020000D03*
D16*
X187960000Y-25400000D03*
D15*
X182880000Y-33020000D03*
D16*
X182880000Y-25400000D03*
D15*
X177800000Y-33020000D03*
D16*
X177800000Y-25400000D03*
D15*
X172720000Y-33020000D03*
D16*
X172720000Y-25400000D03*
D15*
X167640000Y-33020000D03*
D16*
X167640000Y-25400000D03*
D15*
X162560000Y-33020000D03*
D16*
X162560000Y-25400000D03*
D15*
X156210000Y-33020000D03*
D16*
X156210000Y-25400000D03*
D15*
X151130000Y-33020000D03*
D16*
X151130000Y-25400000D03*
D15*
X146050000Y-33020000D03*
D16*
X146050000Y-25400000D03*
D15*
X140970000Y-33020000D03*
D16*
X140970000Y-25400000D03*
D15*
X135890000Y-33020000D03*
D16*
X135890000Y-25400000D03*
D15*
X130810000Y-33020000D03*
D16*
X130810000Y-25400000D03*
D15*
X125730000Y-33020000D03*
D16*
X125730000Y-25400000D03*
D15*
X120650000Y-33020000D03*
D16*
X120650000Y-25400000D03*
D15*
X247650000Y-55880000D03*
D16*
X255270000Y-55880000D03*
D15*
X247650000Y-58420000D03*
D16*
X255270000Y-58420000D03*
D15*
X247650000Y-60960000D03*
D16*
X255270000Y-60960000D03*
D15*
X247650000Y-63500000D03*
D16*
X255270000Y-63500000D03*
D15*
X247650000Y-66040000D03*
D16*
X255270000Y-66040000D03*
D15*
X247650000Y-68580000D03*
D16*
X255270000Y-68580000D03*
D15*
X247650000Y-71120000D03*
D16*
X255270000Y-71120000D03*
D15*
X247650000Y-73660000D03*
D16*
X255270000Y-73660000D03*
D15*
X199390000Y-82550000D03*
D16*
X199390000Y-74930000D03*
D15*
X204470000Y-82550000D03*
D16*
X204470000Y-74930000D03*
D15*
X209550000Y-82550000D03*
D16*
X209550000Y-74930000D03*
D15*
X214630000Y-82550000D03*
D16*
X214630000Y-74930000D03*
D15*
X204470000Y-54610000D03*
D16*
X204470000Y-62230000D03*
D15*
X209550000Y-54610000D03*
D16*
X209550000Y-62230000D03*
D15*
X214630000Y-54610000D03*
D16*
X214630000Y-62230000D03*
D20*
X281940000Y-17780000D03*
X276860000Y-17780000D03*
X271780000Y-17780000D03*
X266700000Y-17780000D03*
X261620000Y-17780000D03*
X256540000Y-17780000D03*
X251460000Y-17780000D03*
D21*
X246380000Y-17780000D03*
D20*
X240030000Y-17780000D03*
X234950000Y-17780000D03*
X229870000Y-17780000D03*
X224790000Y-17780000D03*
X219710000Y-17780000D03*
X214630000Y-17780000D03*
X209550000Y-17780000D03*
D21*
X204470000Y-17780000D03*
D20*
X198120000Y-17780000D03*
X193040000Y-17780000D03*
X187960000Y-17780000D03*
X182880000Y-17780000D03*
X177800000Y-17780000D03*
X172720000Y-17780000D03*
X167640000Y-17780000D03*
D21*
X162560000Y-17780000D03*
D20*
X156210000Y-17780000D03*
X151130000Y-17780000D03*
X146050000Y-17780000D03*
X140970000Y-17780000D03*
X135890000Y-17780000D03*
X130810000Y-17780000D03*
X125730000Y-17780000D03*
D21*
X120650000Y-17780000D03*
D20*
X278130000Y-90170000D03*
X278130000Y-85090000D03*
X278130000Y-80010000D03*
X278130000Y-74930000D03*
X278130000Y-69850000D03*
X278130000Y-64770000D03*
X278130000Y-59690000D03*
D21*
X278130000Y-54610000D03*
D17*
X255270000Y-46990000D03*
D22*
X255270000Y-39490000D03*
D17*
X213360000Y-46870000D03*
D22*
X213360000Y-39370000D03*
D17*
X171450000Y-46990000D03*
D22*
X171450000Y-39490000D03*
D17*
X129540000Y-46990000D03*
D22*
X129540000Y-39490000D03*
M02*
