M48
; DRILL file {KiCad (5.1.10)-1} date 12/13/23 20:03:43
; FORMAT={-:-/ absolute / metric / decimal}
; #@! TF.CreationDate,2023-12-13T20:03:43-05:00
; #@! TF.GenerationSoftware,Kicad,Pcbnew,(5.1.10)-1
; #@! TF.FileFunction,Plated,1,2,PTH
FMAT,2
METRIC
T1C0.762
T2C1.100
%
G90
G05
T1
X144.145Y-103.505
X146.685Y-103.505
X149.225Y-103.505
X151.765Y-103.505
X154.305Y-103.505
X156.845Y-103.505
X159.385Y-103.505
T2
X122.704Y-107.895
X122.704Y-112.395
X129.204Y-107.895
X129.204Y-112.395
X133.254Y-107.895
X133.254Y-112.395
X139.754Y-107.895
X139.754Y-112.395
X143.845Y-107.895
X143.845Y-112.395
X150.345Y-107.895
X150.345Y-112.395
X154.64Y-107.895
X154.64Y-112.395
X161.14Y-107.895
X161.14Y-112.395
X165.585Y-107.895
X165.585Y-112.395
X172.085Y-107.895
X172.085Y-112.395
X176.23Y-107.895
X176.23Y-112.395
X182.73Y-107.895
X182.73Y-112.395
T0
M30
