G04 #@! TF.GenerationSoftware,KiCad,Pcbnew,(5.1.10)-1*
G04 #@! TF.CreationDate,2023-12-13T20:03:29-05:00*
G04 #@! TF.ProjectId,LED_Matrix_Button_Board,4c45445f-4d61-4747-9269-785f42757474,rev?*
G04 #@! TF.SameCoordinates,Original*
G04 #@! TF.FileFunction,Legend,Top*
G04 #@! TF.FilePolarity,Positive*
%FSLAX46Y46*%
G04 Gerber Fmt 4.6, Leading zero omitted, Abs format (unit mm)*
G04 Created by KiCad (PCBNEW (5.1.10)-1) date 2023-12-13 20:03:29*
%MOMM*%
%LPD*%
G01*
G04 APERTURE LIST*
%ADD10C,0.120000*%
%ADD11C,0.150000*%
%ADD12C,2.200000*%
%ADD13R,1.200000X1.500000*%
%ADD14C,2.000000*%
G04 APERTURE END LIST*
D10*
X160655000Y-104775000D02*
X142875000Y-104775000D01*
X160655000Y-102235000D02*
X160655000Y-104775000D01*
X142875000Y-102235000D02*
X160655000Y-102235000D01*
X142875000Y-104775000D02*
X142875000Y-102235000D01*
X175980000Y-109395000D02*
X175980000Y-110895000D01*
X177230000Y-113395000D02*
X181730000Y-113395000D01*
X182980000Y-110895000D02*
X182980000Y-109395000D01*
X181730000Y-106895000D02*
X177230000Y-106895000D01*
X165335000Y-109395000D02*
X165335000Y-110895000D01*
X166585000Y-113395000D02*
X171085000Y-113395000D01*
X172335000Y-110895000D02*
X172335000Y-109395000D01*
X171085000Y-106895000D02*
X166585000Y-106895000D01*
X154390000Y-109395000D02*
X154390000Y-110895000D01*
X155640000Y-113395000D02*
X160140000Y-113395000D01*
X161390000Y-110895000D02*
X161390000Y-109395000D01*
X160140000Y-106895000D02*
X155640000Y-106895000D01*
X143595000Y-109395000D02*
X143595000Y-110895000D01*
X144845000Y-113395000D02*
X149345000Y-113395000D01*
X150595000Y-110895000D02*
X150595000Y-109395000D01*
X149345000Y-106895000D02*
X144845000Y-106895000D01*
X133004000Y-109395000D02*
X133004000Y-110895000D01*
X134254000Y-113395000D02*
X138754000Y-113395000D01*
X140004000Y-110895000D02*
X140004000Y-109395000D01*
X138754000Y-106895000D02*
X134254000Y-106895000D01*
X122454000Y-109395000D02*
X122454000Y-110895000D01*
X123704000Y-113395000D02*
X128204000Y-113395000D01*
X129454000Y-110895000D02*
X129454000Y-109395000D01*
X128204000Y-106895000D02*
X123704000Y-106895000D01*
D11*
X184713809Y-107132380D02*
X184713809Y-106132380D01*
X185047142Y-106846666D01*
X185380476Y-106132380D01*
X185380476Y-107132380D01*
X185999523Y-107132380D02*
X185904285Y-107084761D01*
X185856666Y-107037142D01*
X185809047Y-106941904D01*
X185809047Y-106656190D01*
X185856666Y-106560952D01*
X185904285Y-106513333D01*
X185999523Y-106465714D01*
X186142380Y-106465714D01*
X186237619Y-106513333D01*
X186285238Y-106560952D01*
X186332857Y-106656190D01*
X186332857Y-106941904D01*
X186285238Y-107037142D01*
X186237619Y-107084761D01*
X186142380Y-107132380D01*
X185999523Y-107132380D01*
X187190000Y-106465714D02*
X187190000Y-107132380D01*
X186761428Y-106465714D02*
X186761428Y-106989523D01*
X186809047Y-107084761D01*
X186904285Y-107132380D01*
X187047142Y-107132380D01*
X187142380Y-107084761D01*
X187190000Y-107037142D01*
X187666190Y-106465714D02*
X187666190Y-107132380D01*
X187666190Y-106560952D02*
X187713809Y-106513333D01*
X187809047Y-106465714D01*
X187951904Y-106465714D01*
X188047142Y-106513333D01*
X188094761Y-106608571D01*
X188094761Y-107132380D01*
X188428095Y-106465714D02*
X188809047Y-106465714D01*
X188570952Y-106132380D02*
X188570952Y-106989523D01*
X188618571Y-107084761D01*
X188713809Y-107132380D01*
X188809047Y-107132380D01*
X184713809Y-114092380D02*
X184713809Y-113092380D01*
X185047142Y-113806666D01*
X185380476Y-113092380D01*
X185380476Y-114092380D01*
X185999523Y-114092380D02*
X185904285Y-114044761D01*
X185856666Y-113997142D01*
X185809047Y-113901904D01*
X185809047Y-113616190D01*
X185856666Y-113520952D01*
X185904285Y-113473333D01*
X185999523Y-113425714D01*
X186142380Y-113425714D01*
X186237619Y-113473333D01*
X186285238Y-113520952D01*
X186332857Y-113616190D01*
X186332857Y-113901904D01*
X186285238Y-113997142D01*
X186237619Y-114044761D01*
X186142380Y-114092380D01*
X185999523Y-114092380D01*
X187190000Y-113425714D02*
X187190000Y-114092380D01*
X186761428Y-113425714D02*
X186761428Y-113949523D01*
X186809047Y-114044761D01*
X186904285Y-114092380D01*
X187047142Y-114092380D01*
X187142380Y-114044761D01*
X187190000Y-113997142D01*
X187666190Y-113425714D02*
X187666190Y-114092380D01*
X187666190Y-113520952D02*
X187713809Y-113473333D01*
X187809047Y-113425714D01*
X187951904Y-113425714D01*
X188047142Y-113473333D01*
X188094761Y-113568571D01*
X188094761Y-114092380D01*
X188428095Y-113425714D02*
X188809047Y-113425714D01*
X188570952Y-113092380D02*
X188570952Y-113949523D01*
X188618571Y-114044761D01*
X188713809Y-114092380D01*
X188809047Y-114092380D01*
X116768809Y-114092380D02*
X116768809Y-113092380D01*
X117102142Y-113806666D01*
X117435476Y-113092380D01*
X117435476Y-114092380D01*
X118054523Y-114092380D02*
X117959285Y-114044761D01*
X117911666Y-113997142D01*
X117864047Y-113901904D01*
X117864047Y-113616190D01*
X117911666Y-113520952D01*
X117959285Y-113473333D01*
X118054523Y-113425714D01*
X118197380Y-113425714D01*
X118292619Y-113473333D01*
X118340238Y-113520952D01*
X118387857Y-113616190D01*
X118387857Y-113901904D01*
X118340238Y-113997142D01*
X118292619Y-114044761D01*
X118197380Y-114092380D01*
X118054523Y-114092380D01*
X119245000Y-113425714D02*
X119245000Y-114092380D01*
X118816428Y-113425714D02*
X118816428Y-113949523D01*
X118864047Y-114044761D01*
X118959285Y-114092380D01*
X119102142Y-114092380D01*
X119197380Y-114044761D01*
X119245000Y-113997142D01*
X119721190Y-113425714D02*
X119721190Y-114092380D01*
X119721190Y-113520952D02*
X119768809Y-113473333D01*
X119864047Y-113425714D01*
X120006904Y-113425714D01*
X120102142Y-113473333D01*
X120149761Y-113568571D01*
X120149761Y-114092380D01*
X120483095Y-113425714D02*
X120864047Y-113425714D01*
X120625952Y-113092380D02*
X120625952Y-113949523D01*
X120673571Y-114044761D01*
X120768809Y-114092380D01*
X120864047Y-114092380D01*
X116768809Y-107132380D02*
X116768809Y-106132380D01*
X117102142Y-106846666D01*
X117435476Y-106132380D01*
X117435476Y-107132380D01*
X118054523Y-107132380D02*
X117959285Y-107084761D01*
X117911666Y-107037142D01*
X117864047Y-106941904D01*
X117864047Y-106656190D01*
X117911666Y-106560952D01*
X117959285Y-106513333D01*
X118054523Y-106465714D01*
X118197380Y-106465714D01*
X118292619Y-106513333D01*
X118340238Y-106560952D01*
X118387857Y-106656190D01*
X118387857Y-106941904D01*
X118340238Y-107037142D01*
X118292619Y-107084761D01*
X118197380Y-107132380D01*
X118054523Y-107132380D01*
X119245000Y-106465714D02*
X119245000Y-107132380D01*
X118816428Y-106465714D02*
X118816428Y-106989523D01*
X118864047Y-107084761D01*
X118959285Y-107132380D01*
X119102142Y-107132380D01*
X119197380Y-107084761D01*
X119245000Y-107037142D01*
X119721190Y-106465714D02*
X119721190Y-107132380D01*
X119721190Y-106560952D02*
X119768809Y-106513333D01*
X119864047Y-106465714D01*
X120006904Y-106465714D01*
X120102142Y-106513333D01*
X120149761Y-106608571D01*
X120149761Y-107132380D01*
X120483095Y-106465714D02*
X120864047Y-106465714D01*
X120625952Y-106132380D02*
X120625952Y-106989523D01*
X120673571Y-107084761D01*
X120768809Y-107132380D01*
X120864047Y-107132380D01*
X141271666Y-102957380D02*
X141271666Y-103671666D01*
X141224047Y-103814523D01*
X141128809Y-103909761D01*
X140985952Y-103957380D01*
X140890714Y-103957380D01*
X142271666Y-103957380D02*
X141700238Y-103957380D01*
X141985952Y-103957380D02*
X141985952Y-102957380D01*
X141890714Y-103100238D01*
X141795476Y-103195476D01*
X141700238Y-103243095D01*
X178146666Y-114799761D02*
X178289523Y-114847380D01*
X178527619Y-114847380D01*
X178622857Y-114799761D01*
X178670476Y-114752142D01*
X178718095Y-114656904D01*
X178718095Y-114561666D01*
X178670476Y-114466428D01*
X178622857Y-114418809D01*
X178527619Y-114371190D01*
X178337142Y-114323571D01*
X178241904Y-114275952D01*
X178194285Y-114228333D01*
X178146666Y-114133095D01*
X178146666Y-114037857D01*
X178194285Y-113942619D01*
X178241904Y-113895000D01*
X178337142Y-113847380D01*
X178575238Y-113847380D01*
X178718095Y-113895000D01*
X179051428Y-113847380D02*
X179289523Y-114847380D01*
X179480000Y-114133095D01*
X179670476Y-114847380D01*
X179908571Y-113847380D01*
X180718095Y-113847380D02*
X180527619Y-113847380D01*
X180432380Y-113895000D01*
X180384761Y-113942619D01*
X180289523Y-114085476D01*
X180241904Y-114275952D01*
X180241904Y-114656904D01*
X180289523Y-114752142D01*
X180337142Y-114799761D01*
X180432380Y-114847380D01*
X180622857Y-114847380D01*
X180718095Y-114799761D01*
X180765714Y-114752142D01*
X180813333Y-114656904D01*
X180813333Y-114418809D01*
X180765714Y-114323571D01*
X180718095Y-114275952D01*
X180622857Y-114228333D01*
X180432380Y-114228333D01*
X180337142Y-114275952D01*
X180289523Y-114323571D01*
X180241904Y-114418809D01*
X167501666Y-114799761D02*
X167644523Y-114847380D01*
X167882619Y-114847380D01*
X167977857Y-114799761D01*
X168025476Y-114752142D01*
X168073095Y-114656904D01*
X168073095Y-114561666D01*
X168025476Y-114466428D01*
X167977857Y-114418809D01*
X167882619Y-114371190D01*
X167692142Y-114323571D01*
X167596904Y-114275952D01*
X167549285Y-114228333D01*
X167501666Y-114133095D01*
X167501666Y-114037857D01*
X167549285Y-113942619D01*
X167596904Y-113895000D01*
X167692142Y-113847380D01*
X167930238Y-113847380D01*
X168073095Y-113895000D01*
X168406428Y-113847380D02*
X168644523Y-114847380D01*
X168835000Y-114133095D01*
X169025476Y-114847380D01*
X169263571Y-113847380D01*
X170120714Y-113847380D02*
X169644523Y-113847380D01*
X169596904Y-114323571D01*
X169644523Y-114275952D01*
X169739761Y-114228333D01*
X169977857Y-114228333D01*
X170073095Y-114275952D01*
X170120714Y-114323571D01*
X170168333Y-114418809D01*
X170168333Y-114656904D01*
X170120714Y-114752142D01*
X170073095Y-114799761D01*
X169977857Y-114847380D01*
X169739761Y-114847380D01*
X169644523Y-114799761D01*
X169596904Y-114752142D01*
X156556666Y-114799761D02*
X156699523Y-114847380D01*
X156937619Y-114847380D01*
X157032857Y-114799761D01*
X157080476Y-114752142D01*
X157128095Y-114656904D01*
X157128095Y-114561666D01*
X157080476Y-114466428D01*
X157032857Y-114418809D01*
X156937619Y-114371190D01*
X156747142Y-114323571D01*
X156651904Y-114275952D01*
X156604285Y-114228333D01*
X156556666Y-114133095D01*
X156556666Y-114037857D01*
X156604285Y-113942619D01*
X156651904Y-113895000D01*
X156747142Y-113847380D01*
X156985238Y-113847380D01*
X157128095Y-113895000D01*
X157461428Y-113847380D02*
X157699523Y-114847380D01*
X157890000Y-114133095D01*
X158080476Y-114847380D01*
X158318571Y-113847380D01*
X159128095Y-114180714D02*
X159128095Y-114847380D01*
X158890000Y-113799761D02*
X158651904Y-114514047D01*
X159270952Y-114514047D01*
X145761666Y-114799761D02*
X145904523Y-114847380D01*
X146142619Y-114847380D01*
X146237857Y-114799761D01*
X146285476Y-114752142D01*
X146333095Y-114656904D01*
X146333095Y-114561666D01*
X146285476Y-114466428D01*
X146237857Y-114418809D01*
X146142619Y-114371190D01*
X145952142Y-114323571D01*
X145856904Y-114275952D01*
X145809285Y-114228333D01*
X145761666Y-114133095D01*
X145761666Y-114037857D01*
X145809285Y-113942619D01*
X145856904Y-113895000D01*
X145952142Y-113847380D01*
X146190238Y-113847380D01*
X146333095Y-113895000D01*
X146666428Y-113847380D02*
X146904523Y-114847380D01*
X147095000Y-114133095D01*
X147285476Y-114847380D01*
X147523571Y-113847380D01*
X147809285Y-113847380D02*
X148428333Y-113847380D01*
X148095000Y-114228333D01*
X148237857Y-114228333D01*
X148333095Y-114275952D01*
X148380714Y-114323571D01*
X148428333Y-114418809D01*
X148428333Y-114656904D01*
X148380714Y-114752142D01*
X148333095Y-114799761D01*
X148237857Y-114847380D01*
X147952142Y-114847380D01*
X147856904Y-114799761D01*
X147809285Y-114752142D01*
X135170666Y-114799761D02*
X135313523Y-114847380D01*
X135551619Y-114847380D01*
X135646857Y-114799761D01*
X135694476Y-114752142D01*
X135742095Y-114656904D01*
X135742095Y-114561666D01*
X135694476Y-114466428D01*
X135646857Y-114418809D01*
X135551619Y-114371190D01*
X135361142Y-114323571D01*
X135265904Y-114275952D01*
X135218285Y-114228333D01*
X135170666Y-114133095D01*
X135170666Y-114037857D01*
X135218285Y-113942619D01*
X135265904Y-113895000D01*
X135361142Y-113847380D01*
X135599238Y-113847380D01*
X135742095Y-113895000D01*
X136075428Y-113847380D02*
X136313523Y-114847380D01*
X136504000Y-114133095D01*
X136694476Y-114847380D01*
X136932571Y-113847380D01*
X137265904Y-113942619D02*
X137313523Y-113895000D01*
X137408761Y-113847380D01*
X137646857Y-113847380D01*
X137742095Y-113895000D01*
X137789714Y-113942619D01*
X137837333Y-114037857D01*
X137837333Y-114133095D01*
X137789714Y-114275952D01*
X137218285Y-114847380D01*
X137837333Y-114847380D01*
X124620666Y-114799761D02*
X124763523Y-114847380D01*
X125001619Y-114847380D01*
X125096857Y-114799761D01*
X125144476Y-114752142D01*
X125192095Y-114656904D01*
X125192095Y-114561666D01*
X125144476Y-114466428D01*
X125096857Y-114418809D01*
X125001619Y-114371190D01*
X124811142Y-114323571D01*
X124715904Y-114275952D01*
X124668285Y-114228333D01*
X124620666Y-114133095D01*
X124620666Y-114037857D01*
X124668285Y-113942619D01*
X124715904Y-113895000D01*
X124811142Y-113847380D01*
X125049238Y-113847380D01*
X125192095Y-113895000D01*
X125525428Y-113847380D02*
X125763523Y-114847380D01*
X125954000Y-114133095D01*
X126144476Y-114847380D01*
X126382571Y-113847380D01*
X127287333Y-114847380D02*
X126715904Y-114847380D01*
X127001619Y-114847380D02*
X127001619Y-113847380D01*
X126906380Y-113990238D01*
X126811142Y-114085476D01*
X126715904Y-114133095D01*
%LPC*%
D12*
X186690000Y-103505000D03*
X186690000Y-116840000D03*
X118745000Y-116840000D03*
X118745000Y-103505000D03*
D13*
X159385000Y-103505000D03*
X156845000Y-103505000D03*
X154305000Y-103505000D03*
X151765000Y-103505000D03*
X149225000Y-103505000D03*
X146685000Y-103505000D03*
X144145000Y-103505000D03*
D14*
X176230000Y-112395000D03*
X176230000Y-107895000D03*
X182730000Y-112395000D03*
X182730000Y-107895000D03*
X165585000Y-112395000D03*
X165585000Y-107895000D03*
X172085000Y-112395000D03*
X172085000Y-107895000D03*
X154640000Y-112395000D03*
X154640000Y-107895000D03*
X161140000Y-112395000D03*
X161140000Y-107895000D03*
X143845000Y-112395000D03*
X143845000Y-107895000D03*
X150345000Y-112395000D03*
X150345000Y-107895000D03*
X133254000Y-112395000D03*
X133254000Y-107895000D03*
X139754000Y-112395000D03*
X139754000Y-107895000D03*
X122704000Y-112395000D03*
X122704000Y-107895000D03*
X129204000Y-112395000D03*
X129204000Y-107895000D03*
M02*
