%FSLAX45Y45*%
G04 Gerber Fmt 4.5, Leading zero omitted, Abs format (unit mm)*
G04 Created by KiCad (PCBNEW (5.1.10)-1) date 2023-12-13 20:03:44*
%MOMM*%
%LPD*%
G01*
G04 APERTURE LIST*
%TA.AperFunction,Profile*%
%ADD10C,0.050000*%
%TD*%
%ADD11C,0.200000*%
%ADD12C,0.300000*%
G04 APERTURE END LIST*
D10*
X11557000Y-12001500D02*
X18986500Y-12001500D01*
X11557000Y-10033000D02*
X11557000Y-12001500D01*
X18986500Y-10033000D02*
X11557000Y-10033000D01*
X18986500Y-12001500D02*
X18986500Y-10033000D01*
D11*
X11764500Y-10240500D02*
X11984500Y-10460500D01*
X11984500Y-10240500D02*
X11764500Y-10460500D01*
X11764500Y-11574000D02*
X11984500Y-11794000D01*
X11984500Y-11574000D02*
X11764500Y-11794000D01*
X18559000Y-10240500D02*
X18779000Y-10460500D01*
X18779000Y-10240500D02*
X18559000Y-10460500D01*
X18559000Y-11574000D02*
X18779000Y-11794000D01*
X18779000Y-11574000D02*
X18559000Y-11794000D01*
D12*
X11840928Y-12469714D02*
X11840928Y-12169714D01*
X11912357Y-12169714D01*
X11955214Y-12184000D01*
X11983786Y-12212571D01*
X11998071Y-12241143D01*
X12012357Y-12298286D01*
X12012357Y-12341143D01*
X11998071Y-12398286D01*
X11983786Y-12426857D01*
X11955214Y-12455429D01*
X11912357Y-12469714D01*
X11840928Y-12469714D01*
X12140928Y-12469714D02*
X12140928Y-12269714D01*
X12140928Y-12326857D02*
X12155214Y-12298286D01*
X12169500Y-12284000D01*
X12198071Y-12269714D01*
X12226643Y-12269714D01*
X12326643Y-12469714D02*
X12326643Y-12269714D01*
X12326643Y-12169714D02*
X12312357Y-12184000D01*
X12326643Y-12198286D01*
X12340928Y-12184000D01*
X12326643Y-12169714D01*
X12326643Y-12198286D01*
X12512357Y-12469714D02*
X12483786Y-12455429D01*
X12469500Y-12426857D01*
X12469500Y-12169714D01*
X12669500Y-12469714D02*
X12640928Y-12455429D01*
X12626643Y-12426857D01*
X12626643Y-12169714D01*
X13012357Y-12469714D02*
X13012357Y-12169714D01*
X13112357Y-12384000D01*
X13212357Y-12169714D01*
X13212357Y-12469714D01*
X13483786Y-12469714D02*
X13483786Y-12312571D01*
X13469500Y-12284000D01*
X13440928Y-12269714D01*
X13383786Y-12269714D01*
X13355214Y-12284000D01*
X13483786Y-12455429D02*
X13455214Y-12469714D01*
X13383786Y-12469714D01*
X13355214Y-12455429D01*
X13340928Y-12426857D01*
X13340928Y-12398286D01*
X13355214Y-12369714D01*
X13383786Y-12355429D01*
X13455214Y-12355429D01*
X13483786Y-12341143D01*
X13626643Y-12269714D02*
X13626643Y-12569714D01*
X13626643Y-12284000D02*
X13655214Y-12269714D01*
X13712357Y-12269714D01*
X13740928Y-12284000D01*
X13755214Y-12298286D01*
X13769500Y-12326857D01*
X13769500Y-12412571D01*
X13755214Y-12441143D01*
X13740928Y-12455429D01*
X13712357Y-12469714D01*
X13655214Y-12469714D01*
X13626643Y-12455429D01*
X13898071Y-12441143D02*
X13912357Y-12455429D01*
X13898071Y-12469714D01*
X13883786Y-12455429D01*
X13898071Y-12441143D01*
X13898071Y-12469714D01*
X13898071Y-12284000D02*
X13912357Y-12298286D01*
X13898071Y-12312571D01*
X13883786Y-12298286D01*
X13898071Y-12284000D01*
X13898071Y-12312571D01*
X11334500Y-12854000D02*
X11554500Y-13074000D01*
X11554500Y-12854000D02*
X11334500Y-13074000D01*
X11826643Y-12828286D02*
X11840928Y-12814000D01*
X11869500Y-12799714D01*
X11940928Y-12799714D01*
X11969500Y-12814000D01*
X11983786Y-12828286D01*
X11998071Y-12856857D01*
X11998071Y-12885429D01*
X11983786Y-12928286D01*
X11812357Y-13099714D01*
X11998071Y-13099714D01*
X12126643Y-13071143D02*
X12140928Y-13085429D01*
X12126643Y-13099714D01*
X12112357Y-13085429D01*
X12126643Y-13071143D01*
X12126643Y-13099714D01*
X12255214Y-12828286D02*
X12269500Y-12814000D01*
X12298071Y-12799714D01*
X12369500Y-12799714D01*
X12398071Y-12814000D01*
X12412357Y-12828286D01*
X12426643Y-12856857D01*
X12426643Y-12885429D01*
X12412357Y-12928286D01*
X12240928Y-13099714D01*
X12426643Y-13099714D01*
X12612357Y-12799714D02*
X12640928Y-12799714D01*
X12669500Y-12814000D01*
X12683786Y-12828286D01*
X12698071Y-12856857D01*
X12712357Y-12914000D01*
X12712357Y-12985429D01*
X12698071Y-13042571D01*
X12683786Y-13071143D01*
X12669500Y-13085429D01*
X12640928Y-13099714D01*
X12612357Y-13099714D01*
X12583786Y-13085429D01*
X12569500Y-13071143D01*
X12555214Y-13042571D01*
X12540928Y-12985429D01*
X12540928Y-12914000D01*
X12555214Y-12856857D01*
X12569500Y-12828286D01*
X12583786Y-12814000D01*
X12612357Y-12799714D01*
X12898071Y-12799714D02*
X12926643Y-12799714D01*
X12955214Y-12814000D01*
X12969500Y-12828286D01*
X12983786Y-12856857D01*
X12998071Y-12914000D01*
X12998071Y-12985429D01*
X12983786Y-13042571D01*
X12969500Y-13071143D01*
X12955214Y-13085429D01*
X12926643Y-13099714D01*
X12898071Y-13099714D01*
X12869500Y-13085429D01*
X12855214Y-13071143D01*
X12840928Y-13042571D01*
X12826643Y-12985429D01*
X12826643Y-12914000D01*
X12840928Y-12856857D01*
X12855214Y-12828286D01*
X12869500Y-12814000D01*
X12898071Y-12799714D01*
X13126643Y-13099714D02*
X13126643Y-12899714D01*
X13126643Y-12928286D02*
X13140928Y-12914000D01*
X13169500Y-12899714D01*
X13212357Y-12899714D01*
X13240928Y-12914000D01*
X13255214Y-12942571D01*
X13255214Y-13099714D01*
X13255214Y-12942571D02*
X13269500Y-12914000D01*
X13298071Y-12899714D01*
X13340928Y-12899714D01*
X13369500Y-12914000D01*
X13383786Y-12942571D01*
X13383786Y-13099714D01*
X13526643Y-13099714D02*
X13526643Y-12899714D01*
X13526643Y-12928286D02*
X13540928Y-12914000D01*
X13569500Y-12899714D01*
X13612357Y-12899714D01*
X13640928Y-12914000D01*
X13655214Y-12942571D01*
X13655214Y-13099714D01*
X13655214Y-12942571D02*
X13669500Y-12914000D01*
X13698071Y-12899714D01*
X13740928Y-12899714D01*
X13769500Y-12914000D01*
X13783786Y-12942571D01*
X13783786Y-13099714D01*
X14369500Y-12785429D02*
X14112357Y-13171143D01*
X14755214Y-12799714D02*
X14783786Y-12799714D01*
X14812357Y-12814000D01*
X14826643Y-12828286D01*
X14840928Y-12856857D01*
X14855214Y-12914000D01*
X14855214Y-12985429D01*
X14840928Y-13042571D01*
X14826643Y-13071143D01*
X14812357Y-13085429D01*
X14783786Y-13099714D01*
X14755214Y-13099714D01*
X14726643Y-13085429D01*
X14712357Y-13071143D01*
X14698071Y-13042571D01*
X14683786Y-12985429D01*
X14683786Y-12914000D01*
X14698071Y-12856857D01*
X14712357Y-12828286D01*
X14726643Y-12814000D01*
X14755214Y-12799714D01*
X14983786Y-13071143D02*
X14998071Y-13085429D01*
X14983786Y-13099714D01*
X14969500Y-13085429D01*
X14983786Y-13071143D01*
X14983786Y-13099714D01*
X15183786Y-12799714D02*
X15212357Y-12799714D01*
X15240928Y-12814000D01*
X15255214Y-12828286D01*
X15269500Y-12856857D01*
X15283786Y-12914000D01*
X15283786Y-12985429D01*
X15269500Y-13042571D01*
X15255214Y-13071143D01*
X15240928Y-13085429D01*
X15212357Y-13099714D01*
X15183786Y-13099714D01*
X15155214Y-13085429D01*
X15140928Y-13071143D01*
X15126643Y-13042571D01*
X15112357Y-12985429D01*
X15112357Y-12914000D01*
X15126643Y-12856857D01*
X15140928Y-12828286D01*
X15155214Y-12814000D01*
X15183786Y-12799714D01*
X15455214Y-12928286D02*
X15426643Y-12914000D01*
X15412357Y-12899714D01*
X15398071Y-12871143D01*
X15398071Y-12856857D01*
X15412357Y-12828286D01*
X15426643Y-12814000D01*
X15455214Y-12799714D01*
X15512357Y-12799714D01*
X15540928Y-12814000D01*
X15555214Y-12828286D01*
X15569500Y-12856857D01*
X15569500Y-12871143D01*
X15555214Y-12899714D01*
X15540928Y-12914000D01*
X15512357Y-12928286D01*
X15455214Y-12928286D01*
X15426643Y-12942571D01*
X15412357Y-12956857D01*
X15398071Y-12985429D01*
X15398071Y-13042571D01*
X15412357Y-13071143D01*
X15426643Y-13085429D01*
X15455214Y-13099714D01*
X15512357Y-13099714D01*
X15540928Y-13085429D01*
X15555214Y-13071143D01*
X15569500Y-13042571D01*
X15569500Y-12985429D01*
X15555214Y-12956857D01*
X15540928Y-12942571D01*
X15512357Y-12928286D01*
X15826643Y-12799714D02*
X15769500Y-12799714D01*
X15740928Y-12814000D01*
X15726643Y-12828286D01*
X15698071Y-12871143D01*
X15683786Y-12928286D01*
X15683786Y-13042571D01*
X15698071Y-13071143D01*
X15712357Y-13085429D01*
X15740928Y-13099714D01*
X15798071Y-13099714D01*
X15826643Y-13085429D01*
X15840928Y-13071143D01*
X15855214Y-13042571D01*
X15855214Y-12971143D01*
X15840928Y-12942571D01*
X15826643Y-12928286D01*
X15798071Y-12914000D01*
X15740928Y-12914000D01*
X15712357Y-12928286D01*
X15698071Y-12942571D01*
X15683786Y-12971143D01*
X16112357Y-12799714D02*
X16055214Y-12799714D01*
X16026643Y-12814000D01*
X16012357Y-12828286D01*
X15983786Y-12871143D01*
X15969500Y-12928286D01*
X15969500Y-13042571D01*
X15983786Y-13071143D01*
X15998071Y-13085429D01*
X16026643Y-13099714D01*
X16083786Y-13099714D01*
X16112357Y-13085429D01*
X16126643Y-13071143D01*
X16140928Y-13042571D01*
X16140928Y-12971143D01*
X16126643Y-12942571D01*
X16112357Y-12928286D01*
X16083786Y-12914000D01*
X16026643Y-12914000D01*
X15998071Y-12928286D01*
X15983786Y-12942571D01*
X15969500Y-12971143D01*
X16255214Y-12799714D02*
X16255214Y-12856857D01*
X16369500Y-12799714D02*
X16369500Y-12856857D01*
X16812357Y-13214000D02*
X16798071Y-13199714D01*
X16769500Y-13156857D01*
X16755214Y-13128286D01*
X16740928Y-13085429D01*
X16726643Y-13014000D01*
X16726643Y-12956857D01*
X16740928Y-12885429D01*
X16755214Y-12842571D01*
X16769500Y-12814000D01*
X16798071Y-12771143D01*
X16812357Y-12756857D01*
X17055214Y-12899714D02*
X17055214Y-13099714D01*
X16983786Y-12785429D02*
X16912357Y-12999714D01*
X17098071Y-12999714D01*
X17440928Y-13099714D02*
X17440928Y-12799714D01*
X17569500Y-13099714D02*
X17569500Y-12942571D01*
X17555214Y-12914000D01*
X17526643Y-12899714D01*
X17483786Y-12899714D01*
X17455214Y-12914000D01*
X17440928Y-12928286D01*
X17755214Y-13099714D02*
X17726643Y-13085429D01*
X17712357Y-13071143D01*
X17698071Y-13042571D01*
X17698071Y-12956857D01*
X17712357Y-12928286D01*
X17726643Y-12914000D01*
X17755214Y-12899714D01*
X17798071Y-12899714D01*
X17826643Y-12914000D01*
X17840928Y-12928286D01*
X17855214Y-12956857D01*
X17855214Y-13042571D01*
X17840928Y-13071143D01*
X17826643Y-13085429D01*
X17798071Y-13099714D01*
X17755214Y-13099714D01*
X18026643Y-13099714D02*
X17998071Y-13085429D01*
X17983786Y-13056857D01*
X17983786Y-12799714D01*
X18255214Y-13085429D02*
X18226643Y-13099714D01*
X18169500Y-13099714D01*
X18140928Y-13085429D01*
X18126643Y-13056857D01*
X18126643Y-12942571D01*
X18140928Y-12914000D01*
X18169500Y-12899714D01*
X18226643Y-12899714D01*
X18255214Y-12914000D01*
X18269500Y-12942571D01*
X18269500Y-12971143D01*
X18126643Y-12999714D01*
X18383786Y-13085429D02*
X18412357Y-13099714D01*
X18469500Y-13099714D01*
X18498071Y-13085429D01*
X18512357Y-13056857D01*
X18512357Y-13042571D01*
X18498071Y-13014000D01*
X18469500Y-12999714D01*
X18426643Y-12999714D01*
X18398071Y-12985429D01*
X18383786Y-12956857D01*
X18383786Y-12942571D01*
X18398071Y-12914000D01*
X18426643Y-12899714D01*
X18469500Y-12899714D01*
X18498071Y-12914000D01*
X18612357Y-13214000D02*
X18626643Y-13199714D01*
X18655214Y-13156857D01*
X18669500Y-13128286D01*
X18683786Y-13085429D01*
X18698071Y-13014000D01*
X18698071Y-12956857D01*
X18683786Y-12885429D01*
X18669500Y-12842571D01*
X18655214Y-12814000D01*
X18626643Y-12771143D01*
X18612357Y-12756857D01*
X19155214Y-13214000D02*
X19140928Y-13199714D01*
X19112357Y-13156857D01*
X19098071Y-13128286D01*
X19083786Y-13085429D01*
X19069500Y-13014000D01*
X19069500Y-12956857D01*
X19083786Y-12885429D01*
X19098071Y-12842571D01*
X19112357Y-12814000D01*
X19140928Y-12771143D01*
X19155214Y-12756857D01*
X19269500Y-12899714D02*
X19269500Y-13099714D01*
X19269500Y-12928286D02*
X19283786Y-12914000D01*
X19312357Y-12899714D01*
X19355214Y-12899714D01*
X19383786Y-12914000D01*
X19398071Y-12942571D01*
X19398071Y-13099714D01*
X19583786Y-13099714D02*
X19555214Y-13085429D01*
X19540928Y-13071143D01*
X19526643Y-13042571D01*
X19526643Y-12956857D01*
X19540928Y-12928286D01*
X19555214Y-12914000D01*
X19583786Y-12899714D01*
X19626643Y-12899714D01*
X19655214Y-12914000D01*
X19669500Y-12928286D01*
X19683786Y-12956857D01*
X19683786Y-13042571D01*
X19669500Y-13071143D01*
X19655214Y-13085429D01*
X19626643Y-13099714D01*
X19583786Y-13099714D01*
X19769500Y-12899714D02*
X19883786Y-12899714D01*
X19812357Y-12799714D02*
X19812357Y-13056857D01*
X19826643Y-13085429D01*
X19855214Y-13099714D01*
X19883786Y-13099714D01*
X20212357Y-12899714D02*
X20212357Y-13199714D01*
X20212357Y-12914000D02*
X20240928Y-12899714D01*
X20298071Y-12899714D01*
X20326643Y-12914000D01*
X20340928Y-12928286D01*
X20355214Y-12956857D01*
X20355214Y-13042571D01*
X20340928Y-13071143D01*
X20326643Y-13085429D01*
X20298071Y-13099714D01*
X20240928Y-13099714D01*
X20212357Y-13085429D01*
X20526643Y-13099714D02*
X20498071Y-13085429D01*
X20483786Y-13056857D01*
X20483786Y-12799714D01*
X20769500Y-13099714D02*
X20769500Y-12942571D01*
X20755214Y-12914000D01*
X20726643Y-12899714D01*
X20669500Y-12899714D01*
X20640928Y-12914000D01*
X20769500Y-13085429D02*
X20740928Y-13099714D01*
X20669500Y-13099714D01*
X20640928Y-13085429D01*
X20626643Y-13056857D01*
X20626643Y-13028286D01*
X20640928Y-12999714D01*
X20669500Y-12985429D01*
X20740928Y-12985429D01*
X20769500Y-12971143D01*
X20869500Y-12899714D02*
X20983786Y-12899714D01*
X20912357Y-12799714D02*
X20912357Y-13056857D01*
X20926643Y-13085429D01*
X20955214Y-13099714D01*
X20983786Y-13099714D01*
X21198071Y-13085429D02*
X21169500Y-13099714D01*
X21112357Y-13099714D01*
X21083786Y-13085429D01*
X21069500Y-13056857D01*
X21069500Y-12942571D01*
X21083786Y-12914000D01*
X21112357Y-12899714D01*
X21169500Y-12899714D01*
X21198071Y-12914000D01*
X21212357Y-12942571D01*
X21212357Y-12971143D01*
X21069500Y-12999714D01*
X21469500Y-13099714D02*
X21469500Y-12799714D01*
X21469500Y-13085429D02*
X21440928Y-13099714D01*
X21383786Y-13099714D01*
X21355214Y-13085429D01*
X21340928Y-13071143D01*
X21326643Y-13042571D01*
X21326643Y-12956857D01*
X21340928Y-12928286D01*
X21355214Y-12914000D01*
X21383786Y-12899714D01*
X21440928Y-12899714D01*
X21469500Y-12914000D01*
X21583786Y-13214000D02*
X21598071Y-13199714D01*
X21626643Y-13156857D01*
X21640928Y-13128286D01*
X21655214Y-13085429D01*
X21669500Y-13014000D01*
X21669500Y-12956857D01*
X21655214Y-12885429D01*
X21640928Y-12842571D01*
X21626643Y-12814000D01*
X21598071Y-12771143D01*
X21583786Y-12756857D01*
M02*
