%FSLAX45Y45*%
G04 Gerber Fmt 4.5, Leading zero omitted, Abs format (unit mm)*
G04 Created by KiCad (PCBNEW (5.1.10)-1) date 2023-12-13 20:03:44*
%MOMM*%
%LPD*%
G01*
G04 APERTURE LIST*
%TA.AperFunction,Profile*%
%ADD10C,0.050000*%
%TD*%
%ADD11C,0.200000*%
%ADD12C,0.300000*%
G04 APERTURE END LIST*
D10*
X11557000Y-12001500D02*
X18986500Y-12001500D01*
X11557000Y-10033000D02*
X11557000Y-12001500D01*
X18986500Y-10033000D02*
X11557000Y-10033000D01*
X18986500Y-12001500D02*
X18986500Y-10033000D01*
D11*
X14376400Y-10312400D02*
X14452600Y-10388600D01*
X14452600Y-10312400D02*
X14376400Y-10388600D01*
X14630400Y-10312400D02*
X14706600Y-10388600D01*
X14706600Y-10312400D02*
X14630400Y-10388600D01*
X14884400Y-10312400D02*
X14960600Y-10388600D01*
X14960600Y-10312400D02*
X14884400Y-10388600D01*
X15138400Y-10312400D02*
X15214600Y-10388600D01*
X15214600Y-10312400D02*
X15138400Y-10388600D01*
X15392400Y-10312400D02*
X15468600Y-10388600D01*
X15468600Y-10312400D02*
X15392400Y-10388600D01*
X15646400Y-10312400D02*
X15722600Y-10388600D01*
X15722600Y-10312400D02*
X15646400Y-10388600D01*
X15900400Y-10312400D02*
X15976600Y-10388600D01*
X15976600Y-10312400D02*
X15900400Y-10388600D01*
X12325400Y-10789500D02*
G75*
G03*
X12325400Y-10789500I-55000J0D01*
G01*
X12325400Y-11239500D02*
G75*
G03*
X12325400Y-11239500I-55000J0D01*
G01*
X12975400Y-10789500D02*
G75*
G03*
X12975400Y-10789500I-55000J0D01*
G01*
X12975400Y-11239500D02*
G75*
G03*
X12975400Y-11239500I-55000J0D01*
G01*
X13380400Y-10789500D02*
G75*
G03*
X13380400Y-10789500I-55000J0D01*
G01*
X13380400Y-11239500D02*
G75*
G03*
X13380400Y-11239500I-55000J0D01*
G01*
X14030400Y-10789500D02*
G75*
G03*
X14030400Y-10789500I-55000J0D01*
G01*
X14030400Y-11239500D02*
G75*
G03*
X14030400Y-11239500I-55000J0D01*
G01*
X14439500Y-10789500D02*
G75*
G03*
X14439500Y-10789500I-55000J0D01*
G01*
X14439500Y-11239500D02*
G75*
G03*
X14439500Y-11239500I-55000J0D01*
G01*
X15089500Y-10789500D02*
G75*
G03*
X15089500Y-10789500I-55000J0D01*
G01*
X15089500Y-11239500D02*
G75*
G03*
X15089500Y-11239500I-55000J0D01*
G01*
X15519000Y-10789500D02*
G75*
G03*
X15519000Y-10789500I-55000J0D01*
G01*
X15519000Y-11239500D02*
G75*
G03*
X15519000Y-11239500I-55000J0D01*
G01*
X16169000Y-10789500D02*
G75*
G03*
X16169000Y-10789500I-55000J0D01*
G01*
X16169000Y-11239500D02*
G75*
G03*
X16169000Y-11239500I-55000J0D01*
G01*
X16613500Y-10789500D02*
G75*
G03*
X16613500Y-10789500I-55000J0D01*
G01*
X16613500Y-11239500D02*
G75*
G03*
X16613500Y-11239500I-55000J0D01*
G01*
X17263500Y-10789500D02*
G75*
G03*
X17263500Y-10789500I-55000J0D01*
G01*
X17263500Y-11239500D02*
G75*
G03*
X17263500Y-11239500I-55000J0D01*
G01*
X17678000Y-10789500D02*
G75*
G03*
X17678000Y-10789500I-55000J0D01*
G01*
X17678000Y-11239500D02*
G75*
G03*
X17678000Y-11239500I-55000J0D01*
G01*
X18328000Y-10789500D02*
G75*
G03*
X18328000Y-10789500I-55000J0D01*
G01*
X18328000Y-11239500D02*
G75*
G03*
X18328000Y-11239500I-55000J0D01*
G01*
D12*
X11840928Y-12469714D02*
X11840928Y-12169714D01*
X11912357Y-12169714D01*
X11955214Y-12184000D01*
X11983786Y-12212571D01*
X11998071Y-12241143D01*
X12012357Y-12298286D01*
X12012357Y-12341143D01*
X11998071Y-12398286D01*
X11983786Y-12426857D01*
X11955214Y-12455429D01*
X11912357Y-12469714D01*
X11840928Y-12469714D01*
X12140928Y-12469714D02*
X12140928Y-12269714D01*
X12140928Y-12326857D02*
X12155214Y-12298286D01*
X12169500Y-12284000D01*
X12198071Y-12269714D01*
X12226643Y-12269714D01*
X12326643Y-12469714D02*
X12326643Y-12269714D01*
X12326643Y-12169714D02*
X12312357Y-12184000D01*
X12326643Y-12198286D01*
X12340928Y-12184000D01*
X12326643Y-12169714D01*
X12326643Y-12198286D01*
X12512357Y-12469714D02*
X12483786Y-12455429D01*
X12469500Y-12426857D01*
X12469500Y-12169714D01*
X12669500Y-12469714D02*
X12640928Y-12455429D01*
X12626643Y-12426857D01*
X12626643Y-12169714D01*
X13012357Y-12469714D02*
X13012357Y-12169714D01*
X13112357Y-12384000D01*
X13212357Y-12169714D01*
X13212357Y-12469714D01*
X13483786Y-12469714D02*
X13483786Y-12312571D01*
X13469500Y-12284000D01*
X13440928Y-12269714D01*
X13383786Y-12269714D01*
X13355214Y-12284000D01*
X13483786Y-12455429D02*
X13455214Y-12469714D01*
X13383786Y-12469714D01*
X13355214Y-12455429D01*
X13340928Y-12426857D01*
X13340928Y-12398286D01*
X13355214Y-12369714D01*
X13383786Y-12355429D01*
X13455214Y-12355429D01*
X13483786Y-12341143D01*
X13626643Y-12269714D02*
X13626643Y-12569714D01*
X13626643Y-12284000D02*
X13655214Y-12269714D01*
X13712357Y-12269714D01*
X13740928Y-12284000D01*
X13755214Y-12298286D01*
X13769500Y-12326857D01*
X13769500Y-12412571D01*
X13755214Y-12441143D01*
X13740928Y-12455429D01*
X13712357Y-12469714D01*
X13655214Y-12469714D01*
X13626643Y-12455429D01*
X13898071Y-12441143D02*
X13912357Y-12455429D01*
X13898071Y-12469714D01*
X13883786Y-12455429D01*
X13898071Y-12441143D01*
X13898071Y-12469714D01*
X13898071Y-12284000D02*
X13912357Y-12298286D01*
X13898071Y-12312571D01*
X13883786Y-12298286D01*
X13898071Y-12284000D01*
X13898071Y-12312571D01*
X11478300Y-12925900D02*
X11554500Y-13002100D01*
X11554500Y-12925900D02*
X11478300Y-13002100D01*
X11898071Y-12799714D02*
X11926643Y-12799714D01*
X11955214Y-12814000D01*
X11969500Y-12828286D01*
X11983786Y-12856857D01*
X11998071Y-12914000D01*
X11998071Y-12985429D01*
X11983786Y-13042571D01*
X11969500Y-13071143D01*
X11955214Y-13085429D01*
X11926643Y-13099714D01*
X11898071Y-13099714D01*
X11869500Y-13085429D01*
X11855214Y-13071143D01*
X11840928Y-13042571D01*
X11826643Y-12985429D01*
X11826643Y-12914000D01*
X11840928Y-12856857D01*
X11855214Y-12828286D01*
X11869500Y-12814000D01*
X11898071Y-12799714D01*
X12126643Y-13071143D02*
X12140928Y-13085429D01*
X12126643Y-13099714D01*
X12112357Y-13085429D01*
X12126643Y-13071143D01*
X12126643Y-13099714D01*
X12240928Y-12799714D02*
X12440928Y-12799714D01*
X12312357Y-13099714D01*
X12683786Y-12799714D02*
X12626643Y-12799714D01*
X12598071Y-12814000D01*
X12583786Y-12828286D01*
X12555214Y-12871143D01*
X12540928Y-12928286D01*
X12540928Y-13042571D01*
X12555214Y-13071143D01*
X12569500Y-13085429D01*
X12598071Y-13099714D01*
X12655214Y-13099714D01*
X12683786Y-13085429D01*
X12698071Y-13071143D01*
X12712357Y-13042571D01*
X12712357Y-12971143D01*
X12698071Y-12942571D01*
X12683786Y-12928286D01*
X12655214Y-12914000D01*
X12598071Y-12914000D01*
X12569500Y-12928286D01*
X12555214Y-12942571D01*
X12540928Y-12971143D01*
X12826643Y-12828286D02*
X12840928Y-12814000D01*
X12869500Y-12799714D01*
X12940928Y-12799714D01*
X12969500Y-12814000D01*
X12983786Y-12828286D01*
X12998071Y-12856857D01*
X12998071Y-12885429D01*
X12983786Y-12928286D01*
X12812357Y-13099714D01*
X12998071Y-13099714D01*
X13126643Y-13099714D02*
X13126643Y-12899714D01*
X13126643Y-12928286D02*
X13140928Y-12914000D01*
X13169500Y-12899714D01*
X13212357Y-12899714D01*
X13240928Y-12914000D01*
X13255214Y-12942571D01*
X13255214Y-13099714D01*
X13255214Y-12942571D02*
X13269500Y-12914000D01*
X13298071Y-12899714D01*
X13340928Y-12899714D01*
X13369500Y-12914000D01*
X13383786Y-12942571D01*
X13383786Y-13099714D01*
X13526643Y-13099714D02*
X13526643Y-12899714D01*
X13526643Y-12928286D02*
X13540928Y-12914000D01*
X13569500Y-12899714D01*
X13612357Y-12899714D01*
X13640928Y-12914000D01*
X13655214Y-12942571D01*
X13655214Y-13099714D01*
X13655214Y-12942571D02*
X13669500Y-12914000D01*
X13698071Y-12899714D01*
X13740928Y-12899714D01*
X13769500Y-12914000D01*
X13783786Y-12942571D01*
X13783786Y-13099714D01*
X14369500Y-12785429D02*
X14112357Y-13171143D01*
X14755214Y-12799714D02*
X14783786Y-12799714D01*
X14812357Y-12814000D01*
X14826643Y-12828286D01*
X14840928Y-12856857D01*
X14855214Y-12914000D01*
X14855214Y-12985429D01*
X14840928Y-13042571D01*
X14826643Y-13071143D01*
X14812357Y-13085429D01*
X14783786Y-13099714D01*
X14755214Y-13099714D01*
X14726643Y-13085429D01*
X14712357Y-13071143D01*
X14698071Y-13042571D01*
X14683786Y-12985429D01*
X14683786Y-12914000D01*
X14698071Y-12856857D01*
X14712357Y-12828286D01*
X14726643Y-12814000D01*
X14755214Y-12799714D01*
X14983786Y-13071143D02*
X14998071Y-13085429D01*
X14983786Y-13099714D01*
X14969500Y-13085429D01*
X14983786Y-13071143D01*
X14983786Y-13099714D01*
X15183786Y-12799714D02*
X15212357Y-12799714D01*
X15240928Y-12814000D01*
X15255214Y-12828286D01*
X15269500Y-12856857D01*
X15283786Y-12914000D01*
X15283786Y-12985429D01*
X15269500Y-13042571D01*
X15255214Y-13071143D01*
X15240928Y-13085429D01*
X15212357Y-13099714D01*
X15183786Y-13099714D01*
X15155214Y-13085429D01*
X15140928Y-13071143D01*
X15126643Y-13042571D01*
X15112357Y-12985429D01*
X15112357Y-12914000D01*
X15126643Y-12856857D01*
X15140928Y-12828286D01*
X15155214Y-12814000D01*
X15183786Y-12799714D01*
X15383786Y-12799714D02*
X15569500Y-12799714D01*
X15469500Y-12914000D01*
X15512357Y-12914000D01*
X15540928Y-12928286D01*
X15555214Y-12942571D01*
X15569500Y-12971143D01*
X15569500Y-13042571D01*
X15555214Y-13071143D01*
X15540928Y-13085429D01*
X15512357Y-13099714D01*
X15426643Y-13099714D01*
X15398071Y-13085429D01*
X15383786Y-13071143D01*
X15755214Y-12799714D02*
X15783786Y-12799714D01*
X15812357Y-12814000D01*
X15826643Y-12828286D01*
X15840928Y-12856857D01*
X15855214Y-12914000D01*
X15855214Y-12985429D01*
X15840928Y-13042571D01*
X15826643Y-13071143D01*
X15812357Y-13085429D01*
X15783786Y-13099714D01*
X15755214Y-13099714D01*
X15726643Y-13085429D01*
X15712357Y-13071143D01*
X15698071Y-13042571D01*
X15683786Y-12985429D01*
X15683786Y-12914000D01*
X15698071Y-12856857D01*
X15712357Y-12828286D01*
X15726643Y-12814000D01*
X15755214Y-12799714D01*
X16040928Y-12799714D02*
X16069500Y-12799714D01*
X16098071Y-12814000D01*
X16112357Y-12828286D01*
X16126643Y-12856857D01*
X16140928Y-12914000D01*
X16140928Y-12985429D01*
X16126643Y-13042571D01*
X16112357Y-13071143D01*
X16098071Y-13085429D01*
X16069500Y-13099714D01*
X16040928Y-13099714D01*
X16012357Y-13085429D01*
X15998071Y-13071143D01*
X15983786Y-13042571D01*
X15969500Y-12985429D01*
X15969500Y-12914000D01*
X15983786Y-12856857D01*
X15998071Y-12828286D01*
X16012357Y-12814000D01*
X16040928Y-12799714D01*
X16255214Y-12799714D02*
X16255214Y-12856857D01*
X16369500Y-12799714D02*
X16369500Y-12856857D01*
X16812357Y-13214000D02*
X16798071Y-13199714D01*
X16769500Y-13156857D01*
X16755214Y-13128286D01*
X16740928Y-13085429D01*
X16726643Y-13014000D01*
X16726643Y-12956857D01*
X16740928Y-12885429D01*
X16755214Y-12842571D01*
X16769500Y-12814000D01*
X16798071Y-12771143D01*
X16812357Y-12756857D01*
X16898071Y-12799714D02*
X17098071Y-12799714D01*
X16969500Y-13099714D01*
X17440928Y-13099714D02*
X17440928Y-12799714D01*
X17569500Y-13099714D02*
X17569500Y-12942571D01*
X17555214Y-12914000D01*
X17526643Y-12899714D01*
X17483786Y-12899714D01*
X17455214Y-12914000D01*
X17440928Y-12928286D01*
X17755214Y-13099714D02*
X17726643Y-13085429D01*
X17712357Y-13071143D01*
X17698071Y-13042571D01*
X17698071Y-12956857D01*
X17712357Y-12928286D01*
X17726643Y-12914000D01*
X17755214Y-12899714D01*
X17798071Y-12899714D01*
X17826643Y-12914000D01*
X17840928Y-12928286D01*
X17855214Y-12956857D01*
X17855214Y-13042571D01*
X17840928Y-13071143D01*
X17826643Y-13085429D01*
X17798071Y-13099714D01*
X17755214Y-13099714D01*
X18026643Y-13099714D02*
X17998071Y-13085429D01*
X17983786Y-13056857D01*
X17983786Y-12799714D01*
X18255214Y-13085429D02*
X18226643Y-13099714D01*
X18169500Y-13099714D01*
X18140928Y-13085429D01*
X18126643Y-13056857D01*
X18126643Y-12942571D01*
X18140928Y-12914000D01*
X18169500Y-12899714D01*
X18226643Y-12899714D01*
X18255214Y-12914000D01*
X18269500Y-12942571D01*
X18269500Y-12971143D01*
X18126643Y-12999714D01*
X18383786Y-13085429D02*
X18412357Y-13099714D01*
X18469500Y-13099714D01*
X18498071Y-13085429D01*
X18512357Y-13056857D01*
X18512357Y-13042571D01*
X18498071Y-13014000D01*
X18469500Y-12999714D01*
X18426643Y-12999714D01*
X18398071Y-12985429D01*
X18383786Y-12956857D01*
X18383786Y-12942571D01*
X18398071Y-12914000D01*
X18426643Y-12899714D01*
X18469500Y-12899714D01*
X18498071Y-12914000D01*
X18612357Y-13214000D02*
X18626643Y-13199714D01*
X18655214Y-13156857D01*
X18669500Y-13128286D01*
X18683786Y-13085429D01*
X18698071Y-13014000D01*
X18698071Y-12956857D01*
X18683786Y-12885429D01*
X18669500Y-12842571D01*
X18655214Y-12814000D01*
X18626643Y-12771143D01*
X18612357Y-12756857D01*
X11554500Y-13360000D02*
G75*
G03*
X11554500Y-13360000I-55000J0D01*
G01*
X11998071Y-13495714D02*
X11826643Y-13495714D01*
X11912357Y-13495714D02*
X11912357Y-13195714D01*
X11883786Y-13238571D01*
X11855214Y-13267143D01*
X11826643Y-13281429D01*
X12126643Y-13467143D02*
X12140928Y-13481429D01*
X12126643Y-13495714D01*
X12112357Y-13481429D01*
X12126643Y-13467143D01*
X12126643Y-13495714D01*
X12426643Y-13495714D02*
X12255214Y-13495714D01*
X12340928Y-13495714D02*
X12340928Y-13195714D01*
X12312357Y-13238571D01*
X12283786Y-13267143D01*
X12255214Y-13281429D01*
X12612357Y-13195714D02*
X12640928Y-13195714D01*
X12669500Y-13210000D01*
X12683786Y-13224286D01*
X12698071Y-13252857D01*
X12712357Y-13310000D01*
X12712357Y-13381429D01*
X12698071Y-13438571D01*
X12683786Y-13467143D01*
X12669500Y-13481429D01*
X12640928Y-13495714D01*
X12612357Y-13495714D01*
X12583786Y-13481429D01*
X12569500Y-13467143D01*
X12555214Y-13438571D01*
X12540928Y-13381429D01*
X12540928Y-13310000D01*
X12555214Y-13252857D01*
X12569500Y-13224286D01*
X12583786Y-13210000D01*
X12612357Y-13195714D01*
X12898071Y-13195714D02*
X12926643Y-13195714D01*
X12955214Y-13210000D01*
X12969500Y-13224286D01*
X12983786Y-13252857D01*
X12998071Y-13310000D01*
X12998071Y-13381429D01*
X12983786Y-13438571D01*
X12969500Y-13467143D01*
X12955214Y-13481429D01*
X12926643Y-13495714D01*
X12898071Y-13495714D01*
X12869500Y-13481429D01*
X12855214Y-13467143D01*
X12840928Y-13438571D01*
X12826643Y-13381429D01*
X12826643Y-13310000D01*
X12840928Y-13252857D01*
X12855214Y-13224286D01*
X12869500Y-13210000D01*
X12898071Y-13195714D01*
X13126643Y-13495714D02*
X13126643Y-13295714D01*
X13126643Y-13324286D02*
X13140928Y-13310000D01*
X13169500Y-13295714D01*
X13212357Y-13295714D01*
X13240928Y-13310000D01*
X13255214Y-13338571D01*
X13255214Y-13495714D01*
X13255214Y-13338571D02*
X13269500Y-13310000D01*
X13298071Y-13295714D01*
X13340928Y-13295714D01*
X13369500Y-13310000D01*
X13383786Y-13338571D01*
X13383786Y-13495714D01*
X13526643Y-13495714D02*
X13526643Y-13295714D01*
X13526643Y-13324286D02*
X13540928Y-13310000D01*
X13569500Y-13295714D01*
X13612357Y-13295714D01*
X13640928Y-13310000D01*
X13655214Y-13338571D01*
X13655214Y-13495714D01*
X13655214Y-13338571D02*
X13669500Y-13310000D01*
X13698071Y-13295714D01*
X13740928Y-13295714D01*
X13769500Y-13310000D01*
X13783786Y-13338571D01*
X13783786Y-13495714D01*
X14369500Y-13181429D02*
X14112357Y-13567143D01*
X14755214Y-13195714D02*
X14783786Y-13195714D01*
X14812357Y-13210000D01*
X14826643Y-13224286D01*
X14840928Y-13252857D01*
X14855214Y-13310000D01*
X14855214Y-13381429D01*
X14840928Y-13438571D01*
X14826643Y-13467143D01*
X14812357Y-13481429D01*
X14783786Y-13495714D01*
X14755214Y-13495714D01*
X14726643Y-13481429D01*
X14712357Y-13467143D01*
X14698071Y-13438571D01*
X14683786Y-13381429D01*
X14683786Y-13310000D01*
X14698071Y-13252857D01*
X14712357Y-13224286D01*
X14726643Y-13210000D01*
X14755214Y-13195714D01*
X14983786Y-13467143D02*
X14998071Y-13481429D01*
X14983786Y-13495714D01*
X14969500Y-13481429D01*
X14983786Y-13467143D01*
X14983786Y-13495714D01*
X15183786Y-13195714D02*
X15212357Y-13195714D01*
X15240928Y-13210000D01*
X15255214Y-13224286D01*
X15269500Y-13252857D01*
X15283786Y-13310000D01*
X15283786Y-13381429D01*
X15269500Y-13438571D01*
X15255214Y-13467143D01*
X15240928Y-13481429D01*
X15212357Y-13495714D01*
X15183786Y-13495714D01*
X15155214Y-13481429D01*
X15140928Y-13467143D01*
X15126643Y-13438571D01*
X15112357Y-13381429D01*
X15112357Y-13310000D01*
X15126643Y-13252857D01*
X15140928Y-13224286D01*
X15155214Y-13210000D01*
X15183786Y-13195714D01*
X15540928Y-13295714D02*
X15540928Y-13495714D01*
X15469500Y-13181429D02*
X15398071Y-13395714D01*
X15583786Y-13395714D01*
X15669500Y-13195714D02*
X15855214Y-13195714D01*
X15755214Y-13310000D01*
X15798071Y-13310000D01*
X15826643Y-13324286D01*
X15840928Y-13338571D01*
X15855214Y-13367143D01*
X15855214Y-13438571D01*
X15840928Y-13467143D01*
X15826643Y-13481429D01*
X15798071Y-13495714D01*
X15712357Y-13495714D01*
X15683786Y-13481429D01*
X15669500Y-13467143D01*
X15955214Y-13195714D02*
X16140928Y-13195714D01*
X16040928Y-13310000D01*
X16083786Y-13310000D01*
X16112357Y-13324286D01*
X16126643Y-13338571D01*
X16140928Y-13367143D01*
X16140928Y-13438571D01*
X16126643Y-13467143D01*
X16112357Y-13481429D01*
X16083786Y-13495714D01*
X15998071Y-13495714D01*
X15969500Y-13481429D01*
X15955214Y-13467143D01*
X16255214Y-13195714D02*
X16255214Y-13252857D01*
X16369500Y-13195714D02*
X16369500Y-13252857D01*
X16812357Y-13610000D02*
X16798071Y-13595714D01*
X16769500Y-13552857D01*
X16755214Y-13524286D01*
X16740928Y-13481429D01*
X16726643Y-13410000D01*
X16726643Y-13352857D01*
X16740928Y-13281429D01*
X16755214Y-13238571D01*
X16769500Y-13210000D01*
X16798071Y-13167143D01*
X16812357Y-13152857D01*
X16912357Y-13224286D02*
X16926643Y-13210000D01*
X16955214Y-13195714D01*
X17026643Y-13195714D01*
X17055214Y-13210000D01*
X17069500Y-13224286D01*
X17083786Y-13252857D01*
X17083786Y-13281429D01*
X17069500Y-13324286D01*
X16898071Y-13495714D01*
X17083786Y-13495714D01*
X17340928Y-13295714D02*
X17340928Y-13495714D01*
X17269500Y-13181429D02*
X17198071Y-13395714D01*
X17383786Y-13395714D01*
X17726643Y-13495714D02*
X17726643Y-13195714D01*
X17855214Y-13495714D02*
X17855214Y-13338571D01*
X17840928Y-13310000D01*
X17812357Y-13295714D01*
X17769500Y-13295714D01*
X17740928Y-13310000D01*
X17726643Y-13324286D01*
X18040928Y-13495714D02*
X18012357Y-13481429D01*
X17998071Y-13467143D01*
X17983786Y-13438571D01*
X17983786Y-13352857D01*
X17998071Y-13324286D01*
X18012357Y-13310000D01*
X18040928Y-13295714D01*
X18083786Y-13295714D01*
X18112357Y-13310000D01*
X18126643Y-13324286D01*
X18140928Y-13352857D01*
X18140928Y-13438571D01*
X18126643Y-13467143D01*
X18112357Y-13481429D01*
X18083786Y-13495714D01*
X18040928Y-13495714D01*
X18312357Y-13495714D02*
X18283786Y-13481429D01*
X18269500Y-13452857D01*
X18269500Y-13195714D01*
X18540928Y-13481429D02*
X18512357Y-13495714D01*
X18455214Y-13495714D01*
X18426643Y-13481429D01*
X18412357Y-13452857D01*
X18412357Y-13338571D01*
X18426643Y-13310000D01*
X18455214Y-13295714D01*
X18512357Y-13295714D01*
X18540928Y-13310000D01*
X18555214Y-13338571D01*
X18555214Y-13367143D01*
X18412357Y-13395714D01*
X18669500Y-13481429D02*
X18698071Y-13495714D01*
X18755214Y-13495714D01*
X18783786Y-13481429D01*
X18798071Y-13452857D01*
X18798071Y-13438571D01*
X18783786Y-13410000D01*
X18755214Y-13395714D01*
X18712357Y-13395714D01*
X18683786Y-13381429D01*
X18669500Y-13352857D01*
X18669500Y-13338571D01*
X18683786Y-13310000D01*
X18712357Y-13295714D01*
X18755214Y-13295714D01*
X18783786Y-13310000D01*
X18898071Y-13610000D02*
X18912357Y-13595714D01*
X18940928Y-13552857D01*
X18955214Y-13524286D01*
X18969500Y-13481429D01*
X18983786Y-13410000D01*
X18983786Y-13352857D01*
X18969500Y-13281429D01*
X18955214Y-13238571D01*
X18940928Y-13210000D01*
X18912357Y-13167143D01*
X18898071Y-13152857D01*
M02*
