G04 #@! TF.GenerationSoftware,KiCad,Pcbnew,(5.1.10)-1*
G04 #@! TF.CreationDate,2023-10-25T13:43:48-04:00*
G04 #@! TF.ProjectId,LED_Matrix_8x32,4c45445f-4d61-4747-9269-785f38783332,rev?*
G04 #@! TF.SameCoordinates,Original*
G04 #@! TF.FileFunction,Copper,L2,Bot*
G04 #@! TF.FilePolarity,Positive*
%FSLAX46Y46*%
G04 Gerber Fmt 4.6, Leading zero omitted, Abs format (unit mm)*
G04 Created by KiCad (PCBNEW (5.1.10)-1) date 2023-10-25 13:43:48*
%MOMM*%
%LPD*%
G01*
G04 APERTURE LIST*
G04 #@! TA.AperFunction,ComponentPad*
%ADD10C,2.400000*%
G04 #@! TD*
G04 #@! TA.AperFunction,ComponentPad*
%ADD11R,2.400000X2.400000*%
G04 #@! TD*
G04 #@! TA.AperFunction,ComponentPad*
%ADD12C,1.800000*%
G04 #@! TD*
G04 #@! TA.AperFunction,ComponentPad*
%ADD13R,1.800000X1.800000*%
G04 #@! TD*
G04 #@! TA.AperFunction,Conductor*
%ADD14C,0.500000*%
G04 #@! TD*
G04 APERTURE END LIST*
D10*
X82815000Y-23495000D03*
X86315000Y-23495000D03*
X89815000Y-23495000D03*
X93315000Y-23495000D03*
X96815000Y-23495000D03*
X100315000Y-23495000D03*
X103815000Y-23495000D03*
D11*
X107315000Y-23495000D03*
D10*
X123455000Y-23495000D03*
X126955000Y-23495000D03*
X130455000Y-23495000D03*
X133955000Y-23495000D03*
X137455000Y-23495000D03*
X140955000Y-23495000D03*
X144455000Y-23495000D03*
D11*
X147955000Y-23495000D03*
D10*
X164095000Y-23495000D03*
X167595000Y-23495000D03*
X171095000Y-23495000D03*
X174595000Y-23495000D03*
X178095000Y-23495000D03*
X181595000Y-23495000D03*
X185095000Y-23495000D03*
D11*
X188595000Y-23495000D03*
D10*
X204735000Y-23495000D03*
X208235000Y-23495000D03*
X211735000Y-23495000D03*
X215235000Y-23495000D03*
X218735000Y-23495000D03*
X222235000Y-23495000D03*
X225735000Y-23495000D03*
D11*
X229235000Y-23495000D03*
D10*
X239395000Y-43445000D03*
X239395000Y-46945000D03*
X239395000Y-50445000D03*
X239395000Y-53945000D03*
X239395000Y-57445000D03*
X239395000Y-60945000D03*
X239395000Y-64445000D03*
D11*
X239395000Y-67945000D03*
D12*
X74295000Y-32385000D03*
D13*
X74295000Y-29845000D03*
D12*
X74295000Y-37465000D03*
D13*
X74295000Y-34925000D03*
D12*
X74295000Y-42545000D03*
D13*
X74295000Y-40005000D03*
D12*
X74295000Y-47625000D03*
D13*
X74295000Y-45085000D03*
D12*
X74295000Y-52705000D03*
D13*
X74295000Y-50165000D03*
D12*
X74295000Y-57785000D03*
D13*
X74295000Y-55245000D03*
D12*
X74295000Y-62865000D03*
D13*
X74295000Y-60325000D03*
D12*
X74295000Y-67945000D03*
D13*
X74295000Y-65405000D03*
D12*
X79375000Y-32385000D03*
D13*
X79375000Y-29845000D03*
D12*
X79375000Y-37465000D03*
D13*
X79375000Y-34925000D03*
D12*
X79375000Y-42545000D03*
D13*
X79375000Y-40005000D03*
D12*
X79375000Y-47625000D03*
D13*
X79375000Y-45085000D03*
D12*
X79375000Y-52705000D03*
D13*
X79375000Y-50165000D03*
D12*
X79375000Y-57785000D03*
D13*
X79375000Y-55245000D03*
D12*
X79375000Y-62865000D03*
D13*
X79375000Y-60325000D03*
D12*
X79375000Y-67945000D03*
D13*
X79375000Y-65405000D03*
D12*
X84455000Y-32385000D03*
D13*
X84455000Y-29845000D03*
D12*
X84455000Y-37465000D03*
D13*
X84455000Y-34925000D03*
D12*
X84455000Y-42545000D03*
D13*
X84455000Y-40005000D03*
D12*
X84455000Y-47625000D03*
D13*
X84455000Y-45085000D03*
D12*
X84455000Y-52705000D03*
D13*
X84455000Y-50165000D03*
D12*
X84455000Y-57785000D03*
D13*
X84455000Y-55245000D03*
D12*
X84455000Y-62865000D03*
D13*
X84455000Y-60325000D03*
D12*
X84455000Y-67945000D03*
D13*
X84455000Y-65405000D03*
D12*
X89535000Y-32385000D03*
D13*
X89535000Y-29845000D03*
D12*
X89535000Y-37465000D03*
D13*
X89535000Y-34925000D03*
D12*
X89535000Y-42545000D03*
D13*
X89535000Y-40005000D03*
D12*
X89535000Y-47625000D03*
D13*
X89535000Y-45085000D03*
D12*
X89535000Y-52705000D03*
D13*
X89535000Y-50165000D03*
D12*
X89535000Y-57785000D03*
D13*
X89535000Y-55245000D03*
D12*
X89535000Y-62865000D03*
D13*
X89535000Y-60325000D03*
D12*
X89535000Y-67945000D03*
D13*
X89535000Y-65405000D03*
D12*
X94615000Y-32385000D03*
D13*
X94615000Y-29845000D03*
D12*
X94615000Y-37465000D03*
D13*
X94615000Y-34925000D03*
D12*
X94615000Y-42545000D03*
D13*
X94615000Y-40005000D03*
D12*
X94615000Y-47625000D03*
D13*
X94615000Y-45085000D03*
D12*
X94615000Y-52705000D03*
D13*
X94615000Y-50165000D03*
D12*
X94615000Y-57785000D03*
D13*
X94615000Y-55245000D03*
D12*
X94615000Y-62865000D03*
D13*
X94615000Y-60325000D03*
D12*
X94615000Y-67945000D03*
D13*
X94615000Y-65405000D03*
D12*
X99695000Y-32385000D03*
D13*
X99695000Y-29845000D03*
D12*
X99695000Y-37465000D03*
D13*
X99695000Y-34925000D03*
D12*
X99695000Y-42545000D03*
D13*
X99695000Y-40005000D03*
D12*
X99695000Y-47625000D03*
D13*
X99695000Y-45085000D03*
D12*
X99695000Y-52705000D03*
D13*
X99695000Y-50165000D03*
D12*
X99695000Y-57785000D03*
D13*
X99695000Y-55245000D03*
D12*
X99695000Y-62865000D03*
D13*
X99695000Y-60325000D03*
D12*
X99695000Y-67945000D03*
D13*
X99695000Y-65405000D03*
D12*
X104775000Y-32385000D03*
D13*
X104775000Y-29845000D03*
D12*
X104775000Y-37465000D03*
D13*
X104775000Y-34925000D03*
D12*
X104775000Y-42545000D03*
D13*
X104775000Y-40005000D03*
D12*
X104775000Y-47625000D03*
D13*
X104775000Y-45085000D03*
D12*
X104775000Y-52705000D03*
D13*
X104775000Y-50165000D03*
D12*
X104775000Y-57785000D03*
D13*
X104775000Y-55245000D03*
D12*
X104775000Y-62865000D03*
D13*
X104775000Y-60325000D03*
D12*
X104775000Y-67945000D03*
D13*
X104775000Y-65405000D03*
D12*
X109855000Y-32385000D03*
D13*
X109855000Y-29845000D03*
D12*
X109855000Y-37465000D03*
D13*
X109855000Y-34925000D03*
D12*
X109855000Y-42545000D03*
D13*
X109855000Y-40005000D03*
D12*
X109855000Y-47625000D03*
D13*
X109855000Y-45085000D03*
D12*
X109855000Y-52705000D03*
D13*
X109855000Y-50165000D03*
D12*
X109855000Y-57785000D03*
D13*
X109855000Y-55245000D03*
D12*
X109855000Y-62865000D03*
D13*
X109855000Y-60325000D03*
D12*
X109855000Y-67945000D03*
D13*
X109855000Y-65405000D03*
D12*
X114935000Y-32385000D03*
D13*
X114935000Y-29845000D03*
D12*
X114935000Y-37465000D03*
D13*
X114935000Y-34925000D03*
D12*
X114935000Y-42545000D03*
D13*
X114935000Y-40005000D03*
D12*
X114935000Y-47625000D03*
D13*
X114935000Y-45085000D03*
D12*
X114935000Y-52705000D03*
D13*
X114935000Y-50165000D03*
D12*
X114935000Y-57785000D03*
D13*
X114935000Y-55245000D03*
D12*
X114935000Y-62865000D03*
D13*
X114935000Y-60325000D03*
D12*
X114935000Y-67945000D03*
D13*
X114935000Y-65405000D03*
D12*
X120015000Y-32385000D03*
D13*
X120015000Y-29845000D03*
D12*
X120015000Y-37465000D03*
D13*
X120015000Y-34925000D03*
D12*
X120015000Y-42545000D03*
D13*
X120015000Y-40005000D03*
D12*
X120015000Y-47625000D03*
D13*
X120015000Y-45085000D03*
D12*
X120015000Y-52705000D03*
D13*
X120015000Y-50165000D03*
D12*
X120015000Y-57785000D03*
D13*
X120015000Y-55245000D03*
D12*
X120015000Y-62865000D03*
D13*
X120015000Y-60325000D03*
D12*
X120015000Y-67945000D03*
D13*
X120015000Y-65405000D03*
D12*
X125095000Y-32385000D03*
D13*
X125095000Y-29845000D03*
D12*
X125095000Y-37465000D03*
D13*
X125095000Y-34925000D03*
D12*
X125095000Y-42545000D03*
D13*
X125095000Y-40005000D03*
D12*
X125095000Y-47625000D03*
D13*
X125095000Y-45085000D03*
D12*
X125095000Y-52705000D03*
D13*
X125095000Y-50165000D03*
D12*
X125095000Y-57785000D03*
D13*
X125095000Y-55245000D03*
D12*
X125095000Y-62865000D03*
D13*
X125095000Y-60325000D03*
D12*
X125095000Y-67945000D03*
D13*
X125095000Y-65405000D03*
D12*
X130175000Y-32385000D03*
D13*
X130175000Y-29845000D03*
D12*
X130175000Y-37465000D03*
D13*
X130175000Y-34925000D03*
D12*
X130175000Y-42545000D03*
D13*
X130175000Y-40005000D03*
D12*
X130175000Y-47625000D03*
D13*
X130175000Y-45085000D03*
D12*
X130175000Y-52705000D03*
D13*
X130175000Y-50165000D03*
D12*
X130175000Y-57785000D03*
D13*
X130175000Y-55245000D03*
D12*
X130175000Y-62865000D03*
D13*
X130175000Y-60325000D03*
D12*
X130175000Y-67945000D03*
D13*
X130175000Y-65405000D03*
D12*
X135255000Y-32385000D03*
D13*
X135255000Y-29845000D03*
D12*
X135255000Y-37465000D03*
D13*
X135255000Y-34925000D03*
D12*
X135255000Y-42545000D03*
D13*
X135255000Y-40005000D03*
D12*
X135255000Y-47625000D03*
D13*
X135255000Y-45085000D03*
D12*
X135255000Y-52705000D03*
D13*
X135255000Y-50165000D03*
D12*
X135255000Y-57785000D03*
D13*
X135255000Y-55245000D03*
D12*
X135255000Y-62865000D03*
D13*
X135255000Y-60325000D03*
D12*
X135255000Y-67945000D03*
D13*
X135255000Y-65405000D03*
D12*
X140335000Y-32385000D03*
D13*
X140335000Y-29845000D03*
D12*
X140335000Y-37465000D03*
D13*
X140335000Y-34925000D03*
D12*
X140335000Y-42545000D03*
D13*
X140335000Y-40005000D03*
D12*
X140335000Y-47625000D03*
D13*
X140335000Y-45085000D03*
D12*
X140335000Y-52705000D03*
D13*
X140335000Y-50165000D03*
D12*
X140335000Y-57785000D03*
D13*
X140335000Y-55245000D03*
D12*
X140335000Y-62865000D03*
D13*
X140335000Y-60325000D03*
D12*
X140335000Y-67945000D03*
D13*
X140335000Y-65405000D03*
D12*
X145415000Y-32385000D03*
D13*
X145415000Y-29845000D03*
D12*
X145415000Y-37465000D03*
D13*
X145415000Y-34925000D03*
D12*
X145415000Y-42545000D03*
D13*
X145415000Y-40005000D03*
D12*
X145415000Y-47625000D03*
D13*
X145415000Y-45085000D03*
D12*
X145415000Y-52705000D03*
D13*
X145415000Y-50165000D03*
D12*
X145415000Y-57785000D03*
D13*
X145415000Y-55245000D03*
D12*
X145415000Y-62865000D03*
D13*
X145415000Y-60325000D03*
D12*
X145415000Y-67945000D03*
D13*
X145415000Y-65405000D03*
D12*
X150495000Y-32385000D03*
D13*
X150495000Y-29845000D03*
D12*
X150495000Y-37465000D03*
D13*
X150495000Y-34925000D03*
D12*
X150495000Y-42545000D03*
D13*
X150495000Y-40005000D03*
D12*
X150495000Y-47625000D03*
D13*
X150495000Y-45085000D03*
D12*
X150495000Y-52705000D03*
D13*
X150495000Y-50165000D03*
D12*
X150495000Y-57785000D03*
D13*
X150495000Y-55245000D03*
D12*
X150495000Y-62865000D03*
D13*
X150495000Y-60325000D03*
D12*
X150495000Y-67945000D03*
D13*
X150495000Y-65405000D03*
D12*
X155575000Y-32385000D03*
D13*
X155575000Y-29845000D03*
D12*
X155575000Y-37465000D03*
D13*
X155575000Y-34925000D03*
D12*
X155575000Y-42545000D03*
D13*
X155575000Y-40005000D03*
D12*
X155575000Y-47625000D03*
D13*
X155575000Y-45085000D03*
D12*
X155575000Y-52705000D03*
D13*
X155575000Y-50165000D03*
D12*
X155575000Y-57785000D03*
D13*
X155575000Y-55245000D03*
D12*
X155575000Y-62865000D03*
D13*
X155575000Y-60325000D03*
D12*
X155575000Y-67945000D03*
D13*
X155575000Y-65405000D03*
D12*
X160655000Y-32385000D03*
D13*
X160655000Y-29845000D03*
D12*
X160655000Y-37465000D03*
D13*
X160655000Y-34925000D03*
D12*
X160655000Y-42545000D03*
D13*
X160655000Y-40005000D03*
D12*
X160655000Y-47625000D03*
D13*
X160655000Y-45085000D03*
D12*
X160655000Y-52705000D03*
D13*
X160655000Y-50165000D03*
D12*
X160655000Y-57785000D03*
D13*
X160655000Y-55245000D03*
D12*
X160655000Y-62865000D03*
D13*
X160655000Y-60325000D03*
D12*
X160655000Y-67945000D03*
D13*
X160655000Y-65405000D03*
D12*
X165735000Y-32385000D03*
D13*
X165735000Y-29845000D03*
D12*
X165735000Y-37465000D03*
D13*
X165735000Y-34925000D03*
D12*
X165735000Y-42545000D03*
D13*
X165735000Y-40005000D03*
D12*
X165735000Y-47625000D03*
D13*
X165735000Y-45085000D03*
D12*
X165735000Y-52705000D03*
D13*
X165735000Y-50165000D03*
D12*
X165735000Y-57785000D03*
D13*
X165735000Y-55245000D03*
D12*
X165735000Y-62865000D03*
D13*
X165735000Y-60325000D03*
D12*
X165735000Y-67945000D03*
D13*
X165735000Y-65405000D03*
D12*
X170815000Y-32385000D03*
D13*
X170815000Y-29845000D03*
D12*
X170815000Y-37465000D03*
D13*
X170815000Y-34925000D03*
D12*
X170815000Y-42545000D03*
D13*
X170815000Y-40005000D03*
D12*
X170815000Y-47625000D03*
D13*
X170815000Y-45085000D03*
D12*
X170815000Y-52705000D03*
D13*
X170815000Y-50165000D03*
D12*
X170815000Y-57785000D03*
D13*
X170815000Y-55245000D03*
D12*
X170815000Y-62865000D03*
D13*
X170815000Y-60325000D03*
D12*
X170815000Y-67945000D03*
D13*
X170815000Y-65405000D03*
D12*
X175895000Y-32385000D03*
D13*
X175895000Y-29845000D03*
D12*
X175895000Y-37465000D03*
D13*
X175895000Y-34925000D03*
D12*
X175895000Y-42545000D03*
D13*
X175895000Y-40005000D03*
D12*
X175895000Y-47625000D03*
D13*
X175895000Y-45085000D03*
D12*
X175895000Y-52705000D03*
D13*
X175895000Y-50165000D03*
D12*
X175895000Y-57785000D03*
D13*
X175895000Y-55245000D03*
D12*
X175895000Y-62865000D03*
D13*
X175895000Y-60325000D03*
D12*
X175895000Y-67945000D03*
D13*
X175895000Y-65405000D03*
D12*
X180975000Y-32385000D03*
D13*
X180975000Y-29845000D03*
D12*
X180975000Y-37465000D03*
D13*
X180975000Y-34925000D03*
D12*
X180975000Y-42545000D03*
D13*
X180975000Y-40005000D03*
D12*
X180975000Y-47625000D03*
D13*
X180975000Y-45085000D03*
D12*
X180975000Y-52705000D03*
D13*
X180975000Y-50165000D03*
D12*
X180975000Y-57785000D03*
D13*
X180975000Y-55245000D03*
D12*
X180975000Y-62865000D03*
D13*
X180975000Y-60325000D03*
D12*
X180975000Y-67945000D03*
D13*
X180975000Y-65405000D03*
D12*
X186055000Y-32385000D03*
D13*
X186055000Y-29845000D03*
D12*
X186055000Y-37465000D03*
D13*
X186055000Y-34925000D03*
D12*
X186055000Y-42545000D03*
D13*
X186055000Y-40005000D03*
D12*
X186055000Y-47625000D03*
D13*
X186055000Y-45085000D03*
D12*
X186055000Y-52705000D03*
D13*
X186055000Y-50165000D03*
D12*
X186055000Y-57785000D03*
D13*
X186055000Y-55245000D03*
D12*
X186055000Y-62865000D03*
D13*
X186055000Y-60325000D03*
D12*
X186055000Y-67945000D03*
D13*
X186055000Y-65405000D03*
D12*
X191135000Y-32385000D03*
D13*
X191135000Y-29845000D03*
D12*
X191135000Y-37465000D03*
D13*
X191135000Y-34925000D03*
D12*
X191135000Y-42545000D03*
D13*
X191135000Y-40005000D03*
D12*
X191135000Y-47625000D03*
D13*
X191135000Y-45085000D03*
D12*
X191135000Y-52705000D03*
D13*
X191135000Y-50165000D03*
D12*
X191135000Y-57785000D03*
D13*
X191135000Y-55245000D03*
D12*
X191135000Y-62865000D03*
D13*
X191135000Y-60325000D03*
D12*
X191135000Y-67945000D03*
D13*
X191135000Y-65405000D03*
D12*
X196215000Y-32385000D03*
D13*
X196215000Y-29845000D03*
D12*
X196215000Y-37465000D03*
D13*
X196215000Y-34925000D03*
D12*
X196215000Y-42545000D03*
D13*
X196215000Y-40005000D03*
D12*
X196215000Y-47625000D03*
D13*
X196215000Y-45085000D03*
D12*
X196215000Y-52705000D03*
D13*
X196215000Y-50165000D03*
D12*
X196215000Y-57785000D03*
D13*
X196215000Y-55245000D03*
D12*
X196215000Y-62865000D03*
D13*
X196215000Y-60325000D03*
D12*
X196215000Y-67945000D03*
D13*
X196215000Y-65405000D03*
D12*
X201295000Y-32385000D03*
D13*
X201295000Y-29845000D03*
D12*
X201295000Y-37465000D03*
D13*
X201295000Y-34925000D03*
D12*
X201295000Y-42545000D03*
D13*
X201295000Y-40005000D03*
D12*
X201295000Y-47625000D03*
D13*
X201295000Y-45085000D03*
D12*
X201295000Y-52705000D03*
D13*
X201295000Y-50165000D03*
D12*
X201295000Y-57785000D03*
D13*
X201295000Y-55245000D03*
D12*
X201295000Y-62865000D03*
D13*
X201295000Y-60325000D03*
D12*
X201295000Y-67945000D03*
D13*
X201295000Y-65405000D03*
D12*
X206375000Y-32385000D03*
D13*
X206375000Y-29845000D03*
D12*
X206375000Y-37465000D03*
D13*
X206375000Y-34925000D03*
D12*
X206375000Y-42545000D03*
D13*
X206375000Y-40005000D03*
D12*
X206375000Y-47625000D03*
D13*
X206375000Y-45085000D03*
D12*
X206375000Y-52705000D03*
D13*
X206375000Y-50165000D03*
D12*
X206375000Y-57785000D03*
D13*
X206375000Y-55245000D03*
D12*
X206375000Y-62865000D03*
D13*
X206375000Y-60325000D03*
D12*
X206375000Y-67945000D03*
D13*
X206375000Y-65405000D03*
D12*
X211455000Y-32385000D03*
D13*
X211455000Y-29845000D03*
D12*
X211455000Y-37465000D03*
D13*
X211455000Y-34925000D03*
D12*
X211455000Y-42545000D03*
D13*
X211455000Y-40005000D03*
D12*
X211455000Y-47625000D03*
D13*
X211455000Y-45085000D03*
D12*
X211455000Y-52705000D03*
D13*
X211455000Y-50165000D03*
D12*
X211455000Y-57785000D03*
D13*
X211455000Y-55245000D03*
D12*
X211455000Y-62865000D03*
D13*
X211455000Y-60325000D03*
D12*
X211455000Y-67945000D03*
D13*
X211455000Y-65405000D03*
D12*
X216535000Y-32385000D03*
D13*
X216535000Y-29845000D03*
D12*
X216535000Y-37465000D03*
D13*
X216535000Y-34925000D03*
D12*
X216535000Y-42545000D03*
D13*
X216535000Y-40005000D03*
D12*
X216535000Y-47625000D03*
D13*
X216535000Y-45085000D03*
D12*
X216535000Y-52705000D03*
D13*
X216535000Y-50165000D03*
D12*
X216535000Y-57785000D03*
D13*
X216535000Y-55245000D03*
D12*
X216535000Y-62865000D03*
D13*
X216535000Y-60325000D03*
D12*
X216535000Y-67945000D03*
D13*
X216535000Y-65405000D03*
D12*
X221615000Y-32385000D03*
D13*
X221615000Y-29845000D03*
D12*
X221615000Y-37465000D03*
D13*
X221615000Y-34925000D03*
D12*
X221615000Y-42545000D03*
D13*
X221615000Y-40005000D03*
D12*
X221615000Y-47625000D03*
D13*
X221615000Y-45085000D03*
D12*
X221615000Y-52705000D03*
D13*
X221615000Y-50165000D03*
D12*
X221615000Y-57785000D03*
D13*
X221615000Y-55245000D03*
D12*
X221615000Y-62865000D03*
D13*
X221615000Y-60325000D03*
D12*
X221615000Y-67945000D03*
D13*
X221615000Y-65405000D03*
D12*
X226695000Y-32385000D03*
D13*
X226695000Y-29845000D03*
D12*
X226695000Y-37465000D03*
D13*
X226695000Y-34925000D03*
D12*
X226695000Y-42545000D03*
D13*
X226695000Y-40005000D03*
D12*
X226695000Y-47625000D03*
D13*
X226695000Y-45085000D03*
D12*
X226695000Y-52705000D03*
D13*
X226695000Y-50165000D03*
D12*
X226695000Y-57785000D03*
D13*
X226695000Y-55245000D03*
D12*
X226695000Y-62865000D03*
D13*
X226695000Y-60325000D03*
D12*
X226695000Y-67945000D03*
D13*
X226695000Y-65405000D03*
D12*
X231775000Y-32385000D03*
D13*
X231775000Y-29845000D03*
D12*
X231775000Y-37465000D03*
D13*
X231775000Y-34925000D03*
D12*
X231775000Y-42545000D03*
D13*
X231775000Y-40005000D03*
D12*
X231775000Y-47625000D03*
D13*
X231775000Y-45085000D03*
D12*
X231775000Y-52705000D03*
D13*
X231775000Y-50165000D03*
D12*
X231775000Y-57785000D03*
D13*
X231775000Y-55245000D03*
D12*
X231775000Y-62865000D03*
D13*
X231775000Y-60325000D03*
D12*
X231775000Y-67945000D03*
D13*
X231775000Y-65405000D03*
D14*
X231775000Y-65405000D02*
X229235000Y-65405000D01*
X229235000Y-65405000D02*
X229235000Y-60325000D01*
X229235000Y-60325000D02*
X231775000Y-60325000D01*
X229235000Y-60325000D02*
X229235000Y-55245000D01*
X229235000Y-55245000D02*
X231775000Y-55245000D01*
X229235000Y-55245000D02*
X229235000Y-50165000D01*
X229235000Y-50165000D02*
X231775000Y-50165000D01*
X229235000Y-50165000D02*
X229235000Y-45085000D01*
X229235000Y-45085000D02*
X231775000Y-45085000D01*
X229235000Y-45085000D02*
X229235000Y-40005000D01*
X229235000Y-40005000D02*
X231775000Y-40005000D01*
X229235000Y-40005000D02*
X229235000Y-34925000D01*
X229235000Y-34925000D02*
X231775000Y-34925000D01*
X229235000Y-34925000D02*
X229235000Y-29845000D01*
X229235000Y-29845000D02*
X231775000Y-29845000D01*
X229235000Y-23495000D02*
X229235000Y-29845000D01*
X224155000Y-60325000D02*
X224155000Y-55245000D01*
X224155000Y-55245000D02*
X226695000Y-55245000D01*
X224155000Y-50165000D02*
X224155000Y-45085000D01*
X226695000Y-65405000D02*
X224155000Y-65405000D01*
X224155000Y-65405000D02*
X224155000Y-60325000D01*
X224155000Y-40005000D02*
X224155000Y-34925000D01*
X224155000Y-60325000D02*
X226695000Y-60325000D01*
X224155000Y-45085000D02*
X226695000Y-45085000D01*
X224155000Y-34925000D02*
X226695000Y-34925000D01*
X224155000Y-55245000D02*
X224155000Y-50165000D01*
X224155000Y-34925000D02*
X224155000Y-29845000D01*
X224155000Y-50165000D02*
X226695000Y-50165000D01*
X224155000Y-29845000D02*
X226695000Y-29845000D01*
X224155000Y-45085000D02*
X224155000Y-40005000D01*
X224155000Y-40005000D02*
X226695000Y-40005000D01*
X224155000Y-25075000D02*
X225735000Y-23495000D01*
X224155000Y-29845000D02*
X224155000Y-25075000D01*
X219075000Y-60325000D02*
X219075000Y-55245000D01*
X219075000Y-55245000D02*
X221615000Y-55245000D01*
X219075000Y-50165000D02*
X219075000Y-45085000D01*
X221615000Y-65405000D02*
X219075000Y-65405000D01*
X219075000Y-65405000D02*
X219075000Y-60325000D01*
X219075000Y-40005000D02*
X219075000Y-34925000D01*
X219075000Y-60325000D02*
X221615000Y-60325000D01*
X219075000Y-45085000D02*
X221615000Y-45085000D01*
X219075000Y-34925000D02*
X221615000Y-34925000D01*
X219075000Y-55245000D02*
X219075000Y-50165000D01*
X219075000Y-34925000D02*
X219075000Y-29845000D01*
X219075000Y-50165000D02*
X221615000Y-50165000D01*
X219075000Y-29845000D02*
X221615000Y-29845000D01*
X219075000Y-45085000D02*
X219075000Y-40005000D01*
X219075000Y-40005000D02*
X221615000Y-40005000D01*
X219075000Y-26655000D02*
X222235000Y-23495000D01*
X219075000Y-29845000D02*
X219075000Y-26655000D01*
X213995000Y-60325000D02*
X213995000Y-55245000D01*
X213995000Y-55245000D02*
X216535000Y-55245000D01*
X213995000Y-50165000D02*
X213995000Y-45085000D01*
X216535000Y-65405000D02*
X213995000Y-65405000D01*
X213995000Y-65405000D02*
X213995000Y-60325000D01*
X213995000Y-40005000D02*
X213995000Y-34925000D01*
X213995000Y-60325000D02*
X216535000Y-60325000D01*
X213995000Y-45085000D02*
X216535000Y-45085000D01*
X213995000Y-34925000D02*
X216535000Y-34925000D01*
X213995000Y-55245000D02*
X213995000Y-50165000D01*
X213995000Y-34925000D02*
X213995000Y-29845000D01*
X213995000Y-50165000D02*
X216535000Y-50165000D01*
X213995000Y-29845000D02*
X216535000Y-29845000D01*
X213995000Y-45085000D02*
X213995000Y-40005000D01*
X213995000Y-40005000D02*
X216535000Y-40005000D01*
X213995000Y-28235000D02*
X218735000Y-23495000D01*
X213995000Y-29845000D02*
X213995000Y-28235000D01*
X208915000Y-60325000D02*
X208915000Y-55245000D01*
X208915000Y-55245000D02*
X211455000Y-55245000D01*
X208915000Y-50165000D02*
X208915000Y-45085000D01*
X211455000Y-65405000D02*
X208915000Y-65405000D01*
X208915000Y-65405000D02*
X208915000Y-60325000D01*
X208915000Y-40005000D02*
X208915000Y-34925000D01*
X208915000Y-60325000D02*
X211455000Y-60325000D01*
X208915000Y-45085000D02*
X211455000Y-45085000D01*
X208915000Y-34925000D02*
X211455000Y-34925000D01*
X208915000Y-55245000D02*
X208915000Y-50165000D01*
X208915000Y-34925000D02*
X208915000Y-29845000D01*
X208915000Y-50165000D02*
X211455000Y-50165000D01*
X208915000Y-29845000D02*
X211455000Y-29845000D01*
X208915000Y-45085000D02*
X208915000Y-40005000D01*
X208915000Y-40005000D02*
X211455000Y-40005000D01*
X208915000Y-29845000D02*
X208915000Y-28575000D01*
X208915000Y-28575000D02*
X210185000Y-27305000D01*
X210185000Y-27305000D02*
X211455000Y-27305000D01*
X211455000Y-27275000D02*
X215235000Y-23495000D01*
X211455000Y-27305000D02*
X211455000Y-27275000D01*
X203835000Y-60325000D02*
X203835000Y-55245000D01*
X203835000Y-55245000D02*
X206375000Y-55245000D01*
X203835000Y-50165000D02*
X203835000Y-45085000D01*
X206375000Y-65405000D02*
X203835000Y-65405000D01*
X203835000Y-65405000D02*
X203835000Y-60325000D01*
X203835000Y-40005000D02*
X203835000Y-34925000D01*
X203835000Y-60325000D02*
X206375000Y-60325000D01*
X203835000Y-45085000D02*
X206375000Y-45085000D01*
X203835000Y-34925000D02*
X206375000Y-34925000D01*
X203835000Y-55245000D02*
X203835000Y-50165000D01*
X203835000Y-34925000D02*
X203835000Y-29845000D01*
X203835000Y-50165000D02*
X206375000Y-50165000D01*
X203835000Y-29845000D02*
X206375000Y-29845000D01*
X203835000Y-45085000D02*
X203835000Y-40005000D01*
X203835000Y-40005000D02*
X206375000Y-40005000D01*
X203835000Y-29845000D02*
X203835000Y-28575000D01*
X203835000Y-28575000D02*
X205105000Y-27305000D01*
X205105000Y-27305000D02*
X207925000Y-27305000D01*
X207925000Y-27305000D02*
X211735000Y-23495000D01*
X198755000Y-60325000D02*
X198755000Y-55245000D01*
X198755000Y-55245000D02*
X201295000Y-55245000D01*
X198755000Y-50165000D02*
X198755000Y-45085000D01*
X201295000Y-65405000D02*
X198755000Y-65405000D01*
X198755000Y-65405000D02*
X198755000Y-60325000D01*
X198755000Y-40005000D02*
X198755000Y-34925000D01*
X198755000Y-60325000D02*
X201295000Y-60325000D01*
X198755000Y-45085000D02*
X201295000Y-45085000D01*
X198755000Y-34925000D02*
X201295000Y-34925000D01*
X198755000Y-55245000D02*
X198755000Y-50165000D01*
X198755000Y-34925000D02*
X198755000Y-29845000D01*
X198755000Y-50165000D02*
X201295000Y-50165000D01*
X198755000Y-29845000D02*
X201295000Y-29845000D01*
X198755000Y-45085000D02*
X198755000Y-40005000D01*
X198755000Y-40005000D02*
X201295000Y-40005000D01*
X205695000Y-26035000D02*
X208235000Y-23495000D01*
X201295000Y-26035000D02*
X205695000Y-26035000D01*
X198755000Y-28575000D02*
X201295000Y-26035000D01*
X198755000Y-29845000D02*
X198755000Y-28575000D01*
X193675000Y-60325000D02*
X193675000Y-55245000D01*
X193675000Y-55245000D02*
X196215000Y-55245000D01*
X193675000Y-50165000D02*
X193675000Y-45085000D01*
X196215000Y-65405000D02*
X193675000Y-65405000D01*
X193675000Y-65405000D02*
X193675000Y-60325000D01*
X193675000Y-40005000D02*
X193675000Y-34925000D01*
X193675000Y-60325000D02*
X196215000Y-60325000D01*
X193675000Y-45085000D02*
X196215000Y-45085000D01*
X193675000Y-34925000D02*
X196215000Y-34925000D01*
X193675000Y-55245000D02*
X193675000Y-50165000D01*
X193675000Y-34925000D02*
X193675000Y-29845000D01*
X193675000Y-50165000D02*
X196215000Y-50165000D01*
X193675000Y-29845000D02*
X196215000Y-29845000D01*
X193675000Y-45085000D02*
X193675000Y-40005000D01*
X193675000Y-40005000D02*
X196215000Y-40005000D01*
X204735000Y-23495000D02*
X198755000Y-23495000D01*
X198755000Y-23495000D02*
X193675000Y-28575000D01*
X193675000Y-28575000D02*
X193675000Y-29845000D01*
X188595000Y-23495000D02*
X188595000Y-29845000D01*
X188595000Y-60325000D02*
X188595000Y-55245000D01*
X188595000Y-55245000D02*
X191135000Y-55245000D01*
X188595000Y-50165000D02*
X188595000Y-45085000D01*
X191135000Y-65405000D02*
X188595000Y-65405000D01*
X188595000Y-65405000D02*
X188595000Y-60325000D01*
X188595000Y-40005000D02*
X188595000Y-34925000D01*
X188595000Y-60325000D02*
X191135000Y-60325000D01*
X188595000Y-45085000D02*
X191135000Y-45085000D01*
X188595000Y-34925000D02*
X191135000Y-34925000D01*
X188595000Y-55245000D02*
X188595000Y-50165000D01*
X188595000Y-34925000D02*
X188595000Y-29845000D01*
X188595000Y-50165000D02*
X191135000Y-50165000D01*
X188595000Y-29845000D02*
X191135000Y-29845000D01*
X188595000Y-45085000D02*
X188595000Y-40005000D01*
X188595000Y-40005000D02*
X191135000Y-40005000D01*
X183515000Y-25075000D02*
X185095000Y-23495000D01*
X183515000Y-29845000D02*
X183515000Y-25075000D01*
X183515000Y-60325000D02*
X183515000Y-55245000D01*
X183515000Y-55245000D02*
X186055000Y-55245000D01*
X183515000Y-50165000D02*
X183515000Y-45085000D01*
X186055000Y-65405000D02*
X183515000Y-65405000D01*
X183515000Y-65405000D02*
X183515000Y-60325000D01*
X183515000Y-40005000D02*
X183515000Y-34925000D01*
X183515000Y-60325000D02*
X186055000Y-60325000D01*
X183515000Y-45085000D02*
X186055000Y-45085000D01*
X183515000Y-34925000D02*
X186055000Y-34925000D01*
X183515000Y-55245000D02*
X183515000Y-50165000D01*
X183515000Y-34925000D02*
X183515000Y-29845000D01*
X183515000Y-50165000D02*
X186055000Y-50165000D01*
X183515000Y-29845000D02*
X186055000Y-29845000D01*
X183515000Y-45085000D02*
X183515000Y-40005000D01*
X183515000Y-40005000D02*
X186055000Y-40005000D01*
X178435000Y-29845000D02*
X178435000Y-26655000D01*
X178435000Y-26655000D02*
X181595000Y-23495000D01*
X178435000Y-60325000D02*
X178435000Y-55245000D01*
X178435000Y-55245000D02*
X180975000Y-55245000D01*
X178435000Y-50165000D02*
X178435000Y-45085000D01*
X180975000Y-65405000D02*
X178435000Y-65405000D01*
X178435000Y-65405000D02*
X178435000Y-60325000D01*
X178435000Y-40005000D02*
X178435000Y-34925000D01*
X178435000Y-60325000D02*
X180975000Y-60325000D01*
X178435000Y-45085000D02*
X180975000Y-45085000D01*
X178435000Y-34925000D02*
X180975000Y-34925000D01*
X178435000Y-55245000D02*
X178435000Y-50165000D01*
X178435000Y-34925000D02*
X178435000Y-29845000D01*
X178435000Y-50165000D02*
X180975000Y-50165000D01*
X178435000Y-29845000D02*
X180975000Y-29845000D01*
X178435000Y-45085000D02*
X178435000Y-40005000D01*
X178435000Y-40005000D02*
X180975000Y-40005000D01*
X173355000Y-60325000D02*
X173355000Y-55245000D01*
X173355000Y-55245000D02*
X175895000Y-55245000D01*
X173355000Y-50165000D02*
X173355000Y-45085000D01*
X175895000Y-65405000D02*
X173355000Y-65405000D01*
X173355000Y-65405000D02*
X173355000Y-60325000D01*
X173355000Y-40005000D02*
X173355000Y-34925000D01*
X173355000Y-60325000D02*
X175895000Y-60325000D01*
X173355000Y-45085000D02*
X175895000Y-45085000D01*
X173355000Y-34925000D02*
X175895000Y-34925000D01*
X173355000Y-55245000D02*
X173355000Y-50165000D01*
X173355000Y-34925000D02*
X173355000Y-29845000D01*
X173355000Y-50165000D02*
X175895000Y-50165000D01*
X173355000Y-29845000D02*
X175895000Y-29845000D01*
X173355000Y-45085000D02*
X173355000Y-40005000D01*
X173355000Y-40005000D02*
X175895000Y-40005000D01*
X173355000Y-28235000D02*
X178095000Y-23495000D01*
X173355000Y-29845000D02*
X173355000Y-28235000D01*
X169545000Y-27305000D02*
X170815000Y-27305000D01*
X168275000Y-28575000D02*
X169545000Y-27305000D01*
X170815000Y-27275000D02*
X174595000Y-23495000D01*
X170815000Y-27305000D02*
X170815000Y-27275000D01*
X168275000Y-60325000D02*
X168275000Y-55245000D01*
X168275000Y-55245000D02*
X170815000Y-55245000D01*
X168275000Y-50165000D02*
X168275000Y-45085000D01*
X170815000Y-65405000D02*
X168275000Y-65405000D01*
X168275000Y-65405000D02*
X168275000Y-60325000D01*
X168275000Y-40005000D02*
X168275000Y-34925000D01*
X168275000Y-60325000D02*
X170815000Y-60325000D01*
X168275000Y-45085000D02*
X170815000Y-45085000D01*
X168275000Y-34925000D02*
X170815000Y-34925000D01*
X168275000Y-55245000D02*
X168275000Y-50165000D01*
X168275000Y-34925000D02*
X168275000Y-29845000D01*
X168275000Y-50165000D02*
X170815000Y-50165000D01*
X168275000Y-29845000D02*
X170815000Y-29845000D01*
X168275000Y-45085000D02*
X168275000Y-40005000D01*
X168275000Y-40005000D02*
X170815000Y-40005000D01*
X168275000Y-28575000D02*
X168275000Y-29845000D01*
X163195000Y-28575000D02*
X164465000Y-27305000D01*
X167285000Y-27305000D02*
X171095000Y-23495000D01*
X164465000Y-27305000D02*
X167285000Y-27305000D01*
X163195000Y-60325000D02*
X163195000Y-55245000D01*
X163195000Y-55245000D02*
X165735000Y-55245000D01*
X163195000Y-50165000D02*
X163195000Y-45085000D01*
X165735000Y-65405000D02*
X163195000Y-65405000D01*
X163195000Y-65405000D02*
X163195000Y-60325000D01*
X163195000Y-40005000D02*
X163195000Y-34925000D01*
X163195000Y-60325000D02*
X165735000Y-60325000D01*
X163195000Y-45085000D02*
X165735000Y-45085000D01*
X163195000Y-34925000D02*
X165735000Y-34925000D01*
X163195000Y-55245000D02*
X163195000Y-50165000D01*
X163195000Y-34925000D02*
X163195000Y-29845000D01*
X163195000Y-50165000D02*
X165735000Y-50165000D01*
X163195000Y-29845000D02*
X165735000Y-29845000D01*
X163195000Y-45085000D02*
X163195000Y-40005000D01*
X163195000Y-40005000D02*
X165735000Y-40005000D01*
X163195000Y-28575000D02*
X163195000Y-29845000D01*
X160655000Y-26035000D02*
X165055000Y-26035000D01*
X158115000Y-28575000D02*
X160655000Y-26035000D01*
X165055000Y-26035000D02*
X167595000Y-23495000D01*
X158115000Y-60325000D02*
X158115000Y-55245000D01*
X158115000Y-55245000D02*
X160655000Y-55245000D01*
X158115000Y-50165000D02*
X158115000Y-45085000D01*
X160655000Y-65405000D02*
X158115000Y-65405000D01*
X158115000Y-65405000D02*
X158115000Y-60325000D01*
X158115000Y-40005000D02*
X158115000Y-34925000D01*
X158115000Y-60325000D02*
X160655000Y-60325000D01*
X158115000Y-45085000D02*
X160655000Y-45085000D01*
X158115000Y-34925000D02*
X160655000Y-34925000D01*
X158115000Y-55245000D02*
X158115000Y-50165000D01*
X158115000Y-34925000D02*
X158115000Y-29845000D01*
X158115000Y-50165000D02*
X160655000Y-50165000D01*
X158115000Y-29845000D02*
X160655000Y-29845000D01*
X158115000Y-45085000D02*
X158115000Y-40005000D01*
X158115000Y-40005000D02*
X160655000Y-40005000D01*
X158115000Y-28575000D02*
X158115000Y-29845000D01*
X153035000Y-60325000D02*
X153035000Y-55245000D01*
X153035000Y-55245000D02*
X155575000Y-55245000D01*
X153035000Y-50165000D02*
X153035000Y-45085000D01*
X155575000Y-65405000D02*
X153035000Y-65405000D01*
X153035000Y-65405000D02*
X153035000Y-60325000D01*
X153035000Y-40005000D02*
X153035000Y-34925000D01*
X153035000Y-60325000D02*
X155575000Y-60325000D01*
X153035000Y-45085000D02*
X155575000Y-45085000D01*
X153035000Y-34925000D02*
X155575000Y-34925000D01*
X153035000Y-55245000D02*
X153035000Y-50165000D01*
X153035000Y-34925000D02*
X153035000Y-29845000D01*
X153035000Y-50165000D02*
X155575000Y-50165000D01*
X153035000Y-29845000D02*
X155575000Y-29845000D01*
X153035000Y-45085000D02*
X153035000Y-40005000D01*
X153035000Y-40005000D02*
X155575000Y-40005000D01*
X164095000Y-23495000D02*
X158115000Y-23495000D01*
X153035000Y-28575000D02*
X153035000Y-29845000D01*
X158115000Y-23495000D02*
X153035000Y-28575000D01*
X147955000Y-23495000D02*
X147955000Y-29845000D01*
X147955000Y-60325000D02*
X147955000Y-55245000D01*
X147955000Y-55245000D02*
X150495000Y-55245000D01*
X147955000Y-50165000D02*
X147955000Y-45085000D01*
X150495000Y-65405000D02*
X147955000Y-65405000D01*
X147955000Y-65405000D02*
X147955000Y-60325000D01*
X147955000Y-40005000D02*
X147955000Y-34925000D01*
X147955000Y-60325000D02*
X150495000Y-60325000D01*
X147955000Y-45085000D02*
X150495000Y-45085000D01*
X147955000Y-34925000D02*
X150495000Y-34925000D01*
X147955000Y-55245000D02*
X147955000Y-50165000D01*
X147955000Y-34925000D02*
X147955000Y-29845000D01*
X147955000Y-50165000D02*
X150495000Y-50165000D01*
X147955000Y-29845000D02*
X150495000Y-29845000D01*
X147955000Y-45085000D02*
X147955000Y-40005000D01*
X147955000Y-40005000D02*
X150495000Y-40005000D01*
X142875000Y-25075000D02*
X144455000Y-23495000D01*
X142875000Y-29845000D02*
X142875000Y-25075000D01*
X142875000Y-60325000D02*
X142875000Y-55245000D01*
X142875000Y-55245000D02*
X145415000Y-55245000D01*
X142875000Y-50165000D02*
X142875000Y-45085000D01*
X145415000Y-65405000D02*
X142875000Y-65405000D01*
X142875000Y-65405000D02*
X142875000Y-60325000D01*
X142875000Y-40005000D02*
X142875000Y-34925000D01*
X142875000Y-60325000D02*
X145415000Y-60325000D01*
X142875000Y-45085000D02*
X145415000Y-45085000D01*
X142875000Y-34925000D02*
X145415000Y-34925000D01*
X142875000Y-55245000D02*
X142875000Y-50165000D01*
X142875000Y-34925000D02*
X142875000Y-29845000D01*
X142875000Y-50165000D02*
X145415000Y-50165000D01*
X142875000Y-29845000D02*
X145415000Y-29845000D01*
X142875000Y-45085000D02*
X142875000Y-40005000D01*
X142875000Y-40005000D02*
X145415000Y-40005000D01*
X137795000Y-29845000D02*
X137795000Y-26655000D01*
X137795000Y-26655000D02*
X140955000Y-23495000D01*
X137795000Y-60325000D02*
X137795000Y-55245000D01*
X137795000Y-55245000D02*
X140335000Y-55245000D01*
X137795000Y-50165000D02*
X137795000Y-45085000D01*
X140335000Y-65405000D02*
X137795000Y-65405000D01*
X137795000Y-65405000D02*
X137795000Y-60325000D01*
X137795000Y-40005000D02*
X137795000Y-34925000D01*
X137795000Y-60325000D02*
X140335000Y-60325000D01*
X137795000Y-45085000D02*
X140335000Y-45085000D01*
X137795000Y-34925000D02*
X140335000Y-34925000D01*
X137795000Y-55245000D02*
X137795000Y-50165000D01*
X137795000Y-34925000D02*
X137795000Y-29845000D01*
X137795000Y-50165000D02*
X140335000Y-50165000D01*
X137795000Y-29845000D02*
X140335000Y-29845000D01*
X137795000Y-45085000D02*
X137795000Y-40005000D01*
X137795000Y-40005000D02*
X140335000Y-40005000D01*
X132715000Y-60325000D02*
X132715000Y-55245000D01*
X132715000Y-55245000D02*
X135255000Y-55245000D01*
X132715000Y-50165000D02*
X132715000Y-45085000D01*
X135255000Y-65405000D02*
X132715000Y-65405000D01*
X132715000Y-65405000D02*
X132715000Y-60325000D01*
X132715000Y-40005000D02*
X132715000Y-34925000D01*
X132715000Y-60325000D02*
X135255000Y-60325000D01*
X132715000Y-45085000D02*
X135255000Y-45085000D01*
X132715000Y-34925000D02*
X135255000Y-34925000D01*
X132715000Y-55245000D02*
X132715000Y-50165000D01*
X132715000Y-34925000D02*
X132715000Y-29845000D01*
X132715000Y-50165000D02*
X135255000Y-50165000D01*
X132715000Y-29845000D02*
X135255000Y-29845000D01*
X132715000Y-45085000D02*
X132715000Y-40005000D01*
X132715000Y-40005000D02*
X135255000Y-40005000D01*
X132715000Y-28235000D02*
X137455000Y-23495000D01*
X132715000Y-29845000D02*
X132715000Y-28235000D01*
X128905000Y-27305000D02*
X130175000Y-27305000D01*
X127635000Y-28575000D02*
X128905000Y-27305000D01*
X130175000Y-27275000D02*
X133955000Y-23495000D01*
X130175000Y-27305000D02*
X130175000Y-27275000D01*
X127635000Y-60325000D02*
X127635000Y-55245000D01*
X127635000Y-55245000D02*
X130175000Y-55245000D01*
X127635000Y-50165000D02*
X127635000Y-45085000D01*
X130175000Y-65405000D02*
X127635000Y-65405000D01*
X127635000Y-65405000D02*
X127635000Y-60325000D01*
X127635000Y-40005000D02*
X127635000Y-34925000D01*
X127635000Y-60325000D02*
X130175000Y-60325000D01*
X127635000Y-45085000D02*
X130175000Y-45085000D01*
X127635000Y-34925000D02*
X130175000Y-34925000D01*
X127635000Y-55245000D02*
X127635000Y-50165000D01*
X127635000Y-34925000D02*
X127635000Y-29845000D01*
X127635000Y-50165000D02*
X130175000Y-50165000D01*
X127635000Y-29845000D02*
X130175000Y-29845000D01*
X127635000Y-45085000D02*
X127635000Y-40005000D01*
X127635000Y-40005000D02*
X130175000Y-40005000D01*
X127635000Y-28575000D02*
X127635000Y-29845000D01*
X122555000Y-28575000D02*
X123825000Y-27305000D01*
X126645000Y-27305000D02*
X130455000Y-23495000D01*
X123825000Y-27305000D02*
X126645000Y-27305000D01*
X122555000Y-60325000D02*
X122555000Y-55245000D01*
X122555000Y-55245000D02*
X125095000Y-55245000D01*
X122555000Y-50165000D02*
X122555000Y-45085000D01*
X125095000Y-65405000D02*
X122555000Y-65405000D01*
X122555000Y-65405000D02*
X122555000Y-60325000D01*
X122555000Y-40005000D02*
X122555000Y-34925000D01*
X122555000Y-60325000D02*
X125095000Y-60325000D01*
X122555000Y-45085000D02*
X125095000Y-45085000D01*
X122555000Y-34925000D02*
X125095000Y-34925000D01*
X122555000Y-55245000D02*
X122555000Y-50165000D01*
X122555000Y-34925000D02*
X122555000Y-29845000D01*
X122555000Y-50165000D02*
X125095000Y-50165000D01*
X122555000Y-29845000D02*
X125095000Y-29845000D01*
X122555000Y-45085000D02*
X122555000Y-40005000D01*
X122555000Y-40005000D02*
X125095000Y-40005000D01*
X122555000Y-28575000D02*
X122555000Y-29845000D01*
X120015000Y-26035000D02*
X124415000Y-26035000D01*
X117475000Y-28575000D02*
X120015000Y-26035000D01*
X124415000Y-26035000D02*
X126955000Y-23495000D01*
X117475000Y-60325000D02*
X117475000Y-55245000D01*
X117475000Y-55245000D02*
X120015000Y-55245000D01*
X117475000Y-50165000D02*
X117475000Y-45085000D01*
X120015000Y-65405000D02*
X117475000Y-65405000D01*
X117475000Y-65405000D02*
X117475000Y-60325000D01*
X117475000Y-40005000D02*
X117475000Y-34925000D01*
X117475000Y-60325000D02*
X120015000Y-60325000D01*
X117475000Y-45085000D02*
X120015000Y-45085000D01*
X117475000Y-34925000D02*
X120015000Y-34925000D01*
X117475000Y-55245000D02*
X117475000Y-50165000D01*
X117475000Y-34925000D02*
X117475000Y-29845000D01*
X117475000Y-50165000D02*
X120015000Y-50165000D01*
X117475000Y-29845000D02*
X120015000Y-29845000D01*
X117475000Y-45085000D02*
X117475000Y-40005000D01*
X117475000Y-40005000D02*
X120015000Y-40005000D01*
X117475000Y-28575000D02*
X117475000Y-29845000D01*
X112395000Y-60325000D02*
X112395000Y-55245000D01*
X112395000Y-55245000D02*
X114935000Y-55245000D01*
X112395000Y-50165000D02*
X112395000Y-45085000D01*
X114935000Y-65405000D02*
X112395000Y-65405000D01*
X112395000Y-65405000D02*
X112395000Y-60325000D01*
X112395000Y-40005000D02*
X112395000Y-34925000D01*
X112395000Y-60325000D02*
X114935000Y-60325000D01*
X112395000Y-45085000D02*
X114935000Y-45085000D01*
X112395000Y-34925000D02*
X114935000Y-34925000D01*
X112395000Y-55245000D02*
X112395000Y-50165000D01*
X112395000Y-34925000D02*
X112395000Y-29845000D01*
X112395000Y-50165000D02*
X114935000Y-50165000D01*
X112395000Y-29845000D02*
X114935000Y-29845000D01*
X112395000Y-45085000D02*
X112395000Y-40005000D01*
X112395000Y-40005000D02*
X114935000Y-40005000D01*
X123455000Y-23495000D02*
X117475000Y-23495000D01*
X117475000Y-23495000D02*
X112395000Y-28575000D01*
X112395000Y-28575000D02*
X112395000Y-29845000D01*
X107315000Y-23495000D02*
X107315000Y-29845000D01*
X107315000Y-60325000D02*
X107315000Y-55245000D01*
X107315000Y-55245000D02*
X109855000Y-55245000D01*
X107315000Y-50165000D02*
X107315000Y-45085000D01*
X109855000Y-65405000D02*
X107315000Y-65405000D01*
X107315000Y-65405000D02*
X107315000Y-60325000D01*
X107315000Y-40005000D02*
X107315000Y-34925000D01*
X107315000Y-60325000D02*
X109855000Y-60325000D01*
X107315000Y-45085000D02*
X109855000Y-45085000D01*
X107315000Y-34925000D02*
X109855000Y-34925000D01*
X107315000Y-55245000D02*
X107315000Y-50165000D01*
X107315000Y-34925000D02*
X107315000Y-29845000D01*
X107315000Y-50165000D02*
X109855000Y-50165000D01*
X107315000Y-29845000D02*
X109855000Y-29845000D01*
X107315000Y-45085000D02*
X107315000Y-40005000D01*
X107315000Y-40005000D02*
X109855000Y-40005000D01*
X102235000Y-25075000D02*
X103815000Y-23495000D01*
X102235000Y-29845000D02*
X102235000Y-25075000D01*
X102235000Y-60325000D02*
X102235000Y-55245000D01*
X102235000Y-55245000D02*
X104775000Y-55245000D01*
X102235000Y-50165000D02*
X102235000Y-45085000D01*
X104775000Y-65405000D02*
X102235000Y-65405000D01*
X102235000Y-65405000D02*
X102235000Y-60325000D01*
X102235000Y-40005000D02*
X102235000Y-34925000D01*
X102235000Y-60325000D02*
X104775000Y-60325000D01*
X102235000Y-45085000D02*
X104775000Y-45085000D01*
X102235000Y-34925000D02*
X104775000Y-34925000D01*
X102235000Y-55245000D02*
X102235000Y-50165000D01*
X102235000Y-34925000D02*
X102235000Y-29845000D01*
X102235000Y-50165000D02*
X104775000Y-50165000D01*
X102235000Y-29845000D02*
X104775000Y-29845000D01*
X102235000Y-45085000D02*
X102235000Y-40005000D01*
X102235000Y-40005000D02*
X104775000Y-40005000D01*
X97155000Y-29845000D02*
X97155000Y-26655000D01*
X97155000Y-26655000D02*
X100315000Y-23495000D01*
X97155000Y-60325000D02*
X97155000Y-55245000D01*
X97155000Y-55245000D02*
X99695000Y-55245000D01*
X97155000Y-50165000D02*
X97155000Y-45085000D01*
X99695000Y-65405000D02*
X97155000Y-65405000D01*
X97155000Y-65405000D02*
X97155000Y-60325000D01*
X97155000Y-40005000D02*
X97155000Y-34925000D01*
X97155000Y-60325000D02*
X99695000Y-60325000D01*
X97155000Y-45085000D02*
X99695000Y-45085000D01*
X97155000Y-34925000D02*
X99695000Y-34925000D01*
X97155000Y-55245000D02*
X97155000Y-50165000D01*
X97155000Y-34925000D02*
X97155000Y-29845000D01*
X97155000Y-50165000D02*
X99695000Y-50165000D01*
X97155000Y-29845000D02*
X99695000Y-29845000D01*
X97155000Y-45085000D02*
X97155000Y-40005000D01*
X97155000Y-40005000D02*
X99695000Y-40005000D01*
X92075000Y-60325000D02*
X92075000Y-55245000D01*
X92075000Y-55245000D02*
X94615000Y-55245000D01*
X92075000Y-50165000D02*
X92075000Y-45085000D01*
X94615000Y-65405000D02*
X92075000Y-65405000D01*
X92075000Y-65405000D02*
X92075000Y-60325000D01*
X92075000Y-40005000D02*
X92075000Y-34925000D01*
X92075000Y-60325000D02*
X94615000Y-60325000D01*
X92075000Y-45085000D02*
X94615000Y-45085000D01*
X92075000Y-34925000D02*
X94615000Y-34925000D01*
X92075000Y-55245000D02*
X92075000Y-50165000D01*
X92075000Y-34925000D02*
X92075000Y-29845000D01*
X92075000Y-50165000D02*
X94615000Y-50165000D01*
X92075000Y-29845000D02*
X94615000Y-29845000D01*
X92075000Y-45085000D02*
X92075000Y-40005000D01*
X92075000Y-40005000D02*
X94615000Y-40005000D01*
X92075000Y-28235000D02*
X96815000Y-23495000D01*
X92075000Y-29845000D02*
X92075000Y-28235000D01*
X86995000Y-60325000D02*
X86995000Y-55245000D01*
X86995000Y-55245000D02*
X89535000Y-55245000D01*
X86995000Y-50165000D02*
X86995000Y-45085000D01*
X89535000Y-65405000D02*
X86995000Y-65405000D01*
X86995000Y-65405000D02*
X86995000Y-60325000D01*
X86995000Y-40005000D02*
X86995000Y-34925000D01*
X86995000Y-60325000D02*
X89535000Y-60325000D01*
X86995000Y-45085000D02*
X89535000Y-45085000D01*
X86995000Y-34925000D02*
X89535000Y-34925000D01*
X86995000Y-55245000D02*
X86995000Y-50165000D01*
X86995000Y-50165000D02*
X89535000Y-50165000D01*
X86995000Y-45085000D02*
X86995000Y-40005000D01*
X86995000Y-40005000D02*
X89535000Y-40005000D01*
X89535000Y-27275000D02*
X93315000Y-23495000D01*
X89535000Y-27305000D02*
X89535000Y-27275000D01*
X88265000Y-27305000D02*
X89535000Y-27305000D01*
X86995000Y-28575000D02*
X88265000Y-27305000D01*
X86995000Y-29845000D02*
X89535000Y-29845000D01*
X86995000Y-34925000D02*
X86995000Y-29845000D01*
X86995000Y-28575000D02*
X86995000Y-29845000D01*
X81915000Y-60325000D02*
X81915000Y-55245000D01*
X81915000Y-55245000D02*
X84455000Y-55245000D01*
X81915000Y-50165000D02*
X81915000Y-45085000D01*
X84455000Y-65405000D02*
X81915000Y-65405000D01*
X81915000Y-65405000D02*
X81915000Y-60325000D01*
X81915000Y-40005000D02*
X81915000Y-34925000D01*
X81915000Y-60325000D02*
X84455000Y-60325000D01*
X81915000Y-45085000D02*
X84455000Y-45085000D01*
X81915000Y-34925000D02*
X84455000Y-34925000D01*
X81915000Y-55245000D02*
X81915000Y-50165000D01*
X81915000Y-34925000D02*
X81915000Y-29845000D01*
X81915000Y-50165000D02*
X84455000Y-50165000D01*
X81915000Y-29845000D02*
X84455000Y-29845000D01*
X81915000Y-45085000D02*
X81915000Y-40005000D01*
X81915000Y-40005000D02*
X84455000Y-40005000D01*
X86005000Y-27305000D02*
X89815000Y-23495000D01*
X83185000Y-27305000D02*
X86005000Y-27305000D01*
X81915000Y-28575000D02*
X83185000Y-27305000D01*
X81915000Y-29845000D02*
X81915000Y-28575000D01*
X79375000Y-26035000D02*
X83775000Y-26035000D01*
X76835000Y-28575000D02*
X79375000Y-26035000D01*
X83775000Y-26035000D02*
X86315000Y-23495000D01*
X76835000Y-60325000D02*
X76835000Y-55245000D01*
X76835000Y-55245000D02*
X79375000Y-55245000D01*
X76835000Y-50165000D02*
X76835000Y-45085000D01*
X79375000Y-65405000D02*
X76835000Y-65405000D01*
X76835000Y-65405000D02*
X76835000Y-60325000D01*
X76835000Y-40005000D02*
X76835000Y-34925000D01*
X76835000Y-60325000D02*
X79375000Y-60325000D01*
X76835000Y-45085000D02*
X79375000Y-45085000D01*
X76835000Y-34925000D02*
X79375000Y-34925000D01*
X76835000Y-55245000D02*
X76835000Y-50165000D01*
X76835000Y-34925000D02*
X76835000Y-29845000D01*
X76835000Y-50165000D02*
X79375000Y-50165000D01*
X76835000Y-29845000D02*
X79375000Y-29845000D01*
X76835000Y-45085000D02*
X76835000Y-40005000D01*
X76835000Y-40005000D02*
X79375000Y-40005000D01*
X76835000Y-28575000D02*
X76835000Y-29845000D01*
X71755000Y-60325000D02*
X71755000Y-55245000D01*
X71755000Y-55245000D02*
X74295000Y-55245000D01*
X71755000Y-50165000D02*
X71755000Y-45085000D01*
X74295000Y-65405000D02*
X71755000Y-65405000D01*
X71755000Y-65405000D02*
X71755000Y-60325000D01*
X71755000Y-40005000D02*
X71755000Y-34925000D01*
X71755000Y-60325000D02*
X74295000Y-60325000D01*
X71755000Y-45085000D02*
X74295000Y-45085000D01*
X71755000Y-34925000D02*
X74295000Y-34925000D01*
X71755000Y-55245000D02*
X71755000Y-50165000D01*
X71755000Y-34925000D02*
X71755000Y-29845000D01*
X71755000Y-50165000D02*
X74295000Y-50165000D01*
X71755000Y-29845000D02*
X74295000Y-29845000D01*
X71755000Y-45085000D02*
X71755000Y-40005000D01*
X71755000Y-40005000D02*
X74295000Y-40005000D01*
X82815000Y-23495000D02*
X76835000Y-23495000D01*
X76835000Y-23495000D02*
X71755000Y-28575000D01*
X71755000Y-28575000D02*
X71755000Y-29845000D01*
M02*
