M48
; DRILL file {KiCad (5.1.10)-1} date 10/25/23 13:43:56
; FORMAT={-:-/ absolute / metric / decimal}
; #@! TF.CreationDate,2023-10-25T13:43:56-04:00
; #@! TF.GenerationSoftware,Kicad,Pcbnew,(5.1.10)-1
; #@! TF.FileFunction,Plated,1,2,PTH
FMAT,2
METRIC
T1C0.900
T2C1.200
%
G90
G05
T1
X74.295Y-29.845
X74.295Y-32.385
X74.295Y-34.925
X74.295Y-37.465
X74.295Y-40.005
X74.295Y-42.545
X74.295Y-45.085
X74.295Y-47.625
X74.295Y-50.165
X74.295Y-52.705
X74.295Y-55.245
X74.295Y-57.785
X74.295Y-60.325
X74.295Y-62.865
X74.295Y-65.405
X74.295Y-67.945
X79.375Y-29.845
X79.375Y-32.385
X79.375Y-34.925
X79.375Y-37.465
X79.375Y-40.005
X79.375Y-42.545
X79.375Y-45.085
X79.375Y-47.625
X79.375Y-50.165
X79.375Y-52.705
X79.375Y-55.245
X79.375Y-57.785
X79.375Y-60.325
X79.375Y-62.865
X79.375Y-65.405
X79.375Y-67.945
X84.455Y-29.845
X84.455Y-32.385
X84.455Y-34.925
X84.455Y-37.465
X84.455Y-40.005
X84.455Y-42.545
X84.455Y-45.085
X84.455Y-47.625
X84.455Y-50.165
X84.455Y-52.705
X84.455Y-55.245
X84.455Y-57.785
X84.455Y-60.325
X84.455Y-62.865
X84.455Y-65.405
X84.455Y-67.945
X89.535Y-29.845
X89.535Y-32.385
X89.535Y-34.925
X89.535Y-37.465
X89.535Y-40.005
X89.535Y-42.545
X89.535Y-45.085
X89.535Y-47.625
X89.535Y-50.165
X89.535Y-52.705
X89.535Y-55.245
X89.535Y-57.785
X89.535Y-60.325
X89.535Y-62.865
X89.535Y-65.405
X89.535Y-67.945
X94.615Y-29.845
X94.615Y-32.385
X94.615Y-34.925
X94.615Y-37.465
X94.615Y-40.005
X94.615Y-42.545
X94.615Y-45.085
X94.615Y-47.625
X94.615Y-50.165
X94.615Y-52.705
X94.615Y-55.245
X94.615Y-57.785
X94.615Y-60.325
X94.615Y-62.865
X94.615Y-65.405
X94.615Y-67.945
X99.695Y-29.845
X99.695Y-32.385
X99.695Y-34.925
X99.695Y-37.465
X99.695Y-40.005
X99.695Y-42.545
X99.695Y-45.085
X99.695Y-47.625
X99.695Y-50.165
X99.695Y-52.705
X99.695Y-55.245
X99.695Y-57.785
X99.695Y-60.325
X99.695Y-62.865
X99.695Y-65.405
X99.695Y-67.945
X104.775Y-29.845
X104.775Y-32.385
X104.775Y-34.925
X104.775Y-37.465
X104.775Y-40.005
X104.775Y-42.545
X104.775Y-45.085
X104.775Y-47.625
X104.775Y-50.165
X104.775Y-52.705
X104.775Y-55.245
X104.775Y-57.785
X104.775Y-60.325
X104.775Y-62.865
X104.775Y-65.405
X104.775Y-67.945
X109.855Y-29.845
X109.855Y-32.385
X109.855Y-34.925
X109.855Y-37.465
X109.855Y-40.005
X109.855Y-42.545
X109.855Y-45.085
X109.855Y-47.625
X109.855Y-50.165
X109.855Y-52.705
X109.855Y-55.245
X109.855Y-57.785
X109.855Y-60.325
X109.855Y-62.865
X109.855Y-65.405
X109.855Y-67.945
X114.935Y-29.845
X114.935Y-32.385
X114.935Y-34.925
X114.935Y-37.465
X114.935Y-40.005
X114.935Y-42.545
X114.935Y-45.085
X114.935Y-47.625
X114.935Y-50.165
X114.935Y-52.705
X114.935Y-55.245
X114.935Y-57.785
X114.935Y-60.325
X114.935Y-62.865
X114.935Y-65.405
X114.935Y-67.945
X120.015Y-29.845
X120.015Y-32.385
X120.015Y-34.925
X120.015Y-37.465
X120.015Y-40.005
X120.015Y-42.545
X120.015Y-45.085
X120.015Y-47.625
X120.015Y-50.165
X120.015Y-52.705
X120.015Y-55.245
X120.015Y-57.785
X120.015Y-60.325
X120.015Y-62.865
X120.015Y-65.405
X120.015Y-67.945
X125.095Y-29.845
X125.095Y-32.385
X125.095Y-34.925
X125.095Y-37.465
X125.095Y-40.005
X125.095Y-42.545
X125.095Y-45.085
X125.095Y-47.625
X125.095Y-50.165
X125.095Y-52.705
X125.095Y-55.245
X125.095Y-57.785
X125.095Y-60.325
X125.095Y-62.865
X125.095Y-65.405
X125.095Y-67.945
X130.175Y-29.845
X130.175Y-32.385
X130.175Y-34.925
X130.175Y-37.465
X130.175Y-40.005
X130.175Y-42.545
X130.175Y-45.085
X130.175Y-47.625
X130.175Y-50.165
X130.175Y-52.705
X130.175Y-55.245
X130.175Y-57.785
X130.175Y-60.325
X130.175Y-62.865
X130.175Y-65.405
X130.175Y-67.945
X135.255Y-29.845
X135.255Y-32.385
X135.255Y-34.925
X135.255Y-37.465
X135.255Y-40.005
X135.255Y-42.545
X135.255Y-45.085
X135.255Y-47.625
X135.255Y-50.165
X135.255Y-52.705
X135.255Y-55.245
X135.255Y-57.785
X135.255Y-60.325
X135.255Y-62.865
X135.255Y-65.405
X135.255Y-67.945
X140.335Y-29.845
X140.335Y-32.385
X140.335Y-34.925
X140.335Y-37.465
X140.335Y-40.005
X140.335Y-42.545
X140.335Y-45.085
X140.335Y-47.625
X140.335Y-50.165
X140.335Y-52.705
X140.335Y-55.245
X140.335Y-57.785
X140.335Y-60.325
X140.335Y-62.865
X140.335Y-65.405
X140.335Y-67.945
X145.415Y-29.845
X145.415Y-32.385
X145.415Y-34.925
X145.415Y-37.465
X145.415Y-40.005
X145.415Y-42.545
X145.415Y-45.085
X145.415Y-47.625
X145.415Y-50.165
X145.415Y-52.705
X145.415Y-55.245
X145.415Y-57.785
X145.415Y-60.325
X145.415Y-62.865
X145.415Y-65.405
X145.415Y-67.945
X150.495Y-29.845
X150.495Y-32.385
X150.495Y-34.925
X150.495Y-37.465
X150.495Y-40.005
X150.495Y-42.545
X150.495Y-45.085
X150.495Y-47.625
X150.495Y-50.165
X150.495Y-52.705
X150.495Y-55.245
X150.495Y-57.785
X150.495Y-60.325
X150.495Y-62.865
X150.495Y-65.405
X150.495Y-67.945
X155.575Y-29.845
X155.575Y-32.385
X155.575Y-34.925
X155.575Y-37.465
X155.575Y-40.005
X155.575Y-42.545
X155.575Y-45.085
X155.575Y-47.625
X155.575Y-50.165
X155.575Y-52.705
X155.575Y-55.245
X155.575Y-57.785
X155.575Y-60.325
X155.575Y-62.865
X155.575Y-65.405
X155.575Y-67.945
X160.655Y-29.845
X160.655Y-32.385
X160.655Y-34.925
X160.655Y-37.465
X160.655Y-40.005
X160.655Y-42.545
X160.655Y-45.085
X160.655Y-47.625
X160.655Y-50.165
X160.655Y-52.705
X160.655Y-55.245
X160.655Y-57.785
X160.655Y-60.325
X160.655Y-62.865
X160.655Y-65.405
X160.655Y-67.945
X165.735Y-29.845
X165.735Y-32.385
X165.735Y-34.925
X165.735Y-37.465
X165.735Y-40.005
X165.735Y-42.545
X165.735Y-45.085
X165.735Y-47.625
X165.735Y-50.165
X165.735Y-52.705
X165.735Y-55.245
X165.735Y-57.785
X165.735Y-60.325
X165.735Y-62.865
X165.735Y-65.405
X165.735Y-67.945
X170.815Y-29.845
X170.815Y-32.385
X170.815Y-34.925
X170.815Y-37.465
X170.815Y-40.005
X170.815Y-42.545
X170.815Y-45.085
X170.815Y-47.625
X170.815Y-50.165
X170.815Y-52.705
X170.815Y-55.245
X170.815Y-57.785
X170.815Y-60.325
X170.815Y-62.865
X170.815Y-65.405
X170.815Y-67.945
X175.895Y-29.845
X175.895Y-32.385
X175.895Y-34.925
X175.895Y-37.465
X175.895Y-40.005
X175.895Y-42.545
X175.895Y-45.085
X175.895Y-47.625
X175.895Y-50.165
X175.895Y-52.705
X175.895Y-55.245
X175.895Y-57.785
X175.895Y-60.325
X175.895Y-62.865
X175.895Y-65.405
X175.895Y-67.945
X180.975Y-29.845
X180.975Y-32.385
X180.975Y-34.925
X180.975Y-37.465
X180.975Y-40.005
X180.975Y-42.545
X180.975Y-45.085
X180.975Y-47.625
X180.975Y-50.165
X180.975Y-52.705
X180.975Y-55.245
X180.975Y-57.785
X180.975Y-60.325
X180.975Y-62.865
X180.975Y-65.405
X180.975Y-67.945
X186.055Y-29.845
X186.055Y-32.385
X186.055Y-34.925
X186.055Y-37.465
X186.055Y-40.005
X186.055Y-42.545
X186.055Y-45.085
X186.055Y-47.625
X186.055Y-50.165
X186.055Y-52.705
X186.055Y-55.245
X186.055Y-57.785
X186.055Y-60.325
X186.055Y-62.865
X186.055Y-65.405
X186.055Y-67.945
X191.135Y-29.845
X191.135Y-32.385
X191.135Y-34.925
X191.135Y-37.465
X191.135Y-40.005
X191.135Y-42.545
X191.135Y-45.085
X191.135Y-47.625
X191.135Y-50.165
X191.135Y-52.705
X191.135Y-55.245
X191.135Y-57.785
X191.135Y-60.325
X191.135Y-62.865
X191.135Y-65.405
X191.135Y-67.945
X196.215Y-29.845
X196.215Y-32.385
X196.215Y-34.925
X196.215Y-37.465
X196.215Y-40.005
X196.215Y-42.545
X196.215Y-45.085
X196.215Y-47.625
X196.215Y-50.165
X196.215Y-52.705
X196.215Y-55.245
X196.215Y-57.785
X196.215Y-60.325
X196.215Y-62.865
X196.215Y-65.405
X196.215Y-67.945
X201.295Y-29.845
X201.295Y-32.385
X201.295Y-34.925
X201.295Y-37.465
X201.295Y-40.005
X201.295Y-42.545
X201.295Y-45.085
X201.295Y-47.625
X201.295Y-50.165
X201.295Y-52.705
X201.295Y-55.245
X201.295Y-57.785
X201.295Y-60.325
X201.295Y-62.865
X201.295Y-65.405
X201.295Y-67.945
X206.375Y-29.845
X206.375Y-32.385
X206.375Y-34.925
X206.375Y-37.465
X206.375Y-40.005
X206.375Y-42.545
X206.375Y-45.085
X206.375Y-47.625
X206.375Y-50.165
X206.375Y-52.705
X206.375Y-55.245
X206.375Y-57.785
X206.375Y-60.325
X206.375Y-62.865
X206.375Y-65.405
X206.375Y-67.945
X211.455Y-29.845
X211.455Y-32.385
X211.455Y-34.925
X211.455Y-37.465
X211.455Y-40.005
X211.455Y-42.545
X211.455Y-45.085
X211.455Y-47.625
X211.455Y-50.165
X211.455Y-52.705
X211.455Y-55.245
X211.455Y-57.785
X211.455Y-60.325
X211.455Y-62.865
X211.455Y-65.405
X211.455Y-67.945
X216.535Y-29.845
X216.535Y-32.385
X216.535Y-34.925
X216.535Y-37.465
X216.535Y-40.005
X216.535Y-42.545
X216.535Y-45.085
X216.535Y-47.625
X216.535Y-50.165
X216.535Y-52.705
X216.535Y-55.245
X216.535Y-57.785
X216.535Y-60.325
X216.535Y-62.865
X216.535Y-65.405
X216.535Y-67.945
X221.615Y-29.845
X221.615Y-32.385
X221.615Y-34.925
X221.615Y-37.465
X221.615Y-40.005
X221.615Y-42.545
X221.615Y-45.085
X221.615Y-47.625
X221.615Y-50.165
X221.615Y-52.705
X221.615Y-55.245
X221.615Y-57.785
X221.615Y-60.325
X221.615Y-62.865
X221.615Y-65.405
X221.615Y-67.945
X226.695Y-29.845
X226.695Y-32.385
X226.695Y-34.925
X226.695Y-37.465
X226.695Y-40.005
X226.695Y-42.545
X226.695Y-45.085
X226.695Y-47.625
X226.695Y-50.165
X226.695Y-52.705
X226.695Y-55.245
X226.695Y-57.785
X226.695Y-60.325
X226.695Y-62.865
X226.695Y-65.405
X226.695Y-67.945
X231.775Y-29.845
X231.775Y-32.385
X231.775Y-34.925
X231.775Y-37.465
X231.775Y-40.005
X231.775Y-42.545
X231.775Y-45.085
X231.775Y-47.625
X231.775Y-50.165
X231.775Y-52.705
X231.775Y-55.245
X231.775Y-57.785
X231.775Y-60.325
X231.775Y-62.865
X231.775Y-65.405
X231.775Y-67.945
T2
X82.815Y-23.495
X86.315Y-23.495
X89.815Y-23.495
X93.315Y-23.495
X96.815Y-23.495
X100.315Y-23.495
X103.815Y-23.495
X107.315Y-23.495
X123.455Y-23.495
X126.955Y-23.495
X130.455Y-23.495
X133.955Y-23.495
X137.455Y-23.495
X140.955Y-23.495
X144.455Y-23.495
X147.955Y-23.495
X164.095Y-23.495
X167.595Y-23.495
X171.095Y-23.495
X174.595Y-23.495
X178.095Y-23.495
X181.595Y-23.495
X185.095Y-23.495
X188.595Y-23.495
X204.735Y-23.495
X208.235Y-23.495
X211.735Y-23.495
X215.235Y-23.495
X218.735Y-23.495
X222.235Y-23.495
X225.735Y-23.495
X229.235Y-23.495
X239.395Y-43.445
X239.395Y-46.945
X239.395Y-50.445
X239.395Y-53.945
X239.395Y-57.445
X239.395Y-60.945
X239.395Y-64.445
X239.395Y-67.945
T0
M30
