%FSLAX45Y45*%
G04 Gerber Fmt 4.5, Leading zero omitted, Abs format (unit mm)*
G04 Created by KiCad (PCBNEW (5.1.10)-1) date 2023-10-25 13:43:58*
%MOMM*%
%LPD*%
G01*
G04 APERTURE LIST*
%TA.AperFunction,Profile*%
%ADD10C,0.120000*%
%TD*%
%ADD11C,0.200000*%
%ADD12C,0.300000*%
G04 APERTURE END LIST*
D10*
X24447500Y-8064500D02*
X24447500Y-1841500D01*
X6286500Y-1841500D02*
X24447500Y-1841500D01*
X6286500Y-8064500D02*
X6286500Y-1841500D01*
X24447500Y-8064500D02*
X6286500Y-8064500D01*
D11*
X7384500Y-2939500D02*
X7474500Y-3029500D01*
X7474500Y-2939500D02*
X7384500Y-3029500D01*
X7384500Y-3193500D02*
X7474500Y-3283500D01*
X7474500Y-3193500D02*
X7384500Y-3283500D01*
X7384500Y-3447500D02*
X7474500Y-3537500D01*
X7474500Y-3447500D02*
X7384500Y-3537500D01*
X7384500Y-3701500D02*
X7474500Y-3791500D01*
X7474500Y-3701500D02*
X7384500Y-3791500D01*
X7384500Y-3955500D02*
X7474500Y-4045500D01*
X7474500Y-3955500D02*
X7384500Y-4045500D01*
X7384500Y-4209500D02*
X7474500Y-4299500D01*
X7474500Y-4209500D02*
X7384500Y-4299500D01*
X7384500Y-4463500D02*
X7474500Y-4553500D01*
X7474500Y-4463500D02*
X7384500Y-4553500D01*
X7384500Y-4717500D02*
X7474500Y-4807500D01*
X7474500Y-4717500D02*
X7384500Y-4807500D01*
X7384500Y-4971500D02*
X7474500Y-5061500D01*
X7474500Y-4971500D02*
X7384500Y-5061500D01*
X7384500Y-5225500D02*
X7474500Y-5315500D01*
X7474500Y-5225500D02*
X7384500Y-5315500D01*
X7384500Y-5479500D02*
X7474500Y-5569500D01*
X7474500Y-5479500D02*
X7384500Y-5569500D01*
X7384500Y-5733500D02*
X7474500Y-5823500D01*
X7474500Y-5733500D02*
X7384500Y-5823500D01*
X7384500Y-5987500D02*
X7474500Y-6077500D01*
X7474500Y-5987500D02*
X7384500Y-6077500D01*
X7384500Y-6241500D02*
X7474500Y-6331500D01*
X7474500Y-6241500D02*
X7384500Y-6331500D01*
X7384500Y-6495500D02*
X7474500Y-6585500D01*
X7474500Y-6495500D02*
X7384500Y-6585500D01*
X7384500Y-6749500D02*
X7474500Y-6839500D01*
X7474500Y-6749500D02*
X7384500Y-6839500D01*
X7892500Y-2939500D02*
X7982500Y-3029500D01*
X7982500Y-2939500D02*
X7892500Y-3029500D01*
X7892500Y-3193500D02*
X7982500Y-3283500D01*
X7982500Y-3193500D02*
X7892500Y-3283500D01*
X7892500Y-3447500D02*
X7982500Y-3537500D01*
X7982500Y-3447500D02*
X7892500Y-3537500D01*
X7892500Y-3701500D02*
X7982500Y-3791500D01*
X7982500Y-3701500D02*
X7892500Y-3791500D01*
X7892500Y-3955500D02*
X7982500Y-4045500D01*
X7982500Y-3955500D02*
X7892500Y-4045500D01*
X7892500Y-4209500D02*
X7982500Y-4299500D01*
X7982500Y-4209500D02*
X7892500Y-4299500D01*
X7892500Y-4463500D02*
X7982500Y-4553500D01*
X7982500Y-4463500D02*
X7892500Y-4553500D01*
X7892500Y-4717500D02*
X7982500Y-4807500D01*
X7982500Y-4717500D02*
X7892500Y-4807500D01*
X7892500Y-4971500D02*
X7982500Y-5061500D01*
X7982500Y-4971500D02*
X7892500Y-5061500D01*
X7892500Y-5225500D02*
X7982500Y-5315500D01*
X7982500Y-5225500D02*
X7892500Y-5315500D01*
X7892500Y-5479500D02*
X7982500Y-5569500D01*
X7982500Y-5479500D02*
X7892500Y-5569500D01*
X7892500Y-5733500D02*
X7982500Y-5823500D01*
X7982500Y-5733500D02*
X7892500Y-5823500D01*
X7892500Y-5987500D02*
X7982500Y-6077500D01*
X7982500Y-5987500D02*
X7892500Y-6077500D01*
X7892500Y-6241500D02*
X7982500Y-6331500D01*
X7982500Y-6241500D02*
X7892500Y-6331500D01*
X7892500Y-6495500D02*
X7982500Y-6585500D01*
X7982500Y-6495500D02*
X7892500Y-6585500D01*
X7892500Y-6749500D02*
X7982500Y-6839500D01*
X7982500Y-6749500D02*
X7892500Y-6839500D01*
X8400500Y-2939500D02*
X8490500Y-3029500D01*
X8490500Y-2939500D02*
X8400500Y-3029500D01*
X8400500Y-3193500D02*
X8490500Y-3283500D01*
X8490500Y-3193500D02*
X8400500Y-3283500D01*
X8400500Y-3447500D02*
X8490500Y-3537500D01*
X8490500Y-3447500D02*
X8400500Y-3537500D01*
X8400500Y-3701500D02*
X8490500Y-3791500D01*
X8490500Y-3701500D02*
X8400500Y-3791500D01*
X8400500Y-3955500D02*
X8490500Y-4045500D01*
X8490500Y-3955500D02*
X8400500Y-4045500D01*
X8400500Y-4209500D02*
X8490500Y-4299500D01*
X8490500Y-4209500D02*
X8400500Y-4299500D01*
X8400500Y-4463500D02*
X8490500Y-4553500D01*
X8490500Y-4463500D02*
X8400500Y-4553500D01*
X8400500Y-4717500D02*
X8490500Y-4807500D01*
X8490500Y-4717500D02*
X8400500Y-4807500D01*
X8400500Y-4971500D02*
X8490500Y-5061500D01*
X8490500Y-4971500D02*
X8400500Y-5061500D01*
X8400500Y-5225500D02*
X8490500Y-5315500D01*
X8490500Y-5225500D02*
X8400500Y-5315500D01*
X8400500Y-5479500D02*
X8490500Y-5569500D01*
X8490500Y-5479500D02*
X8400500Y-5569500D01*
X8400500Y-5733500D02*
X8490500Y-5823500D01*
X8490500Y-5733500D02*
X8400500Y-5823500D01*
X8400500Y-5987500D02*
X8490500Y-6077500D01*
X8490500Y-5987500D02*
X8400500Y-6077500D01*
X8400500Y-6241500D02*
X8490500Y-6331500D01*
X8490500Y-6241500D02*
X8400500Y-6331500D01*
X8400500Y-6495500D02*
X8490500Y-6585500D01*
X8490500Y-6495500D02*
X8400500Y-6585500D01*
X8400500Y-6749500D02*
X8490500Y-6839500D01*
X8490500Y-6749500D02*
X8400500Y-6839500D01*
X8908500Y-2939500D02*
X8998500Y-3029500D01*
X8998500Y-2939500D02*
X8908500Y-3029500D01*
X8908500Y-3193500D02*
X8998500Y-3283500D01*
X8998500Y-3193500D02*
X8908500Y-3283500D01*
X8908500Y-3447500D02*
X8998500Y-3537500D01*
X8998500Y-3447500D02*
X8908500Y-3537500D01*
X8908500Y-3701500D02*
X8998500Y-3791500D01*
X8998500Y-3701500D02*
X8908500Y-3791500D01*
X8908500Y-3955500D02*
X8998500Y-4045500D01*
X8998500Y-3955500D02*
X8908500Y-4045500D01*
X8908500Y-4209500D02*
X8998500Y-4299500D01*
X8998500Y-4209500D02*
X8908500Y-4299500D01*
X8908500Y-4463500D02*
X8998500Y-4553500D01*
X8998500Y-4463500D02*
X8908500Y-4553500D01*
X8908500Y-4717500D02*
X8998500Y-4807500D01*
X8998500Y-4717500D02*
X8908500Y-4807500D01*
X8908500Y-4971500D02*
X8998500Y-5061500D01*
X8998500Y-4971500D02*
X8908500Y-5061500D01*
X8908500Y-5225500D02*
X8998500Y-5315500D01*
X8998500Y-5225500D02*
X8908500Y-5315500D01*
X8908500Y-5479500D02*
X8998500Y-5569500D01*
X8998500Y-5479500D02*
X8908500Y-5569500D01*
X8908500Y-5733500D02*
X8998500Y-5823500D01*
X8998500Y-5733500D02*
X8908500Y-5823500D01*
X8908500Y-5987500D02*
X8998500Y-6077500D01*
X8998500Y-5987500D02*
X8908500Y-6077500D01*
X8908500Y-6241500D02*
X8998500Y-6331500D01*
X8998500Y-6241500D02*
X8908500Y-6331500D01*
X8908500Y-6495500D02*
X8998500Y-6585500D01*
X8998500Y-6495500D02*
X8908500Y-6585500D01*
X8908500Y-6749500D02*
X8998500Y-6839500D01*
X8998500Y-6749500D02*
X8908500Y-6839500D01*
X9416500Y-2939500D02*
X9506500Y-3029500D01*
X9506500Y-2939500D02*
X9416500Y-3029500D01*
X9416500Y-3193500D02*
X9506500Y-3283500D01*
X9506500Y-3193500D02*
X9416500Y-3283500D01*
X9416500Y-3447500D02*
X9506500Y-3537500D01*
X9506500Y-3447500D02*
X9416500Y-3537500D01*
X9416500Y-3701500D02*
X9506500Y-3791500D01*
X9506500Y-3701500D02*
X9416500Y-3791500D01*
X9416500Y-3955500D02*
X9506500Y-4045500D01*
X9506500Y-3955500D02*
X9416500Y-4045500D01*
X9416500Y-4209500D02*
X9506500Y-4299500D01*
X9506500Y-4209500D02*
X9416500Y-4299500D01*
X9416500Y-4463500D02*
X9506500Y-4553500D01*
X9506500Y-4463500D02*
X9416500Y-4553500D01*
X9416500Y-4717500D02*
X9506500Y-4807500D01*
X9506500Y-4717500D02*
X9416500Y-4807500D01*
X9416500Y-4971500D02*
X9506500Y-5061500D01*
X9506500Y-4971500D02*
X9416500Y-5061500D01*
X9416500Y-5225500D02*
X9506500Y-5315500D01*
X9506500Y-5225500D02*
X9416500Y-5315500D01*
X9416500Y-5479500D02*
X9506500Y-5569500D01*
X9506500Y-5479500D02*
X9416500Y-5569500D01*
X9416500Y-5733500D02*
X9506500Y-5823500D01*
X9506500Y-5733500D02*
X9416500Y-5823500D01*
X9416500Y-5987500D02*
X9506500Y-6077500D01*
X9506500Y-5987500D02*
X9416500Y-6077500D01*
X9416500Y-6241500D02*
X9506500Y-6331500D01*
X9506500Y-6241500D02*
X9416500Y-6331500D01*
X9416500Y-6495500D02*
X9506500Y-6585500D01*
X9506500Y-6495500D02*
X9416500Y-6585500D01*
X9416500Y-6749500D02*
X9506500Y-6839500D01*
X9506500Y-6749500D02*
X9416500Y-6839500D01*
X9924500Y-2939500D02*
X10014500Y-3029500D01*
X10014500Y-2939500D02*
X9924500Y-3029500D01*
X9924500Y-3193500D02*
X10014500Y-3283500D01*
X10014500Y-3193500D02*
X9924500Y-3283500D01*
X9924500Y-3447500D02*
X10014500Y-3537500D01*
X10014500Y-3447500D02*
X9924500Y-3537500D01*
X9924500Y-3701500D02*
X10014500Y-3791500D01*
X10014500Y-3701500D02*
X9924500Y-3791500D01*
X9924500Y-3955500D02*
X10014500Y-4045500D01*
X10014500Y-3955500D02*
X9924500Y-4045500D01*
X9924500Y-4209500D02*
X10014500Y-4299500D01*
X10014500Y-4209500D02*
X9924500Y-4299500D01*
X9924500Y-4463500D02*
X10014500Y-4553500D01*
X10014500Y-4463500D02*
X9924500Y-4553500D01*
X9924500Y-4717500D02*
X10014500Y-4807500D01*
X10014500Y-4717500D02*
X9924500Y-4807500D01*
X9924500Y-4971500D02*
X10014500Y-5061500D01*
X10014500Y-4971500D02*
X9924500Y-5061500D01*
X9924500Y-5225500D02*
X10014500Y-5315500D01*
X10014500Y-5225500D02*
X9924500Y-5315500D01*
X9924500Y-5479500D02*
X10014500Y-5569500D01*
X10014500Y-5479500D02*
X9924500Y-5569500D01*
X9924500Y-5733500D02*
X10014500Y-5823500D01*
X10014500Y-5733500D02*
X9924500Y-5823500D01*
X9924500Y-5987500D02*
X10014500Y-6077500D01*
X10014500Y-5987500D02*
X9924500Y-6077500D01*
X9924500Y-6241500D02*
X10014500Y-6331500D01*
X10014500Y-6241500D02*
X9924500Y-6331500D01*
X9924500Y-6495500D02*
X10014500Y-6585500D01*
X10014500Y-6495500D02*
X9924500Y-6585500D01*
X9924500Y-6749500D02*
X10014500Y-6839500D01*
X10014500Y-6749500D02*
X9924500Y-6839500D01*
X10432500Y-2939500D02*
X10522500Y-3029500D01*
X10522500Y-2939500D02*
X10432500Y-3029500D01*
X10432500Y-3193500D02*
X10522500Y-3283500D01*
X10522500Y-3193500D02*
X10432500Y-3283500D01*
X10432500Y-3447500D02*
X10522500Y-3537500D01*
X10522500Y-3447500D02*
X10432500Y-3537500D01*
X10432500Y-3701500D02*
X10522500Y-3791500D01*
X10522500Y-3701500D02*
X10432500Y-3791500D01*
X10432500Y-3955500D02*
X10522500Y-4045500D01*
X10522500Y-3955500D02*
X10432500Y-4045500D01*
X10432500Y-4209500D02*
X10522500Y-4299500D01*
X10522500Y-4209500D02*
X10432500Y-4299500D01*
X10432500Y-4463500D02*
X10522500Y-4553500D01*
X10522500Y-4463500D02*
X10432500Y-4553500D01*
X10432500Y-4717500D02*
X10522500Y-4807500D01*
X10522500Y-4717500D02*
X10432500Y-4807500D01*
X10432500Y-4971500D02*
X10522500Y-5061500D01*
X10522500Y-4971500D02*
X10432500Y-5061500D01*
X10432500Y-5225500D02*
X10522500Y-5315500D01*
X10522500Y-5225500D02*
X10432500Y-5315500D01*
X10432500Y-5479500D02*
X10522500Y-5569500D01*
X10522500Y-5479500D02*
X10432500Y-5569500D01*
X10432500Y-5733500D02*
X10522500Y-5823500D01*
X10522500Y-5733500D02*
X10432500Y-5823500D01*
X10432500Y-5987500D02*
X10522500Y-6077500D01*
X10522500Y-5987500D02*
X10432500Y-6077500D01*
X10432500Y-6241500D02*
X10522500Y-6331500D01*
X10522500Y-6241500D02*
X10432500Y-6331500D01*
X10432500Y-6495500D02*
X10522500Y-6585500D01*
X10522500Y-6495500D02*
X10432500Y-6585500D01*
X10432500Y-6749500D02*
X10522500Y-6839500D01*
X10522500Y-6749500D02*
X10432500Y-6839500D01*
X10940500Y-2939500D02*
X11030500Y-3029500D01*
X11030500Y-2939500D02*
X10940500Y-3029500D01*
X10940500Y-3193500D02*
X11030500Y-3283500D01*
X11030500Y-3193500D02*
X10940500Y-3283500D01*
X10940500Y-3447500D02*
X11030500Y-3537500D01*
X11030500Y-3447500D02*
X10940500Y-3537500D01*
X10940500Y-3701500D02*
X11030500Y-3791500D01*
X11030500Y-3701500D02*
X10940500Y-3791500D01*
X10940500Y-3955500D02*
X11030500Y-4045500D01*
X11030500Y-3955500D02*
X10940500Y-4045500D01*
X10940500Y-4209500D02*
X11030500Y-4299500D01*
X11030500Y-4209500D02*
X10940500Y-4299500D01*
X10940500Y-4463500D02*
X11030500Y-4553500D01*
X11030500Y-4463500D02*
X10940500Y-4553500D01*
X10940500Y-4717500D02*
X11030500Y-4807500D01*
X11030500Y-4717500D02*
X10940500Y-4807500D01*
X10940500Y-4971500D02*
X11030500Y-5061500D01*
X11030500Y-4971500D02*
X10940500Y-5061500D01*
X10940500Y-5225500D02*
X11030500Y-5315500D01*
X11030500Y-5225500D02*
X10940500Y-5315500D01*
X10940500Y-5479500D02*
X11030500Y-5569500D01*
X11030500Y-5479500D02*
X10940500Y-5569500D01*
X10940500Y-5733500D02*
X11030500Y-5823500D01*
X11030500Y-5733500D02*
X10940500Y-5823500D01*
X10940500Y-5987500D02*
X11030500Y-6077500D01*
X11030500Y-5987500D02*
X10940500Y-6077500D01*
X10940500Y-6241500D02*
X11030500Y-6331500D01*
X11030500Y-6241500D02*
X10940500Y-6331500D01*
X10940500Y-6495500D02*
X11030500Y-6585500D01*
X11030500Y-6495500D02*
X10940500Y-6585500D01*
X10940500Y-6749500D02*
X11030500Y-6839500D01*
X11030500Y-6749500D02*
X10940500Y-6839500D01*
X11448500Y-2939500D02*
X11538500Y-3029500D01*
X11538500Y-2939500D02*
X11448500Y-3029500D01*
X11448500Y-3193500D02*
X11538500Y-3283500D01*
X11538500Y-3193500D02*
X11448500Y-3283500D01*
X11448500Y-3447500D02*
X11538500Y-3537500D01*
X11538500Y-3447500D02*
X11448500Y-3537500D01*
X11448500Y-3701500D02*
X11538500Y-3791500D01*
X11538500Y-3701500D02*
X11448500Y-3791500D01*
X11448500Y-3955500D02*
X11538500Y-4045500D01*
X11538500Y-3955500D02*
X11448500Y-4045500D01*
X11448500Y-4209500D02*
X11538500Y-4299500D01*
X11538500Y-4209500D02*
X11448500Y-4299500D01*
X11448500Y-4463500D02*
X11538500Y-4553500D01*
X11538500Y-4463500D02*
X11448500Y-4553500D01*
X11448500Y-4717500D02*
X11538500Y-4807500D01*
X11538500Y-4717500D02*
X11448500Y-4807500D01*
X11448500Y-4971500D02*
X11538500Y-5061500D01*
X11538500Y-4971500D02*
X11448500Y-5061500D01*
X11448500Y-5225500D02*
X11538500Y-5315500D01*
X11538500Y-5225500D02*
X11448500Y-5315500D01*
X11448500Y-5479500D02*
X11538500Y-5569500D01*
X11538500Y-5479500D02*
X11448500Y-5569500D01*
X11448500Y-5733500D02*
X11538500Y-5823500D01*
X11538500Y-5733500D02*
X11448500Y-5823500D01*
X11448500Y-5987500D02*
X11538500Y-6077500D01*
X11538500Y-5987500D02*
X11448500Y-6077500D01*
X11448500Y-6241500D02*
X11538500Y-6331500D01*
X11538500Y-6241500D02*
X11448500Y-6331500D01*
X11448500Y-6495500D02*
X11538500Y-6585500D01*
X11538500Y-6495500D02*
X11448500Y-6585500D01*
X11448500Y-6749500D02*
X11538500Y-6839500D01*
X11538500Y-6749500D02*
X11448500Y-6839500D01*
X11956500Y-2939500D02*
X12046500Y-3029500D01*
X12046500Y-2939500D02*
X11956500Y-3029500D01*
X11956500Y-3193500D02*
X12046500Y-3283500D01*
X12046500Y-3193500D02*
X11956500Y-3283500D01*
X11956500Y-3447500D02*
X12046500Y-3537500D01*
X12046500Y-3447500D02*
X11956500Y-3537500D01*
X11956500Y-3701500D02*
X12046500Y-3791500D01*
X12046500Y-3701500D02*
X11956500Y-3791500D01*
X11956500Y-3955500D02*
X12046500Y-4045500D01*
X12046500Y-3955500D02*
X11956500Y-4045500D01*
X11956500Y-4209500D02*
X12046500Y-4299500D01*
X12046500Y-4209500D02*
X11956500Y-4299500D01*
X11956500Y-4463500D02*
X12046500Y-4553500D01*
X12046500Y-4463500D02*
X11956500Y-4553500D01*
X11956500Y-4717500D02*
X12046500Y-4807500D01*
X12046500Y-4717500D02*
X11956500Y-4807500D01*
X11956500Y-4971500D02*
X12046500Y-5061500D01*
X12046500Y-4971500D02*
X11956500Y-5061500D01*
X11956500Y-5225500D02*
X12046500Y-5315500D01*
X12046500Y-5225500D02*
X11956500Y-5315500D01*
X11956500Y-5479500D02*
X12046500Y-5569500D01*
X12046500Y-5479500D02*
X11956500Y-5569500D01*
X11956500Y-5733500D02*
X12046500Y-5823500D01*
X12046500Y-5733500D02*
X11956500Y-5823500D01*
X11956500Y-5987500D02*
X12046500Y-6077500D01*
X12046500Y-5987500D02*
X11956500Y-6077500D01*
X11956500Y-6241500D02*
X12046500Y-6331500D01*
X12046500Y-6241500D02*
X11956500Y-6331500D01*
X11956500Y-6495500D02*
X12046500Y-6585500D01*
X12046500Y-6495500D02*
X11956500Y-6585500D01*
X11956500Y-6749500D02*
X12046500Y-6839500D01*
X12046500Y-6749500D02*
X11956500Y-6839500D01*
X12464500Y-2939500D02*
X12554500Y-3029500D01*
X12554500Y-2939500D02*
X12464500Y-3029500D01*
X12464500Y-3193500D02*
X12554500Y-3283500D01*
X12554500Y-3193500D02*
X12464500Y-3283500D01*
X12464500Y-3447500D02*
X12554500Y-3537500D01*
X12554500Y-3447500D02*
X12464500Y-3537500D01*
X12464500Y-3701500D02*
X12554500Y-3791500D01*
X12554500Y-3701500D02*
X12464500Y-3791500D01*
X12464500Y-3955500D02*
X12554500Y-4045500D01*
X12554500Y-3955500D02*
X12464500Y-4045500D01*
X12464500Y-4209500D02*
X12554500Y-4299500D01*
X12554500Y-4209500D02*
X12464500Y-4299500D01*
X12464500Y-4463500D02*
X12554500Y-4553500D01*
X12554500Y-4463500D02*
X12464500Y-4553500D01*
X12464500Y-4717500D02*
X12554500Y-4807500D01*
X12554500Y-4717500D02*
X12464500Y-4807500D01*
X12464500Y-4971500D02*
X12554500Y-5061500D01*
X12554500Y-4971500D02*
X12464500Y-5061500D01*
X12464500Y-5225500D02*
X12554500Y-5315500D01*
X12554500Y-5225500D02*
X12464500Y-5315500D01*
X12464500Y-5479500D02*
X12554500Y-5569500D01*
X12554500Y-5479500D02*
X12464500Y-5569500D01*
X12464500Y-5733500D02*
X12554500Y-5823500D01*
X12554500Y-5733500D02*
X12464500Y-5823500D01*
X12464500Y-5987500D02*
X12554500Y-6077500D01*
X12554500Y-5987500D02*
X12464500Y-6077500D01*
X12464500Y-6241500D02*
X12554500Y-6331500D01*
X12554500Y-6241500D02*
X12464500Y-6331500D01*
X12464500Y-6495500D02*
X12554500Y-6585500D01*
X12554500Y-6495500D02*
X12464500Y-6585500D01*
X12464500Y-6749500D02*
X12554500Y-6839500D01*
X12554500Y-6749500D02*
X12464500Y-6839500D01*
X12972500Y-2939500D02*
X13062500Y-3029500D01*
X13062500Y-2939500D02*
X12972500Y-3029500D01*
X12972500Y-3193500D02*
X13062500Y-3283500D01*
X13062500Y-3193500D02*
X12972500Y-3283500D01*
X12972500Y-3447500D02*
X13062500Y-3537500D01*
X13062500Y-3447500D02*
X12972500Y-3537500D01*
X12972500Y-3701500D02*
X13062500Y-3791500D01*
X13062500Y-3701500D02*
X12972500Y-3791500D01*
X12972500Y-3955500D02*
X13062500Y-4045500D01*
X13062500Y-3955500D02*
X12972500Y-4045500D01*
X12972500Y-4209500D02*
X13062500Y-4299500D01*
X13062500Y-4209500D02*
X12972500Y-4299500D01*
X12972500Y-4463500D02*
X13062500Y-4553500D01*
X13062500Y-4463500D02*
X12972500Y-4553500D01*
X12972500Y-4717500D02*
X13062500Y-4807500D01*
X13062500Y-4717500D02*
X12972500Y-4807500D01*
X12972500Y-4971500D02*
X13062500Y-5061500D01*
X13062500Y-4971500D02*
X12972500Y-5061500D01*
X12972500Y-5225500D02*
X13062500Y-5315500D01*
X13062500Y-5225500D02*
X12972500Y-5315500D01*
X12972500Y-5479500D02*
X13062500Y-5569500D01*
X13062500Y-5479500D02*
X12972500Y-5569500D01*
X12972500Y-5733500D02*
X13062500Y-5823500D01*
X13062500Y-5733500D02*
X12972500Y-5823500D01*
X12972500Y-5987500D02*
X13062500Y-6077500D01*
X13062500Y-5987500D02*
X12972500Y-6077500D01*
X12972500Y-6241500D02*
X13062500Y-6331500D01*
X13062500Y-6241500D02*
X12972500Y-6331500D01*
X12972500Y-6495500D02*
X13062500Y-6585500D01*
X13062500Y-6495500D02*
X12972500Y-6585500D01*
X12972500Y-6749500D02*
X13062500Y-6839500D01*
X13062500Y-6749500D02*
X12972500Y-6839500D01*
X13480500Y-2939500D02*
X13570500Y-3029500D01*
X13570500Y-2939500D02*
X13480500Y-3029500D01*
X13480500Y-3193500D02*
X13570500Y-3283500D01*
X13570500Y-3193500D02*
X13480500Y-3283500D01*
X13480500Y-3447500D02*
X13570500Y-3537500D01*
X13570500Y-3447500D02*
X13480500Y-3537500D01*
X13480500Y-3701500D02*
X13570500Y-3791500D01*
X13570500Y-3701500D02*
X13480500Y-3791500D01*
X13480500Y-3955500D02*
X13570500Y-4045500D01*
X13570500Y-3955500D02*
X13480500Y-4045500D01*
X13480500Y-4209500D02*
X13570500Y-4299500D01*
X13570500Y-4209500D02*
X13480500Y-4299500D01*
X13480500Y-4463500D02*
X13570500Y-4553500D01*
X13570500Y-4463500D02*
X13480500Y-4553500D01*
X13480500Y-4717500D02*
X13570500Y-4807500D01*
X13570500Y-4717500D02*
X13480500Y-4807500D01*
X13480500Y-4971500D02*
X13570500Y-5061500D01*
X13570500Y-4971500D02*
X13480500Y-5061500D01*
X13480500Y-5225500D02*
X13570500Y-5315500D01*
X13570500Y-5225500D02*
X13480500Y-5315500D01*
X13480500Y-5479500D02*
X13570500Y-5569500D01*
X13570500Y-5479500D02*
X13480500Y-5569500D01*
X13480500Y-5733500D02*
X13570500Y-5823500D01*
X13570500Y-5733500D02*
X13480500Y-5823500D01*
X13480500Y-5987500D02*
X13570500Y-6077500D01*
X13570500Y-5987500D02*
X13480500Y-6077500D01*
X13480500Y-6241500D02*
X13570500Y-6331500D01*
X13570500Y-6241500D02*
X13480500Y-6331500D01*
X13480500Y-6495500D02*
X13570500Y-6585500D01*
X13570500Y-6495500D02*
X13480500Y-6585500D01*
X13480500Y-6749500D02*
X13570500Y-6839500D01*
X13570500Y-6749500D02*
X13480500Y-6839500D01*
X13988500Y-2939500D02*
X14078500Y-3029500D01*
X14078500Y-2939500D02*
X13988500Y-3029500D01*
X13988500Y-3193500D02*
X14078500Y-3283500D01*
X14078500Y-3193500D02*
X13988500Y-3283500D01*
X13988500Y-3447500D02*
X14078500Y-3537500D01*
X14078500Y-3447500D02*
X13988500Y-3537500D01*
X13988500Y-3701500D02*
X14078500Y-3791500D01*
X14078500Y-3701500D02*
X13988500Y-3791500D01*
X13988500Y-3955500D02*
X14078500Y-4045500D01*
X14078500Y-3955500D02*
X13988500Y-4045500D01*
X13988500Y-4209500D02*
X14078500Y-4299500D01*
X14078500Y-4209500D02*
X13988500Y-4299500D01*
X13988500Y-4463500D02*
X14078500Y-4553500D01*
X14078500Y-4463500D02*
X13988500Y-4553500D01*
X13988500Y-4717500D02*
X14078500Y-4807500D01*
X14078500Y-4717500D02*
X13988500Y-4807500D01*
X13988500Y-4971500D02*
X14078500Y-5061500D01*
X14078500Y-4971500D02*
X13988500Y-5061500D01*
X13988500Y-5225500D02*
X14078500Y-5315500D01*
X14078500Y-5225500D02*
X13988500Y-5315500D01*
X13988500Y-5479500D02*
X14078500Y-5569500D01*
X14078500Y-5479500D02*
X13988500Y-5569500D01*
X13988500Y-5733500D02*
X14078500Y-5823500D01*
X14078500Y-5733500D02*
X13988500Y-5823500D01*
X13988500Y-5987500D02*
X14078500Y-6077500D01*
X14078500Y-5987500D02*
X13988500Y-6077500D01*
X13988500Y-6241500D02*
X14078500Y-6331500D01*
X14078500Y-6241500D02*
X13988500Y-6331500D01*
X13988500Y-6495500D02*
X14078500Y-6585500D01*
X14078500Y-6495500D02*
X13988500Y-6585500D01*
X13988500Y-6749500D02*
X14078500Y-6839500D01*
X14078500Y-6749500D02*
X13988500Y-6839500D01*
X14496500Y-2939500D02*
X14586500Y-3029500D01*
X14586500Y-2939500D02*
X14496500Y-3029500D01*
X14496500Y-3193500D02*
X14586500Y-3283500D01*
X14586500Y-3193500D02*
X14496500Y-3283500D01*
X14496500Y-3447500D02*
X14586500Y-3537500D01*
X14586500Y-3447500D02*
X14496500Y-3537500D01*
X14496500Y-3701500D02*
X14586500Y-3791500D01*
X14586500Y-3701500D02*
X14496500Y-3791500D01*
X14496500Y-3955500D02*
X14586500Y-4045500D01*
X14586500Y-3955500D02*
X14496500Y-4045500D01*
X14496500Y-4209500D02*
X14586500Y-4299500D01*
X14586500Y-4209500D02*
X14496500Y-4299500D01*
X14496500Y-4463500D02*
X14586500Y-4553500D01*
X14586500Y-4463500D02*
X14496500Y-4553500D01*
X14496500Y-4717500D02*
X14586500Y-4807500D01*
X14586500Y-4717500D02*
X14496500Y-4807500D01*
X14496500Y-4971500D02*
X14586500Y-5061500D01*
X14586500Y-4971500D02*
X14496500Y-5061500D01*
X14496500Y-5225500D02*
X14586500Y-5315500D01*
X14586500Y-5225500D02*
X14496500Y-5315500D01*
X14496500Y-5479500D02*
X14586500Y-5569500D01*
X14586500Y-5479500D02*
X14496500Y-5569500D01*
X14496500Y-5733500D02*
X14586500Y-5823500D01*
X14586500Y-5733500D02*
X14496500Y-5823500D01*
X14496500Y-5987500D02*
X14586500Y-6077500D01*
X14586500Y-5987500D02*
X14496500Y-6077500D01*
X14496500Y-6241500D02*
X14586500Y-6331500D01*
X14586500Y-6241500D02*
X14496500Y-6331500D01*
X14496500Y-6495500D02*
X14586500Y-6585500D01*
X14586500Y-6495500D02*
X14496500Y-6585500D01*
X14496500Y-6749500D02*
X14586500Y-6839500D01*
X14586500Y-6749500D02*
X14496500Y-6839500D01*
X15004500Y-2939500D02*
X15094500Y-3029500D01*
X15094500Y-2939500D02*
X15004500Y-3029500D01*
X15004500Y-3193500D02*
X15094500Y-3283500D01*
X15094500Y-3193500D02*
X15004500Y-3283500D01*
X15004500Y-3447500D02*
X15094500Y-3537500D01*
X15094500Y-3447500D02*
X15004500Y-3537500D01*
X15004500Y-3701500D02*
X15094500Y-3791500D01*
X15094500Y-3701500D02*
X15004500Y-3791500D01*
X15004500Y-3955500D02*
X15094500Y-4045500D01*
X15094500Y-3955500D02*
X15004500Y-4045500D01*
X15004500Y-4209500D02*
X15094500Y-4299500D01*
X15094500Y-4209500D02*
X15004500Y-4299500D01*
X15004500Y-4463500D02*
X15094500Y-4553500D01*
X15094500Y-4463500D02*
X15004500Y-4553500D01*
X15004500Y-4717500D02*
X15094500Y-4807500D01*
X15094500Y-4717500D02*
X15004500Y-4807500D01*
X15004500Y-4971500D02*
X15094500Y-5061500D01*
X15094500Y-4971500D02*
X15004500Y-5061500D01*
X15004500Y-5225500D02*
X15094500Y-5315500D01*
X15094500Y-5225500D02*
X15004500Y-5315500D01*
X15004500Y-5479500D02*
X15094500Y-5569500D01*
X15094500Y-5479500D02*
X15004500Y-5569500D01*
X15004500Y-5733500D02*
X15094500Y-5823500D01*
X15094500Y-5733500D02*
X15004500Y-5823500D01*
X15004500Y-5987500D02*
X15094500Y-6077500D01*
X15094500Y-5987500D02*
X15004500Y-6077500D01*
X15004500Y-6241500D02*
X15094500Y-6331500D01*
X15094500Y-6241500D02*
X15004500Y-6331500D01*
X15004500Y-6495500D02*
X15094500Y-6585500D01*
X15094500Y-6495500D02*
X15004500Y-6585500D01*
X15004500Y-6749500D02*
X15094500Y-6839500D01*
X15094500Y-6749500D02*
X15004500Y-6839500D01*
X15512500Y-2939500D02*
X15602500Y-3029500D01*
X15602500Y-2939500D02*
X15512500Y-3029500D01*
X15512500Y-3193500D02*
X15602500Y-3283500D01*
X15602500Y-3193500D02*
X15512500Y-3283500D01*
X15512500Y-3447500D02*
X15602500Y-3537500D01*
X15602500Y-3447500D02*
X15512500Y-3537500D01*
X15512500Y-3701500D02*
X15602500Y-3791500D01*
X15602500Y-3701500D02*
X15512500Y-3791500D01*
X15512500Y-3955500D02*
X15602500Y-4045500D01*
X15602500Y-3955500D02*
X15512500Y-4045500D01*
X15512500Y-4209500D02*
X15602500Y-4299500D01*
X15602500Y-4209500D02*
X15512500Y-4299500D01*
X15512500Y-4463500D02*
X15602500Y-4553500D01*
X15602500Y-4463500D02*
X15512500Y-4553500D01*
X15512500Y-4717500D02*
X15602500Y-4807500D01*
X15602500Y-4717500D02*
X15512500Y-4807500D01*
X15512500Y-4971500D02*
X15602500Y-5061500D01*
X15602500Y-4971500D02*
X15512500Y-5061500D01*
X15512500Y-5225500D02*
X15602500Y-5315500D01*
X15602500Y-5225500D02*
X15512500Y-5315500D01*
X15512500Y-5479500D02*
X15602500Y-5569500D01*
X15602500Y-5479500D02*
X15512500Y-5569500D01*
X15512500Y-5733500D02*
X15602500Y-5823500D01*
X15602500Y-5733500D02*
X15512500Y-5823500D01*
X15512500Y-5987500D02*
X15602500Y-6077500D01*
X15602500Y-5987500D02*
X15512500Y-6077500D01*
X15512500Y-6241500D02*
X15602500Y-6331500D01*
X15602500Y-6241500D02*
X15512500Y-6331500D01*
X15512500Y-6495500D02*
X15602500Y-6585500D01*
X15602500Y-6495500D02*
X15512500Y-6585500D01*
X15512500Y-6749500D02*
X15602500Y-6839500D01*
X15602500Y-6749500D02*
X15512500Y-6839500D01*
X16020500Y-2939500D02*
X16110500Y-3029500D01*
X16110500Y-2939500D02*
X16020500Y-3029500D01*
X16020500Y-3193500D02*
X16110500Y-3283500D01*
X16110500Y-3193500D02*
X16020500Y-3283500D01*
X16020500Y-3447500D02*
X16110500Y-3537500D01*
X16110500Y-3447500D02*
X16020500Y-3537500D01*
X16020500Y-3701500D02*
X16110500Y-3791500D01*
X16110500Y-3701500D02*
X16020500Y-3791500D01*
X16020500Y-3955500D02*
X16110500Y-4045500D01*
X16110500Y-3955500D02*
X16020500Y-4045500D01*
X16020500Y-4209500D02*
X16110500Y-4299500D01*
X16110500Y-4209500D02*
X16020500Y-4299500D01*
X16020500Y-4463500D02*
X16110500Y-4553500D01*
X16110500Y-4463500D02*
X16020500Y-4553500D01*
X16020500Y-4717500D02*
X16110500Y-4807500D01*
X16110500Y-4717500D02*
X16020500Y-4807500D01*
X16020500Y-4971500D02*
X16110500Y-5061500D01*
X16110500Y-4971500D02*
X16020500Y-5061500D01*
X16020500Y-5225500D02*
X16110500Y-5315500D01*
X16110500Y-5225500D02*
X16020500Y-5315500D01*
X16020500Y-5479500D02*
X16110500Y-5569500D01*
X16110500Y-5479500D02*
X16020500Y-5569500D01*
X16020500Y-5733500D02*
X16110500Y-5823500D01*
X16110500Y-5733500D02*
X16020500Y-5823500D01*
X16020500Y-5987500D02*
X16110500Y-6077500D01*
X16110500Y-5987500D02*
X16020500Y-6077500D01*
X16020500Y-6241500D02*
X16110500Y-6331500D01*
X16110500Y-6241500D02*
X16020500Y-6331500D01*
X16020500Y-6495500D02*
X16110500Y-6585500D01*
X16110500Y-6495500D02*
X16020500Y-6585500D01*
X16020500Y-6749500D02*
X16110500Y-6839500D01*
X16110500Y-6749500D02*
X16020500Y-6839500D01*
X16528500Y-2939500D02*
X16618500Y-3029500D01*
X16618500Y-2939500D02*
X16528500Y-3029500D01*
X16528500Y-3193500D02*
X16618500Y-3283500D01*
X16618500Y-3193500D02*
X16528500Y-3283500D01*
X16528500Y-3447500D02*
X16618500Y-3537500D01*
X16618500Y-3447500D02*
X16528500Y-3537500D01*
X16528500Y-3701500D02*
X16618500Y-3791500D01*
X16618500Y-3701500D02*
X16528500Y-3791500D01*
X16528500Y-3955500D02*
X16618500Y-4045500D01*
X16618500Y-3955500D02*
X16528500Y-4045500D01*
X16528500Y-4209500D02*
X16618500Y-4299500D01*
X16618500Y-4209500D02*
X16528500Y-4299500D01*
X16528500Y-4463500D02*
X16618500Y-4553500D01*
X16618500Y-4463500D02*
X16528500Y-4553500D01*
X16528500Y-4717500D02*
X16618500Y-4807500D01*
X16618500Y-4717500D02*
X16528500Y-4807500D01*
X16528500Y-4971500D02*
X16618500Y-5061500D01*
X16618500Y-4971500D02*
X16528500Y-5061500D01*
X16528500Y-5225500D02*
X16618500Y-5315500D01*
X16618500Y-5225500D02*
X16528500Y-5315500D01*
X16528500Y-5479500D02*
X16618500Y-5569500D01*
X16618500Y-5479500D02*
X16528500Y-5569500D01*
X16528500Y-5733500D02*
X16618500Y-5823500D01*
X16618500Y-5733500D02*
X16528500Y-5823500D01*
X16528500Y-5987500D02*
X16618500Y-6077500D01*
X16618500Y-5987500D02*
X16528500Y-6077500D01*
X16528500Y-6241500D02*
X16618500Y-6331500D01*
X16618500Y-6241500D02*
X16528500Y-6331500D01*
X16528500Y-6495500D02*
X16618500Y-6585500D01*
X16618500Y-6495500D02*
X16528500Y-6585500D01*
X16528500Y-6749500D02*
X16618500Y-6839500D01*
X16618500Y-6749500D02*
X16528500Y-6839500D01*
X17036500Y-2939500D02*
X17126500Y-3029500D01*
X17126500Y-2939500D02*
X17036500Y-3029500D01*
X17036500Y-3193500D02*
X17126500Y-3283500D01*
X17126500Y-3193500D02*
X17036500Y-3283500D01*
X17036500Y-3447500D02*
X17126500Y-3537500D01*
X17126500Y-3447500D02*
X17036500Y-3537500D01*
X17036500Y-3701500D02*
X17126500Y-3791500D01*
X17126500Y-3701500D02*
X17036500Y-3791500D01*
X17036500Y-3955500D02*
X17126500Y-4045500D01*
X17126500Y-3955500D02*
X17036500Y-4045500D01*
X17036500Y-4209500D02*
X17126500Y-4299500D01*
X17126500Y-4209500D02*
X17036500Y-4299500D01*
X17036500Y-4463500D02*
X17126500Y-4553500D01*
X17126500Y-4463500D02*
X17036500Y-4553500D01*
X17036500Y-4717500D02*
X17126500Y-4807500D01*
X17126500Y-4717500D02*
X17036500Y-4807500D01*
X17036500Y-4971500D02*
X17126500Y-5061500D01*
X17126500Y-4971500D02*
X17036500Y-5061500D01*
X17036500Y-5225500D02*
X17126500Y-5315500D01*
X17126500Y-5225500D02*
X17036500Y-5315500D01*
X17036500Y-5479500D02*
X17126500Y-5569500D01*
X17126500Y-5479500D02*
X17036500Y-5569500D01*
X17036500Y-5733500D02*
X17126500Y-5823500D01*
X17126500Y-5733500D02*
X17036500Y-5823500D01*
X17036500Y-5987500D02*
X17126500Y-6077500D01*
X17126500Y-5987500D02*
X17036500Y-6077500D01*
X17036500Y-6241500D02*
X17126500Y-6331500D01*
X17126500Y-6241500D02*
X17036500Y-6331500D01*
X17036500Y-6495500D02*
X17126500Y-6585500D01*
X17126500Y-6495500D02*
X17036500Y-6585500D01*
X17036500Y-6749500D02*
X17126500Y-6839500D01*
X17126500Y-6749500D02*
X17036500Y-6839500D01*
X17544500Y-2939500D02*
X17634500Y-3029500D01*
X17634500Y-2939500D02*
X17544500Y-3029500D01*
X17544500Y-3193500D02*
X17634500Y-3283500D01*
X17634500Y-3193500D02*
X17544500Y-3283500D01*
X17544500Y-3447500D02*
X17634500Y-3537500D01*
X17634500Y-3447500D02*
X17544500Y-3537500D01*
X17544500Y-3701500D02*
X17634500Y-3791500D01*
X17634500Y-3701500D02*
X17544500Y-3791500D01*
X17544500Y-3955500D02*
X17634500Y-4045500D01*
X17634500Y-3955500D02*
X17544500Y-4045500D01*
X17544500Y-4209500D02*
X17634500Y-4299500D01*
X17634500Y-4209500D02*
X17544500Y-4299500D01*
X17544500Y-4463500D02*
X17634500Y-4553500D01*
X17634500Y-4463500D02*
X17544500Y-4553500D01*
X17544500Y-4717500D02*
X17634500Y-4807500D01*
X17634500Y-4717500D02*
X17544500Y-4807500D01*
X17544500Y-4971500D02*
X17634500Y-5061500D01*
X17634500Y-4971500D02*
X17544500Y-5061500D01*
X17544500Y-5225500D02*
X17634500Y-5315500D01*
X17634500Y-5225500D02*
X17544500Y-5315500D01*
X17544500Y-5479500D02*
X17634500Y-5569500D01*
X17634500Y-5479500D02*
X17544500Y-5569500D01*
X17544500Y-5733500D02*
X17634500Y-5823500D01*
X17634500Y-5733500D02*
X17544500Y-5823500D01*
X17544500Y-5987500D02*
X17634500Y-6077500D01*
X17634500Y-5987500D02*
X17544500Y-6077500D01*
X17544500Y-6241500D02*
X17634500Y-6331500D01*
X17634500Y-6241500D02*
X17544500Y-6331500D01*
X17544500Y-6495500D02*
X17634500Y-6585500D01*
X17634500Y-6495500D02*
X17544500Y-6585500D01*
X17544500Y-6749500D02*
X17634500Y-6839500D01*
X17634500Y-6749500D02*
X17544500Y-6839500D01*
X18052500Y-2939500D02*
X18142500Y-3029500D01*
X18142500Y-2939500D02*
X18052500Y-3029500D01*
X18052500Y-3193500D02*
X18142500Y-3283500D01*
X18142500Y-3193500D02*
X18052500Y-3283500D01*
X18052500Y-3447500D02*
X18142500Y-3537500D01*
X18142500Y-3447500D02*
X18052500Y-3537500D01*
X18052500Y-3701500D02*
X18142500Y-3791500D01*
X18142500Y-3701500D02*
X18052500Y-3791500D01*
X18052500Y-3955500D02*
X18142500Y-4045500D01*
X18142500Y-3955500D02*
X18052500Y-4045500D01*
X18052500Y-4209500D02*
X18142500Y-4299500D01*
X18142500Y-4209500D02*
X18052500Y-4299500D01*
X18052500Y-4463500D02*
X18142500Y-4553500D01*
X18142500Y-4463500D02*
X18052500Y-4553500D01*
X18052500Y-4717500D02*
X18142500Y-4807500D01*
X18142500Y-4717500D02*
X18052500Y-4807500D01*
X18052500Y-4971500D02*
X18142500Y-5061500D01*
X18142500Y-4971500D02*
X18052500Y-5061500D01*
X18052500Y-5225500D02*
X18142500Y-5315500D01*
X18142500Y-5225500D02*
X18052500Y-5315500D01*
X18052500Y-5479500D02*
X18142500Y-5569500D01*
X18142500Y-5479500D02*
X18052500Y-5569500D01*
X18052500Y-5733500D02*
X18142500Y-5823500D01*
X18142500Y-5733500D02*
X18052500Y-5823500D01*
X18052500Y-5987500D02*
X18142500Y-6077500D01*
X18142500Y-5987500D02*
X18052500Y-6077500D01*
X18052500Y-6241500D02*
X18142500Y-6331500D01*
X18142500Y-6241500D02*
X18052500Y-6331500D01*
X18052500Y-6495500D02*
X18142500Y-6585500D01*
X18142500Y-6495500D02*
X18052500Y-6585500D01*
X18052500Y-6749500D02*
X18142500Y-6839500D01*
X18142500Y-6749500D02*
X18052500Y-6839500D01*
X18560500Y-2939500D02*
X18650500Y-3029500D01*
X18650500Y-2939500D02*
X18560500Y-3029500D01*
X18560500Y-3193500D02*
X18650500Y-3283500D01*
X18650500Y-3193500D02*
X18560500Y-3283500D01*
X18560500Y-3447500D02*
X18650500Y-3537500D01*
X18650500Y-3447500D02*
X18560500Y-3537500D01*
X18560500Y-3701500D02*
X18650500Y-3791500D01*
X18650500Y-3701500D02*
X18560500Y-3791500D01*
X18560500Y-3955500D02*
X18650500Y-4045500D01*
X18650500Y-3955500D02*
X18560500Y-4045500D01*
X18560500Y-4209500D02*
X18650500Y-4299500D01*
X18650500Y-4209500D02*
X18560500Y-4299500D01*
X18560500Y-4463500D02*
X18650500Y-4553500D01*
X18650500Y-4463500D02*
X18560500Y-4553500D01*
X18560500Y-4717500D02*
X18650500Y-4807500D01*
X18650500Y-4717500D02*
X18560500Y-4807500D01*
X18560500Y-4971500D02*
X18650500Y-5061500D01*
X18650500Y-4971500D02*
X18560500Y-5061500D01*
X18560500Y-5225500D02*
X18650500Y-5315500D01*
X18650500Y-5225500D02*
X18560500Y-5315500D01*
X18560500Y-5479500D02*
X18650500Y-5569500D01*
X18650500Y-5479500D02*
X18560500Y-5569500D01*
X18560500Y-5733500D02*
X18650500Y-5823500D01*
X18650500Y-5733500D02*
X18560500Y-5823500D01*
X18560500Y-5987500D02*
X18650500Y-6077500D01*
X18650500Y-5987500D02*
X18560500Y-6077500D01*
X18560500Y-6241500D02*
X18650500Y-6331500D01*
X18650500Y-6241500D02*
X18560500Y-6331500D01*
X18560500Y-6495500D02*
X18650500Y-6585500D01*
X18650500Y-6495500D02*
X18560500Y-6585500D01*
X18560500Y-6749500D02*
X18650500Y-6839500D01*
X18650500Y-6749500D02*
X18560500Y-6839500D01*
X19068500Y-2939500D02*
X19158500Y-3029500D01*
X19158500Y-2939500D02*
X19068500Y-3029500D01*
X19068500Y-3193500D02*
X19158500Y-3283500D01*
X19158500Y-3193500D02*
X19068500Y-3283500D01*
X19068500Y-3447500D02*
X19158500Y-3537500D01*
X19158500Y-3447500D02*
X19068500Y-3537500D01*
X19068500Y-3701500D02*
X19158500Y-3791500D01*
X19158500Y-3701500D02*
X19068500Y-3791500D01*
X19068500Y-3955500D02*
X19158500Y-4045500D01*
X19158500Y-3955500D02*
X19068500Y-4045500D01*
X19068500Y-4209500D02*
X19158500Y-4299500D01*
X19158500Y-4209500D02*
X19068500Y-4299500D01*
X19068500Y-4463500D02*
X19158500Y-4553500D01*
X19158500Y-4463500D02*
X19068500Y-4553500D01*
X19068500Y-4717500D02*
X19158500Y-4807500D01*
X19158500Y-4717500D02*
X19068500Y-4807500D01*
X19068500Y-4971500D02*
X19158500Y-5061500D01*
X19158500Y-4971500D02*
X19068500Y-5061500D01*
X19068500Y-5225500D02*
X19158500Y-5315500D01*
X19158500Y-5225500D02*
X19068500Y-5315500D01*
X19068500Y-5479500D02*
X19158500Y-5569500D01*
X19158500Y-5479500D02*
X19068500Y-5569500D01*
X19068500Y-5733500D02*
X19158500Y-5823500D01*
X19158500Y-5733500D02*
X19068500Y-5823500D01*
X19068500Y-5987500D02*
X19158500Y-6077500D01*
X19158500Y-5987500D02*
X19068500Y-6077500D01*
X19068500Y-6241500D02*
X19158500Y-6331500D01*
X19158500Y-6241500D02*
X19068500Y-6331500D01*
X19068500Y-6495500D02*
X19158500Y-6585500D01*
X19158500Y-6495500D02*
X19068500Y-6585500D01*
X19068500Y-6749500D02*
X19158500Y-6839500D01*
X19158500Y-6749500D02*
X19068500Y-6839500D01*
X19576500Y-2939500D02*
X19666500Y-3029500D01*
X19666500Y-2939500D02*
X19576500Y-3029500D01*
X19576500Y-3193500D02*
X19666500Y-3283500D01*
X19666500Y-3193500D02*
X19576500Y-3283500D01*
X19576500Y-3447500D02*
X19666500Y-3537500D01*
X19666500Y-3447500D02*
X19576500Y-3537500D01*
X19576500Y-3701500D02*
X19666500Y-3791500D01*
X19666500Y-3701500D02*
X19576500Y-3791500D01*
X19576500Y-3955500D02*
X19666500Y-4045500D01*
X19666500Y-3955500D02*
X19576500Y-4045500D01*
X19576500Y-4209500D02*
X19666500Y-4299500D01*
X19666500Y-4209500D02*
X19576500Y-4299500D01*
X19576500Y-4463500D02*
X19666500Y-4553500D01*
X19666500Y-4463500D02*
X19576500Y-4553500D01*
X19576500Y-4717500D02*
X19666500Y-4807500D01*
X19666500Y-4717500D02*
X19576500Y-4807500D01*
X19576500Y-4971500D02*
X19666500Y-5061500D01*
X19666500Y-4971500D02*
X19576500Y-5061500D01*
X19576500Y-5225500D02*
X19666500Y-5315500D01*
X19666500Y-5225500D02*
X19576500Y-5315500D01*
X19576500Y-5479500D02*
X19666500Y-5569500D01*
X19666500Y-5479500D02*
X19576500Y-5569500D01*
X19576500Y-5733500D02*
X19666500Y-5823500D01*
X19666500Y-5733500D02*
X19576500Y-5823500D01*
X19576500Y-5987500D02*
X19666500Y-6077500D01*
X19666500Y-5987500D02*
X19576500Y-6077500D01*
X19576500Y-6241500D02*
X19666500Y-6331500D01*
X19666500Y-6241500D02*
X19576500Y-6331500D01*
X19576500Y-6495500D02*
X19666500Y-6585500D01*
X19666500Y-6495500D02*
X19576500Y-6585500D01*
X19576500Y-6749500D02*
X19666500Y-6839500D01*
X19666500Y-6749500D02*
X19576500Y-6839500D01*
X20084500Y-2939500D02*
X20174500Y-3029500D01*
X20174500Y-2939500D02*
X20084500Y-3029500D01*
X20084500Y-3193500D02*
X20174500Y-3283500D01*
X20174500Y-3193500D02*
X20084500Y-3283500D01*
X20084500Y-3447500D02*
X20174500Y-3537500D01*
X20174500Y-3447500D02*
X20084500Y-3537500D01*
X20084500Y-3701500D02*
X20174500Y-3791500D01*
X20174500Y-3701500D02*
X20084500Y-3791500D01*
X20084500Y-3955500D02*
X20174500Y-4045500D01*
X20174500Y-3955500D02*
X20084500Y-4045500D01*
X20084500Y-4209500D02*
X20174500Y-4299500D01*
X20174500Y-4209500D02*
X20084500Y-4299500D01*
X20084500Y-4463500D02*
X20174500Y-4553500D01*
X20174500Y-4463500D02*
X20084500Y-4553500D01*
X20084500Y-4717500D02*
X20174500Y-4807500D01*
X20174500Y-4717500D02*
X20084500Y-4807500D01*
X20084500Y-4971500D02*
X20174500Y-5061500D01*
X20174500Y-4971500D02*
X20084500Y-5061500D01*
X20084500Y-5225500D02*
X20174500Y-5315500D01*
X20174500Y-5225500D02*
X20084500Y-5315500D01*
X20084500Y-5479500D02*
X20174500Y-5569500D01*
X20174500Y-5479500D02*
X20084500Y-5569500D01*
X20084500Y-5733500D02*
X20174500Y-5823500D01*
X20174500Y-5733500D02*
X20084500Y-5823500D01*
X20084500Y-5987500D02*
X20174500Y-6077500D01*
X20174500Y-5987500D02*
X20084500Y-6077500D01*
X20084500Y-6241500D02*
X20174500Y-6331500D01*
X20174500Y-6241500D02*
X20084500Y-6331500D01*
X20084500Y-6495500D02*
X20174500Y-6585500D01*
X20174500Y-6495500D02*
X20084500Y-6585500D01*
X20084500Y-6749500D02*
X20174500Y-6839500D01*
X20174500Y-6749500D02*
X20084500Y-6839500D01*
X20592500Y-2939500D02*
X20682500Y-3029500D01*
X20682500Y-2939500D02*
X20592500Y-3029500D01*
X20592500Y-3193500D02*
X20682500Y-3283500D01*
X20682500Y-3193500D02*
X20592500Y-3283500D01*
X20592500Y-3447500D02*
X20682500Y-3537500D01*
X20682500Y-3447500D02*
X20592500Y-3537500D01*
X20592500Y-3701500D02*
X20682500Y-3791500D01*
X20682500Y-3701500D02*
X20592500Y-3791500D01*
X20592500Y-3955500D02*
X20682500Y-4045500D01*
X20682500Y-3955500D02*
X20592500Y-4045500D01*
X20592500Y-4209500D02*
X20682500Y-4299500D01*
X20682500Y-4209500D02*
X20592500Y-4299500D01*
X20592500Y-4463500D02*
X20682500Y-4553500D01*
X20682500Y-4463500D02*
X20592500Y-4553500D01*
X20592500Y-4717500D02*
X20682500Y-4807500D01*
X20682500Y-4717500D02*
X20592500Y-4807500D01*
X20592500Y-4971500D02*
X20682500Y-5061500D01*
X20682500Y-4971500D02*
X20592500Y-5061500D01*
X20592500Y-5225500D02*
X20682500Y-5315500D01*
X20682500Y-5225500D02*
X20592500Y-5315500D01*
X20592500Y-5479500D02*
X20682500Y-5569500D01*
X20682500Y-5479500D02*
X20592500Y-5569500D01*
X20592500Y-5733500D02*
X20682500Y-5823500D01*
X20682500Y-5733500D02*
X20592500Y-5823500D01*
X20592500Y-5987500D02*
X20682500Y-6077500D01*
X20682500Y-5987500D02*
X20592500Y-6077500D01*
X20592500Y-6241500D02*
X20682500Y-6331500D01*
X20682500Y-6241500D02*
X20592500Y-6331500D01*
X20592500Y-6495500D02*
X20682500Y-6585500D01*
X20682500Y-6495500D02*
X20592500Y-6585500D01*
X20592500Y-6749500D02*
X20682500Y-6839500D01*
X20682500Y-6749500D02*
X20592500Y-6839500D01*
X21100500Y-2939500D02*
X21190500Y-3029500D01*
X21190500Y-2939500D02*
X21100500Y-3029500D01*
X21100500Y-3193500D02*
X21190500Y-3283500D01*
X21190500Y-3193500D02*
X21100500Y-3283500D01*
X21100500Y-3447500D02*
X21190500Y-3537500D01*
X21190500Y-3447500D02*
X21100500Y-3537500D01*
X21100500Y-3701500D02*
X21190500Y-3791500D01*
X21190500Y-3701500D02*
X21100500Y-3791500D01*
X21100500Y-3955500D02*
X21190500Y-4045500D01*
X21190500Y-3955500D02*
X21100500Y-4045500D01*
X21100500Y-4209500D02*
X21190500Y-4299500D01*
X21190500Y-4209500D02*
X21100500Y-4299500D01*
X21100500Y-4463500D02*
X21190500Y-4553500D01*
X21190500Y-4463500D02*
X21100500Y-4553500D01*
X21100500Y-4717500D02*
X21190500Y-4807500D01*
X21190500Y-4717500D02*
X21100500Y-4807500D01*
X21100500Y-4971500D02*
X21190500Y-5061500D01*
X21190500Y-4971500D02*
X21100500Y-5061500D01*
X21100500Y-5225500D02*
X21190500Y-5315500D01*
X21190500Y-5225500D02*
X21100500Y-5315500D01*
X21100500Y-5479500D02*
X21190500Y-5569500D01*
X21190500Y-5479500D02*
X21100500Y-5569500D01*
X21100500Y-5733500D02*
X21190500Y-5823500D01*
X21190500Y-5733500D02*
X21100500Y-5823500D01*
X21100500Y-5987500D02*
X21190500Y-6077500D01*
X21190500Y-5987500D02*
X21100500Y-6077500D01*
X21100500Y-6241500D02*
X21190500Y-6331500D01*
X21190500Y-6241500D02*
X21100500Y-6331500D01*
X21100500Y-6495500D02*
X21190500Y-6585500D01*
X21190500Y-6495500D02*
X21100500Y-6585500D01*
X21100500Y-6749500D02*
X21190500Y-6839500D01*
X21190500Y-6749500D02*
X21100500Y-6839500D01*
X21608500Y-2939500D02*
X21698500Y-3029500D01*
X21698500Y-2939500D02*
X21608500Y-3029500D01*
X21608500Y-3193500D02*
X21698500Y-3283500D01*
X21698500Y-3193500D02*
X21608500Y-3283500D01*
X21608500Y-3447500D02*
X21698500Y-3537500D01*
X21698500Y-3447500D02*
X21608500Y-3537500D01*
X21608500Y-3701500D02*
X21698500Y-3791500D01*
X21698500Y-3701500D02*
X21608500Y-3791500D01*
X21608500Y-3955500D02*
X21698500Y-4045500D01*
X21698500Y-3955500D02*
X21608500Y-4045500D01*
X21608500Y-4209500D02*
X21698500Y-4299500D01*
X21698500Y-4209500D02*
X21608500Y-4299500D01*
X21608500Y-4463500D02*
X21698500Y-4553500D01*
X21698500Y-4463500D02*
X21608500Y-4553500D01*
X21608500Y-4717500D02*
X21698500Y-4807500D01*
X21698500Y-4717500D02*
X21608500Y-4807500D01*
X21608500Y-4971500D02*
X21698500Y-5061500D01*
X21698500Y-4971500D02*
X21608500Y-5061500D01*
X21608500Y-5225500D02*
X21698500Y-5315500D01*
X21698500Y-5225500D02*
X21608500Y-5315500D01*
X21608500Y-5479500D02*
X21698500Y-5569500D01*
X21698500Y-5479500D02*
X21608500Y-5569500D01*
X21608500Y-5733500D02*
X21698500Y-5823500D01*
X21698500Y-5733500D02*
X21608500Y-5823500D01*
X21608500Y-5987500D02*
X21698500Y-6077500D01*
X21698500Y-5987500D02*
X21608500Y-6077500D01*
X21608500Y-6241500D02*
X21698500Y-6331500D01*
X21698500Y-6241500D02*
X21608500Y-6331500D01*
X21608500Y-6495500D02*
X21698500Y-6585500D01*
X21698500Y-6495500D02*
X21608500Y-6585500D01*
X21608500Y-6749500D02*
X21698500Y-6839500D01*
X21698500Y-6749500D02*
X21608500Y-6839500D01*
X22116500Y-2939500D02*
X22206500Y-3029500D01*
X22206500Y-2939500D02*
X22116500Y-3029500D01*
X22116500Y-3193500D02*
X22206500Y-3283500D01*
X22206500Y-3193500D02*
X22116500Y-3283500D01*
X22116500Y-3447500D02*
X22206500Y-3537500D01*
X22206500Y-3447500D02*
X22116500Y-3537500D01*
X22116500Y-3701500D02*
X22206500Y-3791500D01*
X22206500Y-3701500D02*
X22116500Y-3791500D01*
X22116500Y-3955500D02*
X22206500Y-4045500D01*
X22206500Y-3955500D02*
X22116500Y-4045500D01*
X22116500Y-4209500D02*
X22206500Y-4299500D01*
X22206500Y-4209500D02*
X22116500Y-4299500D01*
X22116500Y-4463500D02*
X22206500Y-4553500D01*
X22206500Y-4463500D02*
X22116500Y-4553500D01*
X22116500Y-4717500D02*
X22206500Y-4807500D01*
X22206500Y-4717500D02*
X22116500Y-4807500D01*
X22116500Y-4971500D02*
X22206500Y-5061500D01*
X22206500Y-4971500D02*
X22116500Y-5061500D01*
X22116500Y-5225500D02*
X22206500Y-5315500D01*
X22206500Y-5225500D02*
X22116500Y-5315500D01*
X22116500Y-5479500D02*
X22206500Y-5569500D01*
X22206500Y-5479500D02*
X22116500Y-5569500D01*
X22116500Y-5733500D02*
X22206500Y-5823500D01*
X22206500Y-5733500D02*
X22116500Y-5823500D01*
X22116500Y-5987500D02*
X22206500Y-6077500D01*
X22206500Y-5987500D02*
X22116500Y-6077500D01*
X22116500Y-6241500D02*
X22206500Y-6331500D01*
X22206500Y-6241500D02*
X22116500Y-6331500D01*
X22116500Y-6495500D02*
X22206500Y-6585500D01*
X22206500Y-6495500D02*
X22116500Y-6585500D01*
X22116500Y-6749500D02*
X22206500Y-6839500D01*
X22206500Y-6749500D02*
X22116500Y-6839500D01*
X22624500Y-2939500D02*
X22714500Y-3029500D01*
X22714500Y-2939500D02*
X22624500Y-3029500D01*
X22624500Y-3193500D02*
X22714500Y-3283500D01*
X22714500Y-3193500D02*
X22624500Y-3283500D01*
X22624500Y-3447500D02*
X22714500Y-3537500D01*
X22714500Y-3447500D02*
X22624500Y-3537500D01*
X22624500Y-3701500D02*
X22714500Y-3791500D01*
X22714500Y-3701500D02*
X22624500Y-3791500D01*
X22624500Y-3955500D02*
X22714500Y-4045500D01*
X22714500Y-3955500D02*
X22624500Y-4045500D01*
X22624500Y-4209500D02*
X22714500Y-4299500D01*
X22714500Y-4209500D02*
X22624500Y-4299500D01*
X22624500Y-4463500D02*
X22714500Y-4553500D01*
X22714500Y-4463500D02*
X22624500Y-4553500D01*
X22624500Y-4717500D02*
X22714500Y-4807500D01*
X22714500Y-4717500D02*
X22624500Y-4807500D01*
X22624500Y-4971500D02*
X22714500Y-5061500D01*
X22714500Y-4971500D02*
X22624500Y-5061500D01*
X22624500Y-5225500D02*
X22714500Y-5315500D01*
X22714500Y-5225500D02*
X22624500Y-5315500D01*
X22624500Y-5479500D02*
X22714500Y-5569500D01*
X22714500Y-5479500D02*
X22624500Y-5569500D01*
X22624500Y-5733500D02*
X22714500Y-5823500D01*
X22714500Y-5733500D02*
X22624500Y-5823500D01*
X22624500Y-5987500D02*
X22714500Y-6077500D01*
X22714500Y-5987500D02*
X22624500Y-6077500D01*
X22624500Y-6241500D02*
X22714500Y-6331500D01*
X22714500Y-6241500D02*
X22624500Y-6331500D01*
X22624500Y-6495500D02*
X22714500Y-6585500D01*
X22714500Y-6495500D02*
X22624500Y-6585500D01*
X22624500Y-6749500D02*
X22714500Y-6839500D01*
X22714500Y-6749500D02*
X22624500Y-6839500D01*
X23132500Y-2939500D02*
X23222500Y-3029500D01*
X23222500Y-2939500D02*
X23132500Y-3029500D01*
X23132500Y-3193500D02*
X23222500Y-3283500D01*
X23222500Y-3193500D02*
X23132500Y-3283500D01*
X23132500Y-3447500D02*
X23222500Y-3537500D01*
X23222500Y-3447500D02*
X23132500Y-3537500D01*
X23132500Y-3701500D02*
X23222500Y-3791500D01*
X23222500Y-3701500D02*
X23132500Y-3791500D01*
X23132500Y-3955500D02*
X23222500Y-4045500D01*
X23222500Y-3955500D02*
X23132500Y-4045500D01*
X23132500Y-4209500D02*
X23222500Y-4299500D01*
X23222500Y-4209500D02*
X23132500Y-4299500D01*
X23132500Y-4463500D02*
X23222500Y-4553500D01*
X23222500Y-4463500D02*
X23132500Y-4553500D01*
X23132500Y-4717500D02*
X23222500Y-4807500D01*
X23222500Y-4717500D02*
X23132500Y-4807500D01*
X23132500Y-4971500D02*
X23222500Y-5061500D01*
X23222500Y-4971500D02*
X23132500Y-5061500D01*
X23132500Y-5225500D02*
X23222500Y-5315500D01*
X23222500Y-5225500D02*
X23132500Y-5315500D01*
X23132500Y-5479500D02*
X23222500Y-5569500D01*
X23222500Y-5479500D02*
X23132500Y-5569500D01*
X23132500Y-5733500D02*
X23222500Y-5823500D01*
X23222500Y-5733500D02*
X23132500Y-5823500D01*
X23132500Y-5987500D02*
X23222500Y-6077500D01*
X23222500Y-5987500D02*
X23132500Y-6077500D01*
X23132500Y-6241500D02*
X23222500Y-6331500D01*
X23222500Y-6241500D02*
X23132500Y-6331500D01*
X23132500Y-6495500D02*
X23222500Y-6585500D01*
X23222500Y-6495500D02*
X23132500Y-6585500D01*
X23132500Y-6749500D02*
X23222500Y-6839500D01*
X23222500Y-6749500D02*
X23132500Y-6839500D01*
X8341500Y-2349500D02*
G75*
G03*
X8341500Y-2349500I-60000J0D01*
G01*
X8691500Y-2349500D02*
G75*
G03*
X8691500Y-2349500I-60000J0D01*
G01*
X9041500Y-2349500D02*
G75*
G03*
X9041500Y-2349500I-60000J0D01*
G01*
X9391500Y-2349500D02*
G75*
G03*
X9391500Y-2349500I-60000J0D01*
G01*
X9741500Y-2349500D02*
G75*
G03*
X9741500Y-2349500I-60000J0D01*
G01*
X10091500Y-2349500D02*
G75*
G03*
X10091500Y-2349500I-60000J0D01*
G01*
X10441500Y-2349500D02*
G75*
G03*
X10441500Y-2349500I-60000J0D01*
G01*
X10791500Y-2349500D02*
G75*
G03*
X10791500Y-2349500I-60000J0D01*
G01*
X12405500Y-2349500D02*
G75*
G03*
X12405500Y-2349500I-60000J0D01*
G01*
X12755500Y-2349500D02*
G75*
G03*
X12755500Y-2349500I-60000J0D01*
G01*
X13105500Y-2349500D02*
G75*
G03*
X13105500Y-2349500I-60000J0D01*
G01*
X13455500Y-2349500D02*
G75*
G03*
X13455500Y-2349500I-60000J0D01*
G01*
X13805500Y-2349500D02*
G75*
G03*
X13805500Y-2349500I-60000J0D01*
G01*
X14155500Y-2349500D02*
G75*
G03*
X14155500Y-2349500I-60000J0D01*
G01*
X14505500Y-2349500D02*
G75*
G03*
X14505500Y-2349500I-60000J0D01*
G01*
X14855500Y-2349500D02*
G75*
G03*
X14855500Y-2349500I-60000J0D01*
G01*
X16469500Y-2349500D02*
G75*
G03*
X16469500Y-2349500I-60000J0D01*
G01*
X16819500Y-2349500D02*
G75*
G03*
X16819500Y-2349500I-60000J0D01*
G01*
X17169500Y-2349500D02*
G75*
G03*
X17169500Y-2349500I-60000J0D01*
G01*
X17519500Y-2349500D02*
G75*
G03*
X17519500Y-2349500I-60000J0D01*
G01*
X17869500Y-2349500D02*
G75*
G03*
X17869500Y-2349500I-60000J0D01*
G01*
X18219500Y-2349500D02*
G75*
G03*
X18219500Y-2349500I-60000J0D01*
G01*
X18569500Y-2349500D02*
G75*
G03*
X18569500Y-2349500I-60000J0D01*
G01*
X18919500Y-2349500D02*
G75*
G03*
X18919500Y-2349500I-60000J0D01*
G01*
X20533500Y-2349500D02*
G75*
G03*
X20533500Y-2349500I-60000J0D01*
G01*
X20883500Y-2349500D02*
G75*
G03*
X20883500Y-2349500I-60000J0D01*
G01*
X21233500Y-2349500D02*
G75*
G03*
X21233500Y-2349500I-60000J0D01*
G01*
X21583500Y-2349500D02*
G75*
G03*
X21583500Y-2349500I-60000J0D01*
G01*
X21933500Y-2349500D02*
G75*
G03*
X21933500Y-2349500I-60000J0D01*
G01*
X22283500Y-2349500D02*
G75*
G03*
X22283500Y-2349500I-60000J0D01*
G01*
X22633500Y-2349500D02*
G75*
G03*
X22633500Y-2349500I-60000J0D01*
G01*
X22983500Y-2349500D02*
G75*
G03*
X22983500Y-2349500I-60000J0D01*
G01*
X23999500Y-4344500D02*
G75*
G03*
X23999500Y-4344500I-60000J0D01*
G01*
X23999500Y-4694500D02*
G75*
G03*
X23999500Y-4694500I-60000J0D01*
G01*
X23999500Y-5044500D02*
G75*
G03*
X23999500Y-5044500I-60000J0D01*
G01*
X23999500Y-5394500D02*
G75*
G03*
X23999500Y-5394500I-60000J0D01*
G01*
X23999500Y-5744500D02*
G75*
G03*
X23999500Y-5744500I-60000J0D01*
G01*
X23999500Y-6094500D02*
G75*
G03*
X23999500Y-6094500I-60000J0D01*
G01*
X23999500Y-6444500D02*
G75*
G03*
X23999500Y-6444500I-60000J0D01*
G01*
X23999500Y-6794500D02*
G75*
G03*
X23999500Y-6794500I-60000J0D01*
G01*
D12*
X6566928Y-8536214D02*
X6566928Y-8236214D01*
X6638357Y-8236214D01*
X6681214Y-8250500D01*
X6709786Y-8279071D01*
X6724071Y-8307643D01*
X6738357Y-8364786D01*
X6738357Y-8407643D01*
X6724071Y-8464786D01*
X6709786Y-8493357D01*
X6681214Y-8521929D01*
X6638357Y-8536214D01*
X6566928Y-8536214D01*
X6866928Y-8536214D02*
X6866928Y-8336214D01*
X6866928Y-8393357D02*
X6881214Y-8364786D01*
X6895500Y-8350500D01*
X6924071Y-8336214D01*
X6952643Y-8336214D01*
X7052643Y-8536214D02*
X7052643Y-8336214D01*
X7052643Y-8236214D02*
X7038357Y-8250500D01*
X7052643Y-8264786D01*
X7066928Y-8250500D01*
X7052643Y-8236214D01*
X7052643Y-8264786D01*
X7238357Y-8536214D02*
X7209786Y-8521929D01*
X7195500Y-8493357D01*
X7195500Y-8236214D01*
X7395500Y-8536214D02*
X7366928Y-8521929D01*
X7352643Y-8493357D01*
X7352643Y-8236214D01*
X7738357Y-8536214D02*
X7738357Y-8236214D01*
X7838357Y-8450500D01*
X7938357Y-8236214D01*
X7938357Y-8536214D01*
X8209786Y-8536214D02*
X8209786Y-8379071D01*
X8195500Y-8350500D01*
X8166928Y-8336214D01*
X8109786Y-8336214D01*
X8081214Y-8350500D01*
X8209786Y-8521929D02*
X8181214Y-8536214D01*
X8109786Y-8536214D01*
X8081214Y-8521929D01*
X8066928Y-8493357D01*
X8066928Y-8464786D01*
X8081214Y-8436214D01*
X8109786Y-8421929D01*
X8181214Y-8421929D01*
X8209786Y-8407643D01*
X8352643Y-8336214D02*
X8352643Y-8636214D01*
X8352643Y-8350500D02*
X8381214Y-8336214D01*
X8438357Y-8336214D01*
X8466928Y-8350500D01*
X8481214Y-8364786D01*
X8495500Y-8393357D01*
X8495500Y-8479072D01*
X8481214Y-8507643D01*
X8466928Y-8521929D01*
X8438357Y-8536214D01*
X8381214Y-8536214D01*
X8352643Y-8521929D01*
X8624071Y-8507643D02*
X8638357Y-8521929D01*
X8624071Y-8536214D01*
X8609786Y-8521929D01*
X8624071Y-8507643D01*
X8624071Y-8536214D01*
X8624071Y-8350500D02*
X8638357Y-8364786D01*
X8624071Y-8379071D01*
X8609786Y-8364786D01*
X8624071Y-8350500D01*
X8624071Y-8379071D01*
X6190500Y-8985500D02*
X6280500Y-9075500D01*
X6280500Y-8985500D02*
X6190500Y-9075500D01*
X6624071Y-8866214D02*
X6652643Y-8866214D01*
X6681214Y-8880500D01*
X6695500Y-8894786D01*
X6709786Y-8923357D01*
X6724071Y-8980500D01*
X6724071Y-9051929D01*
X6709786Y-9109072D01*
X6695500Y-9137643D01*
X6681214Y-9151929D01*
X6652643Y-9166214D01*
X6624071Y-9166214D01*
X6595500Y-9151929D01*
X6581214Y-9137643D01*
X6566928Y-9109072D01*
X6552643Y-9051929D01*
X6552643Y-8980500D01*
X6566928Y-8923357D01*
X6581214Y-8894786D01*
X6595500Y-8880500D01*
X6624071Y-8866214D01*
X6852643Y-9137643D02*
X6866928Y-9151929D01*
X6852643Y-9166214D01*
X6838357Y-9151929D01*
X6852643Y-9137643D01*
X6852643Y-9166214D01*
X7009786Y-9166214D02*
X7066928Y-9166214D01*
X7095500Y-9151929D01*
X7109786Y-9137643D01*
X7138357Y-9094786D01*
X7152643Y-9037643D01*
X7152643Y-8923357D01*
X7138357Y-8894786D01*
X7124071Y-8880500D01*
X7095500Y-8866214D01*
X7038357Y-8866214D01*
X7009786Y-8880500D01*
X6995500Y-8894786D01*
X6981214Y-8923357D01*
X6981214Y-8994786D01*
X6995500Y-9023357D01*
X7009786Y-9037643D01*
X7038357Y-9051929D01*
X7095500Y-9051929D01*
X7124071Y-9037643D01*
X7138357Y-9023357D01*
X7152643Y-8994786D01*
X7338357Y-8866214D02*
X7366928Y-8866214D01*
X7395500Y-8880500D01*
X7409786Y-8894786D01*
X7424071Y-8923357D01*
X7438357Y-8980500D01*
X7438357Y-9051929D01*
X7424071Y-9109072D01*
X7409786Y-9137643D01*
X7395500Y-9151929D01*
X7366928Y-9166214D01*
X7338357Y-9166214D01*
X7309786Y-9151929D01*
X7295500Y-9137643D01*
X7281214Y-9109072D01*
X7266928Y-9051929D01*
X7266928Y-8980500D01*
X7281214Y-8923357D01*
X7295500Y-8894786D01*
X7309786Y-8880500D01*
X7338357Y-8866214D01*
X7624071Y-8866214D02*
X7652643Y-8866214D01*
X7681214Y-8880500D01*
X7695500Y-8894786D01*
X7709786Y-8923357D01*
X7724071Y-8980500D01*
X7724071Y-9051929D01*
X7709786Y-9109072D01*
X7695500Y-9137643D01*
X7681214Y-9151929D01*
X7652643Y-9166214D01*
X7624071Y-9166214D01*
X7595500Y-9151929D01*
X7581214Y-9137643D01*
X7566928Y-9109072D01*
X7552643Y-9051929D01*
X7552643Y-8980500D01*
X7566928Y-8923357D01*
X7581214Y-8894786D01*
X7595500Y-8880500D01*
X7624071Y-8866214D01*
X7852643Y-9166214D02*
X7852643Y-8966214D01*
X7852643Y-8994786D02*
X7866928Y-8980500D01*
X7895500Y-8966214D01*
X7938357Y-8966214D01*
X7966928Y-8980500D01*
X7981214Y-9009072D01*
X7981214Y-9166214D01*
X7981214Y-9009072D02*
X7995500Y-8980500D01*
X8024071Y-8966214D01*
X8066928Y-8966214D01*
X8095500Y-8980500D01*
X8109786Y-9009072D01*
X8109786Y-9166214D01*
X8252643Y-9166214D02*
X8252643Y-8966214D01*
X8252643Y-8994786D02*
X8266928Y-8980500D01*
X8295500Y-8966214D01*
X8338357Y-8966214D01*
X8366928Y-8980500D01*
X8381214Y-9009072D01*
X8381214Y-9166214D01*
X8381214Y-9009072D02*
X8395500Y-8980500D01*
X8424071Y-8966214D01*
X8466928Y-8966214D01*
X8495500Y-8980500D01*
X8509786Y-9009072D01*
X8509786Y-9166214D01*
X9095500Y-8851929D02*
X8838357Y-9237643D01*
X9481214Y-8866214D02*
X9509786Y-8866214D01*
X9538357Y-8880500D01*
X9552643Y-8894786D01*
X9566928Y-8923357D01*
X9581214Y-8980500D01*
X9581214Y-9051929D01*
X9566928Y-9109072D01*
X9552643Y-9137643D01*
X9538357Y-9151929D01*
X9509786Y-9166214D01*
X9481214Y-9166214D01*
X9452643Y-9151929D01*
X9438357Y-9137643D01*
X9424071Y-9109072D01*
X9409786Y-9051929D01*
X9409786Y-8980500D01*
X9424071Y-8923357D01*
X9438357Y-8894786D01*
X9452643Y-8880500D01*
X9481214Y-8866214D01*
X9709786Y-9137643D02*
X9724071Y-9151929D01*
X9709786Y-9166214D01*
X9695500Y-9151929D01*
X9709786Y-9137643D01*
X9709786Y-9166214D01*
X9909786Y-8866214D02*
X9938357Y-8866214D01*
X9966928Y-8880500D01*
X9981214Y-8894786D01*
X9995500Y-8923357D01*
X10009786Y-8980500D01*
X10009786Y-9051929D01*
X9995500Y-9109072D01*
X9981214Y-9137643D01*
X9966928Y-9151929D01*
X9938357Y-9166214D01*
X9909786Y-9166214D01*
X9881214Y-9151929D01*
X9866928Y-9137643D01*
X9852643Y-9109072D01*
X9838357Y-9051929D01*
X9838357Y-8980500D01*
X9852643Y-8923357D01*
X9866928Y-8894786D01*
X9881214Y-8880500D01*
X9909786Y-8866214D01*
X10109786Y-8866214D02*
X10295500Y-8866214D01*
X10195500Y-8980500D01*
X10238357Y-8980500D01*
X10266928Y-8994786D01*
X10281214Y-9009072D01*
X10295500Y-9037643D01*
X10295500Y-9109072D01*
X10281214Y-9137643D01*
X10266928Y-9151929D01*
X10238357Y-9166214D01*
X10152643Y-9166214D01*
X10124071Y-9151929D01*
X10109786Y-9137643D01*
X10566928Y-8866214D02*
X10424071Y-8866214D01*
X10409786Y-9009072D01*
X10424071Y-8994786D01*
X10452643Y-8980500D01*
X10524071Y-8980500D01*
X10552643Y-8994786D01*
X10566928Y-9009072D01*
X10581214Y-9037643D01*
X10581214Y-9109072D01*
X10566928Y-9137643D01*
X10552643Y-9151929D01*
X10524071Y-9166214D01*
X10452643Y-9166214D01*
X10424071Y-9151929D01*
X10409786Y-9137643D01*
X10838357Y-8966214D02*
X10838357Y-9166214D01*
X10766928Y-8851929D02*
X10695500Y-9066214D01*
X10881214Y-9066214D01*
X10981214Y-8866214D02*
X10981214Y-8923357D01*
X11095500Y-8866214D02*
X11095500Y-8923357D01*
X11538357Y-9280500D02*
X11524071Y-9266214D01*
X11495500Y-9223357D01*
X11481214Y-9194786D01*
X11466928Y-9151929D01*
X11452643Y-9080500D01*
X11452643Y-9023357D01*
X11466928Y-8951929D01*
X11481214Y-8909072D01*
X11495500Y-8880500D01*
X11524071Y-8837643D01*
X11538357Y-8823357D01*
X11795500Y-8866214D02*
X11652643Y-8866214D01*
X11638357Y-9009072D01*
X11652643Y-8994786D01*
X11681214Y-8980500D01*
X11752643Y-8980500D01*
X11781214Y-8994786D01*
X11795500Y-9009072D01*
X11809786Y-9037643D01*
X11809786Y-9109072D01*
X11795500Y-9137643D01*
X11781214Y-9151929D01*
X11752643Y-9166214D01*
X11681214Y-9166214D01*
X11652643Y-9151929D01*
X11638357Y-9137643D01*
X12095500Y-9166214D02*
X11924071Y-9166214D01*
X12009786Y-9166214D02*
X12009786Y-8866214D01*
X11981214Y-8909072D01*
X11952643Y-8937643D01*
X11924071Y-8951929D01*
X12209786Y-8894786D02*
X12224071Y-8880500D01*
X12252643Y-8866214D01*
X12324071Y-8866214D01*
X12352643Y-8880500D01*
X12366928Y-8894786D01*
X12381214Y-8923357D01*
X12381214Y-8951929D01*
X12366928Y-8994786D01*
X12195500Y-9166214D01*
X12381214Y-9166214D01*
X12738357Y-9166214D02*
X12738357Y-8866214D01*
X12866928Y-9166214D02*
X12866928Y-9009072D01*
X12852643Y-8980500D01*
X12824071Y-8966214D01*
X12781214Y-8966214D01*
X12752643Y-8980500D01*
X12738357Y-8994786D01*
X13052643Y-9166214D02*
X13024071Y-9151929D01*
X13009786Y-9137643D01*
X12995500Y-9109072D01*
X12995500Y-9023357D01*
X13009786Y-8994786D01*
X13024071Y-8980500D01*
X13052643Y-8966214D01*
X13095500Y-8966214D01*
X13124071Y-8980500D01*
X13138357Y-8994786D01*
X13152643Y-9023357D01*
X13152643Y-9109072D01*
X13138357Y-9137643D01*
X13124071Y-9151929D01*
X13095500Y-9166214D01*
X13052643Y-9166214D01*
X13324071Y-9166214D02*
X13295500Y-9151929D01*
X13281214Y-9123357D01*
X13281214Y-8866214D01*
X13552643Y-9151929D02*
X13524071Y-9166214D01*
X13466928Y-9166214D01*
X13438357Y-9151929D01*
X13424071Y-9123357D01*
X13424071Y-9009072D01*
X13438357Y-8980500D01*
X13466928Y-8966214D01*
X13524071Y-8966214D01*
X13552643Y-8980500D01*
X13566928Y-9009072D01*
X13566928Y-9037643D01*
X13424071Y-9066214D01*
X13681214Y-9151929D02*
X13709786Y-9166214D01*
X13766928Y-9166214D01*
X13795500Y-9151929D01*
X13809786Y-9123357D01*
X13809786Y-9109072D01*
X13795500Y-9080500D01*
X13766928Y-9066214D01*
X13724071Y-9066214D01*
X13695500Y-9051929D01*
X13681214Y-9023357D01*
X13681214Y-9009072D01*
X13695500Y-8980500D01*
X13724071Y-8966214D01*
X13766928Y-8966214D01*
X13795500Y-8980500D01*
X13909786Y-9280500D02*
X13924071Y-9266214D01*
X13952643Y-9223357D01*
X13966928Y-9194786D01*
X13981214Y-9151929D01*
X13995500Y-9080500D01*
X13995500Y-9023357D01*
X13981214Y-8951929D01*
X13966928Y-8909072D01*
X13952643Y-8880500D01*
X13924071Y-8837643D01*
X13909786Y-8823357D01*
X6280500Y-9426500D02*
G75*
G03*
X6280500Y-9426500I-60000J0D01*
G01*
X6724071Y-9562214D02*
X6552643Y-9562214D01*
X6638357Y-9562214D02*
X6638357Y-9262214D01*
X6609786Y-9305072D01*
X6581214Y-9333643D01*
X6552643Y-9347929D01*
X6852643Y-9533643D02*
X6866928Y-9547929D01*
X6852643Y-9562214D01*
X6838357Y-9547929D01*
X6852643Y-9533643D01*
X6852643Y-9562214D01*
X6981214Y-9290786D02*
X6995500Y-9276500D01*
X7024071Y-9262214D01*
X7095500Y-9262214D01*
X7124071Y-9276500D01*
X7138357Y-9290786D01*
X7152643Y-9319357D01*
X7152643Y-9347929D01*
X7138357Y-9390786D01*
X6966928Y-9562214D01*
X7152643Y-9562214D01*
X7338357Y-9262214D02*
X7366928Y-9262214D01*
X7395500Y-9276500D01*
X7409786Y-9290786D01*
X7424071Y-9319357D01*
X7438357Y-9376500D01*
X7438357Y-9447929D01*
X7424071Y-9505072D01*
X7409786Y-9533643D01*
X7395500Y-9547929D01*
X7366928Y-9562214D01*
X7338357Y-9562214D01*
X7309786Y-9547929D01*
X7295500Y-9533643D01*
X7281214Y-9505072D01*
X7266928Y-9447929D01*
X7266928Y-9376500D01*
X7281214Y-9319357D01*
X7295500Y-9290786D01*
X7309786Y-9276500D01*
X7338357Y-9262214D01*
X7624071Y-9262214D02*
X7652643Y-9262214D01*
X7681214Y-9276500D01*
X7695500Y-9290786D01*
X7709786Y-9319357D01*
X7724071Y-9376500D01*
X7724071Y-9447929D01*
X7709786Y-9505072D01*
X7695500Y-9533643D01*
X7681214Y-9547929D01*
X7652643Y-9562214D01*
X7624071Y-9562214D01*
X7595500Y-9547929D01*
X7581214Y-9533643D01*
X7566928Y-9505072D01*
X7552643Y-9447929D01*
X7552643Y-9376500D01*
X7566928Y-9319357D01*
X7581214Y-9290786D01*
X7595500Y-9276500D01*
X7624071Y-9262214D01*
X7852643Y-9562214D02*
X7852643Y-9362214D01*
X7852643Y-9390786D02*
X7866928Y-9376500D01*
X7895500Y-9362214D01*
X7938357Y-9362214D01*
X7966928Y-9376500D01*
X7981214Y-9405072D01*
X7981214Y-9562214D01*
X7981214Y-9405072D02*
X7995500Y-9376500D01*
X8024071Y-9362214D01*
X8066928Y-9362214D01*
X8095500Y-9376500D01*
X8109786Y-9405072D01*
X8109786Y-9562214D01*
X8252643Y-9562214D02*
X8252643Y-9362214D01*
X8252643Y-9390786D02*
X8266928Y-9376500D01*
X8295500Y-9362214D01*
X8338357Y-9362214D01*
X8366928Y-9376500D01*
X8381214Y-9405072D01*
X8381214Y-9562214D01*
X8381214Y-9405072D02*
X8395500Y-9376500D01*
X8424071Y-9362214D01*
X8466928Y-9362214D01*
X8495500Y-9376500D01*
X8509786Y-9405072D01*
X8509786Y-9562214D01*
X9095500Y-9247929D02*
X8838357Y-9633643D01*
X9481214Y-9262214D02*
X9509786Y-9262214D01*
X9538357Y-9276500D01*
X9552643Y-9290786D01*
X9566928Y-9319357D01*
X9581214Y-9376500D01*
X9581214Y-9447929D01*
X9566928Y-9505072D01*
X9552643Y-9533643D01*
X9538357Y-9547929D01*
X9509786Y-9562214D01*
X9481214Y-9562214D01*
X9452643Y-9547929D01*
X9438357Y-9533643D01*
X9424071Y-9505072D01*
X9409786Y-9447929D01*
X9409786Y-9376500D01*
X9424071Y-9319357D01*
X9438357Y-9290786D01*
X9452643Y-9276500D01*
X9481214Y-9262214D01*
X9709786Y-9533643D02*
X9724071Y-9547929D01*
X9709786Y-9562214D01*
X9695500Y-9547929D01*
X9709786Y-9533643D01*
X9709786Y-9562214D01*
X9909786Y-9262214D02*
X9938357Y-9262214D01*
X9966928Y-9276500D01*
X9981214Y-9290786D01*
X9995500Y-9319357D01*
X10009786Y-9376500D01*
X10009786Y-9447929D01*
X9995500Y-9505072D01*
X9981214Y-9533643D01*
X9966928Y-9547929D01*
X9938357Y-9562214D01*
X9909786Y-9562214D01*
X9881214Y-9547929D01*
X9866928Y-9533643D01*
X9852643Y-9505072D01*
X9838357Y-9447929D01*
X9838357Y-9376500D01*
X9852643Y-9319357D01*
X9866928Y-9290786D01*
X9881214Y-9276500D01*
X9909786Y-9262214D01*
X10266928Y-9362214D02*
X10266928Y-9562214D01*
X10195500Y-9247929D02*
X10124071Y-9462214D01*
X10309786Y-9462214D01*
X10395500Y-9262214D02*
X10595500Y-9262214D01*
X10466928Y-9562214D01*
X10695500Y-9290786D02*
X10709786Y-9276500D01*
X10738357Y-9262214D01*
X10809786Y-9262214D01*
X10838357Y-9276500D01*
X10852643Y-9290786D01*
X10866928Y-9319357D01*
X10866928Y-9347929D01*
X10852643Y-9390786D01*
X10681214Y-9562214D01*
X10866928Y-9562214D01*
X10981214Y-9262214D02*
X10981214Y-9319357D01*
X11095500Y-9262214D02*
X11095500Y-9319357D01*
X11538357Y-9676500D02*
X11524071Y-9662214D01*
X11495500Y-9619357D01*
X11481214Y-9590786D01*
X11466928Y-9547929D01*
X11452643Y-9476500D01*
X11452643Y-9419357D01*
X11466928Y-9347929D01*
X11481214Y-9305072D01*
X11495500Y-9276500D01*
X11524071Y-9233643D01*
X11538357Y-9219357D01*
X11781214Y-9362214D02*
X11781214Y-9562214D01*
X11709786Y-9247929D02*
X11638357Y-9462214D01*
X11824071Y-9462214D01*
X11995500Y-9262214D02*
X12024071Y-9262214D01*
X12052643Y-9276500D01*
X12066928Y-9290786D01*
X12081214Y-9319357D01*
X12095500Y-9376500D01*
X12095500Y-9447929D01*
X12081214Y-9505072D01*
X12066928Y-9533643D01*
X12052643Y-9547929D01*
X12024071Y-9562214D01*
X11995500Y-9562214D01*
X11966928Y-9547929D01*
X11952643Y-9533643D01*
X11938357Y-9505072D01*
X11924071Y-9447929D01*
X11924071Y-9376500D01*
X11938357Y-9319357D01*
X11952643Y-9290786D01*
X11966928Y-9276500D01*
X11995500Y-9262214D01*
X12452643Y-9562214D02*
X12452643Y-9262214D01*
X12581214Y-9562214D02*
X12581214Y-9405072D01*
X12566928Y-9376500D01*
X12538357Y-9362214D01*
X12495500Y-9362214D01*
X12466928Y-9376500D01*
X12452643Y-9390786D01*
X12766928Y-9562214D02*
X12738357Y-9547929D01*
X12724071Y-9533643D01*
X12709786Y-9505072D01*
X12709786Y-9419357D01*
X12724071Y-9390786D01*
X12738357Y-9376500D01*
X12766928Y-9362214D01*
X12809786Y-9362214D01*
X12838357Y-9376500D01*
X12852643Y-9390786D01*
X12866928Y-9419357D01*
X12866928Y-9505072D01*
X12852643Y-9533643D01*
X12838357Y-9547929D01*
X12809786Y-9562214D01*
X12766928Y-9562214D01*
X13038357Y-9562214D02*
X13009786Y-9547929D01*
X12995500Y-9519357D01*
X12995500Y-9262214D01*
X13266928Y-9547929D02*
X13238357Y-9562214D01*
X13181214Y-9562214D01*
X13152643Y-9547929D01*
X13138357Y-9519357D01*
X13138357Y-9405072D01*
X13152643Y-9376500D01*
X13181214Y-9362214D01*
X13238357Y-9362214D01*
X13266928Y-9376500D01*
X13281214Y-9405072D01*
X13281214Y-9433643D01*
X13138357Y-9462214D01*
X13395500Y-9547929D02*
X13424071Y-9562214D01*
X13481214Y-9562214D01*
X13509786Y-9547929D01*
X13524071Y-9519357D01*
X13524071Y-9505072D01*
X13509786Y-9476500D01*
X13481214Y-9462214D01*
X13438357Y-9462214D01*
X13409786Y-9447929D01*
X13395500Y-9419357D01*
X13395500Y-9405072D01*
X13409786Y-9376500D01*
X13438357Y-9362214D01*
X13481214Y-9362214D01*
X13509786Y-9376500D01*
X13624071Y-9676500D02*
X13638357Y-9662214D01*
X13666928Y-9619357D01*
X13681214Y-9590786D01*
X13695500Y-9547929D01*
X13709786Y-9476500D01*
X13709786Y-9419357D01*
X13695500Y-9347929D01*
X13681214Y-9305072D01*
X13666928Y-9276500D01*
X13638357Y-9233643D01*
X13624071Y-9219357D01*
M02*
