%FSLAX45Y45*%
G04 Gerber Fmt 4.5, Leading zero omitted, Abs format (unit mm)*
G04 Created by KiCad (PCBNEW (5.1.10)-1) date 2023-10-25 13:43:58*
%MOMM*%
%LPD*%
G01*
G04 APERTURE LIST*
%TA.AperFunction,Profile*%
%ADD10C,0.120000*%
%TD*%
%ADD11C,0.200000*%
%ADD12C,0.300000*%
G04 APERTURE END LIST*
D10*
X24447500Y-8064500D02*
X24447500Y-1841500D01*
X6286500Y-1841500D02*
X24447500Y-1841500D01*
X6286500Y-8064500D02*
X6286500Y-1841500D01*
X24447500Y-8064500D02*
X6286500Y-8064500D01*
D11*
X6594500Y-2149500D02*
X6994500Y-2549500D01*
X6994500Y-2149500D02*
X6594500Y-2549500D01*
X6594500Y-7356500D02*
X6994500Y-7756500D01*
X6994500Y-7356500D02*
X6594500Y-7756500D01*
X23739500Y-2149500D02*
X24139500Y-2549500D01*
X24139500Y-2149500D02*
X23739500Y-2549500D01*
X23739500Y-7356500D02*
X24139500Y-7756500D01*
X24139500Y-7356500D02*
X23739500Y-7756500D01*
D12*
X6566928Y-8536214D02*
X6566928Y-8236214D01*
X6638357Y-8236214D01*
X6681214Y-8250500D01*
X6709786Y-8279071D01*
X6724071Y-8307643D01*
X6738357Y-8364786D01*
X6738357Y-8407643D01*
X6724071Y-8464786D01*
X6709786Y-8493357D01*
X6681214Y-8521929D01*
X6638357Y-8536214D01*
X6566928Y-8536214D01*
X6866928Y-8536214D02*
X6866928Y-8336214D01*
X6866928Y-8393357D02*
X6881214Y-8364786D01*
X6895500Y-8350500D01*
X6924071Y-8336214D01*
X6952643Y-8336214D01*
X7052643Y-8536214D02*
X7052643Y-8336214D01*
X7052643Y-8236214D02*
X7038357Y-8250500D01*
X7052643Y-8264786D01*
X7066928Y-8250500D01*
X7052643Y-8236214D01*
X7052643Y-8264786D01*
X7238357Y-8536214D02*
X7209786Y-8521929D01*
X7195500Y-8493357D01*
X7195500Y-8236214D01*
X7395500Y-8536214D02*
X7366928Y-8521929D01*
X7352643Y-8493357D01*
X7352643Y-8236214D01*
X7738357Y-8536214D02*
X7738357Y-8236214D01*
X7838357Y-8450500D01*
X7938357Y-8236214D01*
X7938357Y-8536214D01*
X8209786Y-8536214D02*
X8209786Y-8379071D01*
X8195500Y-8350500D01*
X8166928Y-8336214D01*
X8109786Y-8336214D01*
X8081214Y-8350500D01*
X8209786Y-8521929D02*
X8181214Y-8536214D01*
X8109786Y-8536214D01*
X8081214Y-8521929D01*
X8066928Y-8493357D01*
X8066928Y-8464786D01*
X8081214Y-8436214D01*
X8109786Y-8421929D01*
X8181214Y-8421929D01*
X8209786Y-8407643D01*
X8352643Y-8336214D02*
X8352643Y-8636214D01*
X8352643Y-8350500D02*
X8381214Y-8336214D01*
X8438357Y-8336214D01*
X8466928Y-8350500D01*
X8481214Y-8364786D01*
X8495500Y-8393357D01*
X8495500Y-8479072D01*
X8481214Y-8507643D01*
X8466928Y-8521929D01*
X8438357Y-8536214D01*
X8381214Y-8536214D01*
X8352643Y-8521929D01*
X8624071Y-8507643D02*
X8638357Y-8521929D01*
X8624071Y-8536214D01*
X8609786Y-8521929D01*
X8624071Y-8507643D01*
X8624071Y-8536214D01*
X8624071Y-8350500D02*
X8638357Y-8364786D01*
X8624071Y-8379071D01*
X8609786Y-8364786D01*
X8624071Y-8350500D01*
X8624071Y-8379071D01*
X5880500Y-8830500D02*
X6280500Y-9230500D01*
X6280500Y-8830500D02*
X5880500Y-9230500D01*
X6695500Y-8966214D02*
X6695500Y-9166214D01*
X6624071Y-8851929D02*
X6552643Y-9066214D01*
X6738357Y-9066214D01*
X6852643Y-9137643D02*
X6866928Y-9151929D01*
X6852643Y-9166214D01*
X6838357Y-9151929D01*
X6852643Y-9137643D01*
X6852643Y-9166214D01*
X7052643Y-8866214D02*
X7081214Y-8866214D01*
X7109786Y-8880500D01*
X7124071Y-8894786D01*
X7138357Y-8923357D01*
X7152643Y-8980500D01*
X7152643Y-9051929D01*
X7138357Y-9109072D01*
X7124071Y-9137643D01*
X7109786Y-9151929D01*
X7081214Y-9166214D01*
X7052643Y-9166214D01*
X7024071Y-9151929D01*
X7009786Y-9137643D01*
X6995500Y-9109072D01*
X6981214Y-9051929D01*
X6981214Y-8980500D01*
X6995500Y-8923357D01*
X7009786Y-8894786D01*
X7024071Y-8880500D01*
X7052643Y-8866214D01*
X7338357Y-8866214D02*
X7366928Y-8866214D01*
X7395500Y-8880500D01*
X7409786Y-8894786D01*
X7424071Y-8923357D01*
X7438357Y-8980500D01*
X7438357Y-9051929D01*
X7424071Y-9109072D01*
X7409786Y-9137643D01*
X7395500Y-9151929D01*
X7366928Y-9166214D01*
X7338357Y-9166214D01*
X7309786Y-9151929D01*
X7295500Y-9137643D01*
X7281214Y-9109072D01*
X7266928Y-9051929D01*
X7266928Y-8980500D01*
X7281214Y-8923357D01*
X7295500Y-8894786D01*
X7309786Y-8880500D01*
X7338357Y-8866214D01*
X7624071Y-8866214D02*
X7652643Y-8866214D01*
X7681214Y-8880500D01*
X7695500Y-8894786D01*
X7709786Y-8923357D01*
X7724071Y-8980500D01*
X7724071Y-9051929D01*
X7709786Y-9109072D01*
X7695500Y-9137643D01*
X7681214Y-9151929D01*
X7652643Y-9166214D01*
X7624071Y-9166214D01*
X7595500Y-9151929D01*
X7581214Y-9137643D01*
X7566928Y-9109072D01*
X7552643Y-9051929D01*
X7552643Y-8980500D01*
X7566928Y-8923357D01*
X7581214Y-8894786D01*
X7595500Y-8880500D01*
X7624071Y-8866214D01*
X7852643Y-9166214D02*
X7852643Y-8966214D01*
X7852643Y-8994786D02*
X7866928Y-8980500D01*
X7895500Y-8966214D01*
X7938357Y-8966214D01*
X7966928Y-8980500D01*
X7981214Y-9009072D01*
X7981214Y-9166214D01*
X7981214Y-9009072D02*
X7995500Y-8980500D01*
X8024071Y-8966214D01*
X8066928Y-8966214D01*
X8095500Y-8980500D01*
X8109786Y-9009072D01*
X8109786Y-9166214D01*
X8252643Y-9166214D02*
X8252643Y-8966214D01*
X8252643Y-8994786D02*
X8266928Y-8980500D01*
X8295500Y-8966214D01*
X8338357Y-8966214D01*
X8366928Y-8980500D01*
X8381214Y-9009072D01*
X8381214Y-9166214D01*
X8381214Y-9009072D02*
X8395500Y-8980500D01*
X8424071Y-8966214D01*
X8466928Y-8966214D01*
X8495500Y-8980500D01*
X8509786Y-9009072D01*
X8509786Y-9166214D01*
X9095500Y-8851929D02*
X8838357Y-9237643D01*
X9481214Y-8866214D02*
X9509786Y-8866214D01*
X9538357Y-8880500D01*
X9552643Y-8894786D01*
X9566928Y-8923357D01*
X9581214Y-8980500D01*
X9581214Y-9051929D01*
X9566928Y-9109072D01*
X9552643Y-9137643D01*
X9538357Y-9151929D01*
X9509786Y-9166214D01*
X9481214Y-9166214D01*
X9452643Y-9151929D01*
X9438357Y-9137643D01*
X9424071Y-9109072D01*
X9409786Y-9051929D01*
X9409786Y-8980500D01*
X9424071Y-8923357D01*
X9438357Y-8894786D01*
X9452643Y-8880500D01*
X9481214Y-8866214D01*
X9709786Y-9137643D02*
X9724071Y-9151929D01*
X9709786Y-9166214D01*
X9695500Y-9151929D01*
X9709786Y-9137643D01*
X9709786Y-9166214D01*
X10009786Y-9166214D02*
X9838357Y-9166214D01*
X9924071Y-9166214D02*
X9924071Y-8866214D01*
X9895500Y-8909072D01*
X9866928Y-8937643D01*
X9838357Y-8951929D01*
X10281214Y-8866214D02*
X10138357Y-8866214D01*
X10124071Y-9009072D01*
X10138357Y-8994786D01*
X10166928Y-8980500D01*
X10238357Y-8980500D01*
X10266928Y-8994786D01*
X10281214Y-9009072D01*
X10295500Y-9037643D01*
X10295500Y-9109072D01*
X10281214Y-9137643D01*
X10266928Y-9151929D01*
X10238357Y-9166214D01*
X10166928Y-9166214D01*
X10138357Y-9151929D01*
X10124071Y-9137643D01*
X10395500Y-8866214D02*
X10595500Y-8866214D01*
X10466928Y-9166214D01*
X10852643Y-8866214D02*
X10709786Y-8866214D01*
X10695500Y-9009072D01*
X10709786Y-8994786D01*
X10738357Y-8980500D01*
X10809786Y-8980500D01*
X10838357Y-8994786D01*
X10852643Y-9009072D01*
X10866928Y-9037643D01*
X10866928Y-9109072D01*
X10852643Y-9137643D01*
X10838357Y-9151929D01*
X10809786Y-9166214D01*
X10738357Y-9166214D01*
X10709786Y-9151929D01*
X10695500Y-9137643D01*
X10981214Y-8866214D02*
X10981214Y-8923357D01*
X11095500Y-8866214D02*
X11095500Y-8923357D01*
X11538357Y-9280500D02*
X11524071Y-9266214D01*
X11495500Y-9223357D01*
X11481214Y-9194786D01*
X11466928Y-9151929D01*
X11452643Y-9080500D01*
X11452643Y-9023357D01*
X11466928Y-8951929D01*
X11481214Y-8909072D01*
X11495500Y-8880500D01*
X11524071Y-8837643D01*
X11538357Y-8823357D01*
X11781214Y-8966214D02*
X11781214Y-9166214D01*
X11709786Y-8851929D02*
X11638357Y-9066214D01*
X11824071Y-9066214D01*
X12166928Y-9166214D02*
X12166928Y-8866214D01*
X12295500Y-9166214D02*
X12295500Y-9009072D01*
X12281214Y-8980500D01*
X12252643Y-8966214D01*
X12209786Y-8966214D01*
X12181214Y-8980500D01*
X12166928Y-8994786D01*
X12481214Y-9166214D02*
X12452643Y-9151929D01*
X12438357Y-9137643D01*
X12424071Y-9109072D01*
X12424071Y-9023357D01*
X12438357Y-8994786D01*
X12452643Y-8980500D01*
X12481214Y-8966214D01*
X12524071Y-8966214D01*
X12552643Y-8980500D01*
X12566928Y-8994786D01*
X12581214Y-9023357D01*
X12581214Y-9109072D01*
X12566928Y-9137643D01*
X12552643Y-9151929D01*
X12524071Y-9166214D01*
X12481214Y-9166214D01*
X12752643Y-9166214D02*
X12724071Y-9151929D01*
X12709786Y-9123357D01*
X12709786Y-8866214D01*
X12981214Y-9151929D02*
X12952643Y-9166214D01*
X12895500Y-9166214D01*
X12866928Y-9151929D01*
X12852643Y-9123357D01*
X12852643Y-9009072D01*
X12866928Y-8980500D01*
X12895500Y-8966214D01*
X12952643Y-8966214D01*
X12981214Y-8980500D01*
X12995500Y-9009072D01*
X12995500Y-9037643D01*
X12852643Y-9066214D01*
X13109786Y-9151929D02*
X13138357Y-9166214D01*
X13195500Y-9166214D01*
X13224071Y-9151929D01*
X13238357Y-9123357D01*
X13238357Y-9109072D01*
X13224071Y-9080500D01*
X13195500Y-9066214D01*
X13152643Y-9066214D01*
X13124071Y-9051929D01*
X13109786Y-9023357D01*
X13109786Y-9009072D01*
X13124071Y-8980500D01*
X13152643Y-8966214D01*
X13195500Y-8966214D01*
X13224071Y-8980500D01*
X13338357Y-9280500D02*
X13352643Y-9266214D01*
X13381214Y-9223357D01*
X13395500Y-9194786D01*
X13409786Y-9151929D01*
X13424071Y-9080500D01*
X13424071Y-9023357D01*
X13409786Y-8951929D01*
X13395500Y-8909072D01*
X13381214Y-8880500D01*
X13352643Y-8837643D01*
X13338357Y-8823357D01*
X13881214Y-9280500D02*
X13866928Y-9266214D01*
X13838357Y-9223357D01*
X13824071Y-9194786D01*
X13809786Y-9151929D01*
X13795500Y-9080500D01*
X13795500Y-9023357D01*
X13809786Y-8951929D01*
X13824071Y-8909072D01*
X13838357Y-8880500D01*
X13866928Y-8837643D01*
X13881214Y-8823357D01*
X13995500Y-8966214D02*
X13995500Y-9166214D01*
X13995500Y-8994786D02*
X14009786Y-8980500D01*
X14038357Y-8966214D01*
X14081214Y-8966214D01*
X14109786Y-8980500D01*
X14124071Y-9009072D01*
X14124071Y-9166214D01*
X14309786Y-9166214D02*
X14281214Y-9151929D01*
X14266928Y-9137643D01*
X14252643Y-9109072D01*
X14252643Y-9023357D01*
X14266928Y-8994786D01*
X14281214Y-8980500D01*
X14309786Y-8966214D01*
X14352643Y-8966214D01*
X14381214Y-8980500D01*
X14395500Y-8994786D01*
X14409786Y-9023357D01*
X14409786Y-9109072D01*
X14395500Y-9137643D01*
X14381214Y-9151929D01*
X14352643Y-9166214D01*
X14309786Y-9166214D01*
X14495500Y-8966214D02*
X14609786Y-8966214D01*
X14538357Y-8866214D02*
X14538357Y-9123357D01*
X14552643Y-9151929D01*
X14581214Y-9166214D01*
X14609786Y-9166214D01*
X14938357Y-8966214D02*
X14938357Y-9266214D01*
X14938357Y-8980500D02*
X14966928Y-8966214D01*
X15024071Y-8966214D01*
X15052643Y-8980500D01*
X15066928Y-8994786D01*
X15081214Y-9023357D01*
X15081214Y-9109072D01*
X15066928Y-9137643D01*
X15052643Y-9151929D01*
X15024071Y-9166214D01*
X14966928Y-9166214D01*
X14938357Y-9151929D01*
X15252643Y-9166214D02*
X15224071Y-9151929D01*
X15209786Y-9123357D01*
X15209786Y-8866214D01*
X15495500Y-9166214D02*
X15495500Y-9009072D01*
X15481214Y-8980500D01*
X15452643Y-8966214D01*
X15395500Y-8966214D01*
X15366928Y-8980500D01*
X15495500Y-9151929D02*
X15466928Y-9166214D01*
X15395500Y-9166214D01*
X15366928Y-9151929D01*
X15352643Y-9123357D01*
X15352643Y-9094786D01*
X15366928Y-9066214D01*
X15395500Y-9051929D01*
X15466928Y-9051929D01*
X15495500Y-9037643D01*
X15595500Y-8966214D02*
X15709786Y-8966214D01*
X15638357Y-8866214D02*
X15638357Y-9123357D01*
X15652643Y-9151929D01*
X15681214Y-9166214D01*
X15709786Y-9166214D01*
X15924071Y-9151929D02*
X15895500Y-9166214D01*
X15838357Y-9166214D01*
X15809786Y-9151929D01*
X15795500Y-9123357D01*
X15795500Y-9009072D01*
X15809786Y-8980500D01*
X15838357Y-8966214D01*
X15895500Y-8966214D01*
X15924071Y-8980500D01*
X15938357Y-9009072D01*
X15938357Y-9037643D01*
X15795500Y-9066214D01*
X16195500Y-9166214D02*
X16195500Y-8866214D01*
X16195500Y-9151929D02*
X16166928Y-9166214D01*
X16109786Y-9166214D01*
X16081214Y-9151929D01*
X16066928Y-9137643D01*
X16052643Y-9109072D01*
X16052643Y-9023357D01*
X16066928Y-8994786D01*
X16081214Y-8980500D01*
X16109786Y-8966214D01*
X16166928Y-8966214D01*
X16195500Y-8980500D01*
X16309786Y-9280500D02*
X16324071Y-9266214D01*
X16352643Y-9223357D01*
X16366928Y-9194786D01*
X16381214Y-9151929D01*
X16395500Y-9080500D01*
X16395500Y-9023357D01*
X16381214Y-8951929D01*
X16366928Y-8909072D01*
X16352643Y-8880500D01*
X16324071Y-8837643D01*
X16309786Y-8823357D01*
M02*
