G04 #@! TF.GenerationSoftware,KiCad,Pcbnew,(5.1.10)-1*
G04 #@! TF.CreationDate,2023-12-13T20:17:28-05:00*
G04 #@! TF.ProjectId,LED_Matrix_Driver,4c45445f-4d61-4747-9269-785f44726976,rev?*
G04 #@! TF.SameCoordinates,Original*
G04 #@! TF.FileFunction,Legend,Bot*
G04 #@! TF.FilePolarity,Positive*
%FSLAX46Y46*%
G04 Gerber Fmt 4.6, Leading zero omitted, Abs format (unit mm)*
G04 Created by KiCad (PCBNEW (5.1.10)-1) date 2023-12-13 20:17:28*
%MOMM*%
%LPD*%
G01*
G04 APERTURE LIST*
%ADD10C,0.150000*%
%ADD11C,0.120000*%
%ADD12C,2.200000*%
%ADD13O,1.600000X1.600000*%
%ADD14C,1.600000*%
%ADD15R,1.500000X1.200000*%
%ADD16C,1.200000*%
%ADD17R,1.200000X1.200000*%
%ADD18R,1.600000X1.600000*%
%ADD19R,1.200000X1.524000*%
%ADD20C,2.600000*%
%ADD21R,2.600000X2.600000*%
%ADD22C,2.400000*%
%ADD23R,2.400000X2.400000*%
G04 APERTURE END LIST*
D10*
X105210952Y-40568571D02*
X105068095Y-40616190D01*
X105020476Y-40663809D01*
X104972857Y-40759047D01*
X104972857Y-40901904D01*
X105020476Y-40997142D01*
X105068095Y-41044761D01*
X105163333Y-41092380D01*
X105544285Y-41092380D01*
X105544285Y-40092380D01*
X105210952Y-40092380D01*
X105115714Y-40140000D01*
X105068095Y-40187619D01*
X105020476Y-40282857D01*
X105020476Y-40378095D01*
X105068095Y-40473333D01*
X105115714Y-40520952D01*
X105210952Y-40568571D01*
X105544285Y-40568571D01*
X104115714Y-41092380D02*
X104115714Y-40568571D01*
X104163333Y-40473333D01*
X104258571Y-40425714D01*
X104449047Y-40425714D01*
X104544285Y-40473333D01*
X104115714Y-41044761D02*
X104210952Y-41092380D01*
X104449047Y-41092380D01*
X104544285Y-41044761D01*
X104591904Y-40949523D01*
X104591904Y-40854285D01*
X104544285Y-40759047D01*
X104449047Y-40711428D01*
X104210952Y-40711428D01*
X104115714Y-40663809D01*
X103210952Y-41044761D02*
X103306190Y-41092380D01*
X103496666Y-41092380D01*
X103591904Y-41044761D01*
X103639523Y-40997142D01*
X103687142Y-40901904D01*
X103687142Y-40616190D01*
X103639523Y-40520952D01*
X103591904Y-40473333D01*
X103496666Y-40425714D01*
X103306190Y-40425714D01*
X103210952Y-40473333D01*
X102782380Y-41092380D02*
X102782380Y-40092380D01*
X102687142Y-40711428D02*
X102401428Y-41092380D01*
X102401428Y-40425714D02*
X102782380Y-40806666D01*
X101068095Y-41092380D02*
X101163333Y-41044761D01*
X101210952Y-40997142D01*
X101258571Y-40901904D01*
X101258571Y-40616190D01*
X101210952Y-40520952D01*
X101163333Y-40473333D01*
X101068095Y-40425714D01*
X100925238Y-40425714D01*
X100830000Y-40473333D01*
X100782380Y-40520952D01*
X100734761Y-40616190D01*
X100734761Y-40901904D01*
X100782380Y-40997142D01*
X100830000Y-41044761D01*
X100925238Y-41092380D01*
X101068095Y-41092380D01*
X100449047Y-40425714D02*
X100068095Y-40425714D01*
X100306190Y-41092380D02*
X100306190Y-40235238D01*
X100258571Y-40140000D01*
X100163333Y-40092380D01*
X100068095Y-40092380D01*
X98639523Y-40568571D02*
X98496666Y-40616190D01*
X98449047Y-40663809D01*
X98401428Y-40759047D01*
X98401428Y-40901904D01*
X98449047Y-40997142D01*
X98496666Y-41044761D01*
X98591904Y-41092380D01*
X98972857Y-41092380D01*
X98972857Y-40092380D01*
X98639523Y-40092380D01*
X98544285Y-40140000D01*
X98496666Y-40187619D01*
X98449047Y-40282857D01*
X98449047Y-40378095D01*
X98496666Y-40473333D01*
X98544285Y-40520952D01*
X98639523Y-40568571D01*
X98972857Y-40568571D01*
X97830000Y-41092380D02*
X97925238Y-41044761D01*
X97972857Y-40997142D01*
X98020476Y-40901904D01*
X98020476Y-40616190D01*
X97972857Y-40520952D01*
X97925238Y-40473333D01*
X97830000Y-40425714D01*
X97687142Y-40425714D01*
X97591904Y-40473333D01*
X97544285Y-40520952D01*
X97496666Y-40616190D01*
X97496666Y-40901904D01*
X97544285Y-40997142D01*
X97591904Y-41044761D01*
X97687142Y-41092380D01*
X97830000Y-41092380D01*
X96639523Y-41092380D02*
X96639523Y-40568571D01*
X96687142Y-40473333D01*
X96782380Y-40425714D01*
X96972857Y-40425714D01*
X97068095Y-40473333D01*
X96639523Y-41044761D02*
X96734761Y-41092380D01*
X96972857Y-41092380D01*
X97068095Y-41044761D01*
X97115714Y-40949523D01*
X97115714Y-40854285D01*
X97068095Y-40759047D01*
X96972857Y-40711428D01*
X96734761Y-40711428D01*
X96639523Y-40663809D01*
X96163333Y-41092380D02*
X96163333Y-40425714D01*
X96163333Y-40616190D02*
X96115714Y-40520952D01*
X96068095Y-40473333D01*
X95972857Y-40425714D01*
X95877619Y-40425714D01*
X95115714Y-41092380D02*
X95115714Y-40092380D01*
X95115714Y-41044761D02*
X95210952Y-41092380D01*
X95401428Y-41092380D01*
X95496666Y-41044761D01*
X95544285Y-40997142D01*
X95591904Y-40901904D01*
X95591904Y-40616190D01*
X95544285Y-40520952D01*
X95496666Y-40473333D01*
X95401428Y-40425714D01*
X95210952Y-40425714D01*
X95115714Y-40473333D01*
D11*
X49562000Y-54710000D02*
X49562000Y-51970000D01*
X49562000Y-51970000D02*
X56102000Y-51970000D01*
X56102000Y-51970000D02*
X56102000Y-54710000D01*
X56102000Y-54710000D02*
X49562000Y-54710000D01*
X48792000Y-53340000D02*
X49562000Y-53340000D01*
X56872000Y-53340000D02*
X56102000Y-53340000D01*
X64362000Y-50514000D02*
X61622000Y-50514000D01*
X61622000Y-50514000D02*
X61622000Y-43974000D01*
X61622000Y-43974000D02*
X64362000Y-43974000D01*
X64362000Y-43974000D02*
X64362000Y-50514000D01*
X62992000Y-51284000D02*
X62992000Y-50514000D01*
X62992000Y-43204000D02*
X62992000Y-43974000D01*
X49562000Y-58774000D02*
X49562000Y-56034000D01*
X49562000Y-56034000D02*
X56102000Y-56034000D01*
X56102000Y-56034000D02*
X56102000Y-58774000D01*
X56102000Y-58774000D02*
X49562000Y-58774000D01*
X48792000Y-57404000D02*
X49562000Y-57404000D01*
X56872000Y-57404000D02*
X56102000Y-57404000D01*
X67918000Y-50514000D02*
X65178000Y-50514000D01*
X65178000Y-50514000D02*
X65178000Y-43974000D01*
X65178000Y-43974000D02*
X67918000Y-43974000D01*
X67918000Y-43974000D02*
X67918000Y-50514000D01*
X66548000Y-51284000D02*
X66548000Y-50514000D01*
X66548000Y-43204000D02*
X66548000Y-43974000D01*
X15875000Y-61341000D02*
X15875000Y-53721000D01*
X13335000Y-61341000D02*
X15875000Y-61341000D01*
X13335000Y-53721000D02*
X13335000Y-61341000D01*
X15875000Y-53721000D02*
X13335000Y-53721000D01*
X16328000Y-49276000D02*
G75*
G03*
X16328000Y-49276000I-2120000J0D01*
G01*
X14208000Y-47196000D02*
X14208000Y-51356000D01*
X14168000Y-47196000D02*
X14168000Y-51356000D01*
X14128000Y-47197000D02*
X14128000Y-51355000D01*
X14088000Y-47199000D02*
X14088000Y-51353000D01*
X14048000Y-47202000D02*
X14048000Y-51350000D01*
X14008000Y-47205000D02*
X14008000Y-48436000D01*
X14008000Y-50116000D02*
X14008000Y-51347000D01*
X13968000Y-47209000D02*
X13968000Y-48436000D01*
X13968000Y-50116000D02*
X13968000Y-51343000D01*
X13928000Y-47214000D02*
X13928000Y-48436000D01*
X13928000Y-50116000D02*
X13928000Y-51338000D01*
X13888000Y-47220000D02*
X13888000Y-48436000D01*
X13888000Y-50116000D02*
X13888000Y-51332000D01*
X13848000Y-47226000D02*
X13848000Y-48436000D01*
X13848000Y-50116000D02*
X13848000Y-51326000D01*
X13808000Y-47234000D02*
X13808000Y-48436000D01*
X13808000Y-50116000D02*
X13808000Y-51318000D01*
X13768000Y-47242000D02*
X13768000Y-48436000D01*
X13768000Y-50116000D02*
X13768000Y-51310000D01*
X13728000Y-47251000D02*
X13728000Y-48436000D01*
X13728000Y-50116000D02*
X13728000Y-51301000D01*
X13688000Y-47260000D02*
X13688000Y-48436000D01*
X13688000Y-50116000D02*
X13688000Y-51292000D01*
X13648000Y-47271000D02*
X13648000Y-48436000D01*
X13648000Y-50116000D02*
X13648000Y-51281000D01*
X13608000Y-47282000D02*
X13608000Y-48436000D01*
X13608000Y-50116000D02*
X13608000Y-51270000D01*
X13568000Y-47294000D02*
X13568000Y-48436000D01*
X13568000Y-50116000D02*
X13568000Y-51258000D01*
X13528000Y-47308000D02*
X13528000Y-48436000D01*
X13528000Y-50116000D02*
X13528000Y-51244000D01*
X13487000Y-47322000D02*
X13487000Y-48436000D01*
X13487000Y-50116000D02*
X13487000Y-51230000D01*
X13447000Y-47336000D02*
X13447000Y-48436000D01*
X13447000Y-50116000D02*
X13447000Y-51216000D01*
X13407000Y-47352000D02*
X13407000Y-48436000D01*
X13407000Y-50116000D02*
X13407000Y-51200000D01*
X13367000Y-47369000D02*
X13367000Y-48436000D01*
X13367000Y-50116000D02*
X13367000Y-51183000D01*
X13327000Y-47387000D02*
X13327000Y-48436000D01*
X13327000Y-50116000D02*
X13327000Y-51165000D01*
X13287000Y-47406000D02*
X13287000Y-48436000D01*
X13287000Y-50116000D02*
X13287000Y-51146000D01*
X13247000Y-47425000D02*
X13247000Y-48436000D01*
X13247000Y-50116000D02*
X13247000Y-51127000D01*
X13207000Y-47446000D02*
X13207000Y-48436000D01*
X13207000Y-50116000D02*
X13207000Y-51106000D01*
X13167000Y-47468000D02*
X13167000Y-48436000D01*
X13167000Y-50116000D02*
X13167000Y-51084000D01*
X13127000Y-47491000D02*
X13127000Y-48436000D01*
X13127000Y-50116000D02*
X13127000Y-51061000D01*
X13087000Y-47516000D02*
X13087000Y-48436000D01*
X13087000Y-50116000D02*
X13087000Y-51036000D01*
X13047000Y-47541000D02*
X13047000Y-48436000D01*
X13047000Y-50116000D02*
X13047000Y-51011000D01*
X13007000Y-47568000D02*
X13007000Y-48436000D01*
X13007000Y-50116000D02*
X13007000Y-50984000D01*
X12967000Y-47596000D02*
X12967000Y-48436000D01*
X12967000Y-50116000D02*
X12967000Y-50956000D01*
X12927000Y-47626000D02*
X12927000Y-48436000D01*
X12927000Y-50116000D02*
X12927000Y-50926000D01*
X12887000Y-47657000D02*
X12887000Y-48436000D01*
X12887000Y-50116000D02*
X12887000Y-50895000D01*
X12847000Y-47689000D02*
X12847000Y-48436000D01*
X12847000Y-50116000D02*
X12847000Y-50863000D01*
X12807000Y-47724000D02*
X12807000Y-48436000D01*
X12807000Y-50116000D02*
X12807000Y-50828000D01*
X12767000Y-47760000D02*
X12767000Y-48436000D01*
X12767000Y-50116000D02*
X12767000Y-50792000D01*
X12727000Y-47798000D02*
X12727000Y-48436000D01*
X12727000Y-50116000D02*
X12727000Y-50754000D01*
X12687000Y-47838000D02*
X12687000Y-48436000D01*
X12687000Y-50116000D02*
X12687000Y-50714000D01*
X12647000Y-47880000D02*
X12647000Y-48436000D01*
X12647000Y-50116000D02*
X12647000Y-50672000D01*
X12607000Y-47925000D02*
X12607000Y-48436000D01*
X12607000Y-50116000D02*
X12607000Y-50627000D01*
X12567000Y-47972000D02*
X12567000Y-48436000D01*
X12567000Y-50116000D02*
X12567000Y-50580000D01*
X12527000Y-48022000D02*
X12527000Y-48436000D01*
X12527000Y-50116000D02*
X12527000Y-50530000D01*
X12487000Y-48076000D02*
X12487000Y-48436000D01*
X12487000Y-50116000D02*
X12487000Y-50476000D01*
X12447000Y-48134000D02*
X12447000Y-48436000D01*
X12447000Y-50116000D02*
X12447000Y-50418000D01*
X12407000Y-48196000D02*
X12407000Y-48436000D01*
X12407000Y-50116000D02*
X12407000Y-50356000D01*
X12367000Y-48263000D02*
X12367000Y-50289000D01*
X12327000Y-48336000D02*
X12327000Y-50216000D01*
X12287000Y-48417000D02*
X12287000Y-50135000D01*
X12247000Y-48508000D02*
X12247000Y-50044000D01*
X12207000Y-48612000D02*
X12207000Y-49940000D01*
X12167000Y-48739000D02*
X12167000Y-49813000D01*
X12127000Y-48906000D02*
X12127000Y-49646000D01*
X16477801Y-48081000D02*
X16077801Y-48081000D01*
X16277801Y-47881000D02*
X16277801Y-48281000D01*
X21408000Y-49276000D02*
G75*
G03*
X21408000Y-49276000I-2120000J0D01*
G01*
X19288000Y-47196000D02*
X19288000Y-51356000D01*
X19248000Y-47196000D02*
X19248000Y-51356000D01*
X19208000Y-47197000D02*
X19208000Y-51355000D01*
X19168000Y-47199000D02*
X19168000Y-51353000D01*
X19128000Y-47202000D02*
X19128000Y-51350000D01*
X19088000Y-47205000D02*
X19088000Y-48436000D01*
X19088000Y-50116000D02*
X19088000Y-51347000D01*
X19048000Y-47209000D02*
X19048000Y-48436000D01*
X19048000Y-50116000D02*
X19048000Y-51343000D01*
X19008000Y-47214000D02*
X19008000Y-48436000D01*
X19008000Y-50116000D02*
X19008000Y-51338000D01*
X18968000Y-47220000D02*
X18968000Y-48436000D01*
X18968000Y-50116000D02*
X18968000Y-51332000D01*
X18928000Y-47226000D02*
X18928000Y-48436000D01*
X18928000Y-50116000D02*
X18928000Y-51326000D01*
X18888000Y-47234000D02*
X18888000Y-48436000D01*
X18888000Y-50116000D02*
X18888000Y-51318000D01*
X18848000Y-47242000D02*
X18848000Y-48436000D01*
X18848000Y-50116000D02*
X18848000Y-51310000D01*
X18808000Y-47251000D02*
X18808000Y-48436000D01*
X18808000Y-50116000D02*
X18808000Y-51301000D01*
X18768000Y-47260000D02*
X18768000Y-48436000D01*
X18768000Y-50116000D02*
X18768000Y-51292000D01*
X18728000Y-47271000D02*
X18728000Y-48436000D01*
X18728000Y-50116000D02*
X18728000Y-51281000D01*
X18688000Y-47282000D02*
X18688000Y-48436000D01*
X18688000Y-50116000D02*
X18688000Y-51270000D01*
X18648000Y-47294000D02*
X18648000Y-48436000D01*
X18648000Y-50116000D02*
X18648000Y-51258000D01*
X18608000Y-47308000D02*
X18608000Y-48436000D01*
X18608000Y-50116000D02*
X18608000Y-51244000D01*
X18567000Y-47322000D02*
X18567000Y-48436000D01*
X18567000Y-50116000D02*
X18567000Y-51230000D01*
X18527000Y-47336000D02*
X18527000Y-48436000D01*
X18527000Y-50116000D02*
X18527000Y-51216000D01*
X18487000Y-47352000D02*
X18487000Y-48436000D01*
X18487000Y-50116000D02*
X18487000Y-51200000D01*
X18447000Y-47369000D02*
X18447000Y-48436000D01*
X18447000Y-50116000D02*
X18447000Y-51183000D01*
X18407000Y-47387000D02*
X18407000Y-48436000D01*
X18407000Y-50116000D02*
X18407000Y-51165000D01*
X18367000Y-47406000D02*
X18367000Y-48436000D01*
X18367000Y-50116000D02*
X18367000Y-51146000D01*
X18327000Y-47425000D02*
X18327000Y-48436000D01*
X18327000Y-50116000D02*
X18327000Y-51127000D01*
X18287000Y-47446000D02*
X18287000Y-48436000D01*
X18287000Y-50116000D02*
X18287000Y-51106000D01*
X18247000Y-47468000D02*
X18247000Y-48436000D01*
X18247000Y-50116000D02*
X18247000Y-51084000D01*
X18207000Y-47491000D02*
X18207000Y-48436000D01*
X18207000Y-50116000D02*
X18207000Y-51061000D01*
X18167000Y-47516000D02*
X18167000Y-48436000D01*
X18167000Y-50116000D02*
X18167000Y-51036000D01*
X18127000Y-47541000D02*
X18127000Y-48436000D01*
X18127000Y-50116000D02*
X18127000Y-51011000D01*
X18087000Y-47568000D02*
X18087000Y-48436000D01*
X18087000Y-50116000D02*
X18087000Y-50984000D01*
X18047000Y-47596000D02*
X18047000Y-48436000D01*
X18047000Y-50116000D02*
X18047000Y-50956000D01*
X18007000Y-47626000D02*
X18007000Y-48436000D01*
X18007000Y-50116000D02*
X18007000Y-50926000D01*
X17967000Y-47657000D02*
X17967000Y-48436000D01*
X17967000Y-50116000D02*
X17967000Y-50895000D01*
X17927000Y-47689000D02*
X17927000Y-48436000D01*
X17927000Y-50116000D02*
X17927000Y-50863000D01*
X17887000Y-47724000D02*
X17887000Y-48436000D01*
X17887000Y-50116000D02*
X17887000Y-50828000D01*
X17847000Y-47760000D02*
X17847000Y-48436000D01*
X17847000Y-50116000D02*
X17847000Y-50792000D01*
X17807000Y-47798000D02*
X17807000Y-48436000D01*
X17807000Y-50116000D02*
X17807000Y-50754000D01*
X17767000Y-47838000D02*
X17767000Y-48436000D01*
X17767000Y-50116000D02*
X17767000Y-50714000D01*
X17727000Y-47880000D02*
X17727000Y-48436000D01*
X17727000Y-50116000D02*
X17727000Y-50672000D01*
X17687000Y-47925000D02*
X17687000Y-48436000D01*
X17687000Y-50116000D02*
X17687000Y-50627000D01*
X17647000Y-47972000D02*
X17647000Y-48436000D01*
X17647000Y-50116000D02*
X17647000Y-50580000D01*
X17607000Y-48022000D02*
X17607000Y-48436000D01*
X17607000Y-50116000D02*
X17607000Y-50530000D01*
X17567000Y-48076000D02*
X17567000Y-48436000D01*
X17567000Y-50116000D02*
X17567000Y-50476000D01*
X17527000Y-48134000D02*
X17527000Y-48436000D01*
X17527000Y-50116000D02*
X17527000Y-50418000D01*
X17487000Y-48196000D02*
X17487000Y-48436000D01*
X17487000Y-50116000D02*
X17487000Y-50356000D01*
X17447000Y-48263000D02*
X17447000Y-50289000D01*
X17407000Y-48336000D02*
X17407000Y-50216000D01*
X17367000Y-48417000D02*
X17367000Y-50135000D01*
X17327000Y-48508000D02*
X17327000Y-50044000D01*
X17287000Y-48612000D02*
X17287000Y-49940000D01*
X17247000Y-48739000D02*
X17247000Y-49813000D01*
X17207000Y-48906000D02*
X17207000Y-49646000D01*
X21557801Y-48081000D02*
X21157801Y-48081000D01*
X21357801Y-47881000D02*
X21357801Y-48281000D01*
X143025000Y-60475000D02*
X143025000Y-67715000D01*
X145265000Y-60475000D02*
X145265000Y-67715000D01*
X143025000Y-60475000D02*
X145265000Y-60475000D01*
X143025000Y-67715000D02*
X145265000Y-67715000D01*
X125245000Y-60475000D02*
X125245000Y-67715000D01*
X127485000Y-60475000D02*
X127485000Y-67715000D01*
X125245000Y-60475000D02*
X127485000Y-60475000D01*
X125245000Y-67715000D02*
X127485000Y-67715000D01*
X107592000Y-60428000D02*
X107592000Y-67668000D01*
X109832000Y-60428000D02*
X109832000Y-67668000D01*
X107592000Y-60428000D02*
X109832000Y-60428000D01*
X107592000Y-67668000D02*
X109832000Y-67668000D01*
X88415000Y-59205000D02*
X88415000Y-66445000D01*
X90655000Y-59205000D02*
X90655000Y-66445000D01*
X88415000Y-59205000D02*
X90655000Y-59205000D01*
X88415000Y-66445000D02*
X90655000Y-66445000D01*
X155725000Y-62635000D02*
X157965000Y-62635000D01*
X155725000Y-55395000D02*
X157965000Y-55395000D01*
X157965000Y-55395000D02*
X157965000Y-62635000D01*
X155725000Y-55395000D02*
X155725000Y-62635000D01*
X74780000Y-53110000D02*
X74780000Y-45870000D01*
X72540000Y-53110000D02*
X72540000Y-45870000D01*
X74780000Y-53110000D02*
X72540000Y-53110000D01*
X74780000Y-45870000D02*
X72540000Y-45870000D01*
X41175000Y-55150000D02*
X43915000Y-55150000D01*
X43915000Y-55150000D02*
X43915000Y-61690000D01*
X43915000Y-61690000D02*
X41175000Y-61690000D01*
X41175000Y-61690000D02*
X41175000Y-55150000D01*
X42545000Y-54380000D02*
X42545000Y-55150000D01*
X42545000Y-62460000D02*
X42545000Y-61690000D01*
X18315000Y-55150000D02*
X21055000Y-55150000D01*
X21055000Y-55150000D02*
X21055000Y-61690000D01*
X21055000Y-61690000D02*
X18315000Y-61690000D01*
X18315000Y-61690000D02*
X18315000Y-55150000D01*
X19685000Y-54380000D02*
X19685000Y-55150000D01*
X19685000Y-62460000D02*
X19685000Y-61690000D01*
X37365000Y-55150000D02*
X40105000Y-55150000D01*
X40105000Y-55150000D02*
X40105000Y-61690000D01*
X40105000Y-61690000D02*
X37365000Y-61690000D01*
X37365000Y-61690000D02*
X37365000Y-55150000D01*
X38735000Y-54380000D02*
X38735000Y-55150000D01*
X38735000Y-62460000D02*
X38735000Y-61690000D01*
X24865000Y-61690000D02*
X22125000Y-61690000D01*
X22125000Y-61690000D02*
X22125000Y-55150000D01*
X22125000Y-55150000D02*
X24865000Y-55150000D01*
X24865000Y-55150000D02*
X24865000Y-61690000D01*
X23495000Y-62460000D02*
X23495000Y-61690000D01*
X23495000Y-54380000D02*
X23495000Y-55150000D01*
X32485000Y-61690000D02*
X29745000Y-61690000D01*
X29745000Y-61690000D02*
X29745000Y-55150000D01*
X29745000Y-55150000D02*
X32485000Y-55150000D01*
X32485000Y-55150000D02*
X32485000Y-61690000D01*
X31115000Y-62460000D02*
X31115000Y-61690000D01*
X31115000Y-54380000D02*
X31115000Y-55150000D01*
X36295000Y-61690000D02*
X33555000Y-61690000D01*
X33555000Y-61690000D02*
X33555000Y-55150000D01*
X33555000Y-55150000D02*
X36295000Y-55150000D01*
X36295000Y-55150000D02*
X36295000Y-61690000D01*
X34925000Y-62460000D02*
X34925000Y-61690000D01*
X34925000Y-54380000D02*
X34925000Y-55150000D01*
X28675000Y-61690000D02*
X25935000Y-61690000D01*
X25935000Y-61690000D02*
X25935000Y-55150000D01*
X25935000Y-55150000D02*
X28675000Y-55150000D01*
X28675000Y-55150000D02*
X28675000Y-61690000D01*
X27305000Y-62460000D02*
X27305000Y-61690000D01*
X27305000Y-54380000D02*
X27305000Y-55150000D01*
D10*
X52998666Y-56162380D02*
X53332000Y-55686190D01*
X53570095Y-56162380D02*
X53570095Y-55162380D01*
X53189142Y-55162380D01*
X53093904Y-55210000D01*
X53046285Y-55257619D01*
X52998666Y-55352857D01*
X52998666Y-55495714D01*
X53046285Y-55590952D01*
X53093904Y-55638571D01*
X53189142Y-55686190D01*
X53570095Y-55686190D01*
X52141523Y-55495714D02*
X52141523Y-56162380D01*
X52379619Y-55114761D02*
X52617714Y-55829047D01*
X51998666Y-55829047D01*
X63444380Y-39965333D02*
X62968190Y-39632000D01*
X63444380Y-39393904D02*
X62444380Y-39393904D01*
X62444380Y-39774857D01*
X62492000Y-39870095D01*
X62539619Y-39917714D01*
X62634857Y-39965333D01*
X62777714Y-39965333D01*
X62872952Y-39917714D01*
X62920571Y-39870095D01*
X62968190Y-39774857D01*
X62968190Y-39393904D01*
X62444380Y-40298666D02*
X62444380Y-40917714D01*
X62825333Y-40584380D01*
X62825333Y-40727238D01*
X62872952Y-40822476D01*
X62920571Y-40870095D01*
X63015809Y-40917714D01*
X63253904Y-40917714D01*
X63349142Y-40870095D01*
X63396761Y-40822476D01*
X63444380Y-40727238D01*
X63444380Y-40441523D01*
X63396761Y-40346285D01*
X63349142Y-40298666D01*
X52998666Y-60226380D02*
X53332000Y-59750190D01*
X53570095Y-60226380D02*
X53570095Y-59226380D01*
X53189142Y-59226380D01*
X53093904Y-59274000D01*
X53046285Y-59321619D01*
X52998666Y-59416857D01*
X52998666Y-59559714D01*
X53046285Y-59654952D01*
X53093904Y-59702571D01*
X53189142Y-59750190D01*
X53570095Y-59750190D01*
X52617714Y-59321619D02*
X52570095Y-59274000D01*
X52474857Y-59226380D01*
X52236761Y-59226380D01*
X52141523Y-59274000D01*
X52093904Y-59321619D01*
X52046285Y-59416857D01*
X52046285Y-59512095D01*
X52093904Y-59654952D01*
X52665333Y-60226380D01*
X52046285Y-60226380D01*
X66492380Y-39965333D02*
X66016190Y-39632000D01*
X66492380Y-39393904D02*
X65492380Y-39393904D01*
X65492380Y-39774857D01*
X65540000Y-39870095D01*
X65587619Y-39917714D01*
X65682857Y-39965333D01*
X65825714Y-39965333D01*
X65920952Y-39917714D01*
X65968571Y-39870095D01*
X66016190Y-39774857D01*
X66016190Y-39393904D01*
X66492380Y-40917714D02*
X66492380Y-40346285D01*
X66492380Y-40632000D02*
X65492380Y-40632000D01*
X65635238Y-40536761D01*
X65730476Y-40441523D01*
X65778095Y-40346285D01*
X15573333Y-61428380D02*
X15573333Y-62142666D01*
X15620952Y-62285523D01*
X15716190Y-62380761D01*
X15859047Y-62428380D01*
X15954285Y-62428380D01*
X14573333Y-62428380D02*
X15144761Y-62428380D01*
X14859047Y-62428380D02*
X14859047Y-61428380D01*
X14954285Y-61571238D01*
X15049523Y-61666476D01*
X15144761Y-61714095D01*
X16930666Y-47601142D02*
X16978285Y-47648761D01*
X17121142Y-47696380D01*
X17216380Y-47696380D01*
X17359238Y-47648761D01*
X17454476Y-47553523D01*
X17502095Y-47458285D01*
X17549714Y-47267809D01*
X17549714Y-47124952D01*
X17502095Y-46934476D01*
X17454476Y-46839238D01*
X17359238Y-46744000D01*
X17216380Y-46696380D01*
X17121142Y-46696380D01*
X16978285Y-46744000D01*
X16930666Y-46791619D01*
X16549714Y-46791619D02*
X16502095Y-46744000D01*
X16406857Y-46696380D01*
X16168761Y-46696380D01*
X16073523Y-46744000D01*
X16025904Y-46791619D01*
X15978285Y-46886857D01*
X15978285Y-46982095D01*
X16025904Y-47124952D01*
X16597333Y-47696380D01*
X15978285Y-47696380D01*
X22010666Y-47601142D02*
X22058285Y-47648761D01*
X22201142Y-47696380D01*
X22296380Y-47696380D01*
X22439238Y-47648761D01*
X22534476Y-47553523D01*
X22582095Y-47458285D01*
X22629714Y-47267809D01*
X22629714Y-47124952D01*
X22582095Y-46934476D01*
X22534476Y-46839238D01*
X22439238Y-46744000D01*
X22296380Y-46696380D01*
X22201142Y-46696380D01*
X22058285Y-46744000D01*
X22010666Y-46791619D01*
X21058285Y-47696380D02*
X21629714Y-47696380D01*
X21344000Y-47696380D02*
X21344000Y-46696380D01*
X21439238Y-46839238D01*
X21534476Y-46934476D01*
X21629714Y-46982095D01*
X144502142Y-58888333D02*
X144549761Y-58840714D01*
X144597380Y-58697857D01*
X144597380Y-58602619D01*
X144549761Y-58459761D01*
X144454523Y-58364523D01*
X144359285Y-58316904D01*
X144168809Y-58269285D01*
X144025952Y-58269285D01*
X143835476Y-58316904D01*
X143740238Y-58364523D01*
X143645000Y-58459761D01*
X143597380Y-58602619D01*
X143597380Y-58697857D01*
X143645000Y-58840714D01*
X143692619Y-58888333D01*
X144597380Y-59364523D02*
X144597380Y-59555000D01*
X144549761Y-59650238D01*
X144502142Y-59697857D01*
X144359285Y-59793095D01*
X144168809Y-59840714D01*
X143787857Y-59840714D01*
X143692619Y-59793095D01*
X143645000Y-59745476D01*
X143597380Y-59650238D01*
X143597380Y-59459761D01*
X143645000Y-59364523D01*
X143692619Y-59316904D01*
X143787857Y-59269285D01*
X144025952Y-59269285D01*
X144121190Y-59316904D01*
X144168809Y-59364523D01*
X144216428Y-59459761D01*
X144216428Y-59650238D01*
X144168809Y-59745476D01*
X144121190Y-59793095D01*
X144025952Y-59840714D01*
X126722142Y-58888333D02*
X126769761Y-58840714D01*
X126817380Y-58697857D01*
X126817380Y-58602619D01*
X126769761Y-58459761D01*
X126674523Y-58364523D01*
X126579285Y-58316904D01*
X126388809Y-58269285D01*
X126245952Y-58269285D01*
X126055476Y-58316904D01*
X125960238Y-58364523D01*
X125865000Y-58459761D01*
X125817380Y-58602619D01*
X125817380Y-58697857D01*
X125865000Y-58840714D01*
X125912619Y-58888333D01*
X126245952Y-59459761D02*
X126198333Y-59364523D01*
X126150714Y-59316904D01*
X126055476Y-59269285D01*
X126007857Y-59269285D01*
X125912619Y-59316904D01*
X125865000Y-59364523D01*
X125817380Y-59459761D01*
X125817380Y-59650238D01*
X125865000Y-59745476D01*
X125912619Y-59793095D01*
X126007857Y-59840714D01*
X126055476Y-59840714D01*
X126150714Y-59793095D01*
X126198333Y-59745476D01*
X126245952Y-59650238D01*
X126245952Y-59459761D01*
X126293571Y-59364523D01*
X126341190Y-59316904D01*
X126436428Y-59269285D01*
X126626904Y-59269285D01*
X126722142Y-59316904D01*
X126769761Y-59364523D01*
X126817380Y-59459761D01*
X126817380Y-59650238D01*
X126769761Y-59745476D01*
X126722142Y-59793095D01*
X126626904Y-59840714D01*
X126436428Y-59840714D01*
X126341190Y-59793095D01*
X126293571Y-59745476D01*
X126245952Y-59650238D01*
X108561142Y-58841333D02*
X108608761Y-58793714D01*
X108656380Y-58650857D01*
X108656380Y-58555619D01*
X108608761Y-58412761D01*
X108513523Y-58317523D01*
X108418285Y-58269904D01*
X108227809Y-58222285D01*
X108084952Y-58222285D01*
X107894476Y-58269904D01*
X107799238Y-58317523D01*
X107704000Y-58412761D01*
X107656380Y-58555619D01*
X107656380Y-58650857D01*
X107704000Y-58793714D01*
X107751619Y-58841333D01*
X107656380Y-59174666D02*
X107656380Y-59841333D01*
X108656380Y-59412761D01*
X89765142Y-57745333D02*
X89812761Y-57697714D01*
X89860380Y-57554857D01*
X89860380Y-57459619D01*
X89812761Y-57316761D01*
X89717523Y-57221523D01*
X89622285Y-57173904D01*
X89431809Y-57126285D01*
X89288952Y-57126285D01*
X89098476Y-57173904D01*
X89003238Y-57221523D01*
X88908000Y-57316761D01*
X88860380Y-57459619D01*
X88860380Y-57554857D01*
X88908000Y-57697714D01*
X88955619Y-57745333D01*
X88860380Y-58602476D02*
X88860380Y-58412000D01*
X88908000Y-58316761D01*
X88955619Y-58269142D01*
X89098476Y-58173904D01*
X89288952Y-58126285D01*
X89669904Y-58126285D01*
X89765142Y-58173904D01*
X89812761Y-58221523D01*
X89860380Y-58316761D01*
X89860380Y-58507238D01*
X89812761Y-58602476D01*
X89765142Y-58650095D01*
X89669904Y-58697714D01*
X89431809Y-58697714D01*
X89336571Y-58650095D01*
X89288952Y-58602476D01*
X89241333Y-58507238D01*
X89241333Y-58316761D01*
X89288952Y-58221523D01*
X89336571Y-58173904D01*
X89431809Y-58126285D01*
X157202142Y-53808333D02*
X157249761Y-53760714D01*
X157297380Y-53617857D01*
X157297380Y-53522619D01*
X157249761Y-53379761D01*
X157154523Y-53284523D01*
X157059285Y-53236904D01*
X156868809Y-53189285D01*
X156725952Y-53189285D01*
X156535476Y-53236904D01*
X156440238Y-53284523D01*
X156345000Y-53379761D01*
X156297380Y-53522619D01*
X156297380Y-53617857D01*
X156345000Y-53760714D01*
X156392619Y-53808333D01*
X156297380Y-54713095D02*
X156297380Y-54236904D01*
X156773571Y-54189285D01*
X156725952Y-54236904D01*
X156678333Y-54332142D01*
X156678333Y-54570238D01*
X156725952Y-54665476D01*
X156773571Y-54713095D01*
X156868809Y-54760714D01*
X157106904Y-54760714D01*
X157202142Y-54713095D01*
X157249761Y-54665476D01*
X157297380Y-54570238D01*
X157297380Y-54332142D01*
X157249761Y-54236904D01*
X157202142Y-54189285D01*
X76267142Y-49323333D02*
X76314761Y-49275714D01*
X76362380Y-49132857D01*
X76362380Y-49037619D01*
X76314761Y-48894761D01*
X76219523Y-48799523D01*
X76124285Y-48751904D01*
X75933809Y-48704285D01*
X75790952Y-48704285D01*
X75600476Y-48751904D01*
X75505238Y-48799523D01*
X75410000Y-48894761D01*
X75362380Y-49037619D01*
X75362380Y-49132857D01*
X75410000Y-49275714D01*
X75457619Y-49323333D01*
X75362380Y-49656666D02*
X75362380Y-50275714D01*
X75743333Y-49942380D01*
X75743333Y-50085238D01*
X75790952Y-50180476D01*
X75838571Y-50228095D01*
X75933809Y-50275714D01*
X76171904Y-50275714D01*
X76267142Y-50228095D01*
X76314761Y-50180476D01*
X76362380Y-50085238D01*
X76362380Y-49799523D01*
X76314761Y-49704285D01*
X76267142Y-49656666D01*
X42997380Y-65397142D02*
X42521190Y-65063809D01*
X42997380Y-64825714D02*
X41997380Y-64825714D01*
X41997380Y-65206666D01*
X42045000Y-65301904D01*
X42092619Y-65349523D01*
X42187857Y-65397142D01*
X42330714Y-65397142D01*
X42425952Y-65349523D01*
X42473571Y-65301904D01*
X42521190Y-65206666D01*
X42521190Y-64825714D01*
X42997380Y-66349523D02*
X42997380Y-65778095D01*
X42997380Y-66063809D02*
X41997380Y-66063809D01*
X42140238Y-65968571D01*
X42235476Y-65873333D01*
X42283095Y-65778095D01*
X42997380Y-67301904D02*
X42997380Y-66730476D01*
X42997380Y-67016190D02*
X41997380Y-67016190D01*
X42140238Y-66920952D01*
X42235476Y-66825714D01*
X42283095Y-66730476D01*
X20137380Y-65397142D02*
X19661190Y-65063809D01*
X20137380Y-64825714D02*
X19137380Y-64825714D01*
X19137380Y-65206666D01*
X19185000Y-65301904D01*
X19232619Y-65349523D01*
X19327857Y-65397142D01*
X19470714Y-65397142D01*
X19565952Y-65349523D01*
X19613571Y-65301904D01*
X19661190Y-65206666D01*
X19661190Y-64825714D01*
X20137380Y-66349523D02*
X20137380Y-65778095D01*
X20137380Y-66063809D02*
X19137380Y-66063809D01*
X19280238Y-65968571D01*
X19375476Y-65873333D01*
X19423095Y-65778095D01*
X19137380Y-66968571D02*
X19137380Y-67063809D01*
X19185000Y-67159047D01*
X19232619Y-67206666D01*
X19327857Y-67254285D01*
X19518333Y-67301904D01*
X19756428Y-67301904D01*
X19946904Y-67254285D01*
X20042142Y-67206666D01*
X20089761Y-67159047D01*
X20137380Y-67063809D01*
X20137380Y-66968571D01*
X20089761Y-66873333D01*
X20042142Y-66825714D01*
X19946904Y-66778095D01*
X19756428Y-66730476D01*
X19518333Y-66730476D01*
X19327857Y-66778095D01*
X19232619Y-66825714D01*
X19185000Y-66873333D01*
X19137380Y-66968571D01*
X39187380Y-65873333D02*
X38711190Y-65540000D01*
X39187380Y-65301904D02*
X38187380Y-65301904D01*
X38187380Y-65682857D01*
X38235000Y-65778095D01*
X38282619Y-65825714D01*
X38377857Y-65873333D01*
X38520714Y-65873333D01*
X38615952Y-65825714D01*
X38663571Y-65778095D01*
X38711190Y-65682857D01*
X38711190Y-65301904D01*
X39187380Y-66349523D02*
X39187380Y-66540000D01*
X39139761Y-66635238D01*
X39092142Y-66682857D01*
X38949285Y-66778095D01*
X38758809Y-66825714D01*
X38377857Y-66825714D01*
X38282619Y-66778095D01*
X38235000Y-66730476D01*
X38187380Y-66635238D01*
X38187380Y-66444761D01*
X38235000Y-66349523D01*
X38282619Y-66301904D01*
X38377857Y-66254285D01*
X38615952Y-66254285D01*
X38711190Y-66301904D01*
X38758809Y-66349523D01*
X38806428Y-66444761D01*
X38806428Y-66635238D01*
X38758809Y-66730476D01*
X38711190Y-66778095D01*
X38615952Y-66825714D01*
X23947380Y-65873333D02*
X23471190Y-65540000D01*
X23947380Y-65301904D02*
X22947380Y-65301904D01*
X22947380Y-65682857D01*
X22995000Y-65778095D01*
X23042619Y-65825714D01*
X23137857Y-65873333D01*
X23280714Y-65873333D01*
X23375952Y-65825714D01*
X23423571Y-65778095D01*
X23471190Y-65682857D01*
X23471190Y-65301904D01*
X23375952Y-66444761D02*
X23328333Y-66349523D01*
X23280714Y-66301904D01*
X23185476Y-66254285D01*
X23137857Y-66254285D01*
X23042619Y-66301904D01*
X22995000Y-66349523D01*
X22947380Y-66444761D01*
X22947380Y-66635238D01*
X22995000Y-66730476D01*
X23042619Y-66778095D01*
X23137857Y-66825714D01*
X23185476Y-66825714D01*
X23280714Y-66778095D01*
X23328333Y-66730476D01*
X23375952Y-66635238D01*
X23375952Y-66444761D01*
X23423571Y-66349523D01*
X23471190Y-66301904D01*
X23566428Y-66254285D01*
X23756904Y-66254285D01*
X23852142Y-66301904D01*
X23899761Y-66349523D01*
X23947380Y-66444761D01*
X23947380Y-66635238D01*
X23899761Y-66730476D01*
X23852142Y-66778095D01*
X23756904Y-66825714D01*
X23566428Y-66825714D01*
X23471190Y-66778095D01*
X23423571Y-66730476D01*
X23375952Y-66635238D01*
X31567380Y-65873333D02*
X31091190Y-65540000D01*
X31567380Y-65301904D02*
X30567380Y-65301904D01*
X30567380Y-65682857D01*
X30615000Y-65778095D01*
X30662619Y-65825714D01*
X30757857Y-65873333D01*
X30900714Y-65873333D01*
X30995952Y-65825714D01*
X31043571Y-65778095D01*
X31091190Y-65682857D01*
X31091190Y-65301904D01*
X30567380Y-66206666D02*
X30567380Y-66873333D01*
X31567380Y-66444761D01*
X35377380Y-65873333D02*
X34901190Y-65540000D01*
X35377380Y-65301904D02*
X34377380Y-65301904D01*
X34377380Y-65682857D01*
X34425000Y-65778095D01*
X34472619Y-65825714D01*
X34567857Y-65873333D01*
X34710714Y-65873333D01*
X34805952Y-65825714D01*
X34853571Y-65778095D01*
X34901190Y-65682857D01*
X34901190Y-65301904D01*
X34377380Y-66730476D02*
X34377380Y-66540000D01*
X34425000Y-66444761D01*
X34472619Y-66397142D01*
X34615476Y-66301904D01*
X34805952Y-66254285D01*
X35186904Y-66254285D01*
X35282142Y-66301904D01*
X35329761Y-66349523D01*
X35377380Y-66444761D01*
X35377380Y-66635238D01*
X35329761Y-66730476D01*
X35282142Y-66778095D01*
X35186904Y-66825714D01*
X34948809Y-66825714D01*
X34853571Y-66778095D01*
X34805952Y-66730476D01*
X34758333Y-66635238D01*
X34758333Y-66444761D01*
X34805952Y-66349523D01*
X34853571Y-66301904D01*
X34948809Y-66254285D01*
X27757380Y-65873333D02*
X27281190Y-65540000D01*
X27757380Y-65301904D02*
X26757380Y-65301904D01*
X26757380Y-65682857D01*
X26805000Y-65778095D01*
X26852619Y-65825714D01*
X26947857Y-65873333D01*
X27090714Y-65873333D01*
X27185952Y-65825714D01*
X27233571Y-65778095D01*
X27281190Y-65682857D01*
X27281190Y-65301904D01*
X26757380Y-66778095D02*
X26757380Y-66301904D01*
X27233571Y-66254285D01*
X27185952Y-66301904D01*
X27138333Y-66397142D01*
X27138333Y-66635238D01*
X27185952Y-66730476D01*
X27233571Y-66778095D01*
X27328809Y-66825714D01*
X27566904Y-66825714D01*
X27662142Y-66778095D01*
X27709761Y-66730476D01*
X27757380Y-66635238D01*
X27757380Y-66397142D01*
X27709761Y-66301904D01*
X27662142Y-66254285D01*
%LPC*%
D12*
X173355000Y-40640000D03*
X17780000Y-40640000D03*
X187325000Y-69215000D03*
X187325000Y-13970000D03*
D13*
X57912000Y-53340000D03*
D14*
X47752000Y-53340000D03*
D13*
X62992000Y-42164000D03*
D14*
X62992000Y-52324000D03*
D13*
X57912000Y-57404000D03*
D14*
X47752000Y-57404000D03*
D13*
X66548000Y-42164000D03*
D14*
X66548000Y-52324000D03*
D15*
X187325000Y-50165000D03*
X187325000Y-47625000D03*
X187325000Y-52705000D03*
X187325000Y-55245000D03*
X187325000Y-57785000D03*
X187325000Y-60325000D03*
X187325000Y-62865000D03*
X14605000Y-54991000D03*
X14605000Y-57531000D03*
X14605000Y-60071000D03*
D16*
X13208000Y-49276000D03*
D17*
X15208000Y-49276000D03*
D16*
X18288000Y-49276000D03*
D17*
X20288000Y-49276000D03*
D14*
X144145000Y-61595000D03*
X144145000Y-66595000D03*
X126365000Y-61595000D03*
X126365000Y-66595000D03*
X108712000Y-61548000D03*
X108712000Y-66548000D03*
X89535000Y-60325000D03*
X89535000Y-65325000D03*
X156845000Y-61515000D03*
X156845000Y-56515000D03*
X184785000Y-43180000D03*
X189785000Y-43180000D03*
X73660000Y-51990000D03*
X73660000Y-46990000D03*
D18*
X140335000Y-48895000D03*
D13*
X147955000Y-66675000D03*
X140335000Y-51435000D03*
X147955000Y-64135000D03*
X140335000Y-53975000D03*
X147955000Y-61595000D03*
X140335000Y-56515000D03*
X147955000Y-59055000D03*
X140335000Y-59055000D03*
X147955000Y-56515000D03*
X140335000Y-61595000D03*
X147955000Y-53975000D03*
X140335000Y-64135000D03*
X147955000Y-51435000D03*
X140335000Y-66675000D03*
X147955000Y-48895000D03*
D18*
X122555000Y-48895000D03*
D13*
X130175000Y-66675000D03*
X122555000Y-51435000D03*
X130175000Y-64135000D03*
X122555000Y-53975000D03*
X130175000Y-61595000D03*
X122555000Y-56515000D03*
X130175000Y-59055000D03*
X122555000Y-59055000D03*
X130175000Y-56515000D03*
X122555000Y-61595000D03*
X130175000Y-53975000D03*
X122555000Y-64135000D03*
X130175000Y-51435000D03*
X122555000Y-66675000D03*
X130175000Y-48895000D03*
D18*
X104775000Y-48895000D03*
D13*
X112395000Y-66675000D03*
X104775000Y-51435000D03*
X112395000Y-64135000D03*
X104775000Y-53975000D03*
X112395000Y-61595000D03*
X104775000Y-56515000D03*
X112395000Y-59055000D03*
X104775000Y-59055000D03*
X112395000Y-56515000D03*
X104775000Y-61595000D03*
X112395000Y-53975000D03*
X104775000Y-64135000D03*
X112395000Y-51435000D03*
X104775000Y-66675000D03*
X112395000Y-48895000D03*
D18*
X86995000Y-48895000D03*
D13*
X94615000Y-66675000D03*
X86995000Y-51435000D03*
X94615000Y-64135000D03*
X86995000Y-53975000D03*
X94615000Y-61595000D03*
X86995000Y-56515000D03*
X94615000Y-59055000D03*
X86995000Y-59055000D03*
X94615000Y-56515000D03*
X86995000Y-61595000D03*
X94615000Y-53975000D03*
X86995000Y-64135000D03*
X94615000Y-51435000D03*
X86995000Y-66675000D03*
X94615000Y-48895000D03*
X160020000Y-48895000D03*
X152400000Y-66675000D03*
X160020000Y-51435000D03*
X152400000Y-64135000D03*
X160020000Y-53975000D03*
X152400000Y-61595000D03*
X160020000Y-56515000D03*
X152400000Y-59055000D03*
X160020000Y-59055000D03*
X152400000Y-56515000D03*
X160020000Y-61595000D03*
X152400000Y-53975000D03*
X160020000Y-64135000D03*
X152400000Y-51435000D03*
X160020000Y-66675000D03*
D18*
X152400000Y-48895000D03*
D13*
X191135000Y-19685000D03*
X183515000Y-40005000D03*
X191135000Y-22225000D03*
X183515000Y-37465000D03*
X191135000Y-24765000D03*
X183515000Y-34925000D03*
X191135000Y-27305000D03*
X183515000Y-32385000D03*
X191135000Y-29845000D03*
X183515000Y-29845000D03*
X191135000Y-32385000D03*
X183515000Y-27305000D03*
X191135000Y-34925000D03*
X183515000Y-24765000D03*
X191135000Y-37465000D03*
X183515000Y-22225000D03*
X191135000Y-40005000D03*
D18*
X183515000Y-19685000D03*
X69850000Y-46990000D03*
D13*
X77470000Y-69850000D03*
X69850000Y-49530000D03*
X77470000Y-67310000D03*
X69850000Y-52070000D03*
X77470000Y-64770000D03*
X69850000Y-54610000D03*
X77470000Y-62230000D03*
X69850000Y-57150000D03*
X77470000Y-59690000D03*
X69850000Y-59690000D03*
X77470000Y-57150000D03*
X69850000Y-62230000D03*
X77470000Y-54610000D03*
X69850000Y-64770000D03*
X77470000Y-52070000D03*
X69850000Y-67310000D03*
X77470000Y-49530000D03*
X69850000Y-69850000D03*
X77470000Y-46990000D03*
D19*
X57785000Y-45470000D03*
X55245000Y-45470000D03*
X52705000Y-45470000D03*
X50165000Y-45470000D03*
X47625000Y-45470000D03*
X45085000Y-45470000D03*
X42545000Y-45470000D03*
X40005000Y-45470000D03*
X37465000Y-45470000D03*
X34925000Y-45470000D03*
X32385000Y-45470000D03*
X29845000Y-45470000D03*
X27305000Y-45470000D03*
X24765000Y-45470000D03*
X22225000Y-45470000D03*
X19685000Y-45470000D03*
X17145000Y-45470000D03*
X14605000Y-45470000D03*
X12065000Y-45470000D03*
X12065000Y-71370000D03*
X14605000Y-71370000D03*
X17145000Y-71370000D03*
X19685000Y-71370000D03*
X22225000Y-71370000D03*
X24765000Y-71370000D03*
X27305000Y-71370000D03*
X29845000Y-71370000D03*
X32385000Y-71370000D03*
X34925000Y-71370000D03*
X37465000Y-71370000D03*
X40005000Y-71370000D03*
X42545000Y-71370000D03*
X45085000Y-71370000D03*
X47625000Y-71370000D03*
X50165000Y-71370000D03*
X52705000Y-71370000D03*
X55245000Y-71370000D03*
X57785000Y-71370000D03*
D13*
X176530000Y-34290000D03*
D14*
X176530000Y-24130000D03*
D13*
X171450000Y-34290000D03*
D14*
X171450000Y-24130000D03*
D13*
X166370000Y-34290000D03*
D14*
X166370000Y-24130000D03*
D13*
X161290000Y-34290000D03*
D14*
X161290000Y-24130000D03*
D13*
X156210000Y-34290000D03*
D14*
X156210000Y-24130000D03*
D13*
X151130000Y-34290000D03*
D14*
X151130000Y-24130000D03*
D13*
X146050000Y-34290000D03*
D14*
X146050000Y-24130000D03*
D13*
X140970000Y-34290000D03*
D14*
X140970000Y-24130000D03*
D13*
X134620000Y-34290000D03*
D14*
X134620000Y-24130000D03*
D13*
X129540000Y-34290000D03*
D14*
X129540000Y-24130000D03*
D13*
X124460000Y-34290000D03*
D14*
X124460000Y-24130000D03*
D13*
X119380000Y-34290000D03*
D14*
X119380000Y-24130000D03*
D13*
X114300000Y-34290000D03*
D14*
X114300000Y-24130000D03*
D13*
X109220000Y-34290000D03*
D14*
X109220000Y-24130000D03*
D13*
X104140000Y-34290000D03*
D14*
X104140000Y-24130000D03*
D13*
X99060000Y-34290000D03*
D14*
X99060000Y-24130000D03*
D13*
X92710000Y-34290000D03*
D14*
X92710000Y-24130000D03*
D13*
X87630000Y-34290000D03*
D14*
X87630000Y-24130000D03*
D13*
X82550000Y-34290000D03*
D14*
X82550000Y-24130000D03*
D13*
X77470000Y-34290000D03*
D14*
X77470000Y-24130000D03*
D13*
X72390000Y-34290000D03*
D14*
X72390000Y-24130000D03*
D13*
X67310000Y-34290000D03*
D14*
X67310000Y-24130000D03*
D13*
X62230000Y-34290000D03*
D14*
X62230000Y-24130000D03*
D13*
X57150000Y-34290000D03*
D14*
X57150000Y-24130000D03*
D13*
X50800000Y-34290000D03*
D14*
X50800000Y-24130000D03*
D13*
X45720000Y-34290000D03*
D14*
X45720000Y-24130000D03*
D13*
X40640000Y-34290000D03*
D14*
X40640000Y-24130000D03*
D13*
X35560000Y-34290000D03*
D14*
X35560000Y-24130000D03*
D13*
X30480000Y-34290000D03*
D14*
X30480000Y-24130000D03*
D13*
X25400000Y-34290000D03*
D14*
X25400000Y-24130000D03*
D13*
X20320000Y-34290000D03*
D14*
X20320000Y-24130000D03*
D13*
X15240000Y-34290000D03*
D14*
X15240000Y-24130000D03*
D13*
X164465000Y-46990000D03*
D14*
X174625000Y-46990000D03*
D13*
X164465000Y-50165000D03*
D14*
X174625000Y-50165000D03*
D13*
X164465000Y-53340000D03*
D14*
X174625000Y-53340000D03*
D13*
X164465000Y-56515000D03*
D14*
X174625000Y-56515000D03*
D13*
X164465000Y-59690000D03*
D14*
X174625000Y-59690000D03*
D13*
X164465000Y-62865000D03*
D14*
X174625000Y-62865000D03*
D13*
X164465000Y-66040000D03*
D14*
X174625000Y-66040000D03*
D13*
X164465000Y-69215000D03*
D14*
X174625000Y-69215000D03*
D13*
X42545000Y-63500000D03*
D14*
X42545000Y-53340000D03*
D13*
X19685000Y-63500000D03*
D14*
X19685000Y-53340000D03*
D13*
X38735000Y-63500000D03*
D14*
X38735000Y-53340000D03*
D13*
X23495000Y-53340000D03*
D14*
X23495000Y-63500000D03*
D13*
X31115000Y-53340000D03*
D14*
X31115000Y-63500000D03*
D13*
X34925000Y-53340000D03*
D14*
X34925000Y-63500000D03*
D13*
X27305000Y-53340000D03*
D14*
X27305000Y-63500000D03*
D20*
X176530000Y-17780000D03*
X171450000Y-17780000D03*
X166370000Y-17780000D03*
X161290000Y-17780000D03*
X156210000Y-17780000D03*
X151130000Y-17780000D03*
X146050000Y-17780000D03*
D21*
X140970000Y-17780000D03*
D20*
X134620000Y-17780000D03*
X129540000Y-17780000D03*
X124460000Y-17780000D03*
X119380000Y-17780000D03*
X114300000Y-17780000D03*
X109220000Y-17780000D03*
X104140000Y-17780000D03*
D21*
X99060000Y-17780000D03*
D20*
X92710000Y-17780000D03*
X87630000Y-17780000D03*
X82550000Y-17780000D03*
X77470000Y-17780000D03*
X72390000Y-17780000D03*
X67310000Y-17780000D03*
X62230000Y-17780000D03*
D21*
X57150000Y-17780000D03*
D20*
X50800000Y-17780000D03*
X45720000Y-17780000D03*
X40640000Y-17780000D03*
X35560000Y-17780000D03*
X30480000Y-17780000D03*
X25400000Y-17780000D03*
X20320000Y-17780000D03*
D21*
X15240000Y-17780000D03*
D20*
X200025000Y-50800000D03*
X200025000Y-45720000D03*
X200025000Y-40640000D03*
X200025000Y-35560000D03*
X200025000Y-30480000D03*
X200025000Y-25400000D03*
X200025000Y-20320000D03*
D21*
X200025000Y-15240000D03*
D22*
X200660000Y-64135000D03*
D23*
X200660000Y-60635000D03*
M02*
