%FSLAX45Y45*%
G04 Gerber Fmt 4.5, Leading zero omitted, Abs format (unit mm)*
G04 Created by KiCad (PCBNEW (5.1.10)-1) date 2023-10-25 11:47:02*
%MOMM*%
%LPD*%
G01*
G04 APERTURE LIST*
%TA.AperFunction,Profile*%
%ADD10C,0.050000*%
%TD*%
%ADD11C,0.200000*%
%ADD12C,0.300000*%
G04 APERTURE END LIST*
D10*
X11684000Y-1143000D02*
X28511500Y-1143000D01*
X11684000Y-9398000D02*
X11684000Y-1143000D01*
X28511500Y-9398000D02*
X11684000Y-9398000D01*
X28511500Y-1143000D02*
X28511500Y-9398000D01*
D11*
D12*
X11967928Y-9866214D02*
X11967928Y-9566214D01*
X12039357Y-9566214D01*
X12082214Y-9580500D01*
X12110786Y-9609072D01*
X12125071Y-9637643D01*
X12139357Y-9694786D01*
X12139357Y-9737643D01*
X12125071Y-9794786D01*
X12110786Y-9823357D01*
X12082214Y-9851929D01*
X12039357Y-9866214D01*
X11967928Y-9866214D01*
X12267928Y-9866214D02*
X12267928Y-9666214D01*
X12267928Y-9723357D02*
X12282214Y-9694786D01*
X12296500Y-9680500D01*
X12325071Y-9666214D01*
X12353643Y-9666214D01*
X12453643Y-9866214D02*
X12453643Y-9666214D01*
X12453643Y-9566214D02*
X12439357Y-9580500D01*
X12453643Y-9594786D01*
X12467928Y-9580500D01*
X12453643Y-9566214D01*
X12453643Y-9594786D01*
X12639357Y-9866214D02*
X12610786Y-9851929D01*
X12596500Y-9823357D01*
X12596500Y-9566214D01*
X12796500Y-9866214D02*
X12767928Y-9851929D01*
X12753643Y-9823357D01*
X12753643Y-9566214D01*
X13139357Y-9866214D02*
X13139357Y-9566214D01*
X13239357Y-9780500D01*
X13339357Y-9566214D01*
X13339357Y-9866214D01*
X13610786Y-9866214D02*
X13610786Y-9709072D01*
X13596500Y-9680500D01*
X13567928Y-9666214D01*
X13510786Y-9666214D01*
X13482214Y-9680500D01*
X13610786Y-9851929D02*
X13582214Y-9866214D01*
X13510786Y-9866214D01*
X13482214Y-9851929D01*
X13467928Y-9823357D01*
X13467928Y-9794786D01*
X13482214Y-9766214D01*
X13510786Y-9751929D01*
X13582214Y-9751929D01*
X13610786Y-9737643D01*
X13753643Y-9666214D02*
X13753643Y-9966214D01*
X13753643Y-9680500D02*
X13782214Y-9666214D01*
X13839357Y-9666214D01*
X13867928Y-9680500D01*
X13882214Y-9694786D01*
X13896500Y-9723357D01*
X13896500Y-9809072D01*
X13882214Y-9837643D01*
X13867928Y-9851929D01*
X13839357Y-9866214D01*
X13782214Y-9866214D01*
X13753643Y-9851929D01*
X14025071Y-9837643D02*
X14039357Y-9851929D01*
X14025071Y-9866214D01*
X14010786Y-9851929D01*
X14025071Y-9837643D01*
X14025071Y-9866214D01*
X14025071Y-9680500D02*
X14039357Y-9694786D01*
X14025071Y-9709072D01*
X14010786Y-9694786D01*
X14025071Y-9680500D01*
X14025071Y-9709072D01*
M02*
