M48
; DRILL file {KiCad (5.1.10)-1} date 10/25/23 11:47:01
; FORMAT={-:-/ absolute / metric / decimal}
; #@! TF.CreationDate,2023-10-25T11:47:01-04:00
; #@! TF.GenerationSoftware,Kicad,Pcbnew,(5.1.10)-1
; #@! TF.FileFunction,Plated,1,2,PTH
FMAT,2
METRIC
T1C0.400
T2C0.700
T3C0.762
T4C0.800
T5C1.200
T6C1.300
%
G90
G05
T1
X118.745Y-13.335
X118.745Y-92.075
X133.35Y-43.18
X137.16Y-36.195
X140.335Y-86.36
X142.875Y-72.39
X153.67Y-48.805
X156.21Y-48.895
X159.385Y-29.21
X160.02Y-37.465
X164.465Y-58.42
X176.53Y-44.45
X177.8Y-72.39
X179.07Y-36.195
X197.485Y-52.705
X201.295Y-29.21
X201.93Y-43.18
X208.915Y-41.275
X212.09Y-48.895
X215.9Y-86.36
X218.44Y-44.45
X220.98Y-36.195
X221.615Y-53.34
X232.41Y-76.835
X243.205Y-29.21
X243.84Y-52.07
X260.35Y-44.45
X283.21Y-13.335
X283.21Y-92.075
T2
X120.65Y-25.4
X120.65Y-33.02
X125.73Y-25.4
X125.73Y-33.02
X130.81Y-25.4
X130.81Y-33.02
X135.89Y-25.4
X135.89Y-33.02
X140.97Y-25.4
X140.97Y-33.02
X146.05Y-25.4
X146.05Y-33.02
X151.13Y-25.4
X151.13Y-33.02
X156.21Y-25.4
X156.21Y-33.02
X162.56Y-25.4
X162.56Y-33.02
X167.64Y-25.4
X167.64Y-33.02
X172.72Y-25.4
X172.72Y-33.02
X177.8Y-25.4
X177.8Y-33.02
X182.88Y-25.4
X182.88Y-33.02
X187.96Y-25.4
X187.96Y-33.02
X193.04Y-25.4
X193.04Y-33.02
X198.12Y-25.4
X198.12Y-33.02
X199.39Y-74.93
X199.39Y-82.55
X204.47Y-25.4
X204.47Y-33.02
X204.47Y-54.61
X204.47Y-62.23
X204.47Y-74.93
X204.47Y-82.55
X209.55Y-25.4
X209.55Y-33.02
X209.55Y-54.61
X209.55Y-62.23
X209.55Y-74.93
X209.55Y-82.55
X214.63Y-25.4
X214.63Y-33.02
X214.63Y-54.61
X214.63Y-62.23
X214.63Y-74.93
X214.63Y-82.55
X219.71Y-25.4
X219.71Y-33.02
X224.79Y-25.4
X224.79Y-33.02
X229.87Y-25.4
X229.87Y-33.02
X234.95Y-25.4
X234.95Y-33.02
X240.03Y-25.4
X240.03Y-33.02
X246.38Y-25.4
X246.38Y-33.02
X247.65Y-55.88
X247.65Y-58.42
X247.65Y-60.96
X247.65Y-63.5
X247.65Y-66.04
X247.65Y-68.58
X247.65Y-71.12
X247.65Y-73.66
X251.46Y-25.4
X251.46Y-33.02
X255.27Y-55.88
X255.27Y-58.42
X255.27Y-60.96
X255.27Y-63.5
X255.27Y-66.04
X255.27Y-68.58
X255.27Y-71.12
X255.27Y-73.66
X256.54Y-25.4
X256.54Y-33.02
X262.03Y-25.4
X262.03Y-33.02
X266.7Y-25.4
X266.7Y-33.02
X271.78Y-25.4
X271.78Y-33.02
X276.86Y-25.4
X276.86Y-33.02
X281.94Y-25.4
X281.94Y-33.02
T3
X122.555Y-53.34
X122.555Y-81.28
X125.095Y-53.34
X125.095Y-81.28
X127.635Y-53.34
X127.635Y-81.28
X130.175Y-53.34
X130.175Y-81.28
X132.715Y-53.34
X132.715Y-81.28
X135.255Y-53.34
X135.255Y-81.28
X137.795Y-53.34
X137.795Y-81.28
X140.335Y-53.34
X140.335Y-81.28
X142.875Y-53.34
X142.875Y-81.28
X145.415Y-53.34
X145.415Y-81.28
X147.955Y-53.34
X147.955Y-81.28
X150.495Y-53.34
X150.495Y-81.28
X153.035Y-53.34
X153.035Y-81.28
X155.575Y-53.34
X155.575Y-81.28
X158.115Y-53.34
X158.115Y-81.28
X160.655Y-53.34
X160.655Y-81.28
X163.195Y-53.34
X163.195Y-81.28
X165.735Y-53.34
X165.735Y-81.28
X168.275Y-53.34
X168.275Y-81.28
T4
X129.54Y-39.49
X129.54Y-46.99
X137.16Y-39.37
X137.16Y-46.99
X139.7Y-39.37
X139.7Y-46.99
X142.24Y-39.37
X142.24Y-46.99
X144.78Y-39.37
X144.78Y-46.99
X147.32Y-39.37
X147.32Y-46.99
X149.86Y-39.37
X149.86Y-46.99
X152.4Y-39.37
X152.4Y-46.99
X154.94Y-39.37
X154.94Y-46.99
X171.45Y-39.49
X171.45Y-46.99
X179.07Y-39.37
X179.07Y-46.99
X181.61Y-39.37
X181.61Y-46.99
X184.15Y-39.37
X184.15Y-46.99
X186.69Y-39.37
X186.69Y-46.99
X189.23Y-39.37
X189.23Y-46.99
X191.77Y-39.37
X191.77Y-46.99
X194.31Y-39.37
X194.31Y-46.99
X196.85Y-39.37
X196.85Y-46.99
X196.85Y-64.77
X196.85Y-72.39
X199.39Y-64.77
X199.39Y-72.39
X201.93Y-64.77
X201.93Y-72.39
X204.47Y-64.77
X204.47Y-72.39
X207.01Y-64.77
X207.01Y-72.39
X209.55Y-64.77
X209.55Y-72.39
X212.09Y-64.77
X212.09Y-72.39
X213.36Y-39.37
X213.36Y-46.87
X214.63Y-64.77
X214.63Y-72.39
X217.17Y-64.77
X217.17Y-72.39
X219.71Y-64.77
X219.71Y-72.39
X220.98Y-39.37
X220.98Y-46.99
X223.52Y-39.37
X223.52Y-46.99
X226.06Y-39.37
X226.06Y-46.99
X228.6Y-39.37
X228.6Y-46.99
X231.14Y-39.37
X231.14Y-46.99
X231.775Y-53.34
X231.775Y-55.88
X231.775Y-58.42
X231.775Y-60.96
X231.775Y-63.5
X231.775Y-66.04
X231.775Y-68.58
X231.775Y-71.12
X233.68Y-39.37
X233.68Y-46.99
X236.22Y-39.37
X236.22Y-46.99
X238.76Y-39.37
X238.76Y-46.99
X239.395Y-53.34
X239.395Y-55.88
X239.395Y-58.42
X239.395Y-60.96
X239.395Y-63.5
X239.395Y-66.04
X239.395Y-68.58
X239.395Y-71.12
X255.27Y-39.49
X255.27Y-46.99
X261.62Y-55.88
X261.62Y-58.42
X261.62Y-60.96
X261.62Y-63.5
X261.62Y-66.04
X261.62Y-68.58
X261.62Y-71.12
X261.62Y-73.66
X261.62Y-76.2
X262.89Y-39.37
X262.89Y-46.99
X265.43Y-39.37
X265.43Y-46.99
X267.97Y-39.37
X267.97Y-46.99
X269.24Y-55.88
X269.24Y-58.42
X269.24Y-60.96
X269.24Y-63.5
X269.24Y-66.04
X269.24Y-68.58
X269.24Y-71.12
X269.24Y-73.66
X269.24Y-76.2
X270.51Y-39.37
X270.51Y-46.99
X273.05Y-39.37
X273.05Y-46.99
X275.59Y-39.37
X275.59Y-46.99
X278.13Y-39.37
X278.13Y-46.99
X280.67Y-39.37
X280.67Y-46.99
T5
X121.92Y-87.305
X121.92Y-90.805
T6
X120.65Y-17.78
X125.73Y-17.78
X130.81Y-17.78
X135.89Y-17.78
X140.97Y-17.78
X146.05Y-17.78
X151.13Y-17.78
X156.21Y-17.78
X162.56Y-17.78
X167.64Y-17.78
X172.72Y-17.78
X177.8Y-17.78
X182.88Y-17.78
X187.96Y-17.78
X193.04Y-17.78
X198.12Y-17.78
X204.47Y-17.78
X209.55Y-17.78
X214.63Y-17.78
X219.71Y-17.78
X224.79Y-17.78
X229.87Y-17.78
X234.95Y-17.78
X240.03Y-17.78
X246.38Y-17.78
X251.46Y-17.78
X256.54Y-17.78
X261.62Y-17.78
X266.7Y-17.78
X271.78Y-17.78
X276.86Y-17.78
X278.13Y-54.61
X278.13Y-59.69
X278.13Y-64.77
X278.13Y-69.85
X278.13Y-74.93
X278.13Y-80.01
X278.13Y-85.09
X278.13Y-90.17
X281.94Y-17.78
T0
M30
