M48
; DRILL file {KiCad (5.1.10)-1} date 12/13/23 20:17:31
; FORMAT={-:-/ absolute / metric / decimal}
; #@! TF.CreationDate,2023-12-13T20:17:31-05:00
; #@! TF.GenerationSoftware,Kicad,Pcbnew,(5.1.10)-1
; #@! TF.FileFunction,Plated,1,4,PTH
FMAT,2
METRIC
T1C0.400
T2C0.600
T3C0.720
T4C0.762
T5C0.800
T6C1.200
T7C1.300
%
G90
G05
T1
X65.024Y-68.58
X66.675Y-66.04
X71.99Y-64.535
X71.99Y-56.915
X73.66Y-64.77
X74.93Y-68.58
X79.375Y-56.515
X80.645Y-66.675
X80.645Y-44.45
X80.645Y-59.055
X81.915Y-61.595
X83.185Y-44.45
X83.185Y-64.135
X84.455Y-51.435
X85.09Y-43.18
X88.9Y-53.975
X89.916Y-48.895
X90.805Y-44.45
X90.805Y-56.515
X91.821Y-59.055
X92.71Y-61.595
X92.71Y-44.45
X93.345Y-42.545
X96.43Y-67.4
X97.155Y-56.515
X98.425Y-44.45
X98.425Y-59.055
X99.695Y-61.595
X100.965Y-44.45
X100.965Y-64.135
X103.505Y-43.18
X106.77Y-53.975
X107.696Y-48.895
X108.712Y-44.45
X108.712Y-56.515
X109.601Y-59.055
X110.49Y-44.45
X110.49Y-61.595
X114.935Y-56.515
X116.205Y-44.45
X116.205Y-59.055
X117.475Y-61.595
X118.745Y-44.45
X118.745Y-64.135
X124.55Y-53.975
X125.476Y-48.895
X126.492Y-44.45
X126.492Y-56.515
X127.381Y-59.055
X128.27Y-44.45
X128.27Y-61.595
X132.715Y-56.515
X133.985Y-44.45
X133.985Y-59.055
X135.255Y-61.595
X136.525Y-44.45
X136.525Y-64.135
X141.605Y-41.91
X142.33Y-53.975
X143.256Y-48.895
X144.272Y-44.45
X144.272Y-56.515
X145.161Y-59.055
X146.05Y-44.45
X146.05Y-61.595
X155.094Y-54.61
X156.21Y-66.675
T2
X13.208Y-49.276
X15.208Y-49.276
X18.288Y-49.276
X20.288Y-49.276
T3
X12.065Y-45.72
X12.065Y-71.12
X14.605Y-45.72
X14.605Y-71.12
X17.145Y-45.72
X17.145Y-71.12
X19.685Y-45.72
X19.685Y-71.12
X22.225Y-45.72
X22.225Y-71.12
X24.765Y-45.72
X24.765Y-71.12
X27.305Y-45.72
X27.305Y-71.12
X29.845Y-45.72
X29.845Y-71.12
X32.385Y-45.72
X32.385Y-71.12
X34.925Y-45.72
X34.925Y-71.12
X37.465Y-45.72
X37.465Y-71.12
X40.005Y-45.72
X40.005Y-71.12
X42.545Y-45.72
X42.545Y-71.12
X45.085Y-45.72
X45.085Y-71.12
X47.625Y-45.72
X47.625Y-71.12
X50.165Y-45.72
X50.165Y-71.12
X52.705Y-45.72
X52.705Y-71.12
X55.245Y-45.72
X55.245Y-71.12
X57.785Y-45.72
X57.785Y-71.12
T4
X14.605Y-54.991
X14.605Y-57.531
X14.605Y-60.071
X187.325Y-47.625
X187.325Y-50.165
X187.325Y-52.705
X187.325Y-55.245
X187.325Y-57.785
X187.325Y-60.325
X187.325Y-62.865
T5
X15.24Y-24.13
X15.24Y-34.29
X19.685Y-53.34
X19.685Y-63.5
X20.32Y-24.13
X20.32Y-34.29
X23.495Y-53.34
X23.495Y-63.5
X25.4Y-24.13
X25.4Y-34.29
X27.305Y-53.34
X27.305Y-63.5
X30.48Y-24.13
X30.48Y-34.29
X31.115Y-53.34
X31.115Y-63.5
X34.925Y-53.34
X34.925Y-63.5
X35.56Y-24.13
X35.56Y-34.29
X38.735Y-53.34
X38.735Y-63.5
X40.64Y-24.13
X40.64Y-34.29
X42.545Y-53.34
X42.545Y-63.5
X45.72Y-24.13
X45.72Y-34.29
X47.752Y-53.34
X47.752Y-57.404
X50.8Y-24.13
X50.8Y-34.29
X57.15Y-24.13
X57.15Y-34.29
X57.912Y-53.34
X57.912Y-57.404
X62.23Y-24.13
X62.23Y-34.29
X62.992Y-42.164
X62.992Y-52.324
X66.548Y-42.164
X66.548Y-52.324
X67.31Y-24.13
X67.31Y-34.29
X69.85Y-46.99
X69.85Y-49.53
X69.85Y-52.07
X69.85Y-54.61
X69.85Y-57.15
X69.85Y-59.69
X69.85Y-62.23
X69.85Y-64.77
X69.85Y-67.31
X69.85Y-69.85
X72.39Y-24.13
X72.39Y-34.29
X73.66Y-46.99
X73.66Y-51.99
X77.47Y-24.13
X77.47Y-34.29
X77.47Y-46.99
X77.47Y-49.53
X77.47Y-52.07
X77.47Y-54.61
X77.47Y-57.15
X77.47Y-59.69
X77.47Y-62.23
X77.47Y-64.77
X77.47Y-67.31
X77.47Y-69.85
X82.55Y-24.13
X82.55Y-34.29
X86.995Y-48.895
X86.995Y-51.435
X86.995Y-53.975
X86.995Y-56.515
X86.995Y-59.055
X86.995Y-61.595
X86.995Y-64.135
X86.995Y-66.675
X87.63Y-24.13
X87.63Y-34.29
X89.535Y-60.325
X89.535Y-65.325
X92.71Y-24.13
X92.71Y-34.29
X94.615Y-48.895
X94.615Y-51.435
X94.615Y-53.975
X94.615Y-56.515
X94.615Y-59.055
X94.615Y-61.595
X94.615Y-64.135
X94.615Y-66.675
X99.06Y-24.13
X99.06Y-34.29
X104.14Y-24.13
X104.14Y-34.29
X104.775Y-48.895
X104.775Y-51.435
X104.775Y-53.975
X104.775Y-56.515
X104.775Y-59.055
X104.775Y-61.595
X104.775Y-64.135
X104.775Y-66.675
X108.712Y-61.548
X108.712Y-66.548
X109.22Y-24.13
X109.22Y-34.29
X112.395Y-48.895
X112.395Y-51.435
X112.395Y-53.975
X112.395Y-56.515
X112.395Y-59.055
X112.395Y-61.595
X112.395Y-64.135
X112.395Y-66.675
X114.3Y-24.13
X114.3Y-34.29
X119.38Y-24.13
X119.38Y-34.29
X122.555Y-48.895
X122.555Y-51.435
X122.555Y-53.975
X122.555Y-56.515
X122.555Y-59.055
X122.555Y-61.595
X122.555Y-64.135
X122.555Y-66.675
X124.46Y-24.13
X124.46Y-34.29
X126.365Y-61.595
X126.365Y-66.595
X129.54Y-24.13
X129.54Y-34.29
X130.175Y-48.895
X130.175Y-51.435
X130.175Y-53.975
X130.175Y-56.515
X130.175Y-59.055
X130.175Y-61.595
X130.175Y-64.135
X130.175Y-66.675
X134.62Y-24.13
X134.62Y-34.29
X140.335Y-48.895
X140.335Y-51.435
X140.335Y-53.975
X140.335Y-56.515
X140.335Y-59.055
X140.335Y-61.595
X140.335Y-64.135
X140.335Y-66.675
X140.97Y-24.13
X140.97Y-34.29
X144.145Y-61.595
X144.145Y-66.595
X146.05Y-24.13
X146.05Y-34.29
X147.955Y-48.895
X147.955Y-51.435
X147.955Y-53.975
X147.955Y-56.515
X147.955Y-59.055
X147.955Y-61.595
X147.955Y-64.135
X147.955Y-66.675
X151.13Y-24.13
X151.13Y-34.29
X152.4Y-48.895
X152.4Y-51.435
X152.4Y-53.975
X152.4Y-56.515
X152.4Y-59.055
X152.4Y-61.595
X152.4Y-64.135
X152.4Y-66.675
X156.21Y-24.13
X156.21Y-34.29
X156.845Y-56.515
X156.845Y-61.515
X160.02Y-48.895
X160.02Y-51.435
X160.02Y-53.975
X160.02Y-56.515
X160.02Y-59.055
X160.02Y-61.595
X160.02Y-64.135
X160.02Y-66.675
X161.29Y-24.13
X161.29Y-34.29
X164.465Y-46.99
X164.465Y-50.165
X164.465Y-53.34
X164.465Y-56.515
X164.465Y-59.69
X164.465Y-62.865
X164.465Y-66.04
X164.465Y-69.215
X166.37Y-24.13
X166.37Y-34.29
X171.45Y-24.13
X171.45Y-34.29
X174.625Y-46.99
X174.625Y-50.165
X174.625Y-53.34
X174.625Y-56.515
X174.625Y-59.69
X174.625Y-62.865
X174.625Y-66.04
X174.625Y-69.215
X176.53Y-24.13
X176.53Y-34.29
X183.515Y-19.685
X183.515Y-22.225
X183.515Y-24.765
X183.515Y-27.305
X183.515Y-29.845
X183.515Y-32.385
X183.515Y-34.925
X183.515Y-37.465
X183.515Y-40.005
X184.785Y-43.18
X189.785Y-43.18
X191.135Y-19.685
X191.135Y-22.225
X191.135Y-24.765
X191.135Y-27.305
X191.135Y-29.845
X191.135Y-32.385
X191.135Y-34.925
X191.135Y-37.465
X191.135Y-40.005
T6
X200.66Y-60.635
X200.66Y-64.135
T7
X15.24Y-17.78
X20.32Y-17.78
X25.4Y-17.78
X30.48Y-17.78
X35.56Y-17.78
X40.64Y-17.78
X45.72Y-17.78
X50.8Y-17.78
X57.15Y-17.78
X62.23Y-17.78
X67.31Y-17.78
X72.39Y-17.78
X77.47Y-17.78
X82.55Y-17.78
X87.63Y-17.78
X92.71Y-17.78
X99.06Y-17.78
X104.14Y-17.78
X109.22Y-17.78
X114.3Y-17.78
X119.38Y-17.78
X124.46Y-17.78
X129.54Y-17.78
X134.62Y-17.78
X140.97Y-17.78
X146.05Y-17.78
X151.13Y-17.78
X156.21Y-17.78
X161.29Y-17.78
X166.37Y-17.78
X171.45Y-17.78
X176.53Y-17.78
X200.025Y-15.24
X200.025Y-20.32
X200.025Y-25.4
X200.025Y-30.48
X200.025Y-35.56
X200.025Y-40.64
X200.025Y-45.72
X200.025Y-50.8
T0
M30
