%FSLAX45Y45*%
G04 Gerber Fmt 4.5, Leading zero omitted, Abs format (unit mm)*
G04 Created by KiCad (PCBNEW (5.1.10)-1) date 2023-12-13 20:17:31*
%MOMM*%
%LPD*%
G01*
G04 APERTURE LIST*
%TA.AperFunction,Profile*%
%ADD10C,0.050000*%
%TD*%
%ADD11C,0.200000*%
%ADD12C,0.300000*%
G04 APERTURE END LIST*
D10*
X952500Y-7620000D02*
X952500Y-1016000D01*
X21018500Y-7620000D02*
X952500Y-7620000D01*
X21018500Y-1016000D02*
X21018500Y-7620000D01*
X952500Y-1016000D02*
X21018500Y-1016000D01*
D11*
X1668000Y-3954000D02*
X1888000Y-4174000D01*
X1888000Y-3954000D02*
X1668000Y-4174000D01*
X17225500Y-3954000D02*
X17445500Y-4174000D01*
X17445500Y-3954000D02*
X17225500Y-4174000D01*
X18622500Y-1287000D02*
X18842500Y-1507000D01*
X18842500Y-1287000D02*
X18622500Y-1507000D01*
X18622500Y-6811500D02*
X18842500Y-7031500D01*
X18842500Y-6811500D02*
X18622500Y-7031500D01*
D12*
X1236428Y-8088214D02*
X1236428Y-7788214D01*
X1307857Y-7788214D01*
X1350714Y-7802500D01*
X1379286Y-7831071D01*
X1393571Y-7859643D01*
X1407857Y-7916786D01*
X1407857Y-7959643D01*
X1393571Y-8016786D01*
X1379286Y-8045357D01*
X1350714Y-8073929D01*
X1307857Y-8088214D01*
X1236428Y-8088214D01*
X1536428Y-8088214D02*
X1536428Y-7888214D01*
X1536428Y-7945357D02*
X1550714Y-7916786D01*
X1565000Y-7902500D01*
X1593571Y-7888214D01*
X1622143Y-7888214D01*
X1722143Y-8088214D02*
X1722143Y-7888214D01*
X1722143Y-7788214D02*
X1707857Y-7802500D01*
X1722143Y-7816786D01*
X1736428Y-7802500D01*
X1722143Y-7788214D01*
X1722143Y-7816786D01*
X1907857Y-8088214D02*
X1879286Y-8073929D01*
X1865000Y-8045357D01*
X1865000Y-7788214D01*
X2065000Y-8088214D02*
X2036428Y-8073929D01*
X2022143Y-8045357D01*
X2022143Y-7788214D01*
X2407857Y-8088214D02*
X2407857Y-7788214D01*
X2507857Y-8002500D01*
X2607857Y-7788214D01*
X2607857Y-8088214D01*
X2879286Y-8088214D02*
X2879286Y-7931071D01*
X2865000Y-7902500D01*
X2836428Y-7888214D01*
X2779286Y-7888214D01*
X2750714Y-7902500D01*
X2879286Y-8073929D02*
X2850714Y-8088214D01*
X2779286Y-8088214D01*
X2750714Y-8073929D01*
X2736428Y-8045357D01*
X2736428Y-8016786D01*
X2750714Y-7988214D01*
X2779286Y-7973929D01*
X2850714Y-7973929D01*
X2879286Y-7959643D01*
X3022143Y-7888214D02*
X3022143Y-8188214D01*
X3022143Y-7902500D02*
X3050714Y-7888214D01*
X3107857Y-7888214D01*
X3136428Y-7902500D01*
X3150714Y-7916786D01*
X3165000Y-7945357D01*
X3165000Y-8031071D01*
X3150714Y-8059643D01*
X3136428Y-8073929D01*
X3107857Y-8088214D01*
X3050714Y-8088214D01*
X3022143Y-8073929D01*
X3293571Y-8059643D02*
X3307857Y-8073929D01*
X3293571Y-8088214D01*
X3279286Y-8073929D01*
X3293571Y-8059643D01*
X3293571Y-8088214D01*
X3293571Y-7902500D02*
X3307857Y-7916786D01*
X3293571Y-7931071D01*
X3279286Y-7916786D01*
X3293571Y-7902500D01*
X3293571Y-7931071D01*
X730000Y-8472500D02*
X950000Y-8692500D01*
X950000Y-8472500D02*
X730000Y-8692500D01*
X1222143Y-8446786D02*
X1236428Y-8432500D01*
X1265000Y-8418214D01*
X1336428Y-8418214D01*
X1365000Y-8432500D01*
X1379286Y-8446786D01*
X1393571Y-8475357D01*
X1393571Y-8503929D01*
X1379286Y-8546786D01*
X1207857Y-8718214D01*
X1393571Y-8718214D01*
X1522143Y-8689643D02*
X1536428Y-8703929D01*
X1522143Y-8718214D01*
X1507857Y-8703929D01*
X1522143Y-8689643D01*
X1522143Y-8718214D01*
X1650714Y-8446786D02*
X1665000Y-8432500D01*
X1693571Y-8418214D01*
X1765000Y-8418214D01*
X1793571Y-8432500D01*
X1807857Y-8446786D01*
X1822143Y-8475357D01*
X1822143Y-8503929D01*
X1807857Y-8546786D01*
X1636428Y-8718214D01*
X1822143Y-8718214D01*
X2007857Y-8418214D02*
X2036428Y-8418214D01*
X2065000Y-8432500D01*
X2079286Y-8446786D01*
X2093571Y-8475357D01*
X2107857Y-8532500D01*
X2107857Y-8603929D01*
X2093571Y-8661072D01*
X2079286Y-8689643D01*
X2065000Y-8703929D01*
X2036428Y-8718214D01*
X2007857Y-8718214D01*
X1979286Y-8703929D01*
X1965000Y-8689643D01*
X1950714Y-8661072D01*
X1936428Y-8603929D01*
X1936428Y-8532500D01*
X1950714Y-8475357D01*
X1965000Y-8446786D01*
X1979286Y-8432500D01*
X2007857Y-8418214D01*
X2293571Y-8418214D02*
X2322143Y-8418214D01*
X2350714Y-8432500D01*
X2365000Y-8446786D01*
X2379286Y-8475357D01*
X2393571Y-8532500D01*
X2393571Y-8603929D01*
X2379286Y-8661072D01*
X2365000Y-8689643D01*
X2350714Y-8703929D01*
X2322143Y-8718214D01*
X2293571Y-8718214D01*
X2265000Y-8703929D01*
X2250714Y-8689643D01*
X2236428Y-8661072D01*
X2222143Y-8603929D01*
X2222143Y-8532500D01*
X2236428Y-8475357D01*
X2250714Y-8446786D01*
X2265000Y-8432500D01*
X2293571Y-8418214D01*
X2522143Y-8718214D02*
X2522143Y-8518214D01*
X2522143Y-8546786D02*
X2536428Y-8532500D01*
X2565000Y-8518214D01*
X2607857Y-8518214D01*
X2636428Y-8532500D01*
X2650714Y-8561072D01*
X2650714Y-8718214D01*
X2650714Y-8561072D02*
X2665000Y-8532500D01*
X2693571Y-8518214D01*
X2736428Y-8518214D01*
X2765000Y-8532500D01*
X2779286Y-8561072D01*
X2779286Y-8718214D01*
X2922143Y-8718214D02*
X2922143Y-8518214D01*
X2922143Y-8546786D02*
X2936428Y-8532500D01*
X2965000Y-8518214D01*
X3007857Y-8518214D01*
X3036428Y-8532500D01*
X3050714Y-8561072D01*
X3050714Y-8718214D01*
X3050714Y-8561072D02*
X3065000Y-8532500D01*
X3093571Y-8518214D01*
X3136428Y-8518214D01*
X3165000Y-8532500D01*
X3179286Y-8561072D01*
X3179286Y-8718214D01*
X3765000Y-8403929D02*
X3507857Y-8789643D01*
X4150714Y-8418214D02*
X4179286Y-8418214D01*
X4207857Y-8432500D01*
X4222143Y-8446786D01*
X4236428Y-8475357D01*
X4250714Y-8532500D01*
X4250714Y-8603929D01*
X4236428Y-8661072D01*
X4222143Y-8689643D01*
X4207857Y-8703929D01*
X4179286Y-8718214D01*
X4150714Y-8718214D01*
X4122143Y-8703929D01*
X4107857Y-8689643D01*
X4093571Y-8661072D01*
X4079286Y-8603929D01*
X4079286Y-8532500D01*
X4093571Y-8475357D01*
X4107857Y-8446786D01*
X4122143Y-8432500D01*
X4150714Y-8418214D01*
X4379286Y-8689643D02*
X4393571Y-8703929D01*
X4379286Y-8718214D01*
X4365000Y-8703929D01*
X4379286Y-8689643D01*
X4379286Y-8718214D01*
X4579286Y-8418214D02*
X4607857Y-8418214D01*
X4636428Y-8432500D01*
X4650714Y-8446786D01*
X4665000Y-8475357D01*
X4679286Y-8532500D01*
X4679286Y-8603929D01*
X4665000Y-8661072D01*
X4650714Y-8689643D01*
X4636428Y-8703929D01*
X4607857Y-8718214D01*
X4579286Y-8718214D01*
X4550714Y-8703929D01*
X4536428Y-8689643D01*
X4522143Y-8661072D01*
X4507857Y-8603929D01*
X4507857Y-8532500D01*
X4522143Y-8475357D01*
X4536428Y-8446786D01*
X4550714Y-8432500D01*
X4579286Y-8418214D01*
X4850714Y-8546786D02*
X4822143Y-8532500D01*
X4807857Y-8518214D01*
X4793571Y-8489643D01*
X4793571Y-8475357D01*
X4807857Y-8446786D01*
X4822143Y-8432500D01*
X4850714Y-8418214D01*
X4907857Y-8418214D01*
X4936428Y-8432500D01*
X4950714Y-8446786D01*
X4965000Y-8475357D01*
X4965000Y-8489643D01*
X4950714Y-8518214D01*
X4936428Y-8532500D01*
X4907857Y-8546786D01*
X4850714Y-8546786D01*
X4822143Y-8561072D01*
X4807857Y-8575357D01*
X4793571Y-8603929D01*
X4793571Y-8661072D01*
X4807857Y-8689643D01*
X4822143Y-8703929D01*
X4850714Y-8718214D01*
X4907857Y-8718214D01*
X4936428Y-8703929D01*
X4950714Y-8689643D01*
X4965000Y-8661072D01*
X4965000Y-8603929D01*
X4950714Y-8575357D01*
X4936428Y-8561072D01*
X4907857Y-8546786D01*
X5222143Y-8418214D02*
X5165000Y-8418214D01*
X5136428Y-8432500D01*
X5122143Y-8446786D01*
X5093571Y-8489643D01*
X5079286Y-8546786D01*
X5079286Y-8661072D01*
X5093571Y-8689643D01*
X5107857Y-8703929D01*
X5136428Y-8718214D01*
X5193571Y-8718214D01*
X5222143Y-8703929D01*
X5236428Y-8689643D01*
X5250714Y-8661072D01*
X5250714Y-8589643D01*
X5236428Y-8561072D01*
X5222143Y-8546786D01*
X5193571Y-8532500D01*
X5136428Y-8532500D01*
X5107857Y-8546786D01*
X5093571Y-8561072D01*
X5079286Y-8589643D01*
X5507857Y-8418214D02*
X5450714Y-8418214D01*
X5422143Y-8432500D01*
X5407857Y-8446786D01*
X5379286Y-8489643D01*
X5365000Y-8546786D01*
X5365000Y-8661072D01*
X5379286Y-8689643D01*
X5393571Y-8703929D01*
X5422143Y-8718214D01*
X5479286Y-8718214D01*
X5507857Y-8703929D01*
X5522143Y-8689643D01*
X5536428Y-8661072D01*
X5536428Y-8589643D01*
X5522143Y-8561072D01*
X5507857Y-8546786D01*
X5479286Y-8532500D01*
X5422143Y-8532500D01*
X5393571Y-8546786D01*
X5379286Y-8561072D01*
X5365000Y-8589643D01*
X5650714Y-8418214D02*
X5650714Y-8475357D01*
X5765000Y-8418214D02*
X5765000Y-8475357D01*
X6207857Y-8832500D02*
X6193571Y-8818214D01*
X6165000Y-8775357D01*
X6150714Y-8746786D01*
X6136428Y-8703929D01*
X6122143Y-8632500D01*
X6122143Y-8575357D01*
X6136428Y-8503929D01*
X6150714Y-8461072D01*
X6165000Y-8432500D01*
X6193571Y-8389643D01*
X6207857Y-8375357D01*
X6450714Y-8518214D02*
X6450714Y-8718214D01*
X6379286Y-8403929D02*
X6307857Y-8618214D01*
X6493571Y-8618214D01*
X6836428Y-8718214D02*
X6836428Y-8418214D01*
X6965000Y-8718214D02*
X6965000Y-8561072D01*
X6950714Y-8532500D01*
X6922143Y-8518214D01*
X6879286Y-8518214D01*
X6850714Y-8532500D01*
X6836428Y-8546786D01*
X7150714Y-8718214D02*
X7122143Y-8703929D01*
X7107857Y-8689643D01*
X7093571Y-8661072D01*
X7093571Y-8575357D01*
X7107857Y-8546786D01*
X7122143Y-8532500D01*
X7150714Y-8518214D01*
X7193571Y-8518214D01*
X7222143Y-8532500D01*
X7236428Y-8546786D01*
X7250714Y-8575357D01*
X7250714Y-8661072D01*
X7236428Y-8689643D01*
X7222143Y-8703929D01*
X7193571Y-8718214D01*
X7150714Y-8718214D01*
X7422143Y-8718214D02*
X7393571Y-8703929D01*
X7379286Y-8675357D01*
X7379286Y-8418214D01*
X7650714Y-8703929D02*
X7622143Y-8718214D01*
X7565000Y-8718214D01*
X7536428Y-8703929D01*
X7522143Y-8675357D01*
X7522143Y-8561072D01*
X7536428Y-8532500D01*
X7565000Y-8518214D01*
X7622143Y-8518214D01*
X7650714Y-8532500D01*
X7665000Y-8561072D01*
X7665000Y-8589643D01*
X7522143Y-8618214D01*
X7779286Y-8703929D02*
X7807857Y-8718214D01*
X7865000Y-8718214D01*
X7893571Y-8703929D01*
X7907857Y-8675357D01*
X7907857Y-8661072D01*
X7893571Y-8632500D01*
X7865000Y-8618214D01*
X7822143Y-8618214D01*
X7793571Y-8603929D01*
X7779286Y-8575357D01*
X7779286Y-8561072D01*
X7793571Y-8532500D01*
X7822143Y-8518214D01*
X7865000Y-8518214D01*
X7893571Y-8532500D01*
X8007857Y-8832500D02*
X8022143Y-8818214D01*
X8050714Y-8775357D01*
X8065000Y-8746786D01*
X8079286Y-8703929D01*
X8093571Y-8632500D01*
X8093571Y-8575357D01*
X8079286Y-8503929D01*
X8065000Y-8461072D01*
X8050714Y-8432500D01*
X8022143Y-8389643D01*
X8007857Y-8375357D01*
X8550714Y-8832500D02*
X8536428Y-8818214D01*
X8507857Y-8775357D01*
X8493571Y-8746786D01*
X8479286Y-8703929D01*
X8465000Y-8632500D01*
X8465000Y-8575357D01*
X8479286Y-8503929D01*
X8493571Y-8461072D01*
X8507857Y-8432500D01*
X8536428Y-8389643D01*
X8550714Y-8375357D01*
X8665000Y-8518214D02*
X8665000Y-8718214D01*
X8665000Y-8546786D02*
X8679286Y-8532500D01*
X8707857Y-8518214D01*
X8750714Y-8518214D01*
X8779286Y-8532500D01*
X8793571Y-8561072D01*
X8793571Y-8718214D01*
X8979286Y-8718214D02*
X8950714Y-8703929D01*
X8936428Y-8689643D01*
X8922143Y-8661072D01*
X8922143Y-8575357D01*
X8936428Y-8546786D01*
X8950714Y-8532500D01*
X8979286Y-8518214D01*
X9022143Y-8518214D01*
X9050714Y-8532500D01*
X9065000Y-8546786D01*
X9079286Y-8575357D01*
X9079286Y-8661072D01*
X9065000Y-8689643D01*
X9050714Y-8703929D01*
X9022143Y-8718214D01*
X8979286Y-8718214D01*
X9165000Y-8518214D02*
X9279286Y-8518214D01*
X9207857Y-8418214D02*
X9207857Y-8675357D01*
X9222143Y-8703929D01*
X9250714Y-8718214D01*
X9279286Y-8718214D01*
X9607857Y-8518214D02*
X9607857Y-8818214D01*
X9607857Y-8532500D02*
X9636428Y-8518214D01*
X9693571Y-8518214D01*
X9722143Y-8532500D01*
X9736428Y-8546786D01*
X9750714Y-8575357D01*
X9750714Y-8661072D01*
X9736428Y-8689643D01*
X9722143Y-8703929D01*
X9693571Y-8718214D01*
X9636428Y-8718214D01*
X9607857Y-8703929D01*
X9922143Y-8718214D02*
X9893571Y-8703929D01*
X9879286Y-8675357D01*
X9879286Y-8418214D01*
X10165000Y-8718214D02*
X10165000Y-8561072D01*
X10150714Y-8532500D01*
X10122143Y-8518214D01*
X10065000Y-8518214D01*
X10036428Y-8532500D01*
X10165000Y-8703929D02*
X10136428Y-8718214D01*
X10065000Y-8718214D01*
X10036428Y-8703929D01*
X10022143Y-8675357D01*
X10022143Y-8646786D01*
X10036428Y-8618214D01*
X10065000Y-8603929D01*
X10136428Y-8603929D01*
X10165000Y-8589643D01*
X10265000Y-8518214D02*
X10379286Y-8518214D01*
X10307857Y-8418214D02*
X10307857Y-8675357D01*
X10322143Y-8703929D01*
X10350714Y-8718214D01*
X10379286Y-8718214D01*
X10593571Y-8703929D02*
X10565000Y-8718214D01*
X10507857Y-8718214D01*
X10479286Y-8703929D01*
X10465000Y-8675357D01*
X10465000Y-8561072D01*
X10479286Y-8532500D01*
X10507857Y-8518214D01*
X10565000Y-8518214D01*
X10593571Y-8532500D01*
X10607857Y-8561072D01*
X10607857Y-8589643D01*
X10465000Y-8618214D01*
X10865000Y-8718214D02*
X10865000Y-8418214D01*
X10865000Y-8703929D02*
X10836428Y-8718214D01*
X10779286Y-8718214D01*
X10750714Y-8703929D01*
X10736428Y-8689643D01*
X10722143Y-8661072D01*
X10722143Y-8575357D01*
X10736428Y-8546786D01*
X10750714Y-8532500D01*
X10779286Y-8518214D01*
X10836428Y-8518214D01*
X10865000Y-8532500D01*
X10979286Y-8832500D02*
X10993571Y-8818214D01*
X11022143Y-8775357D01*
X11036428Y-8746786D01*
X11050714Y-8703929D01*
X11065000Y-8632500D01*
X11065000Y-8575357D01*
X11050714Y-8503929D01*
X11036428Y-8461072D01*
X11022143Y-8432500D01*
X10993571Y-8389643D01*
X10979286Y-8375357D01*
M02*
