G04 #@! TF.GenerationSoftware,KiCad,Pcbnew,(5.1.10)-1*
G04 #@! TF.CreationDate,2023-12-13T20:17:28-05:00*
G04 #@! TF.ProjectId,LED_Matrix_Driver,4c45445f-4d61-4747-9269-785f44726976,rev?*
G04 #@! TF.SameCoordinates,Original*
G04 #@! TF.FileFunction,Soldermask,Bot*
G04 #@! TF.FilePolarity,Negative*
%FSLAX46Y46*%
G04 Gerber Fmt 4.6, Leading zero omitted, Abs format (unit mm)*
G04 Created by KiCad (PCBNEW (5.1.10)-1) date 2023-12-13 20:17:28*
%MOMM*%
%LPD*%
G01*
G04 APERTURE LIST*
%ADD10C,2.200000*%
%ADD11O,1.600000X1.600000*%
%ADD12C,1.600000*%
%ADD13R,1.500000X1.200000*%
%ADD14C,1.200000*%
%ADD15R,1.200000X1.200000*%
%ADD16R,1.600000X1.600000*%
%ADD17R,1.200000X1.524000*%
%ADD18C,2.600000*%
%ADD19R,2.600000X2.600000*%
%ADD20C,2.400000*%
%ADD21R,2.400000X2.400000*%
G04 APERTURE END LIST*
D10*
X173355000Y-40640000D03*
X17780000Y-40640000D03*
X187325000Y-69215000D03*
X187325000Y-13970000D03*
D11*
X57912000Y-53340000D03*
D12*
X47752000Y-53340000D03*
D11*
X62992000Y-42164000D03*
D12*
X62992000Y-52324000D03*
D11*
X57912000Y-57404000D03*
D12*
X47752000Y-57404000D03*
D11*
X66548000Y-42164000D03*
D12*
X66548000Y-52324000D03*
D13*
X187325000Y-50165000D03*
X187325000Y-47625000D03*
X187325000Y-52705000D03*
X187325000Y-55245000D03*
X187325000Y-57785000D03*
X187325000Y-60325000D03*
X187325000Y-62865000D03*
X14605000Y-54991000D03*
X14605000Y-57531000D03*
X14605000Y-60071000D03*
D14*
X13208000Y-49276000D03*
D15*
X15208000Y-49276000D03*
D14*
X18288000Y-49276000D03*
D15*
X20288000Y-49276000D03*
D12*
X144145000Y-61595000D03*
X144145000Y-66595000D03*
X126365000Y-61595000D03*
X126365000Y-66595000D03*
X108712000Y-61548000D03*
X108712000Y-66548000D03*
X89535000Y-60325000D03*
X89535000Y-65325000D03*
X156845000Y-61515000D03*
X156845000Y-56515000D03*
X184785000Y-43180000D03*
X189785000Y-43180000D03*
X73660000Y-51990000D03*
X73660000Y-46990000D03*
D16*
X140335000Y-48895000D03*
D11*
X147955000Y-66675000D03*
X140335000Y-51435000D03*
X147955000Y-64135000D03*
X140335000Y-53975000D03*
X147955000Y-61595000D03*
X140335000Y-56515000D03*
X147955000Y-59055000D03*
X140335000Y-59055000D03*
X147955000Y-56515000D03*
X140335000Y-61595000D03*
X147955000Y-53975000D03*
X140335000Y-64135000D03*
X147955000Y-51435000D03*
X140335000Y-66675000D03*
X147955000Y-48895000D03*
D16*
X122555000Y-48895000D03*
D11*
X130175000Y-66675000D03*
X122555000Y-51435000D03*
X130175000Y-64135000D03*
X122555000Y-53975000D03*
X130175000Y-61595000D03*
X122555000Y-56515000D03*
X130175000Y-59055000D03*
X122555000Y-59055000D03*
X130175000Y-56515000D03*
X122555000Y-61595000D03*
X130175000Y-53975000D03*
X122555000Y-64135000D03*
X130175000Y-51435000D03*
X122555000Y-66675000D03*
X130175000Y-48895000D03*
D16*
X104775000Y-48895000D03*
D11*
X112395000Y-66675000D03*
X104775000Y-51435000D03*
X112395000Y-64135000D03*
X104775000Y-53975000D03*
X112395000Y-61595000D03*
X104775000Y-56515000D03*
X112395000Y-59055000D03*
X104775000Y-59055000D03*
X112395000Y-56515000D03*
X104775000Y-61595000D03*
X112395000Y-53975000D03*
X104775000Y-64135000D03*
X112395000Y-51435000D03*
X104775000Y-66675000D03*
X112395000Y-48895000D03*
D16*
X86995000Y-48895000D03*
D11*
X94615000Y-66675000D03*
X86995000Y-51435000D03*
X94615000Y-64135000D03*
X86995000Y-53975000D03*
X94615000Y-61595000D03*
X86995000Y-56515000D03*
X94615000Y-59055000D03*
X86995000Y-59055000D03*
X94615000Y-56515000D03*
X86995000Y-61595000D03*
X94615000Y-53975000D03*
X86995000Y-64135000D03*
X94615000Y-51435000D03*
X86995000Y-66675000D03*
X94615000Y-48895000D03*
X160020000Y-48895000D03*
X152400000Y-66675000D03*
X160020000Y-51435000D03*
X152400000Y-64135000D03*
X160020000Y-53975000D03*
X152400000Y-61595000D03*
X160020000Y-56515000D03*
X152400000Y-59055000D03*
X160020000Y-59055000D03*
X152400000Y-56515000D03*
X160020000Y-61595000D03*
X152400000Y-53975000D03*
X160020000Y-64135000D03*
X152400000Y-51435000D03*
X160020000Y-66675000D03*
D16*
X152400000Y-48895000D03*
D11*
X191135000Y-19685000D03*
X183515000Y-40005000D03*
X191135000Y-22225000D03*
X183515000Y-37465000D03*
X191135000Y-24765000D03*
X183515000Y-34925000D03*
X191135000Y-27305000D03*
X183515000Y-32385000D03*
X191135000Y-29845000D03*
X183515000Y-29845000D03*
X191135000Y-32385000D03*
X183515000Y-27305000D03*
X191135000Y-34925000D03*
X183515000Y-24765000D03*
X191135000Y-37465000D03*
X183515000Y-22225000D03*
X191135000Y-40005000D03*
D16*
X183515000Y-19685000D03*
X69850000Y-46990000D03*
D11*
X77470000Y-69850000D03*
X69850000Y-49530000D03*
X77470000Y-67310000D03*
X69850000Y-52070000D03*
X77470000Y-64770000D03*
X69850000Y-54610000D03*
X77470000Y-62230000D03*
X69850000Y-57150000D03*
X77470000Y-59690000D03*
X69850000Y-59690000D03*
X77470000Y-57150000D03*
X69850000Y-62230000D03*
X77470000Y-54610000D03*
X69850000Y-64770000D03*
X77470000Y-52070000D03*
X69850000Y-67310000D03*
X77470000Y-49530000D03*
X69850000Y-69850000D03*
X77470000Y-46990000D03*
D17*
X57785000Y-45470000D03*
X55245000Y-45470000D03*
X52705000Y-45470000D03*
X50165000Y-45470000D03*
X47625000Y-45470000D03*
X45085000Y-45470000D03*
X42545000Y-45470000D03*
X40005000Y-45470000D03*
X37465000Y-45470000D03*
X34925000Y-45470000D03*
X32385000Y-45470000D03*
X29845000Y-45470000D03*
X27305000Y-45470000D03*
X24765000Y-45470000D03*
X22225000Y-45470000D03*
X19685000Y-45470000D03*
X17145000Y-45470000D03*
X14605000Y-45470000D03*
X12065000Y-45470000D03*
X12065000Y-71370000D03*
X14605000Y-71370000D03*
X17145000Y-71370000D03*
X19685000Y-71370000D03*
X22225000Y-71370000D03*
X24765000Y-71370000D03*
X27305000Y-71370000D03*
X29845000Y-71370000D03*
X32385000Y-71370000D03*
X34925000Y-71370000D03*
X37465000Y-71370000D03*
X40005000Y-71370000D03*
X42545000Y-71370000D03*
X45085000Y-71370000D03*
X47625000Y-71370000D03*
X50165000Y-71370000D03*
X52705000Y-71370000D03*
X55245000Y-71370000D03*
X57785000Y-71370000D03*
D11*
X176530000Y-34290000D03*
D12*
X176530000Y-24130000D03*
D11*
X171450000Y-34290000D03*
D12*
X171450000Y-24130000D03*
D11*
X166370000Y-34290000D03*
D12*
X166370000Y-24130000D03*
D11*
X161290000Y-34290000D03*
D12*
X161290000Y-24130000D03*
D11*
X156210000Y-34290000D03*
D12*
X156210000Y-24130000D03*
D11*
X151130000Y-34290000D03*
D12*
X151130000Y-24130000D03*
D11*
X146050000Y-34290000D03*
D12*
X146050000Y-24130000D03*
D11*
X140970000Y-34290000D03*
D12*
X140970000Y-24130000D03*
D11*
X134620000Y-34290000D03*
D12*
X134620000Y-24130000D03*
D11*
X129540000Y-34290000D03*
D12*
X129540000Y-24130000D03*
D11*
X124460000Y-34290000D03*
D12*
X124460000Y-24130000D03*
D11*
X119380000Y-34290000D03*
D12*
X119380000Y-24130000D03*
D11*
X114300000Y-34290000D03*
D12*
X114300000Y-24130000D03*
D11*
X109220000Y-34290000D03*
D12*
X109220000Y-24130000D03*
D11*
X104140000Y-34290000D03*
D12*
X104140000Y-24130000D03*
D11*
X99060000Y-34290000D03*
D12*
X99060000Y-24130000D03*
D11*
X92710000Y-34290000D03*
D12*
X92710000Y-24130000D03*
D11*
X87630000Y-34290000D03*
D12*
X87630000Y-24130000D03*
D11*
X82550000Y-34290000D03*
D12*
X82550000Y-24130000D03*
D11*
X77470000Y-34290000D03*
D12*
X77470000Y-24130000D03*
D11*
X72390000Y-34290000D03*
D12*
X72390000Y-24130000D03*
D11*
X67310000Y-34290000D03*
D12*
X67310000Y-24130000D03*
D11*
X62230000Y-34290000D03*
D12*
X62230000Y-24130000D03*
D11*
X57150000Y-34290000D03*
D12*
X57150000Y-24130000D03*
D11*
X50800000Y-34290000D03*
D12*
X50800000Y-24130000D03*
D11*
X45720000Y-34290000D03*
D12*
X45720000Y-24130000D03*
D11*
X40640000Y-34290000D03*
D12*
X40640000Y-24130000D03*
D11*
X35560000Y-34290000D03*
D12*
X35560000Y-24130000D03*
D11*
X30480000Y-34290000D03*
D12*
X30480000Y-24130000D03*
D11*
X25400000Y-34290000D03*
D12*
X25400000Y-24130000D03*
D11*
X20320000Y-34290000D03*
D12*
X20320000Y-24130000D03*
D11*
X15240000Y-34290000D03*
D12*
X15240000Y-24130000D03*
D11*
X164465000Y-46990000D03*
D12*
X174625000Y-46990000D03*
D11*
X164465000Y-50165000D03*
D12*
X174625000Y-50165000D03*
D11*
X164465000Y-53340000D03*
D12*
X174625000Y-53340000D03*
D11*
X164465000Y-56515000D03*
D12*
X174625000Y-56515000D03*
D11*
X164465000Y-59690000D03*
D12*
X174625000Y-59690000D03*
D11*
X164465000Y-62865000D03*
D12*
X174625000Y-62865000D03*
D11*
X164465000Y-66040000D03*
D12*
X174625000Y-66040000D03*
D11*
X164465000Y-69215000D03*
D12*
X174625000Y-69215000D03*
D11*
X42545000Y-63500000D03*
D12*
X42545000Y-53340000D03*
D11*
X19685000Y-63500000D03*
D12*
X19685000Y-53340000D03*
D11*
X38735000Y-63500000D03*
D12*
X38735000Y-53340000D03*
D11*
X23495000Y-53340000D03*
D12*
X23495000Y-63500000D03*
D11*
X31115000Y-53340000D03*
D12*
X31115000Y-63500000D03*
D11*
X34925000Y-53340000D03*
D12*
X34925000Y-63500000D03*
D11*
X27305000Y-53340000D03*
D12*
X27305000Y-63500000D03*
D18*
X176530000Y-17780000D03*
X171450000Y-17780000D03*
X166370000Y-17780000D03*
X161290000Y-17780000D03*
X156210000Y-17780000D03*
X151130000Y-17780000D03*
X146050000Y-17780000D03*
D19*
X140970000Y-17780000D03*
D18*
X134620000Y-17780000D03*
X129540000Y-17780000D03*
X124460000Y-17780000D03*
X119380000Y-17780000D03*
X114300000Y-17780000D03*
X109220000Y-17780000D03*
X104140000Y-17780000D03*
D19*
X99060000Y-17780000D03*
D18*
X92710000Y-17780000D03*
X87630000Y-17780000D03*
X82550000Y-17780000D03*
X77470000Y-17780000D03*
X72390000Y-17780000D03*
X67310000Y-17780000D03*
X62230000Y-17780000D03*
D19*
X57150000Y-17780000D03*
D18*
X50800000Y-17780000D03*
X45720000Y-17780000D03*
X40640000Y-17780000D03*
X35560000Y-17780000D03*
X30480000Y-17780000D03*
X25400000Y-17780000D03*
X20320000Y-17780000D03*
D19*
X15240000Y-17780000D03*
D18*
X200025000Y-50800000D03*
X200025000Y-45720000D03*
X200025000Y-40640000D03*
X200025000Y-35560000D03*
X200025000Y-30480000D03*
X200025000Y-25400000D03*
X200025000Y-20320000D03*
D19*
X200025000Y-15240000D03*
D20*
X200660000Y-64135000D03*
D21*
X200660000Y-60635000D03*
M02*
