G04 #@! TF.GenerationSoftware,KiCad,Pcbnew,(5.1.10)-1*
G04 #@! TF.CreationDate,2023-12-13T20:17:28-05:00*
G04 #@! TF.ProjectId,LED_Matrix_Driver,4c45445f-4d61-4747-9269-785f44726976,rev?*
G04 #@! TF.SameCoordinates,Original*
G04 #@! TF.FileFunction,Legend,Top*
G04 #@! TF.FilePolarity,Positive*
%FSLAX46Y46*%
G04 Gerber Fmt 4.6, Leading zero omitted, Abs format (unit mm)*
G04 Created by KiCad (PCBNEW (5.1.10)-1) date 2023-12-13 20:17:28*
%MOMM*%
%LPD*%
G01*
G04 APERTURE LIST*
%ADD10C,0.150000*%
%ADD11C,0.120000*%
%ADD12C,2.200000*%
%ADD13O,1.600000X1.600000*%
%ADD14C,1.600000*%
%ADD15R,1.500000X1.200000*%
%ADD16C,1.200000*%
%ADD17R,1.200000X1.200000*%
%ADD18R,1.600000X1.600000*%
%ADD19R,1.200000X1.524000*%
%ADD20C,2.600000*%
%ADD21R,2.600000X2.600000*%
%ADD22C,2.400000*%
%ADD23R,2.400000X2.400000*%
G04 APERTURE END LIST*
D10*
X150872395Y-42362380D02*
X150997395Y-41362380D01*
X151235491Y-41362380D01*
X151372395Y-41410000D01*
X151455729Y-41505238D01*
X151491443Y-41600476D01*
X151515252Y-41790952D01*
X151497395Y-41933809D01*
X151425967Y-42124285D01*
X151366443Y-42219523D01*
X151259300Y-42314761D01*
X151110491Y-42362380D01*
X150872395Y-42362380D01*
X152259300Y-42314761D02*
X152158110Y-42362380D01*
X151967633Y-42362380D01*
X151878348Y-42314761D01*
X151842633Y-42219523D01*
X151890252Y-41838571D01*
X151949776Y-41743333D01*
X152050967Y-41695714D01*
X152241443Y-41695714D01*
X152330729Y-41743333D01*
X152366443Y-41838571D01*
X152354538Y-41933809D01*
X151866443Y-42029047D01*
X152687872Y-42314761D02*
X152777157Y-42362380D01*
X152967633Y-42362380D01*
X153068824Y-42314761D01*
X153128348Y-42219523D01*
X153134300Y-42171904D01*
X153098586Y-42076666D01*
X153009300Y-42029047D01*
X152866443Y-42029047D01*
X152777157Y-41981428D01*
X152741443Y-41886190D01*
X152747395Y-41838571D01*
X152806919Y-41743333D01*
X152908110Y-41695714D01*
X153050967Y-41695714D01*
X153140252Y-41743333D01*
X153539062Y-42362380D02*
X153622395Y-41695714D01*
X153664062Y-41362380D02*
X153610491Y-41410000D01*
X153652157Y-41457619D01*
X153705729Y-41410000D01*
X153664062Y-41362380D01*
X153652157Y-41457619D01*
X154527157Y-41695714D02*
X154425967Y-42505238D01*
X154366443Y-42600476D01*
X154312872Y-42648095D01*
X154211681Y-42695714D01*
X154068824Y-42695714D01*
X153979538Y-42648095D01*
X154449776Y-42314761D02*
X154348586Y-42362380D01*
X154158110Y-42362380D01*
X154068824Y-42314761D01*
X154027157Y-42267142D01*
X153991443Y-42171904D01*
X154027157Y-41886190D01*
X154086681Y-41790952D01*
X154140252Y-41743333D01*
X154241443Y-41695714D01*
X154431919Y-41695714D01*
X154521205Y-41743333D01*
X155003348Y-41695714D02*
X154920014Y-42362380D01*
X154991443Y-41790952D02*
X155045014Y-41743333D01*
X155146205Y-41695714D01*
X155289062Y-41695714D01*
X155378348Y-41743333D01*
X155414062Y-41838571D01*
X155348586Y-42362380D01*
X156211681Y-42314761D02*
X156110491Y-42362380D01*
X155920014Y-42362380D01*
X155830729Y-42314761D01*
X155795014Y-42219523D01*
X155842633Y-41838571D01*
X155902157Y-41743333D01*
X156003348Y-41695714D01*
X156193824Y-41695714D01*
X156283110Y-41743333D01*
X156318824Y-41838571D01*
X156306919Y-41933809D01*
X155818824Y-42029047D01*
X157110491Y-42362380D02*
X157235491Y-41362380D01*
X157116443Y-42314761D02*
X157015252Y-42362380D01*
X156824776Y-42362380D01*
X156735491Y-42314761D01*
X156693824Y-42267142D01*
X156658110Y-42171904D01*
X156693824Y-41886190D01*
X156753348Y-41790952D01*
X156806919Y-41743333D01*
X156908110Y-41695714D01*
X157098586Y-41695714D01*
X157187872Y-41743333D01*
X158348586Y-42362380D02*
X158473586Y-41362380D01*
X158425967Y-41743333D02*
X158527157Y-41695714D01*
X158717633Y-41695714D01*
X158806919Y-41743333D01*
X158848586Y-41790952D01*
X158884300Y-41886190D01*
X158848586Y-42171904D01*
X158789062Y-42267142D01*
X158735491Y-42314761D01*
X158634300Y-42362380D01*
X158443824Y-42362380D01*
X158354538Y-42314761D01*
X159241443Y-41695714D02*
X159396205Y-42362380D01*
X159717633Y-41695714D02*
X159396205Y-42362380D01*
X159271205Y-42600476D01*
X159217633Y-42648095D01*
X159116443Y-42695714D01*
X160777157Y-42362380D02*
X160902157Y-41362380D01*
X161146205Y-42076666D01*
X161568824Y-41362380D01*
X161443824Y-42362380D01*
X162348586Y-42362380D02*
X162414062Y-41838571D01*
X162378348Y-41743333D01*
X162289062Y-41695714D01*
X162098586Y-41695714D01*
X161997395Y-41743333D01*
X162354538Y-42314761D02*
X162253348Y-42362380D01*
X162015252Y-42362380D01*
X161925967Y-42314761D01*
X161890252Y-42219523D01*
X161902157Y-42124285D01*
X161961681Y-42029047D01*
X162062872Y-41981428D01*
X162300967Y-41981428D01*
X162402157Y-41933809D01*
X162765252Y-41695714D02*
X163146205Y-41695714D01*
X162949776Y-41362380D02*
X162842633Y-42219523D01*
X162878348Y-42314761D01*
X162967633Y-42362380D01*
X163062872Y-42362380D01*
X163336681Y-41695714D02*
X163717633Y-41695714D01*
X163521205Y-41362380D02*
X163414062Y-42219523D01*
X163449776Y-42314761D01*
X163539062Y-42362380D01*
X163634300Y-42362380D01*
X165128348Y-41838571D02*
X165265252Y-41886190D01*
X165306919Y-41933809D01*
X165342633Y-42029047D01*
X165324776Y-42171904D01*
X165265252Y-42267142D01*
X165211681Y-42314761D01*
X165110491Y-42362380D01*
X164729538Y-42362380D01*
X164854538Y-41362380D01*
X165187872Y-41362380D01*
X165277157Y-41410000D01*
X165318824Y-41457619D01*
X165354538Y-41552857D01*
X165342633Y-41648095D01*
X165283110Y-41743333D01*
X165229538Y-41790952D01*
X165128348Y-41838571D01*
X164795014Y-41838571D01*
X165872395Y-42362380D02*
X165783110Y-42314761D01*
X165741443Y-42267142D01*
X165705729Y-42171904D01*
X165741443Y-41886190D01*
X165800967Y-41790952D01*
X165854538Y-41743333D01*
X165955729Y-41695714D01*
X166098586Y-41695714D01*
X166187872Y-41743333D01*
X166229538Y-41790952D01*
X166265252Y-41886190D01*
X166229538Y-42171904D01*
X166170014Y-42267142D01*
X166116443Y-42314761D01*
X166015252Y-42362380D01*
X165872395Y-42362380D01*
X166622395Y-41695714D02*
X166729538Y-42362380D01*
X166979538Y-41886190D01*
X167110491Y-42362380D01*
X167384300Y-41695714D01*
X168068824Y-42314761D02*
X167967633Y-42362380D01*
X167777157Y-42362380D01*
X167687872Y-42314761D01*
X167652157Y-42219523D01*
X167699776Y-41838571D01*
X167759300Y-41743333D01*
X167860491Y-41695714D01*
X168050967Y-41695714D01*
X168140252Y-41743333D01*
X168175967Y-41838571D01*
X168164062Y-41933809D01*
X167675967Y-42029047D01*
X168622395Y-41695714D02*
X168539062Y-42362380D01*
X168610491Y-41790952D02*
X168664062Y-41743333D01*
X168765252Y-41695714D01*
X168908110Y-41695714D01*
X168997395Y-41743333D01*
X169033110Y-41838571D01*
X168967633Y-42362380D01*
X199898095Y-66810000D02*
X199802857Y-66762380D01*
X199660000Y-66762380D01*
X199517142Y-66810000D01*
X199421904Y-66905238D01*
X199374285Y-67000476D01*
X199326666Y-67190952D01*
X199326666Y-67333809D01*
X199374285Y-67524285D01*
X199421904Y-67619523D01*
X199517142Y-67714761D01*
X199660000Y-67762380D01*
X199755238Y-67762380D01*
X199898095Y-67714761D01*
X199945714Y-67667142D01*
X199945714Y-67333809D01*
X199755238Y-67333809D01*
X200374285Y-67762380D02*
X200374285Y-66762380D01*
X200945714Y-67762380D01*
X200945714Y-66762380D01*
X201421904Y-67762380D02*
X201421904Y-66762380D01*
X201660000Y-66762380D01*
X201802857Y-66810000D01*
X201898095Y-66905238D01*
X201945714Y-67000476D01*
X201993333Y-67190952D01*
X201993333Y-67333809D01*
X201945714Y-67524285D01*
X201898095Y-67619523D01*
X201802857Y-67714761D01*
X201660000Y-67762380D01*
X201421904Y-67762380D01*
X200469523Y-57237380D02*
X199993333Y-57237380D01*
X199945714Y-57713571D01*
X199993333Y-57665952D01*
X200088571Y-57618333D01*
X200326666Y-57618333D01*
X200421904Y-57665952D01*
X200469523Y-57713571D01*
X200517142Y-57808809D01*
X200517142Y-58046904D01*
X200469523Y-58142142D01*
X200421904Y-58189761D01*
X200326666Y-58237380D01*
X200088571Y-58237380D01*
X199993333Y-58189761D01*
X199945714Y-58142142D01*
X200802857Y-57237380D02*
X201136190Y-58237380D01*
X201469523Y-57237380D01*
X11598095Y-74652142D02*
X11550476Y-74699761D01*
X11407619Y-74747380D01*
X11312380Y-74747380D01*
X11169523Y-74699761D01*
X11074285Y-74604523D01*
X11026666Y-74509285D01*
X10979047Y-74318809D01*
X10979047Y-74175952D01*
X11026666Y-73985476D01*
X11074285Y-73890238D01*
X11169523Y-73795000D01*
X11312380Y-73747380D01*
X11407619Y-73747380D01*
X11550476Y-73795000D01*
X11598095Y-73842619D01*
X12169523Y-74747380D02*
X12074285Y-74699761D01*
X12026666Y-74652142D01*
X11979047Y-74556904D01*
X11979047Y-74271190D01*
X12026666Y-74175952D01*
X12074285Y-74128333D01*
X12169523Y-74080714D01*
X12312380Y-74080714D01*
X12407619Y-74128333D01*
X12455238Y-74175952D01*
X12502857Y-74271190D01*
X12502857Y-74556904D01*
X12455238Y-74652142D01*
X12407619Y-74699761D01*
X12312380Y-74747380D01*
X12169523Y-74747380D01*
X12931428Y-74080714D02*
X12931428Y-75080714D01*
X12931428Y-74128333D02*
X13026666Y-74080714D01*
X13217142Y-74080714D01*
X13312380Y-74128333D01*
X13359999Y-74175952D01*
X13407619Y-74271190D01*
X13407619Y-74556904D01*
X13359999Y-74652142D01*
X13312380Y-74699761D01*
X13217142Y-74747380D01*
X13026666Y-74747380D01*
X12931428Y-74699761D01*
X13740952Y-74080714D02*
X13979047Y-74747380D01*
X14217142Y-74080714D02*
X13979047Y-74747380D01*
X13883809Y-74985476D01*
X13836190Y-75033095D01*
X13740952Y-75080714D01*
X14598095Y-74747380D02*
X14598095Y-74080714D01*
X14598095Y-74271190D02*
X14645714Y-74175952D01*
X14693333Y-74128333D01*
X14788571Y-74080714D01*
X14883809Y-74080714D01*
X15217142Y-74747380D02*
X15217142Y-74080714D01*
X15217142Y-73747380D02*
X15169523Y-73795000D01*
X15217142Y-73842619D01*
X15264761Y-73795000D01*
X15217142Y-73747380D01*
X15217142Y-73842619D01*
X16121904Y-74080714D02*
X16121904Y-74890238D01*
X16074285Y-74985476D01*
X16026666Y-75033095D01*
X15931428Y-75080714D01*
X15788571Y-75080714D01*
X15693333Y-75033095D01*
X16121904Y-74699761D02*
X16026666Y-74747380D01*
X15836190Y-74747380D01*
X15740952Y-74699761D01*
X15693333Y-74652142D01*
X15645714Y-74556904D01*
X15645714Y-74271190D01*
X15693333Y-74175952D01*
X15740952Y-74128333D01*
X15836190Y-74080714D01*
X16026666Y-74080714D01*
X16121904Y-74128333D01*
X16598095Y-74747380D02*
X16598095Y-73747380D01*
X17026666Y-74747380D02*
X17026666Y-74223571D01*
X16979047Y-74128333D01*
X16883809Y-74080714D01*
X16740952Y-74080714D01*
X16645714Y-74128333D01*
X16598095Y-74175952D01*
X17360000Y-74080714D02*
X17740952Y-74080714D01*
X17502857Y-73747380D02*
X17502857Y-74604523D01*
X17550476Y-74699761D01*
X17645714Y-74747380D01*
X17740952Y-74747380D01*
X19121904Y-75128333D02*
X19074285Y-75080714D01*
X18979047Y-74937857D01*
X18931428Y-74842619D01*
X18883809Y-74699761D01*
X18836190Y-74461666D01*
X18836190Y-74271190D01*
X18883809Y-74033095D01*
X18931428Y-73890238D01*
X18979047Y-73795000D01*
X19074285Y-73652142D01*
X19121904Y-73604523D01*
X20074285Y-74652142D02*
X20026666Y-74699761D01*
X19883809Y-74747380D01*
X19788571Y-74747380D01*
X19645714Y-74699761D01*
X19550476Y-74604523D01*
X19502857Y-74509285D01*
X19455238Y-74318809D01*
X19455238Y-74175952D01*
X19502857Y-73985476D01*
X19550476Y-73890238D01*
X19645714Y-73795000D01*
X19788571Y-73747380D01*
X19883809Y-73747380D01*
X20026666Y-73795000D01*
X20074285Y-73842619D01*
X20407619Y-75128333D02*
X20455238Y-75080714D01*
X20550476Y-74937857D01*
X20598095Y-74842619D01*
X20645714Y-74699761D01*
X20693333Y-74461666D01*
X20693333Y-74271190D01*
X20645714Y-74033095D01*
X20598095Y-73890238D01*
X20550476Y-73795000D01*
X20455238Y-73652142D01*
X20407619Y-73604523D01*
X21931428Y-74747380D02*
X21931428Y-73747380D01*
X22264761Y-74461666D01*
X22598095Y-73747380D01*
X22598095Y-74747380D01*
X23502857Y-74747380D02*
X23502857Y-74223571D01*
X23455238Y-74128333D01*
X23359999Y-74080714D01*
X23169523Y-74080714D01*
X23074285Y-74128333D01*
X23502857Y-74699761D02*
X23407619Y-74747380D01*
X23169523Y-74747380D01*
X23074285Y-74699761D01*
X23026666Y-74604523D01*
X23026666Y-74509285D01*
X23074285Y-74414047D01*
X23169523Y-74366428D01*
X23407619Y-74366428D01*
X23502857Y-74318809D01*
X23836190Y-74080714D02*
X24217142Y-74080714D01*
X23979047Y-73747380D02*
X23979047Y-74604523D01*
X24026666Y-74699761D01*
X24121904Y-74747380D01*
X24217142Y-74747380D01*
X24407619Y-74080714D02*
X24788571Y-74080714D01*
X24550476Y-73747380D02*
X24550476Y-74604523D01*
X24598095Y-74699761D01*
X24693333Y-74747380D01*
X24788571Y-74747380D01*
X26217142Y-74223571D02*
X26359999Y-74271190D01*
X26407619Y-74318809D01*
X26455238Y-74414047D01*
X26455238Y-74556904D01*
X26407619Y-74652142D01*
X26359999Y-74699761D01*
X26264761Y-74747380D01*
X25883809Y-74747380D01*
X25883809Y-73747380D01*
X26217142Y-73747380D01*
X26312380Y-73795000D01*
X26359999Y-73842619D01*
X26407619Y-73937857D01*
X26407619Y-74033095D01*
X26359999Y-74128333D01*
X26312380Y-74175952D01*
X26217142Y-74223571D01*
X25883809Y-74223571D01*
X27026666Y-74747380D02*
X26931428Y-74699761D01*
X26883809Y-74652142D01*
X26836190Y-74556904D01*
X26836190Y-74271190D01*
X26883809Y-74175952D01*
X26931428Y-74128333D01*
X27026666Y-74080714D01*
X27169523Y-74080714D01*
X27264761Y-74128333D01*
X27312380Y-74175952D01*
X27359999Y-74271190D01*
X27359999Y-74556904D01*
X27312380Y-74652142D01*
X27264761Y-74699761D01*
X27169523Y-74747380D01*
X27026666Y-74747380D01*
X27693333Y-74080714D02*
X27883809Y-74747380D01*
X28074285Y-74271190D01*
X28264761Y-74747380D01*
X28455238Y-74080714D01*
X29217142Y-74699761D02*
X29121904Y-74747380D01*
X28931428Y-74747380D01*
X28836190Y-74699761D01*
X28788571Y-74604523D01*
X28788571Y-74223571D01*
X28836190Y-74128333D01*
X28931428Y-74080714D01*
X29121904Y-74080714D01*
X29217142Y-74128333D01*
X29264761Y-74223571D01*
X29264761Y-74318809D01*
X28788571Y-74414047D01*
X29693333Y-74080714D02*
X29693333Y-74747380D01*
X29693333Y-74175952D02*
X29740952Y-74128333D01*
X29836190Y-74080714D01*
X29979047Y-74080714D01*
X30074285Y-74128333D01*
X30121904Y-74223571D01*
X30121904Y-74747380D01*
X31312380Y-73842619D02*
X31359999Y-73795000D01*
X31455238Y-73747380D01*
X31693333Y-73747380D01*
X31788571Y-73795000D01*
X31836190Y-73842619D01*
X31883809Y-73937857D01*
X31883809Y-74033095D01*
X31836190Y-74175952D01*
X31264761Y-74747380D01*
X31883809Y-74747380D01*
X32502857Y-73747380D02*
X32598095Y-73747380D01*
X32693333Y-73795000D01*
X32740952Y-73842619D01*
X32788571Y-73937857D01*
X32836190Y-74128333D01*
X32836190Y-74366428D01*
X32788571Y-74556904D01*
X32740952Y-74652142D01*
X32693333Y-74699761D01*
X32598095Y-74747380D01*
X32502857Y-74747380D01*
X32407619Y-74699761D01*
X32359999Y-74652142D01*
X32312380Y-74556904D01*
X32264761Y-74366428D01*
X32264761Y-74128333D01*
X32312380Y-73937857D01*
X32359999Y-73842619D01*
X32407619Y-73795000D01*
X32502857Y-73747380D01*
X33217142Y-73842619D02*
X33264761Y-73795000D01*
X33359999Y-73747380D01*
X33598095Y-73747380D01*
X33693333Y-73795000D01*
X33740952Y-73842619D01*
X33788571Y-73937857D01*
X33788571Y-74033095D01*
X33740952Y-74175952D01*
X33169523Y-74747380D01*
X33788571Y-74747380D01*
X34121904Y-73747380D02*
X34740952Y-73747380D01*
X34407619Y-74128333D01*
X34550476Y-74128333D01*
X34645714Y-74175952D01*
X34693333Y-74223571D01*
X34740952Y-74318809D01*
X34740952Y-74556904D01*
X34693333Y-74652142D01*
X34645714Y-74699761D01*
X34550476Y-74747380D01*
X34264761Y-74747380D01*
X34169523Y-74699761D01*
X34121904Y-74652142D01*
X24973333Y-42179761D02*
X24020952Y-42179761D01*
X24020952Y-40179761D01*
X25640000Y-41132142D02*
X26306666Y-41132142D01*
X26592380Y-42179761D02*
X25640000Y-42179761D01*
X25640000Y-40179761D01*
X26592380Y-40179761D01*
X27449523Y-42179761D02*
X27449523Y-40179761D01*
X27925714Y-40179761D01*
X28211428Y-40275000D01*
X28401904Y-40465476D01*
X28497142Y-40655952D01*
X28592380Y-41036904D01*
X28592380Y-41322619D01*
X28497142Y-41703571D01*
X28401904Y-41894047D01*
X28211428Y-42084523D01*
X27925714Y-42179761D01*
X27449523Y-42179761D01*
X30973333Y-42179761D02*
X30973333Y-40179761D01*
X31640000Y-41608333D01*
X32306666Y-40179761D01*
X32306666Y-42179761D01*
X34116190Y-42179761D02*
X34116190Y-41132142D01*
X34020952Y-40941666D01*
X33830476Y-40846428D01*
X33449523Y-40846428D01*
X33259047Y-40941666D01*
X34116190Y-42084523D02*
X33925714Y-42179761D01*
X33449523Y-42179761D01*
X33259047Y-42084523D01*
X33163809Y-41894047D01*
X33163809Y-41703571D01*
X33259047Y-41513095D01*
X33449523Y-41417857D01*
X33925714Y-41417857D01*
X34116190Y-41322619D01*
X34782857Y-40846428D02*
X35544761Y-40846428D01*
X35068571Y-40179761D02*
X35068571Y-41894047D01*
X35163809Y-42084523D01*
X35354285Y-42179761D01*
X35544761Y-42179761D01*
X36211428Y-42179761D02*
X36211428Y-40846428D01*
X36211428Y-41227380D02*
X36306666Y-41036904D01*
X36401904Y-40941666D01*
X36592380Y-40846428D01*
X36782857Y-40846428D01*
X37449523Y-42179761D02*
X37449523Y-40846428D01*
X37449523Y-40179761D02*
X37354285Y-40275000D01*
X37449523Y-40370238D01*
X37544761Y-40275000D01*
X37449523Y-40179761D01*
X37449523Y-40370238D01*
X38211428Y-42179761D02*
X39259047Y-40846428D01*
X38211428Y-40846428D02*
X39259047Y-42179761D01*
X41544761Y-42179761D02*
X41544761Y-40179761D01*
X42020952Y-40179761D01*
X42306666Y-40275000D01*
X42497142Y-40465476D01*
X42592380Y-40655952D01*
X42687619Y-41036904D01*
X42687619Y-41322619D01*
X42592380Y-41703571D01*
X42497142Y-41894047D01*
X42306666Y-42084523D01*
X42020952Y-42179761D01*
X41544761Y-42179761D01*
X43544761Y-42179761D02*
X43544761Y-40846428D01*
X43544761Y-41227380D02*
X43640000Y-41036904D01*
X43735238Y-40941666D01*
X43925714Y-40846428D01*
X44116190Y-40846428D01*
X44782857Y-42179761D02*
X44782857Y-40846428D01*
X44782857Y-40179761D02*
X44687619Y-40275000D01*
X44782857Y-40370238D01*
X44878095Y-40275000D01*
X44782857Y-40179761D01*
X44782857Y-40370238D01*
X45544761Y-40846428D02*
X46020952Y-42179761D01*
X46497142Y-40846428D01*
X48020952Y-42084523D02*
X47830476Y-42179761D01*
X47449523Y-42179761D01*
X47259047Y-42084523D01*
X47163809Y-41894047D01*
X47163809Y-41132142D01*
X47259047Y-40941666D01*
X47449523Y-40846428D01*
X47830476Y-40846428D01*
X48020952Y-40941666D01*
X48116190Y-41132142D01*
X48116190Y-41322619D01*
X47163809Y-41513095D01*
X48973333Y-42179761D02*
X48973333Y-40846428D01*
X48973333Y-41227380D02*
X49068571Y-41036904D01*
X49163809Y-40941666D01*
X49354285Y-40846428D01*
X49544761Y-40846428D01*
X51449523Y-40179761D02*
X52116190Y-42179761D01*
X52782857Y-40179761D01*
X54497142Y-42179761D02*
X53354285Y-42179761D01*
X53925714Y-42179761D02*
X53925714Y-40179761D01*
X53735238Y-40465476D01*
X53544761Y-40655952D01*
X53354285Y-40751190D01*
X55354285Y-41989285D02*
X55449523Y-42084523D01*
X55354285Y-42179761D01*
X55259047Y-42084523D01*
X55354285Y-41989285D01*
X55354285Y-42179761D01*
X57354285Y-42179761D02*
X56211428Y-42179761D01*
X56782857Y-42179761D02*
X56782857Y-40179761D01*
X56592380Y-40465476D01*
X56401904Y-40655952D01*
X56211428Y-40751190D01*
D11*
X186055000Y-46355000D02*
X188595000Y-46355000D01*
X188595000Y-46355000D02*
X188595000Y-64135000D01*
X188595000Y-64135000D02*
X186055000Y-64135000D01*
X186055000Y-64135000D02*
X186055000Y-46355000D01*
X183665000Y-44300000D02*
X183665000Y-42060000D01*
X190905000Y-44300000D02*
X190905000Y-42060000D01*
X190905000Y-42060000D02*
X183665000Y-42060000D01*
X190905000Y-44300000D02*
X183665000Y-44300000D01*
X149285000Y-47505000D02*
X139005000Y-47505000D01*
X149285000Y-68065000D02*
X149285000Y-47505000D01*
X139005000Y-68065000D02*
X149285000Y-68065000D01*
X139005000Y-47505000D02*
X139005000Y-68065000D01*
X146795000Y-47565000D02*
X145145000Y-47565000D01*
X146795000Y-68005000D02*
X146795000Y-47565000D01*
X141495000Y-68005000D02*
X146795000Y-68005000D01*
X141495000Y-47565000D02*
X141495000Y-68005000D01*
X143145000Y-47565000D02*
X141495000Y-47565000D01*
X145145000Y-47565000D02*
G75*
G02*
X143145000Y-47565000I-1000000J0D01*
G01*
X131505000Y-47505000D02*
X121225000Y-47505000D01*
X131505000Y-68065000D02*
X131505000Y-47505000D01*
X121225000Y-68065000D02*
X131505000Y-68065000D01*
X121225000Y-47505000D02*
X121225000Y-68065000D01*
X129015000Y-47565000D02*
X127365000Y-47565000D01*
X129015000Y-68005000D02*
X129015000Y-47565000D01*
X123715000Y-68005000D02*
X129015000Y-68005000D01*
X123715000Y-47565000D02*
X123715000Y-68005000D01*
X125365000Y-47565000D02*
X123715000Y-47565000D01*
X127365000Y-47565000D02*
G75*
G02*
X125365000Y-47565000I-1000000J0D01*
G01*
X113725000Y-47505000D02*
X103445000Y-47505000D01*
X113725000Y-68065000D02*
X113725000Y-47505000D01*
X103445000Y-68065000D02*
X113725000Y-68065000D01*
X103445000Y-47505000D02*
X103445000Y-68065000D01*
X111235000Y-47565000D02*
X109585000Y-47565000D01*
X111235000Y-68005000D02*
X111235000Y-47565000D01*
X105935000Y-68005000D02*
X111235000Y-68005000D01*
X105935000Y-47565000D02*
X105935000Y-68005000D01*
X107585000Y-47565000D02*
X105935000Y-47565000D01*
X109585000Y-47565000D02*
G75*
G02*
X107585000Y-47565000I-1000000J0D01*
G01*
X95945000Y-47505000D02*
X85665000Y-47505000D01*
X95945000Y-68065000D02*
X95945000Y-47505000D01*
X85665000Y-68065000D02*
X95945000Y-68065000D01*
X85665000Y-47505000D02*
X85665000Y-68065000D01*
X93455000Y-47565000D02*
X91805000Y-47565000D01*
X93455000Y-68005000D02*
X93455000Y-47565000D01*
X88155000Y-68005000D02*
X93455000Y-68005000D01*
X88155000Y-47565000D02*
X88155000Y-68005000D01*
X89805000Y-47565000D02*
X88155000Y-47565000D01*
X91805000Y-47565000D02*
G75*
G02*
X89805000Y-47565000I-1000000J0D01*
G01*
X155210000Y-47565000D02*
X153560000Y-47565000D01*
X153560000Y-47565000D02*
X153560000Y-68005000D01*
X153560000Y-68005000D02*
X158860000Y-68005000D01*
X158860000Y-68005000D02*
X158860000Y-47565000D01*
X158860000Y-47565000D02*
X157210000Y-47565000D01*
X151070000Y-47505000D02*
X151070000Y-68065000D01*
X151070000Y-68065000D02*
X161350000Y-68065000D01*
X161350000Y-68065000D02*
X161350000Y-47505000D01*
X161350000Y-47505000D02*
X151070000Y-47505000D01*
X157210000Y-47565000D02*
G75*
G02*
X155210000Y-47565000I-1000000J0D01*
G01*
X186325000Y-18355000D02*
X184675000Y-18355000D01*
X184675000Y-18355000D02*
X184675000Y-41335000D01*
X184675000Y-41335000D02*
X189975000Y-41335000D01*
X189975000Y-41335000D02*
X189975000Y-18355000D01*
X189975000Y-18355000D02*
X188325000Y-18355000D01*
X182185000Y-18295000D02*
X182185000Y-41395000D01*
X182185000Y-41395000D02*
X192465000Y-41395000D01*
X192465000Y-41395000D02*
X192465000Y-18295000D01*
X192465000Y-18295000D02*
X182185000Y-18295000D01*
X188325000Y-18355000D02*
G75*
G02*
X186325000Y-18355000I-1000000J0D01*
G01*
X78800000Y-45600000D02*
X68520000Y-45600000D01*
X78800000Y-71240000D02*
X78800000Y-45600000D01*
X68520000Y-71240000D02*
X78800000Y-71240000D01*
X68520000Y-45600000D02*
X68520000Y-71240000D01*
X76310000Y-45660000D02*
X74660000Y-45660000D01*
X76310000Y-71180000D02*
X76310000Y-45660000D01*
X71010000Y-71180000D02*
X76310000Y-71180000D01*
X71010000Y-45660000D02*
X71010000Y-71180000D01*
X72660000Y-45660000D02*
X71010000Y-45660000D01*
X74660000Y-45660000D02*
G75*
G02*
X72660000Y-45660000I-1000000J0D01*
G01*
X59055000Y-44450000D02*
X59055000Y-72390000D01*
X59055000Y-72390000D02*
X10795000Y-72390000D01*
X10795000Y-72390000D02*
X10795000Y-44450000D01*
X10795000Y-44450000D02*
X59055000Y-44450000D01*
X59055000Y-49530000D02*
X62865000Y-49530000D01*
X62865000Y-49530000D02*
X62865000Y-66040000D01*
X62865000Y-67310000D02*
X59055000Y-67310000D01*
X62865000Y-66040000D02*
X62865000Y-67310000D01*
X177900000Y-25940000D02*
X175160000Y-25940000D01*
X175160000Y-25940000D02*
X175160000Y-32480000D01*
X175160000Y-32480000D02*
X177900000Y-32480000D01*
X177900000Y-32480000D02*
X177900000Y-25940000D01*
X176530000Y-25170000D02*
X176530000Y-25940000D01*
X176530000Y-33250000D02*
X176530000Y-32480000D01*
X172820000Y-25940000D02*
X170080000Y-25940000D01*
X170080000Y-25940000D02*
X170080000Y-32480000D01*
X170080000Y-32480000D02*
X172820000Y-32480000D01*
X172820000Y-32480000D02*
X172820000Y-25940000D01*
X171450000Y-25170000D02*
X171450000Y-25940000D01*
X171450000Y-33250000D02*
X171450000Y-32480000D01*
X167740000Y-25940000D02*
X165000000Y-25940000D01*
X165000000Y-25940000D02*
X165000000Y-32480000D01*
X165000000Y-32480000D02*
X167740000Y-32480000D01*
X167740000Y-32480000D02*
X167740000Y-25940000D01*
X166370000Y-25170000D02*
X166370000Y-25940000D01*
X166370000Y-33250000D02*
X166370000Y-32480000D01*
X162660000Y-25940000D02*
X159920000Y-25940000D01*
X159920000Y-25940000D02*
X159920000Y-32480000D01*
X159920000Y-32480000D02*
X162660000Y-32480000D01*
X162660000Y-32480000D02*
X162660000Y-25940000D01*
X161290000Y-25170000D02*
X161290000Y-25940000D01*
X161290000Y-33250000D02*
X161290000Y-32480000D01*
X157580000Y-25940000D02*
X154840000Y-25940000D01*
X154840000Y-25940000D02*
X154840000Y-32480000D01*
X154840000Y-32480000D02*
X157580000Y-32480000D01*
X157580000Y-32480000D02*
X157580000Y-25940000D01*
X156210000Y-25170000D02*
X156210000Y-25940000D01*
X156210000Y-33250000D02*
X156210000Y-32480000D01*
X152500000Y-25940000D02*
X149760000Y-25940000D01*
X149760000Y-25940000D02*
X149760000Y-32480000D01*
X149760000Y-32480000D02*
X152500000Y-32480000D01*
X152500000Y-32480000D02*
X152500000Y-25940000D01*
X151130000Y-25170000D02*
X151130000Y-25940000D01*
X151130000Y-33250000D02*
X151130000Y-32480000D01*
X147420000Y-25940000D02*
X144680000Y-25940000D01*
X144680000Y-25940000D02*
X144680000Y-32480000D01*
X144680000Y-32480000D02*
X147420000Y-32480000D01*
X147420000Y-32480000D02*
X147420000Y-25940000D01*
X146050000Y-25170000D02*
X146050000Y-25940000D01*
X146050000Y-33250000D02*
X146050000Y-32480000D01*
X142340000Y-25940000D02*
X139600000Y-25940000D01*
X139600000Y-25940000D02*
X139600000Y-32480000D01*
X139600000Y-32480000D02*
X142340000Y-32480000D01*
X142340000Y-32480000D02*
X142340000Y-25940000D01*
X140970000Y-25170000D02*
X140970000Y-25940000D01*
X140970000Y-33250000D02*
X140970000Y-32480000D01*
X135990000Y-25940000D02*
X133250000Y-25940000D01*
X133250000Y-25940000D02*
X133250000Y-32480000D01*
X133250000Y-32480000D02*
X135990000Y-32480000D01*
X135990000Y-32480000D02*
X135990000Y-25940000D01*
X134620000Y-25170000D02*
X134620000Y-25940000D01*
X134620000Y-33250000D02*
X134620000Y-32480000D01*
X130910000Y-25940000D02*
X128170000Y-25940000D01*
X128170000Y-25940000D02*
X128170000Y-32480000D01*
X128170000Y-32480000D02*
X130910000Y-32480000D01*
X130910000Y-32480000D02*
X130910000Y-25940000D01*
X129540000Y-25170000D02*
X129540000Y-25940000D01*
X129540000Y-33250000D02*
X129540000Y-32480000D01*
X125830000Y-25940000D02*
X123090000Y-25940000D01*
X123090000Y-25940000D02*
X123090000Y-32480000D01*
X123090000Y-32480000D02*
X125830000Y-32480000D01*
X125830000Y-32480000D02*
X125830000Y-25940000D01*
X124460000Y-25170000D02*
X124460000Y-25940000D01*
X124460000Y-33250000D02*
X124460000Y-32480000D01*
X120750000Y-25940000D02*
X118010000Y-25940000D01*
X118010000Y-25940000D02*
X118010000Y-32480000D01*
X118010000Y-32480000D02*
X120750000Y-32480000D01*
X120750000Y-32480000D02*
X120750000Y-25940000D01*
X119380000Y-25170000D02*
X119380000Y-25940000D01*
X119380000Y-33250000D02*
X119380000Y-32480000D01*
X115670000Y-25940000D02*
X112930000Y-25940000D01*
X112930000Y-25940000D02*
X112930000Y-32480000D01*
X112930000Y-32480000D02*
X115670000Y-32480000D01*
X115670000Y-32480000D02*
X115670000Y-25940000D01*
X114300000Y-25170000D02*
X114300000Y-25940000D01*
X114300000Y-33250000D02*
X114300000Y-32480000D01*
X110590000Y-25940000D02*
X107850000Y-25940000D01*
X107850000Y-25940000D02*
X107850000Y-32480000D01*
X107850000Y-32480000D02*
X110590000Y-32480000D01*
X110590000Y-32480000D02*
X110590000Y-25940000D01*
X109220000Y-25170000D02*
X109220000Y-25940000D01*
X109220000Y-33250000D02*
X109220000Y-32480000D01*
X105510000Y-25940000D02*
X102770000Y-25940000D01*
X102770000Y-25940000D02*
X102770000Y-32480000D01*
X102770000Y-32480000D02*
X105510000Y-32480000D01*
X105510000Y-32480000D02*
X105510000Y-25940000D01*
X104140000Y-25170000D02*
X104140000Y-25940000D01*
X104140000Y-33250000D02*
X104140000Y-32480000D01*
X100430000Y-25940000D02*
X97690000Y-25940000D01*
X97690000Y-25940000D02*
X97690000Y-32480000D01*
X97690000Y-32480000D02*
X100430000Y-32480000D01*
X100430000Y-32480000D02*
X100430000Y-25940000D01*
X99060000Y-25170000D02*
X99060000Y-25940000D01*
X99060000Y-33250000D02*
X99060000Y-32480000D01*
X94080000Y-25940000D02*
X91340000Y-25940000D01*
X91340000Y-25940000D02*
X91340000Y-32480000D01*
X91340000Y-32480000D02*
X94080000Y-32480000D01*
X94080000Y-32480000D02*
X94080000Y-25940000D01*
X92710000Y-25170000D02*
X92710000Y-25940000D01*
X92710000Y-33250000D02*
X92710000Y-32480000D01*
X89000000Y-25940000D02*
X86260000Y-25940000D01*
X86260000Y-25940000D02*
X86260000Y-32480000D01*
X86260000Y-32480000D02*
X89000000Y-32480000D01*
X89000000Y-32480000D02*
X89000000Y-25940000D01*
X87630000Y-25170000D02*
X87630000Y-25940000D01*
X87630000Y-33250000D02*
X87630000Y-32480000D01*
X83920000Y-25940000D02*
X81180000Y-25940000D01*
X81180000Y-25940000D02*
X81180000Y-32480000D01*
X81180000Y-32480000D02*
X83920000Y-32480000D01*
X83920000Y-32480000D02*
X83920000Y-25940000D01*
X82550000Y-25170000D02*
X82550000Y-25940000D01*
X82550000Y-33250000D02*
X82550000Y-32480000D01*
X78840000Y-25940000D02*
X76100000Y-25940000D01*
X76100000Y-25940000D02*
X76100000Y-32480000D01*
X76100000Y-32480000D02*
X78840000Y-32480000D01*
X78840000Y-32480000D02*
X78840000Y-25940000D01*
X77470000Y-25170000D02*
X77470000Y-25940000D01*
X77470000Y-33250000D02*
X77470000Y-32480000D01*
X73760000Y-25940000D02*
X71020000Y-25940000D01*
X71020000Y-25940000D02*
X71020000Y-32480000D01*
X71020000Y-32480000D02*
X73760000Y-32480000D01*
X73760000Y-32480000D02*
X73760000Y-25940000D01*
X72390000Y-25170000D02*
X72390000Y-25940000D01*
X72390000Y-33250000D02*
X72390000Y-32480000D01*
X68680000Y-25940000D02*
X65940000Y-25940000D01*
X65940000Y-25940000D02*
X65940000Y-32480000D01*
X65940000Y-32480000D02*
X68680000Y-32480000D01*
X68680000Y-32480000D02*
X68680000Y-25940000D01*
X67310000Y-25170000D02*
X67310000Y-25940000D01*
X67310000Y-33250000D02*
X67310000Y-32480000D01*
X63600000Y-25940000D02*
X60860000Y-25940000D01*
X60860000Y-25940000D02*
X60860000Y-32480000D01*
X60860000Y-32480000D02*
X63600000Y-32480000D01*
X63600000Y-32480000D02*
X63600000Y-25940000D01*
X62230000Y-25170000D02*
X62230000Y-25940000D01*
X62230000Y-33250000D02*
X62230000Y-32480000D01*
X58520000Y-25940000D02*
X55780000Y-25940000D01*
X55780000Y-25940000D02*
X55780000Y-32480000D01*
X55780000Y-32480000D02*
X58520000Y-32480000D01*
X58520000Y-32480000D02*
X58520000Y-25940000D01*
X57150000Y-25170000D02*
X57150000Y-25940000D01*
X57150000Y-33250000D02*
X57150000Y-32480000D01*
X52170000Y-25940000D02*
X49430000Y-25940000D01*
X49430000Y-25940000D02*
X49430000Y-32480000D01*
X49430000Y-32480000D02*
X52170000Y-32480000D01*
X52170000Y-32480000D02*
X52170000Y-25940000D01*
X50800000Y-25170000D02*
X50800000Y-25940000D01*
X50800000Y-33250000D02*
X50800000Y-32480000D01*
X47090000Y-25940000D02*
X44350000Y-25940000D01*
X44350000Y-25940000D02*
X44350000Y-32480000D01*
X44350000Y-32480000D02*
X47090000Y-32480000D01*
X47090000Y-32480000D02*
X47090000Y-25940000D01*
X45720000Y-25170000D02*
X45720000Y-25940000D01*
X45720000Y-33250000D02*
X45720000Y-32480000D01*
X42010000Y-25940000D02*
X39270000Y-25940000D01*
X39270000Y-25940000D02*
X39270000Y-32480000D01*
X39270000Y-32480000D02*
X42010000Y-32480000D01*
X42010000Y-32480000D02*
X42010000Y-25940000D01*
X40640000Y-25170000D02*
X40640000Y-25940000D01*
X40640000Y-33250000D02*
X40640000Y-32480000D01*
X36930000Y-25940000D02*
X34190000Y-25940000D01*
X34190000Y-25940000D02*
X34190000Y-32480000D01*
X34190000Y-32480000D02*
X36930000Y-32480000D01*
X36930000Y-32480000D02*
X36930000Y-25940000D01*
X35560000Y-25170000D02*
X35560000Y-25940000D01*
X35560000Y-33250000D02*
X35560000Y-32480000D01*
X31850000Y-25940000D02*
X29110000Y-25940000D01*
X29110000Y-25940000D02*
X29110000Y-32480000D01*
X29110000Y-32480000D02*
X31850000Y-32480000D01*
X31850000Y-32480000D02*
X31850000Y-25940000D01*
X30480000Y-25170000D02*
X30480000Y-25940000D01*
X30480000Y-33250000D02*
X30480000Y-32480000D01*
X26770000Y-25940000D02*
X24030000Y-25940000D01*
X24030000Y-25940000D02*
X24030000Y-32480000D01*
X24030000Y-32480000D02*
X26770000Y-32480000D01*
X26770000Y-32480000D02*
X26770000Y-25940000D01*
X25400000Y-25170000D02*
X25400000Y-25940000D01*
X25400000Y-33250000D02*
X25400000Y-32480000D01*
X21690000Y-25940000D02*
X18950000Y-25940000D01*
X18950000Y-25940000D02*
X18950000Y-32480000D01*
X18950000Y-32480000D02*
X21690000Y-32480000D01*
X21690000Y-32480000D02*
X21690000Y-25940000D01*
X20320000Y-25170000D02*
X20320000Y-25940000D01*
X20320000Y-33250000D02*
X20320000Y-32480000D01*
X16610000Y-25940000D02*
X13870000Y-25940000D01*
X13870000Y-25940000D02*
X13870000Y-32480000D01*
X13870000Y-32480000D02*
X16610000Y-32480000D01*
X16610000Y-32480000D02*
X16610000Y-25940000D01*
X15240000Y-25170000D02*
X15240000Y-25940000D01*
X15240000Y-33250000D02*
X15240000Y-32480000D01*
X172815000Y-48360000D02*
X172815000Y-45620000D01*
X172815000Y-45620000D02*
X166275000Y-45620000D01*
X166275000Y-45620000D02*
X166275000Y-48360000D01*
X166275000Y-48360000D02*
X172815000Y-48360000D01*
X173585000Y-46990000D02*
X172815000Y-46990000D01*
X165505000Y-46990000D02*
X166275000Y-46990000D01*
X172815000Y-51535000D02*
X172815000Y-48795000D01*
X172815000Y-48795000D02*
X166275000Y-48795000D01*
X166275000Y-48795000D02*
X166275000Y-51535000D01*
X166275000Y-51535000D02*
X172815000Y-51535000D01*
X173585000Y-50165000D02*
X172815000Y-50165000D01*
X165505000Y-50165000D02*
X166275000Y-50165000D01*
X172815000Y-54710000D02*
X172815000Y-51970000D01*
X172815000Y-51970000D02*
X166275000Y-51970000D01*
X166275000Y-51970000D02*
X166275000Y-54710000D01*
X166275000Y-54710000D02*
X172815000Y-54710000D01*
X173585000Y-53340000D02*
X172815000Y-53340000D01*
X165505000Y-53340000D02*
X166275000Y-53340000D01*
X172815000Y-57885000D02*
X172815000Y-55145000D01*
X172815000Y-55145000D02*
X166275000Y-55145000D01*
X166275000Y-55145000D02*
X166275000Y-57885000D01*
X166275000Y-57885000D02*
X172815000Y-57885000D01*
X173585000Y-56515000D02*
X172815000Y-56515000D01*
X165505000Y-56515000D02*
X166275000Y-56515000D01*
X172815000Y-61060000D02*
X172815000Y-58320000D01*
X172815000Y-58320000D02*
X166275000Y-58320000D01*
X166275000Y-58320000D02*
X166275000Y-61060000D01*
X166275000Y-61060000D02*
X172815000Y-61060000D01*
X173585000Y-59690000D02*
X172815000Y-59690000D01*
X165505000Y-59690000D02*
X166275000Y-59690000D01*
X172815000Y-64235000D02*
X172815000Y-61495000D01*
X172815000Y-61495000D02*
X166275000Y-61495000D01*
X166275000Y-61495000D02*
X166275000Y-64235000D01*
X166275000Y-64235000D02*
X172815000Y-64235000D01*
X173585000Y-62865000D02*
X172815000Y-62865000D01*
X165505000Y-62865000D02*
X166275000Y-62865000D01*
X172815000Y-67410000D02*
X172815000Y-64670000D01*
X172815000Y-64670000D02*
X166275000Y-64670000D01*
X166275000Y-64670000D02*
X166275000Y-67410000D01*
X166275000Y-67410000D02*
X172815000Y-67410000D01*
X173585000Y-66040000D02*
X172815000Y-66040000D01*
X165505000Y-66040000D02*
X166275000Y-66040000D01*
X172815000Y-70585000D02*
X172815000Y-67845000D01*
X172815000Y-67845000D02*
X166275000Y-67845000D01*
X166275000Y-67845000D02*
X166275000Y-70585000D01*
X166275000Y-70585000D02*
X172815000Y-70585000D01*
X173585000Y-69215000D02*
X172815000Y-69215000D01*
X165505000Y-69215000D02*
X166275000Y-69215000D01*
X147730000Y-17780000D02*
G75*
G03*
X147730000Y-17780000I-1680000J0D01*
G01*
X152810000Y-17780000D02*
G75*
G03*
X152810000Y-17780000I-1680000J0D01*
G01*
X157890000Y-17780000D02*
G75*
G03*
X157890000Y-17780000I-1680000J0D01*
G01*
X162970000Y-17780000D02*
G75*
G03*
X162970000Y-17780000I-1680000J0D01*
G01*
X168050000Y-17780000D02*
G75*
G03*
X168050000Y-17780000I-1680000J0D01*
G01*
X173130000Y-17780000D02*
G75*
G03*
X173130000Y-17780000I-1680000J0D01*
G01*
X178210000Y-17780000D02*
G75*
G03*
X178210000Y-17780000I-1680000J0D01*
G01*
X138370000Y-21880000D02*
X179130000Y-21880000D01*
X138370000Y-20380000D02*
X179130000Y-20380000D01*
X138370000Y-15479000D02*
X179130000Y-15479000D01*
X138370000Y-12519000D02*
X179130000Y-12519000D01*
X138370000Y-22440000D02*
X179130000Y-22440000D01*
X138370000Y-12519000D02*
X138370000Y-22440000D01*
X179130000Y-12519000D02*
X179130000Y-22440000D01*
X147325000Y-16711000D02*
X147278000Y-16757000D01*
X145016000Y-19019000D02*
X144981000Y-19054000D01*
X147120000Y-16505000D02*
X147085000Y-16541000D01*
X144823000Y-18803000D02*
X144776000Y-18849000D01*
X152405000Y-16711000D02*
X152358000Y-16757000D01*
X150096000Y-19019000D02*
X150061000Y-19054000D01*
X152200000Y-16505000D02*
X152165000Y-16541000D01*
X149903000Y-18803000D02*
X149856000Y-18849000D01*
X157485000Y-16711000D02*
X157438000Y-16757000D01*
X155176000Y-19019000D02*
X155141000Y-19054000D01*
X157280000Y-16505000D02*
X157245000Y-16541000D01*
X154983000Y-18803000D02*
X154936000Y-18849000D01*
X162565000Y-16711000D02*
X162518000Y-16757000D01*
X160256000Y-19019000D02*
X160221000Y-19054000D01*
X162360000Y-16505000D02*
X162325000Y-16541000D01*
X160063000Y-18803000D02*
X160016000Y-18849000D01*
X167645000Y-16711000D02*
X167598000Y-16757000D01*
X165336000Y-19019000D02*
X165301000Y-19054000D01*
X167440000Y-16505000D02*
X167405000Y-16541000D01*
X165143000Y-18803000D02*
X165096000Y-18849000D01*
X172725000Y-16711000D02*
X172678000Y-16757000D01*
X170416000Y-19019000D02*
X170381000Y-19054000D01*
X172520000Y-16505000D02*
X172485000Y-16541000D01*
X170223000Y-18803000D02*
X170176000Y-18849000D01*
X177805000Y-16711000D02*
X177758000Y-16757000D01*
X175496000Y-19019000D02*
X175461000Y-19054000D01*
X177600000Y-16505000D02*
X177565000Y-16541000D01*
X175303000Y-18803000D02*
X175256000Y-18849000D01*
X138130000Y-21940000D02*
X138130000Y-22680000D01*
X138130000Y-22680000D02*
X138630000Y-22680000D01*
X140998805Y-19460253D02*
G75*
G02*
X140286000Y-19315000I-28805J1680253D01*
G01*
X139434574Y-18463042D02*
G75*
G02*
X139435000Y-17096000I1535426J683042D01*
G01*
X140286958Y-16244574D02*
G75*
G02*
X141654000Y-16245000I683042J-1535426D01*
G01*
X142505426Y-17096958D02*
G75*
G02*
X142505000Y-18464000I-1535426J-683042D01*
G01*
X141653318Y-19314756D02*
G75*
G02*
X140970000Y-19460000I-683318J1534756D01*
G01*
X105820000Y-17780000D02*
G75*
G03*
X105820000Y-17780000I-1680000J0D01*
G01*
X110900000Y-17780000D02*
G75*
G03*
X110900000Y-17780000I-1680000J0D01*
G01*
X115980000Y-17780000D02*
G75*
G03*
X115980000Y-17780000I-1680000J0D01*
G01*
X121060000Y-17780000D02*
G75*
G03*
X121060000Y-17780000I-1680000J0D01*
G01*
X126140000Y-17780000D02*
G75*
G03*
X126140000Y-17780000I-1680000J0D01*
G01*
X131220000Y-17780000D02*
G75*
G03*
X131220000Y-17780000I-1680000J0D01*
G01*
X136300000Y-17780000D02*
G75*
G03*
X136300000Y-17780000I-1680000J0D01*
G01*
X96460000Y-21880000D02*
X137220000Y-21880000D01*
X96460000Y-20380000D02*
X137220000Y-20380000D01*
X96460000Y-15479000D02*
X137220000Y-15479000D01*
X96460000Y-12519000D02*
X137220000Y-12519000D01*
X96460000Y-22440000D02*
X137220000Y-22440000D01*
X96460000Y-12519000D02*
X96460000Y-22440000D01*
X137220000Y-12519000D02*
X137220000Y-22440000D01*
X105415000Y-16711000D02*
X105368000Y-16757000D01*
X103106000Y-19019000D02*
X103071000Y-19054000D01*
X105210000Y-16505000D02*
X105175000Y-16541000D01*
X102913000Y-18803000D02*
X102866000Y-18849000D01*
X110495000Y-16711000D02*
X110448000Y-16757000D01*
X108186000Y-19019000D02*
X108151000Y-19054000D01*
X110290000Y-16505000D02*
X110255000Y-16541000D01*
X107993000Y-18803000D02*
X107946000Y-18849000D01*
X115575000Y-16711000D02*
X115528000Y-16757000D01*
X113266000Y-19019000D02*
X113231000Y-19054000D01*
X115370000Y-16505000D02*
X115335000Y-16541000D01*
X113073000Y-18803000D02*
X113026000Y-18849000D01*
X120655000Y-16711000D02*
X120608000Y-16757000D01*
X118346000Y-19019000D02*
X118311000Y-19054000D01*
X120450000Y-16505000D02*
X120415000Y-16541000D01*
X118153000Y-18803000D02*
X118106000Y-18849000D01*
X125735000Y-16711000D02*
X125688000Y-16757000D01*
X123426000Y-19019000D02*
X123391000Y-19054000D01*
X125530000Y-16505000D02*
X125495000Y-16541000D01*
X123233000Y-18803000D02*
X123186000Y-18849000D01*
X130815000Y-16711000D02*
X130768000Y-16757000D01*
X128506000Y-19019000D02*
X128471000Y-19054000D01*
X130610000Y-16505000D02*
X130575000Y-16541000D01*
X128313000Y-18803000D02*
X128266000Y-18849000D01*
X135895000Y-16711000D02*
X135848000Y-16757000D01*
X133586000Y-19019000D02*
X133551000Y-19054000D01*
X135690000Y-16505000D02*
X135655000Y-16541000D01*
X133393000Y-18803000D02*
X133346000Y-18849000D01*
X96220000Y-21940000D02*
X96220000Y-22680000D01*
X96220000Y-22680000D02*
X96720000Y-22680000D01*
X99088805Y-19460253D02*
G75*
G02*
X98376000Y-19315000I-28805J1680253D01*
G01*
X97524574Y-18463042D02*
G75*
G02*
X97525000Y-17096000I1535426J683042D01*
G01*
X98376958Y-16244574D02*
G75*
G02*
X99744000Y-16245000I683042J-1535426D01*
G01*
X100595426Y-17096958D02*
G75*
G02*
X100595000Y-18464000I-1535426J-683042D01*
G01*
X99743318Y-19314756D02*
G75*
G02*
X99060000Y-19460000I-683318J1534756D01*
G01*
X63910000Y-17780000D02*
G75*
G03*
X63910000Y-17780000I-1680000J0D01*
G01*
X68990000Y-17780000D02*
G75*
G03*
X68990000Y-17780000I-1680000J0D01*
G01*
X74070000Y-17780000D02*
G75*
G03*
X74070000Y-17780000I-1680000J0D01*
G01*
X79150000Y-17780000D02*
G75*
G03*
X79150000Y-17780000I-1680000J0D01*
G01*
X84230000Y-17780000D02*
G75*
G03*
X84230000Y-17780000I-1680000J0D01*
G01*
X89310000Y-17780000D02*
G75*
G03*
X89310000Y-17780000I-1680000J0D01*
G01*
X94390000Y-17780000D02*
G75*
G03*
X94390000Y-17780000I-1680000J0D01*
G01*
X54550000Y-21880000D02*
X95310000Y-21880000D01*
X54550000Y-20380000D02*
X95310000Y-20380000D01*
X54550000Y-15479000D02*
X95310000Y-15479000D01*
X54550000Y-12519000D02*
X95310000Y-12519000D01*
X54550000Y-22440000D02*
X95310000Y-22440000D01*
X54550000Y-12519000D02*
X54550000Y-22440000D01*
X95310000Y-12519000D02*
X95310000Y-22440000D01*
X63505000Y-16711000D02*
X63458000Y-16757000D01*
X61196000Y-19019000D02*
X61161000Y-19054000D01*
X63300000Y-16505000D02*
X63265000Y-16541000D01*
X61003000Y-18803000D02*
X60956000Y-18849000D01*
X68585000Y-16711000D02*
X68538000Y-16757000D01*
X66276000Y-19019000D02*
X66241000Y-19054000D01*
X68380000Y-16505000D02*
X68345000Y-16541000D01*
X66083000Y-18803000D02*
X66036000Y-18849000D01*
X73665000Y-16711000D02*
X73618000Y-16757000D01*
X71356000Y-19019000D02*
X71321000Y-19054000D01*
X73460000Y-16505000D02*
X73425000Y-16541000D01*
X71163000Y-18803000D02*
X71116000Y-18849000D01*
X78745000Y-16711000D02*
X78698000Y-16757000D01*
X76436000Y-19019000D02*
X76401000Y-19054000D01*
X78540000Y-16505000D02*
X78505000Y-16541000D01*
X76243000Y-18803000D02*
X76196000Y-18849000D01*
X83825000Y-16711000D02*
X83778000Y-16757000D01*
X81516000Y-19019000D02*
X81481000Y-19054000D01*
X83620000Y-16505000D02*
X83585000Y-16541000D01*
X81323000Y-18803000D02*
X81276000Y-18849000D01*
X88905000Y-16711000D02*
X88858000Y-16757000D01*
X86596000Y-19019000D02*
X86561000Y-19054000D01*
X88700000Y-16505000D02*
X88665000Y-16541000D01*
X86403000Y-18803000D02*
X86356000Y-18849000D01*
X93985000Y-16711000D02*
X93938000Y-16757000D01*
X91676000Y-19019000D02*
X91641000Y-19054000D01*
X93780000Y-16505000D02*
X93745000Y-16541000D01*
X91483000Y-18803000D02*
X91436000Y-18849000D01*
X54310000Y-21940000D02*
X54310000Y-22680000D01*
X54310000Y-22680000D02*
X54810000Y-22680000D01*
X57178805Y-19460253D02*
G75*
G02*
X56466000Y-19315000I-28805J1680253D01*
G01*
X55614574Y-18463042D02*
G75*
G02*
X55615000Y-17096000I1535426J683042D01*
G01*
X56466958Y-16244574D02*
G75*
G02*
X57834000Y-16245000I683042J-1535426D01*
G01*
X58685426Y-17096958D02*
G75*
G02*
X58685000Y-18464000I-1535426J-683042D01*
G01*
X57833318Y-19314756D02*
G75*
G02*
X57150000Y-19460000I-683318J1534756D01*
G01*
X22000000Y-17780000D02*
G75*
G03*
X22000000Y-17780000I-1680000J0D01*
G01*
X27080000Y-17780000D02*
G75*
G03*
X27080000Y-17780000I-1680000J0D01*
G01*
X32160000Y-17780000D02*
G75*
G03*
X32160000Y-17780000I-1680000J0D01*
G01*
X37240000Y-17780000D02*
G75*
G03*
X37240000Y-17780000I-1680000J0D01*
G01*
X42320000Y-17780000D02*
G75*
G03*
X42320000Y-17780000I-1680000J0D01*
G01*
X47400000Y-17780000D02*
G75*
G03*
X47400000Y-17780000I-1680000J0D01*
G01*
X52480000Y-17780000D02*
G75*
G03*
X52480000Y-17780000I-1680000J0D01*
G01*
X12640000Y-21880000D02*
X53400000Y-21880000D01*
X12640000Y-20380000D02*
X53400000Y-20380000D01*
X12640000Y-15479000D02*
X53400000Y-15479000D01*
X12640000Y-12519000D02*
X53400000Y-12519000D01*
X12640000Y-22440000D02*
X53400000Y-22440000D01*
X12640000Y-12519000D02*
X12640000Y-22440000D01*
X53400000Y-12519000D02*
X53400000Y-22440000D01*
X21595000Y-16711000D02*
X21548000Y-16757000D01*
X19286000Y-19019000D02*
X19251000Y-19054000D01*
X21390000Y-16505000D02*
X21355000Y-16541000D01*
X19093000Y-18803000D02*
X19046000Y-18849000D01*
X26675000Y-16711000D02*
X26628000Y-16757000D01*
X24366000Y-19019000D02*
X24331000Y-19054000D01*
X26470000Y-16505000D02*
X26435000Y-16541000D01*
X24173000Y-18803000D02*
X24126000Y-18849000D01*
X31755000Y-16711000D02*
X31708000Y-16757000D01*
X29446000Y-19019000D02*
X29411000Y-19054000D01*
X31550000Y-16505000D02*
X31515000Y-16541000D01*
X29253000Y-18803000D02*
X29206000Y-18849000D01*
X36835000Y-16711000D02*
X36788000Y-16757000D01*
X34526000Y-19019000D02*
X34491000Y-19054000D01*
X36630000Y-16505000D02*
X36595000Y-16541000D01*
X34333000Y-18803000D02*
X34286000Y-18849000D01*
X41915000Y-16711000D02*
X41868000Y-16757000D01*
X39606000Y-19019000D02*
X39571000Y-19054000D01*
X41710000Y-16505000D02*
X41675000Y-16541000D01*
X39413000Y-18803000D02*
X39366000Y-18849000D01*
X46995000Y-16711000D02*
X46948000Y-16757000D01*
X44686000Y-19019000D02*
X44651000Y-19054000D01*
X46790000Y-16505000D02*
X46755000Y-16541000D01*
X44493000Y-18803000D02*
X44446000Y-18849000D01*
X52075000Y-16711000D02*
X52028000Y-16757000D01*
X49766000Y-19019000D02*
X49731000Y-19054000D01*
X51870000Y-16505000D02*
X51835000Y-16541000D01*
X49573000Y-18803000D02*
X49526000Y-18849000D01*
X12400000Y-21940000D02*
X12400000Y-22680000D01*
X12400000Y-22680000D02*
X12900000Y-22680000D01*
X15268805Y-19460253D02*
G75*
G02*
X14556000Y-19315000I-28805J1680253D01*
G01*
X13704574Y-18463042D02*
G75*
G02*
X13705000Y-17096000I1535426J683042D01*
G01*
X14556958Y-16244574D02*
G75*
G02*
X15924000Y-16245000I683042J-1535426D01*
G01*
X16775426Y-17096958D02*
G75*
G02*
X16775000Y-18464000I-1535426J-683042D01*
G01*
X15923318Y-19314756D02*
G75*
G02*
X15240000Y-19460000I-683318J1534756D01*
G01*
X201705000Y-20320000D02*
G75*
G03*
X201705000Y-20320000I-1680000J0D01*
G01*
X201705000Y-25400000D02*
G75*
G03*
X201705000Y-25400000I-1680000J0D01*
G01*
X201705000Y-30480000D02*
G75*
G03*
X201705000Y-30480000I-1680000J0D01*
G01*
X201705000Y-35560000D02*
G75*
G03*
X201705000Y-35560000I-1680000J0D01*
G01*
X201705000Y-40640000D02*
G75*
G03*
X201705000Y-40640000I-1680000J0D01*
G01*
X201705000Y-45720000D02*
G75*
G03*
X201705000Y-45720000I-1680000J0D01*
G01*
X201705000Y-50800000D02*
G75*
G03*
X201705000Y-50800000I-1680000J0D01*
G01*
X195925000Y-12640000D02*
X195925000Y-53400000D01*
X197425000Y-12640000D02*
X197425000Y-53400000D01*
X202326000Y-12640000D02*
X202326000Y-53400000D01*
X205286000Y-12640000D02*
X205286000Y-53400000D01*
X195365000Y-12640000D02*
X195365000Y-53400000D01*
X205286000Y-12640000D02*
X195365000Y-12640000D01*
X205286000Y-53400000D02*
X195365000Y-53400000D01*
X201094000Y-21595000D02*
X201048000Y-21548000D01*
X198786000Y-19286000D02*
X198751000Y-19251000D01*
X201300000Y-21390000D02*
X201264000Y-21355000D01*
X199002000Y-19093000D02*
X198956000Y-19046000D01*
X201094000Y-26675000D02*
X201048000Y-26628000D01*
X198786000Y-24366000D02*
X198751000Y-24331000D01*
X201300000Y-26470000D02*
X201264000Y-26435000D01*
X199002000Y-24173000D02*
X198956000Y-24126000D01*
X201094000Y-31755000D02*
X201048000Y-31708000D01*
X198786000Y-29446000D02*
X198751000Y-29411000D01*
X201300000Y-31550000D02*
X201264000Y-31515000D01*
X199002000Y-29253000D02*
X198956000Y-29206000D01*
X201094000Y-36835000D02*
X201048000Y-36788000D01*
X198786000Y-34526000D02*
X198751000Y-34491000D01*
X201300000Y-36630000D02*
X201264000Y-36595000D01*
X199002000Y-34333000D02*
X198956000Y-34286000D01*
X201094000Y-41915000D02*
X201048000Y-41868000D01*
X198786000Y-39606000D02*
X198751000Y-39571000D01*
X201300000Y-41710000D02*
X201264000Y-41675000D01*
X199002000Y-39413000D02*
X198956000Y-39366000D01*
X201094000Y-46995000D02*
X201048000Y-46948000D01*
X198786000Y-44686000D02*
X198751000Y-44651000D01*
X201300000Y-46790000D02*
X201264000Y-46755000D01*
X199002000Y-44493000D02*
X198956000Y-44446000D01*
X201094000Y-52075000D02*
X201048000Y-52028000D01*
X198786000Y-49766000D02*
X198751000Y-49731000D01*
X201300000Y-51870000D02*
X201264000Y-51835000D01*
X199002000Y-49573000D02*
X198956000Y-49526000D01*
X195865000Y-12400000D02*
X195125000Y-12400000D01*
X195125000Y-12400000D02*
X195125000Y-12900000D01*
X198344747Y-15268805D02*
G75*
G02*
X198490000Y-14556000I1680253J28805D01*
G01*
X199341958Y-13704574D02*
G75*
G02*
X200709000Y-13705000I683042J-1535426D01*
G01*
X201560426Y-14556958D02*
G75*
G02*
X201560000Y-15924000I-1535426J-683042D01*
G01*
X200708042Y-16775426D02*
G75*
G02*
X199341000Y-16775000I-683042J1535426D01*
G01*
X198490244Y-15923318D02*
G75*
G02*
X198345000Y-15240000I1534756J683318D01*
G01*
X202215000Y-64135000D02*
G75*
G03*
X202215000Y-64135000I-1555000J0D01*
G01*
X198560000Y-58475000D02*
X198560000Y-66295000D01*
X204120000Y-58475000D02*
X204120000Y-66295000D01*
X197000000Y-58475000D02*
X197000000Y-66295000D01*
X204120000Y-58475000D02*
X197000000Y-58475000D01*
X204120000Y-66295000D02*
X197000000Y-66295000D01*
X198500000Y-58235000D02*
X196760000Y-58235000D01*
X196760000Y-58235000D02*
X196760000Y-59735000D01*
X199104508Y-60662011D02*
G75*
G02*
X199228000Y-60027000I1555492J27011D01*
G01*
X200052258Y-59202891D02*
G75*
G02*
X201268000Y-59203000I607742J-1432109D01*
G01*
X202092109Y-60027258D02*
G75*
G02*
X202092000Y-61243000I-1432109J-607742D01*
G01*
X201267742Y-62067109D02*
G75*
G02*
X200052000Y-62067000I-607742J1432109D01*
G01*
X199228615Y-61242587D02*
G75*
G02*
X199105000Y-60635000I1431385J607587D01*
G01*
D10*
X186356666Y-64222380D02*
X186356666Y-64936666D01*
X186309047Y-65079523D01*
X186213809Y-65174761D01*
X186070952Y-65222380D01*
X185975714Y-65222380D01*
X186737619Y-64222380D02*
X187356666Y-64222380D01*
X187023333Y-64603333D01*
X187166190Y-64603333D01*
X187261428Y-64650952D01*
X187309047Y-64698571D01*
X187356666Y-64793809D01*
X187356666Y-65031904D01*
X187309047Y-65127142D01*
X187261428Y-65174761D01*
X187166190Y-65222380D01*
X186880476Y-65222380D01*
X186785238Y-65174761D01*
X186737619Y-65127142D01*
X187118333Y-45787142D02*
X187070714Y-45834761D01*
X186927857Y-45882380D01*
X186832619Y-45882380D01*
X186689761Y-45834761D01*
X186594523Y-45739523D01*
X186546904Y-45644285D01*
X186499285Y-45453809D01*
X186499285Y-45310952D01*
X186546904Y-45120476D01*
X186594523Y-45025238D01*
X186689761Y-44930000D01*
X186832619Y-44882380D01*
X186927857Y-44882380D01*
X187070714Y-44930000D01*
X187118333Y-44977619D01*
X187975476Y-45215714D02*
X187975476Y-45882380D01*
X187737380Y-44834761D02*
X187499285Y-45549047D01*
X188118333Y-45549047D01*
X143383095Y-46017380D02*
X143383095Y-46826904D01*
X143430714Y-46922142D01*
X143478333Y-46969761D01*
X143573571Y-47017380D01*
X143764047Y-47017380D01*
X143859285Y-46969761D01*
X143906904Y-46922142D01*
X143954523Y-46826904D01*
X143954523Y-46017380D01*
X144573571Y-46445952D02*
X144478333Y-46398333D01*
X144430714Y-46350714D01*
X144383095Y-46255476D01*
X144383095Y-46207857D01*
X144430714Y-46112619D01*
X144478333Y-46065000D01*
X144573571Y-46017380D01*
X144764047Y-46017380D01*
X144859285Y-46065000D01*
X144906904Y-46112619D01*
X144954523Y-46207857D01*
X144954523Y-46255476D01*
X144906904Y-46350714D01*
X144859285Y-46398333D01*
X144764047Y-46445952D01*
X144573571Y-46445952D01*
X144478333Y-46493571D01*
X144430714Y-46541190D01*
X144383095Y-46636428D01*
X144383095Y-46826904D01*
X144430714Y-46922142D01*
X144478333Y-46969761D01*
X144573571Y-47017380D01*
X144764047Y-47017380D01*
X144859285Y-46969761D01*
X144906904Y-46922142D01*
X144954523Y-46826904D01*
X144954523Y-46636428D01*
X144906904Y-46541190D01*
X144859285Y-46493571D01*
X144764047Y-46445952D01*
X125603095Y-46017380D02*
X125603095Y-46826904D01*
X125650714Y-46922142D01*
X125698333Y-46969761D01*
X125793571Y-47017380D01*
X125984047Y-47017380D01*
X126079285Y-46969761D01*
X126126904Y-46922142D01*
X126174523Y-46826904D01*
X126174523Y-46017380D01*
X126555476Y-46017380D02*
X127222142Y-46017380D01*
X126793571Y-47017380D01*
X107823095Y-46017380D02*
X107823095Y-46826904D01*
X107870714Y-46922142D01*
X107918333Y-46969761D01*
X108013571Y-47017380D01*
X108204047Y-47017380D01*
X108299285Y-46969761D01*
X108346904Y-46922142D01*
X108394523Y-46826904D01*
X108394523Y-46017380D01*
X109299285Y-46017380D02*
X109108809Y-46017380D01*
X109013571Y-46065000D01*
X108965952Y-46112619D01*
X108870714Y-46255476D01*
X108823095Y-46445952D01*
X108823095Y-46826904D01*
X108870714Y-46922142D01*
X108918333Y-46969761D01*
X109013571Y-47017380D01*
X109204047Y-47017380D01*
X109299285Y-46969761D01*
X109346904Y-46922142D01*
X109394523Y-46826904D01*
X109394523Y-46588809D01*
X109346904Y-46493571D01*
X109299285Y-46445952D01*
X109204047Y-46398333D01*
X109013571Y-46398333D01*
X108918333Y-46445952D01*
X108870714Y-46493571D01*
X108823095Y-46588809D01*
X90043095Y-46017380D02*
X90043095Y-46826904D01*
X90090714Y-46922142D01*
X90138333Y-46969761D01*
X90233571Y-47017380D01*
X90424047Y-47017380D01*
X90519285Y-46969761D01*
X90566904Y-46922142D01*
X90614523Y-46826904D01*
X90614523Y-46017380D01*
X91566904Y-46017380D02*
X91090714Y-46017380D01*
X91043095Y-46493571D01*
X91090714Y-46445952D01*
X91185952Y-46398333D01*
X91424047Y-46398333D01*
X91519285Y-46445952D01*
X91566904Y-46493571D01*
X91614523Y-46588809D01*
X91614523Y-46826904D01*
X91566904Y-46922142D01*
X91519285Y-46969761D01*
X91424047Y-47017380D01*
X91185952Y-47017380D01*
X91090714Y-46969761D01*
X91043095Y-46922142D01*
X155448095Y-46017380D02*
X155448095Y-46826904D01*
X155495714Y-46922142D01*
X155543333Y-46969761D01*
X155638571Y-47017380D01*
X155829047Y-47017380D01*
X155924285Y-46969761D01*
X155971904Y-46922142D01*
X156019523Y-46826904D01*
X156019523Y-46017380D01*
X156924285Y-46350714D02*
X156924285Y-47017380D01*
X156686190Y-45969761D02*
X156448095Y-46684047D01*
X157067142Y-46684047D01*
X186563095Y-16807380D02*
X186563095Y-17616904D01*
X186610714Y-17712142D01*
X186658333Y-17759761D01*
X186753571Y-17807380D01*
X186944047Y-17807380D01*
X187039285Y-17759761D01*
X187086904Y-17712142D01*
X187134523Y-17616904D01*
X187134523Y-16807380D01*
X187515476Y-16807380D02*
X188134523Y-16807380D01*
X187801190Y-17188333D01*
X187944047Y-17188333D01*
X188039285Y-17235952D01*
X188086904Y-17283571D01*
X188134523Y-17378809D01*
X188134523Y-17616904D01*
X188086904Y-17712142D01*
X188039285Y-17759761D01*
X187944047Y-17807380D01*
X187658333Y-17807380D01*
X187563095Y-17759761D01*
X187515476Y-17712142D01*
X72898095Y-44112380D02*
X72898095Y-44921904D01*
X72945714Y-45017142D01*
X72993333Y-45064761D01*
X73088571Y-45112380D01*
X73279047Y-45112380D01*
X73374285Y-45064761D01*
X73421904Y-45017142D01*
X73469523Y-44921904D01*
X73469523Y-44112380D01*
X73898095Y-44207619D02*
X73945714Y-44160000D01*
X74040952Y-44112380D01*
X74279047Y-44112380D01*
X74374285Y-44160000D01*
X74421904Y-44207619D01*
X74469523Y-44302857D01*
X74469523Y-44398095D01*
X74421904Y-44540952D01*
X73850476Y-45112380D01*
X74469523Y-45112380D01*
X57491380Y-64134904D02*
X58300904Y-64134904D01*
X58396142Y-64087285D01*
X58443761Y-64039666D01*
X58491380Y-63944428D01*
X58491380Y-63753952D01*
X58443761Y-63658714D01*
X58396142Y-63611095D01*
X58300904Y-63563476D01*
X57491380Y-63563476D01*
X58491380Y-62563476D02*
X58491380Y-63134904D01*
X58491380Y-62849190D02*
X57491380Y-62849190D01*
X57634238Y-62944428D01*
X57729476Y-63039666D01*
X57777095Y-63134904D01*
X179352380Y-29852857D02*
X178876190Y-30186190D01*
X179352380Y-30424285D02*
X178352380Y-30424285D01*
X178352380Y-30043333D01*
X178400000Y-29948095D01*
X178447619Y-29900476D01*
X178542857Y-29852857D01*
X178685714Y-29852857D01*
X178780952Y-29900476D01*
X178828571Y-29948095D01*
X178876190Y-30043333D01*
X178876190Y-30424285D01*
X178352380Y-28948095D02*
X178352380Y-29424285D01*
X178828571Y-29471904D01*
X178780952Y-29424285D01*
X178733333Y-29329047D01*
X178733333Y-29090952D01*
X178780952Y-28995714D01*
X178828571Y-28948095D01*
X178923809Y-28900476D01*
X179161904Y-28900476D01*
X179257142Y-28948095D01*
X179304761Y-28995714D01*
X179352380Y-29090952D01*
X179352380Y-29329047D01*
X179304761Y-29424285D01*
X179257142Y-29471904D01*
X179352380Y-27948095D02*
X179352380Y-28519523D01*
X179352380Y-28233809D02*
X178352380Y-28233809D01*
X178495238Y-28329047D01*
X178590476Y-28424285D01*
X178638095Y-28519523D01*
X174272380Y-29852857D02*
X173796190Y-30186190D01*
X174272380Y-30424285D02*
X173272380Y-30424285D01*
X173272380Y-30043333D01*
X173320000Y-29948095D01*
X173367619Y-29900476D01*
X173462857Y-29852857D01*
X173605714Y-29852857D01*
X173700952Y-29900476D01*
X173748571Y-29948095D01*
X173796190Y-30043333D01*
X173796190Y-30424285D01*
X173272380Y-28948095D02*
X173272380Y-29424285D01*
X173748571Y-29471904D01*
X173700952Y-29424285D01*
X173653333Y-29329047D01*
X173653333Y-29090952D01*
X173700952Y-28995714D01*
X173748571Y-28948095D01*
X173843809Y-28900476D01*
X174081904Y-28900476D01*
X174177142Y-28948095D01*
X174224761Y-28995714D01*
X174272380Y-29090952D01*
X174272380Y-29329047D01*
X174224761Y-29424285D01*
X174177142Y-29471904D01*
X173272380Y-28281428D02*
X173272380Y-28186190D01*
X173320000Y-28090952D01*
X173367619Y-28043333D01*
X173462857Y-27995714D01*
X173653333Y-27948095D01*
X173891428Y-27948095D01*
X174081904Y-27995714D01*
X174177142Y-28043333D01*
X174224761Y-28090952D01*
X174272380Y-28186190D01*
X174272380Y-28281428D01*
X174224761Y-28376666D01*
X174177142Y-28424285D01*
X174081904Y-28471904D01*
X173891428Y-28519523D01*
X173653333Y-28519523D01*
X173462857Y-28471904D01*
X173367619Y-28424285D01*
X173320000Y-28376666D01*
X173272380Y-28281428D01*
X169192380Y-29852857D02*
X168716190Y-30186190D01*
X169192380Y-30424285D02*
X168192380Y-30424285D01*
X168192380Y-30043333D01*
X168240000Y-29948095D01*
X168287619Y-29900476D01*
X168382857Y-29852857D01*
X168525714Y-29852857D01*
X168620952Y-29900476D01*
X168668571Y-29948095D01*
X168716190Y-30043333D01*
X168716190Y-30424285D01*
X168525714Y-28995714D02*
X169192380Y-28995714D01*
X168144761Y-29233809D02*
X168859047Y-29471904D01*
X168859047Y-28852857D01*
X169192380Y-28424285D02*
X169192380Y-28233809D01*
X169144761Y-28138571D01*
X169097142Y-28090952D01*
X168954285Y-27995714D01*
X168763809Y-27948095D01*
X168382857Y-27948095D01*
X168287619Y-27995714D01*
X168240000Y-28043333D01*
X168192380Y-28138571D01*
X168192380Y-28329047D01*
X168240000Y-28424285D01*
X168287619Y-28471904D01*
X168382857Y-28519523D01*
X168620952Y-28519523D01*
X168716190Y-28471904D01*
X168763809Y-28424285D01*
X168811428Y-28329047D01*
X168811428Y-28138571D01*
X168763809Y-28043333D01*
X168716190Y-27995714D01*
X168620952Y-27948095D01*
X164112380Y-29852857D02*
X163636190Y-30186190D01*
X164112380Y-30424285D02*
X163112380Y-30424285D01*
X163112380Y-30043333D01*
X163160000Y-29948095D01*
X163207619Y-29900476D01*
X163302857Y-29852857D01*
X163445714Y-29852857D01*
X163540952Y-29900476D01*
X163588571Y-29948095D01*
X163636190Y-30043333D01*
X163636190Y-30424285D01*
X163445714Y-28995714D02*
X164112380Y-28995714D01*
X163064761Y-29233809D02*
X163779047Y-29471904D01*
X163779047Y-28852857D01*
X163540952Y-28329047D02*
X163493333Y-28424285D01*
X163445714Y-28471904D01*
X163350476Y-28519523D01*
X163302857Y-28519523D01*
X163207619Y-28471904D01*
X163160000Y-28424285D01*
X163112380Y-28329047D01*
X163112380Y-28138571D01*
X163160000Y-28043333D01*
X163207619Y-27995714D01*
X163302857Y-27948095D01*
X163350476Y-27948095D01*
X163445714Y-27995714D01*
X163493333Y-28043333D01*
X163540952Y-28138571D01*
X163540952Y-28329047D01*
X163588571Y-28424285D01*
X163636190Y-28471904D01*
X163731428Y-28519523D01*
X163921904Y-28519523D01*
X164017142Y-28471904D01*
X164064761Y-28424285D01*
X164112380Y-28329047D01*
X164112380Y-28138571D01*
X164064761Y-28043333D01*
X164017142Y-27995714D01*
X163921904Y-27948095D01*
X163731428Y-27948095D01*
X163636190Y-27995714D01*
X163588571Y-28043333D01*
X163540952Y-28138571D01*
X159032380Y-29852857D02*
X158556190Y-30186190D01*
X159032380Y-30424285D02*
X158032380Y-30424285D01*
X158032380Y-30043333D01*
X158080000Y-29948095D01*
X158127619Y-29900476D01*
X158222857Y-29852857D01*
X158365714Y-29852857D01*
X158460952Y-29900476D01*
X158508571Y-29948095D01*
X158556190Y-30043333D01*
X158556190Y-30424285D01*
X158365714Y-28995714D02*
X159032380Y-28995714D01*
X157984761Y-29233809D02*
X158699047Y-29471904D01*
X158699047Y-28852857D01*
X158032380Y-28567142D02*
X158032380Y-27900476D01*
X159032380Y-28329047D01*
X153952380Y-29852857D02*
X153476190Y-30186190D01*
X153952380Y-30424285D02*
X152952380Y-30424285D01*
X152952380Y-30043333D01*
X153000000Y-29948095D01*
X153047619Y-29900476D01*
X153142857Y-29852857D01*
X153285714Y-29852857D01*
X153380952Y-29900476D01*
X153428571Y-29948095D01*
X153476190Y-30043333D01*
X153476190Y-30424285D01*
X153285714Y-28995714D02*
X153952380Y-28995714D01*
X152904761Y-29233809D02*
X153619047Y-29471904D01*
X153619047Y-28852857D01*
X152952380Y-28043333D02*
X152952380Y-28233809D01*
X153000000Y-28329047D01*
X153047619Y-28376666D01*
X153190476Y-28471904D01*
X153380952Y-28519523D01*
X153761904Y-28519523D01*
X153857142Y-28471904D01*
X153904761Y-28424285D01*
X153952380Y-28329047D01*
X153952380Y-28138571D01*
X153904761Y-28043333D01*
X153857142Y-27995714D01*
X153761904Y-27948095D01*
X153523809Y-27948095D01*
X153428571Y-27995714D01*
X153380952Y-28043333D01*
X153333333Y-28138571D01*
X153333333Y-28329047D01*
X153380952Y-28424285D01*
X153428571Y-28471904D01*
X153523809Y-28519523D01*
X148872380Y-29852857D02*
X148396190Y-30186190D01*
X148872380Y-30424285D02*
X147872380Y-30424285D01*
X147872380Y-30043333D01*
X147920000Y-29948095D01*
X147967619Y-29900476D01*
X148062857Y-29852857D01*
X148205714Y-29852857D01*
X148300952Y-29900476D01*
X148348571Y-29948095D01*
X148396190Y-30043333D01*
X148396190Y-30424285D01*
X148205714Y-28995714D02*
X148872380Y-28995714D01*
X147824761Y-29233809D02*
X148539047Y-29471904D01*
X148539047Y-28852857D01*
X147872380Y-27995714D02*
X147872380Y-28471904D01*
X148348571Y-28519523D01*
X148300952Y-28471904D01*
X148253333Y-28376666D01*
X148253333Y-28138571D01*
X148300952Y-28043333D01*
X148348571Y-27995714D01*
X148443809Y-27948095D01*
X148681904Y-27948095D01*
X148777142Y-27995714D01*
X148824761Y-28043333D01*
X148872380Y-28138571D01*
X148872380Y-28376666D01*
X148824761Y-28471904D01*
X148777142Y-28519523D01*
X143792380Y-29852857D02*
X143316190Y-30186190D01*
X143792380Y-30424285D02*
X142792380Y-30424285D01*
X142792380Y-30043333D01*
X142840000Y-29948095D01*
X142887619Y-29900476D01*
X142982857Y-29852857D01*
X143125714Y-29852857D01*
X143220952Y-29900476D01*
X143268571Y-29948095D01*
X143316190Y-30043333D01*
X143316190Y-30424285D01*
X143125714Y-28995714D02*
X143792380Y-28995714D01*
X142744761Y-29233809D02*
X143459047Y-29471904D01*
X143459047Y-28852857D01*
X143125714Y-28043333D02*
X143792380Y-28043333D01*
X142744761Y-28281428D02*
X143459047Y-28519523D01*
X143459047Y-27900476D01*
X137442380Y-29852857D02*
X136966190Y-30186190D01*
X137442380Y-30424285D02*
X136442380Y-30424285D01*
X136442380Y-30043333D01*
X136490000Y-29948095D01*
X136537619Y-29900476D01*
X136632857Y-29852857D01*
X136775714Y-29852857D01*
X136870952Y-29900476D01*
X136918571Y-29948095D01*
X136966190Y-30043333D01*
X136966190Y-30424285D01*
X136775714Y-28995714D02*
X137442380Y-28995714D01*
X136394761Y-29233809D02*
X137109047Y-29471904D01*
X137109047Y-28852857D01*
X136442380Y-28567142D02*
X136442380Y-27948095D01*
X136823333Y-28281428D01*
X136823333Y-28138571D01*
X136870952Y-28043333D01*
X136918571Y-27995714D01*
X137013809Y-27948095D01*
X137251904Y-27948095D01*
X137347142Y-27995714D01*
X137394761Y-28043333D01*
X137442380Y-28138571D01*
X137442380Y-28424285D01*
X137394761Y-28519523D01*
X137347142Y-28567142D01*
X132362380Y-29852857D02*
X131886190Y-30186190D01*
X132362380Y-30424285D02*
X131362380Y-30424285D01*
X131362380Y-30043333D01*
X131410000Y-29948095D01*
X131457619Y-29900476D01*
X131552857Y-29852857D01*
X131695714Y-29852857D01*
X131790952Y-29900476D01*
X131838571Y-29948095D01*
X131886190Y-30043333D01*
X131886190Y-30424285D01*
X131695714Y-28995714D02*
X132362380Y-28995714D01*
X131314761Y-29233809D02*
X132029047Y-29471904D01*
X132029047Y-28852857D01*
X131457619Y-28519523D02*
X131410000Y-28471904D01*
X131362380Y-28376666D01*
X131362380Y-28138571D01*
X131410000Y-28043333D01*
X131457619Y-27995714D01*
X131552857Y-27948095D01*
X131648095Y-27948095D01*
X131790952Y-27995714D01*
X132362380Y-28567142D01*
X132362380Y-27948095D01*
X127282380Y-29852857D02*
X126806190Y-30186190D01*
X127282380Y-30424285D02*
X126282380Y-30424285D01*
X126282380Y-30043333D01*
X126330000Y-29948095D01*
X126377619Y-29900476D01*
X126472857Y-29852857D01*
X126615714Y-29852857D01*
X126710952Y-29900476D01*
X126758571Y-29948095D01*
X126806190Y-30043333D01*
X126806190Y-30424285D01*
X126615714Y-28995714D02*
X127282380Y-28995714D01*
X126234761Y-29233809D02*
X126949047Y-29471904D01*
X126949047Y-28852857D01*
X127282380Y-27948095D02*
X127282380Y-28519523D01*
X127282380Y-28233809D02*
X126282380Y-28233809D01*
X126425238Y-28329047D01*
X126520476Y-28424285D01*
X126568095Y-28519523D01*
X122202380Y-29852857D02*
X121726190Y-30186190D01*
X122202380Y-30424285D02*
X121202380Y-30424285D01*
X121202380Y-30043333D01*
X121250000Y-29948095D01*
X121297619Y-29900476D01*
X121392857Y-29852857D01*
X121535714Y-29852857D01*
X121630952Y-29900476D01*
X121678571Y-29948095D01*
X121726190Y-30043333D01*
X121726190Y-30424285D01*
X121535714Y-28995714D02*
X122202380Y-28995714D01*
X121154761Y-29233809D02*
X121869047Y-29471904D01*
X121869047Y-28852857D01*
X121202380Y-28281428D02*
X121202380Y-28186190D01*
X121250000Y-28090952D01*
X121297619Y-28043333D01*
X121392857Y-27995714D01*
X121583333Y-27948095D01*
X121821428Y-27948095D01*
X122011904Y-27995714D01*
X122107142Y-28043333D01*
X122154761Y-28090952D01*
X122202380Y-28186190D01*
X122202380Y-28281428D01*
X122154761Y-28376666D01*
X122107142Y-28424285D01*
X122011904Y-28471904D01*
X121821428Y-28519523D01*
X121583333Y-28519523D01*
X121392857Y-28471904D01*
X121297619Y-28424285D01*
X121250000Y-28376666D01*
X121202380Y-28281428D01*
X117122380Y-29852857D02*
X116646190Y-30186190D01*
X117122380Y-30424285D02*
X116122380Y-30424285D01*
X116122380Y-30043333D01*
X116170000Y-29948095D01*
X116217619Y-29900476D01*
X116312857Y-29852857D01*
X116455714Y-29852857D01*
X116550952Y-29900476D01*
X116598571Y-29948095D01*
X116646190Y-30043333D01*
X116646190Y-30424285D01*
X116122380Y-29519523D02*
X116122380Y-28900476D01*
X116503333Y-29233809D01*
X116503333Y-29090952D01*
X116550952Y-28995714D01*
X116598571Y-28948095D01*
X116693809Y-28900476D01*
X116931904Y-28900476D01*
X117027142Y-28948095D01*
X117074761Y-28995714D01*
X117122380Y-29090952D01*
X117122380Y-29376666D01*
X117074761Y-29471904D01*
X117027142Y-29519523D01*
X117122380Y-28424285D02*
X117122380Y-28233809D01*
X117074761Y-28138571D01*
X117027142Y-28090952D01*
X116884285Y-27995714D01*
X116693809Y-27948095D01*
X116312857Y-27948095D01*
X116217619Y-27995714D01*
X116170000Y-28043333D01*
X116122380Y-28138571D01*
X116122380Y-28329047D01*
X116170000Y-28424285D01*
X116217619Y-28471904D01*
X116312857Y-28519523D01*
X116550952Y-28519523D01*
X116646190Y-28471904D01*
X116693809Y-28424285D01*
X116741428Y-28329047D01*
X116741428Y-28138571D01*
X116693809Y-28043333D01*
X116646190Y-27995714D01*
X116550952Y-27948095D01*
X112042380Y-29852857D02*
X111566190Y-30186190D01*
X112042380Y-30424285D02*
X111042380Y-30424285D01*
X111042380Y-30043333D01*
X111090000Y-29948095D01*
X111137619Y-29900476D01*
X111232857Y-29852857D01*
X111375714Y-29852857D01*
X111470952Y-29900476D01*
X111518571Y-29948095D01*
X111566190Y-30043333D01*
X111566190Y-30424285D01*
X111042380Y-29519523D02*
X111042380Y-28900476D01*
X111423333Y-29233809D01*
X111423333Y-29090952D01*
X111470952Y-28995714D01*
X111518571Y-28948095D01*
X111613809Y-28900476D01*
X111851904Y-28900476D01*
X111947142Y-28948095D01*
X111994761Y-28995714D01*
X112042380Y-29090952D01*
X112042380Y-29376666D01*
X111994761Y-29471904D01*
X111947142Y-29519523D01*
X111470952Y-28329047D02*
X111423333Y-28424285D01*
X111375714Y-28471904D01*
X111280476Y-28519523D01*
X111232857Y-28519523D01*
X111137619Y-28471904D01*
X111090000Y-28424285D01*
X111042380Y-28329047D01*
X111042380Y-28138571D01*
X111090000Y-28043333D01*
X111137619Y-27995714D01*
X111232857Y-27948095D01*
X111280476Y-27948095D01*
X111375714Y-27995714D01*
X111423333Y-28043333D01*
X111470952Y-28138571D01*
X111470952Y-28329047D01*
X111518571Y-28424285D01*
X111566190Y-28471904D01*
X111661428Y-28519523D01*
X111851904Y-28519523D01*
X111947142Y-28471904D01*
X111994761Y-28424285D01*
X112042380Y-28329047D01*
X112042380Y-28138571D01*
X111994761Y-28043333D01*
X111947142Y-27995714D01*
X111851904Y-27948095D01*
X111661428Y-27948095D01*
X111566190Y-27995714D01*
X111518571Y-28043333D01*
X111470952Y-28138571D01*
X106962380Y-29852857D02*
X106486190Y-30186190D01*
X106962380Y-30424285D02*
X105962380Y-30424285D01*
X105962380Y-30043333D01*
X106010000Y-29948095D01*
X106057619Y-29900476D01*
X106152857Y-29852857D01*
X106295714Y-29852857D01*
X106390952Y-29900476D01*
X106438571Y-29948095D01*
X106486190Y-30043333D01*
X106486190Y-30424285D01*
X105962380Y-29519523D02*
X105962380Y-28900476D01*
X106343333Y-29233809D01*
X106343333Y-29090952D01*
X106390952Y-28995714D01*
X106438571Y-28948095D01*
X106533809Y-28900476D01*
X106771904Y-28900476D01*
X106867142Y-28948095D01*
X106914761Y-28995714D01*
X106962380Y-29090952D01*
X106962380Y-29376666D01*
X106914761Y-29471904D01*
X106867142Y-29519523D01*
X105962380Y-28567142D02*
X105962380Y-27900476D01*
X106962380Y-28329047D01*
X101882380Y-29852857D02*
X101406190Y-30186190D01*
X101882380Y-30424285D02*
X100882380Y-30424285D01*
X100882380Y-30043333D01*
X100930000Y-29948095D01*
X100977619Y-29900476D01*
X101072857Y-29852857D01*
X101215714Y-29852857D01*
X101310952Y-29900476D01*
X101358571Y-29948095D01*
X101406190Y-30043333D01*
X101406190Y-30424285D01*
X100882380Y-29519523D02*
X100882380Y-28900476D01*
X101263333Y-29233809D01*
X101263333Y-29090952D01*
X101310952Y-28995714D01*
X101358571Y-28948095D01*
X101453809Y-28900476D01*
X101691904Y-28900476D01*
X101787142Y-28948095D01*
X101834761Y-28995714D01*
X101882380Y-29090952D01*
X101882380Y-29376666D01*
X101834761Y-29471904D01*
X101787142Y-29519523D01*
X100882380Y-28043333D02*
X100882380Y-28233809D01*
X100930000Y-28329047D01*
X100977619Y-28376666D01*
X101120476Y-28471904D01*
X101310952Y-28519523D01*
X101691904Y-28519523D01*
X101787142Y-28471904D01*
X101834761Y-28424285D01*
X101882380Y-28329047D01*
X101882380Y-28138571D01*
X101834761Y-28043333D01*
X101787142Y-27995714D01*
X101691904Y-27948095D01*
X101453809Y-27948095D01*
X101358571Y-27995714D01*
X101310952Y-28043333D01*
X101263333Y-28138571D01*
X101263333Y-28329047D01*
X101310952Y-28424285D01*
X101358571Y-28471904D01*
X101453809Y-28519523D01*
X95532380Y-29852857D02*
X95056190Y-30186190D01*
X95532380Y-30424285D02*
X94532380Y-30424285D01*
X94532380Y-30043333D01*
X94580000Y-29948095D01*
X94627619Y-29900476D01*
X94722857Y-29852857D01*
X94865714Y-29852857D01*
X94960952Y-29900476D01*
X95008571Y-29948095D01*
X95056190Y-30043333D01*
X95056190Y-30424285D01*
X94532380Y-29519523D02*
X94532380Y-28900476D01*
X94913333Y-29233809D01*
X94913333Y-29090952D01*
X94960952Y-28995714D01*
X95008571Y-28948095D01*
X95103809Y-28900476D01*
X95341904Y-28900476D01*
X95437142Y-28948095D01*
X95484761Y-28995714D01*
X95532380Y-29090952D01*
X95532380Y-29376666D01*
X95484761Y-29471904D01*
X95437142Y-29519523D01*
X94532380Y-27995714D02*
X94532380Y-28471904D01*
X95008571Y-28519523D01*
X94960952Y-28471904D01*
X94913333Y-28376666D01*
X94913333Y-28138571D01*
X94960952Y-28043333D01*
X95008571Y-27995714D01*
X95103809Y-27948095D01*
X95341904Y-27948095D01*
X95437142Y-27995714D01*
X95484761Y-28043333D01*
X95532380Y-28138571D01*
X95532380Y-28376666D01*
X95484761Y-28471904D01*
X95437142Y-28519523D01*
X90452380Y-29852857D02*
X89976190Y-30186190D01*
X90452380Y-30424285D02*
X89452380Y-30424285D01*
X89452380Y-30043333D01*
X89500000Y-29948095D01*
X89547619Y-29900476D01*
X89642857Y-29852857D01*
X89785714Y-29852857D01*
X89880952Y-29900476D01*
X89928571Y-29948095D01*
X89976190Y-30043333D01*
X89976190Y-30424285D01*
X89452380Y-29519523D02*
X89452380Y-28900476D01*
X89833333Y-29233809D01*
X89833333Y-29090952D01*
X89880952Y-28995714D01*
X89928571Y-28948095D01*
X90023809Y-28900476D01*
X90261904Y-28900476D01*
X90357142Y-28948095D01*
X90404761Y-28995714D01*
X90452380Y-29090952D01*
X90452380Y-29376666D01*
X90404761Y-29471904D01*
X90357142Y-29519523D01*
X89785714Y-28043333D02*
X90452380Y-28043333D01*
X89404761Y-28281428D02*
X90119047Y-28519523D01*
X90119047Y-27900476D01*
X85372380Y-29852857D02*
X84896190Y-30186190D01*
X85372380Y-30424285D02*
X84372380Y-30424285D01*
X84372380Y-30043333D01*
X84420000Y-29948095D01*
X84467619Y-29900476D01*
X84562857Y-29852857D01*
X84705714Y-29852857D01*
X84800952Y-29900476D01*
X84848571Y-29948095D01*
X84896190Y-30043333D01*
X84896190Y-30424285D01*
X84372380Y-29519523D02*
X84372380Y-28900476D01*
X84753333Y-29233809D01*
X84753333Y-29090952D01*
X84800952Y-28995714D01*
X84848571Y-28948095D01*
X84943809Y-28900476D01*
X85181904Y-28900476D01*
X85277142Y-28948095D01*
X85324761Y-28995714D01*
X85372380Y-29090952D01*
X85372380Y-29376666D01*
X85324761Y-29471904D01*
X85277142Y-29519523D01*
X84372380Y-28567142D02*
X84372380Y-27948095D01*
X84753333Y-28281428D01*
X84753333Y-28138571D01*
X84800952Y-28043333D01*
X84848571Y-27995714D01*
X84943809Y-27948095D01*
X85181904Y-27948095D01*
X85277142Y-27995714D01*
X85324761Y-28043333D01*
X85372380Y-28138571D01*
X85372380Y-28424285D01*
X85324761Y-28519523D01*
X85277142Y-28567142D01*
X80292380Y-29852857D02*
X79816190Y-30186190D01*
X80292380Y-30424285D02*
X79292380Y-30424285D01*
X79292380Y-30043333D01*
X79340000Y-29948095D01*
X79387619Y-29900476D01*
X79482857Y-29852857D01*
X79625714Y-29852857D01*
X79720952Y-29900476D01*
X79768571Y-29948095D01*
X79816190Y-30043333D01*
X79816190Y-30424285D01*
X79292380Y-29519523D02*
X79292380Y-28900476D01*
X79673333Y-29233809D01*
X79673333Y-29090952D01*
X79720952Y-28995714D01*
X79768571Y-28948095D01*
X79863809Y-28900476D01*
X80101904Y-28900476D01*
X80197142Y-28948095D01*
X80244761Y-28995714D01*
X80292380Y-29090952D01*
X80292380Y-29376666D01*
X80244761Y-29471904D01*
X80197142Y-29519523D01*
X79387619Y-28519523D02*
X79340000Y-28471904D01*
X79292380Y-28376666D01*
X79292380Y-28138571D01*
X79340000Y-28043333D01*
X79387619Y-27995714D01*
X79482857Y-27948095D01*
X79578095Y-27948095D01*
X79720952Y-27995714D01*
X80292380Y-28567142D01*
X80292380Y-27948095D01*
X75212380Y-29852857D02*
X74736190Y-30186190D01*
X75212380Y-30424285D02*
X74212380Y-30424285D01*
X74212380Y-30043333D01*
X74260000Y-29948095D01*
X74307619Y-29900476D01*
X74402857Y-29852857D01*
X74545714Y-29852857D01*
X74640952Y-29900476D01*
X74688571Y-29948095D01*
X74736190Y-30043333D01*
X74736190Y-30424285D01*
X74212380Y-29519523D02*
X74212380Y-28900476D01*
X74593333Y-29233809D01*
X74593333Y-29090952D01*
X74640952Y-28995714D01*
X74688571Y-28948095D01*
X74783809Y-28900476D01*
X75021904Y-28900476D01*
X75117142Y-28948095D01*
X75164761Y-28995714D01*
X75212380Y-29090952D01*
X75212380Y-29376666D01*
X75164761Y-29471904D01*
X75117142Y-29519523D01*
X75212380Y-27948095D02*
X75212380Y-28519523D01*
X75212380Y-28233809D02*
X74212380Y-28233809D01*
X74355238Y-28329047D01*
X74450476Y-28424285D01*
X74498095Y-28519523D01*
X70132380Y-29852857D02*
X69656190Y-30186190D01*
X70132380Y-30424285D02*
X69132380Y-30424285D01*
X69132380Y-30043333D01*
X69180000Y-29948095D01*
X69227619Y-29900476D01*
X69322857Y-29852857D01*
X69465714Y-29852857D01*
X69560952Y-29900476D01*
X69608571Y-29948095D01*
X69656190Y-30043333D01*
X69656190Y-30424285D01*
X69132380Y-29519523D02*
X69132380Y-28900476D01*
X69513333Y-29233809D01*
X69513333Y-29090952D01*
X69560952Y-28995714D01*
X69608571Y-28948095D01*
X69703809Y-28900476D01*
X69941904Y-28900476D01*
X70037142Y-28948095D01*
X70084761Y-28995714D01*
X70132380Y-29090952D01*
X70132380Y-29376666D01*
X70084761Y-29471904D01*
X70037142Y-29519523D01*
X69132380Y-28281428D02*
X69132380Y-28186190D01*
X69180000Y-28090952D01*
X69227619Y-28043333D01*
X69322857Y-27995714D01*
X69513333Y-27948095D01*
X69751428Y-27948095D01*
X69941904Y-27995714D01*
X70037142Y-28043333D01*
X70084761Y-28090952D01*
X70132380Y-28186190D01*
X70132380Y-28281428D01*
X70084761Y-28376666D01*
X70037142Y-28424285D01*
X69941904Y-28471904D01*
X69751428Y-28519523D01*
X69513333Y-28519523D01*
X69322857Y-28471904D01*
X69227619Y-28424285D01*
X69180000Y-28376666D01*
X69132380Y-28281428D01*
X65052380Y-29852857D02*
X64576190Y-30186190D01*
X65052380Y-30424285D02*
X64052380Y-30424285D01*
X64052380Y-30043333D01*
X64100000Y-29948095D01*
X64147619Y-29900476D01*
X64242857Y-29852857D01*
X64385714Y-29852857D01*
X64480952Y-29900476D01*
X64528571Y-29948095D01*
X64576190Y-30043333D01*
X64576190Y-30424285D01*
X64147619Y-29471904D02*
X64100000Y-29424285D01*
X64052380Y-29329047D01*
X64052380Y-29090952D01*
X64100000Y-28995714D01*
X64147619Y-28948095D01*
X64242857Y-28900476D01*
X64338095Y-28900476D01*
X64480952Y-28948095D01*
X65052380Y-29519523D01*
X65052380Y-28900476D01*
X65052380Y-28424285D02*
X65052380Y-28233809D01*
X65004761Y-28138571D01*
X64957142Y-28090952D01*
X64814285Y-27995714D01*
X64623809Y-27948095D01*
X64242857Y-27948095D01*
X64147619Y-27995714D01*
X64100000Y-28043333D01*
X64052380Y-28138571D01*
X64052380Y-28329047D01*
X64100000Y-28424285D01*
X64147619Y-28471904D01*
X64242857Y-28519523D01*
X64480952Y-28519523D01*
X64576190Y-28471904D01*
X64623809Y-28424285D01*
X64671428Y-28329047D01*
X64671428Y-28138571D01*
X64623809Y-28043333D01*
X64576190Y-27995714D01*
X64480952Y-27948095D01*
X59972380Y-29852857D02*
X59496190Y-30186190D01*
X59972380Y-30424285D02*
X58972380Y-30424285D01*
X58972380Y-30043333D01*
X59020000Y-29948095D01*
X59067619Y-29900476D01*
X59162857Y-29852857D01*
X59305714Y-29852857D01*
X59400952Y-29900476D01*
X59448571Y-29948095D01*
X59496190Y-30043333D01*
X59496190Y-30424285D01*
X59067619Y-29471904D02*
X59020000Y-29424285D01*
X58972380Y-29329047D01*
X58972380Y-29090952D01*
X59020000Y-28995714D01*
X59067619Y-28948095D01*
X59162857Y-28900476D01*
X59258095Y-28900476D01*
X59400952Y-28948095D01*
X59972380Y-29519523D01*
X59972380Y-28900476D01*
X59400952Y-28329047D02*
X59353333Y-28424285D01*
X59305714Y-28471904D01*
X59210476Y-28519523D01*
X59162857Y-28519523D01*
X59067619Y-28471904D01*
X59020000Y-28424285D01*
X58972380Y-28329047D01*
X58972380Y-28138571D01*
X59020000Y-28043333D01*
X59067619Y-27995714D01*
X59162857Y-27948095D01*
X59210476Y-27948095D01*
X59305714Y-27995714D01*
X59353333Y-28043333D01*
X59400952Y-28138571D01*
X59400952Y-28329047D01*
X59448571Y-28424285D01*
X59496190Y-28471904D01*
X59591428Y-28519523D01*
X59781904Y-28519523D01*
X59877142Y-28471904D01*
X59924761Y-28424285D01*
X59972380Y-28329047D01*
X59972380Y-28138571D01*
X59924761Y-28043333D01*
X59877142Y-27995714D01*
X59781904Y-27948095D01*
X59591428Y-27948095D01*
X59496190Y-27995714D01*
X59448571Y-28043333D01*
X59400952Y-28138571D01*
X53622380Y-29852857D02*
X53146190Y-30186190D01*
X53622380Y-30424285D02*
X52622380Y-30424285D01*
X52622380Y-30043333D01*
X52670000Y-29948095D01*
X52717619Y-29900476D01*
X52812857Y-29852857D01*
X52955714Y-29852857D01*
X53050952Y-29900476D01*
X53098571Y-29948095D01*
X53146190Y-30043333D01*
X53146190Y-30424285D01*
X52717619Y-29471904D02*
X52670000Y-29424285D01*
X52622380Y-29329047D01*
X52622380Y-29090952D01*
X52670000Y-28995714D01*
X52717619Y-28948095D01*
X52812857Y-28900476D01*
X52908095Y-28900476D01*
X53050952Y-28948095D01*
X53622380Y-29519523D01*
X53622380Y-28900476D01*
X52622380Y-28567142D02*
X52622380Y-27900476D01*
X53622380Y-28329047D01*
X48542380Y-29852857D02*
X48066190Y-30186190D01*
X48542380Y-30424285D02*
X47542380Y-30424285D01*
X47542380Y-30043333D01*
X47590000Y-29948095D01*
X47637619Y-29900476D01*
X47732857Y-29852857D01*
X47875714Y-29852857D01*
X47970952Y-29900476D01*
X48018571Y-29948095D01*
X48066190Y-30043333D01*
X48066190Y-30424285D01*
X47637619Y-29471904D02*
X47590000Y-29424285D01*
X47542380Y-29329047D01*
X47542380Y-29090952D01*
X47590000Y-28995714D01*
X47637619Y-28948095D01*
X47732857Y-28900476D01*
X47828095Y-28900476D01*
X47970952Y-28948095D01*
X48542380Y-29519523D01*
X48542380Y-28900476D01*
X47542380Y-28043333D02*
X47542380Y-28233809D01*
X47590000Y-28329047D01*
X47637619Y-28376666D01*
X47780476Y-28471904D01*
X47970952Y-28519523D01*
X48351904Y-28519523D01*
X48447142Y-28471904D01*
X48494761Y-28424285D01*
X48542380Y-28329047D01*
X48542380Y-28138571D01*
X48494761Y-28043333D01*
X48447142Y-27995714D01*
X48351904Y-27948095D01*
X48113809Y-27948095D01*
X48018571Y-27995714D01*
X47970952Y-28043333D01*
X47923333Y-28138571D01*
X47923333Y-28329047D01*
X47970952Y-28424285D01*
X48018571Y-28471904D01*
X48113809Y-28519523D01*
X43462380Y-29852857D02*
X42986190Y-30186190D01*
X43462380Y-30424285D02*
X42462380Y-30424285D01*
X42462380Y-30043333D01*
X42510000Y-29948095D01*
X42557619Y-29900476D01*
X42652857Y-29852857D01*
X42795714Y-29852857D01*
X42890952Y-29900476D01*
X42938571Y-29948095D01*
X42986190Y-30043333D01*
X42986190Y-30424285D01*
X42557619Y-29471904D02*
X42510000Y-29424285D01*
X42462380Y-29329047D01*
X42462380Y-29090952D01*
X42510000Y-28995714D01*
X42557619Y-28948095D01*
X42652857Y-28900476D01*
X42748095Y-28900476D01*
X42890952Y-28948095D01*
X43462380Y-29519523D01*
X43462380Y-28900476D01*
X42462380Y-27995714D02*
X42462380Y-28471904D01*
X42938571Y-28519523D01*
X42890952Y-28471904D01*
X42843333Y-28376666D01*
X42843333Y-28138571D01*
X42890952Y-28043333D01*
X42938571Y-27995714D01*
X43033809Y-27948095D01*
X43271904Y-27948095D01*
X43367142Y-27995714D01*
X43414761Y-28043333D01*
X43462380Y-28138571D01*
X43462380Y-28376666D01*
X43414761Y-28471904D01*
X43367142Y-28519523D01*
X38382380Y-29852857D02*
X37906190Y-30186190D01*
X38382380Y-30424285D02*
X37382380Y-30424285D01*
X37382380Y-30043333D01*
X37430000Y-29948095D01*
X37477619Y-29900476D01*
X37572857Y-29852857D01*
X37715714Y-29852857D01*
X37810952Y-29900476D01*
X37858571Y-29948095D01*
X37906190Y-30043333D01*
X37906190Y-30424285D01*
X37477619Y-29471904D02*
X37430000Y-29424285D01*
X37382380Y-29329047D01*
X37382380Y-29090952D01*
X37430000Y-28995714D01*
X37477619Y-28948095D01*
X37572857Y-28900476D01*
X37668095Y-28900476D01*
X37810952Y-28948095D01*
X38382380Y-29519523D01*
X38382380Y-28900476D01*
X37715714Y-28043333D02*
X38382380Y-28043333D01*
X37334761Y-28281428D02*
X38049047Y-28519523D01*
X38049047Y-27900476D01*
X33302380Y-29852857D02*
X32826190Y-30186190D01*
X33302380Y-30424285D02*
X32302380Y-30424285D01*
X32302380Y-30043333D01*
X32350000Y-29948095D01*
X32397619Y-29900476D01*
X32492857Y-29852857D01*
X32635714Y-29852857D01*
X32730952Y-29900476D01*
X32778571Y-29948095D01*
X32826190Y-30043333D01*
X32826190Y-30424285D01*
X32397619Y-29471904D02*
X32350000Y-29424285D01*
X32302380Y-29329047D01*
X32302380Y-29090952D01*
X32350000Y-28995714D01*
X32397619Y-28948095D01*
X32492857Y-28900476D01*
X32588095Y-28900476D01*
X32730952Y-28948095D01*
X33302380Y-29519523D01*
X33302380Y-28900476D01*
X32302380Y-28567142D02*
X32302380Y-27948095D01*
X32683333Y-28281428D01*
X32683333Y-28138571D01*
X32730952Y-28043333D01*
X32778571Y-27995714D01*
X32873809Y-27948095D01*
X33111904Y-27948095D01*
X33207142Y-27995714D01*
X33254761Y-28043333D01*
X33302380Y-28138571D01*
X33302380Y-28424285D01*
X33254761Y-28519523D01*
X33207142Y-28567142D01*
X28222380Y-29852857D02*
X27746190Y-30186190D01*
X28222380Y-30424285D02*
X27222380Y-30424285D01*
X27222380Y-30043333D01*
X27270000Y-29948095D01*
X27317619Y-29900476D01*
X27412857Y-29852857D01*
X27555714Y-29852857D01*
X27650952Y-29900476D01*
X27698571Y-29948095D01*
X27746190Y-30043333D01*
X27746190Y-30424285D01*
X27317619Y-29471904D02*
X27270000Y-29424285D01*
X27222380Y-29329047D01*
X27222380Y-29090952D01*
X27270000Y-28995714D01*
X27317619Y-28948095D01*
X27412857Y-28900476D01*
X27508095Y-28900476D01*
X27650952Y-28948095D01*
X28222380Y-29519523D01*
X28222380Y-28900476D01*
X27317619Y-28519523D02*
X27270000Y-28471904D01*
X27222380Y-28376666D01*
X27222380Y-28138571D01*
X27270000Y-28043333D01*
X27317619Y-27995714D01*
X27412857Y-27948095D01*
X27508095Y-27948095D01*
X27650952Y-27995714D01*
X28222380Y-28567142D01*
X28222380Y-27948095D01*
X23142380Y-29852857D02*
X22666190Y-30186190D01*
X23142380Y-30424285D02*
X22142380Y-30424285D01*
X22142380Y-30043333D01*
X22190000Y-29948095D01*
X22237619Y-29900476D01*
X22332857Y-29852857D01*
X22475714Y-29852857D01*
X22570952Y-29900476D01*
X22618571Y-29948095D01*
X22666190Y-30043333D01*
X22666190Y-30424285D01*
X22237619Y-29471904D02*
X22190000Y-29424285D01*
X22142380Y-29329047D01*
X22142380Y-29090952D01*
X22190000Y-28995714D01*
X22237619Y-28948095D01*
X22332857Y-28900476D01*
X22428095Y-28900476D01*
X22570952Y-28948095D01*
X23142380Y-29519523D01*
X23142380Y-28900476D01*
X23142380Y-27948095D02*
X23142380Y-28519523D01*
X23142380Y-28233809D02*
X22142380Y-28233809D01*
X22285238Y-28329047D01*
X22380476Y-28424285D01*
X22428095Y-28519523D01*
X18062380Y-29852857D02*
X17586190Y-30186190D01*
X18062380Y-30424285D02*
X17062380Y-30424285D01*
X17062380Y-30043333D01*
X17110000Y-29948095D01*
X17157619Y-29900476D01*
X17252857Y-29852857D01*
X17395714Y-29852857D01*
X17490952Y-29900476D01*
X17538571Y-29948095D01*
X17586190Y-30043333D01*
X17586190Y-30424285D01*
X17157619Y-29471904D02*
X17110000Y-29424285D01*
X17062380Y-29329047D01*
X17062380Y-29090952D01*
X17110000Y-28995714D01*
X17157619Y-28948095D01*
X17252857Y-28900476D01*
X17348095Y-28900476D01*
X17490952Y-28948095D01*
X18062380Y-29519523D01*
X18062380Y-28900476D01*
X17062380Y-28281428D02*
X17062380Y-28186190D01*
X17110000Y-28090952D01*
X17157619Y-28043333D01*
X17252857Y-27995714D01*
X17443333Y-27948095D01*
X17681428Y-27948095D01*
X17871904Y-27995714D01*
X17967142Y-28043333D01*
X18014761Y-28090952D01*
X18062380Y-28186190D01*
X18062380Y-28281428D01*
X18014761Y-28376666D01*
X17967142Y-28424285D01*
X17871904Y-28471904D01*
X17681428Y-28519523D01*
X17443333Y-28519523D01*
X17252857Y-28471904D01*
X17157619Y-28424285D01*
X17110000Y-28376666D01*
X17062380Y-28281428D01*
X176522142Y-47442380D02*
X176188809Y-46966190D01*
X175950714Y-47442380D02*
X175950714Y-46442380D01*
X176331666Y-46442380D01*
X176426904Y-46490000D01*
X176474523Y-46537619D01*
X176522142Y-46632857D01*
X176522142Y-46775714D01*
X176474523Y-46870952D01*
X176426904Y-46918571D01*
X176331666Y-46966190D01*
X175950714Y-46966190D01*
X177474523Y-47442380D02*
X176903095Y-47442380D01*
X177188809Y-47442380D02*
X177188809Y-46442380D01*
X177093571Y-46585238D01*
X176998333Y-46680476D01*
X176903095Y-46728095D01*
X177950714Y-47442380D02*
X178141190Y-47442380D01*
X178236428Y-47394761D01*
X178284047Y-47347142D01*
X178379285Y-47204285D01*
X178426904Y-47013809D01*
X178426904Y-46632857D01*
X178379285Y-46537619D01*
X178331666Y-46490000D01*
X178236428Y-46442380D01*
X178045952Y-46442380D01*
X177950714Y-46490000D01*
X177903095Y-46537619D01*
X177855476Y-46632857D01*
X177855476Y-46870952D01*
X177903095Y-46966190D01*
X177950714Y-47013809D01*
X178045952Y-47061428D01*
X178236428Y-47061428D01*
X178331666Y-47013809D01*
X178379285Y-46966190D01*
X178426904Y-46870952D01*
X176522142Y-50617380D02*
X176188809Y-50141190D01*
X175950714Y-50617380D02*
X175950714Y-49617380D01*
X176331666Y-49617380D01*
X176426904Y-49665000D01*
X176474523Y-49712619D01*
X176522142Y-49807857D01*
X176522142Y-49950714D01*
X176474523Y-50045952D01*
X176426904Y-50093571D01*
X176331666Y-50141190D01*
X175950714Y-50141190D01*
X177474523Y-50617380D02*
X176903095Y-50617380D01*
X177188809Y-50617380D02*
X177188809Y-49617380D01*
X177093571Y-49760238D01*
X176998333Y-49855476D01*
X176903095Y-49903095D01*
X178045952Y-50045952D02*
X177950714Y-49998333D01*
X177903095Y-49950714D01*
X177855476Y-49855476D01*
X177855476Y-49807857D01*
X177903095Y-49712619D01*
X177950714Y-49665000D01*
X178045952Y-49617380D01*
X178236428Y-49617380D01*
X178331666Y-49665000D01*
X178379285Y-49712619D01*
X178426904Y-49807857D01*
X178426904Y-49855476D01*
X178379285Y-49950714D01*
X178331666Y-49998333D01*
X178236428Y-50045952D01*
X178045952Y-50045952D01*
X177950714Y-50093571D01*
X177903095Y-50141190D01*
X177855476Y-50236428D01*
X177855476Y-50426904D01*
X177903095Y-50522142D01*
X177950714Y-50569761D01*
X178045952Y-50617380D01*
X178236428Y-50617380D01*
X178331666Y-50569761D01*
X178379285Y-50522142D01*
X178426904Y-50426904D01*
X178426904Y-50236428D01*
X178379285Y-50141190D01*
X178331666Y-50093571D01*
X178236428Y-50045952D01*
X176522142Y-53792380D02*
X176188809Y-53316190D01*
X175950714Y-53792380D02*
X175950714Y-52792380D01*
X176331666Y-52792380D01*
X176426904Y-52840000D01*
X176474523Y-52887619D01*
X176522142Y-52982857D01*
X176522142Y-53125714D01*
X176474523Y-53220952D01*
X176426904Y-53268571D01*
X176331666Y-53316190D01*
X175950714Y-53316190D01*
X177474523Y-53792380D02*
X176903095Y-53792380D01*
X177188809Y-53792380D02*
X177188809Y-52792380D01*
X177093571Y-52935238D01*
X176998333Y-53030476D01*
X176903095Y-53078095D01*
X177807857Y-52792380D02*
X178474523Y-52792380D01*
X178045952Y-53792380D01*
X176522142Y-56967380D02*
X176188809Y-56491190D01*
X175950714Y-56967380D02*
X175950714Y-55967380D01*
X176331666Y-55967380D01*
X176426904Y-56015000D01*
X176474523Y-56062619D01*
X176522142Y-56157857D01*
X176522142Y-56300714D01*
X176474523Y-56395952D01*
X176426904Y-56443571D01*
X176331666Y-56491190D01*
X175950714Y-56491190D01*
X177474523Y-56967380D02*
X176903095Y-56967380D01*
X177188809Y-56967380D02*
X177188809Y-55967380D01*
X177093571Y-56110238D01*
X176998333Y-56205476D01*
X176903095Y-56253095D01*
X178331666Y-55967380D02*
X178141190Y-55967380D01*
X178045952Y-56015000D01*
X177998333Y-56062619D01*
X177903095Y-56205476D01*
X177855476Y-56395952D01*
X177855476Y-56776904D01*
X177903095Y-56872142D01*
X177950714Y-56919761D01*
X178045952Y-56967380D01*
X178236428Y-56967380D01*
X178331666Y-56919761D01*
X178379285Y-56872142D01*
X178426904Y-56776904D01*
X178426904Y-56538809D01*
X178379285Y-56443571D01*
X178331666Y-56395952D01*
X178236428Y-56348333D01*
X178045952Y-56348333D01*
X177950714Y-56395952D01*
X177903095Y-56443571D01*
X177855476Y-56538809D01*
X176522142Y-60142380D02*
X176188809Y-59666190D01*
X175950714Y-60142380D02*
X175950714Y-59142380D01*
X176331666Y-59142380D01*
X176426904Y-59190000D01*
X176474523Y-59237619D01*
X176522142Y-59332857D01*
X176522142Y-59475714D01*
X176474523Y-59570952D01*
X176426904Y-59618571D01*
X176331666Y-59666190D01*
X175950714Y-59666190D01*
X177474523Y-60142380D02*
X176903095Y-60142380D01*
X177188809Y-60142380D02*
X177188809Y-59142380D01*
X177093571Y-59285238D01*
X176998333Y-59380476D01*
X176903095Y-59428095D01*
X178379285Y-59142380D02*
X177903095Y-59142380D01*
X177855476Y-59618571D01*
X177903095Y-59570952D01*
X177998333Y-59523333D01*
X178236428Y-59523333D01*
X178331666Y-59570952D01*
X178379285Y-59618571D01*
X178426904Y-59713809D01*
X178426904Y-59951904D01*
X178379285Y-60047142D01*
X178331666Y-60094761D01*
X178236428Y-60142380D01*
X177998333Y-60142380D01*
X177903095Y-60094761D01*
X177855476Y-60047142D01*
X176522142Y-63317380D02*
X176188809Y-62841190D01*
X175950714Y-63317380D02*
X175950714Y-62317380D01*
X176331666Y-62317380D01*
X176426904Y-62365000D01*
X176474523Y-62412619D01*
X176522142Y-62507857D01*
X176522142Y-62650714D01*
X176474523Y-62745952D01*
X176426904Y-62793571D01*
X176331666Y-62841190D01*
X175950714Y-62841190D01*
X177474523Y-63317380D02*
X176903095Y-63317380D01*
X177188809Y-63317380D02*
X177188809Y-62317380D01*
X177093571Y-62460238D01*
X176998333Y-62555476D01*
X176903095Y-62603095D01*
X178331666Y-62650714D02*
X178331666Y-63317380D01*
X178093571Y-62269761D02*
X177855476Y-62984047D01*
X178474523Y-62984047D01*
X175887142Y-66492380D02*
X175553809Y-66016190D01*
X175315714Y-66492380D02*
X175315714Y-65492380D01*
X175696666Y-65492380D01*
X175791904Y-65540000D01*
X175839523Y-65587619D01*
X175887142Y-65682857D01*
X175887142Y-65825714D01*
X175839523Y-65920952D01*
X175791904Y-65968571D01*
X175696666Y-66016190D01*
X175315714Y-66016190D01*
X176839523Y-66492380D02*
X176268095Y-66492380D01*
X176553809Y-66492380D02*
X176553809Y-65492380D01*
X176458571Y-65635238D01*
X176363333Y-65730476D01*
X176268095Y-65778095D01*
X177172857Y-65492380D02*
X177791904Y-65492380D01*
X177458571Y-65873333D01*
X177601428Y-65873333D01*
X177696666Y-65920952D01*
X177744285Y-65968571D01*
X177791904Y-66063809D01*
X177791904Y-66301904D01*
X177744285Y-66397142D01*
X177696666Y-66444761D01*
X177601428Y-66492380D01*
X177315714Y-66492380D01*
X177220476Y-66444761D01*
X177172857Y-66397142D01*
X175887142Y-69667380D02*
X175553809Y-69191190D01*
X175315714Y-69667380D02*
X175315714Y-68667380D01*
X175696666Y-68667380D01*
X175791904Y-68715000D01*
X175839523Y-68762619D01*
X175887142Y-68857857D01*
X175887142Y-69000714D01*
X175839523Y-69095952D01*
X175791904Y-69143571D01*
X175696666Y-69191190D01*
X175315714Y-69191190D01*
X176839523Y-69667380D02*
X176268095Y-69667380D01*
X176553809Y-69667380D02*
X176553809Y-68667380D01*
X176458571Y-68810238D01*
X176363333Y-68905476D01*
X176268095Y-68953095D01*
X177220476Y-68762619D02*
X177268095Y-68715000D01*
X177363333Y-68667380D01*
X177601428Y-68667380D01*
X177696666Y-68715000D01*
X177744285Y-68762619D01*
X177791904Y-68857857D01*
X177791904Y-68953095D01*
X177744285Y-69095952D01*
X177172857Y-69667380D01*
X177791904Y-69667380D01*
X158416666Y-13422380D02*
X158416666Y-14136666D01*
X158369047Y-14279523D01*
X158273809Y-14374761D01*
X158130952Y-14422380D01*
X158035714Y-14422380D01*
X159035714Y-13850952D02*
X158940476Y-13803333D01*
X158892857Y-13755714D01*
X158845238Y-13660476D01*
X158845238Y-13612857D01*
X158892857Y-13517619D01*
X158940476Y-13470000D01*
X159035714Y-13422380D01*
X159226190Y-13422380D01*
X159321428Y-13470000D01*
X159369047Y-13517619D01*
X159416666Y-13612857D01*
X159416666Y-13660476D01*
X159369047Y-13755714D01*
X159321428Y-13803333D01*
X159226190Y-13850952D01*
X159035714Y-13850952D01*
X158940476Y-13898571D01*
X158892857Y-13946190D01*
X158845238Y-14041428D01*
X158845238Y-14231904D01*
X158892857Y-14327142D01*
X158940476Y-14374761D01*
X159035714Y-14422380D01*
X159226190Y-14422380D01*
X159321428Y-14374761D01*
X159369047Y-14327142D01*
X159416666Y-14231904D01*
X159416666Y-14041428D01*
X159369047Y-13946190D01*
X159321428Y-13898571D01*
X159226190Y-13850952D01*
X116506666Y-13422380D02*
X116506666Y-14136666D01*
X116459047Y-14279523D01*
X116363809Y-14374761D01*
X116220952Y-14422380D01*
X116125714Y-14422380D01*
X116887619Y-13422380D02*
X117554285Y-13422380D01*
X117125714Y-14422380D01*
X74596666Y-13422380D02*
X74596666Y-14136666D01*
X74549047Y-14279523D01*
X74453809Y-14374761D01*
X74310952Y-14422380D01*
X74215714Y-14422380D01*
X75501428Y-13422380D02*
X75310952Y-13422380D01*
X75215714Y-13470000D01*
X75168095Y-13517619D01*
X75072857Y-13660476D01*
X75025238Y-13850952D01*
X75025238Y-14231904D01*
X75072857Y-14327142D01*
X75120476Y-14374761D01*
X75215714Y-14422380D01*
X75406190Y-14422380D01*
X75501428Y-14374761D01*
X75549047Y-14327142D01*
X75596666Y-14231904D01*
X75596666Y-13993809D01*
X75549047Y-13898571D01*
X75501428Y-13850952D01*
X75406190Y-13803333D01*
X75215714Y-13803333D01*
X75120476Y-13850952D01*
X75072857Y-13898571D01*
X75025238Y-13993809D01*
X32686666Y-13422380D02*
X32686666Y-14136666D01*
X32639047Y-14279523D01*
X32543809Y-14374761D01*
X32400952Y-14422380D01*
X32305714Y-14422380D01*
X33639047Y-13422380D02*
X33162857Y-13422380D01*
X33115238Y-13898571D01*
X33162857Y-13850952D01*
X33258095Y-13803333D01*
X33496190Y-13803333D01*
X33591428Y-13850952D01*
X33639047Y-13898571D01*
X33686666Y-13993809D01*
X33686666Y-14231904D01*
X33639047Y-14327142D01*
X33591428Y-14374761D01*
X33496190Y-14422380D01*
X33258095Y-14422380D01*
X33162857Y-14374761D01*
X33115238Y-14327142D01*
X203501666Y-32472380D02*
X203501666Y-33186666D01*
X203454047Y-33329523D01*
X203358809Y-33424761D01*
X203215952Y-33472380D01*
X203120714Y-33472380D01*
X204406428Y-32805714D02*
X204406428Y-33472380D01*
X204168333Y-32424761D02*
X203930238Y-33139047D01*
X204549285Y-33139047D01*
X204572380Y-62718333D02*
X205286666Y-62718333D01*
X205429523Y-62765952D01*
X205524761Y-62861190D01*
X205572380Y-63004047D01*
X205572380Y-63099285D01*
X204667619Y-62289761D02*
X204620000Y-62242142D01*
X204572380Y-62146904D01*
X204572380Y-61908809D01*
X204620000Y-61813571D01*
X204667619Y-61765952D01*
X204762857Y-61718333D01*
X204858095Y-61718333D01*
X205000952Y-61765952D01*
X205572380Y-62337380D01*
X205572380Y-61718333D01*
%LPC*%
D12*
X173355000Y-40640000D03*
X17780000Y-40640000D03*
X187325000Y-69215000D03*
X187325000Y-13970000D03*
D13*
X57912000Y-53340000D03*
D14*
X47752000Y-53340000D03*
D13*
X62992000Y-42164000D03*
D14*
X62992000Y-52324000D03*
D13*
X57912000Y-57404000D03*
D14*
X47752000Y-57404000D03*
D13*
X66548000Y-42164000D03*
D14*
X66548000Y-52324000D03*
D15*
X187325000Y-50165000D03*
X187325000Y-47625000D03*
X187325000Y-52705000D03*
X187325000Y-55245000D03*
X187325000Y-57785000D03*
X187325000Y-60325000D03*
X187325000Y-62865000D03*
X14605000Y-54991000D03*
X14605000Y-57531000D03*
X14605000Y-60071000D03*
D16*
X13208000Y-49276000D03*
D17*
X15208000Y-49276000D03*
D16*
X18288000Y-49276000D03*
D17*
X20288000Y-49276000D03*
D14*
X144145000Y-61595000D03*
X144145000Y-66595000D03*
X126365000Y-61595000D03*
X126365000Y-66595000D03*
X108712000Y-61548000D03*
X108712000Y-66548000D03*
X89535000Y-60325000D03*
X89535000Y-65325000D03*
X156845000Y-61515000D03*
X156845000Y-56515000D03*
X184785000Y-43180000D03*
X189785000Y-43180000D03*
X73660000Y-51990000D03*
X73660000Y-46990000D03*
D18*
X140335000Y-48895000D03*
D13*
X147955000Y-66675000D03*
X140335000Y-51435000D03*
X147955000Y-64135000D03*
X140335000Y-53975000D03*
X147955000Y-61595000D03*
X140335000Y-56515000D03*
X147955000Y-59055000D03*
X140335000Y-59055000D03*
X147955000Y-56515000D03*
X140335000Y-61595000D03*
X147955000Y-53975000D03*
X140335000Y-64135000D03*
X147955000Y-51435000D03*
X140335000Y-66675000D03*
X147955000Y-48895000D03*
D18*
X122555000Y-48895000D03*
D13*
X130175000Y-66675000D03*
X122555000Y-51435000D03*
X130175000Y-64135000D03*
X122555000Y-53975000D03*
X130175000Y-61595000D03*
X122555000Y-56515000D03*
X130175000Y-59055000D03*
X122555000Y-59055000D03*
X130175000Y-56515000D03*
X122555000Y-61595000D03*
X130175000Y-53975000D03*
X122555000Y-64135000D03*
X130175000Y-51435000D03*
X122555000Y-66675000D03*
X130175000Y-48895000D03*
D18*
X104775000Y-48895000D03*
D13*
X112395000Y-66675000D03*
X104775000Y-51435000D03*
X112395000Y-64135000D03*
X104775000Y-53975000D03*
X112395000Y-61595000D03*
X104775000Y-56515000D03*
X112395000Y-59055000D03*
X104775000Y-59055000D03*
X112395000Y-56515000D03*
X104775000Y-61595000D03*
X112395000Y-53975000D03*
X104775000Y-64135000D03*
X112395000Y-51435000D03*
X104775000Y-66675000D03*
X112395000Y-48895000D03*
D18*
X86995000Y-48895000D03*
D13*
X94615000Y-66675000D03*
X86995000Y-51435000D03*
X94615000Y-64135000D03*
X86995000Y-53975000D03*
X94615000Y-61595000D03*
X86995000Y-56515000D03*
X94615000Y-59055000D03*
X86995000Y-59055000D03*
X94615000Y-56515000D03*
X86995000Y-61595000D03*
X94615000Y-53975000D03*
X86995000Y-64135000D03*
X94615000Y-51435000D03*
X86995000Y-66675000D03*
X94615000Y-48895000D03*
X160020000Y-48895000D03*
X152400000Y-66675000D03*
X160020000Y-51435000D03*
X152400000Y-64135000D03*
X160020000Y-53975000D03*
X152400000Y-61595000D03*
X160020000Y-56515000D03*
X152400000Y-59055000D03*
X160020000Y-59055000D03*
X152400000Y-56515000D03*
X160020000Y-61595000D03*
X152400000Y-53975000D03*
X160020000Y-64135000D03*
X152400000Y-51435000D03*
X160020000Y-66675000D03*
D18*
X152400000Y-48895000D03*
D13*
X191135000Y-19685000D03*
X183515000Y-40005000D03*
X191135000Y-22225000D03*
X183515000Y-37465000D03*
X191135000Y-24765000D03*
X183515000Y-34925000D03*
X191135000Y-27305000D03*
X183515000Y-32385000D03*
X191135000Y-29845000D03*
X183515000Y-29845000D03*
X191135000Y-32385000D03*
X183515000Y-27305000D03*
X191135000Y-34925000D03*
X183515000Y-24765000D03*
X191135000Y-37465000D03*
X183515000Y-22225000D03*
X191135000Y-40005000D03*
D18*
X183515000Y-19685000D03*
X69850000Y-46990000D03*
D13*
X77470000Y-69850000D03*
X69850000Y-49530000D03*
X77470000Y-67310000D03*
X69850000Y-52070000D03*
X77470000Y-64770000D03*
X69850000Y-54610000D03*
X77470000Y-62230000D03*
X69850000Y-57150000D03*
X77470000Y-59690000D03*
X69850000Y-59690000D03*
X77470000Y-57150000D03*
X69850000Y-62230000D03*
X77470000Y-54610000D03*
X69850000Y-64770000D03*
X77470000Y-52070000D03*
X69850000Y-67310000D03*
X77470000Y-49530000D03*
X69850000Y-69850000D03*
X77470000Y-46990000D03*
D19*
X57785000Y-45470000D03*
X55245000Y-45470000D03*
X52705000Y-45470000D03*
X50165000Y-45470000D03*
X47625000Y-45470000D03*
X45085000Y-45470000D03*
X42545000Y-45470000D03*
X40005000Y-45470000D03*
X37465000Y-45470000D03*
X34925000Y-45470000D03*
X32385000Y-45470000D03*
X29845000Y-45470000D03*
X27305000Y-45470000D03*
X24765000Y-45470000D03*
X22225000Y-45470000D03*
X19685000Y-45470000D03*
X17145000Y-45470000D03*
X14605000Y-45470000D03*
X12065000Y-45470000D03*
X12065000Y-71370000D03*
X14605000Y-71370000D03*
X17145000Y-71370000D03*
X19685000Y-71370000D03*
X22225000Y-71370000D03*
X24765000Y-71370000D03*
X27305000Y-71370000D03*
X29845000Y-71370000D03*
X32385000Y-71370000D03*
X34925000Y-71370000D03*
X37465000Y-71370000D03*
X40005000Y-71370000D03*
X42545000Y-71370000D03*
X45085000Y-71370000D03*
X47625000Y-71370000D03*
X50165000Y-71370000D03*
X52705000Y-71370000D03*
X55245000Y-71370000D03*
X57785000Y-71370000D03*
D13*
X176530000Y-34290000D03*
D14*
X176530000Y-24130000D03*
D13*
X171450000Y-34290000D03*
D14*
X171450000Y-24130000D03*
D13*
X166370000Y-34290000D03*
D14*
X166370000Y-24130000D03*
D13*
X161290000Y-34290000D03*
D14*
X161290000Y-24130000D03*
D13*
X156210000Y-34290000D03*
D14*
X156210000Y-24130000D03*
D13*
X151130000Y-34290000D03*
D14*
X151130000Y-24130000D03*
D13*
X146050000Y-34290000D03*
D14*
X146050000Y-24130000D03*
D13*
X140970000Y-34290000D03*
D14*
X140970000Y-24130000D03*
D13*
X134620000Y-34290000D03*
D14*
X134620000Y-24130000D03*
D13*
X129540000Y-34290000D03*
D14*
X129540000Y-24130000D03*
D13*
X124460000Y-34290000D03*
D14*
X124460000Y-24130000D03*
D13*
X119380000Y-34290000D03*
D14*
X119380000Y-24130000D03*
D13*
X114300000Y-34290000D03*
D14*
X114300000Y-24130000D03*
D13*
X109220000Y-34290000D03*
D14*
X109220000Y-24130000D03*
D13*
X104140000Y-34290000D03*
D14*
X104140000Y-24130000D03*
D13*
X99060000Y-34290000D03*
D14*
X99060000Y-24130000D03*
D13*
X92710000Y-34290000D03*
D14*
X92710000Y-24130000D03*
D13*
X87630000Y-34290000D03*
D14*
X87630000Y-24130000D03*
D13*
X82550000Y-34290000D03*
D14*
X82550000Y-24130000D03*
D13*
X77470000Y-34290000D03*
D14*
X77470000Y-24130000D03*
D13*
X72390000Y-34290000D03*
D14*
X72390000Y-24130000D03*
D13*
X67310000Y-34290000D03*
D14*
X67310000Y-24130000D03*
D13*
X62230000Y-34290000D03*
D14*
X62230000Y-24130000D03*
D13*
X57150000Y-34290000D03*
D14*
X57150000Y-24130000D03*
D13*
X50800000Y-34290000D03*
D14*
X50800000Y-24130000D03*
D13*
X45720000Y-34290000D03*
D14*
X45720000Y-24130000D03*
D13*
X40640000Y-34290000D03*
D14*
X40640000Y-24130000D03*
D13*
X35560000Y-34290000D03*
D14*
X35560000Y-24130000D03*
D13*
X30480000Y-34290000D03*
D14*
X30480000Y-24130000D03*
D13*
X25400000Y-34290000D03*
D14*
X25400000Y-24130000D03*
D13*
X20320000Y-34290000D03*
D14*
X20320000Y-24130000D03*
D13*
X15240000Y-34290000D03*
D14*
X15240000Y-24130000D03*
D13*
X164465000Y-46990000D03*
D14*
X174625000Y-46990000D03*
D13*
X164465000Y-50165000D03*
D14*
X174625000Y-50165000D03*
D13*
X164465000Y-53340000D03*
D14*
X174625000Y-53340000D03*
D13*
X164465000Y-56515000D03*
D14*
X174625000Y-56515000D03*
D13*
X164465000Y-59690000D03*
D14*
X174625000Y-59690000D03*
D13*
X164465000Y-62865000D03*
D14*
X174625000Y-62865000D03*
D13*
X164465000Y-66040000D03*
D14*
X174625000Y-66040000D03*
D13*
X164465000Y-69215000D03*
D14*
X174625000Y-69215000D03*
D13*
X42545000Y-63500000D03*
D14*
X42545000Y-53340000D03*
D13*
X19685000Y-63500000D03*
D14*
X19685000Y-53340000D03*
D13*
X38735000Y-63500000D03*
D14*
X38735000Y-53340000D03*
D13*
X23495000Y-53340000D03*
D14*
X23495000Y-63500000D03*
D13*
X31115000Y-53340000D03*
D14*
X31115000Y-63500000D03*
D13*
X34925000Y-53340000D03*
D14*
X34925000Y-63500000D03*
D13*
X27305000Y-53340000D03*
D14*
X27305000Y-63500000D03*
D20*
X176530000Y-17780000D03*
X171450000Y-17780000D03*
X166370000Y-17780000D03*
X161290000Y-17780000D03*
X156210000Y-17780000D03*
X151130000Y-17780000D03*
X146050000Y-17780000D03*
D21*
X140970000Y-17780000D03*
D20*
X134620000Y-17780000D03*
X129540000Y-17780000D03*
X124460000Y-17780000D03*
X119380000Y-17780000D03*
X114300000Y-17780000D03*
X109220000Y-17780000D03*
X104140000Y-17780000D03*
D21*
X99060000Y-17780000D03*
D20*
X92710000Y-17780000D03*
X87630000Y-17780000D03*
X82550000Y-17780000D03*
X77470000Y-17780000D03*
X72390000Y-17780000D03*
X67310000Y-17780000D03*
X62230000Y-17780000D03*
D21*
X57150000Y-17780000D03*
D20*
X50800000Y-17780000D03*
X45720000Y-17780000D03*
X40640000Y-17780000D03*
X35560000Y-17780000D03*
X30480000Y-17780000D03*
X25400000Y-17780000D03*
X20320000Y-17780000D03*
D21*
X15240000Y-17780000D03*
D20*
X200025000Y-50800000D03*
X200025000Y-45720000D03*
X200025000Y-40640000D03*
X200025000Y-35560000D03*
X200025000Y-30480000D03*
X200025000Y-25400000D03*
X200025000Y-20320000D03*
D21*
X200025000Y-15240000D03*
D22*
X200660000Y-64135000D03*
D23*
X200660000Y-60635000D03*
M02*
